<svg xmlns="http://www.w3.org/2000/svg" width="271.852" height="339.766" viewBox="0 0 271.852 339.766">
  <g id="Grupo_111259" data-name="Grupo 111259" transform="translate(-958.149 -1813.232)">
    <g id="Grupo_111258" data-name="Grupo 111258">
      <path id="Trazado_171279" data-name="Trazado 171279" d="M-959.171,822.4a418.338,418.338,0,0,1-9,86.412l-188-42.91-43.235-9.867a179.563,179.563,0,0,0,3.048-30.32c.014-.939.023-1.879.023-2.823a177.622,177.622,0,0,0-34.687-105.738l168.97-134.747,16.752-13.361a416.541,416.541,0,0,1,44.817,72.5q1.12,2.318,2.212,4.645A413.352,413.352,0,0,1-969.484,730,417.985,417.985,0,0,1-959.171,822.4Z" transform="translate(2189.172 1244.186)" fill="#c99a28"/>
      <path id="Trazado_171280" data-name="Trazado 171280" d="M-931.3,853.52a418.333,418.333,0,0,1-9,86.412l-188-42.91-22.472-22.472-1.691-1.691c.606-6.255.906-12.553.906-18.846a193.716,193.716,0,0,0-28.854-102.249l158.262-126.2,51.749,51.749a413.343,413.343,0,0,1,28.789,83.816A417.989,417.989,0,0,1-931.3,853.52Z" transform="translate(2161.303 1213.064)" fill="#7b5d14" opacity="0.3"/>
      <path id="Trazado_171293" data-name="Trazado 171293" d="M-948.209,852.023a402.791,402.791,0,0,1-5.443,66.026l-197.124-45-1.813-.413c.042-.427.084-.85.122-1.277.606-6.255.906-12.553.906-18.846a193.716,193.716,0,0,0-28.854-102.249l158.262-126.2,1.526-1.221q3.022,4.3,5.927,8.674a398.824,398.824,0,0,1,26.868,47.02A396.165,396.165,0,0,1-958.1,763.371,401.064,401.064,0,0,1-948.209,852.023Z" transform="translate(2161.303 1214.561)" fill="#ffecb3"/>
      <path id="Trazado_171294" data-name="Trazado 171294" d="M-1130.05,881.073c.3-4.505.445-9.028.445-13.517A203.219,203.219,0,0,0-1155.9,767.335l146.941-117.181a391.364,391.364,0,0,1,27.016,47.1,387.908,387.908,0,0,1,29.1,83.024,392.6,392.6,0,0,1,9.684,86.781,395.538,395.538,0,0,1-3.958,55.762Z" transform="translate(2147.801 1199.521)" fill="#fffae8"/>
      <path id="Trazado_171594" data-name="Trazado 171594" d="M32.5,0A32.5,32.5,0,1,1,0,32.5,32.5,32.5,0,0,1,32.5,0Z" transform="translate(1073 1969)" fill="#28c65d"/>
      <path id="Trazado_171599" data-name="Trazado 171599" d="M5.815-12.729H8.145q2.769,0,2.769-2.71a2.343,2.343,0,0,0-.659-1.721,2.5,2.5,0,0,0-1.86-.667,2.676,2.676,0,0,0-1.707.571,1.743,1.743,0,0,0-.725,1.421H1.025a5.053,5.053,0,0,1,.938-3,6.191,6.191,0,0,1,2.6-2.058,8.89,8.89,0,0,1,3.655-.74,8.735,8.735,0,0,1,5.6,1.626,5.405,5.405,0,0,1,2.036,4.468,4.505,4.505,0,0,1-.842,2.6,6,6,0,0,1-2.454,1.985A5.734,5.734,0,0,1,15.22-9.089a4.919,4.919,0,0,1,.967,3.1,5.5,5.5,0,0,1-2.2,4.57A9.12,9.12,0,0,1,8.218.293a9.458,9.458,0,0,1-3.889-.8A6.093,6.093,0,0,1,1.611-2.717,5.751,5.751,0,0,1,.688-5.933H5.654a2.223,2.223,0,0,0,.791,1.7,2.793,2.793,0,0,0,1.948.718,2.925,2.925,0,0,0,2.08-.725,2.424,2.424,0,0,0,.776-1.853,2.833,2.833,0,0,0-.806-2.285,3.368,3.368,0,0,0-2.227-.674h-2.4Z" transform="translate(1097 2012)" fill="#12263f"/>
      <g id="Circular_path" data-name="Circular path" transform="translate(1107.726 1949.049)">
        <g id="Grupo_111098" data-name="Grupo 111098" transform="translate(0 0)">
          <path id="Trazado_171299" data-name="Trazado 171299" d="M438.788,311.224a.735.735,0,0,1-.782.687.754.754,0,0,1-.7-.779.734.734,0,0,1,.783-.708A.751.751,0,0,1,438.788,311.224Z" transform="translate(-437.308 -310.421)" fill="#28c65d"/>
          <path id="Trazado_171300" data-name="Trazado 171300" d="M456.437,312.955a.742.742,0,1,1-1.471-.187.742.742,0,1,1,1.471.187Z" transform="translate(-451.271 -311.762)" fill="#28c65d"/>
          <path id="Trazado_171301" data-name="Trazado 171301" d="M473.917,315.879a.742.742,0,0,1-1.453-.3.742.742,0,1,1,1.453.3Z" transform="translate(-465.104 -314.02)" fill="#28c65d"/>
          <path id="Trazado_171302" data-name="Trazado 171302" d="M491.14,320.145a.742.742,0,1,1-1.427-.405.742.742,0,1,1,1.427.405Z" transform="translate(-478.738 -317.361)" fill="#28c65d"/>
          <path id="Trazado_171303" data-name="Trazado 171303" d="M508,325.592a.745.745,0,0,1-.947.438.734.734,0,0,1-.449-.938.753.753,0,0,1,.956-.463A.741.741,0,0,1,508,325.592Z" transform="translate(-492.084 -321.626)" fill="#28c65d"/>
          <path id="Trazado_171304" data-name="Trazado 171304" d="M524.43,332.287a.749.749,0,0,1-.979.375.758.758,0,0,1-.372-.986.73.73,0,0,1,.979-.375A.739.739,0,0,1,524.43,332.287Z" transform="translate(-505.099 -326.883)" fill="#28c65d"/>
          <path id="Trazado_171305" data-name="Trazado 171305" d="M540.313,340.137a.75.75,0,0,1-1,.3.735.735,0,0,1-.308-.994.752.752,0,0,1,1.012-.319A.737.737,0,0,1,540.313,340.137Z" transform="translate(-517.678 -333.056)" fill="#28c65d"/>
          <path id="Trazado_171306" data-name="Trazado 171306" d="M555.608,349.124a.747.747,0,0,1-1.023.229.757.757,0,0,1-.226-1.029.73.73,0,0,1,1.023-.229A.739.739,0,0,1,555.608,349.124Z" transform="translate(-529.8 -340.124)" fill="#28c65d"/>
          <path id="Trazado_171307" data-name="Trazado 171307" d="M570.191,359.193a.75.75,0,0,1-1.034.151.735.735,0,0,1-.161-1.029.751.751,0,0,1,1.047-.169A.737.737,0,0,1,570.191,359.193Z" transform="translate(-541.354 -348.057)" fill="#28c65d"/>
          <path id="Trazado_171308" data-name="Trazado 171308" d="M584.032,370.277a.748.748,0,0,1-1.045.08.757.757,0,0,1-.076-1.051.73.73,0,0,1,1.045-.08A.739.739,0,0,1,584.032,370.277Z" transform="translate(-552.333 -356.788)" fill="#28c65d"/>
          <path id="Trazado_171309" data-name="Trazado 171309" d="M597.022,382.34a.749.749,0,0,1-1.044,0,.735.735,0,0,1-.013-1.041.751.751,0,0,1,1.061-.018A.738.738,0,0,1,597.022,382.34Z" transform="translate(-562.632 -366.302)" fill="#28c65d"/>
          <path id="Trazado_171310" data-name="Trazado 171310" d="M609.128,395.289a.748.748,0,0,1-1.047-.07.757.757,0,0,1,.076-1.051.731.731,0,0,1,1.046.07A.739.739,0,0,1,609.128,395.289Z" transform="translate(-572.241 -376.512)" fill="#28c65d"/>
          <path id="Trazado_171311" data-name="Trazado 171311" d="M620.262,409.091a.747.747,0,0,1-1.033-.149.735.735,0,0,1,.137-1.032.752.752,0,0,1,1.053.134A.74.74,0,0,1,620.262,409.091Z" transform="translate(-581.077 -387.406)" fill="#28c65d"/>
          <path id="Trazado_171312" data-name="Trazado 171312" d="M630.378,423.641a.749.749,0,0,1-1.026-.219.757.757,0,0,1,.225-1.029.742.742,0,1,1,.8,1.248Z" transform="translate(-589.115 -398.887)" fill="#28c65d"/>
          <path id="Trazado_171313" data-name="Trazado 171313" d="M639.421,438.9a.747.747,0,0,1-1-.3.735.735,0,0,1,.283-1,.752.752,0,0,1,1.023.285A.74.74,0,0,1,639.421,438.9Z" transform="translate(-596.302 -410.94)" fill="#28c65d"/>
          <path id="Trazado_171314" data-name="Trazado 171314" d="M647.325,454.758a.748.748,0,0,1-.983-.366.757.757,0,0,1,.372-.986.73.73,0,0,1,.983.366A.739.739,0,0,1,647.325,454.758Z" transform="translate(-602.592 -423.458)" fill="#28c65d"/>
          <path id="Trazado_171315" data-name="Trazado 171315" d="M654.074,471.167a.752.752,0,0,1-.949-.437.736.736,0,0,1,.426-.95.751.751,0,0,1,.97.43A.736.736,0,0,1,654.074,471.167Z" transform="translate(-607.968 -436.425)" fill="#28c65d"/>
          <path id="Trazado_171316" data-name="Trazado 171316" d="M659.591,488a.746.746,0,0,1-.918-.5.76.76,0,0,1,.513-.922.728.728,0,0,1,.918.5A.741.741,0,0,1,659.591,488Z" transform="translate(-612.374 -449.724)" fill="#28c65d"/>
          <path id="Trazado_171317" data-name="Trazado 171317" d="M663.891,505.216a.761.761,0,0,1-.882-.569.738.738,0,0,1,.562-.879.749.749,0,0,1,.9.567A.727.727,0,0,1,663.891,505.216Z" transform="translate(-615.811 -463.333)" fill="#28c65d"/>
          <path id="Trazado_171318" data-name="Trazado 171318" d="M666.911,522.678a.741.741,0,0,1-.831-.633.764.764,0,0,1,.641-.838.724.724,0,0,1,.835.632A.746.746,0,0,1,666.911,522.678Z" transform="translate(-618.249 -477.134)" fill="#28c65d"/>
          <path id="Trazado_171319" data-name="Trazado 171319" d="M668.672,540.329a.762.762,0,0,1-.8-.69.745.745,0,0,1,1.487-.1A.726.726,0,0,1,668.672,540.329Z" transform="translate(-619.67 -491.094)" fill="#28c65d"/>
          <path id="Trazado_171320" data-name="Trazado 171320" d="M669.184,558.054a.734.734,0,0,1-.726-.745.749.749,0,0,1,.739-.738.738.738,0,0,1,.751.744A.753.753,0,0,1,669.184,558.054Z" transform="translate(-620.135 -505.113)" fill="#28c65d"/>
          <path id="Trazado_171321" data-name="Trazado 171321" d="M668.383,575.768a.741.741,0,1,1,.112-1.479.741.741,0,1,1-.112,1.479Z" transform="translate(-619.531 -519.126)" fill="#28c65d"/>
          <path id="Trazado_171322" data-name="Trazado 171322" d="M666.4,593.379a.742.742,0,0,1-.615-.841.733.733,0,0,1,.83-.626.754.754,0,0,1,.643.846A.743.743,0,0,1,666.4,593.379Z" transform="translate(-618.014 -533.06)" fill="#28c65d"/>
          <path id="Trazado_171323" data-name="Trazado 171323" d="M663.045,610.805a.747.747,0,0,1-.56-.886.758.758,0,0,1,.893-.559.729.729,0,0,1,.56.886A.74.74,0,0,1,663.045,610.805Z" transform="translate(-615.396 -546.854)" fill="#28c65d"/>
          <path id="Trazado_171324" data-name="Trazado 171324" d="M658.536,627.931a.757.757,0,0,1-.495-.924.737.737,0,0,1,.916-.5.749.749,0,0,1,.51.929A.73.73,0,0,1,658.536,627.931Z" transform="translate(-611.875 -560.407)" fill="#28c65d"/>
          <path id="Trazado_171325" data-name="Trazado 171325" d="M652.693,644.7a.744.744,0,0,1-.424-.957.762.762,0,0,1,.968-.423.727.727,0,0,1,.424.957A.742.742,0,0,1,652.693,644.7Z" transform="translate(-607.292 -573.69)" fill="#28c65d"/>
          <path id="Trazado_171326" data-name="Trazado 171326" d="M645.744,660.976a.762.762,0,0,1-.358-.987.739.739,0,0,1,.98-.359.747.747,0,0,1,.369.992A.726.726,0,0,1,645.744,660.976Z" transform="translate(-601.836 -586.573)" fill="#28c65d"/>
          <path id="Trazado_171327" data-name="Trazado 171327" d="M637.537,676.734a.743.743,0,0,1-.28-1.007.762.762,0,0,1,1.018-.279.725.725,0,0,1,.281,1.008A.743.743,0,0,1,637.537,676.734Z" transform="translate(-595.382 -599.065)" fill="#28c65d"/>
          <path id="Trazado_171328" data-name="Trazado 171328" d="M628.307,691.82a.763.763,0,0,1-.213-1.029.745.745,0,0,1,1.243.822A.725.725,0,0,1,628.307,691.82Z" transform="translate(-588.119 -611.01)" fill="#28c65d"/>
          <path id="Trazado_171329" data-name="Trazado 171329" d="M617.919,706.24a.744.744,0,0,1-.132-1.037.762.762,0,0,1,1.048-.129.725.725,0,0,1,.133,1.038A.744.744,0,0,1,617.919,706.24Z" transform="translate(-579.935 -622.45)" fill="#28c65d"/>
          <path id="Trazado_171330" data-name="Trazado 171330" d="M606.61,719.835a.761.761,0,0,1-.062-1.048.745.745,0,0,1,1.112.991A.726.726,0,0,1,606.61,719.835Z" transform="translate(-571.026 -633.22)" fill="#28c65d"/>
        </g>
      </g>
      <g id="Arrow" transform="translate(1053.461 1948.959)">
        <path id="Trazado_171331" data-name="Trazado 171331" d="M259.685,402.794a50.554,50.554,0,1,1-29.911-91.311h0a.745.745,0,1,0,0-1.49h0a52.042,52.042,0,1,0,30.793,94h0a.745.745,0,0,0-.883-1.2Z" transform="translate(-177.732 -309.993)" fill="#28c65d"/>
        <path id="Trazado_171332" data-name="Trazado 171332" d="M553.081,734.009l4.679,5.72,5.814-9.53Z" transform="translate(-474.613 -642.353)" fill="#28c65d"/>
      </g>
    </g>
  </g>
</svg>
