<svg xmlns="http://www.w3.org/2000/svg" width="831.252" height="832.229" viewBox="0 0 831.252 832.229">
  <g id="Grupo_111248" data-name="Grupo 111248" transform="translate(-370.001 -4615.001)">
    <path id="Trazado_171271" data-name="Trazado 171271" d="M-1950.224,208.024V445.739a178.022,178.022,0,0,0-128.741,61.639l-41.774-33.325-143.849-114.741q6.558-7.946,13.526-15.578a417.647,417.647,0,0,1,47.489-44.531,418.267,418.267,0,0,1,77.781-49.3l.282-.047.921-.446a404.419,404.419,0,0,1,138.983-39.4Q-1968.164,208.3-1950.224,208.024Z" transform="translate(2729.581 4406.99)" fill="#c99a28"/>
    <path id="Trazado_171272" data-name="Trazado 171272" d="M-1918.977,267.073V467.414a178.021,178.021,0,0,0-128.741,61.639l-41.774-33.325-106.879-106.875-11.473-11.473a400.726,400.726,0,0,1,46.085-43.3,401.214,401.214,0,0,1,72.45-46.226l.23-.038,3.109-1.507a388.113,388.113,0,0,1,147.305-38.919l2.78,2.78Z" transform="translate(2698.334 4385.314)" fill="#7b5d14" opacity="0.3"/>
    <path id="Trazado_171273" data-name="Trazado 171273" d="M-2215.447,734.617A177.635,177.635,0,0,0-2238.835,823a179.039,179.039,0,0,0,2.949,32.466l-202.7,46.263-28.559,6.519a413.561,413.561,0,0,1-6.528-41.6,419.215,419.215,0,0,1-2.33-44.136,418.031,418.031,0,0,1,10.163-91.734,413.193,413.193,0,0,1,30.146-87.027q.416-.874.836-1.747a416.647,416.647,0,0,1,44.911-72.756l16,12.76,29.061,23.172,140.669,112.181A178.028,178.028,0,0,0-2215.447,734.617Z" transform="translate(2846.001 4208.075)" fill="#c99a28"/>
    <path id="Trazado_171274" data-name="Trazado 171274" d="M-2218.115,853.38a179.04,179.04,0,0,0,2.949,32.466l-202.7,46.263-14.118-14.117-1.31-1.31a402.765,402.765,0,0,1-5.082-63.8,401.006,401.006,0,0,1,9.75-88.019,396.185,396.185,0,0,1,29.714-85.135,398.627,398.627,0,0,1,29.794-51.462l3.861-3.861,147.85,117.906,22.679,22.678A177.638,177.638,0,0,0-2218.115,853.38Z" transform="translate(2825.28 4177.697)" fill="#7b5d14" opacity="0.3"/>
    <path id="Trazado_171275" data-name="Trazado 171275" d="M-2130.014,1347.944l-9.533,19.8-93.241,193.616q-4.515-2.282-8.975-4.673a416.95,416.95,0,0,1-63.292-41.774,418.707,418.707,0,0,1-65.4-65.4,416.728,416.728,0,0,1-41.788-63.3q-3.938-7.34-7.575-14.835a413.744,413.744,0,0,1-26.413-69.91q-1.634-5.9-3.1-11.854l19.377-4.424,169.223-38.623,42.624-9.731A178.836,178.836,0,0,0-2130.014,1347.944Z" transform="translate(2831.313 3840.451)" fill="#c99a28"/>
    <path id="Trazado_171276" data-name="Trazado 171276" d="M-2113.951,1396.971l-93.241,193.616q-4.516-2.283-8.975-4.673l-66.575-66.575L-2320.079,1482q-5.946-6.784-11.572-13.821a399.277,399.277,0,0,1-47.357-74.963,396.569,396.569,0,0,1-23.839-61.808l181.833-41.5,38.543,38.543a196.725,196.725,0,0,0,53.881,53.881Z" transform="translate(2805.717 3811.225)" fill="#7b5d14" opacity="0.3"/>
    <path id="Trazado_171277" data-name="Trazado 171277" d="M-1220.45,359.21l-12.906,10.3-172.919,138a178.4,178.4,0,0,0-87.31-55.412,178.078,178.078,0,0,0-40.012-6.321V207.993a417.668,417.668,0,0,1,83.609,10.06q1.3.289,2.607.592a413.269,413.269,0,0,1,83.111,28.883l2.692,1.31q7.741,3.726,15.324,7.772A420.319,420.319,0,0,1-1220.45,359.21Z" transform="translate(2327.043 4407.008)" fill="#c99a28"/>
    <path id="Trazado_171278" data-name="Trazado 171278" d="M-1212.635,399.329l-172.919,138a178.4,178.4,0,0,0-87.309-55.412l-21.631-21.631-1.475-1.475V314.57l52.43-52.425q6.558,1.282,13.065,2.789a396.524,396.524,0,0,1,79.612,27.657l2.672,1.3a404.574,404.574,0,0,1,86.244,56.126l37.284,37.284Z" transform="translate(2306.322 4377.188)" fill="#7b5d14" opacity="0.3"/>
    <path id="Trazado_171279" data-name="Trazado 171279" d="M-959.171,822.4a418.338,418.338,0,0,1-9,86.412l-188-42.91-43.235-9.867a179.563,179.563,0,0,0,3.048-30.32c.014-.939.023-1.879.023-2.823a177.622,177.622,0,0,0-34.687-105.738l168.97-134.747,16.752-13.361a416.541,416.541,0,0,1,44.817,72.5q1.12,2.318,2.212,4.645A413.352,413.352,0,0,1-969.484,730,417.985,417.985,0,0,1-959.171,822.4Z" transform="translate(2160.424 4208.186)" fill="#c99a28"/>
    <path id="Trazado_171280" data-name="Trazado 171280" d="M-931.3,853.52a418.333,418.333,0,0,1-9,86.412l-188-42.91-22.472-22.472-1.691-1.691c.606-6.255.906-12.553.906-18.846a193.716,193.716,0,0,0-28.854-102.249l158.262-126.2,51.749,51.749a413.343,413.343,0,0,1,28.789,83.816A417.989,417.989,0,0,1-931.3,853.52Z" transform="translate(2132.555 4177.064)" fill="#7b5d14" opacity="0.3"/>
    <path id="Trazado_171281" data-name="Trazado 171281" d="M-1044.833,1291.1q-3.332,13.477-7.561,26.7a414.571,414.571,0,0,1-21.885,54.755,414.273,414.273,0,0,1-49.185,77.875l-5.9,7.373a421.478,421.478,0,0,1-59.752,58.357,414.661,414.661,0,0,1-50.894,34.8q-10.771,6.248-21.88,11.82l-31.137-64.833-71.5-148.888a178.874,178.874,0,0,0,88.455-110.735l186.848,42.647Z" transform="translate(2233.939 3839.634)" fill="#c99a28"/>
    <path id="Trazado_171282" data-name="Trazado 171282" d="M-1025.474,1342.232a414.558,414.558,0,0,1-21.885,54.755,414.276,414.276,0,0,1-49.184,77.875l-5.9,7.373a421.465,421.465,0,0,1-59.752,58.357,414.632,414.632,0,0,1-50.894,34.8L-1225.477,1563l-4.546-4.541-85.619-178.287a196.471,196.471,0,0,0,77.879-97.477l197.927,45.174.836.836Z" transform="translate(2207.021 3815.195)" fill="#7b5d14" opacity="0.3"/>
    <path id="Trazado_171283" data-name="Trazado 171283" d="M-1591.912,1712.3a421.2,421.2,0,0,1-79.668,27.394,410.247,410.247,0,0,1-93.485,10.82h-.357a409.071,409.071,0,0,1-93.95-10.98q-12.673-2.994-25.2-6.805a423.222,423.222,0,0,1-54.952-20.987l11.032-22.928,91.879-190.962a177.86,177.86,0,0,0,71.662,14.972,178.566,178.566,0,0,0,47.222-6.317,176.775,176.775,0,0,0,22.956-8.012l28.709,59.677Z" transform="translate(2550.575 3696.715)" fill="#c99a28"/>
    <path id="Trazado_171284" data-name="Trazado 171284" d="M-1562.864,1738.562a421.2,421.2,0,0,1-79.668,27.394,410.252,410.252,0,0,1-93.485,10.82h-.357a409.063,409.063,0,0,1-93.95-10.98q-12.673-2.994-25.2-6.805l-27.605-27.6-3.645-3.649,87.662-182.2a194.267,194.267,0,0,0,63.208,10.449,194.665,194.665,0,0,0,60.8-9.641l1.93,1.93,36.152,36.153Z" transform="translate(2521.526 3670.453)" fill="#7b5d14" opacity="0.3"/>
    <path id="Trazado_171285" data-name="Trazado 171285" d="M-2126.374,1379.026l-.244.507-88.169,183.087a400.256,400.256,0,0,1-54.116-36.458q-7.051-5.636-13.84-11.6a401.459,401.459,0,0,1-37.336-37.336q-5.946-6.784-11.572-13.821a399.274,399.274,0,0,1-47.357-74.963,396.561,396.561,0,0,1-23.839-61.808l181.833-41.5,17.057-3.893a195.024,195.024,0,0,0,21.486,42.436,196.723,196.723,0,0,0,53.881,53.881C-2127.858,1378.054-2127.115,1378.543-2126.374,1379.026Z" transform="translate(2805.717 3815.996)" fill="#f6f6f6"/>
    <path id="Trazado_171286" data-name="Trazado 171286" d="M-2205.295,1562.852a392.937,392.937,0,0,1-45.169-31.188,393.3,393.3,0,0,1-61.427-61.432,391.093,391.093,0,0,1-46.354-73.373,389.227,389.227,0,0,1-20.705-51.9l182.878-41.743A205.863,205.863,0,0,0-2124,1394.038Z" transform="translate(2792.559 3803.893)" fill="#fff"/>
    <path id="Trazado_171287" data-name="Trazado 171287" d="M-1038.821,1328.1c-.061.2-.117.4-.178.606a398.069,398.069,0,0,1-23.571,60.9,397.306,397.306,0,0,1-47.175,74.69l-5.776,7.219a404.55,404.55,0,0,1-57.225,55.863,397.907,397.907,0,0,1-52.73,35.622q-.929.529-1.86,1.047l-2.686-5.589-85.619-178.287a196.471,196.471,0,0,0,77.879-97.477l197.927,45.174Z" transform="translate(2207.021 3815.195)" fill="#ffecb3"/>
    <path id="Trazado_171288" data-name="Trazado 171288" d="M-1291.634,1395.205a205.9,205.9,0,0,0,72.344-90.542l182.941,41.753a390.358,390.358,0,0,1-20.607,51.6,388.812,388.812,0,0,1-46.169,73.1l-5.712,7.141a396.407,396.407,0,0,1-55.963,54.617,391.035,391.035,0,0,1-45.631,31.419Z" transform="translate(2193.8 3803.1)" fill="#fffae8"/>
    <path id="Trazado_171289" data-name="Trazado 171289" d="M-1586.786,1730.062a403.5,403.5,0,0,1-60.672,19.433,393.309,393.309,0,0,1-89.63,10.375h-.357a392.216,392.216,0,0,1-90.061-10.525,402.531,402.531,0,0,1-56.689-17.954q-2.261-.9-4.518-1.836l.873-1.813,87.662-182.2a194.268,194.268,0,0,0,63.208,10.449,194.665,194.665,0,0,0,60.8-9.641c.286-.094.577-.193.864-.287l1.066,2.217Z" transform="translate(2522.597 3670.453)" fill="#ffecb3"/>
    <path id="Trazado_171290" data-name="Trazado 171290" d="M-1723.305,1764.042a383.613,383.613,0,0,1-88.118-10.3,393.991,393.991,0,0,1-51.615-16.046l81.421-169.225a203.437,203.437,0,0,0,58.785,8.6,203.623,203.623,0,0,0,57.214-8.136l81.419,169.238a394.072,394.072,0,0,1-51.051,15.718,384.846,384.846,0,0,1-87.7,10.152Z" transform="translate(2508.458 3657.827)" fill="#fffae8"/>
    <path id="Trazado_171291" data-name="Trazado 171291" d="M-2207.083,751.891a193.727,193.727,0,0,0-27.938,100.741c0,6.495.319,12.99.958,19.438l-197.918,45.174-1.057.24-.253-1.55a402.764,402.764,0,0,1-5.082-63.8,401.007,401.007,0,0,1,9.75-88.019,396.187,396.187,0,0,1,29.714-85.135,398.617,398.617,0,0,1,29.794-51.462q1.522-2.248,3.09-4.471l.77.611,147.85,117.907,11.177,8.913Q-2206.658,751.186-2207.083,751.891Z" transform="translate(2825.28 4178.445)" fill="#ffecb3"/>
    <path id="Trazado_171292" data-name="Trazado 171292" d="M-2415.7,922.26a395.474,395.474,0,0,1-3.863-55.08,392.635,392.635,0,0,1,9.543-86.16,387.866,387.866,0,0,1,29.078-83.319,391.33,391.33,0,0,1,27.107-47.335l146.948,117.188a203.242,203.242,0,0,0-26.231,100.119c0,4.26.135,8.55.4,12.824Z" transform="translate(2814.92 4163.404)" fill="#fffae8"/>
    <path id="Trazado_171293" data-name="Trazado 171293" d="M-948.209,852.023a402.791,402.791,0,0,1-5.443,66.026l-197.124-45-1.813-.413c.042-.427.084-.85.122-1.277.606-6.255.906-12.553.906-18.846a193.716,193.716,0,0,0-28.854-102.249l158.262-126.2,1.526-1.221q3.022,4.3,5.927,8.674a398.824,398.824,0,0,1,26.868,47.02A396.165,396.165,0,0,1-958.1,763.371,401.064,401.064,0,0,1-948.209,852.023Z" transform="translate(2132.555 4178.561)" fill="#ffecb3"/>
    <path id="Trazado_171294" data-name="Trazado 171294" d="M-1130.05,881.073c.3-4.505.445-9.028.445-13.517A203.219,203.219,0,0,0-1155.9,767.335l146.941-117.181a391.364,391.364,0,0,1,27.016,47.1,387.908,387.908,0,0,1,29.1,83.024,392.6,392.6,0,0,1,9.684,86.781,395.538,395.538,0,0,1-3.958,55.762Z" transform="translate(2119.053 4163.521)" fill="#fffae8"/>
    <path id="Trazado_171295" data-name="Trazado 171295" d="M-1224.015,378.533l-.648.521-159.262,127.1A196.345,196.345,0,0,0-1494.5,452.04c-.493-.071-.982-.136-1.475-.2V247.167a400.632,400.632,0,0,1,52.43,6.73q6.558,1.282,13.065,2.789a396.528,396.528,0,0,1,79.612,27.657l2.672,1.3a404.573,404.573,0,0,1,86.244,56.126A400.176,400.176,0,0,1-1224.015,378.533Z" transform="translate(2306.322 4385.436)" fill="#ffecb3"/>
    <path id="Trazado_171296" data-name="Trazado 171296" d="M-1373.1,506.116a205.777,205.777,0,0,0-104.053-50.425V267.41a391.573,391.573,0,0,1,55.131,8.659,388.025,388.025,0,0,1,77.866,27.043l2.627,1.279a398.2,398.2,0,0,1,115.5,84.352Z" transform="translate(2295.963 4374.289)" fill="#fffae8"/>
    <path id="Trazado_171297" data-name="Trazado 171297" d="M-1937.386,247.021V451.574a196.153,196.153,0,0,0-113.459,54.355l-147.029-117.277-12.7-10.13c.4-.451.808-.9,1.226-1.343a400.708,400.708,0,0,1,46.085-43.3,401.207,401.207,0,0,1,72.451-46.226l.23-.038,3.109-1.507a388.113,388.113,0,0,1,147.305-38.919Q-1938.779,247.1-1937.386,247.021Z" transform="translate(2699.836 4385.516)" fill="#ffecb3"/>
    <path id="Trazado_171298" data-name="Trazado 171298" d="M-2183.039,388.653a393.834,393.834,0,0,1,40.225-37.1,393.085,393.085,0,0,1,69.8-44.7l.184-.031,4.2-2.036a378.858,378.858,0,0,1,137.946-37.649V455.294a205.486,205.486,0,0,0-105.459,50.539Z" transform="translate(2684.674 4374.438)" fill="#fffae8"/>
    <g id="Grupo_111145" data-name="Grupo 111145" transform="translate(454.75 4567.842)">
      <g id="Circular_path" data-name="Circular path" transform="translate(337.559 310.257)">
        <g id="Grupo_111098" data-name="Grupo 111098" transform="translate(0 0)">
          <path id="Trazado_171299" data-name="Trazado 171299" d="M441.669,312.787a2.164,2.164,0,0,1-2.3,2.025,2.22,2.22,0,0,1-2.057-2.294,2.161,2.161,0,0,1,2.306-2.087A2.213,2.213,0,0,1,441.669,312.787Z" transform="translate(-437.308 -310.421)" fill="#28c65d"/>
          <path id="Trazado_171300" data-name="Trazado 171300" d="M459.309,314.586a2.184,2.184,0,1,1-4.333-.55,2.184,2.184,0,1,1,4.333.55Z" transform="translate(-444.092 -311.073)" fill="#28c65d"/>
          <path id="Trazado_171301" data-name="Trazado 171301" d="M476.768,317.644a2.184,2.184,0,0,1-4.279-.871,2.184,2.184,0,1,1,4.279.871Z" transform="translate(-450.813 -312.17)" fill="#28c65d"/>
          <path id="Trazado_171302" data-name="Trazado 171302" d="M493.964,321.99a2.184,2.184,0,1,1-4.2-1.194,2.184,2.184,0,1,1,4.2,1.194Z" transform="translate(-457.436 -313.793)" fill="#28c65d"/>
          <path id="Trazado_171303" data-name="Trazado 171303" d="M510.794,327.544a2.195,2.195,0,0,1-2.788,1.29,2.161,2.161,0,0,1-1.323-2.763,2.218,2.218,0,0,1,2.815-1.364A2.183,2.183,0,0,1,510.794,327.544Z" transform="translate(-463.921 -315.865)" fill="#28c65d"/>
          <path id="Trazado_171304" data-name="Trazado 171304" d="M527.179,334.335a2.205,2.205,0,0,1-2.885,1.1,2.231,2.231,0,0,1-1.1-2.9,2.151,2.151,0,0,1,2.885-1.1A2.176,2.176,0,0,1,527.179,334.335Z" transform="translate(-470.244 -318.419)" fill="#28c65d"/>
          <path id="Trazado_171305" data-name="Trazado 171305" d="M543.024,342.274a2.21,2.21,0,0,1-2.949.879,2.165,2.165,0,0,1-.907-2.929,2.213,2.213,0,0,1,2.981-.938A2.171,2.171,0,0,1,543.024,342.274Z" transform="translate(-476.355 -321.418)" fill="#28c65d"/>
          <path id="Trazado_171306" data-name="Trazado 171306" d="M558.255,351.358a2.2,2.2,0,0,1-3.013.675,2.231,2.231,0,0,1-.665-3.032,2.15,2.15,0,0,1,3.013-.675A2.177,2.177,0,0,1,558.255,351.358Z" transform="translate(-482.245 -324.852)" fill="#28c65d"/>
          <path id="Trazado_171307" data-name="Trazado 171307" d="M572.79,361.5a2.21,2.21,0,0,1-3.045.445,2.166,2.166,0,0,1-.475-3.03,2.212,2.212,0,0,1,3.084-.5A2.17,2.17,0,0,1,572.79,361.5Z" transform="translate(-487.859 -328.706)" fill="#28c65d"/>
          <path id="Trazado_171308" data-name="Trazado 171308" d="M586.557,372.678a2.2,2.2,0,0,1-3.079.236,2.23,2.23,0,0,1-.222-3.1,2.15,2.15,0,0,1,3.079-.236A2.176,2.176,0,0,1,586.557,372.678Z" transform="translate(-493.192 -332.948)" fill="#28c65d"/>
          <path id="Trazado_171309" data-name="Trazado 171309" d="M599.486,384.807a2.2,2.2,0,0,1-3.076,0,2.165,2.165,0,0,1-.037-3.066,2.213,2.213,0,0,1,3.125-.052A2.174,2.174,0,0,1,599.486,384.807Z" transform="translate(-498.196 -337.571)" fill="#28c65d"/>
          <path id="Trazado_171310" data-name="Trazado 171310" d="M611.509,397.835a2.2,2.2,0,0,1-3.082-.207,2.229,2.229,0,0,1,.222-3.095,2.152,2.152,0,0,1,3.082.207A2.176,2.176,0,0,1,611.509,397.835Z" transform="translate(-502.865 -342.531)" fill="#28c65d"/>
          <path id="Trazado_171311" data-name="Trazado 171311" d="M622.569,411.694a2.2,2.2,0,0,1-3.042-.44,2.164,2.164,0,0,1,.4-3.039,2.215,2.215,0,0,1,3.1.4A2.18,2.18,0,0,1,622.569,411.694Z" transform="translate(-507.158 -347.824)" fill="#28c65d"/>
          <path id="Trazado_171312" data-name="Trazado 171312" d="M632.6,426.31a2.205,2.205,0,0,1-3.021-.647,2.228,2.228,0,0,1,.663-3.031,2.152,2.152,0,0,1,3.021.647A2.174,2.174,0,0,1,632.6,426.31Z" transform="translate(-511.063 -353.402)" fill="#28c65d"/>
          <path id="Trazado_171313" data-name="Trazado 171313" d="M641.553,441.617a2.2,2.2,0,0,1-2.947-.873,2.164,2.164,0,0,1,.834-2.949,2.216,2.216,0,0,1,3.012.838A2.18,2.18,0,0,1,641.553,441.617Z" transform="translate(-514.555 -359.258)" fill="#28c65d"/>
          <path id="Trazado_171314" data-name="Trazado 171314" d="M649.362,457.527a2.2,2.2,0,0,1-2.894-1.077,2.23,2.23,0,0,1,1.1-2.9,2.15,2.15,0,0,1,2.894,1.077A2.175,2.175,0,0,1,649.362,457.527Z" transform="translate(-517.611 -365.34)" fill="#28c65d"/>
          <path id="Trazado_171315" data-name="Trazado 171315" d="M656.018,473.966a2.215,2.215,0,0,1-2.8-1.288,2.167,2.167,0,0,1,1.255-2.8,2.213,2.213,0,0,1,2.857,1.266A2.166,2.166,0,0,1,656.018,473.966Z" transform="translate(-520.223 -371.64)" fill="#28c65d"/>
          <path id="Trazado_171316" data-name="Trazado 171316" d="M661.43,490.842a2.2,2.2,0,0,1-2.7-1.487,2.237,2.237,0,0,1,1.51-2.715,2.145,2.145,0,0,1,2.7,1.487A2.183,2.183,0,0,1,661.43,490.842Z" transform="translate(-522.363 -378.101)" fill="#28c65d"/>
          <path id="Trazado_171317" data-name="Trazado 171317" d="M665.641,508.071a2.24,2.24,0,0,1-2.6-1.677,2.174,2.174,0,0,1,1.654-2.588,2.2,2.2,0,0,1,2.636,1.669A2.142,2.142,0,0,1,665.641,508.071Z" transform="translate(-524.033 -384.713)" fill="#28c65d"/>
          <path id="Trazado_171318" data-name="Trazado 171318" d="M668.539,525.557a2.183,2.183,0,0,1-2.448-1.864,2.251,2.251,0,0,1,1.887-2.468,2.132,2.132,0,0,1,2.459,1.863A2.2,2.2,0,0,1,668.539,525.557Z" transform="translate(-525.218 -391.418)" fill="#28c65d"/>
          <path id="Trazado_171319" data-name="Trazado 171319" d="M670.231,543.211a2.243,2.243,0,0,1-2.355-2.031,2.194,2.194,0,0,1,4.378-.293A2.14,2.14,0,0,1,670.231,543.211Z" transform="translate(-525.908 -398.2)" fill="#28c65d"/>
          <path id="Trazado_171320" data-name="Trazado 171320" d="M670.6,560.939a2.162,2.162,0,0,1-2.139-2.194,2.2,2.2,0,0,1,2.176-2.173,2.173,2.173,0,0,1,2.212,2.193A2.218,2.218,0,0,1,670.6,560.939Z" transform="translate(-526.134 -405.011)" fill="#28c65d"/>
          <path id="Trazado_171321" data-name="Trazado 171321" d="M669.722,578.647a2.184,2.184,0,1,1,.331-4.355,2.184,2.184,0,1,1-.331,4.355Z" transform="translate(-525.84 -411.82)" fill="#28c65d"/>
          <path id="Trazado_171322" data-name="Trazado 171322" d="M667.608,596.246a2.187,2.187,0,0,1-1.811-2.476,2.159,2.159,0,0,1,2.445-1.844,2.221,2.221,0,0,1,1.895,2.491A2.189,2.189,0,0,1,667.608,596.246Z" transform="translate(-525.103 -418.59)" fill="#28c65d"/>
          <path id="Trazado_171323" data-name="Trazado 171323" d="M664.17,613.647a2.2,2.2,0,0,1-1.649-2.608,2.233,2.233,0,0,1,2.632-1.647A2.147,2.147,0,0,1,666.8,612,2.179,2.179,0,0,1,664.17,613.647Z" transform="translate(-523.832 -425.291)" fill="#28c65d"/>
          <path id="Trazado_171324" data-name="Trazado 171324" d="M659.549,630.753a2.231,2.231,0,0,1-1.457-2.721,2.17,2.17,0,0,1,2.7-1.465,2.207,2.207,0,0,1,1.5,2.736A2.149,2.149,0,0,1,659.549,630.753Z" transform="translate(-522.121 -431.876)" fill="#28c65d"/>
          <path id="Trazado_171325" data-name="Trazado 171325" d="M653.614,647.474a2.192,2.192,0,0,1-1.247-2.818,2.243,2.243,0,0,1,2.85-1.246,2.141,2.141,0,0,1,1.247,2.818A2.186,2.186,0,0,1,653.614,647.474Z" transform="translate(-519.894 -438.329)" fill="#28c65d"/>
          <path id="Trazado_171326" data-name="Trazado 171326" d="M646.565,663.725a2.245,2.245,0,0,1-1.055-2.908,2.177,2.177,0,0,1,2.885-1.057,2.2,2.2,0,0,1,1.086,2.923A2.139,2.139,0,0,1,646.565,663.725Z" transform="translate(-517.243 -444.589)" fill="#28c65d"/>
          <path id="Trazado_171327" data-name="Trazado 171327" d="M638.268,679.414a2.187,2.187,0,0,1-.824-2.967,2.244,2.244,0,0,1,3-.821,2.137,2.137,0,0,1,.828,2.969A2.189,2.189,0,0,1,638.268,679.414Z" transform="translate(-514.107 -450.658)" fill="#28c65d"/>
          <path id="Trazado_171328" data-name="Trazado 171328" d="M628.944,694.469a2.246,2.246,0,0,1-.626-3.031,2.194,2.194,0,0,1,3.661,2.42A2.137,2.137,0,0,1,628.944,694.469Z" transform="translate(-510.579 -456.461)" fill="#28c65d"/>
          <path id="Trazado_171329" data-name="Trazado 171329" d="M618.475,708.8a2.19,2.19,0,0,1-.389-3.055,2.243,2.243,0,0,1,3.085-.381,2.135,2.135,0,0,1,.392,3.056A2.19,2.19,0,0,1,618.475,708.8Z" transform="translate(-506.603 -462.019)" fill="#28c65d"/>
          <path id="Trazado_171330" data-name="Trazado 171330" d="M607.081,722.358a2.243,2.243,0,0,1-.183-3.088,2.194,2.194,0,0,1,3.276,2.919A2.139,2.139,0,0,1,607.081,722.358Z" transform="translate(-502.274 -467.252)" fill="#28c65d"/>
        </g>
      </g>
      <g id="Arrow" transform="translate(177.732 309.993)">
        <path id="Trazado_171331" data-name="Trazado 171331" d="M419.105,583.317a147.721,147.721,0,0,1-88.1,28.847c-82.1,0-148.891-66.793-148.891-148.891S248.912,314.381,331.01,314.381h0a2.194,2.194,0,1,0,0-4.388h0c-84.518,0-153.278,68.761-153.278,153.28S246.493,616.552,331.01,616.552a152.086,152.086,0,0,0,90.695-29.7h0a2.194,2.194,0,1,0-2.6-3.535Z" transform="translate(-177.732 -309.993)" fill="#28c65d"/>
        <path id="Trazado_171332" data-name="Trazado 171332" d="M553.081,741.421l13.781,16.846L583.987,730.2Z" transform="translate(-321.971 -471.469)" fill="#28c65d"/>
      </g>
    </g>
    <path id="Trazado_171589" data-name="Trazado 171589" d="M46.91,29.89A10.9,10.9,0,0,1,45.228,35.4a10.149,10.149,0,0,1-4.317,3.7,14.693,14.693,0,0,1-6.347,1.313,11.725,11.725,0,0,1-9.27-3.835q-3.384-3.835-3.384-10.828V24.271a18.074,18.074,0,0,1,1.528-7.68,11.576,11.576,0,0,1,4.4-5.086A12.273,12.273,0,0,1,34.482,9.71a12.87,12.87,0,0,1,8.736,2.861,11.3,11.3,0,0,1,3.753,7.885H39.793a5.348,5.348,0,0,0-1.374-3.917,5.651,5.651,0,0,0-3.937-1.189,4.3,4.3,0,0,0-3.937,2.01q-1.251,2.01-1.312,6.419v2.112q0,4.778,1.2,6.829a4.39,4.39,0,0,0,4.132,2.051A5.527,5.527,0,0,0,38.358,33.6a4.961,4.961,0,0,0,1.395-3.712ZM57.287,40H50.355V17.811h6.932ZM49.945,12.068a3.112,3.112,0,0,1,1.066-2.435,4.512,4.512,0,0,1,5.537,0,3.112,3.112,0,0,1,1.066,2.435A3.112,3.112,0,0,1,56.548,14.5a4.512,4.512,0,0,1-5.537,0A3.112,3.112,0,0,1,49.945,12.068Zm20.979,23.01a3.074,3.074,0,0,0,2.256-.79,2.9,2.9,0,0,0,.779-2.2h6.48a7.672,7.672,0,0,1-2.615,5.988,9.726,9.726,0,0,1-6.737,2.338,9.847,9.847,0,0,1-7.629-3.035Q60.67,34.34,60.67,28.967V28.68a13.516,13.516,0,0,1,1.241-5.937,9.034,9.034,0,0,1,3.579-3.958A10.67,10.67,0,0,1,71.027,17.4a9.6,9.6,0,0,1,6.87,2.4,8.51,8.51,0,0,1,2.543,6.5h-6.48a3.794,3.794,0,0,0-.841-2.646,2.9,2.9,0,0,0-2.256-.923q-2.687,0-3.138,3.425a24.166,24.166,0,0,0-.144,2.994,9.492,9.492,0,0,0,.8,4.635A2.769,2.769,0,0,0,70.924,35.078ZM90.653,40H83.721V8.5h6.932Zm3.384-11.3a13.1,13.1,0,0,1,1.292-5.917,9.239,9.239,0,0,1,3.712-3.989,11.179,11.179,0,0,1,5.681-1.395,10.2,10.2,0,0,1,7.854,3.086q2.871,3.086,2.871,8.4v.246a11.491,11.491,0,0,1-2.881,8.234,10.23,10.23,0,0,1-7.8,3.045,10.346,10.346,0,0,1-7.608-2.84,11.109,11.109,0,0,1-3.1-7.7Zm6.911.431a8.256,8.256,0,0,0,.964,4.512,3.211,3.211,0,0,0,2.851,1.436q3.691,0,3.773-5.681v-.7q0-5.968-3.814-5.968-3.466,0-3.753,5.147Zm27.132-.39q0-5.271,2.276-8.306a7.493,7.493,0,0,1,6.357-3.035,6.373,6.373,0,0,1,5,2.338V8.5h6.932V40h-6.214l-.349-2.379a6.544,6.544,0,0,1-5.414,2.789,7.479,7.479,0,0,1-6.275-3.035Q128.08,34.34,128.08,28.741Zm6.911.431q0,5.906,3.445,5.906a3.4,3.4,0,0,0,3.281-1.928V24.7a3.311,3.311,0,0,0-3.24-1.969q-3.2,0-3.466,5.168ZM163.312,40.41a11.407,11.407,0,0,1-8.265-3.045,10.517,10.517,0,0,1-3.158-7.926v-.574a13.627,13.627,0,0,1,1.261-6.009,9.229,9.229,0,0,1,3.681-4.03,11.113,11.113,0,0,1,5.742-1.425,9.605,9.605,0,0,1,7.383,2.9q2.707,2.9,2.707,8.09v2.687h-13.74a4.981,4.981,0,0,0,1.62,2.933,4.821,4.821,0,0,0,3.24,1.066,6.211,6.211,0,0,0,5.127-2.3l3.158,3.732a8.828,8.828,0,0,1-3.661,2.84A12.37,12.37,0,0,1,163.312,40.41Zm-.779-17.678q-3.035,0-3.609,4.02H165.9v-.533a3.423,3.423,0,0,0-.841-2.574A3.346,3.346,0,0,0,162.533,22.732ZM27.243,74.741a14.982,14.982,0,0,1,1.107-5.947,8.915,8.915,0,0,1,3.179-3.989,8.379,8.379,0,0,1,4.819-1.4,6.663,6.663,0,0,1,5.414,2.338l.246-1.928h6.275V85.159a9.355,9.355,0,0,1-1.364,5.1,8.751,8.751,0,0,1-3.948,3.322,14.511,14.511,0,0,1-5.988,1.159,12.518,12.518,0,0,1-4.727-.923,8.533,8.533,0,0,1-3.5-2.4l2.892-4.061a6.337,6.337,0,0,0,5.086,2.276q4.594,0,4.594-4.717v-.7a6.49,6.49,0,0,1-5.024,2.194A8.02,8.02,0,0,1,29.745,83.3a12.873,12.873,0,0,1-2.5-8.316Zm6.932.431A7.894,7.894,0,0,0,35.2,79.489a3.235,3.235,0,0,0,2.871,1.589,3.671,3.671,0,0,0,3.261-1.5V70.25a3.579,3.579,0,0,0-3.22-1.518,3.257,3.257,0,0,0-2.892,1.651A9,9,0,0,0,34.174,75.172ZM62.947,86.41a11.407,11.407,0,0,1-8.265-3.045,10.517,10.517,0,0,1-3.158-7.926v-.574a13.627,13.627,0,0,1,1.261-6.009,9.229,9.229,0,0,1,3.681-4.03A11.113,11.113,0,0,1,62.208,63.4a9.605,9.605,0,0,1,7.383,2.9q2.707,2.9,2.707,8.09v2.687H58.558a4.981,4.981,0,0,0,1.62,2.933,4.821,4.821,0,0,0,3.24,1.066,6.211,6.211,0,0,0,5.127-2.3L71.7,82.514a8.828,8.828,0,0,1-3.661,2.84A12.37,12.37,0,0,1,62.947,86.41Zm-.779-17.678q-3.035,0-3.609,4.02h6.973v-.533a3.423,3.423,0,0,0-.841-2.574A3.346,3.346,0,0,0,62.167,68.732ZM86.695,79.766a1.6,1.6,0,0,0-.923-1.415,14.037,14.037,0,0,0-3.507-1.107A15.991,15.991,0,0,1,78,75.736a7.145,7.145,0,0,1-2.563-2.266,5.411,5.411,0,0,1-.882-3.056,6.133,6.133,0,0,1,2.522-5.035,10.391,10.391,0,0,1,6.6-1.979,11.512,11.512,0,0,1,7.055,1.989A6.221,6.221,0,0,1,93.4,70.619H86.469q0-2.666-2.81-2.666a2.785,2.785,0,0,0-1.825.6,1.873,1.873,0,0,0-.738,1.507,1.719,1.719,0,0,0,.9,1.5,8.526,8.526,0,0,0,2.881.943,24.9,24.9,0,0,1,3.476.882q5,1.723,5,6.173a5.811,5.811,0,0,1-2.7,4.942A11.826,11.826,0,0,1,83.68,86.41a12.068,12.068,0,0,1-5.086-1.025A8.5,8.5,0,0,1,75.108,82.6a6.316,6.316,0,0,1-1.251-3.712h6.46a2.671,2.671,0,0,0,1.025,2.246,4.218,4.218,0,0,0,2.522.708,3.318,3.318,0,0,0,2.123-.574A1.837,1.837,0,0,0,86.695,79.766Zm17.944-21.472v5.517h3.65v4.8h-3.65V78.761a2.592,2.592,0,0,0,.451,1.743,2.42,2.42,0,0,0,1.784.492,10.139,10.139,0,0,0,1.723-.123v4.942a12.755,12.755,0,0,1-3.9.595q-3.568,0-5.271-1.682a6.893,6.893,0,0,1-1.7-5.106V68.609H94.9v-4.8h2.83V58.294ZM118.3,86h-6.932V63.811H118.3Zm-7.342-27.932a3.112,3.112,0,0,1,1.066-2.435,4.512,4.512,0,0,1,5.537,0,3.312,3.312,0,0,1,0,4.869,4.512,4.512,0,0,1-5.537,0A3.112,3.112,0,0,1,110.956,58.068ZM121.681,74.7a13.1,13.1,0,0,1,1.292-5.917,9.239,9.239,0,0,1,3.712-3.989,11.179,11.179,0,0,1,5.681-1.395,10.2,10.2,0,0,1,7.854,3.086q2.871,3.086,2.871,8.4v.246a11.491,11.491,0,0,1-2.881,8.234,10.23,10.23,0,0,1-7.8,3.045,10.346,10.346,0,0,1-7.608-2.84,11.109,11.109,0,0,1-3.1-7.7Zm6.911.431a8.256,8.256,0,0,0,.964,4.512,3.211,3.211,0,0,0,2.851,1.436q3.691,0,3.773-5.681v-.7q0-5.968-3.814-5.968-3.466,0-3.753,5.147ZM133.309,54.5h7.3l-5.7,6.439-5.64-.01Zm19.175,9.311.226,2.6a7.525,7.525,0,0,1,6.337-3.015,6.331,6.331,0,0,1,5.178,2.071q1.712,2.071,1.774,6.234V86h-6.932V71.993a3.744,3.744,0,0,0-.677-2.471,3.131,3.131,0,0,0-2.461-.79,3.3,3.3,0,0,0-3.015,1.6V86H146V63.811ZM9.8,120.741q0-5.271,2.276-8.306a7.493,7.493,0,0,1,6.357-3.035,6.373,6.373,0,0,1,5,2.338V100.5H30.37V132H24.156l-.349-2.379a6.544,6.544,0,0,1-5.414,2.789,7.479,7.479,0,0,1-6.275-3.035Q9.8,126.34,9.8,120.741Zm6.911.431q0,5.906,3.445,5.906a3.4,3.4,0,0,0,3.281-1.928V116.7a3.311,3.311,0,0,0-3.24-1.969q-3.2,0-3.466,5.168ZM45.033,132.41a11.407,11.407,0,0,1-8.265-3.045,10.517,10.517,0,0,1-3.158-7.926v-.574a13.627,13.627,0,0,1,1.261-6.009,9.229,9.229,0,0,1,3.681-4.03,11.113,11.113,0,0,1,5.742-1.425,9.605,9.605,0,0,1,7.383,2.9q2.707,2.9,2.707,8.09v2.687H40.645a4.981,4.981,0,0,0,1.62,2.933,4.821,4.821,0,0,0,3.24,1.066,6.211,6.211,0,0,0,5.127-2.3l3.158,3.732a8.828,8.828,0,0,1-3.661,2.84A12.37,12.37,0,0,1,45.033,132.41Zm-.779-17.678q-3.035,0-3.609,4.02h6.973v-.533a3.423,3.423,0,0,0-.841-2.574A3.346,3.346,0,0,0,44.254,114.732Zm36.791,1.333-2.276-.164q-3.261,0-4.184,2.051V132H67.674V109.811h6.48l.226,2.851q1.743-3.261,4.86-3.261a6.74,6.74,0,0,1,1.928.246ZM90.827,132H83.9V109.811h6.932Zm-7.342-27.932a3.112,3.112,0,0,1,1.066-2.435,4.512,4.512,0,0,1,5.537,0,3.312,3.312,0,0,1,0,4.869,4.512,4.512,0,0,1-5.537,0A3.112,3.112,0,0,1,83.485,104.068Zm22.333,28.342a11.407,11.407,0,0,1-8.265-3.045,10.517,10.517,0,0,1-3.158-7.926v-.574a13.627,13.627,0,0,1,1.261-6.009,9.229,9.229,0,0,1,3.681-4.03,11.113,11.113,0,0,1,5.742-1.425,9.605,9.605,0,0,1,7.383,2.9q2.707,2.9,2.707,8.09v2.687H101.43a4.981,4.981,0,0,0,1.62,2.933,4.821,4.821,0,0,0,3.24,1.066,6.211,6.211,0,0,0,5.127-2.3l3.158,3.732a8.828,8.828,0,0,1-3.661,2.84A12.37,12.37,0,0,1,105.818,132.41Zm-.779-17.678q-3.035,0-3.609,4.02H108.4v-.533a3.423,3.423,0,0,0-.841-2.574A3.346,3.346,0,0,0,105.039,114.732Zm24.527,11.033a1.6,1.6,0,0,0-.923-1.415,14.037,14.037,0,0,0-3.507-1.107,15.991,15.991,0,0,1-4.266-1.507,7.145,7.145,0,0,1-2.563-2.266,5.411,5.411,0,0,1-.882-3.056,6.133,6.133,0,0,1,2.522-5.035,10.391,10.391,0,0,1,6.6-1.979,11.512,11.512,0,0,1,7.055,1.989,6.221,6.221,0,0,1,2.666,5.229h-6.932q0-2.666-2.81-2.666a2.785,2.785,0,0,0-1.825.6,1.873,1.873,0,0,0-.738,1.507,1.719,1.719,0,0,0,.9,1.5,8.526,8.526,0,0,0,2.881.943,24.9,24.9,0,0,1,3.476.882q5,1.723,5,6.173a5.811,5.811,0,0,1-2.7,4.942,11.826,11.826,0,0,1-6.983,1.907,12.068,12.068,0,0,1-5.086-1.025,8.5,8.5,0,0,1-3.486-2.789,6.316,6.316,0,0,1-1.251-3.712h6.46a2.671,2.671,0,0,0,1.025,2.246,4.218,4.218,0,0,0,2.522.708,3.318,3.318,0,0,0,2.123-.574A1.837,1.837,0,0,0,129.566,125.766Zm9.085-5.024a14.982,14.982,0,0,1,1.107-5.947,8.915,8.915,0,0,1,3.179-3.989,8.379,8.379,0,0,1,4.819-1.4,6.663,6.663,0,0,1,5.414,2.338l.246-1.928h6.275v21.349a9.355,9.355,0,0,1-1.364,5.1,8.751,8.751,0,0,1-3.948,3.322,14.511,14.511,0,0,1-5.988,1.159,12.518,12.518,0,0,1-4.727-.923,8.533,8.533,0,0,1-3.5-2.4l2.892-4.061a6.337,6.337,0,0,0,5.086,2.276q4.594,0,4.594-4.717v-.7a6.49,6.49,0,0,1-5.024,2.194,8.02,8.02,0,0,1-6.562-3.107,12.873,12.873,0,0,1-2.5-8.316Zm6.932.431a7.894,7.894,0,0,0,1.025,4.317,3.235,3.235,0,0,0,2.871,1.589,3.671,3.671,0,0,0,3.261-1.5V116.25a3.579,3.579,0,0,0-3.22-1.518,3.257,3.257,0,0,0-2.892,1.651A9,9,0,0,0,145.583,121.172Zm17.165-.472a13.1,13.1,0,0,1,1.292-5.917,9.239,9.239,0,0,1,3.712-3.989,11.179,11.179,0,0,1,5.681-1.395,10.2,10.2,0,0,1,7.854,3.086q2.871,3.086,2.871,8.4v.246a11.491,11.491,0,0,1-2.881,8.234,10.23,10.23,0,0,1-7.8,3.045,10.346,10.346,0,0,1-7.608-2.84,11.109,11.109,0,0,1-3.1-7.7Zm6.911.431a8.256,8.256,0,0,0,.964,4.512,3.211,3.211,0,0,0,2.851,1.436q3.691,0,3.773-5.681v-.7q0-5.968-3.814-5.968-3.466,0-3.753,5.147Z" transform="translate(692.252 4960.613)" fill="#12263f"/>
  </g>
</svg>
