<svg xmlns="http://www.w3.org/2000/svg" width="314.364" height="299.354" viewBox="0 0 314.364 299.354">
  <g id="Grupo_111250" data-name="Grupo 111250" transform="translate(-493.741 -1651.014)">
    <path id="Trazado_171271" data-name="Trazado 171271" d="M-1950.224,208.024V445.739a178.022,178.022,0,0,0-128.741,61.639l-41.774-33.325-143.849-114.741q6.558-7.946,13.526-15.578a417.647,417.647,0,0,1,47.489-44.531,418.267,418.267,0,0,1,77.781-49.3l.282-.047.921-.446a404.419,404.419,0,0,1,138.983-39.4Q-1968.164,208.3-1950.224,208.024Z" transform="translate(2758.329 1442.99)" fill="#28c65d"/>
    <path id="Trazado_171272" data-name="Trazado 171272" d="M-1918.977,267.073V467.414a178.021,178.021,0,0,0-128.741,61.639l-41.774-33.325-106.879-106.875-11.473-11.473a400.726,400.726,0,0,1,46.085-43.3,401.214,401.214,0,0,1,72.45-46.226l.23-.038,3.109-1.507a388.113,388.113,0,0,1,147.305-38.919l2.78,2.78Z" transform="translate(2727.082 1421.314)" fill="#0f5c29" opacity="0.3"/>
    <path id="Trazado_171297" data-name="Trazado 171297" d="M-1937.386,247.021V451.574a196.153,196.153,0,0,0-113.459,54.355l-147.029-117.277-12.7-10.13c.4-.451.808-.9,1.226-1.343a400.708,400.708,0,0,1,46.085-43.3,401.207,401.207,0,0,1,72.451-46.226l.23-.038,3.109-1.507a388.113,388.113,0,0,1,147.305-38.919Q-1938.779,247.1-1937.386,247.021Z" transform="translate(2728.584 1421.516)" fill="#f6f6f6"/>
    <path id="Trazado_171298" data-name="Trazado 171298" d="M-2183.039,388.653a393.834,393.834,0,0,1,40.225-37.1,393.085,393.085,0,0,1,69.8-44.7l.184-.031,4.2-2.036a378.858,378.858,0,0,1,137.946-37.649V455.294a205.486,205.486,0,0,0-105.459,50.539Z" transform="translate(2713.422 1410.438)" fill="#fff"/>
    <path id="Trazado_171594" data-name="Trazado 171594" d="M13.684,15H11.34V3.625h2.344Zm1.672-4.289a5.094,5.094,0,0,1,.887-3.148,2.877,2.877,0,0,1,2.426-1.172,2.589,2.589,0,0,1,2.039.922V3h2.266V15H20.934l-.109-.9a2.657,2.657,0,0,1-2.172,1.055,2.869,2.869,0,0,1-2.395-1.176A5.258,5.258,0,0,1,15.355,10.711Zm2.258.161a3.355,3.355,0,0,0,.414,1.829,1.348,1.348,0,0,0,1.2.636,1.51,1.51,0,0,0,1.477-.887V9.1a1.489,1.489,0,0,0-1.461-.887Q17.613,8.211,17.613,10.872Zm11,4.285a4.15,4.15,0,0,1-3.027-1.141,4.054,4.054,0,0,1-1.168-3.039v-.219A5.106,5.106,0,0,1,24.91,8.48,3.612,3.612,0,0,1,26.3,6.934a3.914,3.914,0,0,1,2.059-.543,3.508,3.508,0,0,1,2.73,1.094,4.444,4.444,0,0,1,1,3.1v.922H26.707a2.1,2.1,0,0,0,.66,1.328,2,2,0,0,0,1.395.5,2.437,2.437,0,0,0,2.039-.945l1.109,1.242a3.389,3.389,0,0,1-1.375,1.121A4.511,4.511,0,0,1,28.613,15.156Zm-.258-6.945a1.411,1.411,0,0,0-1.09.455,2.357,2.357,0,0,0-.535,1.3h3.141V9.788a1.681,1.681,0,0,0-.406-1.165A1.456,1.456,0,0,0,28.355,8.211Zm7.094-1.664.07.977a2.951,2.951,0,0,1,2.43-1.133,2.453,2.453,0,0,1,2,.789,3.682,3.682,0,0,1,.672,2.359V15H38.363V9.581a1.47,1.47,0,0,0-.312-1.045,1.4,1.4,0,0,0-1.039-.325,1.553,1.553,0,0,0-1.43.814V15H33.324V6.547Zm9.586-2.078V6.547H46.48V8.2H45.035v4.219a1.007,1.007,0,0,0,.18.672.9.9,0,0,0,.688.2,3.6,3.6,0,0,0,.664-.055v1.711a4.648,4.648,0,0,1-1.367.2,2.156,2.156,0,0,1-2.422-2.4V8.2H41.543V6.547h1.234V4.469ZM50.121,15H47.855V6.547h2.266Zm-2.4-10.641a1.112,1.112,0,0,1,.34-.836,1.465,1.465,0,0,1,1.848,0,1.105,1.105,0,0,1,.344.836,1.108,1.108,0,0,1-.348.844,1.448,1.448,0,0,1-1.836,0A1.108,1.108,0,0,1,47.723,4.359ZM52.527,15V8.2H51.27V6.547h1.258V6.156a3.17,3.17,0,0,1,.98-2.457,3.945,3.945,0,0,1,2.723-.863,9.031,9.031,0,0,1,2.563.461l-.328,1.867a10,10,0,0,0-1.187-.293,5.835,5.835,0,0,0-.906-.066q-1.578,0-1.578,1.4v.344h1.664V8.2H54.793V15Zm7.32,0H57.582V6.547h2.266Zm5.383-1.664a1.481,1.481,0,0,0,1.016-.344,1.2,1.2,0,0,0,.406-.914H68.77a2.9,2.9,0,0,1-.469,1.574,3.093,3.093,0,0,1-1.262,1.109,3.949,3.949,0,0,1-1.77.395A3.67,3.67,0,0,1,62.41,14a4.56,4.56,0,0,1-1.047-3.184v-.148A4.508,4.508,0,0,1,62.4,7.555a3.627,3.627,0,0,1,2.852-1.164,3.555,3.555,0,0,1,2.543.9,3.2,3.2,0,0,1,.973,2.4H66.652a1.551,1.551,0,0,0-.406-1.072,1.51,1.51,0,0,0-2.223.163,3.333,3.333,0,0,0-.4,1.866v.235a3.375,3.375,0,0,0,.4,1.878A1.377,1.377,0,0,0,65.23,13.336ZM74.957,15a2.507,2.507,0,0,1-.227-.758,2.732,2.732,0,0,1-2.133.914,3,3,0,0,1-2.059-.719,2.312,2.312,0,0,1-.816-1.812,2.389,2.389,0,0,1,1-2.062A4.915,4.915,0,0,1,73.6,9.836h1.039V9.352a1.393,1.393,0,0,0-.3-.937,1.183,1.183,0,0,0-.949-.352,1.345,1.345,0,0,0-.895.273.929.929,0,0,0-.324.75H69.91a2.268,2.268,0,0,1,.453-1.359,3,3,0,0,1,1.281-.98A4.669,4.669,0,0,1,73.5,6.391a3.689,3.689,0,0,1,2.48.785A2.747,2.747,0,0,1,76.9,9.383v3.664a4.041,4.041,0,0,0,.336,1.82V15ZM73.09,13.43a1.945,1.945,0,0,0,.922-.223,1.462,1.462,0,0,0,.625-.6V11.156h-.844q-1.7,0-1.8,1.172l-.008.133a.9.9,0,0,0,.3.7A1.153,1.153,0,0,0,73.09,13.43Zm10.3-4.766a6.134,6.134,0,0,0-.812-.062,1.654,1.654,0,0,0-1.68.867V15H78.637V6.547H80.77l.063,1.008a2.092,2.092,0,0,1,1.883-1.164,2.366,2.366,0,0,1,.7.1ZM91.613,11.8l1.563-5.258H95.6l-3.4,9.766-.187.445a2.577,2.577,0,0,1-2.5,1.656,3.552,3.552,0,0,1-1-.148V16.555l.344.008a1.857,1.857,0,0,0,.957-.2,1.283,1.283,0,0,0,.5-.648l.266-.7L87.613,6.547h2.43ZM102.59,6.547l.07.945a2.971,2.971,0,0,1,2.43-1.1,2.255,2.255,0,0,1,2.242,1.289,2.9,2.9,0,0,1,2.539-1.289,2.521,2.521,0,0,1,2.047.8,3.681,3.681,0,0,1,.672,2.41V15h-2.266V9.6a1.616,1.616,0,0,0-.281-1.053,1.245,1.245,0,0,0-.992-.333,1.409,1.409,0,0,0-1.406.971L107.652,15h-2.258V9.6a1.6,1.6,0,0,0-.289-1.065,1.257,1.257,0,0,0-.984-.329,1.463,1.463,0,0,0-1.391.8V15h-2.258V6.547ZM113.973,10.7a5.013,5.013,0,0,1,.484-2.242,3.546,3.546,0,0,1,1.395-1.523,4.069,4.069,0,0,1,2.113-.539,3.849,3.849,0,0,1,2.793,1.047,4.2,4.2,0,0,1,1.207,2.844l.016.578a4.418,4.418,0,0,1-1.086,3.121,4.209,4.209,0,0,1-5.832,0,4.5,4.5,0,0,1-1.09-3.187Zm2.258.16a3.16,3.16,0,0,0,.453,1.843,1.628,1.628,0,0,0,2.578.008,3.457,3.457,0,0,0,.461-2.015,3.128,3.128,0,0,0-.461-1.831,1.5,1.5,0,0,0-1.3-.649,1.474,1.474,0,0,0-1.281.646A3.516,3.516,0,0,0,116.23,10.856Zm6.789-.145a5.094,5.094,0,0,1,.887-3.148,2.877,2.877,0,0,1,2.426-1.172,2.589,2.589,0,0,1,2.039.922V3h2.266V15H128.6l-.109-.9a2.657,2.657,0,0,1-2.172,1.055,2.869,2.869,0,0,1-2.395-1.176A5.258,5.258,0,0,1,123.02,10.711Zm2.258.161a3.355,3.355,0,0,0,.414,1.829,1.348,1.348,0,0,0,1.2.636,1.51,1.51,0,0,0,1.477-.887V9.1a1.489,1.489,0,0,0-1.461-.887Q125.277,8.211,125.277,10.872Zm11,4.285a4.15,4.15,0,0,1-3.027-1.141,4.054,4.054,0,0,1-1.168-3.039v-.219a5.106,5.106,0,0,1,.492-2.277,3.612,3.612,0,0,1,1.395-1.547,3.914,3.914,0,0,1,2.059-.543,3.508,3.508,0,0,1,2.73,1.094,4.444,4.444,0,0,1,1,3.1v.922h-5.383a2.1,2.1,0,0,0,.66,1.328,2,2,0,0,0,1.395.5,2.437,2.437,0,0,0,2.039-.945l1.109,1.242a3.389,3.389,0,0,1-1.375,1.121A4.511,4.511,0,0,1,136.277,15.156Zm-.258-6.945a1.411,1.411,0,0,0-1.09.455,2.357,2.357,0,0,0-.535,1.3h3.141V9.788a1.681,1.681,0,0,0-.406-1.165A1.456,1.456,0,0,0,136.02,8.211Zm7.4,6.789h-2.266V3h2.266Zm6.758,0a2.507,2.507,0,0,1-.227-.758,2.732,2.732,0,0,1-2.133.914,3,3,0,0,1-2.059-.719,2.312,2.312,0,0,1-.816-1.812,2.389,2.389,0,0,1,1-2.062,4.915,4.915,0,0,1,2.879-.727h1.039V9.352a1.393,1.393,0,0,0-.3-.937,1.183,1.183,0,0,0-.949-.352,1.345,1.345,0,0,0-.895.273.929.929,0,0,0-.324.75h-2.258a2.268,2.268,0,0,1,.453-1.359,3,3,0,0,1,1.281-.98,4.669,4.669,0,0,1,1.859-.355,3.689,3.689,0,0,1,2.48.785,2.747,2.747,0,0,1,.918,2.207v3.664a4.041,4.041,0,0,0,.336,1.82V15Zm-1.867-1.57a1.945,1.945,0,0,0,.922-.223,1.462,1.462,0,0,0,.625-.6V11.156h-.844q-1.7,0-1.8,1.172l-.008.133a.9.9,0,0,0,.3.7A1.153,1.153,0,0,0,148.309,13.43Zm10.3-4.766a6.134,6.134,0,0,0-.812-.062,1.654,1.654,0,0,0-1.68.867V15h-2.258V6.547h2.133l.063,1.008a2.092,2.092,0,0,1,1.883-1.164,2.366,2.366,0,0,1,.7.1ZM20.883,39V32.2H19.625V30.547h1.258v-.719a2.918,2.918,0,0,1,.816-2.207,3.162,3.162,0,0,1,2.285-.785,5.321,5.321,0,0,1,1.148.155l-.023,1.736a2.878,2.878,0,0,0-.687-.07q-1.273,0-1.273,1.205v.685h1.68V32.2h-1.68V39ZM30.9,39a2.507,2.507,0,0,1-.227-.758,2.732,2.732,0,0,1-2.133.914,3,3,0,0,1-2.059-.719,2.312,2.312,0,0,1-.816-1.812,2.389,2.389,0,0,1,1-2.062,4.915,4.915,0,0,1,2.879-.727h1.039v-.484a1.393,1.393,0,0,0-.3-.937,1.183,1.183,0,0,0-.949-.352,1.345,1.345,0,0,0-.895.273.929.929,0,0,0-.324.75H25.852a2.268,2.268,0,0,1,.453-1.359,3,3,0,0,1,1.281-.98,4.669,4.669,0,0,1,1.859-.355,3.689,3.689,0,0,1,2.48.785,2.747,2.747,0,0,1,.918,2.207v3.664a4.041,4.041,0,0,0,.336,1.82V39Zm-1.867-1.57a1.945,1.945,0,0,0,.922-.223,1.462,1.462,0,0,0,.625-.6V35.156h-.844q-1.7,0-1.8,1.172l-.008.133a.9.9,0,0,0,.3.7A1.153,1.153,0,0,0,29.031,37.43Zm9.063-.094a1.481,1.481,0,0,0,1.016-.344,1.2,1.2,0,0,0,.406-.914h2.117a2.9,2.9,0,0,1-.469,1.574A3.093,3.093,0,0,1,39.9,38.762a3.949,3.949,0,0,1-1.77.395A3.67,3.67,0,0,1,35.273,38a4.56,4.56,0,0,1-1.047-3.184v-.148a4.508,4.508,0,0,1,1.039-3.117,3.627,3.627,0,0,1,2.852-1.164,3.555,3.555,0,0,1,2.543.9,3.2,3.2,0,0,1,.973,2.4H39.516a1.551,1.551,0,0,0-.406-1.072,1.51,1.51,0,0,0-2.223.163,3.333,3.333,0,0,0-.4,1.866v.235a3.375,3.375,0,0,0,.4,1.878A1.377,1.377,0,0,0,38.094,37.336Zm7.531-8.867v2.078H47.07V32.2H45.625v4.219a1.007,1.007,0,0,0,.18.672.9.9,0,0,0,.688.2,3.6,3.6,0,0,0,.664-.055v1.711a4.648,4.648,0,0,1-1.367.2,2.156,2.156,0,0,1-2.422-2.4V32.2H42.133V30.547h1.234V28.469ZM47.742,34.7a5.013,5.013,0,0,1,.484-2.242,3.546,3.546,0,0,1,1.395-1.523,4.069,4.069,0,0,1,2.113-.539,3.849,3.849,0,0,1,2.793,1.047,4.2,4.2,0,0,1,1.207,2.844l.016.578a4.418,4.418,0,0,1-1.086,3.121,4.209,4.209,0,0,1-5.832,0,4.5,4.5,0,0,1-1.09-3.187Zm2.258.16a3.16,3.16,0,0,0,.453,1.843,1.628,1.628,0,0,0,2.578.008,3.457,3.457,0,0,0,.461-2.015,3.128,3.128,0,0,0-.461-1.831,1.5,1.5,0,0,0-1.3-.649,1.474,1.474,0,0,0-1.281.646A3.516,3.516,0,0,0,50,34.856Zm11.891-2.192a6.134,6.134,0,0,0-.812-.062,1.654,1.654,0,0,0-1.68.867V39H57.141V30.547h2.133l.063,1.008a2.092,2.092,0,0,1,1.883-1.164,2.366,2.366,0,0,1,.7.1Zm4.828,6.492a4.15,4.15,0,0,1-3.027-1.141,4.054,4.054,0,0,1-1.168-3.039v-.219a5.106,5.106,0,0,1,.492-2.277,3.612,3.612,0,0,1,1.395-1.547,3.914,3.914,0,0,1,2.059-.543,3.508,3.508,0,0,1,2.73,1.094,4.444,4.444,0,0,1,1,3.1v.922H64.813a2.1,2.1,0,0,0,.66,1.328,2,2,0,0,0,1.395.5,2.437,2.437,0,0,0,2.039-.945l1.109,1.242a3.389,3.389,0,0,1-1.375,1.121A4.511,4.511,0,0,1,66.719,39.156Zm-.258-6.945a1.411,1.411,0,0,0-1.09.455,2.357,2.357,0,0,0-.535,1.3h3.141v-.181a1.681,1.681,0,0,0-.406-1.165A1.456,1.456,0,0,0,66.461,32.211Zm9.594,4.453a.727.727,0,0,0-.41-.652,4.659,4.659,0,0,0-1.316-.426q-3.016-.633-3.016-2.562a2.323,2.323,0,0,1,.934-1.879,3.766,3.766,0,0,1,2.441-.754,4.053,4.053,0,0,1,2.574.758,2.388,2.388,0,0,1,.965,1.969H75.969a1.092,1.092,0,0,0-.312-.8A1.322,1.322,0,0,0,74.68,32a1.351,1.351,0,0,0-.883.258.814.814,0,0,0-.312.656.7.7,0,0,0,.355.605,3.657,3.657,0,0,0,1.2.4,9.8,9.8,0,0,1,1.422.379A2.336,2.336,0,0,1,78.25,36.57a2.2,2.2,0,0,1-.992,1.871,4.28,4.28,0,0,1-2.562.715,4.47,4.47,0,0,1-1.887-.379,3.166,3.166,0,0,1-1.293-1.039,2.414,2.414,0,0,1-.469-1.426h2.141a1.179,1.179,0,0,0,.445.922,1.766,1.766,0,0,0,1.109.32,1.635,1.635,0,0,0,.98-.246A.766.766,0,0,0,76.055,36.664Zm7.281-1.953a5.094,5.094,0,0,1,.887-3.148,2.877,2.877,0,0,1,2.426-1.172,2.589,2.589,0,0,1,2.039.922V27h2.266V39H88.914l-.109-.9a2.657,2.657,0,0,1-2.172,1.055,2.869,2.869,0,0,1-2.395-1.176A5.258,5.258,0,0,1,83.336,34.711Zm2.258.161a3.355,3.355,0,0,0,.414,1.829,1.348,1.348,0,0,0,1.2.636,1.51,1.51,0,0,0,1.477-.887V33.1a1.489,1.489,0,0,0-1.461-.887Q85.594,32.211,85.594,34.872Zm11,4.285a4.15,4.15,0,0,1-3.027-1.141A4.054,4.054,0,0,1,92.4,34.977v-.219a5.106,5.106,0,0,1,.492-2.277,3.612,3.612,0,0,1,1.395-1.547,3.914,3.914,0,0,1,2.059-.543,3.508,3.508,0,0,1,2.73,1.094,4.444,4.444,0,0,1,1,3.1v.922H94.688a2.1,2.1,0,0,0,.66,1.328,2,2,0,0,0,1.395.5,2.437,2.437,0,0,0,2.039-.945l1.109,1.242a3.389,3.389,0,0,1-1.375,1.121A4.511,4.511,0,0,1,96.594,39.156Zm-.258-6.945a1.411,1.411,0,0,0-1.09.455,2.357,2.357,0,0,0-.535,1.3h3.141v-.181a1.681,1.681,0,0,0-.406-1.165A1.456,1.456,0,0,0,96.336,32.211Zm13.75.453a6.134,6.134,0,0,0-.812-.062,1.654,1.654,0,0,0-1.68.867V39h-2.258V30.547h2.133l.063,1.008a2.092,2.092,0,0,1,1.883-1.164,2.366,2.366,0,0,1,.7.1ZM113.555,39h-2.266V30.547h2.266Zm-2.4-10.641a1.112,1.112,0,0,1,.34-.836,1.465,1.465,0,0,1,1.848,0,1.193,1.193,0,0,1,0,1.68,1.448,1.448,0,0,1-1.836,0A1.108,1.108,0,0,1,111.156,28.359Zm8.148,10.8a4.15,4.15,0,0,1-3.027-1.141,4.054,4.054,0,0,1-1.168-3.039v-.219a5.106,5.106,0,0,1,.492-2.277A3.612,3.612,0,0,1,117,30.934a3.914,3.914,0,0,1,2.059-.543,3.508,3.508,0,0,1,2.73,1.094,4.444,4.444,0,0,1,1,3.1v.922H117.4a2.1,2.1,0,0,0,.66,1.328,2,2,0,0,0,1.395.5,2.437,2.437,0,0,0,2.039-.945l1.109,1.242a3.389,3.389,0,0,1-1.375,1.121A4.511,4.511,0,0,1,119.3,39.156Zm-.258-6.945a1.411,1.411,0,0,0-1.09.455,2.357,2.357,0,0,0-.535,1.3h3.141v-.181a1.681,1.681,0,0,0-.406-1.165A1.456,1.456,0,0,0,119.047,32.211Zm9.594,4.453a.727.727,0,0,0-.41-.652,4.659,4.659,0,0,0-1.316-.426q-3.016-.633-3.016-2.562a2.323,2.323,0,0,1,.934-1.879,3.766,3.766,0,0,1,2.441-.754,4.053,4.053,0,0,1,2.574.758,2.388,2.388,0,0,1,.965,1.969h-2.258a1.092,1.092,0,0,0-.312-.8,1.322,1.322,0,0,0-.977-.316,1.351,1.351,0,0,0-.883.258.814.814,0,0,0-.312.656.7.7,0,0,0,.355.605,3.657,3.657,0,0,0,1.2.4,9.8,9.8,0,0,1,1.422.379,2.336,2.336,0,0,1,1.789,2.273,2.205,2.205,0,0,1-.992,1.871,4.28,4.28,0,0,1-2.562.715,4.47,4.47,0,0,1-1.887-.379,3.166,3.166,0,0,1-1.293-1.039,2.414,2.414,0,0,1-.469-1.426h2.141a1.179,1.179,0,0,0,.445.922,1.766,1.766,0,0,0,1.109.32,1.635,1.635,0,0,0,.98-.246A.766.766,0,0,0,128.641,36.664Zm3.32-1.953a4.954,4.954,0,0,1,.926-3.133,3,3,0,0,1,2.5-1.187,2.631,2.631,0,0,1,2.164.953l.094-.8h2.047v8.172a3.613,3.613,0,0,1-.5,1.93,3.236,3.236,0,0,1-1.418,1.25,4.985,4.985,0,0,1-2.141.43,4.635,4.635,0,0,1-1.812-.371A3.217,3.217,0,0,1,132.477,41l1-1.375a2.645,2.645,0,0,0,2.047.945,1.936,1.936,0,0,0,1.4-.48,1.8,1.8,0,0,0,.5-1.363v-.453a2.612,2.612,0,0,1-2.055.883,2.992,2.992,0,0,1-2.465-1.191,4.953,4.953,0,0,1-.941-3.16Zm2.258.161a3.1,3.1,0,0,0,.461,1.809,1.465,1.465,0,0,0,1.266.655,1.567,1.567,0,0,0,1.477-.777V32.988a1.563,1.563,0,0,0-1.461-.777,1.474,1.474,0,0,0-1.277.667A3.5,3.5,0,0,0,134.219,34.872Zm6.852-.176a5.013,5.013,0,0,1,.484-2.242,3.546,3.546,0,0,1,1.395-1.523,4.069,4.069,0,0,1,2.113-.539,3.849,3.849,0,0,1,2.793,1.047,4.2,4.2,0,0,1,1.207,2.844l.016.578a4.418,4.418,0,0,1-1.086,3.121,4.209,4.209,0,0,1-5.832,0,4.5,4.5,0,0,1-1.09-3.187Zm2.258.16a3.16,3.16,0,0,0,.453,1.843,1.628,1.628,0,0,0,2.578.008,3.457,3.457,0,0,0,.461-2.015,3.128,3.128,0,0,0-.461-1.831,1.5,1.5,0,0,0-1.3-.649,1.474,1.474,0,0,0-1.281.646A3.516,3.516,0,0,0,143.328,34.856Z" transform="translate(600 1810)" fill="#12263f"/>
    <path id="Trazado_171333" data-name="Trazado 171333" d="M-509.974,1520.085a14.025,14.025,0,0,0,2.788.444,33.454,33.454,0,0,1,27.059,25.512,33.33,33.33,0,0,1-22.478,39.148.819.819,0,0,0-.689.967c.03,1.822.014,3.645.011,5.468,0,1.347-.432,1.829-1.77,1.759-.794-.042-.945.231-.913.955.059,1.351.024,2.707.015,4.061-.008,1.226-.478,1.683-1.72,1.684q-4.961,0-9.922,0c-1.242,0-1.709-.457-1.717-1.685-.009-1.432-.023-2.865.009-4.3.012-.52-.1-.719-.673-.712-1.682.02-2-.332-2-2,0-1.771-.014-3.541.009-5.312a.746.746,0,0,0-.6-.876c-12.066-4.152-19.75-12.408-22.636-24.836-3.216-13.849,3.5-28.727,15.835-35.76a33.7,33.7,0,0,1,13.616-4.368c.124-.012.265.011.316-.152Zm-2.638,64.013a30.714,30.714,0,0,0,30.631-30.761,30.693,30.693,0,0,0-30.708-30.59,30.72,30.72,0,0,0-30.6,30.707A30.739,30.739,0,0,0-512.612,1584.1Zm0,6.63c2,0,4-.015,6.005.011.5.006.685-.114.665-.644-.04-1.09-.053-2.185,0-3.274.035-.67-.234-.723-.774-.61a26.853,26.853,0,0,1-3.474.448,31.229,31.229,0,0,1-8.38-.462c-.589-.115-.775.037-.747.652.05,1.09.036,2.184,0,3.274-.014.479.136.621.614.616C-516.672,1590.714-514.644,1590.728-512.617,1590.728Zm-.016,6.693c1.145,0,2.291-.016,3.436.008.427.009.606-.1.591-.562-.03-.962-.025-1.927,0-2.889.01-.438-.143-.589-.586-.586q-3.436.025-6.873,0c-.439,0-.6.14-.589.582.023.963.027,1.927,0,2.889-.014.455.155.576.587.566C-514.924,1597.4-513.778,1597.421-512.632,1597.421Z" transform="translate(1197.012 198.414)" fill="#020303"/>
    <path id="Trazado_171334" data-name="Trazado 171334" d="M-499.036,1597.375a30.738,30.738,0,0,1-30.675-30.644,30.72,30.72,0,0,1,30.6-30.706,30.693,30.693,0,0,1,30.708,30.59A30.714,30.714,0,0,1-499.036,1597.375Zm-.032-2.677a28.026,28.026,0,0,0,28-27.875,28.028,28.028,0,0,0-27.9-28.136,28.035,28.035,0,0,0-28.077,27.955A28.025,28.025,0,0,0-499.069,1594.7Z" transform="translate(1183.436 185.137)" fill="#c99a28"/>
    <path id="Trazado_171335" data-name="Trazado 171335" d="M-379.54,1920.174c-2.028,0-4.056-.014-6.083.01-.478.005-.628-.136-.614-.616.033-1.091.046-2.185,0-3.274-.028-.615.158-.768.747-.652a31.219,31.219,0,0,0,8.38.463,26.854,26.854,0,0,0,3.474-.448c.54-.113.809-.06.774.61-.057,1.089-.043,2.184,0,3.274.02.531-.167.651-.665.644C-375.536,1920.159-377.538,1920.174-379.54,1920.174Z" transform="translate(1063.935 -131.031)" fill="#c99a28"/>
    <path id="Trazado_171336" data-name="Trazado 171336" d="M-366.278,1962.924c-1.146,0-2.291-.016-3.436.009-.432.01-.6-.111-.588-.566.029-.962.025-1.926,0-2.889-.011-.443.15-.585.589-.583q3.436.025,6.873,0c.443,0,.6.148.586.586-.023.963-.028,1.927,0,2.889.014.46-.164.571-.591.562C-363.987,1962.909-365.133,1962.924-366.278,1962.924Z" transform="translate(1050.657 -167.09)" fill="#fff4d1"/>
    <path id="Trazado_171337" data-name="Trazado 171337" d="M-485.755,1607.969a28.025,28.025,0,0,1-27.973-28.057,28.035,28.035,0,0,1,28.077-27.955,28.028,28.028,0,0,1,27.9,28.136A28.026,28.026,0,0,1-485.755,1607.969Zm-.015-2.683a25.333,25.333,0,0,0,25.352-25.216,25.372,25.372,0,0,0-25.295-25.448,25.376,25.376,0,0,0-25.351,25.236A25.333,25.333,0,0,0-485.77,1605.286Z" transform="translate(1170.121 171.867)" fill="#020303"/>
    <path id="Trazado_171338" data-name="Trazado 171338" d="M-472.49,1618.573a25.332,25.332,0,0,1-25.294-25.428,25.376,25.376,0,0,1,25.351-25.236,25.372,25.372,0,0,1,25.295,25.448A25.333,25.333,0,0,1-472.49,1618.573Zm-11.558-42.932a1.373,1.373,0,0,0-.863.312,21.487,21.487,0,0,0-4.846,4.832,1.438,1.438,0,0,0-.148,1.607c.448.909.881,1.825,1.312,2.742a2.192,2.192,0,0,1-1.035,2.436q-1.512.515-3.035.995a1.443,1.443,0,0,0-1.139,1.482c0,2.135-.007,4.271,0,6.406a1.422,1.422,0,0,0,1.138,1.475c1.019.307,2.021.671,3.031,1.006a.958.958,0,0,1,.658.478,2.381,2.381,0,0,1,.065,2.672,16.715,16.715,0,0,0-.993,2.027,1.447,1.447,0,0,0,.15,1.609,21.832,21.832,0,0,0,4.778,4.792,1.5,1.5,0,0,0,1.679.167c.887-.433,1.782-.85,2.676-1.269a2.138,2.138,0,0,1,2.487,1.032c.332.985.672,1.967.974,2.961a1.5,1.5,0,0,0,1.6,1.2c2.083-.013,4.167-.009,6.25,0a1.451,1.451,0,0,0,1.519-1.091c.317-.962.654-1.919.943-2.889a1.437,1.437,0,0,1,.826-.908,2.324,2.324,0,0,1,2.6.092,19.106,19.106,0,0,0,1.747.858,1.543,1.543,0,0,0,1.751-.157,22.2,22.2,0,0,0,4.724-4.739,1.491,1.491,0,0,0,.171-1.675c-.449-.909-.883-1.824-1.31-2.743a2.531,2.531,0,0,1,1.042-2.4c1.032-.354,2.065-.706,3.1-1.038a1.4,1.4,0,0,0,1.072-1.449q.012-3.2,0-6.406a1.4,1.4,0,0,0-1.06-1.456c-.941-.3-1.864-.658-2.814-.921a1.625,1.625,0,0,1-1.071-.983,2.17,2.17,0,0,1,.114-2.375c.356-.568.562-1.228.879-1.824a1.55,1.55,0,0,0-.164-1.812,22.257,22.257,0,0,0-4.679-4.674,1.546,1.546,0,0,0-1.748-.167c-.861.428-1.732.833-2.6,1.24a2.346,2.346,0,0,1-2.552-1.113c-.328-.986-.648-1.974-.972-2.962a1.424,1.424,0,0,0-1.513-1.085q-3.164.029-6.328,0a1.42,1.42,0,0,0-1.506,1.093c-.265.815-.578,1.617-.788,2.446a2,2,0,0,1-1.45,1.613,1.694,1.694,0,0,1-1.464-.072c-.773-.424-1.592-.765-2.389-1.146A1.832,1.832,0,0,0-484.048,1575.641Z" transform="translate(1156.842 158.58)" fill="#fffae8"/>
    <path id="Trazado_171339" data-name="Trazado 171339" d="M-464.214,1595.661a1.829,1.829,0,0,1,.821.218c.8.381,1.615.722,2.389,1.146a1.694,1.694,0,0,0,1.464.072,2,2,0,0,0,1.45-1.613c.211-.828.524-1.631.788-2.446a1.42,1.42,0,0,1,1.506-1.093q3.164.027,6.328,0a1.424,1.424,0,0,1,1.513,1.085c.324.987.643,1.976.972,2.962a2.346,2.346,0,0,0,2.552,1.113c.871-.407,1.743-.812,2.6-1.24a1.546,1.546,0,0,1,1.748.167,22.257,22.257,0,0,1,4.679,4.674,1.55,1.55,0,0,1,.164,1.812c-.317.6-.523,1.255-.879,1.824a2.17,2.17,0,0,0-.114,2.375,1.625,1.625,0,0,0,1.071.983c.95.263,1.873.622,2.814.921a1.4,1.4,0,0,1,1.06,1.456q.01,3.2,0,6.406a1.4,1.4,0,0,1-1.072,1.449c-1.039.333-2.072.684-3.1,1.038a2.531,2.531,0,0,0-1.042,2.4c.427.919.861,1.835,1.31,2.743a1.491,1.491,0,0,1-.171,1.675,22.2,22.2,0,0,1-4.724,4.739,1.543,1.543,0,0,1-1.751.157,19.106,19.106,0,0,1-1.747-.858,2.324,2.324,0,0,0-2.6-.092,1.437,1.437,0,0,0-.826.908c-.289.97-.626,1.927-.943,2.889a1.451,1.451,0,0,1-1.519,1.091c-2.083-.008-4.167-.011-6.25,0a1.5,1.5,0,0,1-1.6-1.2c-.3-.994-.642-1.977-.974-2.961a2.138,2.138,0,0,0-2.487-1.032c-.893.42-1.789.836-2.676,1.269a1.5,1.5,0,0,1-1.679-.167,21.832,21.832,0,0,1-4.778-4.792,1.447,1.447,0,0,1-.15-1.609,16.715,16.715,0,0,1,.993-2.027,2.381,2.381,0,0,0-.065-2.672.958.958,0,0,0-.658-.478c-1.01-.335-2.012-.7-3.031-1.006a1.422,1.422,0,0,1-1.138-1.475c-.008-2.135,0-4.271,0-6.406a1.443,1.443,0,0,1,1.139-1.482q1.523-.48,3.035-.995a2.192,2.192,0,0,0,1.035-2.436c-.43-.917-.864-1.833-1.312-2.742a1.438,1.438,0,0,1,.148-1.607,21.487,21.487,0,0,1,4.846-4.832A1.371,1.371,0,0,1-464.214,1595.661Zm-1.526,9.963a2.792,2.792,0,0,1-.111.466q-.583,1.445-1.187,2.882a1.465,1.465,0,0,1-.974.832c-.89.286-1.765.621-2.661.883-.443.13-.636.314-.621.8q.054,1.795,0,3.592a.664.664,0,0,0,.569.763c.895.269,1.776.582,2.666.868a1.649,1.649,0,0,1,1.1,1.023c.332.846.685,1.685,1.05,2.517a1.664,1.664,0,0,1-.061,1.5c-.4.815-.766,1.65-1.183,2.458a.7.7,0,0,0,.118.9,32.587,32.587,0,0,0,2.29,2.343c.491.466.931.6,1.492.191a5.044,5.044,0,0,1,6.061-.1,2.187,2.187,0,0,1,1.16,1.265c.267.9.61,1.769.876,2.665a.571.571,0,0,0,.66.483q1.874-.028,3.749,0a.572.572,0,0,0,.66-.483c.272-.921.609-1.823.9-2.739a1.7,1.7,0,0,1,1.152-1.159,22.588,22.588,0,0,0,2.3-.958,1.644,1.644,0,0,1,1.561-.013c.79.4,1.6.744,2.389,1.147a.8.8,0,0,0,1.045-.1,25.407,25.407,0,0,0,2.531-2.543.7.7,0,0,0,.119-.9c-.43-.83-.81-1.686-1.218-2.528a1.55,1.55,0,0,1,.02-1.493,12.168,12.168,0,0,0,.96-2.3,1.689,1.689,0,0,1,1.21-1.206c.893-.277,1.778-.581,2.671-.858a.591.591,0,0,0,.492-.663q-.036-1.874,0-3.749a.624.624,0,0,0-.532-.711c-.92-.276-1.823-.609-2.739-.9a1.514,1.514,0,0,1-1.056-1.047,14.9,14.9,0,0,0-1.021-2.442,1.539,1.539,0,0,1,.013-1.493c.4-.815.769-1.649,1.187-2.456a.745.745,0,0,0-.128-.963,23.018,23.018,0,0,0-2.6-2.585.642.642,0,0,0-.826-.093c-.811.411-1.642.783-2.457,1.186a1.692,1.692,0,0,1-1.642,0,12.662,12.662,0,0,0-2.3-.952,1.618,1.618,0,0,1-1.137-1.173c-.273-.894-.614-1.768-.873-2.665a.606.606,0,0,0-.715-.517c-.858.027-1.718.008-2.577.008-1.639,0-1.628,0-2.154,1.535-1.008,2.936-.37,2.189-3.228,3.5a3.278,3.278,0,0,1-3.16-.085c-2.3-1.183-2.323-1.133-4.107.729-1.4,1.458-1.4,1.458-.55,3.252.089.188.182.374.262.566A4.6,4.6,0,0,1-465.74,1605.625Z" transform="translate(1137.007 138.559)" fill="#020303"/>
    <path id="Trazado_171340" data-name="Trazado 171340" d="M-452.4,1618.9a4.6,4.6,0,0,0-.562-1.51c-.08-.192-.173-.378-.262-.566-.847-1.794-.847-1.794.55-3.252,1.784-1.863,1.81-1.913,4.107-.729a3.278,3.278,0,0,0,3.16.085c2.858-1.313,2.22-.566,3.228-3.5.526-1.531.515-1.535,2.154-1.535.859,0,1.719.019,2.577-.008a.606.606,0,0,1,.715.517c.259.9.6,1.771.873,2.666a1.618,1.618,0,0,0,1.138,1.173,12.645,12.645,0,0,1,2.3.951,1.692,1.692,0,0,0,1.641,0c.815-.4,1.646-.774,2.457-1.185a.641.641,0,0,1,.826.093,22.967,22.967,0,0,1,2.6,2.585.745.745,0,0,1,.128.963c-.418.807-.785,1.641-1.187,2.456a1.539,1.539,0,0,0-.013,1.493,14.9,14.9,0,0,1,1.021,2.441,1.514,1.514,0,0,0,1.056,1.047c.916.29,1.819.623,2.739.9a.624.624,0,0,1,.532.712q-.037,1.874,0,3.748a.591.591,0,0,1-.492.663c-.893.277-1.778.581-2.671.858a1.688,1.688,0,0,0-1.21,1.205,12.178,12.178,0,0,1-.96,2.3,1.55,1.55,0,0,0-.02,1.493c.408.842.789,1.7,1.218,2.528a.7.7,0,0,1-.119.9,25.426,25.426,0,0,1-2.531,2.543.8.8,0,0,1-1.045.1c-.786-.4-1.6-.751-2.389-1.147a1.643,1.643,0,0,0-1.561.013,22.581,22.581,0,0,1-2.3.958,1.7,1.7,0,0,0-1.152,1.159c-.29.916-.627,1.818-.9,2.739a.571.571,0,0,1-.66.483q-1.874-.027-3.749,0a.571.571,0,0,1-.66-.483c-.266-.9-.609-1.769-.876-2.665a2.187,2.187,0,0,0-1.16-1.265,5.044,5.044,0,0,0-6.061.1c-.561.411-1,.275-1.492-.191a32.574,32.574,0,0,1-2.29-2.343.7.7,0,0,1-.118-.9c.417-.808.779-1.644,1.183-2.458a1.664,1.664,0,0,0,.061-1.5c-.365-.833-.718-1.671-1.05-2.517a1.649,1.649,0,0,0-1.1-1.022c-.89-.287-1.771-.6-2.666-.869a.664.664,0,0,1-.57-.763q.052-1.795,0-3.592c-.015-.49.179-.675.621-.8.9-.262,1.771-.6,2.661-.884a1.465,1.465,0,0,0,.974-.832q.607-1.436,1.187-2.882A2.783,2.783,0,0,0-452.4,1618.9Zm13.092-4.349a12.031,12.031,0,0,0-11.989,12.037,12.028,12.028,0,0,0,12.071,11.95,12.029,12.029,0,0,0,11.95-12.072A12.036,12.036,0,0,0-439.306,1614.549Z" transform="translate(1123.664 125.285)" fill="#43a047"/>
    <path id="Trazado_171341" data-name="Trazado 171341" d="M-406.108,1647.8a12.036,12.036,0,0,1,12.032,11.915,12.029,12.029,0,0,1-11.95,12.072,12.029,12.029,0,0,1-12.071-11.95A12.031,12.031,0,0,1-406.108,1647.8Zm.037,2.677a9.363,9.363,0,0,0-9.359,9.3,9.382,9.382,0,0,0,9.328,9.342,9.377,9.377,0,0,0,9.359-9.312A9.359,9.359,0,0,0-406.071,1650.476Z" transform="translate(1090.467 92.037)" fill="#020303"/>
    <path id="Trazado_171342" data-name="Trazado 171342" d="M-392.774,1663.827a9.359,9.359,0,0,1,9.328,9.334,9.376,9.376,0,0,1-9.359,9.312,9.382,9.382,0,0,1-9.328-9.342A9.363,9.363,0,0,1-392.774,1663.827Zm-1.357,6.673c0,.651-.015,1.3,0,1.951s-.277,1.484.112,1.888c.423.439,1.28.074,1.94.158.551.07.643-.183.637-.664-.022-1.769-.009-3.539-.009-5.308,0-2.118,0-2.1-2.135-2.047-.457.012-.567.16-.558.587C-394.115,1668.209-394.131,1669.355-394.131,1670.5Zm1.3,9.314c1.386,0,1.386,0,1.386-1.364,0-1.3,0-1.3-1.3-1.3-1.386,0-1.386,0-1.386,1.366C-394.131,1679.813-394.131,1679.813-392.833,1679.813Z" transform="translate(1077.17 78.686)" fill="#ffecb3"/>
    <path id="Trazado_171343" data-name="Trazado 171343" d="M-354.664,1683.641c0-1.145.017-2.29-.009-3.435-.01-.427.1-.576.558-.587,2.135-.055,2.135-.071,2.135,2.047,0,1.77-.014,3.539.009,5.308.006.481-.086.733-.637.664-.66-.083-1.516.282-1.94-.158-.389-.4-.093-1.241-.112-1.887S-354.664,1684.291-354.664,1683.641Z" transform="translate(1037.703 65.545)" fill="#020303"/>
    <path id="Trazado_171344" data-name="Trazado 171344" d="M-352.936,1746.243c-1.3,0-1.3,0-1.3-1.3,0-1.366,0-1.366,1.386-1.366,1.3,0,1.3,0,1.3,1.3C-351.55,1746.243-351.55,1746.243-352.936,1746.243Z" transform="translate(1037.272 12.256)" fill="#020303"/>
  </g>
</svg>
