<svg xmlns="http://www.w3.org/2000/svg" width="271.852" height="339.766" viewBox="0 0 271.852 339.766">
  <g id="Grupo_111259" data-name="Grupo 111259" transform="translate(-929.401 -1441.232)">
    <path id="Trazado_171279" data-name="Trazado 171279" d="M-959.171,822.4a418.338,418.338,0,0,1-9,86.412l-188-42.91-43.235-9.867a179.563,179.563,0,0,0,3.048-30.32c.014-.939.023-1.879.023-2.823a177.622,177.622,0,0,0-34.687-105.738l168.97-134.747,16.752-13.361a416.541,416.541,0,0,1,44.817,72.5q1.12,2.318,2.212,4.645A413.352,413.352,0,0,1-969.484,730,417.985,417.985,0,0,1-959.171,822.4Z" transform="translate(2160.424 872.186)" fill="#28c65d"/>
    <path id="Trazado_171280" data-name="Trazado 171280" d="M-931.3,853.52a418.333,418.333,0,0,1-9,86.412l-188-42.91-22.472-22.472-1.691-1.691c.606-6.255.906-12.553.906-18.846a193.716,193.716,0,0,0-28.854-102.249l158.262-126.2,51.749,51.749a413.343,413.343,0,0,1,28.789,83.816A417.989,417.989,0,0,1-931.3,853.52Z" transform="translate(2132.555 841.064)" fill="#0f5c29" opacity="0.3"/>
    <path id="Trazado_171293" data-name="Trazado 171293" d="M-948.209,852.023a402.791,402.791,0,0,1-5.443,66.026l-197.124-45-1.813-.413c.042-.427.084-.85.122-1.277.606-6.255.906-12.553.906-18.846a193.716,193.716,0,0,0-28.854-102.249l158.262-126.2,1.526-1.221q3.022,4.3,5.927,8.674a398.824,398.824,0,0,1,26.868,47.02A396.165,396.165,0,0,1-958.1,763.371,401.064,401.064,0,0,1-948.209,852.023Z" transform="translate(2132.555 842.561)" fill="#f6f6f6"/>
    <path id="Trazado_171294" data-name="Trazado 171294" d="M-1130.05,881.073c.3-4.505.445-9.028.445-13.517A203.219,203.219,0,0,0-1155.9,767.335l146.941-117.181a391.364,391.364,0,0,1,27.016,47.1,387.908,387.908,0,0,1,29.1,83.024,392.6,392.6,0,0,1,9.684,86.781,395.538,395.538,0,0,1-3.958,55.762Z" transform="translate(2119.053 827.521)" fill="#fff"/>
    <path id="Trazado_171604" data-name="Trazado 171604" d="M5.52,15V3.625h3.5A5.315,5.315,0,0,1,11.7,4.3a4.712,4.712,0,0,1,1.848,1.922,5.928,5.928,0,0,1,.664,2.832v.523a5.945,5.945,0,0,1-.652,2.82,4.672,4.672,0,0,1-1.84,1.914A5.355,5.355,0,0,1,9.043,15ZM7.863,5.523v7.594H9a2.545,2.545,0,0,0,2.1-.9,4.06,4.06,0,0,0,.742-2.57v-.6a4.124,4.124,0,0,0-.719-2.629,2.537,2.537,0,0,0-2.1-.895ZM18.152,15H15.887V6.547h2.266Zm-2.4-10.641a1.112,1.112,0,0,1,.34-.836,1.465,1.465,0,0,1,1.848,0,1.105,1.105,0,0,1,.344.836,1.108,1.108,0,0,1-.348.844,1.448,1.448,0,0,1-1.836,0A1.108,1.108,0,0,1,15.754,4.359Zm8.836,8.3a.727.727,0,0,0-.41-.652,4.659,4.659,0,0,0-1.316-.426q-3.016-.633-3.016-2.562a2.323,2.323,0,0,1,.934-1.879,3.766,3.766,0,0,1,2.441-.754,4.053,4.053,0,0,1,2.574.758,2.388,2.388,0,0,1,.965,1.969H24.5a1.092,1.092,0,0,0-.312-.8A1.322,1.322,0,0,0,23.215,8a1.351,1.351,0,0,0-.883.258.814.814,0,0,0-.312.656.7.7,0,0,0,.355.605,3.657,3.657,0,0,0,1.2.4A9.8,9.8,0,0,1,25,10.3a2.336,2.336,0,0,1,1.789,2.273,2.2,2.2,0,0,1-.992,1.871,4.28,4.28,0,0,1-2.562.715,4.47,4.47,0,0,1-1.887-.379,3.166,3.166,0,0,1-1.293-1.039,2.414,2.414,0,0,1-.469-1.426h2.141a1.179,1.179,0,0,0,.445.922,1.766,1.766,0,0,0,1.109.32,1.635,1.635,0,0,0,.98-.246A.766.766,0,0,0,24.59,12.664Zm7.539,2.492A4.15,4.15,0,0,1,29.1,14.016a4.054,4.054,0,0,1-1.168-3.039v-.219a5.106,5.106,0,0,1,.492-2.277A3.612,3.612,0,0,1,29.82,6.934a3.914,3.914,0,0,1,2.059-.543,3.508,3.508,0,0,1,2.73,1.094,4.444,4.444,0,0,1,1,3.1v.922H30.223a2.1,2.1,0,0,0,.66,1.328,2,2,0,0,0,1.395.5,2.437,2.437,0,0,0,2.039-.945l1.109,1.242a3.389,3.389,0,0,1-1.375,1.121A4.511,4.511,0,0,1,32.129,15.156Zm-.258-6.945a1.411,1.411,0,0,0-1.09.455,2.357,2.357,0,0,0-.535,1.3h3.141V9.788a1.681,1.681,0,0,0-.406-1.165A1.456,1.456,0,0,0,31.871,8.211Zm7.094-1.664.07.977a2.951,2.951,0,0,1,2.43-1.133,2.453,2.453,0,0,1,2,.789,3.682,3.682,0,0,1,.672,2.359V15H41.879V9.581a1.47,1.47,0,0,0-.312-1.045,1.4,1.4,0,0,0-1.039-.325,1.553,1.553,0,0,0-1.43.814V15H36.84V6.547ZM43.449,3.1a2.187,2.187,0,0,1-.516,1.48,1.6,1.6,0,0,1-1.258.6,1.908,1.908,0,0,1-.527-.066,3.539,3.539,0,0,1-.637-.285,3.435,3.435,0,0,0-.586-.27,1.432,1.432,0,0,0-.391-.051.627.627,0,0,0-.465.2.759.759,0,0,0-.191.555L37.566,5.18A2.22,2.22,0,0,1,38.078,3.7a1.578,1.578,0,0,1,1.254-.609,1.614,1.614,0,0,1,.441.059,4.861,4.861,0,0,1,.676.285,4.392,4.392,0,0,0,.648.273,1.48,1.48,0,0,0,.375.047.659.659,0,0,0,.473-.191.728.728,0,0,0,.2-.551Zm7.3,11.9a2.507,2.507,0,0,1-.227-.758,2.732,2.732,0,0,1-2.133.914,3,3,0,0,1-2.059-.719,2.312,2.312,0,0,1-.816-1.812,2.389,2.389,0,0,1,1-2.062,4.915,4.915,0,0,1,2.879-.727h1.039V9.352a1.393,1.393,0,0,0-.3-.937,1.183,1.183,0,0,0-.949-.352,1.345,1.345,0,0,0-.895.273.929.929,0,0,0-.324.75H45.7a2.268,2.268,0,0,1,.453-1.359,3,3,0,0,1,1.281-.98,4.669,4.669,0,0,1,1.859-.355,3.689,3.689,0,0,1,2.48.785,2.747,2.747,0,0,1,.918,2.207v3.664a4.041,4.041,0,0,0,.336,1.82V15Zm-1.867-1.57a1.945,1.945,0,0,0,.922-.223,1.462,1.462,0,0,0,.625-.6V11.156h-.844q-1.7,0-1.8,1.172l-.008.133a.9.9,0,0,0,.3.7A1.153,1.153,0,0,0,48.879,13.43Zm10.3-4.766a6.134,6.134,0,0,0-.812-.062,1.654,1.654,0,0,0-1.68.867V15H54.426V6.547h2.133l.063,1.008A2.092,2.092,0,0,1,58.5,6.391a2.366,2.366,0,0,1,.7.1Zm8.961,6.492a4.15,4.15,0,0,1-3.027-1.141,4.054,4.054,0,0,1-1.168-3.039v-.219a5.106,5.106,0,0,1,.492-2.277,3.612,3.612,0,0,1,1.395-1.547,3.914,3.914,0,0,1,2.059-.543,3.508,3.508,0,0,1,2.73,1.094,4.444,4.444,0,0,1,1,3.1v.922H66.23a2.1,2.1,0,0,0,.66,1.328,2,2,0,0,0,1.395.5,2.437,2.437,0,0,0,2.039-.945l1.109,1.242a3.389,3.389,0,0,1-1.375,1.121A4.511,4.511,0,0,1,68.137,15.156Zm-.258-6.945a1.411,1.411,0,0,0-1.09.455,2.357,2.357,0,0,0-.535,1.3h3.141V9.788a1.681,1.681,0,0,0-.406-1.165A1.456,1.456,0,0,0,67.879,8.211Zm9.594,4.453a.727.727,0,0,0-.41-.652,4.659,4.659,0,0,0-1.316-.426q-3.016-.633-3.016-2.562a2.323,2.323,0,0,1,.934-1.879,3.766,3.766,0,0,1,2.441-.754,4.053,4.053,0,0,1,2.574.758,2.388,2.388,0,0,1,.965,1.969H77.387a1.092,1.092,0,0,0-.312-.8A1.322,1.322,0,0,0,76.1,8a1.351,1.351,0,0,0-.883.258.814.814,0,0,0-.312.656.7.7,0,0,0,.355.605,3.657,3.657,0,0,0,1.2.4,9.8,9.8,0,0,1,1.422.379,2.336,2.336,0,0,1,1.789,2.273,2.2,2.2,0,0,1-.992,1.871,4.28,4.28,0,0,1-2.562.715,4.47,4.47,0,0,1-1.887-.379,3.166,3.166,0,0,1-1.293-1.039,2.414,2.414,0,0,1-.469-1.426h2.141a1.179,1.179,0,0,0,.445.922,1.766,1.766,0,0,0,1.109.32,1.635,1.635,0,0,0,.98-.246A.766.766,0,0,0,77.473,12.664Zm6.352-8.2V6.547H85.27V8.2H83.824v4.219a1.007,1.007,0,0,0,.18.672.9.9,0,0,0,.688.2,3.6,3.6,0,0,0,.664-.055v1.711a4.648,4.648,0,0,1-1.367.2,2.156,2.156,0,0,1-2.422-2.4V8.2H80.332V6.547h1.234V4.469Zm7.453,4.2a6.134,6.134,0,0,0-.812-.062,1.654,1.654,0,0,0-1.68.867V15H86.527V6.547H88.66l.063,1.008a2.092,2.092,0,0,1,1.883-1.164,2.366,2.366,0,0,1,.7.1ZM97.027,15a2.507,2.507,0,0,1-.227-.758,2.732,2.732,0,0,1-2.133.914,3,3,0,0,1-2.059-.719,2.312,2.312,0,0,1-.816-1.812,2.389,2.389,0,0,1,1-2.062,4.915,4.915,0,0,1,2.879-.727h1.039V9.352a1.393,1.393,0,0,0-.3-.937,1.183,1.183,0,0,0-.949-.352,1.345,1.345,0,0,0-.895.273.929.929,0,0,0-.324.75H91.98a2.268,2.268,0,0,1,.453-1.359,3,3,0,0,1,1.281-.98,4.669,4.669,0,0,1,1.859-.355,3.689,3.689,0,0,1,2.48.785,2.747,2.747,0,0,1,.918,2.207v3.664a4.041,4.041,0,0,0,.336,1.82V15ZM95.16,13.43a1.945,1.945,0,0,0,.922-.223,1.462,1.462,0,0,0,.625-.6V11.156h-.844q-1.7,0-1.8,1.172l-.008.133a.9.9,0,0,0,.3.7A1.153,1.153,0,0,0,95.16,13.43Zm8.25-8.961V6.547h1.445V8.2H103.41v4.219a1.007,1.007,0,0,0,.18.672.9.9,0,0,0,.688.2,3.6,3.6,0,0,0,.664-.055v1.711a4.648,4.648,0,0,1-1.367.2,2.156,2.156,0,0,1-2.422-2.4V8.2H99.918V6.547h1.234V4.469ZM110,15.156a4.15,4.15,0,0,1-3.027-1.141,4.054,4.054,0,0,1-1.168-3.039v-.219A5.106,5.106,0,0,1,106.3,8.48,3.612,3.612,0,0,1,107.7,6.934a3.914,3.914,0,0,1,2.059-.543,3.508,3.508,0,0,1,2.73,1.094,4.444,4.444,0,0,1,1,3.1v.922H108.1a2.1,2.1,0,0,0,.66,1.328,2,2,0,0,0,1.395.5,2.437,2.437,0,0,0,2.039-.945l1.109,1.242a3.389,3.389,0,0,1-1.375,1.121A4.511,4.511,0,0,1,110,15.156Zm-.258-6.945a1.411,1.411,0,0,0-1.09.455,2.357,2.357,0,0,0-.535,1.3h3.141V9.788a1.681,1.681,0,0,0-.406-1.165A1.456,1.456,0,0,0,109.746,8.211Zm4.688,2.5a4.954,4.954,0,0,1,.926-3.133,3,3,0,0,1,2.5-1.187,2.631,2.631,0,0,1,2.164.953l.094-.8h2.047v8.172a3.613,3.613,0,0,1-.5,1.93,3.236,3.236,0,0,1-1.418,1.25,4.985,4.985,0,0,1-2.141.43,4.635,4.635,0,0,1-1.812-.371A3.217,3.217,0,0,1,114.949,17l1-1.375A2.645,2.645,0,0,0,118,16.57a1.936,1.936,0,0,0,1.4-.48,1.8,1.8,0,0,0,.5-1.363v-.453a2.612,2.612,0,0,1-2.055.883,2.992,2.992,0,0,1-2.465-1.191,4.953,4.953,0,0,1-.941-3.16Zm2.258.161a3.1,3.1,0,0,0,.461,1.809,1.465,1.465,0,0,0,1.266.655,1.567,1.567,0,0,0,1.477-.777V8.988a1.563,1.563,0,0,0-1.461-.777,1.474,1.474,0,0,0-1.277.667A3.5,3.5,0,0,0,116.691,10.872ZM126.277,15h-2.266V6.547h2.266Zm-2.4-10.641a1.112,1.112,0,0,1,.34-.836,1.465,1.465,0,0,1,1.848,0,1.105,1.105,0,0,1,.344.836,1.108,1.108,0,0,1-.348.844,1.448,1.448,0,0,1-1.836,0A1.108,1.108,0,0,1,123.879,4.359ZM133.035,15a2.507,2.507,0,0,1-.227-.758,2.732,2.732,0,0,1-2.133.914,3,3,0,0,1-2.059-.719,2.312,2.312,0,0,1-.816-1.812,2.389,2.389,0,0,1,1-2.062,4.915,4.915,0,0,1,2.879-.727h1.039V9.352a1.393,1.393,0,0,0-.3-.937,1.183,1.183,0,0,0-.949-.352,1.345,1.345,0,0,0-.895.273.929.929,0,0,0-.324.75h-2.258a2.268,2.268,0,0,1,.453-1.359,3,3,0,0,1,1.281-.98,4.669,4.669,0,0,1,1.859-.355,3.689,3.689,0,0,1,2.48.785,2.747,2.747,0,0,1,.918,2.207v3.664a4.041,4.041,0,0,0,.336,1.82V15Zm-1.867-1.57a1.945,1.945,0,0,0,.922-.223,1.462,1.462,0,0,0,.625-.6V11.156h-.844q-1.7,0-1.8,1.172l-.008.133a.9.9,0,0,0,.3.7A1.153,1.153,0,0,0,131.168,13.43Zm5.664.461a1.137,1.137,0,0,1,.363-.875,1.412,1.412,0,0,1,1.828,0,1.137,1.137,0,0,1,.363.875,1.121,1.121,0,0,1-.359.863,1.435,1.435,0,0,1-1.836,0A1.121,1.121,0,0,1,136.832,13.891Z" transform="translate(1013.83 1658)" fill="#12263f"/>
    <path id="Trazado_171361" data-name="Trazado 171361" d="M-932.184,622.367q0-15.708,0-31.415c0-2.893,1.6-4.5,4.471-4.5h44.5c2.833,0,4.461,1.615,4.463,4.426,0,3.694.009,7.389-.01,11.083a.943.943,0,0,0,.584,1.012A3.885,3.885,0,0,1-877,608.942c-.331.4-.344.563.095.845.839.539,1.592,1.482,2.473,1.606s1.773-.777,2.672-1.2c.125-.06.247-.126.37-.189.494-.251,1.154-.383,1.442-.782.36-.5-.382-.888-.552-1.376a4.04,4.04,0,0,1,2.191-5.064,3.977,3.977,0,0,1,5.129,1.825,3.916,3.916,0,0,1-1.537,5.264,1.133,1.133,0,0,0-.686,1.207c.042,2.579.155,5.173-.8,7.649a16.464,16.464,0,0,1-.918,2.131c-.29.518-.177.691.311.966a5.047,5.047,0,0,1,2.74,4.715,5.127,5.127,0,0,1-2.869,4.645,4.522,4.522,0,0,1-1.984.572c-.429.018-.529.182-.475.549a1.22,1.22,0,0,1,0,.166,5.217,5.217,0,0,0,.044,1.734c.2.531.947.32,1.431.523a4.052,4.052,0,0,1,2.519,4.108,3.953,3.953,0,0,1-3.344,3.544c-.608.094-.668.312-.661.824.027,2.083.021,4.167,0,6.25a2.1,2.1,0,0,0,.326,1.168c1.043,1.7,2.038,3.434,3.1,5.123a3.789,3.789,0,0,1,.6,2.194c-.038,1.86-.007,3.722-.014,5.583a2.685,2.685,0,0,1-2.889,2.927q-11.814.009-23.628,0a2.683,2.683,0,0,1-2.869-2.864c-.008-1.444-.035-2.89.014-4.333.021-.637-.136-.819-.8-.817-8.1.026-16.2.017-24.3.017-2.672,0-5.344,0-8.015,0a4.029,4.029,0,0,1-4.3-4.332Q-932.187,638.241-932.184,622.367Zm44.114,10.751c-.073,1.332-.073,1.332,1.234,1.332h13.5c1.307,0,1.307,0,1.234-1.332.067-1.332.067-1.332-1.24-1.332H-886.83C-888.137,631.786-888.137,631.786-888.07,633.118Zm15.972,10.667c.067-1.332.067-1.332-1.24-1.332H-886.83c-1.307,0-1.307,0-1.24,1.332a33.412,33.412,0,0,0-.006,3.66,8.454,8.454,0,0,1-1.758,6.294,18.916,18.916,0,0,0-1.186,1.989h21.892c-.849-1.417-1.627-2.752-2.443-4.064a3.207,3.207,0,0,1-.508-1.8C-872.059,647.837-872.088,645.81-872.1,643.784Zm-51.737,11.97a1.085,1.085,0,0,0,.165.025q14.476,0,28.952.014a.845.845,0,0,0,.826-.518q1.388-2.367,2.829-4.7a1.948,1.948,0,0,0,.3-1.092c-.012-2.11-.018-4.219,0-6.329,0-.478-.061-.68-.629-.769a3.961,3.961,0,0,1-3.378-3.6,4.086,4.086,0,0,1,2.642-4.112c.445-.168,1.112.047,1.314-.436a4.145,4.145,0,0,0,.042-1.483c0-.194-.012-.39,0-.583.02-.271-.067-.373-.362-.4a5.393,5.393,0,0,1-4.922-4.269,5.34,5.34,0,0,1,2.941-5.813c.39-.207.29-.375.154-.632a19.514,19.514,0,0,1-1.006-2.277c-.931-2.483-.844-5.07-.806-7.649a1.2,1.2,0,0,0-.7-1.289,3.864,3.864,0,0,1-1.541-5.187,3.981,3.981,0,0,1,5.027-1.922,4.064,4.064,0,0,1,2.393,4.91c-.157.57-1.016,1.019-.567,1.588.357.453,1.1.6,1.669.888.124.062.247.126.374.181.858.377,1.687,1.247,2.531,1.1s1.543-1.015,2.307-1.567a.614.614,0,0,1,.068-.047c.432-.231.375-.431.071-.8a3.878,3.878,0,0,1,1.174-6.022.9.9,0,0,0,.553-.95c-.015-3.666-.008-7.331-.009-11,0-1.517-.4-1.863-1.935-1.915-.664-.023-.756.2-.75.79.031,2.749,0,5.5.02,8.248a1.423,1.423,0,0,1-.947,1.578,1.384,1.384,0,0,1-1.668-.767c-.445-.682-.909-1.352-1.4-2.083-.508.757-.949,1.4-1.371,2.047-.393.608-.887,1.032-1.654.8-.794-.237-.992-.858-.987-1.63.019-2.693-.02-5.388.026-8.081.012-.715-.143-.907-.891-.9q-17.237.043-34.474.02c-1.723,0-2.059.329-2.059,2.022q0,31.324,0,62.649c0,.194-.007.389,0,.583a1.323,1.323,0,0,0,1.419,1.4C-926.672,655.79-925.254,655.763-923.835,655.754Zm55.706-44.294c-.308-.068-.516.156-.753.276-1.587.8-3.182,1.581-4.747,2.418a1.669,1.669,0,0,1-2-.162c-1.309-.986-2.663-1.912-3.973-2.9a.633.633,0,0,0-.925,0c-1.14.886-2.358,1.679-3.458,2.61a2.218,2.218,0,0,1-2.865.231c-1.684-.944-3.445-1.752-5.185-2.623a14.912,14.912,0,0,0,1.786,9.237.93.93,0,0,0,.962.574c1-.037,2-.011,3-.011q7.678,0,15.356,0c.347,0,.657.054.905-.375A14.816,14.816,0,0,0-868.129,611.46Zm-11.954,17.657c3.478,0,6.956-.008,10.434.006a2.774,2.774,0,0,0,2.18-.852,2.481,2.481,0,0,0,.52-2.851,2.625,2.625,0,0,0-2.582-1.635q-10.476,0-20.952,0a2.7,2.7,0,0,0-2.958,2.687,2.718,2.718,0,0,0,3.007,2.644Q-885.258,629.12-880.083,629.117Zm.006,34.666c3.757,0,7.513-.011,11.27.012.547,0,.785-.083.762-.706-.051-1.331-.039-2.666,0-4,.014-.51-.125-.653-.646-.651q-11.4.026-22.791,0c-.542,0-.643.179-.631.666.031,1.3.046,2.612,0,3.915-.024.621.143.786.775.781C-887.591,663.766-883.834,663.782-880.077,663.782Zm-.016-26.666h-9.837c-.306,0-.613-.018-.917.011a1.322,1.322,0,0,0-1.254,1.309,1.331,1.331,0,0,0,1.229,1.335,5.025,5.025,0,0,0,.583.011h20.425a4.706,4.706,0,0,0,.583-.012,1.311,1.311,0,0,0,1.208-1.35,1.287,1.287,0,0,0-1.184-1.288,4.59,4.59,0,0,0-.749-.015Zm-6.739-43.395V591.08c0-1.948,0-1.931-1.944-1.906-.466.006-.613.124-.6.6.032,1.294.011,2.589.011,3.893C-888.332,592.844-887.837,592.844-886.832,593.722Zm-5.293,12.694a1.34,1.34,0,0,0-1.352-1.284,1.343,1.343,0,0,0-1.286,1.35,1.341,1.341,0,0,0,1.352,1.283A1.341,1.341,0,0,0-892.125,606.416Zm13.359.021a1.335,1.335,0,0,0-1.331-1.3,1.334,1.334,0,0,0-1.3,1.329,1.336,1.336,0,0,0,1.331,1.3A1.337,1.337,0,0,0-878.766,606.438Zm11.977,1.329a1.341,1.341,0,0,0,1.382-1.252,1.346,1.346,0,0,0-1.254-1.381,1.342,1.342,0,0,0-1.382,1.253A1.343,1.343,0,0,0-866.789,607.766Z" transform="translate(1984.015 978.049)" fill="#010101"/>
    <path id="Trazado_171362" data-name="Trazado 171362" d="M-914.517,664.988c-1.418.009-2.837.037-4.255.021a1.323,1.323,0,0,1-1.419-1.4c-.01-.194,0-.389,0-.583q0-31.324,0-62.649c0-1.693.335-2.022,2.059-2.022q17.237,0,34.474-.02c.748,0,.9.19.891.9-.046,2.693-.007,5.387-.026,8.081-.006.772.193,1.393.987,1.63.767.229,1.261-.2,1.654-.8.421-.652.862-1.29,1.371-2.047.494.732.959,1.4,1.4,2.083a1.384,1.384,0,0,0,1.668.767,1.423,1.423,0,0,0,.947-1.578c-.016-2.749.01-5.5-.02-8.247-.006-.586.085-.813.75-.79,1.537.053,1.935.4,1.935,1.915,0,3.666-.006,7.331.009,11a.9.9,0,0,1-.553.95,3.878,3.878,0,0,0-1.174,6.022c.3.364.362.564-.071.8a.622.622,0,0,0-.068.047c-.764.552-1.472,1.421-2.307,1.567s-1.673-.722-2.531-1.1c-.127-.056-.25-.12-.374-.181-.571-.284-1.312-.435-1.669-.888-.45-.569.41-1.018.567-1.588a4.064,4.064,0,0,0-2.393-4.91,3.981,3.981,0,0,0-5.027,1.922,3.864,3.864,0,0,0,1.541,5.187,1.2,1.2,0,0,1,.7,1.289c-.039,2.58-.125,5.167.806,7.649a19.511,19.511,0,0,0,1.006,2.277c.136.257.236.425-.154.632a5.341,5.341,0,0,0-2.941,5.813,36.685,36.685,0,0,1-3.148,3.278c-.927.974-1.885,1.92-2.83,2.878a4.2,4.2,0,0,0-3.9-.1c-2.162,1.1-2.741,3.36-1.513,5.888a3.181,3.181,0,0,0-1.341.894c-.671.588-1.144,1.4-2,1.78-.009-3.721-.008-7.442-.038-11.163,0-.5.223-.51.6-.508q3.548.017,7.1,0c1.195,0,1.663-.47,1.666-1.664.006-2.361,0-4.721,0-7.082,0-1.536-.381-1.918-1.914-1.918-5.788,0-11.576-.01-17.364.015-.612,0-.807-.124-.777-.763.058-1.247.062-2.5,0-3.748-.035-.7.16-.861.855-.856,4.508.035,9.016.021,13.524.016,1.2,0,1.659-.469,1.668-1.662.006-.778,0-1.555,0-2.333v-4.747c.2.179.277.249.355.317.478.417.881,1.28,1.385,1.2.538-.082.958-.855,1.459-1.292.347-.3.374-.507.02-.847-1.163-1.117-2.283-2.277-3.435-3.406a1.367,1.367,0,0,0-2.238,0c-.8.776-1.576,1.569-2.363,2.355-1.551,1.548-1.54,1.537.065,3.017.313.288.473.257.73-.022.4-.43.825-.832,1.349-1.355,0,1.925-.035,3.646.018,5.364.02.65-.184.759-.784.756-4.508-.026-9.016-.016-13.524-.013-1.3,0-1.738.442-1.74,1.756q0,3.5,0,7c0,1.53.383,1.911,1.921,1.911,5.788,0,11.576.011,17.364-.016.627,0,.794.148.769.771-.053,1.3-.046,2.611,0,3.915.019.559-.16.682-.692.675-2.281-.029-4.563-.014-6.845-.012-1.419,0-1.827.411-1.828,1.836q0,7.915-.006,15.83a2.679,2.679,0,0,0-1.222.811q-4.15,4.139-8.3,8.28A2.945,2.945,0,0,0-914.517,664.988Zm7.68-10.625a4.01,4.01,0,0,0-3.945-4.01,4.018,4.018,0,0,0-4.062,3.981,4.014,4.014,0,0,0,3.946,4.011A4.016,4.016,0,0,0-906.838,654.363Zm-4-36.013a4.018,4.018,0,0,0,4-4.046,4.01,4.01,0,0,0-4.01-3.946,4.016,4.016,0,0,0-4,4.045A4.015,4.015,0,0,0-910.839,618.35Zm15.208-9.266a12.252,12.252,0,0,1,.787-1.031c1.137-1.154,1.17-1.178-.03-2.295-.575-.535-.7-.855-.037-1.454,1.251-1.124,1.173-1.138.049-2.357-.555-.6-.874-.656-1.456-.015-1.122,1.236-1.209,1.237-2.331,0-.584-.644-.9-.579-1.455.019-1.124,1.216-1.187,1.215.043,2.358.561.521.661.823.034,1.4-1.273,1.161-1.2,1.171-.049,2.413.532.574.833.633,1.395.021,1.159-1.264,1.2-1.234,2.4-.014A7.4,7.4,0,0,1-895.63,609.083Z" transform="translate(1974.696 968.814)" fill="#ffecb3"/>
    <path id="Trazado_171363" data-name="Trazado 171363" d="M-881.648,785.347c.855-.381,1.327-1.192,2-1.78a3.181,3.181,0,0,1,1.341-.894c.117.116.235.229.349.347a3.85,3.85,0,0,0,4.1,1.144,3.8,3.8,0,0,0,2.793-3.113,4.054,4.054,0,0,0-1.832-4.167c.944-.958,1.9-1.9,2.83-2.878a36.694,36.694,0,0,0,3.148-3.278A5.394,5.394,0,0,0-862,775c.3.032.383.134.362.4-.014.193,0,.388,0,.583a4.143,4.143,0,0,1-.042,1.483c-.2.483-.869.268-1.314.436a4.086,4.086,0,0,0-2.642,4.112,3.961,3.961,0,0,0,3.378,3.6c.568.088.633.291.629.769-.021,2.109-.016,4.219,0,6.329a1.948,1.948,0,0,1-.3,1.092q-1.441,2.335-2.829,4.7a.845.845,0,0,1-.826.519q-14.476-.022-28.952-.014a1.085,1.085,0,0,1-.165-.025,2.945,2.945,0,0,1,.828-1.214q4.15-4.14,8.3-8.28a2.679,2.679,0,0,1,1.222-.811,1.645,1.645,0,0,0,1.724,1.012c1.412-.041,2.827-.012,4.241-.012,2.123,0,2.1,0,2.071-2.1-.008-.5-.182-.583-.622-.572-1.052.028-2.106.009-3.16.009C-881.733,787.014-881.733,787.014-881.648,785.347Z" transform="translate(1954.88 834.816)" fill="#ffecb3"/>
    <path id="Trazado_171364" data-name="Trazado 171364" d="M-728.45,843.853c.01,2.026.039,4.052.018,6.078a3.207,3.207,0,0,0,.508,1.8c.816,1.312,1.595,2.647,2.443,4.064h-21.892a18.9,18.9,0,0,1,1.186-1.989,8.454,8.454,0,0,0,1.758-6.294,33.414,33.414,0,0,1,.006-3.66Z" transform="translate(1840.367 777.98)" fill="#43a047"/>
    <path id="Trazado_171365" data-name="Trazado 171365" d="M-728.373,696.765a14.816,14.816,0,0,1-1.891,9.281c-.249.429-.558.374-.905.375q-7.678,0-15.356,0c-1,0-2-.026-3,.011a.93.93,0,0,1-.962-.574,14.912,14.912,0,0,1-1.786-9.237c1.74.871,3.5,1.679,5.185,2.623a2.218,2.218,0,0,0,2.865-.231c1.1-.932,2.317-1.724,3.458-2.61a.633.633,0,0,1,.925,0c1.311.984,2.664,1.91,3.973,2.9a1.669,1.669,0,0,0,2,.162c1.565-.838,3.16-1.621,4.747-2.419C-728.889,696.921-728.681,696.7-728.373,696.765Z" transform="translate(1844.259 892.744)" fill="#43a047"/>
    <path id="Trazado_171366" data-name="Trazado 171366" d="M-744.885,759.391q-5.176,0-10.351,0a2.718,2.718,0,0,1-3.007-2.644,2.7,2.7,0,0,1,2.958-2.687q10.476,0,20.952,0a2.625,2.625,0,0,1,2.582,1.635,2.481,2.481,0,0,1-.52,2.851,2.774,2.774,0,0,1-2.18.852C-737.929,759.383-741.407,759.391-744.885,759.391Z" transform="translate(1848.816 847.773)" fill="#43a047"/>
    <path id="Trazado_171367" data-name="Trazado 171367" d="M-740.284,914.982c-3.757,0-7.514-.016-11.27.016-.631.005-.8-.16-.775-.781.051-1.3.036-2.611,0-3.915-.011-.487.089-.667.631-.666q11.4.028,22.791,0c.521,0,.659.142.646.651-.035,1.332-.047,2.667,0,4,.024.624-.214.71-.762.707C-732.77,914.971-736.527,914.982-740.284,914.982Z" transform="translate(1844.221 726.85)" fill="#43a047"/>
    <path id="Trazado_171368" data-name="Trazado 171368" d="M-740.217,813.893h10.087a4.582,4.582,0,0,1,.749.015A1.287,1.287,0,0,1-728.2,815.2a1.311,1.311,0,0,1-1.208,1.35,4.706,4.706,0,0,1-.583.012h-20.425a5.04,5.04,0,0,1-.583-.011,1.331,1.331,0,0,1-1.229-1.335,1.322,1.322,0,0,1,1.254-1.309c.3-.029.611-.011.917-.011Z" transform="translate(1844.139 801.271)" fill="#43a047"/>
    <path id="Trazado_171369" data-name="Trazado 171369" d="M-734.207,791.318c-.067-1.331-.067-1.331,1.24-1.331h13.493c1.307,0,1.307,0,1.24,1.331Z" transform="translate(1830.151 819.848)" fill="#43a047"/>
    <path id="Trazado_171370" data-name="Trazado 171370" d="M-734.217,795.965h15.972c.074,1.332.074,1.332-1.234,1.332h-13.5C-734.29,797.3-734.29,797.3-734.217,795.965Z" transform="translate(1830.162 815.201)" fill="#43a047"/>
    <path id="Trazado_171371" data-name="Trazado 171371" d="M-718.235,839.206h-15.972c-.067-1.332-.067-1.332,1.24-1.332h13.493C-718.168,837.874-718.168,837.874-718.235,839.206Z" transform="translate(1830.151 782.627)" fill="#43a047"/>
    <path id="Trazado_171372" data-name="Trazado 171372" d="M-737.456,603.206c-1.006-.878-1.5-.878-2.535-.057,0-1.3.021-2.6-.011-3.893-.012-.474.135-.592.6-.6,1.944-.025,1.944-.042,1.944,1.906Z" transform="translate(1834.639 968.564)" fill="#c99a28"/>
    <path id="Trazado_171373" data-name="Trazado 171373" d="M-761.542,671.605a1.341,1.341,0,0,1-1.286,1.35,1.34,1.34,0,0,1-1.352-1.283,1.343,1.343,0,0,1,1.286-1.35A1.34,1.34,0,0,1-761.542,671.605Z" transform="translate(1853.432 912.859)" fill="#43a047"/>
    <path id="Trazado_171374" data-name="Trazado 171374" d="M-701.556,671.636a1.337,1.337,0,0,1-1.3,1.33,1.336,1.336,0,0,1-1.331-1.3,1.334,1.334,0,0,1,1.3-1.329A1.334,1.334,0,0,1-701.556,671.636Z" transform="translate(1806.805 912.85)" fill="#43a047"/>
    <path id="Trazado_171375" data-name="Trazado 171375" d="M-642.967,672.951a1.343,1.343,0,0,1-1.254-1.381,1.342,1.342,0,0,1,1.382-1.253,1.346,1.346,0,0,1,1.254,1.381A1.341,1.341,0,0,1-642.967,672.951Z" transform="translate(1760.193 912.863)" fill="#43a047"/>
    <path id="Trazado_171376" data-name="Trazado 171376" d="M-882.814,693.237c-.084,1.667-.084,1.667,1.55,1.667,1.053,0,2.107.019,3.16-.009.44-.012.615.071.622.572.032,2.1.052,2.1-2.071,2.1-1.414,0-2.828-.03-4.241.012a1.645,1.645,0,0,1-1.724-1.012q0-7.915.006-15.83c0-1.425.408-1.834,1.828-1.836,2.282,0,4.564-.017,6.845.012.532.007.711-.116.692-.675-.044-1.3-.051-2.612,0-3.915.025-.623-.141-.774-.769-.771-5.788.027-11.576.016-17.364.016-1.539,0-1.921-.381-1.921-1.911q0-3.5,0-7c0-1.313.437-1.755,1.74-1.756,4.508,0,9.016-.013,13.524.013.6,0,.8-.106.784-.756-.054-1.718-.018-3.439-.018-5.364-.524.523-.952.925-1.349,1.355-.257.279-.418.31-.73.022-1.606-1.481-1.617-1.469-.065-3.017.787-.786,1.567-1.579,2.363-2.355a1.367,1.367,0,0,1,2.238,0c1.152,1.128,2.272,2.289,3.435,3.406.354.34.327.545-.02.847-.5.437-.921,1.211-1.459,1.292-.5.076-.907-.787-1.385-1.2-.078-.068-.155-.138-.355-.317v4.747c0,.778,0,1.555,0,2.333-.009,1.193-.472,1.661-1.668,1.662-4.508,0-9.016.019-13.524-.016-.7-.006-.891.159-.855.856.063,1.247.059,2.5,0,3.748-.03.638.165.765.777.763,5.788-.025,11.576-.015,17.364-.015,1.533,0,1.913.382,1.914,1.918,0,2.361,0,4.721,0,7.082,0,1.194-.471,1.661-1.666,1.664q-3.548.008-7.1,0c-.376,0-.6.008-.6.508C-882.821,685.8-882.823,689.516-882.814,693.237Z" transform="translate(1956.046 926.928)" fill="#010101"/>
    <path id="Trazado_171377" data-name="Trazado 171377" d="M-888.166,835.895a4.016,4.016,0,0,1-4.062,3.982,4.014,4.014,0,0,1-3.946-4.011,4.018,4.018,0,0,1,4.062-3.981A4.01,4.01,0,0,1-888.166,835.895Zm-4.028-1.293a1.349,1.349,0,0,0-1.259,1.3,1.342,1.342,0,0,0,1.3,1.256,1.342,1.342,0,0,0,1.258-1.3A1.347,1.347,0,0,0-892.193,834.6Z" transform="translate(1956.024 787.283)" fill="#010101"/>
    <path id="Trazado_171378" data-name="Trazado 171378" d="M-892.177,660.314a4.015,4.015,0,0,1-4.01-3.947,4.016,4.016,0,0,1,4-4.045,4.01,4.01,0,0,1,4.01,3.946A4.018,4.018,0,0,1-892.177,660.314Zm1.274-3.975a1.336,1.336,0,0,0-1.255-1.3,1.338,1.338,0,0,0-1.3,1.254,1.338,1.338,0,0,0,1.256,1.3A1.34,1.34,0,0,0-890.9,656.339Z" transform="translate(1956.035 926.85)" fill="#010101"/>
    <path id="Trazado_171379" data-name="Trazado 171379" d="M-817.91,796.5a4.054,4.054,0,0,1,1.832,4.167,3.8,3.8,0,0,1-2.793,3.113,3.85,3.85,0,0,1-4.1-1.144c-.114-.118-.233-.231-.349-.347-1.227-2.528-.649-4.787,1.513-5.888A4.2,4.2,0,0,1-817.91,796.5Zm-2.081,4.74a1.341,1.341,0,0,0,1.26-1.3,1.346,1.346,0,0,0-1.3-1.26,1.348,1.348,0,0,0-1.261,1.3A1.342,1.342,0,0,0-819.991,801.241Z" transform="translate(1899.894 815.201)" fill="#010101"/>
    <path id="Trazado_171380" data-name="Trazado 171380" d="M-828.517,620.048a7.4,7.4,0,0,0-.646-.961c-1.2-1.221-1.244-1.25-2.4.014-.562.613-.862.553-1.395-.021-1.153-1.242-1.224-1.252.049-2.413.627-.572.527-.874-.034-1.4-1.23-1.143-1.167-1.141-.043-2.358.552-.6.871-.662,1.455-.019,1.123,1.238,1.209,1.237,2.331,0,.581-.64.9-.587,1.456.015,1.124,1.218,1.2,1.233-.049,2.357-.667.6-.538.919.036,1.454,1.2,1.116,1.167,1.141.03,2.295A12.225,12.225,0,0,0-828.517,620.048Z" transform="translate(1907.583 957.85)" fill="#010101"/>
    <path id="Trazado_171383" data-name="Trazado 171383" d="M-810.687,810.723a1.342,1.342,0,0,1-1.3-1.258,1.348,1.348,0,0,1,1.261-1.3,1.346,1.346,0,0,1,1.3,1.26A1.341,1.341,0,0,1-810.687,810.723Z" transform="translate(1890.59 805.719)" fill="#43a047"/>
  </g>
</svg>
