<svg xmlns="http://www.w3.org/2000/svg" width="319.313" height="324.527" viewBox="0 0 319.313 324.527">
  <g id="Grupo_111249" data-name="Grupo 111249" transform="translate(-381.985 -5077.284)">
    <path id="Trazado_171275" data-name="Trazado 171275" d="M-2130.014,1347.944l-9.533,19.8-93.241,193.616q-4.515-2.282-8.975-4.673a416.95,416.95,0,0,1-63.292-41.774,418.707,418.707,0,0,1-65.4-65.4,416.728,416.728,0,0,1-41.788-63.3q-3.938-7.34-7.575-14.835a413.744,413.744,0,0,1-26.413-69.91q-1.634-5.9-3.1-11.854l19.377-4.424,169.223-38.623,42.624-9.731A178.836,178.836,0,0,0-2130.014,1347.944Z" transform="translate(2831.313 3840.451)" fill="#28c65d"/>
    <path id="Trazado_171276" data-name="Trazado 171276" d="M-2113.951,1396.971l-93.241,193.616q-4.516-2.283-8.975-4.673l-66.575-66.575L-2320.079,1482q-5.946-6.784-11.572-13.821a399.277,399.277,0,0,1-47.357-74.963,396.569,396.569,0,0,1-23.839-61.808l181.833-41.5,38.543,38.543a196.725,196.725,0,0,0,53.881,53.881Z" transform="translate(2805.717 3811.225)" fill="#318335" opacity="0.3"/>
    <path id="Trazado_171285" data-name="Trazado 171285" d="M-2126.374,1379.026l-.244.507-88.169,183.087a400.256,400.256,0,0,1-54.116-36.458q-7.051-5.636-13.84-11.6a401.459,401.459,0,0,1-37.336-37.336q-5.946-6.784-11.572-13.821a399.274,399.274,0,0,1-47.357-74.963,396.561,396.561,0,0,1-23.839-61.808l181.833-41.5,17.057-3.893a195.024,195.024,0,0,0,21.486,42.436,196.723,196.723,0,0,0,53.881,53.881C-2127.858,1378.054-2127.115,1378.543-2126.374,1379.026Z" transform="translate(2805.717 3815.996)" fill="#f6f6f6"/>
    <path id="Trazado_171286" data-name="Trazado 171286" d="M-2205.295,1562.852a392.937,392.937,0,0,1-45.169-31.188,393.3,393.3,0,0,1-61.427-61.432,391.093,391.093,0,0,1-46.354-73.373,389.227,389.227,0,0,1-20.705-51.9l182.878-41.743A205.863,205.863,0,0,0-2124,1394.038Z" transform="translate(2792.559 3803.893)" fill="#fff"/>
    <path id="Trazado_171590" data-name="Trazado 171590" d="M10.16,15H7.816V3.625H10.16ZM14.3,6.547l.07.945a2.971,2.971,0,0,1,2.43-1.1A2.255,2.255,0,0,1,19.043,7.68a2.9,2.9,0,0,1,2.539-1.289,2.521,2.521,0,0,1,2.047.8A3.681,3.681,0,0,1,24.3,9.6V15H22.035V9.6a1.616,1.616,0,0,0-.281-1.053,1.245,1.245,0,0,0-.992-.333,1.409,1.409,0,0,0-1.406.971L19.363,15H17.105V9.6a1.6,1.6,0,0,0-.289-1.065,1.257,1.257,0,0,0-.984-.329,1.463,1.463,0,0,0-1.391.8V15H12.184V6.547Zm19.344,4.3a5.07,5.07,0,0,1-.887,3.129,2.843,2.843,0,0,1-2.395,1.176,2.633,2.633,0,0,1-2.07-.891V18.25H26.035V6.547h2.094l.078.828a2.654,2.654,0,0,1,2.141-.984,2.862,2.862,0,0,1,2.43,1.156,5.207,5.207,0,0,1,.867,3.188Zm-2.258-.172a3.345,3.345,0,0,0-.418-1.826,1.36,1.36,0,0,0-1.215-.643,1.478,1.478,0,0,0-1.461.815V12.5a1.5,1.5,0,0,0,1.477.839Q31.387,13.336,31.387,10.679ZM37.426,15H35.16V3h2.266Zm5.75.156a4.15,4.15,0,0,1-3.027-1.141,4.054,4.054,0,0,1-1.168-3.039v-.219a5.106,5.106,0,0,1,.492-2.277,3.612,3.612,0,0,1,1.395-1.547,3.914,3.914,0,0,1,2.059-.543,3.508,3.508,0,0,1,2.73,1.094,4.444,4.444,0,0,1,1,3.1v.922H41.27a2.1,2.1,0,0,0,.66,1.328,2,2,0,0,0,1.395.5,2.437,2.437,0,0,0,2.039-.945l1.109,1.242A3.389,3.389,0,0,1,45.1,14.754,4.511,4.511,0,0,1,43.176,15.156Zm-.258-6.945a1.411,1.411,0,0,0-1.09.455,2.357,2.357,0,0,0-.535,1.3h3.141V9.788a1.681,1.681,0,0,0-.406-1.165A1.456,1.456,0,0,0,42.918,8.211Zm7.133-1.664.07.945a2.971,2.971,0,0,1,2.43-1.1A2.255,2.255,0,0,1,54.793,7.68a2.9,2.9,0,0,1,2.539-1.289,2.521,2.521,0,0,1,2.047.8,3.681,3.681,0,0,1,.672,2.41V15H57.785V9.6A1.616,1.616,0,0,0,57.5,8.544a1.245,1.245,0,0,0-.992-.333,1.409,1.409,0,0,0-1.406.971L55.113,15H52.855V9.6a1.6,1.6,0,0,0-.289-1.065,1.257,1.257,0,0,0-.984-.329,1.463,1.463,0,0,0-1.391.8V15H47.934V6.547Zm15.625,8.609a4.15,4.15,0,0,1-3.027-1.141,4.054,4.054,0,0,1-1.168-3.039v-.219a5.106,5.106,0,0,1,.492-2.277,3.612,3.612,0,0,1,1.395-1.547,3.914,3.914,0,0,1,2.059-.543,3.508,3.508,0,0,1,2.73,1.094,4.444,4.444,0,0,1,1,3.1v.922H63.77a2.1,2.1,0,0,0,.66,1.328,2,2,0,0,0,1.395.5,2.437,2.437,0,0,0,2.039-.945l1.109,1.242A3.389,3.389,0,0,1,67.6,14.754,4.511,4.511,0,0,1,65.676,15.156Zm-.258-6.945a1.411,1.411,0,0,0-1.09.455,2.357,2.357,0,0,0-.535,1.3h3.141V9.788a1.681,1.681,0,0,0-.406-1.165A1.456,1.456,0,0,0,65.418,8.211Zm7.094-1.664.07.977a2.951,2.951,0,0,1,2.43-1.133,2.453,2.453,0,0,1,2,.789,3.682,3.682,0,0,1,.672,2.359V15H75.426V9.581a1.47,1.47,0,0,0-.312-1.045,1.4,1.4,0,0,0-1.039-.325,1.553,1.553,0,0,0-1.43.814V15H70.387V6.547ZM82.1,4.469V6.547h1.445V8.2H82.1v4.219a1.007,1.007,0,0,0,.18.672.9.9,0,0,0,.688.2,3.6,3.6,0,0,0,.664-.055v1.711a4.648,4.648,0,0,1-1.367.2,2.156,2.156,0,0,1-2.422-2.4V8.2H78.605V6.547H79.84V4.469ZM89.7,15a2.507,2.507,0,0,1-.227-.758,2.732,2.732,0,0,1-2.133.914,3,3,0,0,1-2.059-.719,2.312,2.312,0,0,1-.816-1.812,2.389,2.389,0,0,1,1-2.062,4.915,4.915,0,0,1,2.879-.727h1.039V9.352a1.393,1.393,0,0,0-.3-.937,1.183,1.183,0,0,0-.949-.352,1.345,1.345,0,0,0-.895.273.929.929,0,0,0-.324.75H84.652a2.268,2.268,0,0,1,.453-1.359,3,3,0,0,1,1.281-.98,4.669,4.669,0,0,1,1.859-.355,3.689,3.689,0,0,1,2.48.785,2.747,2.747,0,0,1,.918,2.207v3.664a4.041,4.041,0,0,0,.336,1.82V15Zm-1.867-1.57a1.945,1.945,0,0,0,.922-.223,1.462,1.462,0,0,0,.625-.6V11.156h-.844q-1.7,0-1.8,1.172l-.008.133a.9.9,0,0,0,.3.7A1.153,1.153,0,0,0,87.832,13.43Zm10.3-4.766a6.134,6.134,0,0,0-.812-.062,1.654,1.654,0,0,0-1.68.867V15H93.379V6.547h2.133l.063,1.008a2.092,2.092,0,0,1,1.883-1.164,2.366,2.366,0,0,1,.7.1Z" transform="translate(495 5243)" fill="#12263f"/>
    <g id="Grupo_111166" data-name="Grupo 111166" transform="translate(4948.854 3482.91)">
      <path id="Trazado_171399" data-name="Trazado 171399" d="M-4186.1,1692.277a2.108,2.108,0,0,1-1.937.818c-1.247-.061-2.5,0-3.749-.024-.365-.006-.586.086-.67.461a1.851,1.851,0,0,1-.237.656c-.755,1.069-.5,1.866.513,2.638a20.155,20.155,0,0,1,2.063,2.02c.819.834.835,1.478.028,2.291q-2.641,2.661-5.309,5.3a1.37,1.37,0,0,1-2.235,0l-1.735-1.674c-.488-.5-.9-1.186-1.487-1.433-.516-.216-1.1.427-1.693.6-.124.036-.241.1-.367.125-.442.087-.541.355-.531.782.028,1.3.013,2.6.009,3.893,0,1.253-.433,1.687-1.677,1.693q-3.855.016-7.708.024c-.978-.264-1.257-.6-1.263-1.571a22.844,22.844,0,0,1,.02-2.8c.153-1.3-.137-2.2-1.573-2.422a1.518,1.518,0,0,1-.563-.257c-.321-.211-.542-.131-.8.136-.9.934-1.829,1.846-2.75,2.762s-1.383.943-2.428.174a8.549,8.549,0,0,0-1.375-1.378l-2.669-2.661-1.231-1.294a1.379,1.379,0,0,1,.011-2.234c.747-.76,1.508-1.506,2.262-2.259.961-.959.961-.959.427-2.239a2.61,2.61,0,0,1-.224-.579c-.1-.67-.507-.772-1.106-.752-1.246.042-2.5.018-3.743.011-1.023-.006-1.361-.284-1.62-1.3q.012-3.821.024-7.643c0-1.252.439-1.693,1.674-1.7,1.326,0,2.652-.019,3.978.01a.6.6,0,0,0,.71-.508,3.318,3.318,0,0,1,.425-1.08c.558-.765.268-1.251-.356-1.8-.876-.772-1.674-1.633-2.493-2.469a1.353,1.353,0,0,1,.007-2.17q2.692-2.714,5.41-5.4a1.316,1.316,0,0,1,2.113.009c.95.925,1.895,1.857,2.806,2.819.349.369.654.566,1.106.211a.315.315,0,0,1,.139-.067c1.637-.25,2.067-1.256,1.836-2.777-.107-.712.029-1.457-.031-2.18a2.026,2.026,0,0,1,.814-1.934h9.063a2.161,2.161,0,0,1,.8,2.022c-.06.776.072,1.572-.032,2.339-.182,1.342.172,2.233,1.631,2.443a1.122,1.122,0,0,1,.42.2.628.628,0,0,0,.929-.152c.929-.984,1.9-1.931,2.861-2.88a1.336,1.336,0,0,1,2.174-.038q2.722,2.689,5.407,5.415a1.348,1.348,0,0,1-.031,2.176c-.673.689-1.362,1.362-2.045,2.041-1.173,1.165-1.173,1.164-.576,2.667a4.343,4.343,0,0,1,.23.661c.082.379.307.461.667.455,1.223-.02,2.448.037,3.669-.023a2.218,2.218,0,0,1,2.02.8Zm-42.662-4.54c0,.677.029,1.355-.009,2.03-.028.491.1.679.632.66,1.2-.042,2.394-.018,3.591-.011a1.42,1.42,0,0,1,1.649,1.211,17.614,17.614,0,0,0,1.4,3.376,1.408,1.408,0,0,1-.305,2.021c-.86.87-1.72,1.741-2.6,2.585-.317.3-.331.488-.006.8,1.014.973,2.017,1.96,2.983,2.98.357.378.548.288.856-.034.846-.883,1.718-1.742,2.59-2.6a1.384,1.384,0,0,1,1.96-.268,17.433,17.433,0,0,0,3.3,1.371c1.035.31,1.294.679,1.3,1.745,0,1.2.02,2.4-.009,3.592-.01.441.114.578.563.569q2.107-.042,4.216,0c.446.009.575-.123.564-.566-.029-1.223-.014-2.447-.008-3.67a1.4,1.4,0,0,1,1.213-1.639,17.176,17.176,0,0,0,3.375-1.4,1.41,1.41,0,0,1,2.018.314c.852.842,1.706,1.682,2.534,2.546.3.318.495.422.857.039.966-1.021,1.969-2.006,2.984-2.979.319-.306.324-.49,0-.8-.887-.842-1.747-1.714-2.607-2.583a1.425,1.425,0,0,1-.313-2.022,16.9,16.9,0,0,0,1.4-3.376,1.421,1.421,0,0,1,1.649-1.214c1.224-.007,2.447-.019,3.67.007.438.01.578-.118.57-.564q-.04-2.108,0-4.216c.009-.451-.133-.572-.571-.562-1.223.028-2.447.014-3.67.008a1.41,1.41,0,0,1-1.646-1.212,16.96,16.96,0,0,0-1.4-3.375,1.421,1.421,0,0,1,.323-2.017c.843-.85,1.682-1.705,2.547-2.533.317-.3.429-.49.042-.855q-1.534-1.445-2.981-2.982c-.365-.389-.553-.271-.854.043-.847.882-1.731,1.729-2.583,2.607a1.433,1.433,0,0,1-1.9.3,15.64,15.64,0,0,0-3.517-1.459,1.418,1.418,0,0,1-1.146-1.542c.017-1.249-.012-2.5.013-3.748.008-.425-.092-.589-.553-.579-1.405.029-2.812.027-4.217,0-.437-.008-.584.109-.573.561.029,1.249,0,2.5.012,3.748a1.435,1.435,0,0,1-1.138,1.553,15.859,15.859,0,0,0-3.518,1.457,1.433,1.433,0,0,1-1.9-.289c-.871-.9-1.774-1.76-2.636-2.664-.3-.318-.486-.329-.8-.005-.974,1.013-1.964,2.012-2.984,2.979-.368.349-.312.54.022.857.888.841,1.747,1.713,2.605,2.584a1.4,1.4,0,0,1,.284,1.962,17.233,17.233,0,0,0-1.4,3.374c-.288.975-.663,1.227-1.708,1.23-1.171,0-2.343.022-3.514-.009-.483-.013-.7.084-.662.627C-4228.723,1686.38-4228.761,1687.06-4228.761,1687.737Z" transform="translate(-172.754)" fill="#020202"/>
      <path id="Trazado_171400" data-name="Trazado 171400" d="M-4383.04,1838.078a8.533,8.533,0,0,1,1.376,1.378c0,.6.032,1.2-.022,1.788-.063.693.141.952.888.927,1.71-.058,3.423,0,5.134-.029.534-.008.733.145.716.7-.033,1.088,0,2.178.007,3.267,0,2.421-.017,4.842.025,7.262.011.629-.224.72-.769.711-1.874-.029-3.748-.022-5.622-.006-1.13.01-1.607.507-1.615,1.636-.008,1.067-.017,2.135.006,3.2.008.406-.126.54-.535.539q-4.8-.018-9.605,0c-.418,0-.534-.156-.526-.551.02-1.041.012-2.082,0-3.123-.008-1.219-.481-1.7-1.714-1.7q-7.652-.009-15.306,0c-1.17,0-1.66.5-1.663,1.674q-.012,5,0,10c0,1.179.493,1.677,1.658,1.679q7.692.013,15.384.006c1.155,0,1.639-.509,1.646-1.689.007-1.015.025-2.031-.009-3.045-.017-.492.165-.61.628-.607q4.725.025,9.449,0c.519,0,.6.2.587.644-.024,1.015-.013,2.03-.006,3.045.007,1.165.494,1.655,1.674,1.656q7.653.008,15.306,0c1.212,0,1.7-.492,1.706-1.714q.012-4.958,0-9.917c0-1.256-.492-1.729-1.767-1.734-1.822-.006-3.645-.03-5.466.013-.655.016-.825-.186-.818-.83.027-2.394-.008-4.788-.019-7.182l0-2.636q3.855-.012,7.708-.024c1.244-.005,1.673-.439,1.677-1.693,0-1.3.019-2.6-.009-3.893-.009-.427.089-.7.531-.782.125-.025.243-.089.367-.125.591-.169,1.178-.812,1.693-.6.592.248,1,.936,1.487,1.433q0,2.157-.007,4.315c-1.4.1-1.4.1-1.4,1.565,0,10.282-.011,20.564.021,30.847,0,.809-.218.963-.985.962q-23.194-.033-46.387-.013c-3.749,0-7.5.014-11.246-.005a4.015,4.015,0,0,1-4.066-3.976,3.978,3.978,0,0,1,4.02-4.008c.651-.012,1.3,0,1.953,0,1.665,0,2.02-.353,2.02-2.008q0-19.25-.015-38.5c0-.667.13-.876.846-.873,6.377.03,12.755.015,19.133.014,1.335,0,1.335,0,1.427-1.3l2.607-.006c.258,1.018.6,1.3,1.62,1.3,1.248.007,2.5.031,3.743-.011.6-.02,1.008.083,1.106.752a2.586,2.586,0,0,0,.224.579c.534,1.28.534,1.28-.427,2.239-.754.752-1.515,1.5-2.262,2.259a1.379,1.379,0,0,0-.011,2.234q.617.646,1.231,1.294l-2.55.023c-1.561,0-3.122-.027-4.683,0-.524.01-.662-.16-.645-.661.035-1.013.017-2.029.008-3.044-.01-1.148-.477-1.629-1.6-1.63q-7.727-.007-15.454,0c-1.138,0-1.62.467-1.624,1.61q-.016,5.034,0,10.068c0,1.145.488,1.619,1.619,1.62q7.727.006,15.454,0c1.125,0,1.6-.483,1.608-1.628.01-1.014.027-2.03-.008-3.044-.018-.5.115-.673.642-.661,1.56.033,3.122.01,4.683.008Z" transform="translate(-13.269 -133.001)" fill="#fffae8"/>
      <path id="Trazado_171401" data-name="Trazado 171401" d="M-4406.81,1764.715c-.092,1.3-.092,1.3-1.427,1.3-6.377,0-12.755.017-19.132-.014-.716,0-.848.206-.847.873q.03,19.25.015,38.5c0,1.655-.354,2.007-2.02,2.008-.651,0-1.3-.009-1.952,0a3.978,3.978,0,0,0-4.02,4.008,4.014,4.014,0,0,0,4.066,3.976c3.748.019,7.5.006,11.245.005q23.194,0,46.387.013c.766,0,.987-.153.985-.962-.032-10.282-.021-20.564-.021-30.847,0-1.467,0-1.467,1.4-1.565,1.264.071,1.264.071,1.264,1.35q0,16.366,0,32.732c0,1.571-.361,1.936-1.914,1.936h-58.9c-4.376,0-7.171-2.792-7.171-7.163q0-25.623,0-51.247a6.623,6.623,0,0,1,5.62-6.827,18.783,18.783,0,0,1,3.9-.06c.735.028,1.13.611,1.132,1.506.007,2.734.033,5.469-.017,8.2-.014.75.166.936.925.932,6.458-.034,12.916-.02,19.374-.02,1.059,0,1.058,0,1.082,1.05C-4406.837,1764.508-4406.82,1764.611-4406.81,1764.715Zm-29.381,41.306a6.593,6.593,0,0,1,4.406-1.294c.767.061.936-.19.935-.938q-.034-23.738-.017-47.475a4.047,4.047,0,0,1,0-.468c.043-.383-.135-.464-.494-.484-3.046-.167-4.833,1.5-4.833,4.544q0,22.606,0,45.211Z" transform="translate(0 -72.941)" fill="#020202"/>
      <path id="Trazado_171402" data-name="Trazado 171402" d="M-4215.448,1700.953c0-.677.039-1.356-.012-2.03-.041-.543.178-.64.662-.627,1.17.031,2.342.013,3.514.009,1.045,0,1.421-.255,1.708-1.23a17.233,17.233,0,0,1,1.4-3.374,1.4,1.4,0,0,0-.284-1.962c-.859-.871-1.718-1.743-2.605-2.584-.334-.317-.391-.508-.022-.857,1.02-.967,2.01-1.966,2.984-2.979.311-.323.494-.312.8.005.862.9,1.766,1.768,2.636,2.664a1.434,1.434,0,0,0,1.9.289,15.846,15.846,0,0,1,3.518-1.457,1.435,1.435,0,0,0,1.138-1.553c-.009-1.25.017-2.5-.012-3.748-.01-.452.137-.569.574-.561,1.405.026,2.812.028,4.217,0,.46-.009.561.155.553.579-.025,1.249,0,2.5-.013,3.748a1.418,1.418,0,0,0,1.146,1.542,15.631,15.631,0,0,1,3.517,1.459,1.433,1.433,0,0,0,1.9-.3c.852-.878,1.736-1.725,2.583-2.607.3-.313.489-.432.854-.043q1.444,1.535,2.98,2.982c.387.364.274.552-.042.855-.865.828-1.7,1.682-2.547,2.533a1.421,1.421,0,0,0-.324,2.017,16.989,16.989,0,0,1,1.4,3.375,1.41,1.41,0,0,0,1.646,1.212c1.224.006,2.447.019,3.67-.008.438-.01.58.111.57.562q-.042,2.108,0,4.216c.008.446-.132.574-.57.564-1.223-.027-2.447-.014-3.67-.007a1.421,1.421,0,0,0-1.649,1.214,16.9,16.9,0,0,1-1.4,3.376,1.425,1.425,0,0,0,.313,2.022c.861.87,1.72,1.741,2.607,2.583.323.306.318.49,0,.8-1.015.973-2.019,1.958-2.984,2.979-.363.383-.553.279-.858-.039-.828-.865-1.682-1.7-2.534-2.546a1.41,1.41,0,0,0-2.018-.314,17.188,17.188,0,0,1-3.375,1.4,1.4,1.4,0,0,0-1.213,1.639c-.006,1.224-.021,2.447.008,3.67.011.444-.118.575-.564.566q-2.107-.042-4.216,0c-.449.009-.574-.129-.563-.569.028-1.2.013-2.395.009-3.592,0-1.066-.264-1.435-1.3-1.745a17.42,17.42,0,0,1-3.3-1.371,1.384,1.384,0,0,0-1.96.268c-.873.858-1.745,1.716-2.59,2.6-.308.322-.5.412-.856.034-.966-1.02-1.969-2.007-2.983-2.98-.324-.311-.311-.5.006-.8.886-.844,1.745-1.714,2.605-2.585a1.409,1.409,0,0,0,.3-2.021,17.614,17.614,0,0,1-1.4-3.376,1.42,1.42,0,0,0-1.649-1.211c-1.2-.007-2.4-.031-3.592.011-.534.019-.659-.169-.631-.66C-4215.419,1702.308-4215.448,1701.629-4215.448,1700.953Zm19.967,12.029a12.049,12.049,0,0,0,12.041-12,12.07,12.07,0,0,0-12.027-12.024,12.048,12.048,0,0,0-11.993,11.968A12.039,12.039,0,0,0-4195.481,1712.981Z" transform="translate(-186.067 -13.216)" fill="#fcb230"/>
      <path id="Trazado_171403" data-name="Trazado 171403" d="M-4166.776,1900.745q0,1.318,0,2.636l-2.635.035c-.006-1.089-.04-2.179-.007-3.267.017-.555-.182-.709-.716-.7-1.711.028-3.424-.029-5.134.029-.747.025-.951-.234-.888-.927.054-.592.018-1.192.022-1.788,1.044.769,1.51.738,2.428-.174s1.848-1.828,2.75-2.762c.258-.267.478-.347.8-.136a1.518,1.518,0,0,0,.563.257c1.436.226,1.726,1.122,1.573,2.422a22.844,22.844,0,0,0-.02,2.8C-4168.032,1900.141-4167.754,1900.481-4166.776,1900.745Z" transform="translate(-218.801 -190.308)" fill="#1c551f"/>
      <path id="Trazado_171404" data-name="Trazado 171404" d="M-4215.456,1888.525l2.55-.023,2.669,2.661-5.222,0Z" transform="translate(-186.072 -186.086)" fill="#1c551f"/>
      <path id="Trazado_171405" data-name="Trazado 171405" d="M-4321.808,1952.325l2.634-.035c.012,2.394.046,4.789.019,7.182-.007.643.163.845.818.83,1.821-.043,3.644-.019,5.466-.013,1.275,0,1.765.478,1.767,1.734q.011,4.959,0,9.917c0,1.221-.494,1.713-1.706,1.714q-7.653.008-15.306,0c-1.179,0-1.666-.492-1.674-1.656-.006-1.015-.019-2.031.006-3.045.011-.442-.069-.648-.587-.644q-4.725.035-9.449,0c-.463,0-.645.115-.628.607.034,1.014.015,2.03.009,3.045-.008,1.18-.491,1.688-1.646,1.689q-7.692.007-15.384-.006c-1.165,0-1.655-.5-1.658-1.679q-.012-5,0-10c0-1.175.493-1.672,1.663-1.674q7.653-.012,15.306,0c1.233,0,1.706.481,1.714,1.7.006,1.041.015,2.083-.005,3.123-.007.395.107.553.526.551q4.8-.021,9.6,0c.409,0,.543-.133.535-.539-.022-1.067-.013-2.134-.005-3.2.008-1.129.485-1.626,1.615-1.636,1.874-.016,3.749-.022,5.623.006.544.008.78-.083.769-.711C-4321.825,1957.167-4321.8,1954.746-4321.808,1952.325Zm-27.941,18.663c2,0,4.009-.01,6.014.008.446,0,.649-.08.643-.593-.026-2.291-.022-4.582,0-6.873,0-.455-.157-.575-.586-.574q-6.092.017-12.185,0c-.5,0-.612.177-.608.638q.029,3.4,0,6.8c0,.49.167.616.633.611C-4353.811,1970.976-4351.78,1970.988-4349.749,1970.988Zm29.3,0c2,0,4.005-.009,6.008.007.433,0,.664-.061.659-.583-.024-2.288-.019-4.578,0-6.866,0-.43-.119-.593-.571-.592q-6.086.02-12.172,0c-.484,0-.612.158-.607.627.022,2.237.035,4.474-.006,6.71-.012.627.217.718.763.71C-4324.4,1970.97-4322.427,1970.988-4320.451,1970.988Z" transform="translate(-66.402 -239.216)" fill="#020202"/>
      <path id="Trazado_171406" data-name="Trazado 171406" d="M-4335.13,1862.052q0,1.321,0,2.642c-1.561,0-3.122.025-4.683-.008-.526-.011-.659.163-.642.661.035,1.014.018,2.029.008,3.044-.011,1.145-.482,1.627-1.608,1.628q-7.727.007-15.454,0c-1.131,0-1.615-.475-1.619-1.62q-.017-5.034,0-10.069c0-1.142.486-1.609,1.624-1.609q7.727-.006,15.454,0c1.125,0,1.593.481,1.6,1.63.009,1.015.026,2.03-.009,3.044-.018.5.121.672.645.661C-4338.253,1862.025-4336.691,1862.049-4335.13,1862.052Zm-14.6-2.675c-2.03,0-4.061.008-6.091-.007-.42,0-.668.023-.661.568.03,2.29.024,4.581,0,6.871,0,.456.154.564.583.563q6.091-.021,12.182,0c.472,0,.623-.118.617-.608q-.039-3.4,0-6.793c.005-.494-.154-.611-.622-.605C-4345.723,1859.39-4347.727,1859.377-4349.731,1859.377Z" transform="translate(-66.397 -159.612)" fill="#020202"/>
      <path id="Trazado_171407" data-name="Trazado 171407" d="M-4422.912,1819.421v-.9q0-22.605,0-45.211c0-3.043,1.787-4.711,4.833-4.544.358.02.537.1.494.484a4.047,4.047,0,0,0,0,.468q0,23.738.017,47.475c0,.748-.168,1-.935.938A6.593,6.593,0,0,0-4422.912,1819.421Z" transform="translate(-13.279 -86.341)" fill="#f5cd6c"/>
      <path id="Trazado_171408" data-name="Trazado 171408" d="M-4155.579,1752.867a12.039,12.039,0,0,1-11.98-12.056,12.048,12.048,0,0,1,11.993-11.968,12.07,12.07,0,0,1,12.027,12.024A12.049,12.049,0,0,1-4155.579,1752.867Zm0-2.666a9.41,9.41,0,0,0,9.372-9.317,9.4,9.4,0,0,0-9.314-9.369,9.4,9.4,0,0,0-9.368,9.314A9.4,9.4,0,0,0-4155.582,1750.2Z" transform="translate(-225.969 -53.102)" fill="#020202"/>
      <path id="Trazado_171409" data-name="Trazado 171409" d="M-4336.5,2024.144c-2.031,0-4.062-.012-6.093.009-.466,0-.638-.121-.633-.611q.033-3.4,0-6.8c0-.461.113-.64.608-.638q6.092.025,12.185,0c.429,0,.59.119.586.574-.02,2.291-.024,4.583,0,6.873.006.513-.2.6-.643.593C-4332.488,2024.134-4334.493,2024.144-4336.5,2024.144Z" transform="translate(-79.654 -292.373)" fill="#28c65d"/>
      <path id="Trazado_171410" data-name="Trazado 171410" d="M-4160.974,2024.145c-1.977,0-3.954-.018-5.93.011-.546.008-.775-.083-.763-.71.041-2.236.028-4.473.006-6.71,0-.469.123-.629.607-.627q6.086.025,12.172,0c.452,0,.574.162.571.592-.016,2.289-.021,4.578,0,6.866.005.522-.226.586-.659.583C-4156.969,2024.136-4158.972,2024.145-4160.974,2024.145Z" transform="translate(-225.879 -292.374)" fill="#43a047"/>
      <path id="Trazado_171411" data-name="Trazado 171411" d="M-4336.49,1872.583c2,0,4.009.013,6.012-.01.468-.005.628.112.622.605q-.039,3.4,0,6.793c.006.49-.145.61-.617.608q-6.091-.025-12.181,0c-.43,0-.588-.107-.584-.563.021-2.29.027-4.581,0-6.871-.007-.545.241-.571.661-.568C-4340.55,1872.591-4338.52,1872.583-4336.49,1872.583Z" transform="translate(-79.639 -172.818)" fill="#43a047"/>
      <path id="Trazado_171412" data-name="Trazado 171412" d="M-4142.288,1763.519a9.4,9.4,0,0,1-9.311-9.372,9.4,9.4,0,0,1,9.368-9.314,9.4,9.4,0,0,1,9.314,9.369A9.41,9.41,0,0,1-4142.288,1763.519Zm.059-4.025a5.3,5.3,0,0,0,5.3-5.308,5.315,5.315,0,0,0-5.354-5.336,5.3,5.3,0,0,0-5.289,5.314A5.288,5.288,0,0,0-4142.229,1759.494Z" transform="translate(-239.263 -66.42)" fill="#fcb230"/>
      <path id="Trazado_171413" data-name="Trazado 171413" d="M-4122.17,1779.523a5.288,5.288,0,0,1-5.346-5.329,5.3,5.3,0,0,1,5.289-5.314,5.314,5.314,0,0,1,5.354,5.336A5.3,5.3,0,0,1-4122.17,1779.523Zm0-2.664a2.653,2.653,0,0,0,2.639-2.7,2.673,2.673,0,0,0-2.65-2.62,2.653,2.653,0,0,0-2.668,2.669A2.635,2.635,0,0,0-4122.173,1776.859Z" transform="translate(-259.322 -86.449)" fill="#020202"/>
      <path id="Trazado_171414" data-name="Trazado 171414" d="M-4108.9,1790.126a2.634,2.634,0,0,1-2.68-2.65,2.653,2.653,0,0,1,2.668-2.67,2.674,2.674,0,0,1,2.65,2.62A2.654,2.654,0,0,1-4108.9,1790.126Z" transform="translate(-272.6 -99.715)" fill="#fdfefe"/>
    </g>
  </g>
</svg>
