<svg xmlns="http://www.w3.org/2000/svg" width="313.147" height="299.518" viewBox="0 0 313.147 299.518">
  <g id="Grupo_111254" data-name="Grupo 111254" transform="translate(-793.446 -212.001)">
    <g id="Grupo_111253" data-name="Grupo 111253">
      <path id="Trazado_171277" data-name="Trazado 171277" d="M-1220.45,359.21l-12.906,10.3-172.919,138a178.4,178.4,0,0,0-87.31-55.412,178.078,178.078,0,0,0-40.012-6.321V207.993a417.668,417.668,0,0,1,83.609,10.06q1.3.289,2.607.592a413.269,413.269,0,0,1,83.111,28.883l2.692,1.31q7.741,3.726,15.324,7.772A420.319,420.319,0,0,1-1220.45,359.21Z" transform="translate(2327.043 4.008)" fill="#28c65d"/>
      <path id="Trazado_171278" data-name="Trazado 171278" d="M-1212.635,399.329l-172.919,138a178.4,178.4,0,0,0-87.309-55.412l-21.631-21.631-1.475-1.475V314.57l52.43-52.425q6.558,1.282,13.065,2.789a396.524,396.524,0,0,1,79.612,27.657l2.672,1.3a404.574,404.574,0,0,1,86.244,56.126l37.284,37.284Z" transform="translate(2306.322 -25.813)" fill="#0f5c29" opacity="0.3"/>
      <path id="Trazado_171295" data-name="Trazado 171295" d="M-1224.015,378.533l-.648.521-159.262,127.1A196.345,196.345,0,0,0-1494.5,452.04c-.493-.071-.982-.136-1.475-.2V247.167a400.632,400.632,0,0,1,52.43,6.73q6.558,1.282,13.065,2.789a396.528,396.528,0,0,1,79.612,27.657l2.672,1.3a404.573,404.573,0,0,1,86.244,56.126A400.176,400.176,0,0,1-1224.015,378.533Z" transform="translate(2306.322 -17.564)" fill="#f6f6f6"/>
      <path id="Trazado_171296" data-name="Trazado 171296" d="M-1373.1,506.116a205.777,205.777,0,0,0-104.053-50.425V267.41a391.573,391.573,0,0,1,55.131,8.659,388.025,388.025,0,0,1,77.866,27.043l2.627,1.279a398.2,398.2,0,0,1,115.5,84.352Z" transform="translate(2295.963 -28.711)" fill="#fff"/>
      <g id="Grupo_111252" data-name="Grupo 111252">
        <g id="Grupo_111162" data-name="Grupo 111162" transform="translate(-1047.858 -1145.566)">
          <path id="Trazado_171345" data-name="Trazado 171345" d="M1951.813,1453.7c0-1.062.182-1.3,1.205-1.584a39.968,39.968,0,0,1,49.824,29.542,38.6,38.6,0,0,1,1.015,8.583c.009,1.146-.388,1.551-1.54,1.552q-5.741.007-11.482,0c-1.1,0-1.485-.4-1.509-1.515a25.468,25.468,0,0,0-50.306-5.3,26.062,26.062,0,0,0-.632,5.336c-.012,1.063-.416,1.477-1.464,1.479-3.854.008-7.707-.007-11.56.013a1.765,1.765,0,0,1-1.506-.753v-3.594a10.33,10.33,0,0,0,.425-2.639,39.8,39.8,0,0,1,7.915-18.644c.126-.164.25-.329.433-.571l-2.949-.8c-1.847-.5-2.294-2.126-.945-3.486q2.913-2.938,5.852-5.851a1.942,1.942,0,0,1,3.46.931c.269.97.52,1.945.8,2.988a41.327,41.327,0,0,1,7.01-4.5q.591-.3,1.194-.571c.946-.432,1.275-.341,1.912.515a1.344,1.344,0,0,1-.9,1.607c-.613.274-1.208.588-1.838.9,1.535,2.663,3.051,5.265,4.533,7.887.282.5.5.6,1.06.343a27.4,27.4,0,0,1,24.157.023c.482.224.686.181.951-.29,1.324-2.354,2.689-4.685,4.04-7.024.553-.957.555-.961-.443-1.441a37.556,37.556,0,0,0-26.864-2.467A1.388,1.388,0,0,1,1951.813,1453.7Zm44.726,35.74c1.406,0,2.812-.024,4.217.012.557.014.766-.086.725-.718a38.209,38.209,0,0,0-3.874-14.755,37.631,37.631,0,0,0-13.508-15.119c-.377-.244-.589-.359-.88.16-1.411,2.516-2.864,5.009-4.324,7.5-.237.4-.2.592.21.85a24.587,24.587,0,0,1,4.136,3.312,27.853,27.853,0,0,1,8.385,18.137c.042.523.208.643.694.633C1993.728,1489.422,1995.134,1489.441,1996.54,1489.441Zm-65.395.009c1.432,0,2.864-.017,4.3.01.458.009.625-.1.655-.592a26.627,26.627,0,0,1,1.274-6.724,27.8,27.8,0,0,1,11.129-14.712c.311-.209.684-.317.356-.87-1.5-2.526-2.954-5.077-4.408-7.629-.213-.374-.394-.362-.719-.15a47.5,47.5,0,0,0-3.85,2.793.644.644,0,0,0-.24.8c.214.722.421,1.447.592,2.18a1.919,1.919,0,0,1-2.422,2.426c-.708-.162-1.408-.365-2.1-.575a.755.755,0,0,0-.933.289,37.741,37.741,0,0,0-8.541,22.178c-.025.439.081.6.542.587C1928.229,1489.434,1929.687,1489.45,1931.145,1489.45Zm6.64-24.915-1.8-6.7-4.955,4.892Z" fill="#040404"/>
          <path id="Trazado_171346" data-name="Trazado 171346" d="M2036.536,1462.516a1.388,1.388,0,0,0,1.84.665,37.556,37.556,0,0,1,26.864,2.467c1,.479,1,.483.443,1.441-1.351,2.339-2.715,4.67-4.04,7.024-.265.471-.469.515-.951.29a27.4,27.4,0,0,0-24.157-.023c-.559.26-.778.155-1.06-.343-1.482-2.621-3-5.224-4.533-7.887.629-.309,1.225-.623,1.838-.9a1.344,1.344,0,0,0,.9-1.607A16.335,16.335,0,0,1,2036.536,1462.516Z" transform="translate(-84.723 -8.815)" fill="#ffecb3"/>
          <path id="Trazado_171347" data-name="Trazado 171347" d="M2049.22,1578.739a1.3,1.3,0,0,1-1.471,1.18q-14.056-.009-28.113-.011a2.785,2.785,0,0,1-2.481-4.333q8.8-15.29,17.643-30.56c1.281-2.214,3.831-2.114,5.155.178q7.986,13.829,15.965,27.662c.532.922,1.077,1.837,1.587,2.771a2.8,2.8,0,0,1-2.493,4.287c-.416.009-.833-.009-1.249,0a1.286,1.286,0,0,1-1.472-1.178,1.251,1.251,0,0,1,1.464-1.172c.259.015.52,0,.781,0,1.167,0,1.283-.2.707-1.192q-7.753-13.43-15.509-26.859c-.637-1.1-1.263-2.21-1.917-3.3q-.494-.826-.977-.039c-.351.573-.651,1.177-.973,1.768-.2.3-.4.6-.583.915q-4.488,7.763-8.968,15.531-3.211,5.572-6.406,11.155c-.241.4-.491.791-.723,1.2-.3.525-.088.781.466.825.207.017.416,0,.625,0q13.662,0,27.324,0C2048.7,1577.57,2048.948,1577.752,2049.22,1578.739Z" transform="translate(-73.458 -73.411)" fill="#040404"/>
          <path id="Trazado_171348" data-name="Trazado 171348" d="M2044.759,1556.958c.322-.591.622-1.195.973-1.768q.483-.788.977.039c.653,1.092,1.28,2.2,1.917,3.3q7.755,13.429,15.509,26.859c.576,1,.459,1.19-.707,1.192-.26,0-.521.013-.781,0a1.251,1.251,0,0,0-1.463,1.172h-3.072c-.272-.987-.518-1.169-1.618-1.169q-13.662,0-27.324,0c-.208,0-.417.013-.624,0-.554-.045-.767-.3-.466-.826.232-.4.481-.8.723-1.2q8.292.009,16.584.014a2.812,2.812,0,0,0,.526-.1h.593a1.362,1.362,0,0,0,.762.1c1.718,0,3.436,0,5.154,0a4.387,4.387,0,0,0,4.019-2.349,4.56,4.56,0,0,0-.036-4.875c-1.33-2.29-2.619-4.6-3.974-6.879a51.582,51.582,0,0,0-2.8-4.665,3.711,3.711,0,0,0-2-3.414,5.252,5.252,0,0,0-.62-1.319A38.3,38.3,0,0,1,2044.759,1556.958Z" transform="translate(-82.349 -82.425)" fill="#c99a28"/>
          <path id="Trazado_171349" data-name="Trazado 171349" d="M2251.333,1663.617a5.7,5.7,0,1,1-5.724,5.683A5.7,5.7,0,0,1,2251.333,1663.617Zm-.005,2.347a3.342,3.342,0,0,0-3.372,3.283,3.354,3.354,0,1,0,6.707.041A3.349,3.349,0,0,0,2251.327,1665.964Z" transform="translate(-254.561 -168.514)" fill="#040404"/>
          <path id="Trazado_171350" data-name="Trazado 171350" d="M1934.237,1665.271c-.1-1.093.255-1.542,1.326-1.681a5.708,5.708,0,1,1-4.955,5.237c.081-1.051.483-1.419,1.538-1.4.785.3.844.924.815,1.656a3.345,3.345,0,0,0,3.819,3.488,3.38,3.38,0,0,0,2.86-3.675,3.321,3.321,0,0,0-3.57-2.969C1935.339,1665.967,1934.664,1666.012,1934.237,1665.271Z" transform="translate(-5.328 -168.455)" fill="#040404"/>
          <path id="Trazado_171351" data-name="Trazado 171351" d="M1940.126,1671.819c.427.741,1.1.7,1.833.652a3.321,3.321,0,0,1,3.57,2.969,3.38,3.38,0,0,1-2.86,3.675,3.345,3.345,0,0,1-3.819-3.488c.03-.732-.03-1.355-.815-1.656A4.324,4.324,0,0,1,1940.126,1671.819Z" transform="translate(-11.217 -175.003)" fill="#28c65d"/>
          <path id="Trazado_171352" data-name="Trazado 171352" d="M2204.513,1519.861c-1.406,0-2.812-.019-4.217.01-.487.01-.653-.11-.694-.633a27.852,27.852,0,0,0-8.385-18.137,24.588,24.588,0,0,0-4.136-3.312c-.407-.258-.447-.447-.21-.85,1.46-2.489,2.913-4.981,4.324-7.5.291-.519.5-.4.88-.16a37.63,37.63,0,0,1,13.508,15.119,38.211,38.211,0,0,1,3.874,14.755c.04.632-.168.732-.726.718C2207.325,1519.837,2205.919,1519.861,2204.513,1519.861Z" transform="translate(-207.973 -30.42)" fill="#c99a28"/>
          <path id="Trazado_171353" data-name="Trazado 171353" d="M1940.118,1519.8c-1.458,0-2.916-.016-4.373.009-.461.008-.567-.148-.542-.587a37.741,37.741,0,0,1,8.541-22.178.755.755,0,0,1,.933-.289c.7.21,1.4.413,2.1.575a1.919,1.919,0,0,0,2.422-2.425c-.17-.733-.377-1.459-.592-2.18a.644.644,0,0,1,.24-.8,47.5,47.5,0,0,1,3.85-2.793c.324-.211.506-.224.719.15,1.454,2.552,2.91,5.1,4.408,7.629.328.553-.045.661-.356.87a27.8,27.8,0,0,0-11.129,14.712,26.627,26.627,0,0,0-1.274,6.724c-.031.489-.2.6-.655.592C1942.982,1519.782,1941.55,1519.8,1940.118,1519.8Z" transform="translate(-8.973 -30.35)" fill="#28c65d"/>
          <path id="Trazado_171354" data-name="Trazado 171354" d="M1964.961,1491.863l-6.754-1.805,4.955-4.892Z" transform="translate(-27.176 -27.327)" fill="#ffecb3"/>
          <path id="Trazado_171355" data-name="Trazado 171355" d="M2048.015,1565.112a38.316,38.316,0,0,0,2.25,4.117,5.254,5.254,0,0,1,.619,1.319,3.449,3.449,0,0,0-4.808,3.439c.166,2.359.277,4.722.411,7.084a2.978,2.978,0,0,0,5.953.022c.063-1.116.069-2.238.19-3.347a37.019,37.019,0,0,1,.257-3.784,51.57,51.57,0,0,1,2.8,4.665c1.354,2.275,2.644,4.589,3.973,6.879a4.561,4.561,0,0,1,.037,4.875,4.388,4.388,0,0,1-4.019,2.349c-1.718,0-3.436,0-5.154,0a1.361,1.361,0,0,1-.762-.1,8.173,8.173,0,0,0,.9-.223,3.46,3.46,0,1,0-2.774-6.327,3.471,3.471,0,0,0,1.277,6.55,2.809,2.809,0,0,1-.526.1q-8.292,0-16.584-.014,3.2-5.578,6.406-11.155,4.477-7.77,8.968-15.531C2047.612,1565.714,2047.82,1565.417,2048.015,1565.112Z" transform="translate(-85.605 -90.579)" fill="#c99a28"/>
          <path id="Trazado_171356" data-name="Trazado 171356" d="M2105.967,1593.579a37.019,37.019,0,0,0-.257,3.784c-.121,1.109-.127,2.231-.19,3.347a2.978,2.978,0,0,1-5.953-.022c-.133-2.361-.245-4.724-.411-7.084a3.449,3.449,0,0,1,4.808-3.439A3.711,3.711,0,0,1,2105.967,1593.579Zm-4.236,3.321c.067,1.167.143,2.333.195,3.5.019.441.141.814.632.8s.584-.4.607-.831c.117-2.282.256-4.563.379-6.845.04-.748-.348-1.229-.975-1.245-.659-.017-1.063.482-1.022,1.272C2101.6,1594.67,2101.668,1595.785,2101.73,1596.9Z" transform="translate(-138.684 -110.196)" fill="#040404"/>
          <path id="Trazado_171357" data-name="Trazado 171357" d="M2101.992,1670.611a3.471,3.471,0,0,1-1.278-6.55,3.46,3.46,0,1,1,2.774,6.327,8.16,8.16,0,0,1-.9.223Zm.327-4.555a1.1,1.1,0,0,0-1.107,1.058,1.078,1.078,0,0,0,2.154.061A1.1,1.1,0,0,0,2102.319,1666.056Z" transform="translate(-138.429 -168.563)" fill="#040404"/>
          <path id="Trazado_171358" data-name="Trazado 171358" d="M2260.215,1674.856a3.349,3.349,0,0,1,3.335,3.324,3.354,3.354,0,1,1-6.707-.041A3.342,3.342,0,0,1,2260.215,1674.856Z" transform="translate(-263.45 -177.406)" fill="#c99a28"/>
          <path id="Trazado_171359" data-name="Trazado 171359" d="M2110.808,1605.9c-.062-1.115-.126-2.23-.184-3.345-.041-.791.364-1.289,1.022-1.272.627.016,1.015.5.975,1.245-.123,2.282-.262,4.563-.38,6.845-.022.433-.116.821-.606.831s-.613-.363-.632-.8C2110.952,1608.235,2110.875,1607.068,2110.808,1605.9Z" transform="translate(-147.762 -119.197)" fill="#ffecb3"/>
          <path id="Trazado_171360" data-name="Trazado 171360" d="M2111.361,1675.057a1.1,1.1,0,0,1,1.047,1.118,1.078,1.078,0,0,1-2.154-.061A1.1,1.1,0,0,1,2111.361,1675.057Z" transform="translate(-147.472 -177.565)" fill="#ffecb3"/>
        </g>
      </g>
    </g>
    <path id="Trazado_171593" data-name="Trazado 171593" d="M18.469,10.055h-4.5v3.063H19.25V15H11.625V3.625h7.609v1.9H13.969V8.234h4.5Zm6.586,2.609a.727.727,0,0,0-.41-.652,4.659,4.659,0,0,0-1.316-.426q-3.016-.633-3.016-2.562a2.323,2.323,0,0,1,.934-1.879,3.766,3.766,0,0,1,2.441-.754,4.053,4.053,0,0,1,2.574.758,2.388,2.388,0,0,1,.965,1.969H24.969a1.092,1.092,0,0,0-.312-.8A1.322,1.322,0,0,0,23.68,8a1.351,1.351,0,0,0-.883.258.814.814,0,0,0-.312.656.7.7,0,0,0,.355.605,3.657,3.657,0,0,0,1.2.4,9.8,9.8,0,0,1,1.422.379A2.336,2.336,0,0,1,27.25,12.57a2.2,2.2,0,0,1-.992,1.871,4.28,4.28,0,0,1-2.562.715,4.47,4.47,0,0,1-1.887-.379,3.166,3.166,0,0,1-1.293-1.039,2.414,2.414,0,0,1-.469-1.426h2.141a1.179,1.179,0,0,0,.445.922,1.766,1.766,0,0,0,1.109.32,1.635,1.635,0,0,0,.98-.246A.766.766,0,0,0,25.055,12.664Zm6.352-8.2V6.547h1.445V8.2H31.406v4.219a1.007,1.007,0,0,0,.18.672.9.9,0,0,0,.688.2,3.6,3.6,0,0,0,.664-.055v1.711a4.648,4.648,0,0,1-1.367.2,2.156,2.156,0,0,1-2.422-2.4V8.2H27.914V6.547h1.234V4.469ZM36.492,15H34.227V6.547h2.266Zm-2.4-10.641a1.112,1.112,0,0,1,.34-.836,1.465,1.465,0,0,1,1.848,0,1.105,1.105,0,0,1,.344.836,1.108,1.108,0,0,1-.348.844,1.448,1.448,0,0,1-1.836,0A1.108,1.108,0,0,1,34.094,4.359Zm6.375,2.188.07.945a2.971,2.971,0,0,1,2.43-1.1A2.255,2.255,0,0,1,45.211,7.68,2.9,2.9,0,0,1,47.75,6.391a2.521,2.521,0,0,1,2.047.8,3.681,3.681,0,0,1,.672,2.41V15H48.2V9.6a1.616,1.616,0,0,0-.281-1.053,1.245,1.245,0,0,0-.992-.333,1.409,1.409,0,0,0-1.406.971L45.531,15H43.273V9.6a1.6,1.6,0,0,0-.289-1.065A1.257,1.257,0,0,0,42,8.211a1.463,1.463,0,0,0-1.391.8V15H38.352V6.547ZM57.1,15a2.507,2.507,0,0,1-.227-.758,2.732,2.732,0,0,1-2.133.914,3,3,0,0,1-2.059-.719,2.312,2.312,0,0,1-.816-1.812,2.389,2.389,0,0,1,1-2.062,4.915,4.915,0,0,1,2.879-.727h1.039V9.352a1.393,1.393,0,0,0-.3-.937,1.183,1.183,0,0,0-.949-.352,1.345,1.345,0,0,0-.895.273.929.929,0,0,0-.324.75H52.055a2.268,2.268,0,0,1,.453-1.359,3,3,0,0,1,1.281-.98,4.669,4.669,0,0,1,1.859-.355,3.689,3.689,0,0,1,2.48.785,2.747,2.747,0,0,1,.918,2.207v3.664a4.041,4.041,0,0,0,.336,1.82V15Zm-1.867-1.57a1.945,1.945,0,0,0,.922-.223,1.462,1.462,0,0,0,.625-.6V11.156h-.844q-1.7,0-1.8,1.172l-.008.133a.9.9,0,0,0,.3.7A1.153,1.153,0,0,0,55.234,13.43Zm10.3-4.766a6.134,6.134,0,0,0-.812-.062,1.654,1.654,0,0,0-1.68.867V15H60.781V6.547h2.133l.063,1.008a2.092,2.092,0,0,1,1.883-1.164,2.366,2.366,0,0,1,.7.1Zm8.961,6.492a4.15,4.15,0,0,1-3.027-1.141A4.054,4.054,0,0,1,70.3,10.977v-.219a5.106,5.106,0,0,1,.492-2.277,3.612,3.612,0,0,1,1.395-1.547,3.914,3.914,0,0,1,2.059-.543,3.508,3.508,0,0,1,2.73,1.094,4.444,4.444,0,0,1,1,3.1v.922H72.586a2.1,2.1,0,0,0,.66,1.328,2,2,0,0,0,1.395.5,2.437,2.437,0,0,0,2.039-.945l1.109,1.242a3.389,3.389,0,0,1-1.375,1.121A4.511,4.511,0,0,1,74.492,15.156Zm-.258-6.945a1.411,1.411,0,0,0-1.09.455,2.357,2.357,0,0,0-.535,1.3H75.75V9.788a1.681,1.681,0,0,0-.406-1.165A1.456,1.456,0,0,0,74.234,8.211ZM81.633,15H79.367V3h2.266ZM92.227,8.664a6.134,6.134,0,0,0-.812-.062,1.654,1.654,0,0,0-1.68.867V15H87.477V6.547h2.133l.063,1.008a2.092,2.092,0,0,1,1.883-1.164,2.366,2.366,0,0,1,.7.1ZM95.7,15H93.43V6.547H95.7ZM93.3,4.359a1.112,1.112,0,0,1,.34-.836,1.465,1.465,0,0,1,1.848,0,1.105,1.105,0,0,1,.344.836,1.108,1.108,0,0,1-.348.844,1.448,1.448,0,0,1-1.836,0A1.108,1.108,0,0,1,93.3,4.359Zm8.148,10.8a4.15,4.15,0,0,1-3.027-1.141,4.054,4.054,0,0,1-1.168-3.039v-.219a5.106,5.106,0,0,1,.492-2.277,3.612,3.612,0,0,1,1.395-1.547,3.914,3.914,0,0,1,2.059-.543,3.508,3.508,0,0,1,2.73,1.094,4.444,4.444,0,0,1,1,3.1v.922H99.539a2.1,2.1,0,0,0,.66,1.328,2,2,0,0,0,1.395.5,2.437,2.437,0,0,0,2.039-.945l1.109,1.242a3.389,3.389,0,0,1-1.375,1.121A4.511,4.511,0,0,1,101.445,15.156Zm-.258-6.945a1.411,1.411,0,0,0-1.09.455,2.357,2.357,0,0,0-.535,1.3H102.7V9.788a1.681,1.681,0,0,0-.406-1.165A1.456,1.456,0,0,0,101.188,8.211Zm9.594,4.453a.727.727,0,0,0-.41-.652,4.659,4.659,0,0,0-1.316-.426q-3.016-.633-3.016-2.562a2.323,2.323,0,0,1,.934-1.879,3.766,3.766,0,0,1,2.441-.754,4.053,4.053,0,0,1,2.574.758,2.388,2.388,0,0,1,.965,1.969H110.7a1.092,1.092,0,0,0-.312-.8A1.322,1.322,0,0,0,109.406,8a1.351,1.351,0,0,0-.883.258.814.814,0,0,0-.312.656.7.7,0,0,0,.355.605,3.657,3.657,0,0,0,1.2.4,9.8,9.8,0,0,1,1.422.379,2.336,2.336,0,0,1,1.789,2.273,2.2,2.2,0,0,1-.992,1.871,4.28,4.28,0,0,1-2.562.715,4.47,4.47,0,0,1-1.887-.379,3.166,3.166,0,0,1-1.293-1.039,2.414,2.414,0,0,1-.469-1.426h2.141a1.179,1.179,0,0,0,.445.922,1.766,1.766,0,0,0,1.109.32,1.635,1.635,0,0,0,.98-.246A.766.766,0,0,0,110.781,12.664Zm3.32-1.953a4.954,4.954,0,0,1,.926-3.133,3,3,0,0,1,2.5-1.187,2.631,2.631,0,0,1,2.164.953l.094-.8h2.047v8.172a3.613,3.613,0,0,1-.5,1.93,3.236,3.236,0,0,1-1.418,1.25,4.985,4.985,0,0,1-2.141.43,4.635,4.635,0,0,1-1.812-.371A3.217,3.217,0,0,1,114.617,17l1-1.375a2.645,2.645,0,0,0,2.047.945,1.936,1.936,0,0,0,1.4-.48,1.8,1.8,0,0,0,.5-1.363v-.453a2.612,2.612,0,0,1-2.055.883,2.992,2.992,0,0,1-2.465-1.191,4.953,4.953,0,0,1-.941-3.16Zm2.258.161a3.1,3.1,0,0,0,.461,1.809,1.465,1.465,0,0,0,1.266.655,1.567,1.567,0,0,0,1.477-.777V8.988a1.563,1.563,0,0,0-1.461-.777,1.474,1.474,0,0,0-1.277.667A3.5,3.5,0,0,0,116.359,10.872Zm6.852-.176a5.013,5.013,0,0,1,.484-2.242A3.546,3.546,0,0,1,125.09,6.93a4.069,4.069,0,0,1,2.113-.539A3.849,3.849,0,0,1,130,7.438a4.2,4.2,0,0,1,1.207,2.844l.016.578a4.418,4.418,0,0,1-1.086,3.121,4.209,4.209,0,0,1-5.832,0,4.5,4.5,0,0,1-1.09-3.187Zm2.258.16a3.16,3.16,0,0,0,.453,1.843,1.628,1.628,0,0,0,2.578.008,3.457,3.457,0,0,0,.461-2.015A3.128,3.128,0,0,0,128.5,8.86a1.5,1.5,0,0,0-1.3-.649,1.474,1.474,0,0,0-1.281.646A3.516,3.516,0,0,0,125.469,10.856Zm7.258,3.035a1.137,1.137,0,0,1,.363-.875,1.412,1.412,0,0,1,1.828,0,1.137,1.137,0,0,1,.363.875,1.121,1.121,0,0,1-.359.863,1.435,1.435,0,0,1-1.836,0A1.121,1.121,0,0,1,132.727,13.891Z" transform="translate(842 378)" fill="#12263f"/>
  </g>
</svg>
