<svg xmlns="http://www.w3.org/2000/svg" width="347.609" height="252.664" viewBox="0 0 347.609 252.664">
  <g id="Grupo_111252" data-name="Grupo 111252" transform="translate(-611.054 -4082.566)">
    <path id="Trazado_171283" data-name="Trazado 171283" d="M-1591.912,1712.3a421.2,421.2,0,0,1-79.668,27.394,410.247,410.247,0,0,1-93.485,10.82h-.357a409.071,409.071,0,0,1-93.95-10.98q-12.673-2.994-25.2-6.805a423.222,423.222,0,0,1-54.952-20.987l11.032-22.928,91.879-190.962a177.86,177.86,0,0,0,71.662,14.972,178.566,178.566,0,0,0,47.222-6.317,176.775,176.775,0,0,0,22.956-8.012l28.709,59.677Z" transform="translate(2550.575 2584.715)" fill="#28c65d"/>
    <path id="Trazado_171284" data-name="Trazado 171284" d="M-1562.864,1738.562a421.2,421.2,0,0,1-79.668,27.394,410.252,410.252,0,0,1-93.485,10.82h-.357a409.063,409.063,0,0,1-93.95-10.98q-12.673-2.994-25.2-6.805l-27.605-27.6-3.645-3.649,87.662-182.2a194.267,194.267,0,0,0,63.208,10.449,194.665,194.665,0,0,0,60.8-9.641l1.93,1.93,36.152,36.153Z" transform="translate(2521.526 2558.453)" fill="#0f5c29" opacity="0.3"/>
    <path id="Trazado_171289" data-name="Trazado 171289" d="M-1586.786,1730.062a403.5,403.5,0,0,1-60.672,19.433,393.309,393.309,0,0,1-89.63,10.375h-.357a392.216,392.216,0,0,1-90.061-10.525,402.531,402.531,0,0,1-56.689-17.954q-2.261-.9-4.518-1.836l.873-1.813,87.662-182.2a194.268,194.268,0,0,0,63.208,10.449,194.665,194.665,0,0,0,60.8-9.641c.286-.094.577-.193.864-.287l1.066,2.217Z" transform="translate(2522.597 2558.453)" fill="#f6f6f6"/>
    <path id="Trazado_171290" data-name="Trazado 171290" d="M-1723.305,1764.042a383.613,383.613,0,0,1-88.118-10.3,393.991,393.991,0,0,1-51.615-16.046l81.421-169.225a203.437,203.437,0,0,0,58.785,8.6,203.623,203.623,0,0,0,57.214-8.136l81.419,169.238a394.072,394.072,0,0,1-51.051,15.718,384.846,384.846,0,0,1-87.7,10.152Z" transform="translate(2508.458 2545.827)" fill="#fff"/>
    <path id="Trazado_171596" data-name="Trazado 171596" d="M19.227,12.656H15.117L14.336,15H11.844L16.078,3.625H18.25L22.508,15H20.016Zm-3.477-1.9h2.844L17.164,6.5Zm14.906.094a5.07,5.07,0,0,1-.887,3.129,2.843,2.843,0,0,1-2.395,1.176,2.633,2.633,0,0,1-2.07-.891V18.25H23.047V6.547h2.094l.078.828a2.654,2.654,0,0,1,2.141-.984,2.862,2.862,0,0,1,2.43,1.156,5.207,5.207,0,0,1,.867,3.188ZM28.4,10.679a3.345,3.345,0,0,0-.418-1.826,1.36,1.36,0,0,0-1.215-.643,1.478,1.478,0,0,0-1.461.815V12.5a1.5,1.5,0,0,0,1.477.839Q28.4,13.336,28.4,10.679ZM36.8,8.664a6.134,6.134,0,0,0-.812-.062,1.654,1.654,0,0,0-1.68.867V15H32.055V6.547h2.133l.063,1.008a2.092,2.092,0,0,1,1.883-1.164,2.366,2.366,0,0,1,.7.1Zm.453,2.031a5.013,5.013,0,0,1,.484-2.242A3.546,3.546,0,0,1,39.137,6.93a4.069,4.069,0,0,1,2.113-.539,3.849,3.849,0,0,1,2.793,1.047,4.2,4.2,0,0,1,1.207,2.844l.016.578A4.418,4.418,0,0,1,44.18,13.98a4.209,4.209,0,0,1-5.832,0,4.5,4.5,0,0,1-1.09-3.187Zm2.258.16a3.16,3.16,0,0,0,.453,1.843,1.628,1.628,0,0,0,2.578.008,3.457,3.457,0,0,0,.461-2.015,3.128,3.128,0,0,0-.461-1.831,1.5,1.5,0,0,0-1.3-.649,1.474,1.474,0,0,0-1.281.646A3.516,3.516,0,0,0,39.516,10.856Zm14.758,0a5.119,5.119,0,0,1-.867,3.168,2.872,2.872,0,0,1-2.422,1.137,2.639,2.639,0,0,1-2.2-1.055l-.1.9H46.656V3h2.258V7.3a2.571,2.571,0,0,1,2.055-.914,2.9,2.9,0,0,1,2.426,1.137,5.126,5.126,0,0,1,.879,3.2Zm-2.258-.172A3.381,3.381,0,0,0,51.609,8.8,1.372,1.372,0,0,0,50.4,8.211a1.489,1.489,0,0,0-1.484.885v3.346a1.509,1.509,0,0,0,1.5.893,1.4,1.4,0,0,0,1.438-1.081A5.6,5.6,0,0,0,52.016,10.679ZM60.563,15a2.507,2.507,0,0,1-.227-.758,2.732,2.732,0,0,1-2.133.914,3,3,0,0,1-2.059-.719,2.312,2.312,0,0,1-.816-1.812,2.389,2.389,0,0,1,1-2.062A4.915,4.915,0,0,1,59.2,9.836h1.039V9.352a1.393,1.393,0,0,0-.3-.937,1.183,1.183,0,0,0-.949-.352,1.345,1.345,0,0,0-.895.273.929.929,0,0,0-.324.75H55.516a2.268,2.268,0,0,1,.453-1.359,3,3,0,0,1,1.281-.98,4.669,4.669,0,0,1,1.859-.355,3.689,3.689,0,0,1,2.48.785,2.747,2.747,0,0,1,.918,2.207v3.664a4.041,4.041,0,0,0,.336,1.82V15ZM58.7,13.43a1.945,1.945,0,0,0,.922-.223,1.462,1.462,0,0,0,.625-.6V11.156H59.4q-1.7,0-1.8,1.172l-.008.133a.9.9,0,0,0,.3.7A1.153,1.153,0,0,0,58.7,13.43Zm10.3-4.766A6.134,6.134,0,0,0,68.18,8.6a1.654,1.654,0,0,0-1.68.867V15H64.242V6.547h2.133l.063,1.008A2.092,2.092,0,0,1,68.32,6.391a2.366,2.366,0,0,1,.7.1Z" transform="translate(745.25 4250)" fill="#12263f"/>
    <path id="Trazado_171396" data-name="Trazado 171396" d="M-3649.325,2006.622a39.958,39.958,0,0,1-39.962-40.046,39.949,39.949,0,0,1,40.154-39.954,39.95,39.95,0,0,1,39.853,40.146A39.961,39.961,0,0,1-3649.325,2006.622Zm-33.293-40.117a33.27,33.27,0,0,0,33.142,33.429,33.188,33.188,0,0,0,33.507-33.144,33.213,33.213,0,0,0-33.17-33.488A33.324,33.324,0,0,0-3682.618,1966.5Z" transform="translate(4435.536 2229.421)"/>
    <path id="Trazado_171397" data-name="Trazado 171397" d="M-3665.337,1983.814a33.324,33.324,0,0,1,33.479-33.2,33.213,33.213,0,0,1,33.17,33.488,33.188,33.188,0,0,1-33.507,33.144A33.27,33.27,0,0,1-3665.337,1983.814Zm27.008,17.812c.4-.047.563-.347.762-.571q2.52-2.838,5.02-5.693,7.014-8.021,14.02-16.05,2.564-2.936,5.124-5.876c.318-.364.581-.692.07-1.127q-1.979-1.684-3.922-3.41c-.412-.366-.7-.414-1.1.047q-4.494,5.186-9.024,10.34c-3.719,4.252-7.451,8.492-11.146,12.765-.518.6-.847.542-1.424.1-3.056-2.337-6.16-4.613-9.212-6.956-.672-.516-1.041-.406-1.491.231a40.622,40.622,0,0,1-2.682,3.572c-.708.8-.412,1.155.276,1.666q7.051,5.242,14.07,10.529C-3638.771,2001.36-3638.53,2001.5-3638.329,2001.626Z" transform="translate(4418.254 2212.111)" fill="#28c65d"/>
    <path id="Trazado_171398" data-name="Trazado 171398" d="M-3608.281,2048.28c-.2-.13-.442-.266-.66-.429q-7.033-5.267-14.07-10.529c-.688-.511-.984-.867-.276-1.667a40.6,40.6,0,0,0,2.682-3.572c.449-.637.819-.747,1.491-.231,3.052,2.343,6.156,4.619,9.212,6.956.577.441.906.5,1.424-.1,3.695-4.273,7.427-8.513,11.146-12.765q4.518-5.165,9.024-10.34c.4-.46.688-.413,1.1-.047q1.942,1.727,3.922,3.41c.511.435.248.763-.07,1.127q-2.565,2.935-5.124,5.875-7.008,8.027-14.02,16.05-2.5,2.857-5.02,5.693C-3607.718,2047.933-3607.877,2048.232-3608.281,2048.28Z" transform="translate(4388.207 2165.457)"/>
  </g>
</svg>
