<svg xmlns="http://www.w3.org/2000/svg" width="271.782" height="339.005" viewBox="0 0 271.782 339.005">
  <g id="Grupo_111255" data-name="Grupo 111255" transform="translate(-370.001 -6128.32)">
    <g id="Grupo_111254" data-name="Grupo 111254">
      <g id="Grupo_111253" data-name="Grupo 111253">
        <path id="Trazado_171418" data-name="Trazado 171418" d="M-3125.895,1608.543a11.375,11.375,0,0,1,11.373,11.439,11.432,11.432,0,0,1-11.46,11.379,11.484,11.484,0,0,1-11.358-11.427A11.425,11.425,0,0,1-3125.895,1608.543Zm0,19.294a7.992,7.992,0,0,0,7.9-7.9,8.041,8.041,0,0,0-7.981-7.92,7.991,7.991,0,0,0-7.841,7.96A7.938,7.938,0,0,0-3125.9,1627.836Z" transform="translate(3632.258 4682.463)" fill="#28c65d"/>
        <path id="Trazado_171419" data-name="Trazado 171419" d="M-3200.731,1624.063a15.843,15.843,0,0,0-2.661,5.912,14.453,14.453,0,0,0,2.328,11.279q.151.224.295.453c.012.019,0,.051,0,.078-.184.17-.335.013-.49-.056a32.465,32.465,0,0,1-10.426-7.383,1.9,1.9,0,0,1,0-2.85,32.2,32.2,0,0,1,10.859-7.558A.474.474,0,0,0-3200.731,1624.063Z" transform="translate(3695.497 4669.479)" fill="#fffae8"/>
        <path id="Trazado_171420" data-name="Trazado 171420" d="M-2991.181,1623.67a6.6,6.6,0,0,1,1.683.686,34.361,34.361,0,0,1,9.312,6.863,1.923,1.923,0,0,1,.1,2.848,33.236,33.236,0,0,1-10.418,7.417c-.182.081-.357.242-.574.107Q-2985.058,1632.6-2991.181,1623.67Z" transform="translate(3508.988 4669.705)" fill="#d3ecf8"/>
        <g id="Grupo_111252" data-name="Grupo 111252">
          <g id="Grupo_111251" data-name="Grupo 111251">
            <path id="Trazado_171273" data-name="Trazado 171273" d="M-2215.447,734.617A177.635,177.635,0,0,0-2238.835,823a179.039,179.039,0,0,0,2.949,32.466l-202.7,46.263-28.559,6.519a413.561,413.561,0,0,1-6.528-41.6,419.215,419.215,0,0,1-2.33-44.136,418.031,418.031,0,0,1,10.163-91.734,413.193,413.193,0,0,1,30.146-87.027q.416-.874.836-1.747a416.647,416.647,0,0,1,44.911-72.756l16,12.76,29.061,23.172,140.669,112.181A178.028,178.028,0,0,0-2215.447,734.617Z" transform="translate(2846.001 5559.075)" fill="#28c65d"/>
            <path id="Trazado_171274" data-name="Trazado 171274" d="M-2218.115,853.38a179.04,179.04,0,0,0,2.949,32.466l-202.7,46.263-14.118-14.117-1.31-1.31a402.765,402.765,0,0,1-5.082-63.8,401.006,401.006,0,0,1,9.75-88.019,396.185,396.185,0,0,1,29.714-85.135,398.627,398.627,0,0,1,29.794-51.462l3.861-3.861,147.85,117.906,22.679,22.678A177.638,177.638,0,0,0-2218.115,853.38Z" transform="translate(2825.28 5528.697)" fill="#0f5c29" opacity="0.3"/>
            <path id="Trazado_171291" data-name="Trazado 171291" d="M-2207.083,751.891a193.727,193.727,0,0,0-27.938,100.741c0,6.495.319,12.99.958,19.438l-197.918,45.174-1.057.24-.253-1.55a402.764,402.764,0,0,1-5.082-63.8,401.007,401.007,0,0,1,9.75-88.019,396.187,396.187,0,0,1,29.714-85.135,398.617,398.617,0,0,1,29.794-51.462q1.522-2.248,3.09-4.471l.77.611,147.85,117.907,11.177,8.913Q-2206.658,751.186-2207.083,751.891Z" transform="translate(2825.28 5529.445)" fill="#f6f6f6"/>
            <path id="Trazado_171292" data-name="Trazado 171292" d="M-2415.7,922.26a395.474,395.474,0,0,1-3.863-55.08,392.635,392.635,0,0,1,9.543-86.16,387.866,387.866,0,0,1,29.078-83.319,391.33,391.33,0,0,1,27.107-47.335l146.948,117.188a203.242,203.242,0,0,0-26.231,100.119c0,4.26.135,8.55.4,12.824Z" transform="translate(2814.92 5514.404)" fill="#fff"/>
            <path id="Trazado_171593" data-name="Trazado 171593" d="M17.363,15H15.02V10.125h-4.57V15H8.105V3.625h2.344V8.234h4.57V3.625h2.344Zm6.8,0a2.507,2.507,0,0,1-.227-.758,2.732,2.732,0,0,1-2.133.914,3,3,0,0,1-2.059-.719,2.312,2.312,0,0,1-.816-1.812,2.389,2.389,0,0,1,1-2.062A4.915,4.915,0,0,1,22.8,9.836H23.84V9.352a1.393,1.393,0,0,0-.3-.937,1.183,1.183,0,0,0-.949-.352,1.345,1.345,0,0,0-.895.273.929.929,0,0,0-.324.75H19.113a2.268,2.268,0,0,1,.453-1.359,3,3,0,0,1,1.281-.98,4.669,4.669,0,0,1,1.859-.355,3.689,3.689,0,0,1,2.48.785,2.747,2.747,0,0,1,.918,2.207v3.664a4.041,4.041,0,0,0,.336,1.82V15Zm-1.867-1.57a1.945,1.945,0,0,0,.922-.223,1.462,1.462,0,0,0,.625-.6V11.156H23q-1.7,0-1.8,1.172l-.008.133a.9.9,0,0,0,.3.7A1.153,1.153,0,0,0,22.293,13.43Zm9.063-.094a1.481,1.481,0,0,0,1.016-.344,1.2,1.2,0,0,0,.406-.914h2.117a2.9,2.9,0,0,1-.469,1.574,3.093,3.093,0,0,1-1.262,1.109,3.949,3.949,0,0,1-1.77.395A3.67,3.67,0,0,1,28.535,14a4.56,4.56,0,0,1-1.047-3.184v-.148a4.508,4.508,0,0,1,1.039-3.117,3.627,3.627,0,0,1,2.852-1.164,3.555,3.555,0,0,1,2.543.9,3.2,3.2,0,0,1,.973,2.4H32.777a1.551,1.551,0,0,0-.406-1.072,1.51,1.51,0,0,0-2.223.163,3.333,3.333,0,0,0-.4,1.866v.235a3.375,3.375,0,0,0,.4,1.878A1.377,1.377,0,0,0,31.355,13.336Zm8.719,1.82a4.15,4.15,0,0,1-3.027-1.141,4.054,4.054,0,0,1-1.168-3.039v-.219a5.106,5.106,0,0,1,.492-2.277,3.612,3.612,0,0,1,1.395-1.547,3.914,3.914,0,0,1,2.059-.543,3.508,3.508,0,0,1,2.73,1.094,4.444,4.444,0,0,1,1,3.1v.922H38.168a2.1,2.1,0,0,0,.66,1.328,2,2,0,0,0,1.395.5,2.437,2.437,0,0,0,2.039-.945l1.109,1.242A3.389,3.389,0,0,1,42,14.754,4.511,4.511,0,0,1,40.074,15.156Zm-.258-6.945a1.411,1.411,0,0,0-1.09.455,2.357,2.357,0,0,0-.535,1.3h3.141V9.788a1.681,1.681,0,0,0-.406-1.165A1.456,1.456,0,0,0,39.816,8.211Zm9.766.453A6.134,6.134,0,0,0,48.77,8.6a1.654,1.654,0,0,0-1.68.867V15H44.832V6.547h2.133l.063,1.008A2.092,2.092,0,0,1,48.91,6.391a2.366,2.366,0,0,1,.7.1Zm9.648,4a.727.727,0,0,0-.41-.652,4.659,4.659,0,0,0-1.316-.426q-3.016-.633-3.016-2.562a2.323,2.323,0,0,1,.934-1.879,3.766,3.766,0,0,1,2.441-.754,4.053,4.053,0,0,1,2.574.758A2.388,2.388,0,0,1,61.4,9.117H59.145a1.092,1.092,0,0,0-.312-.8A1.322,1.322,0,0,0,57.855,8a1.351,1.351,0,0,0-.883.258.814.814,0,0,0-.312.656.7.7,0,0,0,.355.605,3.657,3.657,0,0,0,1.2.4,9.8,9.8,0,0,1,1.422.379,2.336,2.336,0,0,1,1.789,2.273,2.2,2.2,0,0,1-.992,1.871,4.28,4.28,0,0,1-2.562.715,4.47,4.47,0,0,1-1.887-.379,3.166,3.166,0,0,1-1.293-1.039,2.414,2.414,0,0,1-.469-1.426h2.141a1.179,1.179,0,0,0,.445.922,1.766,1.766,0,0,0,1.109.32,1.635,1.635,0,0,0,.98-.246A.766.766,0,0,0,59.23,12.664Zm7.539,2.492a4.15,4.15,0,0,1-3.027-1.141,4.054,4.054,0,0,1-1.168-3.039v-.219a5.106,5.106,0,0,1,.492-2.277,3.612,3.612,0,0,1,1.395-1.547,3.914,3.914,0,0,1,2.059-.543,3.508,3.508,0,0,1,2.73,1.094,4.444,4.444,0,0,1,1,3.1v.922H64.863a2.1,2.1,0,0,0,.66,1.328,2,2,0,0,0,1.395.5,2.437,2.437,0,0,0,2.039-.945l1.109,1.242a3.389,3.389,0,0,1-1.375,1.121A4.511,4.511,0,0,1,66.77,15.156Zm-.258-6.945a1.411,1.411,0,0,0-1.09.455,2.357,2.357,0,0,0-.535,1.3h3.141V9.788a1.681,1.681,0,0,0-.406-1.165A1.456,1.456,0,0,0,66.512,8.211Zm4.688,2.5a4.954,4.954,0,0,1,.926-3.133,3,3,0,0,1,2.5-1.187,2.631,2.631,0,0,1,2.164.953l.094-.8h2.047v8.172a3.613,3.613,0,0,1-.5,1.93A3.236,3.236,0,0,1,77,17.9a4.985,4.985,0,0,1-2.141.43,4.635,4.635,0,0,1-1.812-.371A3.217,3.217,0,0,1,71.715,17l1-1.375a2.645,2.645,0,0,0,2.047.945,1.936,1.936,0,0,0,1.4-.48,1.8,1.8,0,0,0,.5-1.363v-.453a2.612,2.612,0,0,1-2.055.883,2.992,2.992,0,0,1-2.465-1.191A4.953,4.953,0,0,1,71.2,10.8Zm2.258.161a3.1,3.1,0,0,0,.461,1.809,1.465,1.465,0,0,0,1.266.655,1.567,1.567,0,0,0,1.477-.777V8.988A1.563,1.563,0,0,0,75.2,8.211a1.474,1.474,0,0,0-1.277.667A3.5,3.5,0,0,0,73.457,10.872Zm12.266,3.269a2.831,2.831,0,0,1-2.312,1.016,2.67,2.67,0,0,1-2.074-.781,3.335,3.335,0,0,1-.73-2.289V6.547h2.258v5.467q0,1.322,1.2,1.322a1.63,1.63,0,0,0,1.578-.8V6.547H87.91V15H85.785ZM92,15H89.73V6.547H92ZM89.6,4.359a1.112,1.112,0,0,1,.34-.836,1.465,1.465,0,0,1,1.848,0,1.105,1.105,0,0,1,.344.836,1.108,1.108,0,0,1-.348.844,1.448,1.448,0,0,1-1.836,0A1.108,1.108,0,0,1,89.6,4.359Zm6.375,2.188.07.945a2.971,2.971,0,0,1,2.43-1.1,2.255,2.255,0,0,1,2.242,1.289,2.9,2.9,0,0,1,2.539-1.289,2.521,2.521,0,0,1,2.047.8,3.681,3.681,0,0,1,.672,2.41V15h-2.266V9.6a1.616,1.616,0,0,0-.281-1.053,1.245,1.245,0,0,0-.992-.333,1.409,1.409,0,0,0-1.406.971L101.035,15H98.777V9.6a1.6,1.6,0,0,0-.289-1.065,1.257,1.257,0,0,0-.984-.329,1.463,1.463,0,0,0-1.391.8V15H93.855V6.547ZM110.09,15h-2.266V6.547h2.266Zm-2.4-10.641a1.112,1.112,0,0,1,.34-.836,1.465,1.465,0,0,1,1.848,0,1.105,1.105,0,0,1,.344.836,1.108,1.108,0,0,1-.348.844,1.448,1.448,0,0,1-1.836,0A1.108,1.108,0,0,1,107.691,4.359Zm8.148,10.8a4.15,4.15,0,0,1-3.027-1.141,4.054,4.054,0,0,1-1.168-3.039v-.219a5.106,5.106,0,0,1,.492-2.277,3.612,3.612,0,0,1,1.395-1.547,3.914,3.914,0,0,1,2.059-.543,3.508,3.508,0,0,1,2.73,1.094,4.444,4.444,0,0,1,1,3.1v.922h-5.383a2.1,2.1,0,0,0,.66,1.328,2,2,0,0,0,1.395.5,2.437,2.437,0,0,0,2.039-.945l1.109,1.242a3.389,3.389,0,0,1-1.375,1.121A4.511,4.511,0,0,1,115.84,15.156Zm-.258-6.945a1.411,1.411,0,0,0-1.09.455,2.357,2.357,0,0,0-.535,1.3H117.1V9.788a1.681,1.681,0,0,0-.406-1.165A1.456,1.456,0,0,0,115.582,8.211Zm7.094-1.664.07.977a2.951,2.951,0,0,1,2.43-1.133,2.453,2.453,0,0,1,2,.789,3.682,3.682,0,0,1,.672,2.359V15H125.59V9.581a1.47,1.47,0,0,0-.312-1.045,1.4,1.4,0,0,0-1.039-.325,1.553,1.553,0,0,0-1.43.814V15h-2.258V6.547Zm9.586-2.078V6.547h1.445V8.2h-1.445v4.219a1.007,1.007,0,0,0,.18.672.9.9,0,0,0,.688.2,3.6,3.6,0,0,0,.664-.055v1.711a4.648,4.648,0,0,1-1.367.2,2.156,2.156,0,0,1-2.422-2.4V8.2H128.77V6.547H130V4.469Zm2.117,6.227a5.013,5.013,0,0,1,.484-2.242,3.546,3.546,0,0,1,1.395-1.523,4.069,4.069,0,0,1,2.113-.539,3.849,3.849,0,0,1,2.793,1.047,4.2,4.2,0,0,1,1.207,2.844l.016.578A4.418,4.418,0,0,1,141.3,13.98a4.209,4.209,0,0,1-5.832,0,4.5,4.5,0,0,1-1.09-3.187Zm2.258.16a3.16,3.16,0,0,0,.453,1.843,1.628,1.628,0,0,0,2.578.008,3.457,3.457,0,0,0,.461-2.015,3.128,3.128,0,0,0-.461-1.831,1.5,1.5,0,0,0-1.3-.649,1.474,1.474,0,0,0-1.281.646A3.516,3.516,0,0,0,136.637,10.856Z" transform="translate(422.714 6349.042)" fill="#12263f"/>
          </g>
          <path id="Trazado_171415" data-name="Trazado 171415" d="M-3297.193,1357.267a11.6,11.6,0,0,1,2.983,1.351,6.88,6.88,0,0,1,2.762,5.433c.019.5.161.6.621.585a11.414,11.414,0,0,1,3.188.171,5.189,5.189,0,0,1,3.863,5.379q.007,13.084-.015,26.168a1.514,1.514,0,0,0,.88,1.579,35.148,35.148,0,0,1,8.335,6.5,5.025,5.025,0,0,1-.04,7.2,36.476,36.476,0,0,1-8.548,6.61,1.064,1.064,0,0,0-.624,1.092c.024,4.088.016,8.176.012,12.264,0,3.527-2.115,5.654-5.619,5.654q-14.764,0-29.528.007a10.12,10.12,0,0,1-7.388-2.974c-1.974-1.929-3.982-3.822-5.955-5.753a1.433,1.433,0,0,0-1.1-.437,17.919,17.919,0,0,1-4.279-.182,6.787,6.787,0,0,1-5.325-6.724c-.022-1.145,0-2.291,0-3.437q0-26.6,0-53.2a6.941,6.941,0,0,1,3.934-6.648c.5-.26,1.12-.212,1.537-.649Zm-13.825,41.761a32.2,32.2,0,0,0-10.859,7.558,1.9,1.9,0,0,0,0,2.85,32.468,32.468,0,0,0,10.426,7.383c.155.068.306.225.49.055,0-.026.007-.058,0-.077q-.144-.229-.295-.453a14.451,14.451,0,0,1-2.327-11.279,15.838,15.838,0,0,1,2.661-5.912l.095-.14Zm-22.733,2.63c-1.227-.314-1.563-.746-1.564-2.042q0-5.585,0-11.17,0-9.178,0-18.356a5.223,5.223,0,0,1,2.062-4.418,5.664,5.664,0,0,1,3.6-1.053q17.145.007,34.29.022c.8,0,.892-.265.786-.941a3.73,3.73,0,0,0-3.968-3.308q-18.629-.007-37.259,0a3.73,3.73,0,0,0-4.032,4.045q0,28.236,0,56.473a5.248,5.248,0,0,0,.1,1.162c.494,2.162,2.376,3.225,5.029,2.827a10.8,10.8,0,0,1-.6-3.352c0-2.864,0-5.728,0-8.592,0-1.214.364-1.657,1.563-1.964,1.2.311,1.557.752,1.559,1.968.005,2.786.017,5.572-.01,8.357-.006.586.114.8.76.791,2.446-.042,4.894-.022,7.342-.016,2.81.007,4.442,1.641,4.454,4.465.01,2.265.03,4.531-.015,6.795-.013.67.2.8.827.8q14.723-.031,29.446-.015c1.733,0,2.488-.769,2.489-2.53q0-4.217,0-8.435c0-.859-.014-1.719.006-2.577.009-.371-.122-.467-.453-.342-.219.083-.437.166-.656.247a32.013,32.013,0,0,1-16.656,1.6,34.328,34.328,0,0,1-19.538-10.566,4.9,4.9,0,0,1-.1-6.916,34.1,34.1,0,0,1,20.253-10.786,31.776,31.776,0,0,1,16.328,1.811c.811.313.818.3.818-.566q0-12.34,0-24.681c0-1.911-.727-2.644-2.621-2.644h-40.068c-1.867,0-2.6.727-2.6,2.574q0,14.644,0,29.289C-3332.191,1400.911-3332.524,1401.34-3333.751,1401.659Zm34.421-5.041a11.425,11.425,0,0,0-11.446,11.391,11.484,11.484,0,0,0,11.358,11.427,11.432,11.432,0,0,0,11.46-11.379A11.375,11.375,0,0,0-3299.33,1396.617Zm11.443,2.369q6.137,8.951.106,17.921c.217.135.392-.026.574-.107a33.23,33.23,0,0,0,10.418-7.417,1.922,1.922,0,0,0-.1-2.848,34.361,34.361,0,0,0-9.312-6.863A6.6,6.6,0,0,0-3287.886,1398.986Zm-43.088,26.233c.818,1.241,7.489,7.526,8.2,7.749,0-2.245.005-4.48,0-6.716a.918.918,0,0,0-1.006-1.03C-3326.146,1425.215-3328.506,1425.22-3330.974,1425.22Z" transform="translate(3805.693 4894.389)" fill="#010101"/>
          <path id="Trazado_171416" data-name="Trazado 171416" d="M-3284.054,1458.115c1.226-.318,1.559-.748,1.56-2.046q0-14.644,0-29.289c0-1.847.735-2.574,2.6-2.574h40.068c1.894,0,2.621.734,2.621,2.644q0,12.34,0,24.681c0,.863-.007.879-.818.566a31.778,31.778,0,0,0-16.328-1.811,34.1,34.1,0,0,0-20.253,10.786,4.9,4.9,0,0,0,.1,6.916,34.328,34.328,0,0,0,19.538,10.566,32.013,32.013,0,0,0,16.656-1.6c.219-.081.438-.165.656-.247.332-.125.462-.029.453.342-.02.859-.006,1.718-.006,2.577q0,4.218,0,8.435c0,1.762-.756,2.53-2.489,2.53q-14.723,0-29.446.015c-.63,0-.84-.128-.827-.8.045-2.264.025-4.53.015-6.795-.012-2.823-1.645-4.458-4.455-4.465-2.447-.006-4.9-.027-7.341.016-.646.011-.766-.2-.76-.791.028-2.785.016-5.571.01-8.357,0-1.216-.36-1.656-1.559-1.968v-3.081c1.053-.237,1.575-.782,1.556-1.625-.019-.81-.53-1.318-1.556-1.545Zm22.974-25.018h10.847c.936,0,1.874.021,2.809-.008a1.565,1.565,0,0,0,1.644-1.527,1.586,1.586,0,0,0-1.667-1.588c-.156-.008-.312,0-.468,0h-26.3a5.684,5.684,0,0,0-.7.018,1.591,1.591,0,0,0-1.461,1.556,1.59,1.59,0,0,0,1.484,1.535,6.16,6.16,0,0,0,.7.015Zm-3.833,8.593h.468c3.068,0,6.137.006,9.2,0,1.254,0,1.956-.719,1.811-1.8-.112-.836-.759-1.319-1.823-1.321q-6.319-.009-12.637,0c-2.21,0-4.42,0-6.63,0a1.658,1.658,0,0,0-1.715.966c-.484,1.12.338,2.153,1.728,2.158C-3271.31,1441.7-3268.111,1441.689-3264.913,1441.69Zm-5.707,8.593c1.327,0,2.655.007,3.982,0,1.162-.008,1.845-.588,1.853-1.549s-.676-1.567-1.829-1.571q-3.943-.014-7.885,0c-1.134,0-1.866.622-1.875,1.548s.728,1.562,1.852,1.572C-3273.222,1450.291-3271.921,1450.282-3270.62,1450.282Z" transform="translate(3755.996 4837.934)" fill="#fffae8"/>
          <path id="Trazado_171417" data-name="Trazado 171417" d="M-3316.88,1418.484v3.083c-1.032.233-1.541.737-1.56,1.546-.02.842.506,1.39,1.56,1.624v3.081c-1.2.307-1.561.75-1.563,1.964-.005,2.864,0,5.728,0,8.592a10.8,10.8,0,0,0,.6,3.352c-2.654.4-4.535-.665-5.029-2.827a5.247,5.247,0,0,1-.1-1.162q-.007-28.237,0-56.473a3.73,3.73,0,0,1,4.032-4.045q18.63-.005,37.259,0a3.73,3.73,0,0,1,3.968,3.308c.106.676.017.943-.786.941q-17.145-.043-34.29-.022a5.664,5.664,0,0,0-3.6,1.053,5.223,5.223,0,0,0-2.062,4.418q.014,9.178,0,18.356,0,5.585,0,11.17C-3318.443,1417.738-3318.107,1418.17-3316.88,1418.484Z" transform="translate(3788.822 4877.563)" fill="#ffecb3"/>
          <path id="Trazado_171421" data-name="Trazado 171421" d="M-3266.323,1791.178c2.468,0,4.828,0,7.188,0a.918.918,0,0,1,1.006,1.03c.009,2.235,0,4.471,0,6.716C-3258.834,1798.7-3265.505,1792.419-3266.323,1791.178Z" transform="translate(3741.042 4528.43)" fill="#ffecb3"/>
        </g>
        <path id="Trazado_171422" data-name="Trazado 171422" d="M-3138.888,1623.856l.186-.015-.095.14A.474.474,0,0,1-3138.888,1623.856Z" transform="translate(3633.563 4669.561)" fill="#d3ecf8"/>
        <path id="Trazado_171423" data-name="Trazado 171423" d="M-3219.726,1464.138h-13.109a6.16,6.16,0,0,1-.7-.015,1.59,1.59,0,0,1-1.484-1.535,1.591,1.591,0,0,1,1.461-1.556,5.684,5.684,0,0,1,.7-.018h26.3c.156,0,.312-.006.468,0a1.586,1.586,0,0,1,1.667,1.588,1.565,1.565,0,0,1-1.644,1.527c-.935.03-1.873.008-2.809.008Z" transform="translate(3714.642 4806.892)" fill="#010101"/>
        <path id="Trazado_171424" data-name="Trazado 171424" d="M-3223.558,1519.008c-3.2,0-6.4.007-9.595,0-1.389,0-2.212-1.037-1.728-2.158a1.658,1.658,0,0,1,1.715-.966c2.21.006,4.42,0,6.63,0q6.319,0,12.637,0c1.064,0,1.711.485,1.823,1.321.146,1.08-.557,1.795-1.811,1.8-3.068.01-6.136,0-9.2,0Z" transform="translate(3714.641 4760.614)" fill="#010101"/>
        <path id="Trazado_171425" data-name="Trazado 171425" d="M-3229.265,1573.872c-1.3,0-2.6.009-3.9,0-1.124-.01-1.861-.646-1.852-1.572s.741-1.545,1.875-1.548q3.943-.012,7.885,0c1.154,0,1.836.606,1.829,1.571s-.69,1.541-1.853,1.549C-3226.61,1573.879-3227.938,1573.872-3229.265,1573.872Z" transform="translate(3714.642 4714.344)" fill="#010101"/>
        <path id="Trazado_171426" data-name="Trazado 171426" d="M-3292.459,1663.59c-1.054-.234-1.581-.782-1.56-1.624.02-.809.528-1.313,1.56-1.546,1.025.227,1.537.735,1.556,1.545C-3290.884,1662.808-3291.406,1663.353-3292.459,1663.59Z" transform="translate(3764.401 4638.71)" fill="#010101"/>
        <path id="Trazado_171427" data-name="Trazado 171427" d="M-3106.931,1646.544a7.938,7.938,0,0,1-7.921-7.86,7.991,7.991,0,0,1,7.841-7.96,8.041,8.041,0,0,1,7.981,7.92A7.992,7.992,0,0,1-3106.931,1646.544Zm-.13-3.13a4.817,4.817,0,0,0,4.9-4.716,4.862,4.862,0,0,0-4.726-4.847,4.814,4.814,0,0,0-4.843,4.7A4.767,4.767,0,0,0-3107.061,1643.414Z" transform="translate(3613.292 4663.756)" fill="#010101"/>
        <path id="Trazado_171428" data-name="Trazado 171428" d="M-3090.233,1660.247a4.767,4.767,0,0,1-4.664-4.859,4.814,4.814,0,0,1,4.843-4.7,4.862,4.862,0,0,1,4.726,4.847A4.817,4.817,0,0,1-3090.233,1660.247Z" transform="translate(3596.463 4646.922)" fill="#7b5d14"/>
      </g>
    </g>
  </g>
</svg>
