<svg xmlns="http://www.w3.org/2000/svg" width="314.364" height="299.354" viewBox="0 0 314.364 299.354">
  <g id="Grupo_111257" data-name="Grupo 111257" transform="translate(-464.993 -212.014)">
    <path id="Trazado_171271" data-name="Trazado 171271" d="M-1950.224,208.024V445.739a178.022,178.022,0,0,0-128.741,61.639l-41.774-33.325-143.849-114.741q6.558-7.946,13.526-15.578a417.647,417.647,0,0,1,47.489-44.531,418.267,418.267,0,0,1,77.781-49.3l.282-.047.921-.446a404.419,404.419,0,0,1,138.983-39.4Q-1968.164,208.3-1950.224,208.024Z" transform="translate(2729.581 3.99)" fill="#c99a28"/>
    <path id="Trazado_171272" data-name="Trazado 171272" d="M-1918.977,267.073V467.414a178.021,178.021,0,0,0-128.741,61.639l-41.774-33.325-106.879-106.875-11.473-11.473a400.726,400.726,0,0,1,46.085-43.3,401.214,401.214,0,0,1,72.45-46.226l.23-.038,3.109-1.507a388.113,388.113,0,0,1,147.305-38.919l2.78,2.78Z" transform="translate(2698.334 -17.686)" fill="#7b5d14" opacity="0.3"/>
    <path id="Trazado_171297" data-name="Trazado 171297" d="M-1937.386,247.021V451.574a196.153,196.153,0,0,0-113.459,54.355l-147.029-117.277-12.7-10.13c.4-.451.808-.9,1.226-1.343a400.708,400.708,0,0,1,46.085-43.3,401.207,401.207,0,0,1,72.451-46.226l.23-.038,3.109-1.507a388.113,388.113,0,0,1,147.305-38.919Q-1938.779,247.1-1937.386,247.021Z" transform="translate(2699.836 -17.484)" fill="#ffecb3"/>
    <path id="Trazado_171298" data-name="Trazado 171298" d="M-2183.039,388.653a393.834,393.834,0,0,1,40.225-37.1,393.085,393.085,0,0,1,69.8-44.7l.184-.031,4.2-2.036a378.858,378.858,0,0,1,137.946-37.649V455.294a205.486,205.486,0,0,0-105.459,50.539Z" transform="translate(2684.674 -28.563)" fill="#fffae8"/>
    <circle id="Elipse_5839" data-name="Elipse 5839" cx="32.5" cy="32.5" r="32.5" transform="translate(623.252 318)" fill="#28c65d"/>
    <text id="_1" data-name="1" transform="translate(647.252 361)" fill="#12263f" font-size="30" font-family="Roboto-Black, Roboto" font-weight="800"><tspan x="0" y="0">1</tspan></text>
    <g id="Circular_path" data-name="Circular path" transform="translate(657.978 298.047)">
      <g id="Grupo_111098" data-name="Grupo 111098" transform="translate(0 0)">
        <path id="Trazado_171299" data-name="Trazado 171299" d="M438.788,311.224a.735.735,0,0,1-.782.687.754.754,0,0,1-.7-.779.734.734,0,0,1,.783-.708A.751.751,0,0,1,438.788,311.224Z" transform="translate(-437.308 -310.421)" fill="#28c65d"/>
        <path id="Trazado_171300" data-name="Trazado 171300" d="M456.437,312.955a.742.742,0,1,1-1.471-.187.742.742,0,1,1,1.471.187Z" transform="translate(-451.271 -311.762)" fill="#28c65d"/>
        <path id="Trazado_171301" data-name="Trazado 171301" d="M473.917,315.879a.742.742,0,0,1-1.453-.3.742.742,0,1,1,1.453.3Z" transform="translate(-465.104 -314.02)" fill="#28c65d"/>
        <path id="Trazado_171302" data-name="Trazado 171302" d="M491.14,320.145a.742.742,0,1,1-1.427-.405.742.742,0,1,1,1.427.405Z" transform="translate(-478.738 -317.361)" fill="#28c65d"/>
        <path id="Trazado_171303" data-name="Trazado 171303" d="M508,325.592a.745.745,0,0,1-.947.438.734.734,0,0,1-.449-.938.753.753,0,0,1,.956-.463A.741.741,0,0,1,508,325.592Z" transform="translate(-492.084 -321.626)" fill="#28c65d"/>
        <path id="Trazado_171304" data-name="Trazado 171304" d="M524.43,332.287a.749.749,0,0,1-.979.375.758.758,0,0,1-.372-.986.73.73,0,0,1,.979-.375A.739.739,0,0,1,524.43,332.287Z" transform="translate(-505.099 -326.883)" fill="#28c65d"/>
        <path id="Trazado_171305" data-name="Trazado 171305" d="M540.313,340.137a.75.75,0,0,1-1,.3.735.735,0,0,1-.308-.994.752.752,0,0,1,1.012-.319A.737.737,0,0,1,540.313,340.137Z" transform="translate(-517.678 -333.056)" fill="#28c65d"/>
        <path id="Trazado_171306" data-name="Trazado 171306" d="M555.608,349.124a.747.747,0,0,1-1.023.229.757.757,0,0,1-.226-1.029.73.73,0,0,1,1.023-.229A.739.739,0,0,1,555.608,349.124Z" transform="translate(-529.8 -340.124)" fill="#28c65d"/>
        <path id="Trazado_171307" data-name="Trazado 171307" d="M570.191,359.193a.75.75,0,0,1-1.034.151.735.735,0,0,1-.161-1.029.751.751,0,0,1,1.047-.169A.737.737,0,0,1,570.191,359.193Z" transform="translate(-541.354 -348.057)" fill="#28c65d"/>
        <path id="Trazado_171308" data-name="Trazado 171308" d="M584.032,370.277a.748.748,0,0,1-1.045.08.757.757,0,0,1-.076-1.051.73.73,0,0,1,1.045-.08A.739.739,0,0,1,584.032,370.277Z" transform="translate(-552.333 -356.788)" fill="#28c65d"/>
        <path id="Trazado_171309" data-name="Trazado 171309" d="M597.022,382.34a.749.749,0,0,1-1.044,0,.735.735,0,0,1-.013-1.041.751.751,0,0,1,1.061-.018A.738.738,0,0,1,597.022,382.34Z" transform="translate(-562.632 -366.302)" fill="#28c65d"/>
        <path id="Trazado_171310" data-name="Trazado 171310" d="M609.128,395.289a.748.748,0,0,1-1.047-.07.757.757,0,0,1,.076-1.051.731.731,0,0,1,1.046.07A.739.739,0,0,1,609.128,395.289Z" transform="translate(-572.241 -376.512)" fill="#28c65d"/>
        <path id="Trazado_171311" data-name="Trazado 171311" d="M620.262,409.091a.747.747,0,0,1-1.033-.149.735.735,0,0,1,.137-1.032.752.752,0,0,1,1.053.134A.74.74,0,0,1,620.262,409.091Z" transform="translate(-581.077 -387.406)" fill="#28c65d"/>
        <path id="Trazado_171312" data-name="Trazado 171312" d="M630.378,423.641a.749.749,0,0,1-1.026-.219.757.757,0,0,1,.225-1.029.742.742,0,1,1,.8,1.248Z" transform="translate(-589.115 -398.887)" fill="#28c65d"/>
        <path id="Trazado_171313" data-name="Trazado 171313" d="M639.421,438.9a.747.747,0,0,1-1-.3.735.735,0,0,1,.283-1,.752.752,0,0,1,1.023.285A.74.74,0,0,1,639.421,438.9Z" transform="translate(-596.302 -410.94)" fill="#28c65d"/>
        <path id="Trazado_171314" data-name="Trazado 171314" d="M647.325,454.758a.748.748,0,0,1-.983-.366.757.757,0,0,1,.372-.986.73.73,0,0,1,.983.366A.739.739,0,0,1,647.325,454.758Z" transform="translate(-602.592 -423.458)" fill="#28c65d"/>
        <path id="Trazado_171315" data-name="Trazado 171315" d="M654.074,471.167a.752.752,0,0,1-.949-.437.736.736,0,0,1,.426-.95.751.751,0,0,1,.97.43A.736.736,0,0,1,654.074,471.167Z" transform="translate(-607.968 -436.425)" fill="#28c65d"/>
        <path id="Trazado_171316" data-name="Trazado 171316" d="M659.591,488a.746.746,0,0,1-.918-.5.76.76,0,0,1,.513-.922.728.728,0,0,1,.918.5A.741.741,0,0,1,659.591,488Z" transform="translate(-612.374 -449.724)" fill="#28c65d"/>
        <path id="Trazado_171317" data-name="Trazado 171317" d="M663.891,505.216a.761.761,0,0,1-.882-.569.738.738,0,0,1,.562-.879.749.749,0,0,1,.9.567A.727.727,0,0,1,663.891,505.216Z" transform="translate(-615.811 -463.333)" fill="#28c65d"/>
        <path id="Trazado_171318" data-name="Trazado 171318" d="M666.911,522.678a.741.741,0,0,1-.831-.633.764.764,0,0,1,.641-.838.724.724,0,0,1,.835.632A.746.746,0,0,1,666.911,522.678Z" transform="translate(-618.249 -477.134)" fill="#28c65d"/>
        <path id="Trazado_171319" data-name="Trazado 171319" d="M668.672,540.329a.762.762,0,0,1-.8-.69.745.745,0,0,1,1.487-.1A.726.726,0,0,1,668.672,540.329Z" transform="translate(-619.67 -491.094)" fill="#28c65d"/>
        <path id="Trazado_171320" data-name="Trazado 171320" d="M669.184,558.054a.734.734,0,0,1-.726-.745.749.749,0,0,1,.739-.738.738.738,0,0,1,.751.744A.753.753,0,0,1,669.184,558.054Z" transform="translate(-620.135 -505.113)" fill="#28c65d"/>
        <path id="Trazado_171321" data-name="Trazado 171321" d="M668.383,575.768a.741.741,0,1,1,.112-1.479.741.741,0,1,1-.112,1.479Z" transform="translate(-619.531 -519.126)" fill="#28c65d"/>
        <path id="Trazado_171322" data-name="Trazado 171322" d="M666.4,593.379a.742.742,0,0,1-.615-.841.733.733,0,0,1,.83-.626.754.754,0,0,1,.643.846A.743.743,0,0,1,666.4,593.379Z" transform="translate(-618.014 -533.06)" fill="#28c65d"/>
        <path id="Trazado_171323" data-name="Trazado 171323" d="M663.045,610.805a.747.747,0,0,1-.56-.886.758.758,0,0,1,.893-.559.729.729,0,0,1,.56.886A.74.74,0,0,1,663.045,610.805Z" transform="translate(-615.396 -546.854)" fill="#28c65d"/>
        <path id="Trazado_171324" data-name="Trazado 171324" d="M658.536,627.931a.757.757,0,0,1-.495-.924.737.737,0,0,1,.916-.5.749.749,0,0,1,.51.929A.73.73,0,0,1,658.536,627.931Z" transform="translate(-611.875 -560.407)" fill="#28c65d"/>
        <path id="Trazado_171325" data-name="Trazado 171325" d="M652.693,644.7a.744.744,0,0,1-.424-.957.762.762,0,0,1,.968-.423.727.727,0,0,1,.424.957A.742.742,0,0,1,652.693,644.7Z" transform="translate(-607.292 -573.69)" fill="#28c65d"/>
        <path id="Trazado_171326" data-name="Trazado 171326" d="M645.744,660.976a.762.762,0,0,1-.358-.987.739.739,0,0,1,.98-.359.747.747,0,0,1,.369.992A.726.726,0,0,1,645.744,660.976Z" transform="translate(-601.836 -586.573)" fill="#28c65d"/>
        <path id="Trazado_171327" data-name="Trazado 171327" d="M637.537,676.734a.743.743,0,0,1-.28-1.007.762.762,0,0,1,1.018-.279.725.725,0,0,1,.281,1.008A.743.743,0,0,1,637.537,676.734Z" transform="translate(-595.382 -599.065)" fill="#28c65d"/>
        <path id="Trazado_171328" data-name="Trazado 171328" d="M628.307,691.82a.763.763,0,0,1-.213-1.029.745.745,0,0,1,1.243.822A.725.725,0,0,1,628.307,691.82Z" transform="translate(-588.119 -611.01)" fill="#28c65d"/>
        <path id="Trazado_171329" data-name="Trazado 171329" d="M617.919,706.24a.744.744,0,0,1-.132-1.037.762.762,0,0,1,1.048-.129.725.725,0,0,1,.133,1.038A.744.744,0,0,1,617.919,706.24Z" transform="translate(-579.935 -622.45)" fill="#28c65d"/>
        <path id="Trazado_171330" data-name="Trazado 171330" d="M606.61,719.835a.761.761,0,0,1-.062-1.048.745.745,0,0,1,1.112.991A.726.726,0,0,1,606.61,719.835Z" transform="translate(-571.026 -633.22)" fill="#28c65d"/>
      </g>
    </g>
    <g id="Arrow" transform="translate(603.713 297.957)">
      <path id="Trazado_171331" data-name="Trazado 171331" d="M259.685,402.794a50.554,50.554,0,1,1-29.911-91.311h0a.745.745,0,1,0,0-1.49h0a52.042,52.042,0,1,0,30.793,94h0a.745.745,0,0,0-.883-1.2Z" transform="translate(-177.732 -309.993)" fill="#28c65d"/>
      <path id="Trazado_171332" data-name="Trazado 171332" d="M553.081,734.009l4.679,5.72,5.814-9.53Z" transform="translate(-474.613 -642.353)" fill="#28c65d"/>
    </g>
  </g>
</svg>
