<svg xmlns="http://www.w3.org/2000/svg" width="90" height="90.008" viewBox="0 0 90 90.008">
  <g id="Grupo_110840" data-name="Grupo 110840" transform="translate(538.843 -1701.501)">
    <path id="Trazado_170245" data-name="Trazado 170245" d="M-486.283,1701.5h9.844c.3.333.7.157,1.052.214a22.4,22.4,0,0,1,19.023,19.994c.072.663.22.917.966.914a3.887,3.887,0,0,1,3.916,3.9c.021.937.04,1.877-.007,2.811a3.483,3.483,0,0,1-2.335,3.4c-1.159.374-1.3.987-1.171,1.95a1.622,1.622,0,0,1,0,.439c-.076.526.108.735.67.856a6.989,6.989,0,0,1,5.481,7.01,7.036,7.036,0,0,1-5.736,6.725,12.728,12.728,0,0,1-2.889.113c-.561-.019-.735.195-.86.693a23.207,23.207,0,0,1-10.225,14.249,1.286,1.286,0,0,0-.691,1.241c.024,6.093.016,12.186.015,18.278,0,4.506-2.707,7.219-7.2,7.219H-510q-11.072,0-22.145,0a6.574,6.574,0,0,1-6.383-4.592c-.077-.229-.02-.542-.313-.678v-31.994a1.74,1.74,0,0,1,1.4-.909c.979.222,1.247.878,1.246,1.82q-.026,14.672-.01,29.343c0,2.76,1.6,4.377,4.346,4.376q27.805,0,55.61-.013a3.987,3.987,0,0,0,4.369-4.355q0-8.522,0-17.043v-.838c-.671.235-1.26.495-1.877.644-.587.142-.755.416-.752,1.026.029,5.125.019,10.249.015,15.374,0,1.747-.827,2.561-2.591,2.567-1.464.005-2.929-.03-4.392.012a1.553,1.553,0,0,1-1.757-1.222c.274-1.18.581-1.422,1.816-1.425s2.461-.018,3.691.009c.44.01.6-.09.6-.571q-.029-7.163,0-14.326c0-.443-.061-.584-.571-.508A23.058,23.058,0,0,1-492,1765.821a3.674,3.674,0,0,0-1.755-.416q-11.338.018-22.676.006a12.153,12.153,0,0,1-1.228-.046,3.908,3.908,0,0,1-3.6-3.941c-.018-1.289,0-2.578,0-3.867,0-2.887,1.558-4.449,4.439-4.45,4.277,0,8.555-.008,12.832.009.535,0,.76-.05.5-.655a7.4,7.4,0,0,1-.52-1.76c-.1-.67-.362-.877-1.061-.875q-12.48.042-24.961-.006c-.822,0-.919.252-.918.97q.034,15.864,0,31.729c0,.832.128,1.1,1.055,1.1q20.7-.056,41.4-.025c1.238,0,1.51.213,1.843,1.411a1.636,1.636,0,0,1-1.842,1.237q-21.182-.029-42.364-.014c-1.906,0-2.7-.805-2.7-2.726q0-13.624,0-27.247c0-1.9-.025-3.809.015-5.713.012-.587-.163-.742-.729-.714-1.052.053-2.107.034-3.161.046a1.767,1.767,0,0,1-1.4-.911v-7.911c.057-.057.144-.1.168-.172,1.27-3.628,3.327-5.1,7.135-5.1h22.219c1.957,0,1.94,0,1.955-1.923,0-.509-.11-.747-.648-.894a3.861,3.861,0,0,1-2.875-3.75c-.017-.907-.02-1.815,0-2.722a3.869,3.869,0,0,1,3.853-3.862c.855.007.965-.329,1.038-1.032a22.371,22.371,0,0,1,17.641-19.613A6.191,6.191,0,0,0-486.283,1701.5Zm11.773,3.707-.008-.006c.006.245.224.328.366.462a24.956,24.956,0,0,1,7.934,15.982c.082.768.335,1.047,1.111.964.724-.077,1.461-.031,2.193-.038,1.112.008,2.225-.01,3.335.034.557.022.652-.13.6-.691a19.841,19.841,0,0,0-15.72-17.385c-.2-.039-.436-.139-.635.065a1.457,1.457,0,0,0,.656.594Zm10.192,33.228c-.117-.006-.234-.017-.351-.017h-36.644c-.117,0-.235.011-.351,0-.354-.036-.446.141-.443.466.022,2.489.043,4.979.038,7.469,0,.741.332.872,1.017.871q15.949-.035,31.9-.018c1.611,0,3.221-.018,4.832-.027.935.009,1.871.023,2.806.027,1.171,0,1.209,0,1.226-1.209.033-2.31.006-4.621.031-6.931.005-.487-.131-.672-.639-.655C-462.037,1738.445-463.177,1738.43-464.318,1738.436Zm3.388,11.452c-.193-.013-.337-.032-.482-.032q-19.685-.007-39.37-.027c-.777,0-.672.294-.523.822a21.021,21.021,0,0,0,18.955,15.166,20.988,20.988,0,0,0,20.338-12.591A13.869,13.869,0,0,0-460.93,1749.887Zm-20.252-24.631v-.022H-494.8q-5.843,0-11.686,0c-1.345,0-1.762.431-1.768,1.8,0,.469,0,.937,0,1.406,0,1.73.33,2.066,2.03,2.066q23.5,0,47.008,0c1.2,0,2.4,0,3.6-.026a1.33,1.33,0,0,0,1.475-1.466c.018-.644.005-1.289,0-1.933,0-1.416-.409-1.823-1.828-1.823Zm-30.955,13.262a.789.789,0,0,0-.2-.078c-6.672,0-13.344-.023-20.016.01a3.878,3.878,0,0,0-3.829,3.9c-.028,1.316.04,2.636-.025,3.95-.036.727.159.911.9.908,7.491-.031,14.983-.019,22.474-.019h.762A7.2,7.2,0,0,1-512.137,1738.518Zm29.619-24.722c0-2.72-.009-5.441.008-8.161,0-.6-.138-.777-.674-.4-.214.152-.457.262-.673.41a22.147,22.147,0,0,0-9.712,16.424c-.071.6.239.524.592.523,3.247,0,6.494-.014,9.74.012.579,0,.739-.166.733-.738C-482.533,1719.178-482.518,1716.487-482.518,1713.8Zm2.666-.011q0,4.036,0,8.073c0,.371-.094.752.533.748,3.363-.022,6.727-.015,10.09,0,.4,0,.462-.131.427-.517a20.551,20.551,0,0,0-.968-4.709,21.652,21.652,0,0,0-9.257-12.041c-.793-.488-.823-.463-.824.466Q-479.856,1709.793-479.852,1713.785Zm-16.9,48.9a.978.978,0,0,0-.135-.214,23.591,23.591,0,0,1-4.978-6.3.742.742,0,0,0-.759-.438c-4.826.01-9.653,0-14.479.012-1.071,0-1.518.488-1.527,1.58-.01,1.141,0,2.282,0,3.422,0,1.693.342,2.03,2.07,2.031q9.521,0,19.042,0C-497.27,1762.773-497,1762.867-496.748,1762.682Zm9.9-58.212c-.419.03-.643.023-.858.066a19.864,19.864,0,0,0-15.7,17.4c-.059.6.1.676.622.669,1.785-.025,3.573-.072,5.354.016.936.047,1.205-.23,1.306-1.154a24.8,24.8,0,0,1,7.909-15.8C-487.823,1705.3-487.4,1704.953-486.848,1704.47Zm5.658,28.674h-13c-1.763,0-1.72,0-1.781,1.762-.026.75.2.894.912.892,8.931-.027,17.862-.017,26.792-.017,1.859,0,1.822,0,1.867-1.85.016-.676-.183-.807-.823-.8C-471.878,1733.157-476.534,1733.143-481.19,1733.143Zm23.552,12.584c-.023,1.482-.023,1.482,1.439,1.478.146,0,.293,0,.439,0a4.414,4.414,0,0,0,4.277-4.187,4.432,4.432,0,0,0-3.869-4.578c-2.278-.281-2.278-.281-2.277,1.965,0,.205.013.411,0,.615-.026.375.137.527.512.519.585-.013,1.171-.015,1.756.007a1.181,1.181,0,0,1,1.227,1.137,1.2,1.2,0,0,1-.962,1.373,3.846,3.846,0,0,1-.952.115C-457.613,1744.2-457.613,1744.19-457.637,1745.727Zm-47.1-5.733c0-1.585,0-1.585-1.545-1.577a4.4,4.4,0,0,0-4.6,4.391,4.4,4.4,0,0,0,4.6,4.4c1.578.009,1.578.009,1.555-1.534-.022-1.493-.022-1.493-1.468-1.5-1.387-.007-2.061-.458-2.051-1.375.01-.892.6-1.264,2-1.265C-504.741,1741.531-504.741,1741.531-504.741,1739.995Zm44.112-6.859h-1.228c-2.041,0-2.025,0-1.943,2.063.018.458.152.608.608.6,1.2-.025,2.4-.008,3.6-.008,2.128,0,2.115,0,1.986-2.107-.025-.414-.148-.564-.562-.552C-458.992,1733.152-459.811,1733.136-460.63,1733.135Zm-41.107,2.649c.876,0,1.753-.033,2.626.011.633.032.6-.39.51-.731-.175-.637.572-1.743-.459-1.868a43.788,43.788,0,0,0-5.246-.056c-.2,0-.436-.017-.431.286a6.494,6.494,0,0,0,.125,2.23c.151.37,1.019.089,1.562.123C-502.613,1735.805-502.174,1735.784-501.737,1735.784Z" fill="#020202"/>
    <path id="Trazado_170246" data-name="Trazado 170246" d="M-460.957,1942.359c-.332-1.2-.605-1.411-1.843-1.411q-20.7,0-41.4.025c-.928,0-1.057-.27-1.055-1.1q.043-15.864,0-31.729c0-.718.1-.974.918-.97q12.48.058,24.961.006c.7,0,.961.2,1.061.875a7.4,7.4,0,0,0,.52,1.76c.255.6.03.657-.5.655-4.277-.017-8.555-.011-12.832-.009-2.881,0-4.437,1.563-4.439,4.45,0,1.289-.014,2.578,0,3.867a3.908,3.908,0,0,0,3.6,3.941,12.153,12.153,0,0,0,1.228.046q11.338,0,22.676-.006a3.674,3.674,0,0,1,1.755.416,23.058,23.058,0,0,0,14.291,2.378c.51-.077.572.065.571.508q-.018,7.163,0,14.326c0,.481-.155.58-.6.571-1.23-.026-2.461-.011-3.691-.009s-1.543.245-1.817,1.425Zm-17.387-4.652h5.713c2.461,0,4.922.037,7.382-.013a3.944,3.944,0,0,0,4.139-4.234c.005-1.172,0-2.344,0-3.516,0-3.014-1.521-4.544-4.522-4.544q-10.458,0-20.917,0c-1.611,0-3.223-.009-4.834,0a3.94,3.94,0,0,0-4.182,4.179c-.006,1.142.078,2.292-.017,3.426-.216,2.592,1.435,4.81,4.758,4.726C-486.666,1937.627-482.5,1937.707-478.344,1937.707Z" transform="translate(-25.7 -157.352)" fill="#fffae8"/>
    <path id="Trazado_170247" data-name="Trazado 170247" d="M-339.028,1907.267a13.869,13.869,0,0,1-1.082,3.338,20.988,20.988,0,0,1-20.338,12.591A21.021,21.021,0,0,1-379.4,1908.03c-.149-.528-.255-.824.523-.822q19.685.037,39.37.027C-339.365,1907.235-339.22,1907.254-339.028,1907.267ZM-359,1910.048a12.185,12.185,0,0,0-6.532,1.807c-.893.566-1.156,1.249-.752,1.95.426.739,1.2.841,2.129.3a9.032,9.032,0,0,1,9.643-.061c.951.543,1.7.44,2.124-.3.406-.713.15-1.4-.752-1.955A11.647,11.647,0,0,0-359,1910.048Z" transform="translate(-121.902 -157.38)" fill="#fdd3b2"/>
    <path id="Trazado_170248" data-name="Trazado 170248" d="M-482.1,1942.382l3.423.014a1.553,1.553,0,0,0,1.757,1.222c1.463-.042,2.928-.007,4.392-.012,1.764-.006,2.589-.821,2.591-2.567,0-5.125.014-10.25-.015-15.374,0-.61.165-.884.752-1.026.616-.149,1.206-.408,1.877-.644v.838q0,8.522,0,17.043a3.987,3.987,0,0,1-4.369,4.355q-27.805.009-55.61.013c-2.743,0-4.345-1.616-4.346-4.376q0-14.672.01-29.343c0-.942-.267-1.6-1.246-1.82v-3.453c1.054-.011,2.109.008,3.161-.046.565-.029.741.127.729.714-.039,1.9-.015,3.808-.015,5.713q0,13.623,0,27.247c0,1.921.8,2.726,2.7,2.726q21.182,0,42.364.014A1.636,1.636,0,0,0-482.1,1942.382Z" transform="translate(-4.559 -157.375)" fill="#7b5d14"/>
    <path id="Trazado_170249" data-name="Trazado 170249" d="M-344.689,1867.38c-1.61.01-3.221.027-4.832.027q-15.949,0-31.9.018c-.685,0-1.018-.13-1.017-.871.006-2.49-.016-4.979-.038-7.469,0-.325.089-.5.443-.466.116.011.234,0,.351,0h36.644c.117,0,.234.011.351.017Zm-7.2-4.273c0-.467.032-.937-.007-1.4a1.247,1.247,0,0,0-1.343-1.209,1.2,1.2,0,0,0-1.259,1.2,24.609,24.609,0,0,0,0,2.8,1.2,1.2,0,0,0,1.25,1.209,1.247,1.247,0,0,0,1.353-1.2C-351.859,1864.044-351.892,1863.574-351.891,1863.106Zm-16.7.035a12.319,12.319,0,0,0-.011-1.488,1.2,1.2,0,0,0-1.3-1.154,1.178,1.178,0,0,0-1.289,1.162,21.237,21.237,0,0,0,0,2.888,1.178,1.178,0,0,0,1.3,1.155,1.208,1.208,0,0,0,1.295-1.163A11.738,11.738,0,0,0-368.594,1863.141Z" transform="translate(-119.633 -120.202)" fill="#8d9aa7"/>
    <path id="Trazado_170250" data-name="Trazado 170250" d="M-381.573,1802.54q12.609,0,25.217,0c1.419,0,1.824.407,1.828,1.823,0,.645.014,1.289,0,1.933a1.33,1.33,0,0,1-1.475,1.466c-1.2.023-2.4.026-3.6.026q-23.5,0-47.008,0c-1.7,0-2.029-.336-2.03-2.066,0-.469,0-.937,0-1.406.005-1.368.422-1.8,1.768-1.8q5.843,0,11.686,0h13.619Z" transform="translate(-99.609 -77.284)" fill="#318335"/>
    <path id="Trazado_170251" data-name="Trazado 170251" d="M-503.566,1858.784a7.2,7.2,0,0,0,.063,8.671h-.762c-7.491,0-14.983-.012-22.474.019-.738,0-.933-.181-.9-.908.065-1.314,0-2.633.025-3.95a3.878,3.878,0,0,1,3.829-3.9c6.672-.033,13.344-.013,20.016-.01A.789.789,0,0,1-503.566,1858.784Z" transform="translate(-8.571 -120.265)" fill="#ffecb3"/>
    <path id="Trazado_170252" data-name="Trazado 170252" d="M-335.117,1725.317c0,2.691-.016,5.382.012,8.073.006.572-.154.743-.733.738-3.246-.026-6.493-.013-9.74-.012-.353,0-.663.079-.592-.523a22.147,22.147,0,0,1,9.712-16.424c.216-.149.459-.259.673-.41.536-.379.678-.2.674.4C-335.127,1719.877-335.118,1722.6-335.117,1725.317Z" transform="translate(-147.4 -11.521)" fill="#318335"/>
    <path id="Trazado_170253" data-name="Trazado 170253" d="M-287.76,1725.244q0-3.992,0-7.985c0-.928.031-.953.824-.466a21.652,21.652,0,0,1,9.257,12.041,20.552,20.552,0,0,1,.968,4.709c.035.386-.025.519-.427.517-3.364-.01-6.727-.018-10.09,0-.627,0-.532-.376-.533-.748Q-287.761,1729.281-287.76,1725.244Z" transform="translate(-192.092 -11.459)" fill="#318335"/>
    <path id="Trazado_170254" data-name="Trazado 170254" d="M-430.928,1939.291c-.254.185-.523.091-.769.091q-9.521.01-19.042,0c-1.728,0-2.069-.338-2.07-2.031,0-1.141-.008-2.282,0-3.422.009-1.092.456-1.577,1.527-1.58,4.826-.012,9.652,0,14.479-.012a.742.742,0,0,1,.759.438,23.591,23.591,0,0,0,4.978,6.3A.978.978,0,0,1-430.928,1939.291Zm-15.155-4.742v0c-.38,0-.761-.024-1.138.005a1.29,1.29,0,0,0-1.262,1.305,1.276,1.276,0,0,0,1.259,1.306,16.4,16.4,0,0,0,2.276-.01,1.2,1.2,0,0,0,1.165-1.293,1.223,1.223,0,0,0-1.163-1.3A8.391,8.391,0,0,0-446.084,1934.549Zm7.285,2.615v.005c.38,0,.761.024,1.138-.005a1.3,1.3,0,0,0,1.27-1.3,1.275,1.275,0,0,0-1.252-1.311,16.851,16.851,0,0,0-2.276.008,1.2,1.2,0,0,0-1.172,1.285,1.224,1.224,0,0,0,1.154,1.308A7.864,7.864,0,0,0-438.8,1937.164Z" transform="translate(-65.82 -176.609)" fill="#d8d8d8"/>
    <path id="Trazado_170255" data-name="Trazado 170255" d="M-371.493,1714.138c-.553.483-.975.828-1.371,1.2a24.8,24.8,0,0,0-7.909,15.8c-.1.924-.37,1.2-1.306,1.154-1.781-.088-3.569-.041-5.354-.016-.517.007-.681-.073-.622-.669a19.864,19.864,0,0,1,15.7-17.4C-372.137,1714.161-371.912,1714.168-371.493,1714.138Z" transform="translate(-115.354 -9.668)" fill="#318335"/>
    <path id="Trazado_170256" data-name="Trazado 170256" d="M-341.583,1836.136c4.656,0,9.312.013,13.967-.016.64,0,.839.126.823.8-.045,1.849-.008,1.85-1.867,1.85-8.931,0-17.862-.009-26.792.017-.715,0-.938-.143-.912-.892.06-1.76.017-1.762,1.781-1.762Z" transform="translate(-139.607 -102.993)" fill="#fdd3b2"/>
    <path id="Trazado_170257" data-name="Trazado 170257" d="M-267.858,1714.855a1.457,1.457,0,0,1-.656-.594c.2-.2.433-.1.635-.065a19.841,19.841,0,0,1,15.72,17.385c.053.561-.042.713-.6.691-1.111-.044-2.223-.026-3.335-.034a8.42,8.42,0,0,0-.251-2.422,20.7,20.7,0,0,0-7.845-12.918,8.8,8.8,0,0,0-3.508-2.029l.008.006C-267.728,1714.726-267.785,1714.73-267.858,1714.855Z" transform="translate(-206.82 -9.668)" fill="#318335"/>
    <path id="Trazado_170258" data-name="Trazado 170258" d="M-265.04,1717.253a8.8,8.8,0,0,1,3.508,2.029,20.7,20.7,0,0,1,7.845,12.918,8.42,8.42,0,0,1,.251,2.422c-.732.008-1.469-.039-2.193.039-.776.082-1.03-.2-1.111-.964a24.956,24.956,0,0,0-7.934-15.982C-264.816,1717.581-265.034,1717.5-265.04,1717.253Z" transform="translate(-209.478 -12.051)" fill="#318335"/>
    <path id="Trazado_170259" data-name="Trazado 170259" d="M-193.205,1865.6c.024-1.537.024-1.531,1.588-1.56a3.846,3.846,0,0,0,.952-.115,1.2,1.2,0,0,0,.962-1.373,1.181,1.181,0,0,0-1.227-1.137c-.585-.022-1.171-.021-1.756-.007-.375.009-.538-.143-.512-.519.014-.2,0-.409,0-.615,0-2.246,0-2.246,2.277-1.965a4.432,4.432,0,0,1,3.869,4.578,4.414,4.414,0,0,1-4.277,4.187c-.146,0-.293,0-.439,0C-193.229,1867.078-193.229,1867.078-193.205,1865.6Z" transform="translate(-264.432 -119.869)" fill="#fdd3b2"/>
    <path id="Trazado_170260" data-name="Trazado 170260" d="M-413.713,1860.213c0,1.537,0,1.537-1.509,1.538-1.4,0-1.992.374-2,1.265-.01.916.664,1.368,2.051,1.375,1.446.007,1.446.007,1.468,1.5.023,1.542.023,1.542-1.555,1.534a4.4,4.4,0,0,1-4.6-4.4,4.4,4.4,0,0,1,4.6-4.391C-413.713,1858.628-413.713,1858.628-413.713,1860.213Z" transform="translate(-91.028 -120.218)" fill="#fdd3b2"/>
    <path id="Trazado_170261" data-name="Trazado 170261" d="M-221.642,1867.365l0-8.742c1.14-.006,2.281.01,3.42-.027.508-.017.644.168.639.655-.025,2.31,0,4.621-.031,6.931-.017,1.21-.055,1.214-1.226,1.209C-219.771,1867.388-220.707,1867.374-221.642,1867.365Z" transform="translate(-242.68 -120.187)" fill="#5e6a76"/>
    <path id="Trazado_170262" data-name="Trazado 170262" d="M-216.34,1836.131c.819,0,1.638.016,2.456-.006.414-.011.537.138.562.552.129,2.107.141,2.107-1.986,2.107-1.2,0-2.4-.017-3.6.008-.456.01-.589-.14-.608-.6-.082-2.063-.1-2.063,1.943-2.063Z" transform="translate(-244.29 -102.996)" fill="#5e6a76"/>
    <path id="Trazado_170263" data-name="Trazado 170263" d="M-390.774,1838.643c-.438,0-.877.021-1.313-.005-.543-.033-1.411.248-1.562-.123a6.494,6.494,0,0,1-.125-2.23c-.005-.3.226-.285.431-.286a43.789,43.789,0,0,1,5.246.056c1.031.125.284,1.23.459,1.868.094.341.123.763-.51.731C-389.021,1838.61-389.9,1838.643-390.774,1838.643Z" transform="translate(-110.963 -102.859)" fill="#8d9aa7"/>
    <path id="Trazado_170264" data-name="Trazado 170264" d="M-265.72,1716.889c.072-.125.129-.129.168.021Z" transform="translate(-208.957 -11.702)" fill="#8d9aa7"/>
    <path id="Trazado_170265" data-name="Trazado 170265" d="M-446.913,1997.054c-4.16,0-8.322-.08-12.479.025-3.322.084-4.974-2.134-4.758-4.726.095-1.135.011-2.284.017-3.426a3.94,3.94,0,0,1,4.182-4.178c1.611-.011,3.222,0,4.834,0q10.458,0,20.917,0c3,0,4.521,1.53,4.522,4.544,0,1.172,0,2.344,0,3.516a3.944,3.944,0,0,1-4.139,4.234c-2.46.05-4.921.012-7.382.013Zm.009-9.67q-6.414,0-12.828,0c-1.364,0-1.762.411-1.765,1.788q0,1.626,0,3.251c0,1.643.351,1.991,2.023,1.992q9.358,0,18.715,0c2.255,0,4.51.012,6.766-.005,1.243-.01,1.673-.469,1.678-1.717.005-1.142,0-2.285,0-3.427,0-1.5-.372-1.882-1.848-1.883Q-440.533,1987.381-446.9,1987.384Z" transform="translate(-57.131 -216.699)" fill="#020202"/>
    <path id="Trazado_170266" data-name="Trazado 170266" d="M-316.548,1919.3a11.647,11.647,0,0,1,5.861,1.734c.9.557,1.159,1.243.752,1.955-.423.742-1.173.845-2.124.3a9.032,9.032,0,0,0-9.643.061c-.932.546-1.7.444-2.129-.3-.4-.7-.141-1.384.752-1.95A12.185,12.185,0,0,1-316.548,1919.3Z" transform="translate(-164.357 -166.63)" fill="#020202"/>
    <path id="Trazado_170267" data-name="Trazado 170267" d="M-260.925,1869.231c0,.467.033.938-.008,1.4a1.247,1.247,0,0,1-1.353,1.2,1.2,1.2,0,0,1-1.25-1.209,24.609,24.609,0,0,1,0-2.8,1.2,1.2,0,0,1,1.259-1.2,1.247,1.247,0,0,1,1.343,1.209C-260.893,1868.294-260.925,1868.764-260.925,1869.231Z" transform="translate(-210.599 -126.327)" fill="#020202"/>
    <path id="Trazado_170268" data-name="Trazado 170268" d="M-332.023,1869.278a11.744,11.744,0,0,1-.011,1.4,1.208,1.208,0,0,1-1.295,1.163,1.178,1.178,0,0,1-1.3-1.155,21.237,21.237,0,0,1,0-2.888,1.178,1.178,0,0,1,1.289-1.162,1.2,1.2,0,0,1,1.3,1.154A12.319,12.319,0,0,1-332.023,1869.278Z" transform="translate(-156.204 -126.339)" fill="#020202"/>
    <path id="Trazado_170269" data-name="Trazado 170269" d="M-431.989,1941.682a8.391,8.391,0,0,1,1.137.009,1.223,1.223,0,0,1,1.163,1.3,1.2,1.2,0,0,1-1.165,1.293,16.4,16.4,0,0,1-2.276.01,1.276,1.276,0,0,1-1.259-1.306,1.29,1.29,0,0,1,1.262-1.305c.377-.029.759-.005,1.138-.005Z" transform="translate(-79.914 -183.742)" fill="#020202"/>
    <path id="Trazado_170270" data-name="Trazado 170270" d="M-400.625,1944.255a7.864,7.864,0,0,1-1.137-.01,1.224,1.224,0,0,1-1.154-1.308,1.2,1.2,0,0,1,1.172-1.285,16.851,16.851,0,0,1,2.276-.008,1.275,1.275,0,0,1,1.252,1.311,1.3,1.3,0,0,1-1.27,1.3c-.377.029-.759.005-1.138.005Z" transform="translate(-103.993 -183.7)" fill="#020202"/>
    <path id="Trazado_170271" data-name="Trazado 170271" d="M-438.209,1995.981q6.37,0,12.74,0c1.476,0,1.847.382,1.848,1.883,0,1.142,0,2.284,0,3.427-.005,1.248-.435,1.707-1.678,1.717-2.255.017-4.51.005-6.766.005q-9.358,0-18.715,0c-1.672,0-2.022-.349-2.023-1.992q0-1.626,0-3.251c0-1.377.4-1.786,1.765-1.788Q-444.623,1995.977-438.209,1995.981Zm-7.215,3.485a1.562,1.562,0,0,0-1.574-1.538,1.566,1.566,0,0,0-1.581,1.533,1.563,1.563,0,0,0,1.618,1.583A1.564,1.564,0,0,0-445.424,1999.467Zm4.265,1.578a1.564,1.564,0,0,0,1.536-1.579,1.565,1.565,0,0,0-1.662-1.537,1.566,1.566,0,0,0-1.491,1.62A1.563,1.563,0,0,0-441.159,2001.045Zm7.337-1.583a1.561,1.561,0,0,0-1.579-1.533,1.567,1.567,0,0,0-1.576,1.538,1.564,1.564,0,0,0,1.623,1.578A1.563,1.563,0,0,0-433.822,1999.462Zm4.2,1.583a1.563,1.563,0,0,0,1.6-1.515,1.561,1.561,0,0,0-1.509-1.6,1.573,1.573,0,0,0-1.645,1.557A1.564,1.564,0,0,0-429.621,2001.045Z" transform="translate(-65.826 -225.296)" fill="#d8d8d8"/>
    <path id="Trazado_170272" data-name="Trazado 170272" d="M-431.665,2005.81a1.564,1.564,0,0,1-1.537,1.578,1.563,1.563,0,0,1-1.618-1.583,1.566,1.566,0,0,1,1.581-1.533A1.562,1.562,0,0,1-431.665,2005.81Z" transform="translate(-79.585 -231.64)" fill="#020202"/>
    <path id="Trazado_170273" data-name="Trazado 170273" d="M-408.508,2007.386a1.563,1.563,0,0,1-1.617-1.5,1.566,1.566,0,0,1,1.491-1.62,1.565,1.565,0,0,1,1.662,1.537A1.564,1.564,0,0,1-408.508,2007.386Z" transform="translate(-98.477 -231.638)" fill="#020202"/>
    <path id="Trazado_170274" data-name="Trazado 170274" d="M-382.282,2005.805a1.563,1.563,0,0,1-1.531,1.583,1.564,1.564,0,0,1-1.623-1.578,1.567,1.567,0,0,1,1.576-1.538A1.561,1.561,0,0,1-382.282,2005.805Z" transform="translate(-117.366 -231.64)" fill="#020202"/>
    <path id="Trazado_170275" data-name="Trazado 170275" d="M-359.192,2007.385a1.564,1.564,0,0,1-1.556-1.56,1.573,1.573,0,0,1,1.645-1.557,1.561,1.561,0,0,1,1.509,1.6A1.563,1.563,0,0,1-359.192,2007.385Z" transform="translate(-136.255 -231.636)" fill="#020202"/>
  </g>
</svg>
