<svg xmlns="http://www.w3.org/2000/svg" width="90" height="89.934" viewBox="0 0 90 89.934">
  <g id="Grupo_110882" data-name="Grupo 110882" transform="translate(680.208 -1742.098)">
    <path id="Trazado_170303" data-name="Trazado 170303" d="M-637.844,1742.1h.7a10.276,10.276,0,0,0,3.867,0h.352c.075.24.279.151.437.167,1.338.135,2.689.189,4.013.411,13.622,2.281,24.19,9.222,31.5,20.948.917,1.47,1.8,2.115,3.469,1.892a2.85,2.85,0,0,1,3.292,2.07v39.2a3.228,3.228,0,0,1-3.559,1.919c-.406-.041-.824.031-1.229-.015a1.117,1.117,0,0,0-1.224.7,44.659,44.659,0,0,1-46.725,21.94c-12.9-2.291-22.942-9.1-30.136-20.069-.528-.805-.828-1.9-1.551-2.4-.765-.531-1.923-.116-2.908-.164a2.643,2.643,0,0,1-2.661-2.691q-.016-18.894,0-37.788a2.635,2.635,0,0,1,2.717-2.719,13.522,13.522,0,0,1,1.844.011,1.439,1.439,0,0,0,1.564-.89q11.19-18.695,32.74-22.03A18.524,18.524,0,0,0-637.844,1742.1Zm.143,65.248c.323-1.093.595-1.286,1.849-1.286q21.045,0,42.09,0c.493,0,.936.115.935-.705q-.041-18.277-.007-36.554c0-.559-.179-.679-.7-.677-5.126.022-10.252.018-15.377.023a.913.913,0,0,0-.735.193c-.755.758-1.52,1.506-2.442,2.417H-611q3.69.006,7.381.014c1.261,0,1.7.416,1.793,1.64a4.975,4.975,0,0,0,4.6,4.708c1.429.136,1.744.486,1.744,1.952q0,7.952,0,15.9c0,1.677-.243,1.941-1.949,2.117a5.019,5.019,0,0,0-4.388,4.454c-.134,1.581-.465,1.877-2.1,1.878q-19.947.007-39.893.018c-.343,0-.748-.144-1.02.113-.813.771-1.588,1.582-2.5,2.5,1.815,0,3.422.025,5.028-.01a1.457,1.457,0,0,1,1.678,1.3c-.288,1.071-.627,1.349-1.715,1.352-2.343.007-4.685,0-7.028,0a1.16,1.16,0,0,0-.955.29q-2.834,2.879-5.712,5.715c-.377.372-.315.587.1.885a34.624,34.624,0,0,0,18.193,6.655,34.771,34.771,0,0,0,18.656-3.834,1.433,1.433,0,0,1,2.016.388c.3,1.086.126,1.5-.927,2.03a37.584,37.584,0,0,1-21.27,3.924,37.337,37.337,0,0,1-18.346-7.12,2.967,2.967,0,0,1-1.354-2.43,3.351,3.351,0,0,1,1.227-2.515q24.059-24.036,48.1-48.087c1.874-1.874,3.57-1.738,5.2.408.153.2.255.483.577.483,1.618,0,3.237,0,4.927,0a41.981,41.981,0,0,0-39.735-20.541,41.433,41.433,0,0,0-18.894,6.245,42,42,0,0,0-13.988,14.3c1.655,0,3.116-.019,4.577.011a1.171,1.171,0,0,0,1.083-.548c6.675-8.962,15.525-14.261,26.657-15.5a36.8,36.8,0,0,1,26.478,7.135,2.887,2.887,0,0,1,.356,4.628q-12.386,12.408-24.791,24.8c-.76.76-1.222.794-2.169.216a1.516,1.516,0,0,1,.321-2.11c2.5-2.469,4.974-4.969,7.466-7.448.656-.652,1.345-1.272,2.057-1.943a13.566,13.566,0,0,0-15.737,3.1c-4.084,4.411-4.488,10.814-2.309,14.856,1.353-1.361,2.69-2.715,4.036-4.059.8-.8,1.151-.836,2.162-.29.54,1.047.492,1.362-.375,2.229q-9.537,9.541-19.076,19.079c-1.777,1.778-3.6,1.641-5.092-.384-.168-.227-.272-.559-.622-.561-1.62-.01-3.241,0-4.928,0a41.989,41.989,0,0,0,39.634,20.547,41.393,41.393,0,0,0,18.907-6.2,42.051,42.051,0,0,0,14.065-14.348c-1.624,0-3.057.029-4.487-.014a1.291,1.291,0,0,0-1.228.62,36.943,36.943,0,0,1-7.838,8,1.412,1.412,0,0,1-2.162-.117,1.407,1.407,0,0,1,.543-1.972q.7-.523,1.376-1.088a33.685,33.685,0,0,0,5.225-5.43h-1.086q-13.694,0-27.389,0C-637.081,1808.7-637.418,1808.438-637.7,1807.346Zm-22.126-6.6c1.11.015,2.222.007,3.331.055a1.661,1.661,0,0,0,1.383-.555c1.527-1.576,3.068-3.14,4.658-4.651.623-.592.906-1.066.374-1.9a10.9,10.9,0,0,1-.8-2.031c-1.759-7.368.326-13.37,6.382-17.962.088-.067.2-.135.119-.29q-10.529,0-21.069-.008c-.433,0-.585.148-.7.567a7.541,7.541,0,0,1-5.611,5.589c-.351.1-.533.215-.532.638q.026,6.894,0,13.789a.525.525,0,0,0,.45.612,7.53,7.53,0,0,1,5.71,5.7.525.525,0,0,0,.6.474C-663.632,1800.76-661.73,1800.758-659.827,1800.75Zm49.24-27.305c-1.11-.015-2.222-.007-3.331-.056a1.661,1.661,0,0,0-1.383.556c-1.527,1.576-3.067,3.141-4.658,4.652-.624.593-.9,1.067-.375,1.9a11.032,11.032,0,0,1,.8,2.031c1.758,7.336-.325,13.318-6.319,17.921-.107.082-.268.135-.176.341q10.494,0,21,0c.374,0,.638-.011.764-.49a7.486,7.486,0,0,1,5.636-5.665c.369-.1.519-.246.517-.651q-.021-6.9,0-13.8a.526.526,0,0,0-.452-.613,7.512,7.512,0,0,1-5.708-5.7.525.525,0,0,0-.6-.468C-606.781,1773.427-608.685,1773.433-610.588,1773.445Zm-52.386-7.985c.249.021.335.034.423.034q20.781,0,41.562.013a1.369,1.369,0,0,0,1.061-.465c1.751-1.769,3.492-3.55,5.286-5.276.6-.573.63-.843-.089-1.357a35.178,35.178,0,0,0-40.338-.393A34.927,34.927,0,0,0-662.974,1765.459Zm4.586,38.046c-.23-.047-.259-.057-.288-.057q-4.041-.006-8.082-.012c-1.308,0-1.755-.418-1.842-1.686a4.966,4.966,0,0,0-4.552-4.658c-1.479-.13-1.791-.477-1.792-2q0-7.907,0-15.813c0-1.762.234-2.024,1.962-2.193a5.024,5.024,0,0,0,4.369-4.376c.162-1.679.458-1.954,2.115-1.954q19.986,0,39.973-.006c.338,0,.708.122,1.008-.155l2.411-2.226-.181-.231h-4.2q-24.687,0-49.373,0c-.506,0-.715.089-.714.665q.025,18.274,0,36.547c0,.51.1.713.668.711,5.125-.022,10.25-.013,15.374-.012a1,1,0,0,0,.808-.234C-659.985,1805.07-659.234,1804.342-658.388,1803.506Zm35.644-21.854-17.922,17.92a13.5,13.5,0,0,0,15.318-3.016C-621.163,1792.2-620.6,1785.825-622.744,1781.652Z" fill="#030202"/>
    <path id="Trazado_170304" data-name="Trazado 170304" d="M-493.011,1742.1a10.276,10.276,0,0,1-3.867,0Z" transform="translate(-140.263)" fill="#7fd060"/>
    <path id="Trazado_170305" data-name="Trazado 170305" d="M-611.193,1795.082c.946.578,1.409.543,2.169-.216q12.4-12.393,24.791-24.8a2.887,2.887,0,0,0-.356-4.628,36.8,36.8,0,0,0-26.478-7.135c-11.132,1.235-19.982,6.534-26.657,15.5a1.171,1.171,0,0,1-1.083.548c-1.461-.03-2.923-.011-4.577-.011a42,42,0,0,1,13.988-14.3A41.431,41.431,0,0,1-610.5,1753.8a41.981,41.981,0,0,1,39.735,20.541c-1.69,0-3.309,0-4.927,0-.322,0-.424-.281-.577-.483-1.625-2.146-3.321-2.282-5.2-.408q-24.05,24.046-48.1,48.087a3.351,3.351,0,0,0-1.227,2.515,2.966,2.966,0,0,0,1.354,2.43,37.335,37.335,0,0,0,18.346,7.12,37.583,37.583,0,0,0,21.27-3.924c1.053-.531,1.231-.944.927-2.031a9.243,9.243,0,0,0,2.5-1.608,1.412,1.412,0,0,0,2.162.117,36.94,36.94,0,0,0,7.838-8,1.291,1.291,0,0,1,1.228-.62c1.431.043,2.863.014,4.487.014a42.051,42.051,0,0,1-14.065,14.348,41.393,41.393,0,0,1-18.907,6.2,41.989,41.989,0,0,1-39.634-20.547c1.687,0,3.307-.005,4.928,0,.35,0,.455.334.622.561,1.494,2.024,3.315,2.161,5.092.384q9.537-9.54,19.076-19.079c.867-.867.915-1.181.375-2.229A13.178,13.178,0,0,0-611.193,1795.082Z" transform="translate(-28.173 -8.845)" fill="#c99a28"/>
    <path id="Trazado_170306" data-name="Trazado 170306" d="M-434.21,1875.4c1.9-.012,3.806-.017,5.709-.04a.525.525,0,0,1,.6.468,7.512,7.512,0,0,0,5.708,5.7.526.526,0,0,1,.452.613q-.017,6.9,0,13.8c0,.4-.148.552-.517.651a7.486,7.486,0,0,0-5.636,5.665c-.126.479-.39.49-.764.49q-10.5-.007-21,0c-.092-.206.069-.259.176-.341,5.993-4.6,8.076-10.585,6.319-17.921q4.34-4.319,8.675-8.642A2.158,2.158,0,0,0-434.21,1875.4Z" transform="translate(-176.378 -101.96)" fill="#acdf93"/>
    <path id="Trazado_170307" data-name="Trazado 170307" d="M-634.059,1902.735c-1.9.008-3.8.01-5.706.03a.526.526,0,0,1-.6-.474,7.53,7.53,0,0,0-5.71-5.7.525.525,0,0,1-.45-.612q.017-6.894,0-13.789c0-.423.18-.543.532-.638a7.541,7.541,0,0,0,5.611-5.589c.117-.418.269-.567.7-.567q10.537.017,21.069.008c.078.154-.031.223-.119.29-6.056,4.592-8.141,10.594-6.383,17.962q-4.34,4.319-8.675,8.642A2.157,2.157,0,0,0-634.059,1902.735Z" transform="translate(-25.768 -101.985)" fill="#acdf93"/>
    <path id="Trazado_170308" data-name="Trazado 170308" d="M-530.624,1892.111h-2.923a1.457,1.457,0,0,0-1.678-1.3c-1.606.035-3.212.01-5.028.01.915-.922,1.69-1.733,2.5-2.5.272-.257.677-.113,1.02-.113q19.947-.015,39.893-.018c1.632,0,1.963-.3,2.1-1.878a5.019,5.019,0,0,1,4.388-4.454c1.705-.177,1.948-.44,1.949-2.117q0-7.952,0-15.9c0-1.466-.315-1.816-1.744-1.952a4.975,4.975,0,0,1-4.6-4.708c-.09-1.224-.533-1.635-1.793-1.64q-3.69-.013-7.381-.014h-1.086c.923-.911,1.688-1.659,2.442-2.417a.912.912,0,0,1,.735-.193c5.126,0,10.252,0,15.377-.023.523,0,.7.118.7.677q-.024,18.277.007,36.554c0,.82-.442.705-.935.705q-21.045,0-42.09,0C-530.029,1890.825-530.3,1891.018-530.624,1892.111Z" transform="translate(-107.078 -84.764)" fill="#7fd060"/>
    <path id="Trazado_170309" data-name="Trazado 170309" d="M-649.8,1888.314c-.846.836-1.6,1.564-2.33,2.308a1,1,0,0,1-.808.234c-5.125,0-10.25-.01-15.374.012-.571,0-.668-.2-.668-.711q.018-18.274,0-36.547c0-.576.208-.665.714-.665q24.687.013,49.373,0h4.2l.181.231-2.411,2.226c-.3.277-.67.155-1.008.155q-19.986.01-39.973.006c-1.657,0-1.953.274-2.115,1.954a5.023,5.023,0,0,1-4.369,4.376c-1.727.169-1.962.431-1.962,2.193q0,7.906,0,15.813c0,1.521.312,1.868,1.792,2a4.966,4.966,0,0,1,4.552,4.658c.087,1.268.534,1.682,1.842,1.686q4.041.011,8.082.012C-650.059,1888.256-650.03,1888.267-649.8,1888.314Z" transform="translate(-8.588 -84.808)" fill="#7fd060"/>
    <path id="Trazado_170310" data-name="Trazado 170310" d="M-537.311,1888.331a13.181,13.181,0,0,1-2,2.105c-1.011-.546-1.366-.506-2.162.29-1.346,1.344-2.683,2.7-4.036,4.059-2.178-4.042-1.774-10.446,2.31-14.857a13.567,13.567,0,0,1,15.737-3.1c-.712.671-1.4,1.291-2.057,1.943-2.492,2.479-4.964,4.979-7.466,7.448A1.516,1.516,0,0,0-537.311,1888.331Z" transform="translate(-102.054 -102.093)" fill="#fbe259"/>
    <path id="Trazado_170311" data-name="Trazado 170311" d="M-493.96,1910.473c2.14,4.173,1.581,10.546-2.6,14.9a13.5,13.5,0,0,1-15.318,3.016Z" transform="translate(-128.785 -128.821)" fill="#fbe259"/>
    <path id="Trazado_170312" data-name="Trazado 170312" d="M-416.494,1875.347a2.154,2.154,0,0,1-.267.436q-4.332,4.327-8.675,8.642a11.026,11.026,0,0,0-.8-2.031c-.529-.829-.249-1.3.375-1.9,1.591-1.511,3.131-3.076,4.658-4.652a1.661,1.661,0,0,1,1.382-.556C-418.715,1875.34-417.6,1875.331-416.494,1875.347Z" transform="translate(-194.094 -101.902)" fill="#7fd060"/>
    <path id="Trazado_170313" data-name="Trazado 170313" d="M-593.45,1962.2a2.156,2.156,0,0,1,.268-.436q4.332-4.326,8.675-8.642a10.912,10.912,0,0,0,.8,2.031c.531.83.249,1.3-.374,1.9-1.591,1.511-3.131,3.076-4.658,4.651a1.661,1.661,0,0,1-1.383.555C-591.228,1962.211-592.34,1962.219-593.45,1962.2Z" transform="translate(-66.377 -161.454)" fill="#7fd060"/>
  </g>
</svg>
