<svg xmlns="http://www.w3.org/2000/svg" width="90" height="89.987" viewBox="0 0 90 89.987">
  <g id="Grupo_110868" data-name="Grupo 110868" transform="translate(656.493 -1699.845)">
    <path id="Trazado_170288" data-name="Trazado 170288" d="M-644.386,1853.012c-.214.188-.284.246-.349.309-1.7,1.668-1.7,1.664-3.28-.22-.186-.222-.267-.351-.028-.588q2.415-2.393,4.806-4.811c.278-.282.429-.178.652.047q2.331,2.349,4.683,4.678c.276.272.326.478,0,.717-.024.018-.041.044-.064.063-.592.484-1.02,1.524-1.7,1.424-.622-.09-1.129-.973-1.742-1.558a37.594,37.594,0,0,0,5.736,23.255c0-1.291,0-2.323,0-3.357a2.936,2.936,0,0,1,3.223-3.187q27.248,0,54.5,0a2.933,2.933,0,0,1,3.234,3.269q0,12.694,0,25.389a2.936,2.936,0,0,1-3.235,3.269q-27.248,0-54.5,0a2.936,2.936,0,0,1-3.222-3.282q0-8.206.008-16.412a1.881,1.881,0,0,0-.413-1.234,39.044,39.044,0,0,1-8.3-24.738C-644.381,1855.089-644.386,1854.132-644.386,1853.012Zm52.246,32.78a13.087,13.087,0,0,0-12.97-13.106,13.08,13.08,0,0,0-13.151,13.013,13.088,13.088,0,0,0,12.969,13.108A13.089,13.089,0,0,0-592.141,1885.792ZM-596,1872.687c4.4,3.417,6.736,7.684,6.738,13.054,0,5.387-2.352,9.669-6.729,13.067,3.263,0,6.332,0,9.4,0,.308,0,.386-.148.449-.427a10.01,10.01,0,0,1,8.058-8.078c.329-.076.458-.18.457-.517q-.012-4.032,0-8.065c0-.321-.1-.454-.439-.533a10.007,10.007,0,0,1-8.07-8.066c-.078-.341-.207-.442-.53-.442C-589.7,1872.689-592.745,1872.687-596,1872.687Zm-18.492,0c-3.183,0-6.248.006-9.313-.007-.462,0-.413.31-.484.6a10.053,10.053,0,0,1-7.939,7.889c-.478.113-.557.3-.555.712.011,2.568.016,5.135,0,7.7,0,.471.119.638.613.757a9.972,9.972,0,0,1,7.858,7.847c.135.558.352.636.834.633,2.749-.017,5.5,0,8.246-.016.213,0,.475.128.655-.123A16.067,16.067,0,0,1-614.489,1872.688Zm-18.23,2.813h-.056c0,.785.009,1.571,0,2.356-.006.347.063.465.462.386a7.534,7.534,0,0,0,5.094-5.086c.079-.376,0-.483-.367-.476-.785.016-1.572-.019-2.356.01-.924.035-2.162-.4-2.68.186C-633.074,1873.387-632.72,1874.6-632.72,1875.5Zm52.281-2.756v-.058c-.786,0-1.571.009-2.357,0-.343-.005-.47.059-.392.46a7.533,7.533,0,0,0,5.085,5.095c.37.078.487.015.479-.363-.016-.785.019-1.572-.01-2.356-.034-.925.4-2.163-.184-2.681C-578.324,1872.39-579.538,1872.744-580.439,1872.744Zm-49.527,26.005v.059c.786,0,1.571-.009,2.357,0,.34.005.471-.053.392-.458a7.535,7.535,0,0,0-5.083-5.1c-.367-.077-.489-.018-.481.362.016.785-.018,1.572.01,2.356.034.925-.4,2.163.183,2.681C-632.081,1899.1-630.867,1898.75-629.966,1898.75Zm52.337-5.524a6.9,6.9,0,0,0-5.576,5.583c1.7,0,3.385,0,5.074,0,.311,0,.512-.035.508-.43C-577.637,1896.666-577.628,1894.951-577.628,1893.225Z" transform="translate(-6.29 -111.881)" fill="#020201"/>
    <path id="Trazado_170289" data-name="Trazado 170289" d="M-597.366,1708.166c-.295-.63-.556-1.226-.85-1.8-.175-.344-.077-.5.251-.68,2.129-1.142,2.125-1.15,3.127,1,.662,1.42,1.308,2.848,1.993,4.257.222.457.255.686-.306.932-1.93.848-3.835,1.757-5.734,2.674-.463.224-.673.167-.853-.327-.246-.674-.9-1.393-.773-1.956.137-.6,1.172-.676,1.8-1.018a3.222,3.222,0,0,0,.3-.224,33.309,33.309,0,0,0-6.48-1.857,36.143,36.143,0,0,0-19.591,1.807c-.56.211-.712.441-.563,1.044a15.9,15.9,0,0,1-13.442,19.623,15.98,15.98,0,0,1-17.96-16.965,16.069,16.069,0,0,1,12.313-14.413,15.922,15.922,0,0,1,17.373,7.538c.406.71.714.686,1.363.442a38.738,38.738,0,0,1,26.949-.353A2.494,2.494,0,0,0-597.366,1708.166Zm-43.123-5.41a13.084,13.084,0,0,0-13.087,12.986,13.086,13.086,0,0,0,13.031,13.134,13.092,13.092,0,0,0,13.089-12.988A13.084,13.084,0,0,0-640.489,1702.756Z" transform="translate(0 0)" fill="#040403"/>
    <path id="Trazado_170290" data-name="Trazado 170290" d="M-392.514,1792.711l.476-.217c.565-.259,1.3-1.013,1.619-.753a7.481,7.481,0,0,1,1.313,2.121c.171.295-.067.363-.242.46-1.976,1.1-3.959,2.185-5.927,3.3-.312.176-.422.053-.553-.184-1.093-1.979-2.18-3.963-3.293-5.931-.205-.363-.027-.48.239-.6.73-.32,1.451-1.214,2.1-.967.568.216.825,1.251,1.28,2.026a29.929,29.929,0,0,0,1.2-5.066,35.664,35.664,0,0,0,.375-8.132c-.039-.552-.181-.631-.685-.4A15.964,15.964,0,0,1-416.8,1766.8a16.041,16.041,0,0,1,13.536-18.777,15.811,15.811,0,0,1,17.814,12.849c1.124,5.893-.753,10.9-5.168,14.94a1.416,1.416,0,0,0-.556,1.374,38.8,38.8,0,0,1-1.293,14.891C-392.52,1792.272-392.642,1792.462-392.514,1792.711Zm-8.546-41.948a13.084,13.084,0,0,0-13.1,12.972,13.087,13.087,0,0,0,13.017,13.148,13.092,13.092,0,0,0,13.1-12.974A13.083,13.083,0,0,0-401.059,1750.764Z" transform="translate(-181.365 -36.398)" fill="#040403"/>
    <path id="Trazado_170291" data-name="Trazado 170291" d="M-498.626,1964.391a13.089,13.089,0,0,1-13.153,13.016,13.088,13.088,0,0,1-12.969-13.108,13.08,13.08,0,0,1,13.151-13.013A13.087,13.087,0,0,1-498.626,1964.391ZM-510.235,1956c0-1.817,0-1.817-1.574-1.817a4.43,4.43,0,0,1-.634,0c-.547-.08-.734.107-.712.684.027.713.324,1.651-.121,2.089s-1.379.148-2.092.116c-.593-.027-.7.189-.683.721.038,1.208,0,2.418.015,3.627a4.362,4.362,0,0,0,4.106,4.371,3.006,3.006,0,0,1,.541.043,1.374,1.374,0,0,1,1.128,1.26c.037.523.28,1.211-.126,1.555-.828.7-2.62-.232-2.747-1.341-.057-.5.248-1.174-.169-1.441-.367-.235-1-.063-1.508-.068-.272,0-.544.005-.816,0-.234-.006-.363.033-.421.325a4.615,4.615,0,0,0,2.1,4.769,1.394,1.394,0,0,1,.834,1.459c-.047,2.2-.017,2.175,2.192,2.17.546,0,.732-.118.711-.694-.026-.713-.324-1.651.122-2.089s1.379-.148,2.093-.116c.594.027.7-.19.682-.721-.037-1.208,0-2.418-.016-3.627a4.361,4.361,0,0,0-4.106-4.371,3.137,3.137,0,0,1-.541-.042,1.35,1.35,0,0,1-1.114-1.17c-.057-.55-.312-1.274.114-1.643.819-.71,2.617.229,2.745,1.34.057.5-.248,1.174.169,1.441.367.235,1,.063,1.509.068.272,0,.544-.006.816,0,.235.006.4-.023.415-.327.116-1.844-.168-3.613-1.871-4.6A1.7,1.7,0,0,1-510.235,1956Z" transform="translate(-99.805 -190.48)" fill="#f9d56f"/>
    <path id="Trazado_170292" data-name="Trazado 170292" d="M-432.911,1951.274c3.252,0,6.293,0,9.334,0,.323,0,.452.1.53.442a10.007,10.007,0,0,0,8.07,8.066c.344.079.439.213.439.533q-.01,4.032,0,8.065c0,.337-.128.441-.457.517a10.01,10.01,0,0,0-8.058,8.078c-.064.279-.141.427-.449.427-3.068-.005-6.137,0-9.4,0,4.377-3.4,6.732-7.68,6.729-13.067C-426.175,1958.958-428.511,1954.691-432.911,1951.274Z" transform="translate(-169.375 -190.468)" fill="#b2db7e"/>
    <path id="Trazado_170293" data-name="Trazado 170293" d="M-566.352,1951.27a16.067,16.067,0,0,0-.089,25.991c-.18.251-.442.122-.655.123-2.749.011-5.5,0-8.246.016-.482,0-.7-.076-.834-.633a9.972,9.972,0,0,0-7.858-7.847c-.494-.119-.616-.286-.613-.757.02-2.567.015-5.135,0-7.7,0-.413.077-.6.555-.712a10.053,10.053,0,0,0,7.939-7.889c.071-.286.022-.6.484-.6C-572.6,1951.275-569.534,1951.27-566.352,1951.27Z" transform="translate(-54.427 -190.462)" fill="#b2db7e"/>
    <path id="Trazado_170294" data-name="Trazado 170294" d="M-584.794,1953.728c0-.9-.354-2.113.093-2.623.518-.59,1.756-.151,2.68-.186.784-.03,1.571.005,2.356-.01.371-.007.446.1.367.476a7.534,7.534,0,0,1-5.094,5.086c-.4.079-.468-.04-.462-.386.013-.785,0-1.571,0-2.356Z" transform="translate(-54.216 -190.108)" fill="#9ed167"/>
    <path id="Trazado_170295" data-name="Trazado 170295" d="M-377.4,1951.107c.9,0,2.115-.354,2.621.093.587.518.15,1.756.184,2.681.029.784-.006,1.571.01,2.356.008.378-.109.441-.479.363a7.533,7.533,0,0,1-5.085-5.095c-.078-.4.048-.466.392-.46.785.013,1.571,0,2.357,0Z" transform="translate(-209.331 -190.243)" fill="#9ed167"/>
    <path id="Trazado_170296" data-name="Trazado 170296" d="M-582.17,2041.531c-.9,0-2.116.354-2.621-.093-.586-.519-.149-1.756-.183-2.681-.029-.785.006-1.571-.01-2.356-.008-.38.113-.439.481-.362a7.535,7.535,0,0,1,5.083,5.1c.079.4-.052.464-.392.458-.785-.012-1.571,0-2.357,0Z" transform="translate(-54.086 -254.662)" fill="#9ed167"/>
    <path id="Trazado_170297" data-name="Trazado 170297" d="M-374.573,2036c0,1.725-.008,3.441.007,5.156,0,.395-.2.432-.508.43-1.689-.008-3.378,0-5.074,0A6.9,6.9,0,0,1-374.573,2036Z" transform="translate(-209.345 -254.655)" fill="#9ed167"/>
    <path id="Trazado_170298" data-name="Trazado 170298" d="M-631.375,1711.852a13.084,13.084,0,0,1,13.033,13.132,13.092,13.092,0,0,1-13.089,12.988,13.086,13.086,0,0,1-13.031-13.134A13.083,13.083,0,0,1-631.375,1711.852Zm-1.479,21.4c0,1.823,0,1.823,1.653,1.823a2.934,2.934,0,0,1,.453,0c.606.1.884-.092.809-.762-.061-.537.008-1.088-.019-1.631-.019-.386.1-.542.5-.521.6.031,1.211-.023,1.813.017.485.032.613-.143.6-.61-.03-1.269.01-2.539-.016-3.809a4.371,4.371,0,0,0-3.731-4.259c-.268-.041-.547-.012-.813-.06a1.354,1.354,0,0,1-1.213-1.175c-.072-.549-.3-1.266.1-1.647.776-.721,2.621.22,2.751,1.32.059.5-.246,1.195.162,1.442s1.053.072,1.6.08c.272,0,.544,0,.816,0,.218,0,.291-.09.339-.312a4.623,4.623,0,0,0-2.081-4.777,1.456,1.456,0,0,1-.848-1.54c.054-2.093.018-2.07-2.087-2.093-.605-.007-.885.1-.809.773.061.537-.008,1.088.019,1.631.019.385-.095.542-.5.521-.6-.031-1.211.023-1.813-.017-.484-.032-.613.141-.6.609.03,1.269-.009,2.539.016,3.809a4.371,4.371,0,0,0,3.731,4.259c.268.042.547.013.813.06a1.355,1.355,0,0,1,1.213,1.176c.073.548.305,1.266-.1,1.647-.776.72-2.622-.222-2.752-1.32-.058-.5.246-1.195-.162-1.442s-1.053-.072-1.6-.079c-.272,0-.544,0-.816,0-.218,0-.291.089-.34.312a4.5,4.5,0,0,0,1.862,4.612A1.666,1.666,0,0,1-632.854,1733.248Z" transform="translate(-9.114 -9.096)" fill="#f9d56f"/>
    <path id="Trazado_170299" data-name="Trazado 170299" d="M-391.924,1759.739a13.083,13.083,0,0,1,13.019,13.146,13.092,13.092,0,0,1-13.1,12.974,13.087,13.087,0,0,1-13.017-13.148A13.084,13.084,0,0,1-391.924,1759.739Zm1.41,4.735c0-1.834,0-1.834-1.627-1.834a4.7,4.7,0,0,1-.634,0c-.514-.07-.675.133-.653.647.03.718.251,1.68-.113,2.1-.431.494-1.418.154-2.16.145-.55-.006-.638.2-.627.683.029,1.208,0,2.418.013,3.627a4.355,4.355,0,0,0,4.16,4.411,1.937,1.937,0,0,1,1.628,2.711.4.4,0,0,1-.167.18,2,2,0,0,1-2.715-1.339c-.062-.5.239-1.2-.148-1.449s-1.047-.085-1.587-.1c-.242-.005-.484.008-.725,0-.275-.012-.412.045-.46.38a4.549,4.549,0,0,0,2.143,4.741,1.3,1.3,0,0,1,.784,1.4c-.034,2.258-.012,2.24,2.249,2.207.512-.007.674-.143.652-.656-.03-.718-.251-1.68.113-2.1.431-.494,1.419-.154,2.16-.145.551.006.638-.2.626-.684-.03-1.209,0-2.418-.013-3.627a4.356,4.356,0,0,0-4.16-4.411,1.934,1.934,0,0,1-1.628-2.71.4.4,0,0,1,.167-.18,2,2,0,0,1,2.715,1.339c.063.5-.239,1.2.149,1.449s1.047.084,1.587.1c.242.006.484-.008.725,0,.275.012.435-.037.456-.381.107-1.814-.2-3.525-1.84-4.537C-390.355,1765.871-390.75,1765.3-390.514,1764.474Z" transform="translate(-190.5 -45.373)" fill="#f9d56f"/>
    <path id="Trazado_170300" data-name="Trazado 170300" d="M-483.306,1965a1.7,1.7,0,0,0,1.035,1.961c1.7.991,1.988,2.76,1.871,4.6-.019.3-.18.333-.415.327-.272-.007-.544,0-.816,0-.513-.005-1.141.167-1.509-.068-.418-.267-.112-.946-.169-1.441-.128-1.111-1.926-2.049-2.745-1.34-.426.369-.172,1.093-.114,1.643a1.35,1.35,0,0,0,1.114,1.17,3.137,3.137,0,0,0,.541.042,4.361,4.361,0,0,1,4.106,4.371c.018,1.209-.022,2.419.016,3.627.016.531-.089.748-.682.721-.713-.032-1.649-.32-2.093.116s-.148,1.376-.122,2.089c.021.576-.165.693-.711.694-2.209.005-2.239.025-2.192-2.17a1.394,1.394,0,0,0-.834-1.459,4.615,4.615,0,0,1-2.1-4.769c.057-.292.186-.331.421-.325.272.007.544,0,.816,0,.513.005,1.141-.167,1.509.068.417.267.112.946.169,1.441.127,1.11,1.919,2.042,2.747,1.342.406-.344.163-1.032.126-1.555a1.374,1.374,0,0,0-1.128-1.26,3.006,3.006,0,0,0-.541-.043,4.362,4.362,0,0,1-4.106-4.371c-.018-1.209.022-2.419-.015-3.627-.017-.532.09-.747.683-.721.713.032,1.649.321,2.092-.116s.148-1.376.121-2.089c-.022-.578.165-.765.712-.684a4.413,4.413,0,0,0,.634,0C-483.306,1963.184-483.306,1963.184-483.306,1965Z" transform="translate(-126.733 -199.476)" fill="#020201"/>
    <path id="Trazado_170301" data-name="Trazado 170301" d="M-605.942,1742.265a1.666,1.666,0,0,0-1.047-1.96,4.5,4.5,0,0,1-1.862-4.612c.048-.222.122-.315.34-.312.272,0,.544,0,.816,0,.542.007,1.2-.164,1.6.079s.1.946.162,1.442c.129,1.1,1.976,2.04,2.752,1.32.409-.38.177-1.1.1-1.647a1.355,1.355,0,0,0-1.213-1.176c-.266-.047-.545-.019-.813-.06a4.371,4.371,0,0,1-3.731-4.259c-.025-1.269.014-2.54-.016-3.809-.011-.468.119-.641.6-.609.6.04,1.21-.014,1.813.017.409.021.523-.135.5-.521-.027-.543.042-1.094-.019-1.631-.076-.671.2-.78.809-.773,2.105.023,2.141,0,2.087,2.093a1.456,1.456,0,0,0,.848,1.54,4.623,4.623,0,0,1,2.081,4.777c-.048.222-.121.316-.339.312-.272,0-.544,0-.816,0-.542-.007-1.195.163-1.6-.079s-.1-.945-.162-1.442c-.13-1.1-1.975-2.041-2.751-1.32-.41.38-.177,1.1-.1,1.647a1.354,1.354,0,0,0,1.213,1.175c.266.047.545.018.813.06a4.371,4.371,0,0,1,3.731,4.259c.026,1.269-.014,2.54.016,3.809.011.468-.117.642-.6.61-.6-.041-1.21.014-1.812-.017-.409-.021-.524.134-.5.521.027.543-.042,1.093.019,1.631.075.67-.2.859-.809.762a2.933,2.933,0,0,0-.453,0C-605.942,1744.088-605.942,1744.088-605.942,1742.265Z" transform="translate(-36.026 -18.113)" fill="#020201"/>
    <path id="Trazado_170302" data-name="Trazado 170302" d="M-363.516,1773.482c-.236.829.16,1.4,1.069,1.957,1.644,1.013,1.948,2.724,1.84,4.537-.02.344-.18.393-.456.381-.241-.01-.484,0-.725,0-.54-.012-1.2.154-1.587-.1s-.086-.95-.149-1.449a2,2,0,0,0-2.715-1.339.4.4,0,0,0-.167.18,1.934,1.934,0,0,0,1.628,2.71,4.356,4.356,0,0,1,4.16,4.411c.016,1.209-.017,2.419.013,3.627.012.479-.076.69-.626.684-.742-.009-1.729-.349-2.16.145-.365.417-.144,1.38-.113,2.1.022.513-.14.648-.652.656-2.262.033-2.283.051-2.249-2.207a1.3,1.3,0,0,0-.784-1.4,4.55,4.55,0,0,1-2.143-4.741c.048-.335.185-.392.46-.38.241.01.484,0,.725,0,.54.012,1.2-.153,1.587.1s.086.95.148,1.449a2,2,0,0,0,2.715,1.339.4.4,0,0,0,.167-.18,1.938,1.938,0,0,0-1.628-2.711,4.354,4.354,0,0,1-4.16-4.411c-.015-1.209.017-2.419-.013-3.627-.012-.479.077-.689.627-.683.742.009,1.729.349,2.16-.145.365-.418.144-1.38.113-2.1-.022-.514.139-.717.653-.647a4.7,4.7,0,0,0,.634,0C-363.516,1771.647-363.516,1771.647-363.516,1773.482Z" transform="translate(-217.498 -54.381)" fill="#020201"/>
  </g>
</svg>
