<svg xmlns="http://www.w3.org/2000/svg" width="82.738" height="88.354" viewBox="0 0 82.738 88.354">
  <g id="Grupo_110854" data-name="Grupo 110854" transform="translate(457.723 -1636.695)">
    <path id="Trazado_170276" data-name="Trazado 170276" d="M-393.97,1725.048h-16.037c-2.19,0-2.844-.665-2.844-2.886,0-4.762-.015-9.524.016-14.286,0-.685-.127-.818-.8-.656a35.808,35.808,0,0,1-42.985-25.92,35.863,35.863,0,0,1,22.4-42.443,35.832,35.832,0,0,1,46.913,24.76,35.343,35.343,0,0,1,1.081,9.976,1.076,1.076,0,0,0,.563,1.12,10.263,10.263,0,0,1,5.059,8.957c.052,2.8.028,5.609,0,8.413-.007.579.158.776.733.9a6.178,6.178,0,0,1,4.875,5.965c.032,7.946.018,15.893.009,23.839a2.12,2.12,0,0,1-2.411,2.259Q-385.688,1725.053-393.97,1725.048ZM-403,1688.941c-.01,1.109,0,2.217-.04,3.324-.014.426.123.549.541.535a15.077,15.077,0,0,1,2.71.016c1.538.232,2.417-.451,3.272-1.659a32.422,32.422,0,0,0,5.705-13.74h-6.433a6.1,6.1,0,0,0-5.637,5.083A38.473,38.473,0,0,0-403,1688.941Zm-8.962,6.855.135-.193a6.48,6.48,0,0,1,4.14-2.683c.361-.059.458-.237.456-.59-.023-2.767-.027-5.535-.037-8.3a14.807,14.807,0,0,1,.361-3.059,11.24,11.24,0,0,1,4.428-6.146,10.675,10.675,0,0,1,5.757-1.69c1.868.01,3.737-.006,5.6.044.581.016.727-.145.719-.714a35.885,35.885,0,0,0-.884-7.371,31.723,31.723,0,0,0-29.658-24.177,31.293,31.293,0,0,0-22.1,8.11,28.18,28.18,0,0,0-6.99,9.173,6.742,6.742,0,0,0-.353.59,30.875,30.875,0,0,0-2.125,21.476,31.588,31.588,0,0,0,38.817,22.674c.613-.161.888-.392.871-1.1-.05-2.059-.246-4.157.873-6.054Zm18.046,25.032v.012c4.644,0,9.287-.015,13.93.017.666,0,.81-.173.808-.819-.023-6.864-.008-13.728-.01-20.592a2.164,2.164,0,0,0-2.484-2.454q-12.222,0-24.445.008c-1.732,0-2.52.785-2.52,2.509,0,6.834.019,13.669-.012,20.5,0,.743.26.829.89.826C-403.148,1720.818-398.534,1720.829-393.919,1720.829Zm1.449-28.036c2.423,0,4.758-.005,7.094.005.359,0,.586,0,.581-.489-.028-3.037.037-6.075-.051-9.11a5.486,5.486,0,0,0-1.965-4.062C-388.075,1684.464-388.075,1684.464-392.47,1692.793Z" transform="translate(0 0)" fill="#020201"/>
    <path id="Trazado_170277" data-name="Trazado 170277" d="M-366.046,1738.958c.01,2.768.014,5.535.037,8.3,0,.354-.094.531-.456.59a6.482,6.482,0,0,0-4.14,2.683l-.135.193.011-.012c-1.715.389-3.339,1.109-5.083,1.393-.582-1.428-1.268-1.87-2.757-1.7a21.09,21.09,0,0,1-5.328-.1A23.178,23.178,0,0,1-402.06,1718.4a22.07,22.07,0,0,1,8.162-9.973,1.23,1.23,0,0,0,.345.783c2,1.975,3.9,4.051,6.007,5.921-.181.142-.361.285-.544.426a7.586,7.586,0,0,0-2.367,9.786,7.256,7.256,0,0,0,6.658,4.131c1.926.052,3.855,0,5.782.019a3.5,3.5,0,0,1,3.584,3.518,3.49,3.49,0,0,1-3.529,3.486c-2.278.023-4.556,0-6.834.007a2.158,2.158,0,0,1-1.878-.928,2.64,2.64,0,0,1-.394-1.322,2.093,2.093,0,0,0-2.178-1.953,2.145,2.145,0,0,0-2.016,2.145,5.775,5.775,0,0,0,1.495,4.133,5.554,5.554,0,0,0,2.888,1.843,10.6,10.6,0,0,0,3.21.271c.723-.048.88.215.836.872a23.126,23.126,0,0,0,0,2.452,2.3,2.3,0,0,0,.16,1.169,1.941,1.941,0,0,0,2.288,1.1,2.151,2.151,0,0,0,1.738-2.025c.034-.992.035-1.986,0-2.978-.016-.468.135-.567.588-.585,3.82-.15,6.212-1.94,7.573-5.622a44.4,44.4,0,0,1,3.5,3.353C-366.714,1738.684-366.494,1739.023-366.046,1738.958Z" transform="translate(-41.225 -54.931)" fill="#ffe660"/>
    <path id="Trazado_170278" data-name="Trazado 170278" d="M-233.513,1917.942c-4.615,0-9.229-.01-13.843.012-.63,0-.893-.083-.89-.826.031-6.834.012-13.669.012-20.5,0-1.724.788-2.507,2.52-2.508q12.222-.008,24.445-.008a2.164,2.164,0,0,1,2.484,2.454c0,6.864-.013,13.728.01,20.591,0,.646-.142.824-.808.819-4.643-.032-9.287-.017-13.93-.017Zm.012-16.813v0c-1.838,0-3.676-.015-5.514.005a2.1,2.1,0,0,0-2.209,2.1A2.116,2.116,0,0,0-239,1905.33c.9.018,1.81.035,2.712-.009.534-.026.7.121.684.673-.039,1.691-.016,3.384-.016,5.076s.762,2.661,2.084,2.674,2.125-.968,2.127-2.632c0-1.721.017-3.443-.013-5.164-.009-.5.145-.648.636-.627.874.036,1.75.017,2.625.008a2.143,2.143,0,0,0,2.35-2.058,2.132,2.132,0,0,0-2.351-2.14C-229.942,1901.121-231.722,1901.128-233.5,1901.128Z" transform="translate(-160.406 -197.113)" fill="#28c65d"/>
    <path id="Trazado_170279" data-name="Trazado 170279" d="M-333.39,1725.308c-.448.065-.668-.274-.939-.527a44.433,44.433,0,0,0-3.5-3.353c.036-.2.074-.4.109-.6a7.634,7.634,0,0,0-6.729-9.122c-2.082-.208-4.2-.052-6.3-.071a3.507,3.507,0,0,1-3.637-3.466,3.5,3.5,0,0,1,3.65-3.538q3.284-.018,6.568,0a2.134,2.134,0,0,1,2.4,2.192,2.118,2.118,0,0,0,2.22,2.005,2.073,2.073,0,0,0,1.965-2.156,6.019,6.019,0,0,0-3.175-5.374,6.878,6.878,0,0,0-3.657-.885c-1.564.036-1.565.008-1.565-1.589,0-.584.011-1.168,0-1.752a2.176,2.176,0,0,0-2.235-2.252,2.043,2.043,0,0,0-1.967,2.256c-.015.934-.021,1.869,0,2.8.011.4-.084.572-.525.55a8.391,8.391,0,0,0-4.184,1.059c-2.1-1.871-4.005-3.947-6.007-5.921a1.231,1.231,0,0,1-.345-.783,22.069,22.069,0,0,1,10.857-4.054,23,23,0,0,1,24.744,17.4c.391,1.6,1,2.088,2.619,2.106.031,1.4.28,2.781.177,4.182a10.675,10.675,0,0,0-5.757,1.69,11.24,11.24,0,0,0-4.428,6.146A14.811,14.811,0,0,0-333.39,1725.308Z" transform="translate(-73.881 -41.281)" fill="#ffe660"/>
    <path id="Trazado_170280" data-name="Trazado 170280" d="M-371.6,1686.91c.1-1.4-.146-2.787-.177-4.182,1.443-.687,1.86-1.483,1.523-2.909-4.663-19.7-28.893-27.6-44.252-14.434a28.364,28.364,0,0,0-7.235,9.457c-.367,0-.542-.3-.764-.516-.806-.779-1.605-1.566-2.407-2.35a28.181,28.181,0,0,1,6.99-9.173,31.293,31.293,0,0,1,22.1-8.11,31.723,31.723,0,0,1,29.658,24.177,35.888,35.888,0,0,1,.884,7.371c.008.569-.138.729-.719.714C-367.865,1686.9-369.734,1686.92-371.6,1686.91Z" transform="translate(-25.123 -13.778)" fill="#ffe660"/>
    <path id="Trazado_170281" data-name="Trazado 170281" d="M-436.375,1728.494c.8.784,1.6,1.57,2.407,2.35.223.215.4.511.764.515-.078.216-.146.437-.236.648a26.666,26.666,0,0,0-1.8,15.41,27.294,27.294,0,0,0,29.483,22.54c1.691-.148,2.307-.791,2.381-2.486,1.744-.284,3.368-1,5.083-1.393-1.12,1.9-.923,3.995-.873,6.054.017.708-.258.939-.871,1.1a31.588,31.588,0,0,1-38.817-22.674,30.875,30.875,0,0,1,2.125-21.476A6.831,6.831,0,0,1-436.375,1728.494Z" transform="translate(-13.663 -70.295)" fill="#ffe660"/>
    <path id="Trazado_170282" data-name="Trazado 170282" d="M-218.507,1810.537h6.434a32.421,32.421,0,0,1-5.705,13.74c-.854,1.208-1.734,1.892-3.272,1.659a15.055,15.055,0,0,0-2.71-.016c-.417.013-.555-.11-.541-.536.037-1.107.029-2.216.04-3.324a.538.538,0,0,0,.346-.229A24.485,24.485,0,0,0-218.507,1810.537Z" transform="translate(-178.742 -133.119)" fill="#ffe660"/>
    <path id="Trazado_170283" data-name="Trazado 170283" d="M-218.634,1810.537a24.485,24.485,0,0,1-5.409,11.294.538.538,0,0,1-.346.229,38.476,38.476,0,0,1,.118-6.441A6.1,6.1,0,0,1-218.634,1810.537Z" transform="translate(-178.614 -133.119)" fill="#ffe660"/>
    <path id="Trazado_170284" data-name="Trazado 170284" d="M-262.388,1888.365l.135-.193Z" transform="translate(-149.577 -192.568)" fill="#f6ddaa"/>
    <path id="Trazado_170285" data-name="Trazado 170285" d="M-389.605,1724.715c-.074,1.695-.69,2.337-2.381,2.486a27.294,27.294,0,0,1-29.483-22.541,26.665,26.665,0,0,1,1.8-15.41c.09-.211.158-.432.236-.648a28.36,28.36,0,0,1,7.235-9.457c15.359-13.166,39.588-5.266,44.252,14.434.338,1.426-.079,2.222-1.523,2.909-1.615-.019-2.227-.511-2.619-2.106a23,23,0,0,0-24.744-17.4,22.066,22.066,0,0,0-10.857,4.054,22.07,22.07,0,0,0-8.162,9.972,23.178,23.178,0,0,0,18.161,31.91,21.09,21.09,0,0,0,5.328.1C-390.873,1722.845-390.188,1723.287-389.605,1724.715Z" transform="translate(-27.432 -27.538)" fill="#020201"/>
    <path id="Trazado_170286" data-name="Trazado 170286" d="M-346.524,1715.252a8.393,8.393,0,0,1,4.184-1.059c.441.021.536-.148.525-.55-.025-.934-.019-1.868,0-2.8a2.043,2.043,0,0,1,1.967-2.255,2.176,2.176,0,0,1,2.235,2.252c.014.584,0,1.168,0,1.751,0,1.6,0,1.625,1.565,1.589a6.878,6.878,0,0,1,3.657.885,6.019,6.019,0,0,1,3.175,5.374,2.073,2.073,0,0,1-1.965,2.157,2.118,2.118,0,0,1-2.22-2.006,2.134,2.134,0,0,0-2.4-2.191q-3.284-.012-6.568,0a3.5,3.5,0,0,0-3.65,3.538,3.506,3.506,0,0,0,3.637,3.466c2.1.019,4.22-.137,6.3.071a7.634,7.634,0,0,1,6.729,9.122c-.035.2-.073.4-.109.6-1.361,3.682-3.753,5.471-7.573,5.622-.452.018-.6.117-.587.585.034.992.034,1.986,0,2.978a2.15,2.15,0,0,1-1.738,2.025,1.941,1.941,0,0,1-2.288-1.1,2.3,2.3,0,0,1-.16-1.169,23.142,23.142,0,0,1,0-2.452c.044-.656-.113-.919-.836-.872a10.6,10.6,0,0,1-3.21-.271,5.554,5.554,0,0,1-2.888-1.843,5.775,5.775,0,0,1-1.495-4.133,2.146,2.146,0,0,1,2.016-2.145,2.093,2.093,0,0,1,2.178,1.953,2.638,2.638,0,0,0,.395,1.321,2.158,2.158,0,0,0,1.878.928c2.278-.006,4.556.016,6.834-.007a3.49,3.49,0,0,0,3.529-3.486,3.5,3.5,0,0,0-3.584-3.518c-1.927-.017-3.856.033-5.782-.019a7.256,7.256,0,0,1-6.658-4.131,7.586,7.586,0,0,1,2.367-9.786C-346.885,1715.538-346.7,1715.395-346.524,1715.252Z" transform="translate(-82.246 -55.05)" fill="#020201"/>
    <path id="Trazado_170287" data-name="Trazado 170287" d="M-210.545,1924.053c1.779,0,3.559-.008,5.339,0a2.132,2.132,0,0,1,2.351,2.14,2.143,2.143,0,0,1-2.35,2.058c-.875.009-1.751.029-2.625-.008-.491-.021-.645.127-.636.627.03,1.721.014,3.443.013,5.164,0,1.663-.8,2.645-2.127,2.632s-2.084-.989-2.084-2.674-.023-3.385.016-5.076c.013-.551-.15-.7-.684-.673-.9.044-1.808.027-2.712.009a2.116,2.116,0,0,1-2.222-2.1,2.1,2.1,0,0,1,2.209-2.1c1.838-.02,3.676-.005,5.514-.005Z" transform="translate(-183.362 -220.038)" fill="#020201"/>
  </g>
</svg>
