<svg xmlns="http://www.w3.org/2000/svg" width="382.308" height="349.222" viewBox="0 0 382.308 349.222">
  <g id="Grupo_111258" data-name="Grupo 111258" transform="translate(-605.277 -6646.432)">
    <g id="Grupo_110817" data-name="Grupo 110817" transform="translate(605.277 6931.885)">
      <g id="Grupo_110815" data-name="Grupo 110815" transform="translate(9.374)">
        <path id="Trazado_170223" data-name="Trazado 170223" d="M-83.987,118.167c-.5-.575-.614-1.29-.256-1.593l60.778-52.036c.35-.3,1.041-.078,1.538.5s.614,1.29.264,1.6l-60.786,52.052C-82.8,118.975-83.49,118.749-83.987,118.167Z" transform="translate(84.451 -64.403)" fill="#c99a28"/>
      </g>
      <g id="Grupo_110816" data-name="Grupo 110816" transform="translate(0 41.98)">
        <path id="Trazado_170224" data-name="Trazado 170224" d="M-67.676,88.979a10.882,10.882,0,0,1-15.362-1.212,10.866,10.866,0,0,1,1.189-15.338A10.893,10.893,0,0,1-66.487,73.61,10.911,10.911,0,0,1-67.676,88.979Z" transform="translate(85.657 -69.805)" fill="#c99a28"/>
      </g>
    </g>
    <g id="Grupo_110820" data-name="Grupo 110820" transform="translate(915.221 6931.885)">
      <g id="Grupo_110818" data-name="Grupo 110818" transform="translate(-0.001)">
        <path id="Trazado_170225" data-name="Trazado 170225" d="M16.753,118.167c.5-.575.606-1.29.264-1.593L-43.769,64.538c-.35-.3-1.041-.078-1.531.5s-.622,1.29-.264,1.6l60.778,52.052C15.572,118.975,16.255,118.749,16.753,118.167Z" transform="translate(45.768 -64.403)" fill="#c99a28"/>
      </g>
      <g id="Grupo_110819" data-name="Grupo 110819" transform="translate(50.579 41.98)">
        <path id="Trazado_170226" data-name="Trazado 170226" d="M-35.453,88.979a10.882,10.882,0,0,0,15.362-1.212,10.879,10.879,0,0,0-1.181-15.338A10.9,10.9,0,0,0-36.642,73.61,10.911,10.911,0,0,0-35.453,88.979Z" transform="translate(39.259 -69.805)" fill="#c99a28"/>
      </g>
    </g>
    <g id="Grupo_110823" data-name="Grupo 110823" transform="translate(907.506 6646.433)">
      <g id="Grupo_110821" data-name="Grupo 110821" transform="translate(0.001 9.358)">
        <path id="Trazado_170227" data-name="Trazado 170227" d="M15.764,29.5c.49.575.606,1.29.256,1.593L-44.757,83.146c-.35.311-1.049.078-1.531-.5-.505-.591-.622-1.305-.272-1.608L14.218,29C14.575,28.7,15.267,28.927,15.764,29.5Z" transform="translate(46.761 -28.87)" fill="#c99a28"/>
      </g>
      <g id="Grupo_110822" data-name="Grupo 110822" transform="translate(50.574 0)">
        <path id="Trazado_170228" data-name="Trazado 170228" d="M-36.444,30.282a10.894,10.894,0,0,1,15.362,1.2A10.9,10.9,0,0,1-22.263,46.84a10.911,10.911,0,0,1-15.369-1.2A10.894,10.894,0,0,1-36.444,30.282Z" transform="translate(40.252 -27.665)" fill="#c99a28"/>
      </g>
    </g>
    <g id="Grupo_110826" data-name="Grupo 110826" transform="translate(605.281 6646.433)">
      <g id="Grupo_110824" data-name="Grupo 110824" transform="translate(9.379 9.358)">
        <path id="Trazado_170229" data-name="Trazado 170229" d="M-83.984,29.5c-.5.575-.614,1.29-.264,1.593l60.778,52.052c.357.311,1.049.078,1.538-.5.5-.591.614-1.305.264-1.608L-82.446,29C-82.8,28.7-83.487,28.927-83.984,29.5Z" transform="translate(84.45 -28.87)" fill="#c99a28"/>
      </g>
      <g id="Grupo_110825" data-name="Grupo 110825" transform="translate(0 0)">
        <path id="Trazado_170230" data-name="Trazado 170230" d="M-67.677,30.282a10.885,10.885,0,0,0-15.354,1.2A10.886,10.886,0,0,0-81.85,46.84a10.9,10.9,0,0,0,15.361-1.2A10.9,10.9,0,0,0-67.677,30.282Z" transform="translate(85.657 -27.665)" fill="#c99a28"/>
      </g>
    </g>
    <g id="Grupo_110827" data-name="Grupo 110827" transform="translate(639.258 6657.882)">
      <path id="Trazado_170233" data-name="Trazado 170233" d="M14.623,93.552a117.191,117.191,0,0,1-33.015-35.54A72.876,72.876,0,0,1-60.678,71.47a73.3,73.3,0,0,1-20.606-2.96A178.109,178.109,0,0,0,8.539,159.948a73.276,73.276,0,0,1,6.084-66.4Z" transform="translate(81.284 166.334)" fill="#c99a28"/>
      <path id="Trazado_170234" data-name="Trazado 170234" d="M-53.555,89.613A116.991,116.991,0,0,1-8.885,129.28a73.333,73.333,0,0,1,67.841-1A178.022,178.022,0,0,0-39.569,29.139a73.024,73.024,0,0,1,1.624,15.307A72.912,72.912,0,0,1-53.555,89.613Z" transform="translate(269.012 -29.139)" fill="#c99a28"/>
      <path id="Trazado_170235" data-name="Trazado 170235" d="M-18.393,129.578A117.118,117.118,0,0,1,22.121,89.15a73.167,73.167,0,0,1-18.1-59.371,178.148,178.148,0,0,0-85.308,89.294,73.3,73.3,0,0,1,20.606-2.953A72.877,72.877,0,0,1-18.393,129.578Z" transform="translate(81.284 -24.806)" fill="#c99a28"/>
      <path id="Trazado_170236" data-name="Trazado 170236" d="M-15.066,58.609A117.013,117.013,0,0,1-52.642,94.382a72.815,72.815,0,0,1,8.516,34.266,72.951,72.951,0,0,1-7.553,32.386A177.974,177.974,0,0,0,52.775,59.6a72.73,72.73,0,0,1-32.938,7.832A73.123,73.123,0,0,1-15.066,58.609Z" transform="translate(275.193 170.375)" fill="#c99a28"/>
    </g>
  </g>
</svg>
