<svg xmlns="http://www.w3.org/2000/svg" width="125.87" height="125.869" viewBox="0 0 125.87 125.869">
  <g id="Grupo_111261" data-name="Grupo 111261" transform="translate(-735 -6899.007)">
    <path id="Trazado_171613" data-name="Trazado 171613" d="M62.935,0A62.935,62.935,0,1,1,0,62.935,62.935,62.935,0,0,1,62.935,0Z" transform="translate(735 6899.007)" fill="#7b5d14"/>
    <g id="Grupo_110836" data-name="Grupo 110836" transform="translate(777 6943.008)">
      <g id="Grupo_110834" data-name="Grupo 110834">
        <path id="Trazado_170241" data-name="Trazado 170241" d="M-54.277,106.024a9.176,9.176,0,0,1-5.333-1.486,8.815,8.815,0,0,1-3.25-3.982,15.574,15.574,0,0,1-1.017-5.874V78.221c0-3.527.8-6.265,2.368-8.277,1.628-2.027,4.018-3.043,7.232-3.043,3.157,0,5.561,1.017,7.154,3.043,1.635,2.012,2.439,4.807,2.439,8.277V94.682a12.839,12.839,0,0,1-2.467,8.234A8.495,8.495,0,0,1-54.277,106.024Zm0-4.48c2.731,0,4.1-2.3,4.1-6.862V78.221c0-.775-.036-1.443-.064-2.041a13.414,13.414,0,0,0-.363-1.863,5.19,5.19,0,0,0-.74-1.529,3.105,3.105,0,0,0-1.159-1.01,3.778,3.778,0,0,0-1.771-.377,3.809,3.809,0,0,0-1.792.377,3.259,3.259,0,0,0-1.188,1.01,4.681,4.681,0,0,0-.7,1.529,9.215,9.215,0,0,0-.377,1.863c-.05.6-.05,1.266-.05,2.041V94.682a15.187,15.187,0,0,0,.156,2.482,9.736,9.736,0,0,0,.619,2.126,3.479,3.479,0,0,0,1.294,1.657A3.475,3.475,0,0,0-54.277,101.544Z" transform="translate(63.877 -66.9)" fill="#fff"/>
      </g>
      <g id="Grupo_110835" data-name="Grupo 110835" transform="translate(22.89)">
        <path id="Trazado_170242" data-name="Trazado 170242" d="M-51.058,106.024c-3.122,0-5.475-.875-7.139-2.638-1.635-1.735-2.46-4.181-2.46-7.36V94.682h5.5c0,.846.014,1.579.071,2.19a12.6,12.6,0,0,0,.32,1.849,4.5,4.5,0,0,0,.654,1.515,3.441,3.441,0,0,0,1.2.917,4.167,4.167,0,0,0,1.856.391,3.99,3.99,0,0,0,1.835-.391,3.311,3.311,0,0,0,1.216-.917,4.791,4.791,0,0,0,.676-1.515,11.649,11.649,0,0,0,.306-1.849,19.851,19.851,0,0,0,.085-2.19A8.957,8.957,0,0,0-48.207,89.6a4.914,4.914,0,0,0-4.21-1.764v-5.49c1.977,0,3.406-.384,4.224-1.223.846-.818,1.252-2.247,1.252-4.259a7.472,7.472,0,0,0-.9-4.075A3.518,3.518,0,0,0-51.058,71.4a4.165,4.165,0,0,0-1.856.377,3.328,3.328,0,0,0-1.2.9,4.678,4.678,0,0,0-.654,1.543,11.806,11.806,0,0,0-.32,1.835c-.057.6-.071,1.3-.071,2.162h-5.5V76.862a10.293,10.293,0,0,1,2.489-7.331q2.453-2.635,7.111-2.631c3.129,0,5.49.875,7.125,2.617s2.446,4.188,2.446,7.346A9.178,9.178,0,0,1-42.93,82.2a7.293,7.293,0,0,1-4.011,2.915,7.257,7.257,0,0,1,4.1,3.335,12.853,12.853,0,0,1,1.358,6.236c0,3.6-.761,6.371-2.275,8.355C-45.334,105.057-47.766,106.024-51.058,106.024Z" transform="translate(60.658 -66.9)" fill="#fff"/>
      </g>
    </g>
  </g>
</svg>
