<svg xmlns="http://www.w3.org/2000/svg" width="59.991" height="60" viewBox="0 0 59.991 60">
  <g id="Grupo_110807" data-name="Grupo 110807" transform="translate(695.226 -1313.928)">
    <path id="Trazado_170205" data-name="Trazado 170205" d="M-650.349,1373.928h-29.759a1.5,1.5,0,0,1-.552-1.688,4.857,4.857,0,0,1,4.932-4.116c1.386-.016,2.773-.024,4.158.009.454.01.555-.133.539-.558-.032-.9-.039-1.8,0-2.694.023-.5-.1-.651-.634-.649q-11.041.031-22.082.014c-1.242,0-1.478-.232-1.478-1.453q0-15.96,0-31.921a5.121,5.121,0,0,1,.006-.527.956.956,0,0,1,.9-.917,3.744,3.744,0,0,1,.526-.01c4.51,0,9.02-.006,13.53.01.426,0,.579-.076.532-.534a9.231,9.231,0,0,1,.059-1.811,14.535,14.535,0,0,1,16.524-13,14.542,14.542,0,0,1,12.419,14.772c-.01.454.089.573.552.571,4.49-.019,8.981,0,13.472-.023a1.705,1.705,0,0,1,1.468.589v33.625a1.368,1.368,0,0,1-1.323.634c-7.414-.012-14.829,0-22.243-.019-.469,0-.649.091-.627.6.041.935.029,1.873,0,2.809-.011.382.1.5.486.489q2.107-.033,4.214-.005a4.849,4.849,0,0,1,4.926,4.117A1.5,1.5,0,0,1-650.349,1373.928Zm-14.939-15.475q11.832,0,23.663,0c.363,0,.593.014.592-.5q-.029-11.128,0-22.257c0-.4-.128-.474-.494-.473q-5.213.019-10.426,0a.682.682,0,0,0-.676.406,14.239,14.239,0,0,1-8.888,6.829c-.66.177-.842.41-.813,1.068.059,1.352.018,1.373,1.359,1.348.447-.008.6.091.587.569-.028,1.392-.005,1.419-1.384,1.384-.492-.012-.557.164-.553.59.02,1.991.007,3.983.01,5.974a3.326,3.326,0,0,1-.28,1.422,2.919,2.919,0,0,1-3.246,1.632,2.922,2.922,0,0,1-2.3-2.876c-.02-2.069-.015-4.139,0-6.208,0-.383-.054-.536-.492-.531-1.472.016-1.473,0-1.433-1.5a.834.834,0,0,0,0-.117c-.029-.257.092-.315.337-.335.524-.044,1.245.274,1.52-.152.25-.387.028-1.061.069-1.605.029-.379-.139-.492-.464-.572a14.275,14.275,0,0,1-9.2-6.867.773.773,0,0,0-.767-.46q-5.154.03-10.309,0c-.495,0-.553.172-.553.595q.017,11.011-.006,22.023c0,.541.16.624.65.623Q-677.031,1358.441-665.287,1358.453Zm-13.654-25.171c-.14-.509-.29-.934-.367-1.371-.073-.42-.252-.552-.69-.55q-6.356.028-12.712,0c-.463,0-.581.126-.58.584q.02,14.908,0,29.816c0,.472.141.572.589.572q27.474-.016,54.948,0c.448,0,.589-.1.589-.572q-.021-14.908,0-29.816c0-.458-.117-.588-.58-.584-2.714.022-5.428.011-8.143.011-1.562,0-3.124,0-4.687,0-.2,0-.424-.078-.5.252-.116.544-.282,1.077-.438,1.655h.687q5.214,0,10.427,0c.951,0,1.292.33,1.292,1.249q0,12.3,0,24.6c0,.912-.318,1.238-1.228,1.238q-24.9,0-49.793,0c-.913,0-1.229-.323-1.229-1.237q0-12.3,0-24.6c0-.922.339-1.25,1.289-1.251q5.213,0,10.427,0Zm13.723-17.4a12.563,12.563,0,0,0-12.575,12.517,12.556,12.556,0,0,0,12.525,12.619,12.554,12.554,0,0,0,12.605-12.54A12.563,12.563,0,0,0-665.218,1315.884Zm-.052,56.088h3.337q4.742,0,9.485,0c.151,0,.346.063.44-.074.117-.172-.036-.336-.13-.475a2.835,2.835,0,0,0-2.451-1.356q-10.627-.009-21.254,0a2.85,2.85,0,0,0-2.395,1.243c-.122.166-.328.353-.217.567.1.195.354.094.538.095Q-671.593,1371.977-665.27,1371.973Zm.039-3.854c1.132,0,2.265-.009,3.4.006.328,0,.5-.048.487-.44-.026-1.014-.016-2.03,0-3.045,0-.291-.071-.418-.39-.416q-3.484.016-6.969,0c-.314,0-.4.115-.4.411.013,1,.026,1.991,0,2.986-.014.434.156.514.542.506C-667.456,1368.1-666.343,1368.119-665.231,1368.119Zm.961-17.7v-2.164c0-1.425,0-1.414-1.425-1.412-.361,0-.505.069-.5.473.021,2.047.006,4.094.012,6.141,0,.7.4,1.146.983,1.126.562-.019.923-.445.928-1.123C-664.265,1352.442-664.271,1351.429-664.27,1350.415Zm-.931-7.439c-.985,0-.985,0-.985.993,0,.924,0,.924.9.924,1.014,0,1.014,0,1.014-.987C-664.27,1342.973-664.27,1342.973-665.2,1342.976Z" transform="translate(0 0)" fill="#040404"/>
    <path id="Trazado_170206" data-name="Trazado 170206" d="M-623.312,1513.171q-11.705,0-23.41.011c-.489,0-.65-.083-.648-.631q.032-11.164.006-22.327c0-.428.058-.607.551-.6q5.137.038,10.275,0a.769.769,0,0,1,.764.466,14.254,14.254,0,0,0,9.165,6.962c.324.081.491.2.462.58-.041.551.18,1.235-.069,1.627-.274.432-.993.11-1.515.154-.245.021-.365.079-.336.34a.876.876,0,0,1,0,.119c-.04,1.518-.04,1.538,1.428,1.522.437,0,.493.151.49.539-.018,2.1-.023,4.2,0,6.294a2.951,2.951,0,0,0,2.288,2.916,2.9,2.9,0,0,0,3.235-1.654,3.423,3.423,0,0,0,.279-1.442c0-2.019.01-4.038-.01-6.057,0-.431.061-.61.551-.6,1.374.035,1.352.008,1.38-1.4.009-.484-.14-.585-.585-.577-1.337.025-1.3,0-1.355-1.367-.029-.668.152-.9.81-1.083a14.226,14.226,0,0,0,8.859-6.923.679.679,0,0,1,.674-.412q5.2.021,10.391,0c.364,0,.493.075.492.48q-.019,11.282,0,22.565c0,.519-.228.5-.59.5Q-611.52,1513.166-623.312,1513.171Z" transform="translate(-41.975 -154.583)" fill="#fffae8"/>
    <path id="Trazado_170207" data-name="Trazado 170207" d="M-664.923,1459.695h-.7q-5.209,0-10.417,0c-.95,0-1.288.333-1.288,1.268q0,12.471,0,24.943c0,.926.316,1.254,1.228,1.254q24.873,0,49.746,0c.909,0,1.227-.33,1.227-1.255q0-12.472,0-24.943c0-.932-.341-1.266-1.291-1.266q-5.209,0-10.417,0h-.687c.156-.586.322-1.126.438-1.678.071-.335.3-.255.495-.256,1.561-.005,3.121,0,4.682,0,2.712,0,5.423.011,8.135-.011.463,0,.58.128.58.592q-.02,15.114,0,30.229c0,.479-.141.58-.588.58q-27.448-.016-54.9,0c-.447,0-.589-.1-.588-.58q.021-15.114,0-30.229c0-.464.117-.594.58-.592q6.35.027,12.7,0c.438,0,.616.131.689.558C-665.213,1458.748-665.063,1459.178-664.923,1459.695Z" transform="translate(-14.005 -126.643)" fill="#a6adb9"/>
    <path id="Trazado_170208" data-name="Trazado 170208" d="M-538.661,1330.07a12.737,12.737,0,0,1,12.729,12.77,12.727,12.727,0,0,1-12.779,12.714,12.729,12.729,0,0,1-12.7-12.793A12.737,12.737,0,0,1-538.661,1330.07Zm9.751,12.725a9.782,9.782,0,0,0-9.743-9.817,2.1,2.1,0,0,1-.013-.414c.071-.44-.086-.627-.538-.536-.115.023-.237.015-.355.026a10.783,10.783,0,0,0-9.841,9.686c-.124,1.047-.124,1.047.88,1.1a9.208,9.208,0,0,1,.134,1.407,9.764,9.764,0,0,0,9.693,8.336,3.651,3.651,0,0,1,.016.59c-.051.389.118.449.47.432a10.813,10.813,0,0,0,10.251-9.625C-527.834,1342.869-527.834,1342.869-528.91,1342.795Z" transform="translate(-126.557 -14.158)" fill="#e5ecf1"/>
    <path id="Trazado_170209" data-name="Trazado 170209" d="M-543.724,1778.968q-6.411,0-12.822,0c-.186,0-.443.1-.545-.1-.113-.217.1-.406.219-.575a2.89,2.89,0,0,1,2.428-1.26q10.774,0,21.547,0a2.874,2.874,0,0,1,2.485,1.374c.095.141.25.307.132.482-.094.139-.293.075-.446.075q-4.808,0-9.616,0Z" transform="translate(-121.546 -407.022)" fill="#74808f"/>
    <path id="Trazado_170210" data-name="Trazado 170210" d="M-475.844,1732.811c-1.128,0-2.256-.014-3.384.008-.392.008-.563-.073-.549-.513.032-1.008.018-2.018,0-3.027,0-.3.083-.418.4-.417q3.532.015,7.065,0c.324,0,.4.127.4.422-.013,1.029-.023,2.058,0,3.087.01.4-.161.45-.494.446C-473.549,1732.8-474.7,1732.811-475.844,1732.811Z" transform="translate(-189.386 -364.773)" fill="#74808f"/>
    <path id="Trazado_170211" data-name="Trazado 170211" d="M-453.778,1589.065c0,1.028.006,2.056,0,3.084-.005.688-.371,1.12-.941,1.139-.59.02-.995-.43-1-1.141-.006-2.075.009-4.151-.012-6.226,0-.41.142-.479.508-.48,1.445,0,1.445-.014,1.445,1.431Q-453.778,1587.967-453.778,1589.065Z" transform="translate(-210.479 -238.668)" fill="#28c65d"/>
    <path id="Trazado_170212" data-name="Trazado 170212" d="M-454.651,1553.568c.944,0,.944,0,.944.943,0,1,0,1-1.028,1-.915,0-.915,0-.915-.937C-455.65,1553.571-455.65,1553.571-454.651,1553.568Z" transform="translate(-210.549 -210.606)" fill="#28c65d"/>
    <path id="Trazado_170213" data-name="Trazado 170213" d="M-518.061,1373.339a9.764,9.764,0,0,1-9.693-8.336,9.2,9.2,0,0,0-.134-1.407c.973-.051.973-.051,1.071-1.025a8.891,8.891,0,0,1,7.763-7.772c.988-.086.988-.086,1.033-1.066a9.782,9.782,0,0,1,9.743,9.817,1.849,1.849,0,0,1-.411.021c-.46-.078-.541.136-.56.556a8.828,8.828,0,0,1-7.9,8.232C-518.01,1372.443-518.01,1372.443-518.061,1373.339Zm4.916-8.8V1361.1c0-1.471,0-1.454-1.473-1.457-.406,0-.48.135-.478.5.014,2.607.008,5.214.008,7.822,0,1.524,0,1.507,1.5,1.492.385,0,.453-.135.449-.479C-513.154,1367.5-513.145,1366.016-513.145,1364.535Zm-3.923,1.993v-1.479c0-1.509,0-1.494-1.5-1.485-.375,0-.458.114-.452.468.02,1.321.008,2.643.008,3.964,0,1.51,0,1.5,1.528,1.46.347-.008.429-.12.421-.444C-517.081,1368.185-517.068,1367.356-517.068,1366.528Zm-5.866.976v.473c0,1.551,0,1.54,1.565,1.479.329-.013.39-.129.383-.419-.016-.689-.005-1.379-.005-2.068,0-1.485,0-1.474-1.474-1.457-.347,0-.5.078-.476.456C-522.911,1366.479-522.934,1366.992-522.934,1367.5Zm0-4.92c0,.992,0,.992.921.992,1.022,0,1.022,0,1.022-1.008,0-.972,0-.972-.949-.972C-522.934,1361.6-522.934,1361.6-522.934,1362.584Zm8.862-6.854c-1.016,0-1.016,0-1.016,1.015,0,.929,0,.929.926.929,1.017,0,1.017,0,1.017-1.018C-513.145,1355.73-513.145,1355.73-514.072,1355.73Zm-3,4.938c0-1.015,0-1.015-1.016-1.015-.927,0-.927,0-.927.927,0,1.019,0,1.019,1.016,1.019C-517.068,1361.6-517.068,1361.6-517.068,1360.668Z" transform="translate(-147.188 -34.913)" fill="#72e676"/>
    <path id="Trazado_170214" data-name="Trazado 170214" d="M-524.7,1346.8c-.045.98-.045.98-1.033,1.066a8.891,8.891,0,0,0-7.763,7.772c-.1.974-.1.974-1.071,1.025-1-.053-1-.053-.88-1.1a10.783,10.783,0,0,1,9.84-9.686c.118-.012.239,0,.355-.026.453-.091.609.1.538.536A2.092,2.092,0,0,0-524.7,1346.8Z" transform="translate(-140.416 -27.976)" fill="#040404"/>
    <path id="Trazado_170215" data-name="Trazado 170215" d="M-447.921,1443.405c.05-.9.05-.9.915-.981a8.828,8.828,0,0,0,7.9-8.232c.019-.42.1-.634.56-.556a1.856,1.856,0,0,0,.411-.021c1.076.074,1.076.074.955,1.187a10.813,10.813,0,0,1-10.251,9.625c-.352.018-.521-.043-.47-.432A3.637,3.637,0,0,0-447.921,1443.405Z" transform="translate(-217.418 -105.223)" fill="#040404"/>
    <path id="Trazado_170216" data-name="Trazado 170216" d="M-421.841,1406.713c0,1.481-.009,2.963.007,4.444,0,.344-.063.475-.449.479-1.5.016-1.5.032-1.5-1.492,0-2.607.007-5.214-.008-7.822,0-.368.071-.5.478-.5,1.473,0,1.473-.015,1.473,1.457Z" transform="translate(-238.548 -77.267)" fill="#040404"/>
    <path id="Trazado_170217" data-name="Trazado 170217" d="M-453.766,1436.693c0,.828-.013,1.657.007,2.485.008.323-.074.435-.421.443-1.528.037-1.528.05-1.528-1.46,0-1.321.012-2.643-.008-3.964-.005-.354.077-.465.452-.468,1.5-.01,1.5-.025,1.5,1.485Z" transform="translate(-210.491 -105.3)" fill="#040404"/>
    <path id="Trazado_170218" data-name="Trazado 170218" d="M-487.644,1451.561c0-.512.023-1.026-.007-1.536-.022-.378.129-.452.476-.456,1.474-.016,1.474-.027,1.474,1.457,0,.689-.011,1.379.005,2.068.007.289-.055.406-.383.419-1.566.06-1.565.072-1.565-1.479Z" transform="translate(-182.424 -119.213)" fill="#040404"/>
    <path id="Trazado_170219" data-name="Trazado 170219" d="M-487.576,1418.714c0-.988,0-.988.994-.988.949,0,.949,0,.949.972,0,1.008,0,1.008-1.022,1.008C-487.576,1419.706-487.576,1419.706-487.576,1418.714Z" transform="translate(-182.492 -91.222)" fill="#040404"/>
    <path id="Trazado_170220" data-name="Trazado 170220" d="M-422.713,1369.99c.927,0,.927,0,.927.927,0,1.018,0,1.018-1.017,1.018-.926,0-.926,0-.926-.929C-423.729,1369.99-423.729,1369.99-422.713,1369.99Z" transform="translate(-238.603 -49.173)" fill="#040404"/>
    <path id="Trazado_170221" data-name="Trazado 170221" d="M-453.708,1402.926c0,.93,0,.93-.926.93-1.016,0-1.016,0-1.016-1.019,0-.927,0-.927.927-.927C-453.707,1401.911-453.707,1401.911-453.708,1402.926Z" transform="translate(-210.549 -77.323)" fill="#040404"/>
  </g>
</svg>
