<svg xmlns="http://www.w3.org/2000/svg" width="90.911" height="90" viewBox="0 0 90.911 90">
  <g id="Grupo_110796" data-name="Grupo 110796" transform="translate(611.812 -1792.705)">
    <path id="Trazado_170025" data-name="Trazado 170025" d="M-611.812,1818.2a3.856,3.856,0,0,1,2.395-1.767c4.385-1.475,8.754-3,13.139-4.479.593-.2.853-.38.678-1.1a32.575,32.575,0,0,1-.615-3.667,2.206,2.206,0,0,1,2-2.642c4.6-.789,9.2-1.588,13.8-2.323.9-.143,1.205-.428,1.154-1.372-.095-1.74-.029-3.489-.027-5.234,0-2.081.816-2.905,2.9-2.906q17.748,0,35.5,0c2.13,0,4.26.021,6.389-.01a2.959,2.959,0,0,1,2.219.9q5.212,5.013,10.466,9.981a2.777,2.777,0,0,1,.923,2.187q-.027,28.484-.014,56.967c0,2.021-.828,2.856-2.838,2.857-3.638,0-7.277-.052-10.914.015a33.486,33.486,0,0,0-10.87,2.193c-13.518,4.911-27.062,9.75-40.6,14.616-1.862.669-2.909.182-3.578-1.679q-5.04-14.021-10.072-28.046c-.4-1.109-.292-1.435.626-2.112,1.113-.111,1.486.131,1.891,1.258q2.667,7.4,5.327,14.812,2.257,6.283,4.508,12.569c.142.4.214.78.828.553,4.145-1.53,8.3-3.034,12.451-4.547.254-.071.514-.127.762-.216q4.581-1.651,9.159-3.308,2.9-1.044,5.8-2.077a1.76,1.76,0,0,0-.9-.08q-11.485,1.961-22.967,3.934a2.254,2.254,0,0,1-2.893-1.965q-1.649-9.471-3.264-18.948-2.181-12.706-4.357-25.412c-.695-4.046-1.41-8.089-2.079-12.139-.1-.582-.268-.685-.785-.474-.706.288-1.431.527-2.148.787-3.473,1.045-6.861,2.341-10.3,3.474-.791.26-.835.559-.57,1.287,3.04,8.369,6.033,16.754,9.067,25.125a1.681,1.681,0,0,1-.466,2.2c-1.224.186-1.586-.016-2-1.168q-4.665-12.931-9.326-25.864c-.1-.266-.1-.585-.38-.758Zm29.992-13.037c-3.727.624-7.451,1.255-11.18,1.864-.48.078-.54.271-.463.713q1.187,6.759,2.337,13.526,2.263,13.179,4.522,26.359,1.925,11.216,3.837,22.433c.1.6.27.785.882.677q8.2-1.448,16.4-2.856l12.529-2.125-.019-.16h-.962q-11.312,0-22.625,0a2.392,2.392,0,0,1-2.728-2.717q-.008-12.731,0-25.462c0-1.166.257-1.489,1.386-1.817.977.213,1.293.838,1.29,1.808-.022,8.194,0,16.388-.033,24.581,0,.786.187.965.966.963q16.551-.043,33.1-.021c.295,0,.59-.021.885-.032,5.853.011,11.707.012,17.56.049.716,0,.551-.425.551-.8q0-27.319.02-54.638c0-.713-.242-.8-.858-.8-2.72.026-5.441.042-8.16-.014-2.347-.048-3.434-1.217-3.443-3.555-.008-2.365-.008-4.73-.014-7.1,0-.315.087-.677-.442-.667-2.569.046-5.139-.084-7.707.067-.293-.021-.586-.059-.879-.06-10.178,0-20.355.01-30.533-.024-.875,0-1.052.237-1.05,1.076q.045,16.907.02,33.815c0,1.3-.171,1.552-1.257,1.9-1.138-.265-1.407-.615-1.408-1.871q0-11.577-.008-23.154c0-.789.345-1.97-.151-2.265C-579.988,1804.54-581.009,1805.03-581.82,1805.166Zm48.462-8.88c0,2.414.028,4.627-.016,6.838-.014.72.258.931.923.926,2.13-.015,4.26.006,6.389,0,.21,0,.467.116.668-.171Z" fill="#030303"/>
    <path id="Trazado_170026" data-name="Trazado 170026" d="M-590.586,1920.157a1.681,1.681,0,0,0,.466-2.2c-3.035-8.37-6.027-16.756-9.067-25.125-.265-.729-.221-1.027.57-1.287,3.443-1.133,6.831-2.429,10.3-3.474a.565.565,0,0,1,.235.451c.254,1.444.518,2.887.771,4.331q.941,5.373,1.874,10.749c.685,3.989,1.348,7.982,2.033,11.971.616,3.584,1.254,7.165,1.872,10.749q1.039,6.026,2.059,12.055c.561,3.3,1.135,6.591,1.666,9.892.209,1.3.513,1.626,1.793,1.417,2.895-.471,5.778-1.016,8.675-1.469.888-.139,1.764-.585,2.7-.25-4.152,1.512-8.307,3.016-12.451,4.547-.614.227-.686-.157-.828-.553q-2.251-6.285-4.508-12.569-2.661-7.407-5.327-14.812c-.406-1.127-.778-1.369-1.891-1.258C-589.878,1922.247-590.565,1921.3-590.586,1920.157Z" transform="translate(-9.518 -72.743)" fill="#b3c2cd"/>
    <path id="Trazado_170027" data-name="Trazado 170027" d="M-432.673,1871.434c-.295.011-.59.032-.885.032q-16.551,0-33.1.021c-.779,0-.969-.178-.966-.963.033-8.194.011-16.388.033-24.581,0-.971-.313-1.595-1.29-1.808q.01-1.724.02-3.447c1.087-.347,1.257-.6,1.257-1.9q0-16.907-.02-33.815c0-.839.175-1.079,1.05-1.076,10.177.034,20.355.021,30.533.024.293,0,.586.039.879.06.764,1.293,1.573,2.561,2.283,3.882a55.436,55.436,0,0,1,4.832,12.686c-.353.018-.705.05-1.058.05q-14.989,0-29.978,0a5.868,5.868,0,0,0-.972.043,1.214,1.214,0,0,0-1.1,1.292,1.2,1.2,0,0,0,1.1,1.286,7.062,7.062,0,0,0,1.061.044q15.3,0,30.6,0c.352,0,.7.037,1.056.056.388,2.232.81,4.458,1.057,6.712-.324.013-.648.037-.972.037q-15.874,0-31.747,0c-.3,0-.592-.007-.887.009a1.221,1.221,0,0,0-1.265,1.223,1.248,1.248,0,0,0,1.1,1.389,4.593,4.593,0,0,0,.971.044l32.1,0c.354,0,.707.024,1.061.038.016,2.237.3,4.468.176,6.708-.325.009-.649.027-.973.027h-32.368a6.115,6.115,0,0,0-.886.016,1.253,1.253,0,0,0-1.183,1.318,1.253,1.253,0,0,0,1.182,1.317,5.506,5.506,0,0,0,.8.013q12.193,0,24.387,0c3.014,0,6.029.018,9.043.027q-.111,3.367-.531,6.71c-.324.013-.648.036-.972.036q-15.918,0-31.836,0a3.255,3.255,0,0,0-1.142.092,1.245,1.245,0,0,0-.913,1.431,1.2,1.2,0,0,0,1.166,1.127c.293.028.59.013.886.013q15.741,0,31.481,0c.324,0,.648.024.972.036-.144.916-.267,1.837-.438,2.748-.251,1.34-.535,2.674-.8,4.011-.354.011-.708.031-1.062.031l-30.148,0a7.242,7.242,0,0,0-.973.032,1.191,1.191,0,0,0-1.093,1.2,1.188,1.188,0,0,0,.932,1.329,4.673,4.673,0,0,0,1.14.1q14.631.008,29.262.006c.353,0,.706.029,1.059.044a52.585,52.585,0,0,1-2.284,6.566A28.523,28.523,0,0,0-432.673,1871.434Z" transform="translate(-109.018 -8.536)" fill="#ecf2f3"/>
    <path id="Trazado_170028" data-name="Trazado 170028" d="M-317.338,1839.518c.122-2.241-.16-4.471-.176-6.708,1.3-.014,2.592-.019,3.888-.044.994-.02,1.624-.581,1.594-1.388-.029-.779-.622-1.256-1.6-1.269-1.414-.018-2.828-.028-4.241-.042-.247-2.254-.669-4.48-1.057-6.712.351-.02.7-.056,1.053-.058,1.5-.01,3.008.009,4.511-.022a1.262,1.262,0,0,0,1.324-1.27,1.322,1.322,0,0,0-1.327-1.363c-.293-.027-.589-.008-.884-.011l-5.389-.054a55.436,55.436,0,0,0-4.832-12.686c-.709-1.322-1.519-2.59-2.283-3.882,2.568-.151,5.138-.022,7.707-.067.529-.009.441.352.442.667.005,2.365.005,4.731.014,7.1.008,2.338,1.1,3.507,3.443,3.555,2.719.056,5.44.04,8.16.014.616-.006.859.085.858.8q-.034,27.319-.02,54.638c0,.379.166.808-.551.8-5.853-.037-11.706-.038-17.56-.049a28.523,28.523,0,0,1,1.628-3.7,52.585,52.585,0,0,0,2.284-6.566c2.211-.016,4.421-.025,6.632-.051,1.07-.013,1.717-.56,1.688-1.387-.028-.8-.634-1.261-1.688-1.27q-2.875-.023-5.749-.037c.27-1.337.554-2.67.8-4.011.17-.911.293-1.832.438-2.748,1.561-.013,3.123-.039,4.684-.035a1.34,1.34,0,0,0,1.437-.929c.305-.887-.348-1.7-1.434-1.729-1.443-.041-2.887-.035-4.33-.049q.414-3.343.531-6.71c1.237-.01,2.475-.016,3.713-.031.964-.012,1.563-.5,1.594-1.284.032-.811-.6-1.362-1.594-1.375C-314.863,1839.532-316.1,1839.528-317.338,1839.518Z" transform="translate(-217.427 -8.562)" fill="#d2e2e6"/>
    <path id="Trazado_170029" data-name="Trazado 170029" d="M-506.584,1907.944q-8.2,1.423-16.4,2.856c-.612.108-.782-.079-.882-.677q-1.891-11.221-3.837-22.433-2.262-13.179-4.522-26.359-1.161-6.764-2.337-13.526c-.078-.442-.018-.635.463-.713,3.729-.608,7.454-1.24,11.18-1.864.006.443.017.886.017,1.33q0,29.792,0,59.584c0,1.4.25,1.651,1.642,1.651q6.872,0,13.744.005C-507.2,1907.8-506.861,1907.686-506.584,1907.944Z" transform="translate(-58.9 -40.063)" fill="#d2e2e6"/>
    <path id="Trazado_170030" data-name="Trazado 170030" d="M-529.207,1945.116c-.937-.335-1.813.111-2.7.25-2.9.453-5.781,1-8.675,1.469-1.28.208-1.584-.117-1.793-1.417-.53-3.3-1.1-6.6-1.666-9.892q-1.026-6.028-2.059-12.055c-.618-3.584-1.257-7.165-1.872-10.749-.685-3.989-1.349-7.982-2.033-11.971q-.923-5.377-1.874-10.749c-.253-1.445-.517-2.887-.771-4.331a.565.565,0,0,0-.235-.45c.717-.26,1.442-.5,2.148-.787.517-.211.689-.108.785.474.669,4.05,1.385,8.093,2.079,12.139q2.181,12.705,4.357,25.412,1.626,9.475,3.264,18.948a2.254,2.254,0,0,0,2.893,1.965q11.483-1.974,22.967-3.934a1.76,1.76,0,0,1,.9.08q-2.9,1.038-5.8,2.077-4.581,1.651-9.159,3.308C-528.693,1944.99-528.953,1945.045-529.207,1945.116Z" transform="translate(-44.946 -69.889)" fill="#98adb5"/>
    <path id="Trazado_170031" data-name="Trazado 170031" d="M-469.06,1906.619c-.277-.258-.619-.145-.932-.146q-6.872-.011-13.744-.005c-1.391,0-1.642-.249-1.642-1.651q0-29.792,0-59.584c0-.443-.011-.886-.017-1.33.811-.136,1.832-.626,2.371-.305.5.3.15,1.476.151,2.265q.017,11.577.008,23.154c0,1.256.27,1.605,1.408,1.871q-.01,1.723-.02,3.447c-1.129.328-1.386.651-1.386,1.817q0,12.731,0,25.462a2.392,2.392,0,0,0,2.728,2.717q11.312.006,22.625,0h.962l.019.16Z" transform="translate(-96.424 -38.737)" fill="#b3c2cd"/>
    <path id="Trazado_170032" data-name="Trazado 170032" d="M-281.178,1807.8l7.965,7.593c-.2.287-.458.17-.668.171-2.13.006-4.26-.015-6.389,0-.665,0-.937-.206-.923-.926C-281.151,1812.428-281.178,1810.215-281.178,1807.8Z" transform="translate(-252.18 -11.514)" fill="#b3c2cd"/>
    <path id="Trazado_170033" data-name="Trazado 170033" d="M-403.2,1874.086l5.389.055c.295,0,.591-.016.884.011a1.322,1.322,0,0,1,1.327,1.363,1.263,1.263,0,0,1-1.324,1.27c-1.5.031-3.007.012-4.511.022-.351,0-.7.038-1.053.058-.352-.019-.7-.056-1.056-.056q-15.3,0-30.6,0a7.062,7.062,0,0,1-1.061-.044,1.2,1.2,0,0,1-1.1-1.285,1.214,1.214,0,0,1,1.1-1.293,5.868,5.868,0,0,1,.972-.043q14.989,0,29.978,0C-403.906,1874.136-403.553,1874.1-403.2,1874.086Z" transform="translate(-133.868 -62.073)" fill="#030303"/>
    <path id="Trazado_170034" data-name="Trazado 170034" d="M-401.428,1993.682c1.443.014,2.888.007,4.33.049,1.086.031,1.739.843,1.434,1.73a1.339,1.339,0,0,1-1.437.929c-1.562,0-3.123.021-4.684.035-.324-.012-.648-.036-.972-.036q-15.741,0-31.481,0c-.3,0-.593.015-.886-.014a1.2,1.2,0,0,1-1.166-1.127,1.245,1.245,0,0,1,.913-1.431,3.255,3.255,0,0,1,1.142-.092q15.918,0,31.836,0C-402.076,1993.718-401.752,1993.695-401.428,1993.682Z" transform="translate(-133.868 -153.296)" fill="#030303"/>
    <path id="Trazado_170035" data-name="Trazado 170035" d="M-401.436,1914.093c1.414.014,2.828.024,4.241.042.975.013,1.568.49,1.6,1.269.03.807-.6,1.368-1.594,1.388-1.3.025-2.592.03-3.888.044-.354-.013-.707-.037-1.061-.038l-32.1,0a4.593,4.593,0,0,1-.971-.044,1.248,1.248,0,0,1-1.1-1.389,1.221,1.221,0,0,1,1.266-1.223c.295-.016.591-.009.887-.009q15.874,0,31.747,0C-402.084,1914.13-401.76,1914.106-401.436,1914.093Z" transform="translate(-133.863 -92.589)" fill="#030303"/>
    <path id="Trazado_170036" data-name="Trazado 170036" d="M-403.039,2033.725q2.875.018,5.749.037c1.054.009,1.659.469,1.688,1.27.029.828-.618,1.375-1.688,1.387-2.211.026-4.421.035-6.632.052-.353-.015-.706-.044-1.059-.044q-14.631,0-29.262-.006a4.673,4.673,0,0,1-1.14-.1,1.188,1.188,0,0,1-.932-1.329,1.191,1.191,0,0,1,1.093-1.2,7.222,7.222,0,0,1,.973-.032l30.148,0C-403.747,2033.756-403.393,2033.736-403.039,2033.725Z" transform="translate(-133.857 -183.839)" fill="#030303"/>
    <path id="Trazado_170037" data-name="Trazado 170037" d="M-400.9,1953.932c1.237.01,2.475.014,3.713.031,1,.013,1.625.564,1.594,1.375-.031.784-.63,1.272-1.594,1.284-1.237.015-2.475.021-3.713.031-3.014-.009-6.029-.025-9.043-.027q-12.194-.006-24.387,0a5.523,5.523,0,0,1-.8-.013,1.253,1.253,0,0,1-1.182-1.317,1.253,1.253,0,0,1,1.183-1.318,6.115,6.115,0,0,1,.886-.016h32.368C-401.552,1953.959-401.227,1953.941-400.9,1953.932Z" transform="translate(-133.863 -122.976)" fill="#030303"/>
  </g>
</svg>
