<svg xmlns="http://www.w3.org/2000/svg" width="472.422" height="287.507" viewBox="0 0 472.422 287.507">
  <g id="Grupo_111235" data-name="Grupo 111235" transform="translate(-87.998 -287.208)">
    <g id="Grupo_111226" data-name="Grupo 111226" transform="translate(87.998 287.208)">
      <g id="Grupo_111210" data-name="Grupo 111210" transform="translate(0 13.956)">
        <g id="Grupo_111179" data-name="Grupo 111179" transform="translate(357.065)">
          <g id="Grupo_111173" data-name="Grupo 111173" transform="translate(68.15 42.277)" style="isolation: isolate">
            <g id="Grupo_111170" data-name="Grupo 111170">
              <path id="Trazado_171429" data-name="Trazado 171429" d="M701.849,377.838a1.633,1.633,0,0,1-.488.454,2.548,2.548,0,0,1-1.369.31,2.828,2.828,0,0,1-1.365-.331,1,1,0,0,1-.464-.513.67.67,0,0,1,.143-.646l1.359-1.948-6.366-3.676-3.359.794a3.119,3.119,0,0,1-1.105.089,2.282,2.282,0,0,1-.9-.272,1.009,1.009,0,0,1-.583-.794.832.832,0,0,1,.516-.8,2.953,2.953,0,0,1,.79-.28l16.393-3.65a3.522,3.522,0,0,1,1.348-.068,3.086,3.086,0,0,1,1.131.365,1.46,1.46,0,0,1,.648.67.9.9,0,0,1-.084.79Zm-5.205-7.143,4.381,2.529,3.01-4.278-7.391,1.749" transform="translate(-687.352 -366.47)" fill="#f2f2f2"/>
            </g>
            <g id="Grupo_111171" data-name="Grupo 111171" transform="translate(16.456 3.921)">
              <path id="Trazado_171430" data-name="Trazado 171430" d="M729.879,377.623c.926.535.965,1.048.133,1.532a2.5,2.5,0,0,1-2.668-.06l-3.043-1.757-10.108,5.874a3.06,3.06,0,0,1-1.514.42,2.793,2.793,0,0,1-1.483-.373c-.441-.255-.655-.539-.649-.858s.245-.611.713-.883l10.108-5.874-3.044-1.757c-.927-.534-.966-1.048-.111-1.544a2.488,2.488,0,0,1,2.646.072Z" transform="translate(-710.547 -371.996)" fill="#f2f2f2"/>
            </g>
            <g id="Grupo_111172" data-name="Grupo 111172" transform="translate(25.092 11.503)">
              <path id="Trazado_171431" data-name="Trazado 171431" d="M744.089,386.89c.927.535.988,1.036.192,1.5a2.453,2.453,0,0,1-2.609-.094l-5.168-2.983-3.293,1.914L738,389.993c.927.534.98,1.039.17,1.51a2.436,2.436,0,0,1-2.587-.106l-4.793-2.768-3.535,2.055,5.168,2.983q1.389.8.17,1.511a2.437,2.437,0,0,1-2.587-.106l-6.653-3.842c-.441-.255-.655-.521-.635-.806s.253-.565.721-.836L734.6,383.1a2.991,2.991,0,0,1,1.441-.42,2.6,2.6,0,0,1,1.395.365Z" transform="translate(-722.719 -382.684)" fill="#f2f2f2"/>
            </g>
          </g>
          <g id="Grupo_111174" data-name="Grupo 111174">
            <path id="Trazado_171432" data-name="Trazado 171432" d="M616.578,313.176c.419.242.6.518.576.831s-.275.6-.728.866l-11.342,6.592a2.853,2.853,0,0,1-1.39.4,2.464,2.464,0,0,1-1.321-.323c-.375-.216-.56-.467-.539-.751s.239-.556.677-.81l7.048-4.1-8,1.558a5.129,5.129,0,0,1-1.325.115,2.294,2.294,0,0,1-.984-.289.936.936,0,0,1-.494-.565,1.11,1.11,0,0,1,.179-.777l2.56-4.58-6.946,4.037a2.858,2.858,0,0,1-1.39.39,2.478,2.478,0,0,1-1.32-.314c-.382-.221-.56-.467-.547-.755s.246-.552.685-.807l11.342-6.592a3.119,3.119,0,0,1,1.493-.424,2.666,2.666,0,0,1,1.438.331.867.867,0,0,1,.345,1.384l-3.876,6.672,11.484-2.279A3.45,3.45,0,0,1,616.578,313.176Z" transform="translate(-591.292 -306.88)" fill="#f2f2f2"/>
          </g>
          <g id="Grupo_111175" data-name="Grupo 111175" transform="translate(18.301 10.508)">
            <path id="Trazado_171433" data-name="Trazado 171433" d="M636.585,328.535a8.255,8.255,0,0,1-3.04,2.678,14.989,14.989,0,0,1-4.606,1.765,13.972,13.972,0,0,1-4.762.17,11.783,11.783,0,0,1-4.317-1.469,5.635,5.635,0,0,1-2.542-2.492,2.906,2.906,0,0,1,.277-2.758,8.189,8.189,0,0,1,3.026-2.678,15.074,15.074,0,0,1,4.621-1.766,13.762,13.762,0,0,1,4.747-.161,11.869,11.869,0,0,1,4.309,1.464,5.719,5.719,0,0,1,2.55,2.5A2.869,2.869,0,0,1,636.585,328.535Zm-10.471,2.525a10.688,10.688,0,0,0,4.519-1.527c1.563-.909,2.438-1.774,2.638-2.614s-.273-1.579-1.39-2.225a6.458,6.458,0,0,0-3.83-.789,10.809,10.809,0,0,0-4.5,1.541c-1.556.9-2.438,1.774-2.631,2.619s.251,1.574,1.354,2.211a6.475,6.475,0,0,0,3.837.785" transform="translate(-617.088 -321.691)" fill="#f2f2f2"/>
          </g>
          <g id="Grupo_111176" data-name="Grupo 111176" transform="translate(30.683 17.661)">
            <path id="Trazado_171434" data-name="Trazado 171434" d="M655.88,339.737a7.479,7.479,0,0,1-2.946,2.673,14.386,14.386,0,0,1-4.6,1.728,13.633,13.633,0,0,1-9.381-1.634l-3.779-2.182c-.441-.255-.655-.522-.635-.807s.261-.56.728-.831l11.16-6.485a2.97,2.97,0,0,1,1.434-.425,2.6,2.6,0,0,1,1.395.365l3.779,2.182a7.093,7.093,0,0,1,2.88,2.636A2.809,2.809,0,0,1,655.88,339.737Zm-14.611,1.184a8.206,8.206,0,0,0,8.755-.192q4.513-2.622.287-5.063L648.3,334.5l-9.042,5.255,2.015,1.163" transform="translate(-634.54 -331.773)" fill="#f2f2f2"/>
          </g>
          <g id="Grupo_111177" data-name="Grupo 111177" transform="translate(45.018 25.937)">
            <path id="Trazado_171435" data-name="Trazado 171435" d="M676.116,347.646q1.389.8.192,1.5a2.454,2.454,0,0,1-2.609-.094l-5.168-2.984-3.294,1.915,4.793,2.767c.927.535.981,1.04.17,1.511a2.435,2.435,0,0,1-2.587-.106l-4.793-2.767-3.535,2.054,5.168,2.984c.927.535.98,1.04.17,1.51a2.434,2.434,0,0,1-2.587-.106l-6.653-3.841c-.441-.255-.656-.522-.635-.807s.253-.564.721-.836l11.16-6.485a2.99,2.99,0,0,1,1.441-.421,2.6,2.6,0,0,1,1.394.365Z" transform="translate(-654.746 -343.439)" fill="#f2f2f2"/>
          </g>
          <g id="Grupo_111178" data-name="Grupo 111178" transform="translate(56.112 32.367)">
            <path id="Trazado_171436" data-name="Trazado 171436" d="M682.533,365.38a1.3,1.3,0,0,1-.582.662,2.374,2.374,0,0,1-1.332.289,2.94,2.94,0,0,1-1.35-.356,1.323,1.323,0,0,1-.516-.509.707.707,0,0,1,0-.653l1.43-3.7a1.126,1.126,0,0,0,.076-.828,1.428,1.428,0,0,0-.677-.653l-1.522-.878-4.031,2.343a3.157,3.157,0,0,1-1.522.441,2.727,2.727,0,0,1-1.461-.36c-.448-.259-.669-.548-.656-.862s.267-.607.75-.887l11.181-6.5a2.97,2.97,0,0,1,1.434-.425,2.644,2.644,0,0,1,1.394.365l4.72,2.725q2.326,1.343,2.433,2.665c.064.883-.584,1.72-1.957,2.517a8.108,8.108,0,0,1-3.54,1.078,9.045,9.045,0,0,1-3.8-.552,1.547,1.547,0,0,1,.532.849,1.981,1.981,0,0,1-.148,1.083Zm.645-6.4a5.279,5.279,0,0,0,2.291.78,3.635,3.635,0,0,0,2.034-.526c.679-.394.985-.793.917-1.188s-.525-.836-1.363-1.32l-2.8-1.617-3.879,2.253,2.8,1.618" transform="translate(-670.384 -352.502)" fill="#f2f2f2"/>
          </g>
        </g>
        <g id="Grupo_111184" data-name="Grupo 111184" transform="translate(366.452 239.765)">
          <g id="Grupo_111180" data-name="Grupo 111180" transform="translate(33.904 19.575)">
            <path id="Trazado_171437" data-name="Trazado 171437" d="M676.21,677.97c.433.25.648.534.635.849s-.268.607-.728.874l-11.2,6.511a3.129,3.129,0,0,1-1.522.433,2.79,2.79,0,0,1-1.482-.357c-.441-.255-.648-.534-.62-.849s.267-.607.75-.888l4.47-2.6-6.1-3.522-4.47,2.6a3.143,3.143,0,0,1-1.529.429,2.75,2.75,0,0,1-1.46-.343c-.441-.255-.655-.539-.635-.858s.267-.607.75-.887l11.2-6.511a3.151,3.151,0,0,1,1.507-.424,2.806,2.806,0,0,1,1.475.369q.65.376.62.841c-.028.314-.267.607-.728.874l-4.258,2.475,6.1,3.522,4.258-2.475a3.153,3.153,0,0,1,1.508-.424A2.727,2.727,0,0,1,676.21,677.97Z" transform="translate(-652.312 -672.426)" fill="#f2f2f2"/>
          </g>
          <g id="Grupo_111181" data-name="Grupo 111181" transform="translate(22.549 13.01)">
            <path id="Trazado_171438" data-name="Trazado 171438" d="M653.7,664.874q2.614,1.509,2.884,3.332a.855.855,0,0,1-.078.505,1.431,1.431,0,0,1-.489.411,2.842,2.842,0,0,1-1.163.361,1.725,1.725,0,0,1-1.019-.157,1.167,1.167,0,0,1-.36-.3,1.656,1.656,0,0,1-.223-.433,3.963,3.963,0,0,0-.7-1.26,4.78,4.78,0,0,0-1.229-.963q-3.837-2.216-8.563.538-2.432,1.413-2.644,2.687c-.135.845.47,1.66,1.808,2.432a12.933,12.933,0,0,0,2.461,1.074l3.1-1.8-1.728-1c-.368-.212-.552-.428-.568-.649s.152-.437.5-.641a2.015,2.015,0,0,1,1.1-.289,2.248,2.248,0,0,1,1.122.327l3.213,1.854c.346.2.522.42.524.658s-.173.467-.531.675l-3.892,2.262a7.53,7.53,0,0,1-1.367.649,3.111,3.111,0,0,1-1.127.162,5.728,5.728,0,0,1-1.335-.263,18.644,18.644,0,0,1-2.063-.751,19.433,19.433,0,0,1-1.933-.955,6.6,6.6,0,0,1-2.777-2.61,2.892,2.892,0,0,1,.13-2.819,7.934,7.934,0,0,1,3.04-2.72,14.827,14.827,0,0,1,4.643-1.753,14.075,14.075,0,0,1,4.843-.106A12.611,12.611,0,0,1,653.7,664.874Z" transform="translate(-636.306 -663.173)" fill="#f2f2f2"/>
          </g>
          <g id="Grupo_111182" data-name="Grupo 111182" transform="translate(14.482 8.361)">
            <path id="Trazado_171439" data-name="Trazado 171439" d="M639.888,657c.448.259.67.547.649.857s-.26.612-.72.878l-11.2,6.511a3.114,3.114,0,0,1-1.536.433,2.757,2.757,0,0,1-1.49-.37c-.456-.263-.67-.548-.65-.866s.26-.612.743-.892l11.2-6.511a3.109,3.109,0,0,1,1.515-.42A2.822,2.822,0,0,1,639.888,657Z" transform="translate(-624.936 -656.62)" fill="#f2f2f2"/>
          </g>
          <g id="Grupo_111183" data-name="Grupo 111183">
            <path id="Trazado_171440" data-name="Trazado 171440" d="M628.414,650.375c.441.255.648.535.635.848s-.26.612-.721.879l-11.2,6.511a3.144,3.144,0,0,1-1.529.428,2.767,2.767,0,0,1-1.482-.356c-.441-.255-.648-.535-.62-.849s.275-.6.757-.883l4.47-2.6-6.108-3.527-4.47,2.6a3.191,3.191,0,0,1-1.521.433,2.755,2.755,0,0,1-1.468-.348c-.441-.255-.648-.535-.628-.853s.26-.612.743-.892l11.2-6.511a3.105,3.105,0,0,1,1.514-.42,2.778,2.778,0,0,1,1.468.365c.441.255.648.535.627.845s-.275.6-.735.87l-4.258,2.475,6.109,3.527,4.258-2.474a3.126,3.126,0,0,1,1.5-.429A2.727,2.727,0,0,1,628.414,650.375Z" transform="translate(-604.523 -644.835)" fill="#f2f2f2"/>
          </g>
        </g>
        <g id="Grupo_111205" data-name="Grupo 111205" transform="translate(53.782 3.58)">
          <g id="Grupo_111185" data-name="Grupo 111185" transform="translate(55.035 15.713)">
            <path id="Trazado_171441" data-name="Trazado 171441" d="M272.7,334.074l15.634,16.361A226.383,226.383,0,0,0,261.6,360.808l-20.224-14.579A265.724,265.724,0,0,1,272.7,334.074Z" transform="translate(-241.378 -334.074)" fill="#44f72c"/>
          </g>
          <g id="Grupo_111186" data-name="Grupo 111186" transform="translate(359.866 160.123)">
            <path id="Trazado_171442" data-name="Trazado 171442" d="M714,543.265a106.116,106.116,0,0,1-14.291,20.211l-28.662-8.594a90.8,90.8,0,0,0,12.2-17.258Z" transform="translate(-671.047 -537.624)" fill="#f7872c"/>
          </g>
          <g id="Grupo_111187" data-name="Grupo 111187" transform="translate(339.897 179.719)">
            <path id="Trazado_171443" data-name="Trazado 171443" d="M689.018,574.247a148.19,148.19,0,0,1-20.883,18.183L642.9,580.762a126.743,126.743,0,0,0,17.821-15.517Z" transform="translate(-642.9 -565.245)" fill="#f7702c"/>
          </g>
          <g id="Grupo_111188" data-name="Grupo 111188" transform="translate(314.293 197.291)">
            <path id="Trazado_171444" data-name="Trazado 171444" d="M654.256,602.033c-4.014,2.767-8.235,5.466-12.718,8.072s-9.131,5.06-13.9,7.394l-20.831-14.286q6.105-2.986,11.856-6.311c3.827-2.224,7.434-4.524,10.857-6.888Z" transform="translate(-606.811 -590.013)" fill="#f75b2c"/>
          </g>
          <g id="Grupo_111189" data-name="Grupo 111189" transform="translate(373.376 139.279)">
            <path id="Trazado_171445" data-name="Trazado 171445" d="M728.262,510.3a82.161,82.161,0,0,1-7.192,21.45l-30.98-5.2a70.177,70.177,0,0,0,6.14-18.3Z" transform="translate(-690.09 -508.244)" fill="#f79c2c"/>
          </g>
          <g id="Grupo_111190" data-name="Grupo 111190" transform="translate(213.067 0.768)">
            <path id="Trazado_171446" data-name="Trazado 171446" d="M504.628,317.248l-8.882,17.928a311.669,311.669,0,0,0-31.616-3.616l3.449-18.552A368,368,0,0,1,504.628,317.248Z" transform="translate(-464.129 -313.008)" fill="#9cf72c"/>
          </g>
          <g id="Grupo_111191" data-name="Grupo 111191" transform="translate(173.422)">
            <path id="Trazado_171447" data-name="Trazado 171447" d="M445.992,312.389l-2.665,18.6c-10.716-.535-21.494-.531-32.2,0l-2.874-18.59C420.8,311.773,433.43,311.768,445.992,312.389Z" transform="translate(-408.249 -311.926)" fill="#87f72c"/>
          </g>
          <g id="Grupo_111194" data-name="Grupo 111194" transform="translate(91.089 0.768)" style="isolation: isolate">
            <g id="Grupo_111192" data-name="Grupo 111192" transform="translate(39.984)">
              <path id="Trazado_171448" data-name="Trazado 171448" d="M385.566,313.009l3.651,18.547a312.567,312.567,0,0,0-31.583,3.62l-9.077-17.931A365.256,365.256,0,0,1,385.566,313.009Z" transform="translate(-348.557 -313.009)" fill="#70f72c"/>
            </g>
            <g id="Grupo_111193" data-name="Grupo 111193" transform="translate(0 5.136)">
              <path id="Trazado_171449" data-name="Trazado 171449" d="M327.044,320.248l9.838,17.8a274.742,274.742,0,0,0-29.745,7.126L292.2,328.593A322.638,322.638,0,0,1,327.044,320.248Z" transform="translate(-292.198 -320.248)" fill="#5bf72c"/>
            </g>
          </g>
          <g id="Grupo_111195" data-name="Grupo 111195" transform="translate(249.084 5.903)">
            <path id="Trazado_171450" data-name="Trazado 171450" d="M559.473,328.591l-14.759,16.574a278.384,278.384,0,0,0-29.818-7.122l9.623-17.8A323.957,323.957,0,0,1,559.473,328.591Z" transform="translate(-514.896 -320.247)" fill="#b3f72c"/>
          </g>
          <g id="Grupo_111196" data-name="Grupo 111196" transform="translate(313.357 29.845)">
            <path id="Trazado_171451" data-name="Trazado 171451" d="M640.139,361.387q6.772,3.909,12.8,8.068l-24.6,12.02c-3.443-2.36-7.082-4.665-10.928-6.885s-7.835-4.321-11.927-6.311l20.671-14.286Q633.358,357.489,640.139,361.387Z" transform="translate(-605.491 -353.993)" fill="#e3f72c"/>
          </g>
          <g id="Grupo_111197" data-name="Grupo 111197" transform="translate(24.277 29.842)">
            <path id="Trazado_171452" data-name="Trazado 171452" d="M224.638,353.989l20.839,14.291q-6.105,2.986-11.856,6.311c-3.828,2.224-7.434,4.524-10.858,6.889l-24.739-12.025c4.015-2.767,8.235-5.466,12.719-8.072S219.874,356.324,224.638,353.989Z" transform="translate(-198.024 -353.989)" fill="#2ff72c"/>
          </g>
          <g id="Grupo_111198" data-name="Grupo 111198" transform="translate(339.14 47.709)">
            <path id="Trazado_171453" data-name="Trazado 171453" d="M666.929,379.173a151.21,151.21,0,0,1,21.088,18.183l-28.189,9.007a128.948,128.948,0,0,0-18-15.517Z" transform="translate(-641.833 -379.173)" fill="#f7f42c"/>
          </g>
          <g id="Grupo_111199" data-name="Grupo 111199" transform="translate(0 47.715)">
            <path id="Trazado_171454" data-name="Trazado 171454" d="M209.923,390.849a126.743,126.743,0,0,0-17.82,15.517l-28.3-9a148.959,148.959,0,0,1,20.884-18.183Z" transform="translate(-163.805 -379.181)" fill="#2cf73d"/>
          </g>
          <g id="Grupo_111200" data-name="Grupo 111200" transform="translate(359.303 68.638)">
            <path id="Trazado_171455" data-name="Trazado 171455" d="M698.818,408.673a107.866,107.866,0,0,1,14.519,20.22l-30.692,5.632a92.647,92.647,0,0,0-12.392-17.249Z" transform="translate(-670.253 -408.673)" fill="#f7dc2c"/>
          </g>
          <g id="Grupo_111201" data-name="Grupo 111201" transform="translate(284.026 212.171)">
            <path id="Trazado_171456" data-name="Trazado 171456" d="M590.878,610.987,611.1,625.566a264.668,264.668,0,0,1-31.323,12.156l-15.633-16.362A225.167,225.167,0,0,0,590.878,610.987Z" transform="translate(-564.148 -610.987)" fill="#f72c2c"/>
          </g>
          <g id="Grupo_111202" data-name="Grupo 111202" transform="translate(379.836 116.377)">
            <path id="Trazado_171457" data-name="Trazado 171457" d="M731.294,475.963a74.594,74.594,0,0,1,.116,21.863l-32.1-1.6a63.636,63.636,0,0,0-.112-18.653Z" transform="translate(-699.195 -475.963)" fill="#f7b32c"/>
          </g>
          <g id="Grupo_111203" data-name="Grupo 111203" transform="translate(373.028 91.836)">
            <path id="Trazado_171458" data-name="Trazado 171458" d="M720.528,441.372a83.323,83.323,0,0,1,7.441,21.447l-32.016,2.058a70.643,70.643,0,0,0-6.354-18.305Z" transform="translate(-689.599 -441.372)" fill="#f7c82c"/>
          </g>
          <g id="Grupo_111204" data-name="Grupo 111204" transform="translate(282.961 15.712)">
            <path id="Trazado_171459" data-name="Trazado 171459" d="M609.555,346.228,589.487,360.8a229.07,229.07,0,0,0-26.84-10.368L578.1,334.072A268.661,268.661,0,0,1,609.555,346.228Z" transform="translate(-562.647 -334.072)" fill="#cbf72c"/>
          </g>
        </g>
        <g id="Grupo_111209" data-name="Grupo 111209" transform="translate(0 28.172)">
          <g id="Grupo_111206" data-name="Grupo 111206" transform="translate(12.229 7.066)">
            <path id="Trazado_171460" data-name="Trazado 171460" d="M124.732,363.392a8.252,8.252,0,0,1-3.033,2.682,15.066,15.066,0,0,1-4.621,1.765,14.026,14.026,0,0,1-4.754.166A11.811,11.811,0,0,1,108,366.541a5.629,5.629,0,0,1-2.535-2.5,2.914,2.914,0,0,1,.27-2.754,8.225,8.225,0,0,1,3.033-2.682,15.106,15.106,0,0,1,4.621-1.766,13.881,13.881,0,0,1,4.747-.161,11.867,11.867,0,0,1,4.3,1.468A5.738,5.738,0,0,1,125,360.641,2.887,2.887,0,0,1,124.732,363.392Zm-10.479,2.529a10.775,10.775,0,0,0,4.535-1.527c1.555-.9,2.43-1.779,2.623-2.615s-.273-1.579-1.391-2.223a6.4,6.4,0,0,0-3.821-.785,10.672,10.672,0,0,0-4.5,1.532c-1.556.9-2.431,1.778-2.638,2.623s.258,1.578,1.353,2.211a6.52,6.52,0,0,0,3.837.785" transform="translate(-105.235 -356.549)" fill="#f2f2f2"/>
          </g>
          <g id="Grupo_111207" data-name="Grupo 111207" transform="translate(27.46 13.538)">
            <path id="Trazado_171461" data-name="Trazado 171461" d="M154.678,375.854a.956.956,0,0,1,.568.751c.024.284-.18.548-.6.79a3.782,3.782,0,0,1-.768.318l-15.275,4.347a3.345,3.345,0,0,1-1.333.093,3.111,3.111,0,0,1-1.2-.382,1.354,1.354,0,0,1-.648-.687.749.749,0,0,1,.164-.768l5.605-6.5-11.28,3.225a3.385,3.385,0,0,1-1.326.1,3.037,3.037,0,0,1-1.189-.373,1.366,1.366,0,0,1-.641-.684.756.756,0,0,1,.15-.776l7.461-8.858a2.113,2.113,0,0,1,.525-.441,2.582,2.582,0,0,1,1.405-.331,2.789,2.789,0,0,1,1.35.348,1.135,1.135,0,0,1,.56.619.758.758,0,0,1-.187.73l-5.963,6.812L143.87,370.8a3.387,3.387,0,0,1,1.274-.118,2.525,2.525,0,0,1,1.042.3,1.014,1.014,0,0,1,.524.607.789.789,0,0,1-.23.747l-6.072,6.858,12-3.514a3.519,3.519,0,0,1,1.237-.123A2.527,2.527,0,0,1,154.678,375.854Z" transform="translate(-126.703 -365.671)" fill="#f2f2f2"/>
          </g>
          <g id="Grupo_111208" data-name="Grupo 111208">
            <path id="Trazado_171462" data-name="Trazado 171462" d="M102.905,346.963c.455.263.67.548.657.862s-.26.611-.721.878l-10.108,5.874,4.807,2.775c.912.526.944,1.036.089,1.532a2.455,2.455,0,0,1-2.624-.06l-6.366-3.676c-.441-.255-.655-.522-.642-.81s.26-.56.721-.828l11.189-6.5a3.107,3.107,0,0,1,1.515-.42A2.79,2.79,0,0,1,102.905,346.963Z" transform="translate(-87.998 -346.589)" fill="#f2f2f2"/>
          </g>
        </g>
      </g>
      <path id="Trazado_171463" data-name="Trazado 171463" d="M502.452,450.449c-.031-21.858-14.406-42.184-40.477-57.235-25.082-14.481-58.257-22.457-93.411-22.457s-68.237,7.976-93.158,22.458c-25.743,14.96-39.9,35.159-39.871,56.875.023,15.946,7.688,31.073,21.952,43.936a32.446,32.446,0,0,1-6.562,7.45,85.69,85.69,0,0,1-8.659,5.307,62.515,62.515,0,0,0-8.882,6.414,16.945,16.945,0,0,0-4.069,4.653c-1.179,2.211-1.471,4.8-2.546,7.06-1.757,3.7-5.434,6.159-9.259,7.633s-7.91,2.138-11.826,3.349a44.255,44.255,0,0,0-9.236,4.059c-2.737,1.6-5.392,3.593-6.845,6.409s-1.392,6.61.861,8.838c2.219,2.194,5.7,2.278,8.826,2.223l20.762-.363c5.768-.1,12-.358,16.518-3.94,5.3-4.2,6.728-11.776,11.536-16.529a29.8,29.8,0,0,1,6.415-4.46A113.4,113.4,0,0,1,270.3,524.37c8.7-3.285,17.985-4.727,26.987-7.034,21.328,8.1,46.186,12.443,72.128,12.443a215.752,215.752,0,0,0,51.1-5.974l43.6,10.89-.882-27.761C488.557,492.016,502.484,471.981,502.452,450.449Z" transform="translate(-117.234 -311.483)" opacity="0.25"/>
      <g id="Grupo_111217" data-name="Grupo 111217" transform="translate(123.612)">
        <g id="Grupo_111214" data-name="Grupo 111214" transform="translate(0 46.525)">
          <g id="Grupo_111212" data-name="Grupo 111212">
            <path id="Trazado_171464" data-name="Trazado 171464" d="M518.676,459.126c-.012.321-.03.642-.049.963-.016.282-.032.563-.054.844-.025.322-.057.643-.089.964-.028.281-.055.562-.089.842-.039.324-.086.648-.132.971-.04.277-.077.553-.121.83-.053.329-.116.658-.177.988-.05.27-.1.541-.152.81-.066.325-.142.649-.216.973-.062.271-.12.543-.187.814-.081.328-.172.654-.26.981-.072.267-.14.533-.217.8-.1.335-.2.669-.309,1-.081.257-.157.514-.242.77-.116.347-.243.693-.367,1.039-.087.243-.169.485-.26.727-.192.51-.4,1.02-.608,1.527-.036.086-.067.172-.1.258q-.376.892-.791,1.778c-.084.18-.177.36-.264.54-.2.409-.394.819-.6,1.227-.117.229-.244.457-.365.685-.191.358-.38.716-.58,1.073-.118.209-.243.417-.363.626-.234.405-.47.809-.717,1.212-.144.236-.293.469-.441.7-.236.374-.476.747-.723,1.119q-.242.364-.49.726-.376.549-.768,1.095c-.171.238-.342.477-.517.714-.277.375-.563.75-.851,1.123-.165.214-.328.428-.5.641q-.778.981-1.606,1.953c-.094.11-.194.219-.288.328q-.706.815-1.448,1.621c-.182.2-.368.4-.554.595q-.683.726-1.4,1.444c-.166.167-.328.335-.5.5q-.951.942-1.953,1.872c-.249.231-.507.459-.761.689-.319.288-.635.577-.962.863-.267.234-.544.466-.817.7-.329.281-.656.563-.993.843-.282.233-.572.464-.858.7-.341.276-.679.552-1.027.825-.3.233-.6.465-.9.7-.349.267-.7.536-1.052.8-.313.233-.634.464-.951.7-.359.261-.717.523-1.083.782-.326.231-.659.458-.991.688-.37.256-.739.511-1.117.765-.339.228-.685.453-1.029.679-.382.25-.763.5-1.151.749-.355.226-.716.45-1.076.675-.392.243-.783.487-1.18.728-.633.384-1.27.766-1.92,1.144-1.389.808-2.812,1.585-4.248,2.347q-.564.3-1.134.594-1.934,1-3.917,1.954c-.177.084-.351.174-.529.258-1.479.7-2.985,1.371-4.505,2.027-.391.168-.785.333-1.179.5q-1.945.819-3.932,1.591c-.286.111-.568.226-.856.336q-2.345.9-4.744,1.721c-.384.133-.772.26-1.157.39-1.08.365-2.172.712-3.266,1.057q-1.552.488-3.12.95-1.323.39-2.657.761-1.588.442-3.194.853c-.9.231-1.791.46-2.693.678-1.085.263-2.177.511-3.271.756-.9.2-1.806.4-2.714.594-1.112.232-2.232.447-3.352.66-1,.19-1.991.385-2.994.56-.451.079-.9.154-1.355.23q-2.3.386-4.626.724c-.258.037-.515.079-.773.115q-2.646.372-5.313.674c-.446.051-.892.1-1.337.146-1.1.119-2.2.221-3.307.324q-2.056.19-4.121.342c-.866.064-1.731.127-2.6.18-1.435.089-2.873.157-4.312.217-.811.035-1.621.076-2.433.1-1.246.038-2.494.055-3.742.072-.875.013-1.75.034-2.625.036-1.334,0-2.669-.02-4-.04-.79-.012-1.579-.012-2.368-.033-1.233-.033-2.464-.091-3.7-.145-.846-.036-1.693-.06-2.537-.106-1.325-.072-2.645-.173-3.967-.269-.749-.055-1.5-.094-2.249-.156-1.565-.13-3.124-.291-4.682-.454-.5-.053-1-.091-1.491-.146q-3.077-.344-6.128-.776c-.3-.042-.586-.094-.881-.138-1.778-.26-3.552-.534-5.313-.838-.72-.124-1.431-.269-2.148-.4-1.33-.244-2.66-.487-3.978-.757-.683-.14-1.359-.3-2.039-.445-1.449-.313-2.894-.633-4.326-.977-.8-.192-1.583-.4-2.372-.6q-1.956-.5-3.891-1.029c-1.108-.308-2.214-.619-3.31-.946-.408-.122-.819-.24-1.225-.365q-2.471-.758-4.9-1.579c-.313-.106-.621-.22-.934-.328q-2.007-.7-3.98-1.438-.67-.252-1.338-.509c-1.048-.405-2.08-.829-3.112-1.254-.711-.292-1.425-.58-2.128-.883-1.005-.431-1.993-.883-2.98-1.333-.649-.3-1.306-.585-1.947-.89-1.078-.512-2.134-1.047-3.19-1.582-.528-.268-1.066-.524-1.588-.8q-2.349-1.23-4.619-2.536c-16.589-9.578-27.73-21.12-33.413-33.331q-.812-1.744-1.476-3.506-.331-.88-.626-1.764a45.919,45.919,0,0,1-1.762-7.114q-.293-1.788-.436-3.58t-.138-3.586l-.051,18c-.055,19.129,12.573,38.287,37.852,52.882q2.267,1.308,4.619,2.536c.521.273,1.059.529,1.586.8,1.056.536,2.113,1.071,3.193,1.583.641.3,1.3.592,1.943.888.989.452,1.978.9,2.985,1.336.7.3,1.415.59,2.126.881.683.282,1.355.576,2.046.849.352.139.712.268,1.066.405.445.172.891.34,1.338.509q1.973.742,3.98,1.437c.312.109.621.221.934.329q2.424.823,4.9,1.579c.409.125.822.244,1.232.367.708.211,1.412.429,2.125.632.389.111.788.2,1.178.312q1.934.536,3.893,1.03c.79.2,1.577.405,2.373.6,1.432.344,2.877.664,4.325.977.538.116,1.066.251,1.606.363.143.03.29.053.434.083,1.317.27,2.648.513,3.977.757.717.132,1.427.277,2.147.4,1.759.3,3.53.578,5.307.837.283.041.562.093.846.133l.042,0q3.052.432,6.13.776c.473.053.949.089,1.421.139,1.581.166,3.161.329,4.75.46.04,0,.081.009.122.012.707.058,1.419.093,2.128.145,1.321.1,2.641.2,3.965.269.845.046,1.692.07,2.538.106,1.231.052,2.462.112,3.694.145.1,0,.2.009.3.011.688.018,1.377.011,2.065.021,1.335.021,2.669.043,4,.04.875,0,1.75-.024,2.625-.036,1.249-.018,2.5-.034,3.742-.072.231-.007.463-.006.695-.013.581-.02,1.159-.063,1.739-.088,1.439-.06,2.877-.128,4.312-.217.867-.053,1.732-.116,2.6-.18q2.067-.152,4.125-.343c.48-.045.965-.072,1.444-.12.62-.062,1.237-.135,1.855-.2.448-.048.895-.1,1.342-.147q2.665-.305,5.31-.673c.262-.037.522-.079.784-.117q2.319-.335,4.619-.723c.452-.076.9-.151,1.355-.23.363-.064.727-.12,1.088-.185.64-.115,1.269-.254,1.906-.375,1.121-.214,2.24-.428,3.352-.66.909-.189,1.811-.392,2.714-.594,1.095-.245,2.187-.493,3.271-.756.9-.219,1.8-.448,2.692-.678,1.071-.277,2.136-.558,3.2-.853q1.333-.37,2.653-.761,1.573-.463,3.127-.951c.451-.143.913-.27,1.361-.415.636-.206,1.262-.426,1.893-.639.389-.131.78-.26,1.168-.394q2.394-.828,4.74-1.72c.288-.11.571-.226.858-.337q1.985-.772,3.93-1.591c.394-.165.788-.33,1.179-.5,1.52-.656,3.025-1.327,4.506-2.027.178-.084.351-.173.529-.258q1.986-.948,3.916-1.953.569-.295,1.135-.594c1.437-.762,2.858-1.539,4.248-2.346q.791-.459,1.564-.924c.121-.072.236-.147.355-.219.4-.241.788-.484,1.178-.727.362-.225.724-.45,1.079-.677.387-.247.766-.5,1.147-.745.346-.227.693-.453,1.034-.682.376-.253.744-.508,1.114-.763.333-.23.668-.459,1-.69.364-.258.719-.518,1.077-.778.319-.233.641-.464.955-.7.355-.265.7-.532,1.049-.8.3-.233.61-.465.909-.7.346-.272.682-.547,1.021-.821.288-.233.58-.465.863-.7.337-.279.663-.562.993-.843.273-.233.55-.465.818-.7.326-.287.642-.575.961-.863.228-.205.463-.409.686-.616l.076-.072q1-.928,1.952-1.872c.169-.167.331-.335.5-.5q.713-.719,1.4-1.445c.185-.2.37-.394.553-.592q.745-.81,1.453-1.628c.093-.107.191-.214.282-.321q.83-.972,1.605-1.953c.044-.055.092-.109.135-.164.126-.16.243-.323.367-.484.287-.371.571-.743.846-1.117.177-.238.348-.478.519-.717q.392-.545.766-1.093.249-.363.492-.729c.246-.371.485-.744.721-1.117.148-.235.3-.469.442-.7.246-.4.482-.807.716-1.212.094-.162.2-.324.288-.487.026-.046.049-.092.075-.138.2-.359.392-.719.583-1.079.12-.226.245-.451.361-.678.209-.406.4-.813.6-1.22.088-.184.182-.366.268-.55q.414-.884.79-1.774c.041-.1.077-.2.117-.294.206-.5.407-.995.6-1.494l.024-.061c.084-.222.156-.446.235-.668.124-.346.251-.691.366-1.037.086-.257.162-.514.243-.771.105-.334.213-.668.309-1,.077-.265.145-.531.216-.8.089-.328.18-.656.261-.984.067-.27.125-.542.187-.814.074-.324.15-.648.216-.973.012-.057.027-.113.038-.17.043-.212.074-.425.113-.637.062-.331.124-.662.177-.993.045-.273.081-.546.12-.819.047-.327.094-.654.133-.982.033-.277.06-.556.088-.833.033-.324.065-.648.09-.973.022-.279.038-.558.054-.836.019-.324.037-.648.049-.973,0-.1.012-.206.016-.309q.016-.563.018-1.126l.051-18C518.708,458.166,518.693,458.646,518.676,459.126Z" transform="translate(-262.233 -383.049)" fill="#ccc"/>
            <g id="Grupo_111211" data-name="Grupo 111211" transform="translate(0.051)">
              <path id="Trazado_171465" data-name="Trazado 171465" d="M480.877,374.54c50.232,29,50.508,76.021.6,105.023s-131.092,29-181.323,0-50.508-76.021-.591-105.029S430.645,345.539,480.877,374.54Z" transform="translate(-262.304 -352.786)" fill="#f2f2f2"/>
            </g>
          </g>
          <g id="Grupo_111213" data-name="Grupo 111213" transform="translate(179.545 136.044)">
            <path id="Trazado_171466" data-name="Trazado 171466" d="M553.568,578.417,535.1,544.545l-19.8,24.315Z" transform="translate(-515.307 -544.545)" fill="#f72c2c"/>
            <path id="Trazado_171467" data-name="Trazado 171467" d="M543.212,544.545l17.7,9.938.76,23.934Z" transform="translate(-523.415 -544.545)" fill="#cf291d"/>
          </g>
        </g>
        <g id="Grupo_111216" data-name="Grupo 111216" transform="translate(16.54)">
          <g id="Grupo_111215" data-name="Grupo 111215" transform="translate(14.257)">
            <path id="Trazado_171468" data-name="Trazado 171468" d="M472.171,303.779C491.313,314.834,500.92,329.3,501,343.786s-9.366,28.954-28.385,40.009-43.963,16.571-68.976,16.572-50.015-5.52-69.161-16.571-28.752-25.519-28.837-40.008,9.363-28.953,28.383-40.008,43.964-16.571,68.978-16.572S453.023,292.727,472.171,303.779Z" transform="translate(-305.643 -287.208)" fill="#7b5d14"/>
          </g>
          <path id="Trazado_171469" data-name="Trazado 171469" d="M509.2,383.857c-.009.294-.028.589-.044.884-.013.232-.022.464-.04.7-.022.3-.055.608-.084.912-.022.222-.039.443-.065.665-.038.325-.086.649-.132.973-.028.2-.052.4-.084.6-.06.381-.132.761-.2,1.142-.027.143-.049.287-.077.43q-.158.781-.347,1.562c-.008.035-.019.07-.028.1-.119.485-.246.969-.385,1.452-.05.175-.109.35-.162.526-.1.342-.2.684-.316,1.025-.067.206-.145.411-.216.616-.108.31-.212.62-.328.929-.072.192-.151.382-.226.573-.128.33-.256.66-.394.989-.089.214-.187.426-.28.641-.133.3-.265.609-.406.914-.1.223-.214.445-.322.668-.142.293-.282.585-.431.878-.117.228-.24.455-.361.683-.151.285-.3.57-.461.854-.118.211-.242.422-.364.634-.188.325-.378.651-.575.974-.132.216-.267.431-.4.647q-.3.475-.611.947-.213.322-.432.644c-.216.317-.438.633-.663.949-.148.208-.3.416-.448.623-.244.331-.5.662-.75.992-.141.182-.278.365-.421.547q-.677.857-1.4,1.7c-.1.122-.214.243-.319.365q-.584.675-1.2,1.343-.243.264-.491.527-.6.64-1.226,1.271c-.139.14-.274.281-.414.421q-.829.823-1.7,1.635c-.229.214-.467.424-.7.636-.264.238-.525.477-.795.714-.245.215-.5.428-.748.641-.275.236-.546.471-.827.7-.255.213-.519.424-.78.635-.285.231-.568.463-.859.692-.267.21-.541.418-.813.626-.3.228-.59.456-.892.682-.277.207-.563.413-.846.619-.307.223-.611.448-.923.669-.29.206-.588.409-.883.614-.315.218-.629.437-.95.653-.3.2-.612.4-.919.606-.326.214-.649.428-.98.641-.313.2-.633.4-.95.6-.337.21-.673.421-1.015.629-.582.354-1.169.706-1.768,1.054-.848.492-1.709.972-2.577,1.446-.244.133-.49.264-.736.4q-1.04.557-2.1,1.1c-.2.1-.408.211-.614.314q-1.328.666-2.682,1.3c-.2.094-.4.186-.605.28q-1.1.511-2.218,1c-.264.116-.527.233-.792.348q-1.33.575-2.681,1.127l-.148.061q-1.424.577-2.874,1.122c-.267.1-.537.2-.807.3q-1.148.427-2.312.836c-.236.083-.47.167-.706.249q-1.469.508-2.956.987c-.357.115-.716.226-1.074.338-.451.141-.9.284-1.356.421-.377.114-.758.225-1.138.336-.449.133-.9.265-1.35.394-.385.109-.773.215-1.16.322-.451.125-.9.25-1.354.37-.392.105-.787.206-1.181.307q-.676.176-1.355.347c-.4.1-.8.2-1.2.292-.452.109-.9.218-1.357.323-.4.094-.809.185-1.215.276q-.682.153-1.366.3c-.407.088-.816.173-1.225.258q-.686.143-1.374.281-.616.122-1.234.24-.691.132-1.383.26-.53.1-1.061.19-1.239.219-2.486.422c-.248.04-.495.082-.743.121q-1.581.251-3.173.473c-.236.033-.472.063-.707.1q-1.274.173-2.553.329l-.965.116q-1.358.158-2.721.3c-.182.018-.364.04-.546.057q-1.441.142-2.886.262c-.2.016-.392.03-.588.045-.768.061-1.537.12-2.307.172-.343.023-.685.043-1.028.065q-.943.059-1.887.11c-.377.02-.753.037-1.13.055q-.9.043-1.808.076-.561.021-1.12.039-1.052.033-2.106.054c-.316.006-.633.014-.95.019q-1.515.024-3.033.026-2.254,0-4.507-.057l-.6-.012c-.491-.013-.982-.03-1.473-.048-.414-.014-.829-.026-1.243-.043-.5-.021-.993-.045-1.488-.07-.409-.019-.817-.037-1.225-.059-.5-.028-1-.06-1.507-.092-.4-.025-.8-.047-1.2-.074-.514-.035-1.028-.077-1.542-.116-.386-.029-.773-.056-1.159-.089-.534-.044-1.065-.094-1.6-.143-.365-.034-.731-.064-1.1-.1-.6-.058-1.193-.123-1.789-.187-.3-.031-.6-.06-.894-.094q-1.34-.149-2.674-.319l-.118-.016q-1.276-.162-2.547-.341c-.2-.029-.4-.061-.607-.09-.7-.1-1.4-.2-2.094-.314-.331-.052-.661-.109-.992-.162-.566-.092-1.132-.183-1.7-.281-.367-.063-.733-.131-1.1-.2-.524-.094-1.049-.187-1.571-.286-.383-.072-.764-.148-1.146-.223-.5-.1-1.01-.2-1.513-.3-.352-.072-.7-.147-1.053-.221q-.883-.186-1.762-.381c-.363-.08-.726-.163-1.088-.246q-.859-.2-1.713-.4c-.355-.086-.709-.171-1.063-.258q-.893-.221-1.779-.453c-.319-.083-.639-.164-.958-.249q-1.083-.288-2.158-.592c-.177-.05-.357-.1-.534-.148q-1.541-.441-3.061-.911c-.274-.084-.547-.171-.82-.257q-1.209-.38-2.405-.778c-.241-.08-.482-.158-.722-.239q-1.489-.5-2.956-1.037c-.2-.074-.4-.15-.6-.224q-1.2-.443-2.387-.9-.49-.19-.976-.383t-.986-.4q-.618-.252-1.232-.509-.487-.205-.973-.413-.613-.263-1.22-.532-.478-.211-.953-.424-.61-.276-1.214-.558c-.31-.144-.621-.287-.929-.433-.407-.194-.811-.39-1.215-.587-.3-.145-.6-.289-.893-.437-.419-.209-.835-.423-1.251-.636-.273-.14-.548-.278-.819-.421-.458-.24-.912-.485-1.365-.731-.223-.121-.45-.239-.673-.361q-1.009-.556-2-1.127c-21.9-12.642-32.9-29.21-33-45.779l-.136,47.851c.094,16.569,11.1,33.138,33,45.78q.991.571,2,1.126c.223.123.449.241.673.362.453.245.907.491,1.365.731.271.142.546.28.819.421.416.214.831.427,1.251.636.3.148.595.292.892.437q.606.3,1.215.587c.308.146.619.289.929.434.4.187.806.374,1.212.557q.476.215.955.425.607.268,1.217.531.487.209.978.414.612.256,1.229.508.493.2.988.4c.173.069.343.14.517.209.15.06.305.114.455.173q1.191.464,2.4.908c.2.073.4.148.6.221q1.467.533,2.957,1.037c.241.082.483.16.725.241q1.2.4,2.4.777c.275.087.548.173.823.258q1.522.468,3.06.91l.057.017c.158.045.319.087.477.131q1.075.3,2.158.592c.319.085.641.167.961.25q.885.23,1.774.452.532.131,1.067.259.854.205,1.711.4.544.125,1.088.246c.585.131,1.172.256,1.76.38.236.05.47.1.707.153.116.024.234.045.35.069q.751.153,1.507.3c.382.075.765.151,1.149.223.521.1,1.045.192,1.569.285.368.066.735.134,1.1.2.56.1,1.124.188,1.686.28.334.055.666.111,1,.164q1.027.161,2.06.308c.2.03.4.062.605.091l.037,0q1.265.179,2.536.34l.126.017q1.335.169,2.674.319c.291.033.584.06.875.091.6.065,1.2.131,1.809.189.353.034.706.063,1.059.1.545.05,1.089.1,1.635.146l.1.009c.346.029.693.052,1.039.078.519.04,1.038.082,1.558.118.4.027.8.05,1.2.074.5.031,1,.065,1.507.092.408.023.817.04,1.225.06.5.024.992.049,1.488.069.414.017.829.029,1.244.043.49.017.981.034,1.472.047l.249.008c.116,0,.231,0,.346,0,1.5.035,3,.056,4.507.056q1.515,0,3.031-.026c.319,0,.637-.013.956-.02q1.051-.021,2.1-.053c.17-.006.34-.008.509-.013.2-.006.408-.018.612-.026q.906-.034,1.809-.076l1.13-.055q.944-.05,1.886-.111c.343-.021.686-.04,1.029-.064q1.148-.078,2.294-.171c.2-.016.4-.03.6-.046q1.444-.12,2.883-.263l.126-.011c.143-.014.286-.033.429-.047q1.36-.138,2.715-.3c.321-.037.641-.076.962-.115q1.281-.155,2.558-.33c.235-.032.47-.061.7-.094q1.591-.222,3.172-.472c.25-.04.5-.082.748-.123q1.245-.2,2.482-.421c.17-.031.343-.057.513-.087s.365-.07.548-.1q.694-.128,1.384-.26.617-.119,1.233-.24.69-.138,1.377-.282c.407-.085.815-.17,1.221-.258.458-.1.914-.2,1.37-.3.4-.091.807-.181,1.21-.275.455-.106.908-.215,1.361-.324q.6-.145,1.2-.292c.452-.113.9-.23,1.352-.346.4-.1.792-.2,1.185-.309.451-.12.9-.245,1.347-.368.388-.108.778-.214,1.164-.324.452-.128.9-.262,1.35-.394.38-.112.761-.222,1.138-.337.454-.137.9-.28,1.355-.421.306-.1.614-.188.919-.286l.155-.052q1.489-.479,2.956-.987c.237-.082.471-.166.707-.249q1.163-.409,2.312-.836c.27-.1.538-.2.807-.3q1.447-.547,2.874-1.121l.148-.062q1.353-.549,2.681-1.127c.265-.114.529-.231.792-.347q1.117-.493,2.217-1c.2-.094.405-.185.606-.28q1.355-.639,2.682-1.3c.206-.1.409-.21.614-.315q1.058-.538,2.1-1.1c.245-.132.492-.263.736-.4.868-.473,1.73-.953,2.577-1.445q.777-.452,1.536-.91c.079-.047.154-.1.232-.144.343-.208.678-.419,1.015-.629.318-.2.638-.4.95-.6.332-.212.656-.426.981-.641.307-.2.617-.4.919-.607.321-.216.634-.435.95-.653.3-.2.593-.408.883-.614.312-.221.617-.445.923-.668.282-.206.568-.411.846-.619.3-.226.6-.454.892-.682.272-.209.546-.416.813-.627.291-.229.574-.461.859-.692.261-.211.525-.422.78-.635.281-.233.553-.469.827-.7.25-.214.5-.426.748-.641.27-.237.531-.476.795-.714.206-.187.419-.372.623-.561.026-.025.051-.05.078-.075q.875-.811,1.7-1.635c.141-.14.275-.28.414-.42q.627-.633,1.227-1.273.247-.263.489-.526.614-.669,1.2-1.344c.105-.122.214-.243.318-.364q.723-.848,1.4-1.706c.03-.038.062-.074.091-.111.113-.144.218-.29.328-.434.255-.331.508-.661.752-.994.153-.206.3-.415.448-.623.225-.315.447-.631.663-.947q.219-.322.432-.646.312-.471.61-.945c.136-.216.271-.431.4-.648.2-.323.387-.648.575-.973.084-.144.174-.287.255-.431.038-.068.072-.136.11-.2.158-.284.309-.568.46-.852.121-.228.245-.455.361-.685.149-.291.289-.583.431-.875.109-.223.22-.446.324-.67.14-.3.272-.607.4-.91.094-.214.192-.428.282-.643.137-.327.264-.656.392-.984.068-.175.143-.348.209-.522.006-.018.012-.037.019-.055.113-.3.217-.61.323-.915.073-.21.152-.42.221-.631.111-.338.211-.678.314-1.017.054-.178.113-.355.164-.534q.207-.726.385-1.453c.009-.034.019-.069.028-.1q.189-.78.346-1.561l0-.017c.029-.143.05-.286.077-.428.071-.375.142-.751.2-1.128.032-.2.055-.4.084-.6.046-.324.094-.648.132-.973.026-.221.043-.441.065-.662.03-.306.062-.611.085-.917.017-.23.026-.46.039-.69.016-.3.035-.593.045-.89,0-.039,0-.079.006-.118q.019-.655.015-1.31l.136-47.851C509.226,382.9,509.218,383.38,509.2,383.857Z" transform="translate(-285.547 -314.873)" fill="#7b5d14"/>
          <path id="Trazado_171470" data-name="Trazado 171470" d="M508.76,367.054q.037-.223.072-.447c.057-.366.107-.733.153-1.1.013-.1.028-.208.04-.312,0-.032.009-.064.013-.1.048-.426.087-.853.121-1.279.009-.114.016-.228.023-.341q.038-.543.061-1.085c.006-.131.011-.263.016-.4.015-.463.023-.926.021-1.389v-.078c0-.446-.018-.891-.037-1.337,0-.123-.013-.247-.019-.371q-.029-.543-.073-1.085c-.01-.119-.018-.238-.029-.357-.04-.435-.084-.869-.139-1.3,0-.025-.008-.05-.011-.074-.009-.075-.021-.148-.031-.223q-.079-.589-.177-1.176c-.021-.128-.043-.258-.065-.386q-.111-.628-.241-1.254c-.009-.044-.017-.088-.026-.131q-.12-.564-.257-1.126c-.02-.082-.043-.164-.064-.246-.03-.121-.062-.241-.094-.361q-.145-.557-.306-1.112c-.029-.1-.056-.2-.086-.3q-.2-.677-.431-1.352c-.035-.1-.071-.2-.106-.305-.072-.208-.142-.416-.217-.623-.058-.16-.121-.319-.181-.478-.045-.118-.088-.236-.133-.353-.174-.449-.355-.9-.546-1.346-.024-.057-.05-.114-.075-.171q-.256-.6-.534-1.19c-.057-.123-.115-.246-.174-.37s-.1-.221-.156-.331c-.144-.3-.293-.589-.444-.883-.023-.045-.045-.091-.068-.136-.23-.443-.47-.885-.716-1.327-.066-.118-.133-.235-.2-.353q-.305-.538-.629-1.074c-.058-.1-.115-.194-.174-.29l-.079-.131c-.242-.393-.493-.785-.749-1.176-.064-.1-.13-.2-.2-.292q-.349-.527-.716-1.051c-.083-.119-.167-.239-.251-.358-.305-.429-.616-.858-.938-1.284l-.009-.013-.046-.059c-.312-.413-.635-.824-.963-1.234q-.149-.185-.3-.369-.411-.5-.837-1.005l-.258-.3q-.5-.581-1.023-1.159l-.091-.1c-.086-.094-.175-.188-.262-.282q-.46-.5-.936-1-.185-.194-.373-.386-.484-.5-.985-.988c-.093-.092-.183-.184-.277-.275q-.577-.56-1.172-1.115l-.119-.109c-.116-.107-.235-.214-.352-.321q-.507-.462-1.026-.92-.232-.2-.468-.407-.509-.441-1.033-.878c-.14-.117-.279-.236-.421-.353-.475-.392-.956-.781-1.448-1.168l-.033-.026c-.072-.056-.145-.111-.217-.167q-.665-.519-1.35-1.033c-.177-.133-.358-.264-.537-.4q-.544-.4-1.1-.8-.3-.215-.607-.428-.557-.389-1.125-.776c-.2-.133-.39-.266-.587-.4-.087-.057-.17-.116-.256-.173-.132-.088-.272-.173-.406-.26q-.907-.595-1.842-1.181c-.229-.143-.457-.287-.688-.429-.812-.5-1.635-.995-2.48-1.482l-9.9-5.2c.738.426,1.456.859,2.166,1.295.2.125.4.251.6.377q.816.511,1.606,1.029c.194.127.391.254.583.382.171.114.338.229.507.343q.5.341.99.682l.527.372q.488.348.964.7c.155.115.312.228.466.344q.6.448,1.181.9l.191.146q.66.518,1.295,1.044c.123.1.245.2.367.306q.459.383.906.77.2.176.4.352.457.4.9.808l.306.277q.575.533,1.129,1.071c.081.079.16.159.241.238q.438.432.863.866c.109.112.217.223.324.336q.417.434.82.871c.075.082.153.164.228.245s.163.184.245.277q.614.684,1.193,1.376c.119.143.238.284.355.427.441.537.872,1.076,1.282,1.619.012.016.023.032.035.048.392.519.764,1.042,1.127,1.567.1.149.2.3.3.447q.458.677.883,1.359c.062.1.128.2.189.3q.494.8.943,1.616c.075.135.145.271.219.407q.349.645.671,1.294c.073.148.147.3.219.444.262.546.514,1.093.748,1.642.025.057.046.116.07.173q.313.746.589,1.5c.058.158.115.316.172.474q.244.689.459,1.378c.033.107.07.215.1.322q.25.832.455,1.667c.035.138.065.277.1.415q.159.674.289,1.349c.029.15.06.3.087.451.1.565.192,1.13.263,1.7.009.071.015.143.023.214q.093.767.147,1.535c.012.158.023.316.032.473.032.531.054,1.063.06,1.594,0,.063,0,.127,0,.19,0,.583-.015,1.165-.043,1.747-.007.156-.016.312-.026.468q-.046.758-.126,1.515c-.011.094-.017.187-.028.281s-.024.18-.035.271q-.06.481-.133.961c-.02.131-.041.261-.062.392q-.076.454-.165.909c-.021.11-.041.221-.063.331q-.124.608-.27,1.212c-.018.077-.04.153-.059.228q-.126.5-.265,1c-.038.135-.077.269-.117.4q-.125.425-.26.848c-.044.138-.088.275-.134.411-.1.312-.214.623-.326.934-.036.1-.068.194-.1.291q-.231.617-.485,1.232c-.035.085-.074.17-.109.254-.138.325-.279.649-.426.973-.065.141-.132.283-.2.424q-.189.4-.389.806-.114.228-.231.455-.2.383-.4.765c-.089.164-.177.328-.268.492-.145.26-.3.518-.447.777-.088.151-.174.3-.265.453-.182.3-.37.6-.56.9-.067.105-.131.211-.2.316q-.393.607-.81,1.208c-.066.1-.135.189-.2.284-.216.306-.434.613-.66.918-.108.146-.221.292-.332.437-.192.254-.385.507-.584.759-.125.159-.254.317-.382.475-.193.238-.387.476-.586.714q-.2.243-.413.485-.318.37-.646.739c-.114.128-.228.257-.344.385q-.4.442-.818.88c-.077.082-.152.163-.229.244q-.533.557-1.09,1.106c-.1.1-.2.19-.294.286q-.386.377-.783.751c-.5.473-1.014.944-1.543,1.41l-.013.011c-.524.462-1.066.919-1.616,1.374-.208.172-.42.343-.632.514-.264.213-.529.426-.8.638-.23.18-.463.359-.7.538q-.41.313-.827.625t-.85.621c-.179.129-.357.259-.538.387-.342.243-.69.483-1.04.723-.15.1-.3.206-.446.307-.117.079-.239.157-.357.236q-.907.606-1.849,1.2c-.205.129-.41.259-.617.387q-.7.436-1.429.865c-.253.15-.5.3-.757.451q-.855.5-1.725.978c-.365.2-.736.4-1.105.6-.252.135-.5.273-.756.407-.191.1-.386.2-.578.3-.41.212-.82.425-1.236.632-.2.1-.4.2-.6.294-.4.2-.8.393-1.2.585q-.332.157-.667.312-.58.272-1.166.538l-.641.288q-.609.27-1.222.535c-.2.086-.4.172-.6.257q-.825.35-1.659.689l-.138.057q-.9.365-1.816.715l-.561.213q-.659.25-1.322.493l-.624.227q-.668.241-1.343.473l-.586.2q-.955.326-1.918.639l-.019.006q-1.01.327-2.031.638c-.281.086-.564.168-.846.252-.412.123-.824.248-1.24.367q-1.145.33-2.3.642l-.1.026q-1.408.378-2.834.725l-.748.182q-1.224.294-2.458.569l-.321.072q-1.382.3-2.778.58c-.25.05-.5.1-.753.147q-1.107.215-2.219.414c-.235.043-.468.086-.7.126q-1.4.245-2.819.465c-.166.026-.333.049-.5.074q-1.263.192-2.533.363c-.286.039-.571.078-.858.115q-.713.093-1.429.178c-.35.042-.7.085-1.051.126l-.968.106q-.643.07-1.286.135l-.863.084q-.712.067-1.424.128l-.655.056q-.995.082-1.992.153l-.1.007q-1.039.072-2.079.13l-.551.03q-.889.047-1.778.086l-.331.015q-1.025.043-2.05.071l-.5.013q-.934.023-1.87.038l-.243,0q-1.143.016-2.287.016-1.094,0-2.187-.016l-.2,0q-1.029-.014-2.058-.043l-.559-.016q-.867-.025-1.735-.06l-.394-.015q-1.051-.045-2.1-.1l-.519-.031q-.795-.046-1.588-.1l-.763-.053q-.718-.052-1.435-.11l-.753-.061c-.47-.04-.939-.084-1.408-.128-.274-.025-.549-.05-.823-.077-.5-.05-1-.1-1.5-.158-.243-.026-.485-.05-.727-.077-.322-.037-.643-.077-.964-.115-.463-.055-.927-.109-1.388-.168-.27-.034-.538-.072-.807-.108-.542-.072-1.085-.144-1.626-.221-.283-.04-.565-.084-.848-.126q-.863-.128-1.723-.265c-.294-.047-.586-.1-.879-.143q-1.013-.168-2.021-.349c-.241-.043-.483-.085-.724-.13q-1.486-.274-2.96-.575l-.568-.119q-1.614-.337-3.213-.707c-.071-.016-.143-.031-.214-.048q-1.962-.459-3.895-.971c-.133-.035-.266-.068-.4-.1-.48-.128-.956-.261-1.433-.394-.268-.074-.538-.147-.806-.223-.59-.168-1.176-.342-1.76-.517-.151-.045-.3-.088-.455-.134q-1.16-.352-2.305-.724c-.236-.077-.47-.156-.705-.234-.528-.174-1.055-.35-1.578-.531-.264-.091-.526-.184-.789-.277q-.829-.293-1.651-.595-.4-.149-.805-.3-.869-.327-1.728-.667c-.207-.081-.415-.161-.621-.243q-1.2-.48-2.377-.983c-.18-.077-.358-.157-.537-.235q-.924-.4-1.834-.813-.359-.163-.715-.328-1.006-.465-1.994-.949c-.139-.067-.28-.133-.417-.2q-1.171-.579-2.316-1.183c-.162-.085-.323-.173-.484-.259-.97-.517-1.93-1.043-2.872-1.587q-.987-.569-1.938-1.153c-.507-.31-1.01-.621-1.5-.936l-.214-.139q-.654-.419-1.291-.846l-.465-.314q-.526-.357-1.039-.717c-.149-.1-.3-.209-.446-.314q-.563-.4-1.109-.805c-.108-.079-.218-.158-.324-.237q-.7-.52-1.371-1.048c-.112-.087-.221-.176-.332-.265q-.5-.4-1-.8c-.153-.125-.3-.251-.452-.377q-.413-.345-.816-.693-.27-.233-.536-.468-.377-.331-.743-.665c-.171-.155-.342-.311-.51-.467-.248-.23-.49-.461-.731-.693-.156-.15-.314-.3-.468-.45-.257-.252-.507-.506-.757-.759-.129-.132-.262-.263-.389-.394-.2-.207-.392-.416-.587-.624s-.382-.4-.566-.607-.37-.416-.554-.624-.363-.408-.539-.614-.348-.416-.521-.626-.348-.415-.516-.624-.328-.419-.491-.629-.331-.421-.49-.632c-.1-.139-.2-.28-.306-.419-.236-.32-.469-.64-.694-.962-.121-.174-.238-.348-.356-.523-.2-.289-.39-.578-.578-.869-.12-.186-.237-.372-.353-.558q-.266-.426-.521-.853c-.111-.187-.222-.375-.33-.563q-.25-.437-.487-.876c-.094-.172-.189-.345-.28-.519-.282-.537-.553-1.076-.807-1.618-.037-.078-.07-.157-.106-.236q-.326-.706-.618-1.415c-.066-.159-.13-.319-.194-.478q-.266-.669-.5-1.342c-.039-.11-.082-.22-.12-.331q-.282-.821-.521-1.645-.13-.448-.247-.9c-.027-.1-.057-.206-.083-.309q-.159-.626-.293-1.254c-.022-.1-.04-.2-.06-.305-.065-.318-.128-.636-.183-.955-.026-.15-.049-.3-.073-.449q-.067-.41-.123-.82c-.022-.161-.042-.322-.062-.483-.033-.268-.061-.536-.087-.8-.016-.158-.031-.316-.044-.475-.024-.287-.042-.574-.058-.861-.008-.135-.018-.271-.023-.407-.019-.421-.031-.843-.033-1.264,0-.287.006-.573.013-.86q.014-.706.059-1.411c.006-.108.01-.216.018-.323.041-.564.1-1.128.169-1.691.017-.14.038-.279.057-.418q.093-.674.213-1.346c.027-.15.053-.3.082-.451.109-.563.228-1.125.365-1.686.017-.07.038-.139.055-.209q.188-.747.412-1.492.071-.236.145-.474.227-.719.484-1.437c.031-.087.06-.175.092-.261.2-.555.426-1.107.66-1.659.06-.143.125-.286.188-.429q.287-.657.6-1.309c.07-.145.138-.289.209-.434q.352-.708.735-1.411c.019-.034.035-.068.055-.1.276-.5.568-1,.868-1.5.091-.15.187-.3.28-.449q.33-.531.678-1.06c.111-.168.223-.336.338-.5q.363-.533.746-1.063c.1-.143.2-.285.307-.427.36-.487.729-.973,1.114-1.454.051-.065.106-.128.158-.192q.505-.629,1.04-1.252c.133-.154.269-.308.4-.462q.438-.5.893-.993c.148-.16.294-.319.445-.478.337-.358.683-.713,1.035-1.067.113-.115.224-.231.339-.345q.7-.695,1.44-1.381c.113-.105.231-.209.345-.313q.581-.532,1.184-1.058c.174-.152.351-.3.529-.453q.55-.469,1.119-.933c.178-.146.355-.292.537-.436q.692-.554,1.412-1.1c.1-.073.189-.148.285-.22q.865-.651,1.769-1.291c.167-.118.338-.235.507-.353q.669-.467,1.358-.927.32-.214.646-.426.674-.442,1.366-.875c.2-.128.4-.255.609-.382.662-.408,1.332-.813,2.019-1.212s1.371-.785,2.067-1.167l.167-.089q.964-.526,1.945-1.035h0L323,312.212q-2.44,1.262-4.78,2.621c-.785.456-1.552.919-2.309,1.386-.234.144-.463.29-.694.435q-.794.5-1.567,1c-.248.162-.494.325-.739.488q-.787.525-1.549,1.059c-.2.135-.393.27-.585.407q-1.031.731-2.023,1.475c-.111.084-.217.169-.327.253q-.822.625-1.614,1.258c-.208.166-.411.333-.615.5q-.651.531-1.281,1.068c-.2.172-.405.345-.6.518q-.692.6-1.357,1.212c-.13.119-.265.237-.393.356q-.845.784-1.647,1.58c-.133.132-.26.265-.391.4q-.6.608-1.183,1.22c-.172.182-.341.365-.509.548q-.521.565-1.022,1.136c-.155.177-.311.353-.463.53q-.612.713-1.191,1.433c-.059.073-.121.145-.179.218q-.66.828-1.275,1.666c-.12.162-.234.325-.351.488q-.437.605-.853,1.216-.2.288-.387.578-.4.6-.775,1.211c-.107.172-.217.343-.321.516-.344.569-.678,1.141-.994,1.715-.021.038-.04.077-.061.116q-.441.8-.842,1.615c-.031.061-.065.122-.1.183q-.262.532-.508,1.067l-.009.018c-.2.443-.4.887-.583,1.332q-.078.185-.153.371-.231.562-.444,1.127c-.032.084-.065.169-.1.253q-.249.675-.473,1.351c-.037.111-.072.221-.107.332q-.176.546-.335,1.092c-.034.116-.07.233-.1.35-.128.453-.249.907-.36,1.361-.017.071-.033.143-.05.214q-.14.588-.262,1.178-.039.192-.077.382c-.082.419-.159.839-.227,1.259-.007.042-.015.084-.022.127-.072.458-.135.916-.191,1.375-.015.123-.028.246-.042.37q-.063.558-.109,1.117c-.008.1-.018.2-.026.306q-.051.685-.077,1.372c0,.1,0,.2-.008.3-.006.217-.015.434-.018.651s0,.458,0,.688c0,.482.016.963.038,1.445.007.155.018.311.027.467.018.328.04.656.067.983.015.182.033.363.05.544.03.306.062.612.1.918q.033.278.07.554c.043.312.091.625.141.937.028.171.053.343.084.514.064.364.135.727.209,1.09.023.118.044.235.07.353q.153.717.335,1.433c.03.119.065.236.1.355.077.294.153.588.237.881.014.048.031.1.045.143q.275.943.6,1.883c.043.126.092.251.137.377q.272.769.577,1.535c.073.183.147.367.223.55q.335.811.707,1.618c.041.089.079.18.121.27.29.619.6,1.236.923,1.85.031.059.056.117.087.175.074.141.158.28.234.421.181.334.365.668.557,1q.185.322.377.645.29.488.6.975c.133.214.267.427.405.639.215.333.436.664.661.995.135.2.268.4.407.6.257.367.523.733.792,1.1.1.133.188.267.287.4.021.029.045.057.067.086.179.239.368.477.553.715s.375.486.569.728.392.475.588.712.394.479.6.717.414.472.622.708.414.473.628.709.434.466.652.7c.194.206.381.414.578.619.029.031.06.06.089.091.146.151.3.3.446.452.285.29.572.58.866.868.175.172.356.343.535.515.276.265.553.53.836.793.192.179.387.357.583.535q.42.382.85.763.3.268.614.536c.13.112.255.225.387.337.179.153.365.3.546.455s.343.289.519.432c.372.307.753.612,1.136.915.128.1.253.2.382.305q.77.6,1.567,1.2c.123.092.249.182.372.273.328.242.655.485.99.724l.277.2c.169.12.34.239.51.358q.589.413,1.191.821c.175.119.35.238.528.357q.731.488,1.481.971l.24.156q.768.491,1.557.974c.054.033.111.065.165.1q1.091.665,2.216,1.318c1.077.621,2.175,1.224,3.283,1.815.109.058.214.121.323.179.077.04.155.078.231.118q1.311.69,2.648,1.353c.158.078.319.153.477.231q1.132.552,2.284,1.085c.134.062.265.128.4.19s.278.122.416.184q1.043.475,2.1.932c.2.089.406.179.612.267q1.349.576,2.722,1.125c.054.022.107.045.161.067.181.072.365.14.546.211q.984.387,1.978.763.461.173.924.343.942.347,1.893.682c.191.067.379.138.57.205.108.038.218.072.326.109q.9.311,1.809.608c.27.089.537.181.807.268q1.312.425,2.639.829l.025.008c.155.047.314.091.47.138.678.2,1.356.405,2.039.6.307.087.616.17.924.256.544.151,1.088.3,1.635.449.062.017.124.035.187.052.41.109.823.212,1.234.318.336.087.67.175,1.006.259.517.13,1.037.253,1.557.378.3.072.6.148.9.218l.083.021c.063.014.128.027.191.042q1.828.425,3.676.808c.135.028.269.061.4.089.082.017.165.031.246.048q1.686.345,3.386.658l.243.047c.2.036.4.067.592.1q1.15.206,2.306.4c.18.03.359.064.539.094.157.025.315.047.472.072q.985.158,1.974.3c.232.034.462.072.694.106l.27.036c.622.089,1.247.173,1.871.255.258.034.515.072.773.106l.143.017c.529.067,1.059.129,1.588.192.332.04.664.083,1,.121l.108.011c.275.03.551.058.825.088.5.054,1,.11,1.5.16l.223.021c.309.03.62.058.929.087.409.038.818.079,1.227.115l.392.032.863.07c.314.025.627.053.941.077.233.018.466.032.7.048q.435.032.872.061c.2.013.394.029.591.042.406.026.813.048,1.22.072l.6.036.21.012q1.006.054,2.013.1l.177.007.453.017c.412.016.824.033,1.237.048l.749.021.636.018.481.014q.9.021,1.8.034h.073l.235,0q.739.01,1.478.015.509,0,1.018,0h.754q.877,0,1.753-.015l.106,0,.287,0q.681-.01,1.361-.023c.258-.006.517-.014.775-.021l.56-.015.435-.011q.884-.028,1.769-.063l.143-.007.38-.016c.43-.019.861-.037,1.29-.058l.746-.041.623-.034.477-.026q.943-.056,1.884-.121h.021l.109-.009q.938-.065,1.874-.14l.41-.035.748-.064c.292-.026.585-.048.878-.075.253-.023.506-.049.758-.073q.491-.047.98-.1c.182-.018.364-.034.546-.053.31-.032.618-.068.927-.1.37-.04.741-.08,1.112-.122.137-.016.274-.029.41-.045.263-.031.524-.066.786-.1q.82-.1,1.64-.2c.161-.021.322-.038.483-.06s.329-.049.5-.071q1.454-.2,2.9-.416c.141-.021.284-.039.425-.061.05-.007.1-.016.147-.024q1.618-.251,3.224-.531c.27-.048.54-.1.809-.145q1.272-.228,2.536-.473c.288-.056.576-.111.863-.169q1.6-.318,3.18-.663l.366-.083q1.412-.313,2.812-.651c.144-.035.29-.065.434-.1s.284-.074.428-.11c1.088-.267,2.172-.542,3.248-.831l.087-.022.022-.006q1.325-.357,2.636-.735l.128-.035c.431-.124.858-.255,1.288-.383.324-.1.649-.19.971-.289l.094-.028q1.12-.343,2.229-.7h.006q1-.323,1.991-.66c.074-.025.148-.052.222-.077.223-.076.445-.154.667-.231.35-.121.7-.241,1.049-.365.165-.059.328-.12.492-.179q.355-.129.71-.259c.211-.077.423-.152.632-.229.3-.111.591-.225.887-.337.211-.08.424-.16.636-.241l.287-.109q.889-.345,1.769-.7l.026-.011.142-.059q.8-.325,1.6-.658c.106-.045.211-.092.317-.137.226-.1.451-.194.676-.291.27-.116.542-.231.811-.348.2-.087.394-.178.592-.266l.731-.329.485-.217c.287-.132.569-.267.854-.4.252-.118.505-.235.756-.354.093-.045.187-.087.28-.131.372-.178.738-.362,1.107-.543.226-.111.453-.22.678-.333l.136-.067c.427-.214.847-.434,1.269-.652.223-.116.45-.228.672-.346l.061-.031c.267-.14.528-.287.793-.428.425-.228.851-.455,1.272-.687l.086-.046q.952-.529,1.888-1.072l.376-.22c.167-.1.326-.2.491-.3q.826-.491,1.632-.988c.115-.071.236-.14.35-.211.273-.171.54-.343.809-.515l.41-.261q.78-.5,1.542-1.014c.04-.028.079-.056.121-.083.17-.115.336-.232.5-.347.4-.276.8-.553,1.2-.831.207-.147.41-.294.614-.442s.422-.3.628-.451c.117-.087.228-.174.345-.26.319-.237.633-.475.946-.714.267-.2.536-.409.8-.616.309-.242.612-.485.914-.729.172-.138.349-.275.519-.414.07-.057.135-.116.205-.175.628-.519,1.246-1.041,1.845-1.569l.021-.018c.6-.533,1.19-1.071,1.764-1.613.062-.058.128-.115.189-.173.241-.228.475-.459.71-.689.111-.108.223-.215.333-.323q.637-.63,1.249-1.267c.088-.092.172-.185.26-.277q.478-.5.939-1.01c.133-.146.263-.293.393-.439s.279-.309.416-.464c.111-.128.216-.256.326-.384q.237-.276.47-.553c.228-.272.452-.546.674-.82.146-.18.292-.36.434-.541.229-.29.452-.582.673-.873.125-.165.253-.33.375-.5.259-.349.509-.7.756-1.051.077-.109.157-.217.233-.326.01-.014.021-.028.03-.042q.462-.667.9-1.34c.079-.122.153-.245.231-.367.217-.342.432-.684.639-1.028.1-.172.2-.344.3-.516.173-.3.345-.592.51-.889.1-.188.206-.376.309-.565.087-.162.18-.323.265-.485.067-.128.13-.258.2-.388q.134-.261.264-.521.229-.46.445-.92c.076-.163.154-.326.228-.488q.253-.556.487-1.114c.041-.1.085-.193.125-.289q.273-.659.523-1.32c.011-.03.021-.06.033-.089.041-.112.079-.223.12-.335q.195-.533.374-1.067c.052-.157.1-.314.153-.472q.155-.484.3-.969c.045-.154.092-.308.135-.463q.161-.571.3-1.144c.022-.088.047-.176.068-.264,0-.018.01-.037.014-.056.106-.443.2-.886.294-1.33.026-.127.049-.254.074-.381C508.639,367.746,508.7,367.4,508.76,367.054Z" transform="translate(-285.602 -293.056)" fill="#c99a28"/>
        </g>
      </g>
      <g id="Grupo_111222" data-name="Grupo 111222" transform="translate(187.626 20.168)">
        <g id="Grupo_111218" data-name="Grupo 111218" transform="translate(69.312 39.79)">
          <path id="Trazado_171471" data-name="Trazado 171471" d="M506.705,387.466,484,388.652l-6.083,16.1-9.753-5.63,4.985-11.1-6,.3-8.822,5.127-8.162-4.711,29.271-17.011,8.162,4.712-12.29,7.142c1.79-.168,3.528-.326,5.182-.474l15.766-1.669Z" transform="translate(-450.16 -371.72)" fill="#f2f2f2"/>
        </g>
        <g id="Grupo_111219" data-name="Grupo 111219" transform="translate(43.278 27.12)">
          <path id="Trazado_171472" data-name="Trazado 171472" d="M454.463,357.661c4.021,2.321,6.045,4.3,7.351,6.154l-8.307,2.668a17.22,17.22,0,0,0-5.742-5.087c-2.446-1.413-4.614-1.758-5.872-1.027-1.564.909-.226,2.292,2.417,5.216,3.9,4.376,3.862,7.527-.557,10.1-4.913,2.855-13.319,3.24-22.712-2.183-3.9-2.252-6.645-5.058-7.576-6.7l8.391-2.895a18.112,18.112,0,0,0,6.43,6.075c2.754,1.591,5.024,1.9,6.5,1.037,1.258-.731.739-2-1.851-4.653-3.636-3.695-5.227-7.587-.144-10.54C438.1,352.742,446.815,353.246,454.463,357.661Z" transform="translate(-413.465 -353.862)" fill="#f2f2f2"/>
        </g>
        <g id="Grupo_111220" data-name="Grupo 111220" transform="translate(28.727 16.359)">
          <path id="Trazado_171473" data-name="Trazado 171473" d="M430.491,343.464l-29.272,17.011-8.264-4.771,29.272-17.011Z" transform="translate(-392.955 -338.693)" fill="#f2f2f2"/>
        </g>
        <g id="Grupo_111221" data-name="Grupo 111221">
          <path id="Trazado_171474" data-name="Trazado 171474" d="M383.5,340.568c-2,2.331-5.29,5.413-5.848,6.391l-8.4-4.851a26.376,26.376,0,0,1,4.4-5.2c2.629-2.578,2.128-3.655-.627-5.245l-1.488-.86-10.9,6.333-8.179-4.722,28.881-16.784a105.916,105.916,0,0,1,11.049,5.631c4.945,2.855,7.55,5.146,8.193,7.389.539,1.867-.405,3.784-3.363,5.5-3.91,2.272-9.574,1.877-12.274,1.067l-.17.1C385.915,336.943,385.106,338.681,383.5,340.568Zm-3.733-11.706c3.234,1.867,6.46,2.213,8.669.929s1.689-2.9-1.1-4.514a26.693,26.693,0,0,0-3.318-1.719l-6.7,3.892,2.446,1.413" transform="translate(-352.463 -315.635)" fill="#f2f2f2"/>
        </g>
      </g>
      <g id="Grupo_111225" data-name="Grupo 111225" transform="translate(109.958 40.757)">
        <g id="Grupo_111223" data-name="Grupo 111223">
          <path id="Trazado_171475" data-name="Trazado 171475" d="M261.371,348.757l3.016,20.393s9.294-4.194,14.7-6.994c3.6-1.865,9.71,6.391,6.982,8.237-3,2.028-15.126,9.622-22.913,14.479a7.649,7.649,0,0,1-10.735-2.765,97.559,97.559,0,0,1-4.712-9.274c-4.113-10.4-7.354-20.069-1.662-24.993a13.612,13.612,0,0,1,11.768-2.824A4.848,4.848,0,0,1,261.371,348.757Z" transform="translate(-242.987 -344.656)" fill="#b3b3b3"/>
        </g>
        <g id="Grupo_111224" data-name="Grupo 111224" transform="translate(34.913 8.183)">
          <path id="Trazado_171476" data-name="Trazado 171476" d="M293.044,367.075c3.822-3.635,5.747-6.531,6.9-7.334s7.328-4.651,9.576-3.246,5.776,2.8,5.137,5.476-5.091,4.837-6.648,5.874-4.36,3.93-6.089,4.276a9.7,9.7,0,0,0-4.15,1.916C295.519,375.516,290.123,369.853,293.044,367.075Z" transform="translate(-292.198 -356.19)" fill="#ffd2b3"/>
          <path id="Trazado_171477" data-name="Trazado 171477" d="M304.739,376.1a49.31,49.31,0,0,0,6.176-1.05c1.622-.534,4.028-2.853,4.978-3.469s-.839-1.846-2.126-1.286-3.469,1.778-3.469,1.778-5.565-3.708-9.369.991Z" transform="translate(-294.734 -360.247)" fill="#ffd2b3"/>
        </g>
      </g>
    </g>
    <g id="Grupo_111232" data-name="Grupo 111232" transform="translate(165.056 291.5)">
      <g id="Grupo_111227" data-name="Grupo 111227" transform="translate(24.91 103.539)">
        <path id="Trazado_171478" data-name="Trazado 171478" d="M278.046,569.444c-8.184,4.725-13.878,4.648-15.563,6.442-5.234,4.063-9.519,4.17-12.811,2.269s-2.354-4.879-1.5-8.867c.874-4.086.629-2.9,1.183-5.958.49-2.7,3.373-4.282,6.614-3.915,4.821.545,5.124,1.72,6.552,1.83s3.467-.4,7.252-1.64a12.058,12.058,0,0,1,9.541,1.038C281.84,562.234,282.87,566.659,278.046,569.444Z" transform="translate(-236.268 -474.027)" fill="#262626"/>
        <path id="Trazado_171479" data-name="Trazado 171479" d="M234.082,443.993c-6.6,16.016,2.228,26.129,7.182,31.182A121.126,121.126,0,0,1,251.9,488.24s-7.083,36.6-8.141,42.251c-.888,4.74,14.866,5.9,16.55.723,2.894-8.905,5.7-21.692,8.918-31.976C272.736,488,275.2,479,271.634,473.046c-4.848-8.1-9.063-16.1-16.977-23.726C247.334,442.265,238.352,433.626,234.082,443.993Z" transform="translate(-231.725 -439.199)" fill="#353436"/>
      </g>
      <g id="Grupo_111228" data-name="Grupo 111228" transform="translate(0 103.361)">
        <path id="Trazado_171480" data-name="Trazado 171480" d="M228,619.8c-6.406.969-11.739.688-16.911,1.756-5.223,1.08-7.942,1.99-11.42-.018-5.2-3-2.517-8.8-.988-14.276,1.317-4.722,8.139-2.736,15.41-1.757,6.294.847,7.407-.423,11.275-.32,4.136.11,8.675,1.052,10.358,5.92C237.235,615.472,232.932,619.057,228,619.8Z" transform="translate(-196.614 -486.976)" fill="#262626"/>
        <path id="Trazado_171481" data-name="Trazado 171481" d="M270.827,451.3s0,3.515-3.8,15.406c-3.349,10.468-23.32,44.557-26.1,49s-17.426,31.3-22.322,45.08c-1.874,5.276-22.5,5.383-19.155-2.973,3.227-8.071,14.977-40.492,22.462-53.257,2.777-5,17.541-45.254,21.567-58.721S269.759,441.081,270.827,451.3Z" transform="translate(-197.331 -438.949)" fill="#414042"/>
        <path id="Trazado_171482" data-name="Trazado 171482" d="M222.624,566.629a4.77,4.77,0,0,0,2.822-2.431c4.9-13.781,19.543-40.635,22.322-45.08s22.747-38.529,26.093-49c3.807-11.891,3.807-15.408,3.807-15.408a9.2,9.2,0,0,0-1.507-4.023c-.189,3.122-.576,8.3-1.1,9.878-.765,2.3-12.552,29.8-27.044,53.184C234.338,535.824,226.4,553.69,222.624,566.629Z" transform="translate(-204.171 -442.36)" opacity="0.25"/>
      </g>
      <g id="Grupo_111231" data-name="Grupo 111231" transform="translate(26.673 0)">
        <path id="Trazado_171483" data-name="Trazado 171483" d="M258.354,346.62c2.507,1.415,26.876,14.95,29.611,17.442s8.522,8.784,3.671,17.438-6.837,13.174-10.683,30.131c-.841,3.708,1.571,11.472-.4,15.587-1.779,3.712-8.73,8.012-14.784,8.645-5.427.568-16.955-3.409-24.691-8.653s-7.767-8.377-5.717-12.807c2.491-5.383,1.9-8.315,3.473-15s-1.135-37.635,4.459-46.638S254.918,344.681,258.354,346.62Z" transform="translate(-234.21 -308.389)" fill="#fff"/>
        <path id="Trazado_171484" data-name="Trazado 171484" d="M293.4,443.75a9.789,9.789,0,0,0,2.122-2.74c1.975-4.116-.441-11.88.4-15.586,3.845-16.958,5.831-21.48,10.685-30.132a15.861,15.861,0,0,0,1.132-2.481l-15.048,9.371s-6.633,24.451-6.949,27.411C285.5,431.921,293.733,436.279,293.4,443.75Z" transform="translate(-249.182 -322.182)" opacity="0.1"/>
        <g id="Grupo_111230" data-name="Grupo 111230" transform="translate(19.363)">
          <path id="Trazado_171485" data-name="Trazado 171485" d="M288.073,341.13a36.743,36.743,0,0,0,.245,13.14s-7.88,1.548-13.727-2.035-3.669-4.453-2.7-7.8c1-3.466,2.378-6.279,1.918-9.172-.381-2.387,8.247-1.923,12.109,1.63C287.045,337.931,288.239,339.608,288.073,341.13Z" transform="translate(-264.169 -305.032)" fill="#ffd2b3"/>
          <path id="Trazado_171486" data-name="Trazado 171486" d="M289.573,359.3a22.172,22.172,0,0,1-16.865-2.543c-9.3-5.636-1.914-8.882-1.182-9.748-.667,1.842.913,3.332,3.1,4.477,5.9,3.09,12.676,1.624,12.685,1.624.584-.112.967.294,1.248.818C289.239,355.214,289.573,356.109,289.573,359.3Z" transform="translate(-263.406 -308.874)" fill="#e6e6e6"/>
          <g id="Grupo_111229" data-name="Grupo 111229">
            <path id="Trazado_171487" data-name="Trazado 171487" d="M296.142,307.357a82.638,82.638,0,0,1,.783,8.411c-.065,2.282-.518,3.456-.39,5.477s-2.664,11.541-4.327,13.107-19.8,1.6-25.018-6.872-6.721-21.346,1.4-28.111c7.4-6.162,12.369-5.75,17.443-4.4C291.676,296.468,295.538,302.188,296.142,307.357Z" transform="translate(-261.906 -293.514)" fill="#ffd2b3"/>
            <path id="Trazado_171488" data-name="Trazado 171488" d="M290.11,320.34s.163,2.922.359,3.835,1.989-.261,1.891-2.38c-.033-.725-.043-1.615-.043-2.472a5.95,5.95,0,0,1,2.04-4.424c1.536-1.367,3.456-4.116,3.817-9.434a5.156,5.156,0,0,0-2.142-4.052.947.947,0,0,1-.228-.243c-.783-1.173-5.123-8.8-16.3-7.825-11.26.978-12.652,6.26-12.652,6.26s-6.064,2.869-5.281,13.562c.795,10.86,4.76,17.084,10.237,19.17,3.593,1.369,8.219,1.744,11.585.443,3.08-1.189,4.3-1.967,3.086-4.29a9.464,9.464,0,0,1-1.391-4.3C285.176,318.621,290.11,317.786,290.11,320.34Z" transform="translate(-261.503 -293.258)" fill="#d16411"/>
            <path id="Trazado_171489" data-name="Trazado 171489" d="M298.3,310.084a1.67,1.67,0,0,1,0,.267c-.364,5.321-2.282,8.069-3.819,9.435a5.951,5.951,0,0,0-2.04,4.424c0,.858.009,1.75.043,2.471.1,2.123-1.7,3.3-1.894,2.38s-.359-3.833-.359-3.833c0-2.553-4.933-1.715-5.02,3.848a9.5,9.5,0,0,0,1.391,4.3c1.217,2.321,0,3.1-3.082,4.289-3.368,1.3-8,.926-11.587-.441-5.073-1.933-8.848-7.414-10.011-16.839l0,.005c12.163,11.146,22.581.726,22.581.726C289.051,319.82,294.924,313.864,298.3,310.084Z" transform="translate(-261.624 -298.147)" fill="#b84507"/>
          </g>
        </g>
        <path id="Trazado_171490" data-name="Trazado 171490" d="M240.586,421.47c-.974-5.615.726-17.9-.368-25.919-.1,8.185.02,15.558-.657,18.437-1.422,6.048-1.074,9.02-2.84,13.511C238.349,425.176,240.01,423.89,240.586,421.47Z" transform="translate(-234.94 -322.979)" opacity="0.1"/>
      </g>
    </g>
    <g id="Grupo_111234" data-name="Grupo 111234" transform="translate(233.261 348.683)">
      <g id="Grupo_111233" data-name="Grupo 111233" transform="translate(48.816 45.557)">
        <path id="Trazado_171491" data-name="Trazado 171491" d="M369.983,440.608s6.687-2.083,7.554-2.254,6.568-.281,7.366-.281.565,2.429-1.549,2.535a23.018,23.018,0,0,0-4.176.656s-.8,5.979-9.2,4.973Z" transform="translate(-364.006 -438.073)" fill="#ffd2b3"/>
        <path id="Trazado_171492" data-name="Trazado 171492" d="M372.88,441.49a14.7,14.7,0,0,1,3.989-.08,69.953,69.953,0,0,1,10.674,1.837c3.284,1.107,3.1,11.8-.844,11.8-5.073,0-12.669.26-16.61-1.8s-4.129-2.065-7.038-2.721-1.743-9.514,5.067-8.946A20.736,20.736,0,0,0,372.88,441.49Z" transform="translate(-361.558 -439.013)" fill="#ffd2b3"/>
      </g>
      <path id="Trazado_171493" data-name="Trazado 171493" d="M308.086,375.86l19.455,35.427s15.3,6.506,21.962,8.751c4.035,1.359,1.908,15.411-4.567,14.076-8.46-1.745-19.966-6.074-25.815-8.391a15.267,15.267,0,0,1-6.225-4.557c-4.452-5.467-13.786-16.969-18.537-23.111C287.981,389.807,302.245,367.029,308.086,375.86Z" transform="translate(-292.751 -373.859)" fill="#fff"/>
    </g>
  </g>
</svg>
