<svg xmlns="http://www.w3.org/2000/svg" width="60" height="59.985" viewBox="0 0 60 59.985">
  <g id="Grupo_110885" data-name="Grupo 110885" transform="translate(472.877 -1808.071)">
    <path id="Trazado_170335" data-name="Trazado 170335" d="M-453.327,1808.071a44.415,44.415,0,0,0,8.988,3.327c2.258.538,4.544.9,6.839,1.223a2.9,2.9,0,0,1,2.569,2.992c.016,1.911.021,3.823-.008,5.734a.872.872,0,0,0,.532.894c6.267,3.572,9.463,8.989,9.453,16.189a16.98,16.98,0,0,1-4.173,11.092c-.312.373-.327.553.019.931.657.717,1.194,1.177,2.324.736a3.325,3.325,0,0,1,3.6.944c3.084,3.04,6.165,6.083,9.18,9.19a3.948,3.948,0,0,1-1.947,6.605,3.761,3.761,0,0,1-3.68-.969c-3.073-3.051-6.15-6.1-9.18-9.191a3.733,3.733,0,0,1-.736-4.379c.131-.3.129-.482-.122-.7a8.3,8.3,0,0,1-.909-.91c-.258-.306-.435-.3-.743-.036a17.6,17.6,0,0,1-7.476,3.8,19.225,19.225,0,0,1-6.217.372,24.417,24.417,0,0,1-3.4-.774.707.707,0,0,0-.7.156c-.882.705-1.79,1.378-2.667,2.089a3.026,3.026,0,0,1-4.062.107q-5.918-4.571-11.812-9.174a3.11,3.11,0,0,1-1.239-2.587q.014-13.283.006-26.566a3.015,3.015,0,0,1,2.6-3.114,44.325,44.325,0,0,0,10.733-3.106,4.124,4.124,0,0,1,3.527.084,40.23,40.23,0,0,0,9.83,2.879c2.3.349,3.45,1.509,3.266,3.775-.052.643.139.982.805,1.037a2.706,2.706,0,0,1,.724.218c.323.125.486.12.48-.316-.022-1.658,0-3.316-.012-4.974a.911.911,0,0,0-.878-1.039c-.784-.134-1.576-.22-2.365-.327a42.453,42.453,0,0,1-12.893-3.938,1.758,1.758,0,0,0-1.706.023,41.888,41.888,0,0,1-9,3.2,39.679,39.679,0,0,1-5.8.953c-1,.084-1.3.415-1.3,1.35q0,15.653,0,31.306a2.251,2.251,0,0,0,.963,1.894c1.871,1.432,3.718,2.9,5.577,4.343q4.541,3.534,9.088,7.061a1.987,1.987,0,0,0,2.77-.034c.926-.713,1.842-1.439,2.775-2.142.676-.51.934-.5,1.62-.008.3.83.223,1.1-.481,1.649-.937.73-1.869,1.468-2.816,2.184a3.949,3.949,0,0,1-5.021,0q-7.434-5.762-14.849-11.549a4.049,4.049,0,0,1-1.432-2.013c-.037-.117-.016-.285-.185-.336v-33.364a.764.764,0,0,0,.127-.173,3.058,3.058,0,0,1,2.679-2.118c1.08-.14,2.16-.288,3.235-.468a42.521,42.521,0,0,0,12.339-4.03Zm2.435,46.091c-.178-.106-.29-.178-.406-.241a17.738,17.738,0,0,1-9.126-19.838c1.605-6.89,5.987-11.341,12.777-13.376a16.994,16.994,0,0,1,6.194-.585c.171.013.4.144.525-.091a1.459,1.459,0,0,0-1-2.008,48.335,48.335,0,0,1-11.181-3.273,1.869,1.869,0,0,0-1.613.02,48.438,48.438,0,0,1-11.068,3.247c-.835.143-1.1.452-1.1,1.294q0,13.167-.006,26.335a1.384,1.384,0,0,0,.59,1.2c1.5,1.148,2.988,2.319,4.481,3.48q3.578,2.784,7.155,5.569a1.016,1.016,0,0,0,1.288.168C-452.544,1855.464-451.744,1854.815-450.892,1854.162Zm7.97-.133a15.961,15.961,0,0,0,15.991-15.828,15.911,15.911,0,0,0-15.9-16.14,15.914,15.914,0,0,0-16.055,15.813A15.988,15.988,0,0,0-442.922,1854.029Z"/>
    <path id="Trazado_170336" data-name="Trazado 170336" d="M-437.356,1869.451c-.687-.49-.944-.5-1.62.008-.933.7-1.849,1.429-2.775,2.142a1.987,1.987,0,0,1-2.77.034q-4.555-3.515-9.088-7.061c-1.859-1.447-3.706-2.911-5.577-4.343a2.251,2.251,0,0,1-.963-1.894q0-15.653,0-31.306c0-.936.3-1.267,1.3-1.35a39.679,39.679,0,0,0,5.8-.953,41.888,41.888,0,0,0,9-3.2,1.758,1.758,0,0,1,1.706-.023,42.453,42.453,0,0,0,12.893,3.938c.789.107,1.581.193,2.365.327a.911.911,0,0,1,.878,1.039c.009,1.658-.01,3.316.012,4.974.006.436-.157.441-.48.316a2.706,2.706,0,0,0-.724-.218c-.667-.055-.858-.394-.805-1.037.184-2.265-.962-3.425-3.266-3.775a40.23,40.23,0,0,1-9.83-2.879,4.124,4.124,0,0,0-3.527-.084,44.325,44.325,0,0,1-10.733,3.106,3.015,3.015,0,0,0-2.6,3.114q0,13.283-.006,26.566a3.11,3.11,0,0,0,1.239,2.587q5.9,4.6,11.812,9.174a3.026,3.026,0,0,0,4.062-.107c.877-.711,1.785-1.384,2.667-2.089a.707.707,0,0,1,.7-.156,24.417,24.417,0,0,0,3.4.774Z" transform="translate(-10.736 -11.156)" fill="#28c65d"/>
    <path id="Trazado_170337" data-name="Trazado 170337" d="M-418.648,1889.232c-.852.653-1.652,1.3-2.492,1.9a1.016,1.016,0,0,1-1.288-.168q-3.572-2.791-7.155-5.569c-1.493-1.161-2.978-2.332-4.481-3.48a1.384,1.384,0,0,1-.59-1.2q.01-13.167.006-26.335c0-.842.268-1.151,1.1-1.294a48.438,48.438,0,0,0,11.068-3.247,1.868,1.868,0,0,1,1.613-.02,48.336,48.336,0,0,0,11.181,3.273,1.459,1.459,0,0,1,1,2.008c-.124.235-.354.1-.525.091a16.994,16.994,0,0,0-6.194.585c-6.79,2.035-11.171,6.486-12.777,13.376a17.738,17.738,0,0,0,9.126,19.838C-418.938,1889.054-418.826,1889.126-418.648,1889.232Zm-14-31.459c0,.429-.016.858,0,1.286a1.009,1.009,0,0,0,1.014,1.057.978.978,0,0,0,.975-1.077c.015-.643.034-1.288,0-1.928-.024-.423.135-.555.535-.64a51.307,51.307,0,0,0,7.811-2.35,1.02,1.02,0,0,0,.716-1.33,1.006,1.006,0,0,0-1.4-.54,54.748,54.748,0,0,1-8.045,2.382,2.005,2.005,0,0,0-1.6,1.973C-432.666,1856.993-432.65,1857.384-432.651,1857.773Zm1.99,5.882c0-.195.013-.391,0-.584a.981.981,0,0,0-.93-.949,1.006,1.006,0,0,0-1.032.85,4.147,4.147,0,0,0-.026.7c0,.943.333,1.433.985,1.452C-431,1865.142-430.655,1864.647-430.661,1863.655Z" transform="translate(-32.244 -35.07)" fill="#f5cd6c"/>
    <path id="Trazado_170338" data-name="Trazado 170338" d="M-367.5,1929.461a15.988,15.988,0,0,1-15.965-16.155,15.914,15.914,0,0,1,16.055-15.812,15.911,15.911,0,0,1,15.9,16.14A15.961,15.961,0,0,1-367.5,1929.461Zm-13.96-15.99a13.95,13.95,0,0,0,13.986,13.976,13.953,13.953,0,0,0,13.958-13.943,13.955,13.955,0,0,0-14.016-14A13.949,13.949,0,0,0-381.456,1913.471Z" transform="translate(-75.426 -75.432)" fill="#c99a28"/>
    <path id="Trazado_170339" data-name="Trazado 170339" d="M-421.89,1871.3c0-.39-.015-.78,0-1.169a2.005,2.005,0,0,1,1.6-1.973,54.751,54.751,0,0,0,8.045-2.382,1.006,1.006,0,0,1,1.4.54,1.02,1.02,0,0,1-.716,1.33,51.307,51.307,0,0,1-7.811,2.35c-.4.086-.559.217-.535.64.036.641.016,1.286,0,1.928a.978.978,0,0,1-.975,1.077,1.009,1.009,0,0,1-1.014-1.057C-421.907,1872.153-421.891,1871.724-421.89,1871.3Z" transform="translate(-43.004 -48.592)"/>
    <path id="Trazado_170340" data-name="Trazado 170340" d="M-419.88,1930.912c.006.992-.335,1.487-1.005,1.468-.653-.019-.987-.509-.985-1.452a4.146,4.146,0,0,1,.026-.7,1.006,1.006,0,0,1,1.032-.85.981.981,0,0,1,.93.949C-419.867,1930.521-419.88,1930.717-419.88,1930.912Z" transform="translate(-43.025 -102.327)"/>
    <path id="Trazado_170341" data-name="Trazado 170341" d="M-370.639,1924.284a13.949,13.949,0,0,1,13.928-13.973,13.955,13.955,0,0,1,14.016,14,13.953,13.953,0,0,1-13.958,13.943A13.95,13.95,0,0,1-370.639,1924.284Zm2.007-.048a11.939,11.939,0,0,0,11.918,12.02,11.949,11.949,0,0,0,12.018-11.864,11.946,11.946,0,0,0-11.746-12.076A11.927,11.927,0,0,0-368.633,1924.235Z" transform="translate(-86.243 -86.244)"/>
    <path id="Trazado_170342" data-name="Trazado 170342" d="M-357.816,1935.035a11.927,11.927,0,0,1,12.19-11.92,11.946,11.946,0,0,1,11.746,12.076,11.949,11.949,0,0,1-12.018,11.865A11.939,11.939,0,0,1-357.816,1935.035Zm19.941-3.922a.969.969,0,0,0-1.26-.969,3.02,3.02,0,0,0-.383.142l-7.458,3.2q-3.085,1.323-6.171,2.645a.975.975,0,0,0-.659,1.16.95.95,0,0,0,.9.788,1.5,1.5,0,0,0,.78-.21q2.175-.927,4.347-1.861,4.507-1.932,9.015-3.862C-338.293,1931.942-337.887,1931.7-337.874,1931.113Zm0,6.986c.013-.8-.7-1.21-1.546-.873q-4.8,1.914-9.6,3.843c-.7.279-.972.793-.756,1.361s.8.77,1.523.488c.871-.34,1.736-.693,2.6-1.04q3.445-1.376,6.891-2.75C-338.28,1938.937-337.882,1938.69-337.874,1938.1Zm-3.99-11.008a.974.974,0,0,0-1.289-.937c-.535.177-1.054.405-1.578.614q-4.123,1.646-8.245,3.294c-.736.294-1.02.8-.786,1.394s.784.748,1.533.463c.2-.076.4-.158.6-.237q4.421-1.765,8.843-3.528C-342.3,1927.958-341.867,1927.713-341.864,1927.092Z" transform="translate(-97.059 -97.044)" fill="#fffae8"/>
    <path id="Trazado_170343" data-name="Trazado 170343" d="M-316.367,1968.8c-.013.588-.419.829-.889,1.03q-4.509,1.927-9.015,3.862-2.173.931-4.347,1.861a1.5,1.5,0,0,1-.78.21.95.95,0,0,1-.9-.788.975.975,0,0,1,.659-1.16q3.086-1.321,6.171-2.645l7.458-3.2a3.02,3.02,0,0,1,.383-.142A.969.969,0,0,1-316.367,1968.8Z" transform="translate(-118.567 -134.728)"/>
    <path id="Trazado_170344" data-name="Trazado 170344" d="M-294.917,2013.551c-.008.59-.406.838-.885,1.029q-3.447,1.371-6.891,2.75c-.868.347-1.733.7-2.6,1.04-.722.282-1.3.09-1.523-.488s.061-1.082.756-1.361q4.8-1.927,9.6-3.843C-295.617,2012.341-294.9,2012.754-294.917,2013.551Z" transform="translate(-140.016 -172.496)"/>
    <path id="Trazado_170345" data-name="Trazado 170345" d="M-320.442,1943.206c0,.621-.432.865-.926,1.062q-4.423,1.761-8.843,3.528c-.2.079-.4.161-.6.237-.75.285-1.3.117-1.533-.463s.05-1.1.786-1.394q4.122-1.649,8.245-3.294c.524-.209,1.043-.437,1.578-.614A.974.974,0,0,1-320.442,1943.206Z" transform="translate(-118.481 -113.158)"/>
  </g>
</svg>
