<svg xmlns="http://www.w3.org/2000/svg" width="60" height="60.012" viewBox="0 0 60 60.012">
  <g id="Grupo_110805" data-name="Grupo 110805" transform="translate(757.108 -1289.407)">
    <path id="Trazado_170186" data-name="Trazado 170186" d="M-757.1,1345.539q0-27.809-.011-55.618c0-.413.073-.513.5-.513q22.011.022,44.022.012c0,1.094.029,2.188-.023,3.279-.024.518.149.642.629.688a16.344,16.344,0,0,1,14.687,18.533c-1.052,6.975-5.156,11.5-11.875,13.658-.49.157-1.208.046-1.431.463s-.048,1.065-.08,1.609c-.02.345.064.5.444.468s.742.01,1.112-.012c.3-.018.419.072.4.39-.024.507-.006,1.015-.006,1.523,0,4.862.017,9.724-.009,14.586a4.824,4.824,0,0,1-4.233,4.768,4.793,4.793,0,0,1-5.155-3.25c-.161-.5-.381-.591-.849-.591Q-738.032,1345.547-757.1,1345.539Zm39.718-2a1.733,1.733,0,0,0,.4.033c.465-.071.592.15.53.566a1.9,1.9,0,0,0,0,.292,2.868,2.868,0,0,0,2.891,3.01,2.836,2.836,0,0,0,2.867-2.967c.012-4.641,0-9.282.013-13.923,0-.384-.107-.492-.488-.487-1.56.02-3.12.028-4.679,0-.473-.009-.621.093-.617.6.025,3.334.013,6.669.013,10,0,.981,0,.981-.937,1.037a1.085,1.085,0,0,0-.289-.026c-.619.111-.758-.151-.752-.75.032-3.026.015-6.052.015-9.078,0-1.093.013-2.187-.008-3.279-.007-.358.1-.49.46-.462.388.029.781,0,1.171.01.254.01.343-.083.333-.337-.017-.429-.024-.86,0-1.288.023-.4-.056-.585-.524-.691a16.382,16.382,0,0,1-12.688-19.325c.112-.572-.037-.62-.537-.619-7.476.014-14.953.005-22.429.021-.472,0-.616-.09-.613-.594q.037-5.681,0-11.362c0-.562.175-.644.676-.644q17.422.021,34.844.011c1.227,0,1.227,0,1.288,1.2-.051,1-.051,1-1.065,1.279a14.545,14.545,0,0,0-10.4,16.259A14.52,14.52,0,0,0-710.925,1324a14.527,14.527,0,0,0,11.518-17.424,14.489,14.489,0,0,0-14.2-11.342c-.894-.017-.894-.017-.965-.913.01-.78-.018-1.563.042-2.339.042-.538-.149-.628-.645-.627q-19.677.021-39.354,0c-.511,0-.645.115-.644.637q.023,25.477,0,50.954c0,.538.139.669.671.668q18.242-.024,36.484-.014C-717.8,1343.594-717.591,1343.56-717.38,1343.542Zm-4.187-48.19a.5.5,0,0,0-.444-.118q-14.376,0-28.751-.01c-.4,0-.534.095-.531.515q.028,3.836,0,7.672c0,.389.077.536.507.536q10.686-.02,21.373,0a.575.575,0,0,0,.637-.437,14.605,14.605,0,0,1,1.652-3.085A16.574,16.574,0,0,1-721.566,1295.352Zm8.048,30.844c-1.017,0-1.017,0-1.017.961s0,.948.945.948c1,0,1,0,1-1.005C-712.593,1326.191-712.593,1326.191-713.519,1326.2Z" fill="#050504"/>
    <path id="Trazado_170187" data-name="Trazado 170187" d="M-702.4,1308.567c-.061-1.2-.061-1.2-1.288-1.2q-17.422,0-34.844-.01c-.5,0-.68.082-.676.644q.044,5.68,0,11.362c0,.5.141.595.613.594,7.476-.016,14.953-.007,22.429-.021.5,0,.649.047.537.619a16.382,16.382,0,0,0,12.688,19.325c.469.106.548.291.525.691-.025.428-.018.859,0,1.288.01.254-.079.347-.333.337-.39-.015-.782.019-1.171-.01-.365-.028-.467.1-.46.462.021,1.093.008,2.186.008,3.28,0,3.026.017,6.052-.015,9.078-.006.6.133.862.752.75a1.088,1.088,0,0,1,.289.026q0,.921.005,1.843c-.212.018-.424.052-.636.052q-18.242,0-36.484.015c-.533,0-.672-.13-.671-.668q.023-25.477,0-50.954c0-.522.133-.638.644-.637q19.677.023,39.354,0c.5,0,.687.09.645.628-.06.776-.032,1.559-.042,2.339Zm-24.232,47.184c2.108,0,4.217-.007,6.325.007.337,0,.5-.048.466-.437a13.353,13.353,0,0,0-.08-1.4,4.812,4.812,0,0,0-4.985-3.969c-.628.006-.748-.179-.743-.768q.041-5.564,0-11.129c0-.577.062-1,.665-1.226a1.028,1.028,0,0,0,.553-.5c.381-.972,1.154-.976,1.99-.9a4.026,4.026,0,0,0,.7,0c.406-.032.568.037.391.508-.362.965-.673,1.95-.976,2.937a.534.534,0,0,1-.63.429c-.771-.016-.772,0-.767.768,0,.137,0,.273.009.41a4.847,4.847,0,0,0,4.887,4.612,4.859,4.859,0,0,0,4.8-4.947c.013-.834.013-.845-.813-.845-.287,0-.468-.051-.565-.358-.328-1.039-.677-2.072-1.029-3.1-.1-.295-.063-.406.292-.417,1.138-.035,1.138-.051,1.137-1.226a1,1,0,0,1,0-.175c.08-.443-.1-.547-.539-.543-2.538.023-5.076,0-7.614.02-.484,0-.845-.041-1.037-.576a1.168,1.168,0,0,0-.562-.649c-.952-.376-.956-1.129-.883-1.943.01-.116-.011-.235,0-.351.036-.288-.093-.351-.366-.363-1.588-.073-1.588-.081-1.589,1.475a1.782,1.782,0,0,0,0,.234.485.485,0,0,1-.347.574,2.367,2.367,0,0,0-1.219,1.213c-.145.335-.355.385-.677.384-2.538-.011-5.076-.006-7.614-.006-.791,0-.791,0-.791.806,0,1.1,0,1.108,1.118,1.13.354.007.439.077.312.435-.358,1.009-.684,2.029-1.011,3.048a.483.483,0,0,1-.536.4c-.85,0-.85.02-.842.861,0,.117,0,.234.008.351a4.852,4.852,0,0,0,4.685,4.575,4.847,4.847,0,0,0,4.991-5.042c.008-.895.076-.74-.735-.756-.244,0-.5.066-.614-.282-.343-1.076-.7-2.146-1.067-3.215-.1-.288-.009-.376.286-.369.644.015,1.289.018,1.932,0a.5.5,0,0,1,.528.345,2.574,2.574,0,0,0,1.263,1.252.492.492,0,0,1,.331.526q-.013,5.975,0,11.949c0,.381-.125.457-.466.438a5.454,5.454,0,0,0-1.627.141c-2.376.594-3.743,2.525-3.719,5.2,0,.391.115.483.491.479C-730.809,1355.742-728.72,1355.751-726.631,1355.751Zm-1.893-29.995h-9.36c-1.31,0-1.287,0-1.319,1.331-.011.475.094.613.595.611,6.454-.019,12.909-.013,19.364-.013,1.358,0,1.335,0,1.364-1.369.01-.469-.129-.573-.581-.571C-721.816,1325.766-725.17,1325.757-728.524,1325.757Zm1.925-3.869h-7.436c-1.29,0-1.266,0-1.3,1.3-.014.5.094.647.626.645,5.133-.024,10.265-.014,15.4-.014,1.433,0,1.416,0,1.429-1.421,0-.414-.113-.517-.519-.514C-721.134,1321.9-723.866,1321.888-726.6,1321.888Zm-11.65,0c-.942,0-.942,0-.942.925,0,1,0,1,.989,1,.956,0,.956,0,.956-.931C-737.247,1321.888-737.247,1321.888-738.249,1321.888Z" transform="translate(-14.039 -14.083)" fill="#e4e7eb"/>
    <path id="Trazado_170188" data-name="Trazado 170188" d="M-679.408,1337.524a16.572,16.572,0,0,0-5.556,5.072,14.608,14.608,0,0,0-1.652,3.085.575.575,0,0,1-.637.437q-10.686-.018-21.373,0c-.43,0-.509-.147-.507-.536q.023-3.836,0-7.672c0-.42.132-.516.531-.515q14.376.015,28.751.01A.5.5,0,0,1-679.408,1337.524Z" transform="translate(-42.159 -42.172)" fill="#fffae8"/>
    <path id="Trazado_170189" data-name="Trazado 170189" d="M-506.092,1330.082l1.868-.168c.071.9.071.9.965.913a14.489,14.489,0,0,1,14.2,11.342,14.527,14.527,0,0,1-11.518,17.425,14.52,14.52,0,0,1-16.975-11.973,14.545,14.545,0,0,1,10.4-16.259C-506.143,1331.079-506.143,1331.079-506.092,1330.082Zm10.406,6.409a2.256,2.256,0,0,1,.126-.193c.469-.585.474-.59-.153-1.047a12.3,12.3,0,0,0-9.384-2.352,12.583,12.583,0,0,0-8.361,19.726c.593.828.593.828,1.389.248l1.313,1.315a2.236,2.236,0,0,1-.127.194c-.46.572-.464.576.141,1.018a12.3,12.3,0,0,0,9.261,2.389,12.579,12.579,0,0,0,8.514-19.723c-.6-.843-.6-.843-1.411-.262Z" transform="translate(-210.346 -35.597)" fill="#318335"/>
    <path id="Trazado_170190" data-name="Trazado 170190" d="M-429.373,1638.3q0-.922-.005-1.843c.937-.056.937-.056.937-1.037,0-3.335.012-6.669-.013-10,0-.5.143-.6.617-.6,1.559.031,3.12.024,4.679,0,.382-.005.489.1.488.487-.013,4.641,0,9.282-.013,13.923a2.836,2.836,0,0,1-2.868,2.967,2.867,2.867,0,0,1-2.891-3.01,1.893,1.893,0,0,1,0-.292c.062-.416-.065-.636-.53-.566A1.732,1.732,0,0,1-429.373,1638.3Z" transform="translate(-288.007 -294.76)" fill="#318335"/>
    <path id="Trazado_170191" data-name="Trazado 170191" d="M-404.854,1592.919c.925,0,.925,0,.925.9,0,1,0,1-1,1-.945,0-.945,0-.945-.948S-405.871,1592.924-404.854,1592.919Z" transform="translate(-308.664 -266.724)" fill="#b3dc7e"/>
    <path id="Trazado_170192" data-name="Trazado 170192" d="M-712.566,1530.947c-2.089,0-4.178-.009-6.267.009-.375,0-.487-.089-.491-.479-.024-2.675,1.342-4.6,3.718-5.2a5.45,5.45,0,0,1,1.627-.14c.341.019.467-.057.466-.438q-.023-5.975,0-11.949a.492.492,0,0,0-.331-.526,2.573,2.573,0,0,1-1.263-1.252.5.5,0,0,0-.528-.345c-.644.019-1.289.017-1.932,0-.3-.007-.384.081-.287.369.362,1.069.724,2.139,1.067,3.215.111.348.37.277.614.282.81.015.743-.139.735.756a4.847,4.847,0,0,1-4.991,5.042,4.852,4.852,0,0,1-4.685-4.575c-.005-.117-.007-.234-.008-.351-.008-.841-.008-.859.842-.861a.483.483,0,0,0,.536-.4c.327-1.02.653-2.04,1.011-3.048.127-.358.042-.428-.312-.435-1.118-.022-1.118-.034-1.118-1.13,0-.806,0-.806.791-.806,2.538,0,5.076,0,7.614.006.321,0,.532-.049.677-.384a2.368,2.368,0,0,1,1.218-1.213.485.485,0,0,0,.347-.574,1.76,1.76,0,0,1,0-.234c0-1.556,0-1.548,1.589-1.475.273.013.4.075.366.363-.014.115.007.235,0,.351-.073.814-.069,1.567.883,1.943a1.169,1.169,0,0,1,.562.649c.192.535.554.579,1.037.576,2.538-.018,5.076,0,7.614-.02.436,0,.619.1.539.543a1.007,1.007,0,0,0,0,.175c0,1.175,0,1.191-1.138,1.226-.355.011-.392.122-.292.417.351,1.031.7,2.064,1.029,3.1.1.307.278.358.565.358.826,0,.826.011.813.845a4.859,4.859,0,0,1-4.8,4.947,4.847,4.847,0,0,1-4.887-4.612c-.008-.136-.008-.273-.009-.41-.005-.766,0-.785.767-.768a.535.535,0,0,0,.63-.429c.3-.986.614-1.971.975-2.937.176-.471.014-.54-.391-.508a4.016,4.016,0,0,1-.7,0c-.836-.08-1.609-.075-1.99.9a1.028,1.028,0,0,1-.553.5c-.6.228-.669.648-.665,1.226q.04,5.564,0,11.129c0,.589.116.773.744.768a4.812,4.812,0,0,1,4.985,3.969,13.337,13.337,0,0,1,.08,1.4c.037.39-.129.44-.466.437C-708.349,1530.94-710.457,1530.947-712.566,1530.947Zm-4.567-1.992h9.231a2.781,2.781,0,0,0-2.522-1.858c-1.42-.06-2.845-.036-4.267-.007A2.691,2.691,0,0,0-717.132,1528.955Zm-5.888-12.528a2.858,2.858,0,0,0,2.6,1.923,2.793,2.793,0,0,0,2.667-1.481c.141-.236.275-.454-.208-.449C-719.622,1516.438-721.279,1516.427-723.021,1516.427Zm18.244,0c-.778,0-1.557.01-2.335,0-.324-.006-.44.064-.258.386a2.809,2.809,0,0,0,2.564,1.548,2.8,2.8,0,0,0,2.562-1.548c.185-.33.064-.391-.256-.385C-703.259,1516.436-704.018,1516.427-704.777,1516.427Zm-.02-1.932c.389,0,.778-.013,1.165,0,.322.014.354-.12.264-.386-.361-1.064-.714-2.131-1.068-3.2-.059-.178-.135-.295-.362-.293a.348.348,0,0,0-.378.276q-.538,1.627-1.083,3.252c-.079.234-.063.363.237.349C-705.614,1514.482-705.205,1514.495-704.8,1514.495Zm-15.524,0c.408,0,.817-.008,1.225,0,.259.007.359-.067.266-.338q-.555-1.624-1.091-3.254a.339.339,0,0,0-.367-.282.344.344,0,0,0-.37.289c-.356,1.087-.71,2.175-1.081,3.258-.1.278-.008.336.251.327C-721.1,1514.485-720.711,1514.5-720.322,1514.495Zm7.782-5.8a.99.99,0,0,0-.968.964.956.956,0,0,0,.924.937.948.948,0,0,0,1-.921A.981.981,0,0,0-712.54,1508.7Z" transform="translate(-28.105 -189.278)" fill="#050504"/>
    <path id="Trazado_170193" data-name="Trazado 170193" d="M-714.546,1473.043c3.354,0,6.708.009,10.062-.011.451,0,.591.1.581.571-.029,1.369-.006,1.369-1.364,1.369q-9.682,0-19.364.013c-.5,0-.606-.136-.595-.611.032-1.331.01-1.331,1.319-1.331Z" transform="translate(-28.017 -161.369)" fill="#050504"/>
    <path id="Trazado_170194" data-name="Trazado 170194" d="M-684.578,1441.135c2.732,0,5.465.009,8.2-.009.406,0,.523.1.519.514-.013,1.421,0,1.421-1.429,1.421-5.133,0-10.265-.01-15.4.014-.532,0-.64-.146-.626-.645.036-1.294.011-1.3,1.3-1.3Z" transform="translate(-56.06 -133.329)" fill="#050504"/>
    <path id="Trazado_170195" data-name="Trazado 170195" d="M-724.178,1441.2c1,0,1,0,1,1,0,.931,0,.931-.956.931-.989,0-.989,0-.989-1C-725.12,1441.2-725.12,1441.2-724.178,1441.2Z" transform="translate(-28.111 -133.397)" fill="#050504"/>
    <path id="Trazado_170196" data-name="Trazado 170196" d="M-482.511,1388.806l-1.313-1.314c.051-.057.091-.135.154-.169.581-.309.5-.605.131-1.1a10.226,10.226,0,0,1-1.953-7.778,10.631,10.631,0,0,1,16.6-7.21c.78.547.78.547,1.45-.121l1.309,1.312a.953.953,0,0,1-.2.207c-.535.295-.438.569-.1,1.016a10.218,10.218,0,0,1,2.017,7.6,10.64,10.64,0,0,1-16.6,7.46C-481.84,1388.134-481.84,1388.134-482.511,1388.806Z" transform="translate(-238.59 -70.216)" fill="#fffae8"/>
    <path id="Trazado_170197" data-name="Trazado 170197" d="M-463.358,1408.43c.671-.672.671-.672,1.5-.1a10.64,10.64,0,0,0,16.6-7.46,10.219,10.219,0,0,0-2.017-7.6c-.335-.447-.432-.721.1-1.016a.952.952,0,0,0,.2-.207c.812-.581.812-.581,1.411.262a12.579,12.579,0,0,1-8.514,19.723,12.3,12.3,0,0,1-9.261-2.389c-.605-.443-.6-.447-.141-1.019A2.2,2.2,0,0,0-463.358,1408.43Z" transform="translate(-257.744 -89.841)" fill="#050504"/>
    <path id="Trazado_170198" data-name="Trazado 170198" d="M-481.558,1357.023c-.669.667-.669.667-1.45.121a10.631,10.631,0,0,0-16.6,7.21,10.226,10.226,0,0,0,1.953,7.778c.367.5.45.793-.131,1.1-.063.034-.1.112-.154.169-.8.58-.8.58-1.389-.248a12.583,12.583,0,0,1,8.361-19.726,12.294,12.294,0,0,1,9.384,2.352c.627.457.622.462.153,1.047A2.258,2.258,0,0,0-481.558,1357.023Z" transform="translate(-224.474 -56.129)" fill="#050504"/>
    <path id="Trazado_170199" data-name="Trazado 170199" d="M-659.169,1690.41a2.691,2.691,0,0,1,2.443-1.865c1.422-.03,2.847-.053,4.267.007a2.781,2.781,0,0,1,2.522,1.858Z" transform="translate(-86.068 -350.733)" fill="#f8d36e"/>
    <path id="Trazado_170200" data-name="Trazado 170200" d="M-707.75,1600.744c1.742,0,3.4.011,5.056-.006.483-.005.349.213.208.449a2.792,2.792,0,0,1-2.667,1.481A2.858,2.858,0,0,1-707.75,1600.744Z" transform="translate(-43.375 -273.595)" fill="#f8d36e"/>
    <path id="Trazado_170201" data-name="Trazado 170201" d="M-576.659,1600.757c.759,0,1.518.009,2.277,0,.32-.006.441.055.256.385a2.8,2.8,0,0,1-2.562,1.548,2.808,2.808,0,0,1-2.564-1.548c-.182-.323-.066-.392.258-.386C-578.216,1600.767-577.437,1600.757-576.659,1600.757Z" transform="translate(-156.223 -273.608)" fill="#f8d36e"/>
    <path id="Trazado_170202" data-name="Trazado 170202" d="M-568.287,1556.779c-.408,0-.817-.013-1.224,0-.3.013-.316-.115-.237-.35q.547-1.624,1.083-3.252a.348.348,0,0,1,.378-.275c.226,0,.3.115.362.293.354,1.066.706,2.133,1.068,3.2.09.265.058.4-.264.386C-567.509,1556.766-567.9,1556.779-568.287,1556.779Z" transform="translate(-164.616 -231.562)" fill="#e4e7eb"/>
    <path id="Trazado_170203" data-name="Trazado 170203" d="M-696.037,1556.791c-.389,0-.778-.01-1.167,0-.259.009-.347-.048-.251-.327.371-1.082.724-2.17,1.081-3.258a.345.345,0,0,1,.37-.289.339.339,0,0,1,.367.282q.534,1.631,1.091,3.254c.093.271-.007.345-.266.338C-695.22,1556.783-695.629,1556.791-696.037,1556.791Z" transform="translate(-52.39 -231.574)" fill="#e4e7eb"/>
    <path id="Trazado_170204" data-name="Trazado 170204" d="M-628.3,1537.023a.981.981,0,0,1,.952.98.948.948,0,0,1-1,.921.956.956,0,0,1-.924-.937A.99.99,0,0,1-628.3,1537.023Z" transform="translate(-112.344 -217.603)" fill="#f8d36e"/>
  </g>
</svg>
