<svg xmlns="http://www.w3.org/2000/svg" width="87.681" height="87.677" viewBox="0 0 87.681 87.677">
  <g id="Grupo_111095" data-name="Grupo 111095" transform="translate(480.475 -1717.465)">
    <path id="Trazado_171241" data-name="Trazado 171241" d="M-268.825,1834.226a7.084,7.084,0,0,1,6.784,2.326c.309.34.483.531.87.046a6.232,6.232,0,0,1,3.386-2.179c.472-.121.6-.349.591-.829-.035-1.6.048-3.2-.024-4.792a9.069,9.069,0,0,1,9.02-9.369c.827-.009,1.656-.032,2.482.005a1.559,1.559,0,0,1,1.673,1.473c.012.858-.675,1.475-1.726,1.514a21.316,21.316,0,0,0-3.671.118,5.974,5.974,0,0,0-4.831,5.921c-.071,1.766,0,3.537-.024,5.306a.506.506,0,0,0,.436.592,7.266,7.266,0,0,1,3.942,2.682,7.929,7.929,0,0,1,4.044-2.715,7.266,7.266,0,0,1,8.707,4.753c.143.467.254.848.867.968a1.315,1.315,0,0,1,1,1.421c.017,1.883.014,3.766,0,5.648a1.414,1.414,0,0,1-1.054,1.485c-.384.1-.409.291-.409.6q.006,9.714,0,19.427c0,.294,0,.512.4.612a1.39,1.39,0,0,1,1.061,1.474c.015,1.883.018,3.766,0,5.648a1.4,1.4,0,0,1-1.157,1.486.722.722,0,0,0-.6.588,7,7,0,0,1-6.013,5.2c-.037.005-.063.082-.094.125h-2.055c-.15-.273-.454-.221-.679-.275a7.267,7.267,0,0,1-2.98-1.591c-.368-.308-.673-.931-1.026-.946-.325-.013-.672.6-1.015.932a8.543,8.543,0,0,1-3.889,1.879h-2.226a8.478,8.478,0,0,1-4.545-3.02c-.462.486-.853.934-1.282,1.341a9.584,9.584,0,0,1-3.42,1.679h-2.569c-.071-.25-.32-.223-.488-.272a7.134,7.134,0,0,1-5.091-5.043c-.1-.335-.23-.527-.6-.6a1.349,1.349,0,0,1-1.161-1.39c-.037-1.937-.032-3.876-.007-5.814a1.363,1.363,0,0,1,1.038-1.4c.377-.1.429-.272.428-.589q-.024-7.053-.037-14.107c.018-1.767.03-3.535.058-5.3.006-.377-.151-.53-.505-.656a1.456,1.456,0,0,1-.99-1.46q-.023-2.825,0-5.65a1.41,1.41,0,0,1,1.085-1.467.886.886,0,0,0,.708-.7A7.129,7.129,0,0,1-268.825,1834.226Zm23.288,24.686a10.248,10.248,0,0,0-10.218-10.234,10.24,10.24,0,0,0-10.2,10.247,10.236,10.236,0,0,0,10.216,10.23A10.232,10.232,0,0,0-245.537,1858.911Zm-10.242-13.156H-240.2c2,0,1.962,0,2.017-1.957.021-.766-.168-.981-.963-.979q-16.048.044-32.1.02c-2.052,0-2.024,0-2.061,2.087-.012.665.157.849.836.846C-266.906,1845.743-261.342,1845.755-255.779,1845.755Zm.116,26.328h-15.658c-1.971,0-1.935,0-1.986,2-.019.742.155.945.927.943q16.086-.044,32.172-.02c2.01,0,1.976,0,2.023-2.045.016-.705-.156-.9-.878-.892C-244.6,1872.1-250.13,1872.083-255.663,1872.083ZM-264,1848.673c-2.477,0-4.725.029-6.972-.017-.7-.015-.841.227-.838.873.022,6.244.013,12.488.013,18.731,0,.143.006.286,0,.428-.012.305.094.48.437.479,2.38-.005,4.761,0,7.375,0a13.068,13.068,0,0,1-4.88-10.227A13.116,13.116,0,0,1-264,1848.673Zm16.522,0a13.155,13.155,0,0,1,4.86,10.225,13.212,13.212,0,0,1-4.85,10.268c2.545,0,4.877-.009,7.208.008.467,0,.573-.2.573-.616q-.013-9.623.005-19.245c0-.562-.228-.652-.713-.648C-242.675,1848.683-244.955,1848.673-247.478,1848.673Zm-.621-8.752c2.572,0,5.075-.007,7.578,0,.636,0,.471-.309.284-.632a4.254,4.254,0,0,0-4.092-2.273A4.214,4.214,0,0,0-248.1,1839.921Zm-15.229,0a4.345,4.345,0,0,0-3.732-2.891,4.332,4.332,0,0,0-4.191,2.25c-.222.428-.263.655.355.65C-268.421,1839.91-265.945,1839.922-263.328,1839.922Zm-.089,38h-7.665c-.432,0-.349.232-.239.5a4.472,4.472,0,0,0,4.028,2.4A4.2,4.2,0,0,0-263.417,1877.926Zm15.351,0a4.184,4.184,0,0,0,3.781,2.9,4.459,4.459,0,0,0,4.114-2.391c.1-.261.21-.51-.232-.511C-242.95,1877.926-245.5,1877.927-248.066,1877.927Zm-11.7-38.005c2.574,0,5.077-.008,7.579.006.533,0,.462-.21.3-.561a4.405,4.405,0,0,0-4.138-2.35A4.209,4.209,0,0,0-259.762,1839.922Zm4.011,38c-1.165,0-2.33.018-3.495-.008-.535-.012-.582.174-.346.584a4.242,4.242,0,0,0,3.894,2.32,4.243,4.243,0,0,0,3.805-2.326c.254-.445.135-.586-.364-.577C-253.42,1877.939-254.585,1877.924-255.75,1877.924Z" transform="translate(-157.514 -78.617)" fill="#030201"/>
    <path id="Trazado_171242" data-name="Trazado 171242" d="M-477.53,1775.9c-.43,1.685-1.429,1.905-2.945.65V1751.03a24.4,24.4,0,0,0,1.005-2.385,8.8,8.8,0,0,1,7.8-4.846c1.682-.055,3.368-.043,5.05-.005.608.014.758-.174.755-.765q-.037-6.036-.009-12.072a13.034,13.034,0,0,1,5.518-11.022,13.151,13.151,0,0,1,20.653,8.882,18.936,18.936,0,0,1,.146,2.389c0,3.881.018,7.763-.016,11.644-.006.713.109.983.909.954,1.766-.065,3.538-.034,5.306.014a8.168,8.168,0,0,1,5.284,2.123c.877.772,1.678,1.63,2.514,2.448a1.519,1.519,0,0,1,.5,1.7,1.442,1.442,0,0,1-1.471.962,2,2,0,0,1-1.172-.647c-.408-.4-.835-.783-1.207-1.213a6.982,6.982,0,0,0-6-2.486c-1.906.1-3.823.033-5.734.015-1.274-.012-1.821-.572-1.825-1.837-.008-2.283,0-4.565-.006-6.848a1.469,1.469,0,0,0-.092-.826c-2.774,1.173-5.267.932-7.326-1.384a5.624,5.624,0,0,1-.819-6.228c1.547-2.928,4.024-3.83,7.191-3.074-.648-2.471-4.082-5.958-8.814-6.135-4.761-.178-8.663,3.111-9.612,6.175a6.408,6.408,0,0,1,3.468-.117,5.859,5.859,0,0,1,3.995,7.618,5.84,5.84,0,0,1-7.773,3.375c-.682-.295-.729-.11-.723.5.024,2.254.012,4.508.008,6.763,0,1.536-.5,2.021-2.059,2.026-2.254.008-4.509-.032-6.762.027a5.81,5.81,0,0,0-5.63,5.023,46.047,46.047,0,0,0-.127,6.58C-477.569,1764.2-477.539,1770.046-477.53,1775.9Zm32.114-40.977a2.875,2.875,0,0,0,2.907-2.851,3.006,3.006,0,0,0-2.834-2.89,2.931,2.931,0,0,0-2.915,2.867A2.766,2.766,0,0,0-445.415,1734.918Zm-11.779-2.756a2.809,2.809,0,0,0-2.84-2.979,2.8,2.8,0,0,0-2.8,2.843,2.733,2.733,0,0,0,2.709,2.891A2.729,2.729,0,0,0-457.194,1732.163Z" transform="translate(0 0)" fill="#030201"/>
    <path id="Trazado_171243" data-name="Trazado 171243" d="M-467.855,1785.7c-.009-5.849-.039-11.7-.018-17.547a46.048,46.048,0,0,1,.127-6.579,5.81,5.81,0,0,1,5.63-5.023c2.253-.059,4.508-.02,6.762-.027,1.562-.005,2.057-.49,2.059-2.026,0-2.254.015-4.509-.008-6.763-.006-.607.041-.792.723-.5a5.841,5.841,0,0,0,7.773-3.375,5.859,5.859,0,0,0-3.995-7.618,6.405,6.405,0,0,0-3.468.117c.949-3.064,4.85-6.353,9.612-6.175,4.732.177,8.165,3.664,8.814,6.135-3.167-.756-5.645.146-7.191,3.074a5.625,5.625,0,0,0,.819,6.229c2.059,2.317,4.552,2.557,7.326,1.384a1.469,1.469,0,0,1,.092.826c.006,2.283,0,4.565.006,6.848,0,1.264.552,1.825,1.825,1.836,1.912.018,3.828.086,5.734-.015a6.982,6.982,0,0,1,6,2.486c.372.43.8.814,1.207,1.213a2,2,0,0,0,1.172.647q.1,2.281.193,4.562a7.129,7.129,0,0,0-5.584,5.08.886.886,0,0,1-.708.7,1.41,1.41,0,0,0-1.085,1.467q-.026,2.825,0,5.65a1.456,1.456,0,0,0,.99,1.46c.354.126.511.279.505.656-.028,1.768-.04,3.535-.058,5.3a26.551,26.551,0,0,0-3.993.06c-.423-.022-.846-.057-1.27-.065a14.063,14.063,0,0,1-6.86-1.8c-.952-.546-.955-.54-.21-1.319a1.572,1.572,0,0,0,.031-2.529,12.049,12.049,0,0,0-1.153-1.144c-.466-.382-.436-.632-.006-1.054,2.321-2.275,4.609-4.583,6.9-6.885.976-.979.972-1.718-.01-2.7q-2.655-2.667-5.32-5.323a1.585,1.585,0,0,0-2.272-.267c-.633.581-.63,1.369.077,2.189.263.305.29.473,0,.762q-2.98,2.946-5.934,5.919a.476.476,0,0,1-.723.086c-1.167-.775-1.593-.73-2.591.266q-6.956,6.941-13.895,13.9c-.243-.221-.54-.114-.81-.115C-463.047,1785.7-465.451,1785.7-467.855,1785.7Zm24.862-27.761c1.8,0,3.591-.017,5.386.009a1.634,1.634,0,0,0,1.715-.851,1.582,1.582,0,0,0-.389-1.8c-1.787-2.219-3.55-4.455-5.343-6.669q-1.412-1.744-2.822-.016c-1.812,2.235-3.591,4.5-5.394,6.737a1.616,1.616,0,0,0-.3,1.823,1.553,1.553,0,0,0,1.592.77C-446.7,1757.927-444.845,1757.939-442.993,1757.939Z" transform="translate(-9.674 -9.804)" fill="#12263f"/>
    <path id="Trazado_171244" data-name="Trazado 171244" d="M-119.866,1822.412a9.871,9.871,0,0,1-1.826-.1,1.347,1.347,0,0,1-1.108-1.417,1.278,1.278,0,0,1,1.15-1.37,12.526,12.526,0,0,1,3.489,0,1.285,1.285,0,0,1,1.155,1.371,1.352,1.352,0,0,1-1.114,1.418A10.959,10.959,0,0,1-119.866,1822.412Z" transform="translate(-275.818 -78.607)" fill="#030201"/>
    <path id="Trazado_171245" data-name="Trazado 171245" d="M-126.554,1787.86a1.5,1.5,0,0,1,1.3.755,1.316,1.316,0,0,1-.07,1.525,8.916,8.916,0,0,1-1.806,1.805,1.31,1.31,0,0,1-1.663-.03,1.232,1.232,0,0,1-.5-1.576,5.667,5.667,0,0,1,2.354-2.385A1.314,1.314,0,0,1-126.554,1787.86Z" transform="translate(-270.718 -54.284)" fill="#030201"/>
    <path id="Trazado_171246" data-name="Trazado 171246" d="M-127.645,1845.36a1.1,1.1,0,0,1,.816.3c.556.529,1.135,1.042,1.634,1.623a1.391,1.391,0,0,1-.043,1.941,1.427,1.427,0,0,1-2,.078,16.265,16.265,0,0,1-1.57-1.566,1.362,1.362,0,0,1-.193-1.591A1.354,1.354,0,0,1-127.645,1845.36Z" transform="translate(-270.902 -98.624)" fill="#030201"/>
    <path id="Trazado_171247" data-name="Trazado 171247" d="M-210.966,1957.515a10.233,10.233,0,0,1-10.2,10.243,10.236,10.236,0,0,1-10.216-10.23,10.24,10.24,0,0,1,10.2-10.247A10.248,10.248,0,0,1-210.966,1957.515Zm-4.355-4.358a1.543,1.543,0,0,0-.836-1.3,1.358,1.358,0,0,0-1.589.2c-.571.513-1.1,1.071-1.652,1.607-.57.555-1.092,1.472-1.729,1.562-.673.095-1.135-.957-1.72-1.473a1.556,1.556,0,0,0-2.211-.142,1.461,1.461,0,0,0,.1,2.2q1.275,1.322,2.6,2.6a1.5,1.5,0,0,0,2.385-.013c1.363-1.336,2.7-2.7,4.053-4.043A2,2,0,0,0-215.322,1953.157Zm-5.8,11.7a1.493,1.493,0,0,0,1.419-1.509,1.458,1.458,0,0,0-1.475-1.444,1.506,1.506,0,0,0-1.441,1.5A1.54,1.54,0,0,0-221.126,1964.854Zm-5.9-2.939a1.484,1.484,0,0,0,1.478-1.446,1.478,1.478,0,0,0-1.425-1.5,1.484,1.484,0,0,0-1.482,1.444A1.489,1.489,0,0,0-227.021,1961.916Zm13.15-1.51a1.464,1.464,0,0,0-1.476-1.434,1.545,1.545,0,0,0-1.436,1.507,1.533,1.533,0,0,0,1.508,1.428A1.456,1.456,0,0,0-213.872,1960.406Z" transform="translate(-192.084 -177.22)" fill="#cee0eb"/>
    <path id="Trazado_171248" data-name="Trazado 171248" d="M-245.98,1924.619c-5.563,0-11.127-.013-16.69.017-.679,0-.848-.181-.836-.846.038-2.087.009-2.087,2.061-2.087q16.048,0,32.1-.02c.795,0,.984.214.963.979-.054,1.956-.017,1.957-2.017,1.957Z" transform="translate(-167.313 -157.481)" fill="#fddc54"/>
    <path id="Trazado_171249" data-name="Trazado 171249" d="M-245.874,2049.489c5.533,0,11.066.015,16.6-.018.722,0,.895.187.878.892-.047,2.044-.014,2.045-2.023,2.045q-16.086,0-32.172.02c-.772,0-.946-.2-.927-.942.051-2,.015-2,1.986-2Z" transform="translate(-167.303 -256.023)" fill="#fddc54"/>
    <path id="Trazado_171250" data-name="Trazado 171250" d="M-249.161,1947.2a13.116,13.116,0,0,0-4.864,10.264,13.068,13.068,0,0,0,4.88,10.227c-2.614,0-5,0-7.375,0-.343,0-.449-.174-.437-.479.005-.142,0-.285,0-.428,0-6.244.009-12.488-.013-18.731,0-.646.135-.888.838-.873C-253.887,1947.228-251.639,1947.2-249.161,1947.2Z" transform="translate(-172.353 -177.144)" fill="#7b5d14"/>
    <path id="Trazado_171251" data-name="Trazado 171251" d="M-150.652,1947.231c2.523,0,4.8.01,7.083-.008.485,0,.714.086.713.648q-.026,9.623-.005,19.245c0,.421-.106.62-.573.616-2.331-.016-4.663-.008-7.208-.008a13.212,13.212,0,0,0,4.85-10.268A13.155,13.155,0,0,0-150.652,1947.231Z" transform="translate(-254.34 -177.175)" fill="#7b5d14"/>
    <path id="Trazado_171252" data-name="Trazado 171252" d="M-153.365,1899.234a4.214,4.214,0,0,1,3.77-2.9,4.255,4.255,0,0,1,4.092,2.273c.187.323.352.636-.284.633C-148.29,1899.227-150.793,1899.234-153.365,1899.234Z" transform="translate(-252.248 -137.93)" fill="#7b5d14"/>
    <path id="Trazado_171253" data-name="Trazado 171253" d="M-247.108,1899.207c-2.617,0-5.093-.012-7.569.009-.618.005-.577-.222-.355-.65a4.332,4.332,0,0,1,4.191-2.25A4.345,4.345,0,0,1-247.108,1899.207Z" transform="translate(-173.734 -137.903)" fill="#7b5d14"/>
    <path id="Trazado_171254" data-name="Trazado 171254" d="M-247.226,2075.082a4.2,4.2,0,0,1-3.876,2.906,4.473,4.473,0,0,1-4.028-2.4c-.109-.272-.193-.5.239-.5Z" transform="translate(-173.705 -275.773)" fill="#7b5d14"/>
    <path id="Trazado_171255" data-name="Trazado 171255" d="M-153.222,2075.084h7.664c.442,0,.336.25.232.511a4.458,4.458,0,0,1-4.114,2.39A4.183,4.183,0,0,1-153.222,2075.084Z" transform="translate(-252.358 -275.775)" fill="#7b5d14"/>
    <path id="Trazado_171256" data-name="Trazado 171256" d="M-204.325,1899.211a4.21,4.21,0,0,1,3.741-2.905,4.406,4.406,0,0,1,4.138,2.35c.163.352.233.565-.3.561C-199.248,1899.2-201.751,1899.211-204.325,1899.211Z" transform="translate(-212.951 -137.906)" fill="#7b5d14"/>
    <path id="Trazado_171257" data-name="Trazado 171257" d="M-200.194,2075.043c1.165,0,2.33.014,3.495-.007.5-.009.618.132.364.577a4.243,4.243,0,0,1-3.805,2.325,4.242,4.242,0,0,1-3.894-2.32c-.236-.41-.19-.6.346-.584C-202.525,2075.061-201.359,2075.043-200.194,2075.043Z" transform="translate(-213.07 -275.736)" fill="#7b5d14"/>
    <path id="Trazado_171258" data-name="Trazado 171258" d="M-464.588,1894.156q6.946-6.951,13.895-13.9c1-1,1.424-1.041,2.591-.266a.476.476,0,0,0,.723-.086q2.962-2.965,5.934-5.919c.293-.289.266-.457,0-.762-.707-.82-.709-1.608-.077-2.189a1.585,1.585,0,0,1,2.272.267q2.668,2.653,5.32,5.323c.982.987.986,1.725.01,2.7-2.295,2.3-4.583,4.609-6.9,6.885-.431.422-.461.672.006,1.054a12.053,12.053,0,0,1,1.153,1.144,1.572,1.572,0,0,1-.031,2.529c-.746.779-.742.773.21,1.319a14.065,14.065,0,0,0,6.861,1.8c.424.008.847.043,1.27.065a1.451,1.451,0,0,1,1.09,1.537c.018,2.824.032,5.648-.005,8.471-.015,1.136-.677,1.626-1.856,1.593a22.245,22.245,0,0,1-15.063-6.141c-.477-.446-.746-.472-1.2.025-.863.948-1.786,1.844-2.716,2.728-.349.333-.35.513,0,.865,2.507,2.527,2.523,5.456.039,7.958-.371.374-.408.559-.012.928.9.835,1.751,1.718,2.608,2.594a1.546,1.546,0,0,1-.005,2.576q-1.92,1.952-3.87,3.875a1.566,1.566,0,0,1-2.579-.012q-3.462-3.436-6.9-6.9c-.374-.377-.6-.614-1.124-.106-.664.641-1.4.5-2.178-.265-1.342-1.32-2.666-2.658-4-3.989-1.413-1.412-2.83-2.818-4.236-4.236-.991-1-.991-1.692,0-2.691Q-468.974,1898.543-464.588,1894.156Zm31.34,5.734c0-.77-.014-1.541.006-2.311.011-.413-.095-.622-.562-.639a15.482,15.482,0,0,1-8.294-2.83c-.314-.215-.509-.249-.79.046-.788.826-1.6,1.627-2.416,2.426-.275.27-.319.443,0,.752a19.67,19.67,0,0,0,11.487,5.358c.393.05.585-.057.572-.492C-433.263,1901.431-433.248,1900.66-433.247,1899.89Zm-10.134-15.31c.178-.158.354-.3.511-.456,1.476-1.47,2.963-2.93,4.415-4.423.548-.563,1.543-1.022,1.5-1.745-.041-.7-1.027-1.14-1.541-1.747-.362-.427-.633-.417-1.03-.008-1.452,1.494-2.967,2.927-4.4,4.442-.556.589-1.7,1.024-1.48,1.861.187.716,1.118,1.24,1.723,1.845A3.227,3.227,0,0,0-443.381,1884.58Zm-14.62,24.8a4.322,4.322,0,0,0-.414.318c-.449.439-.867.912-1.339,1.323-.447.389-.45.671-.012,1.095,1.475,1.429,2.9,2.91,4.372,4.343.584.568,1.093,1.632,1.8,1.545.657-.082,1.191-1.051,1.805-1.6.349-.312.39-.528.027-.885-1.954-1.92-3.881-3.865-5.82-5.8C-457.706,1909.6-457.847,1909.508-458,1909.383Zm5.75-2.028a2.57,2.57,0,0,0-1.038-2.165c-.283-.267-.441-.231-.685.026-.527.557-1.074,1.1-1.626,1.628-.235.226-.359.393-.049.679.585.538,1.131,1.119,1.694,1.68.16.159.3.352.557.1C-452.821,1908.75-452.2,1908.228-452.251,1907.354Z" transform="translate(-4.921 -118.14)" fill="#030201"/>
    <path id="Trazado_171259" data-name="Trazado 171259" d="M-336.859,1774.379a2.766,2.766,0,0,1-2.842-2.874,2.931,2.931,0,0,1,2.915-2.867,3.006,3.006,0,0,1,2.834,2.891A2.875,2.875,0,0,1-336.859,1774.379Z" transform="translate(-108.556 -39.46)" fill="#886942"/>
    <path id="Trazado_171260" data-name="Trazado 171260" d="M-397.755,1771.648a2.73,2.73,0,0,1-2.931,2.755,2.733,2.733,0,0,1-2.709-2.891,2.8,2.8,0,0,1,2.8-2.843A2.809,2.809,0,0,1-397.755,1771.648Z" transform="translate(-59.439 -39.485)" fill="#886942"/>
    <path id="Trazado_171261" data-name="Trazado 171261" d="M-383.612,1817.158c-1.852,0-3.705-.012-5.557.007a1.553,1.553,0,0,1-1.592-.77,1.617,1.617,0,0,1,.3-1.824c1.8-2.242,3.582-4.5,5.394-6.737q1.405-1.733,2.822.016c1.792,2.214,3.556,4.451,5.343,6.669a1.581,1.581,0,0,1,.389,1.8,1.634,1.634,0,0,1-1.715.851C-380.021,1817.141-381.816,1817.158-383.612,1817.158Zm2.654-2.964c-.88-1.109-1.673-2.1-2.459-3.1-.163-.208-.28-.233-.457-.007-.8,1.015-1.613,2.021-2.487,3.11Z" transform="translate(-69.056 -69.023)" fill="#030201"/>
    <path id="Trazado_171262" data-name="Trazado 171262" d="M-195.529,1968.009a2,2,0,0,1-.6,1.2c-1.355,1.344-2.69,2.708-4.053,4.043a1.5,1.5,0,0,1-2.385.013q-1.323-1.274-2.6-2.6a1.461,1.461,0,0,1-.1-2.2,1.557,1.557,0,0,1,2.211.142c.585.517,1.047,1.568,1.72,1.473.637-.09,1.159-1.006,1.729-1.562.551-.536,1.082-1.094,1.652-1.607a1.358,1.358,0,0,1,1.589-.2A1.543,1.543,0,0,1-195.529,1968.009Z" transform="translate(-211.877 -192.072)" fill="#030201"/>
    <path id="Trazado_171263" data-name="Trazado 171263" d="M-191.6,2014.118a1.54,1.54,0,0,1-1.5-1.455,1.506,1.506,0,0,1,1.441-1.5,1.458,1.458,0,0,1,1.475,1.443A1.493,1.493,0,0,1-191.6,2014.118Z" transform="translate(-221.607 -226.484)" fill="#030201"/>
    <path id="Trazado_171264" data-name="Trazado 171264" d="M-217.138,2001.31a1.489,1.489,0,0,1-1.429-1.5,1.484,1.484,0,0,1,1.482-1.444,1.478,1.478,0,0,1,1.425,1.5A1.484,1.484,0,0,1-217.138,2001.31Z" transform="translate(-201.968 -216.614)" fill="#030201"/>
    <path id="Trazado_171265" data-name="Trazado 171265" d="M-164.677,1999.794a1.456,1.456,0,0,1-1.4,1.5,1.533,1.533,0,0,1-1.508-1.428,1.546,1.546,0,0,1,1.436-1.508A1.465,1.465,0,0,1-164.677,1999.794Z" transform="translate(-241.279 -216.609)" fill="#030201"/>
    <path id="Trazado_171266" data-name="Trazado 171266" d="M-336.987,1978.317c0,.771-.016,1.541.006,2.311.012.435-.18.542-.572.492a19.67,19.67,0,0,1-11.487-5.358c-.322-.309-.278-.482,0-.752.815-.8,1.628-1.6,2.416-2.426.282-.3.476-.261.79-.046a15.48,15.48,0,0,0,8.294,2.83c.467.017.573.226.562.639C-337,1976.776-336.987,1977.546-336.987,1978.317Z" transform="translate(-101.181 -196.566)" fill="#886942"/>
    <path id="Trazado_171267" data-name="Trazado 171267" d="M-346.791,1902.186a3.276,3.276,0,0,1-.3-.231c-.605-.606-1.536-1.129-1.723-1.845-.219-.837.924-1.271,1.48-1.861,1.429-1.515,2.944-2.948,4.4-4.442.4-.408.668-.419,1.03.008.514.606,1.5,1.048,1.541,1.747.042.723-.953,1.181-1.5,1.745-1.452,1.494-2.939,2.953-4.415,4.423C-346.437,1901.888-346.613,1902.028-346.791,1902.186Z" transform="translate(-101.51 -135.746)" fill="#886942"/>
    <path id="Trazado_171268" data-name="Trazado 171268" d="M-410.82,2039.836c.154.125.3.22.414.339,1.939,1.934,3.867,3.88,5.82,5.8.364.357.323.573-.027.885-.614.549-1.149,1.519-1.805,1.6-.7.088-1.212-.977-1.8-1.545-1.472-1.432-2.9-2.914-4.372-4.342-.438-.424-.434-.706.012-1.1.472-.411.89-.885,1.339-1.323A4.444,4.444,0,0,1-410.82,2039.836Z" transform="translate(-52.102 -248.593)" fill="#886942"/>
    <path id="Trazado_171269" data-name="Trazado 171269" d="M-390.719,2023.059c.047.874-.57,1.4-1.146,1.95-.26.25-.4.057-.557-.1-.563-.562-1.109-1.142-1.694-1.68-.311-.286-.186-.452.049-.679.552-.532,1.1-1.071,1.626-1.628.243-.257.4-.292.685-.025A2.57,2.57,0,0,1-390.719,2023.059Z" transform="translate(-66.452 -233.844)" fill="#fdfdfd"/>
    <path id="Trazado_171270" data-name="Trazado 171270" d="M-365.578,1827.511h-5.4c.873-1.09,1.686-2.1,2.487-3.11.177-.225.294-.2.458.007C-367.251,1825.408-366.458,1826.4-365.578,1827.511Z" transform="translate(-84.435 -82.34)" fill="#886942"/>
  </g>
</svg>
