<svg xmlns="http://www.w3.org/2000/svg" width="74.52" height="90" viewBox="0 0 74.52 90">
  <g id="Grupo_110905" data-name="Grupo 110905" transform="translate(460.755 -1714.561)">
    <path id="Trazado_170484" data-name="Trazado 170484" d="M-359.923,1989.02a2.839,2.839,0,0,1-1.347-2.777c.041-6.355.019-12.711.02-19.066,0-2.052.614-2.667,2.672-2.667q16.429,0,32.858,0c2.114,0,2.707.6,2.707,2.717,0,6.385-.02,12.77.018,19.154a2.571,2.571,0,0,1-1.424,2.64Zm17.818-20.58c-4.8,0-9.608.015-14.411-.017-.671,0-.814.181-.81.826q.042,7.426,0,14.852c0,.647.145.838.819.836q14.368-.035,28.735,0c.712,0,.871-.211.868-.889q-.041-7.382,0-14.764c0-.708-.2-.864-.879-.86C-332.556,1968.453-337.33,1968.439-342.105,1968.439Z" transform="translate(-73.419 -184.459)" fill="#020101"/>
    <path id="Trazado_170485" data-name="Trazado 170485" d="M-443.153,1731.464a8.718,8.718,0,0,1-6.019,8.3c-.61.2-.808.433-.8,1.074q.043,7.555,0,15.111a.936.936,0,0,0,.8,1.081,8.747,8.747,0,0,1,6.079,8.347,8.753,8.753,0,0,1-6.08,8.346c-.642.2-.762.5-.76,1.1q.031,7.512,0,15.023c0,.645.131.934.811,1.146a8.78,8.78,0,0,1,5.91,9.711,8.913,8.913,0,0,1-8.7,7.462,8.823,8.823,0,0,1-8.692-7.329,8.729,8.729,0,0,1,6.014-9.862c.6-.193.723-.457.72-1.031q-.033-7.6,0-15.2a.869.869,0,0,0-.741-1.014,8.774,8.774,0,0,1-6.131-8.316,8.772,8.772,0,0,1,6.059-8.37.98.98,0,0,0,.816-1.14c-.034-5.066-.026-10.133-.008-15.2,0-.51-.116-.746-.647-.907a8.793,8.793,0,0,1-6.042-10.245,8.887,8.887,0,0,1,9.445-6.935A8.828,8.828,0,0,1-443.153,1731.464Zm-8.828,4.838a4.9,4.9,0,0,0,4.924-4.889,4.93,4.93,0,0,0-4.922-4.908,4.951,4.951,0,0,0-4.888,4.863A4.913,4.913,0,0,0-451.981,1736.3Zm.014,33.949a4.9,4.9,0,0,0,4.9-4.911,4.9,4.9,0,0,0-4.875-4.843,4.887,4.887,0,0,0-4.937,4.866A4.892,4.892,0,0,0-451.966,1770.251Zm0,24.2a4.891,4.891,0,0,0-4.918,4.886,4.895,4.895,0,0,0,4.934,4.874,4.9,4.9,0,0,0,4.878-4.847A4.894,4.894,0,0,0-451.964,1794.454Z" transform="translate(0 -5.911)" fill="#030202"/>
    <path id="Trazado_170486" data-name="Trazado 170486" d="M-336.935,1839.464h21.521c1.979,0,2.641.658,2.641,2.619q0,9.707,0,19.414c0,1.792-.707,2.513-2.484,2.514q-21.74,0-43.481,0c-1.745,0-2.467-.711-2.468-2.444q-.009-9.839,0-19.678c0-1.721.73-2.423,2.486-2.424Q-347.827,1839.46-336.935,1839.464Zm0,20.388c6.44,0,12.88-.016,19.32.02.793,0,.961-.221.955-.979q-.053-7.29,0-14.579c0-.656-.122-.9-.855-.9q-19.452.035-38.9,0c-.729,0-.853.239-.85.9.025,4.889.031,9.778-.005,14.667-.006.76.231.9.935.9C-349.877,1859.84-343.408,1859.851-336.938,1859.851Z" transform="translate(-73.463 -92.177)" fill="#050404"/>
    <path id="Trazado_170487" data-name="Trazado 170487" d="M-342.084,1714.561q8.343,0,16.686,0c1.732,0,2.435.709,2.435,2.452q0,9.793,0,19.586c0,1.767-.674,2.468-2.424,2.469q-16.686.009-33.372,0c-1.755,0-2.439-.7-2.44-2.456q-.007-9.793,0-19.586c0-1.795.7-2.466,2.517-2.466Zm-.029,20.391c4.8,0,9.6-.015,14.4.017.7,0,.865-.193.86-.873q-.044-7.332,0-14.665c.005-.752-.154-.984-.953-.981q-14.268.047-28.537,0c-.7,0-.943.139-.937.893q.052,7.376,0,14.752c0,.67.146.875.851.87C-351.655,1734.936-346.885,1734.952-342.114,1734.952Z" transform="translate(-73.469)" fill="#020101"/>
    <path id="Trazado_170488" data-name="Trazado 170488" d="M-331,1979.464c4.775,0,9.549.014,14.324-.015.676,0,.884.152.879.86q-.049,7.382,0,14.764c0,.678-.155.891-.868.889q-14.368-.037-28.735,0c-.674,0-.822-.189-.819-.836q.041-7.426,0-14.852c0-.645.139-.831.81-.826C-340.605,1979.479-335.8,1979.464-331,1979.464Zm-.039,13.343h10.363c1.732,0,2.643-.694,2.632-2s-.916-1.959-2.671-1.959q-9.836,0-19.672,0c-.614,0-1.23-.01-1.842.039a1.86,1.86,0,0,0-1.669,1.233c-.556,1.379.467,2.673,2.145,2.68C-338.179,1992.817-334.608,1992.807-331.036,1992.807Zm-5.157-6.3c1.9,0,3.8.006,5.706,0a1.991,1.991,0,0,0,2.225-1.953,1.978,1.978,0,0,0-2.228-1.939q-5.662-.011-11.325,0a1.988,1.988,0,0,0-2.229,1.942,2.006,2.006,0,0,0,2.233,1.951C-339.938,1986.514-338.065,1986.509-336.193,1986.509Z" transform="translate(-84.527 -195.484)" fill="#ffecb3"/>
    <path id="Trazado_170489" data-name="Trazado 170489" d="M-441.032,1747.383a4.913,4.913,0,0,1-4.887-4.934,4.951,4.951,0,0,1,4.888-4.863,4.93,4.93,0,0,1,4.922,4.908A4.9,4.9,0,0,1-441.032,1747.383Z" transform="translate(-10.949 -16.992)" fill="#f9c45a"/>
    <path id="Trazado_170490" data-name="Trazado 170490" d="M-441.057,1877.078a4.892,4.892,0,0,1-4.916-4.888,4.887,4.887,0,0,1,4.937-4.866,4.9,4.9,0,0,1,4.875,4.843A4.9,4.9,0,0,1-441.057,1877.078Z" transform="translate(-10.909 -112.739)" fill="#28c65d"/>
    <path id="Trazado_170491" data-name="Trazado 170491" d="M-441.055,1996.929a4.894,4.894,0,0,1,4.893,4.913,4.9,4.9,0,0,1-4.878,4.847,4.895,4.895,0,0,1-4.934-4.874A4.891,4.891,0,0,1-441.055,1996.929Z" transform="translate(-10.909 -208.386)" fill="#28c65d"/>
    <path id="Trazado_170492" data-name="Trazado 170492" d="M-325.874,1870.966c-6.47,0-12.939-.011-19.408.016-.7,0-.941-.136-.935-.9.037-4.889.03-9.778.006-14.667,0-.656.121-.9.85-.9q19.452.036,38.9,0c.733,0,.858.248.855.9q-.036,7.289,0,14.579c.005.757-.162.983-.955.979C-312.993,1870.95-319.434,1870.966-325.874,1870.966Zm-5.165-3.124q3.38,0,6.76,0c1.434,0,2.868.029,4.3-.02a1.921,1.921,0,0,0,1.912-2.3,2.02,2.02,0,0,0-2.207-1.6q-5.443-.012-10.885,0-5.311,0-10.622,0a2.081,2.081,0,0,0-2.04,1.1c-.7,1.36.3,2.8,1.984,2.813C-338.237,1867.856-334.638,1867.841-331.039,1867.842Zm-5.091-6.247c1.9,0,3.806.016,5.709-.005a2,2,0,0,0,2.163-1.946,1.972,1.972,0,0,0-2.113-1.989c-3.864-.026-7.728-.015-11.593,0a1.959,1.959,0,0,0-1.9,1.179,1.969,1.969,0,0,0,1.94,2.757C-339.994,1861.62-338.062,1861.594-336.13,1861.594Z" transform="translate(-84.528 -103.292)" fill="#28c65d"/>
    <path id="Trazado_170493" data-name="Trazado 170493" d="M-331.064,1745.908c-4.771,0-9.542-.016-14.312.018-.7.005-.855-.2-.851-.87q.042-7.376,0-14.752c-.005-.755.233-.9.937-.893q14.268.036,28.537,0c.8,0,.959.229.953.981q-.051,7.332,0,14.665c0,.681-.158.878-.86.873C-321.464,1745.893-326.264,1745.908-331.064,1745.908Zm.084-7.044c-3.629,0-7.258-.005-10.887,0a1.981,1.981,0,0,0-2.185,1.9,1.98,1.98,0,0,0,2.19,1.985q10.8.008,21.6,0a3.031,3.031,0,0,0,.865-.093,1.93,1.93,0,0,0,1.333-2.115,1.927,1.927,0,0,0-2.028-1.675C-323.721,1738.857-327.351,1738.865-330.979,1738.864Zm-5.169-2.376c1.873,0,3.745.011,5.618,0a2.01,2.01,0,0,0,2.263-1.917,2.03,2.03,0,0,0-2.281-2q-5.618-.013-11.236,0a2.036,2.036,0,0,0-2.267,1.933c-.026,1.164.89,1.975,2.285,1.985C-339.894,1736.5-338.021,1736.489-336.148,1736.489Z" transform="translate(-84.519 -10.957)" fill="#ffecb3"/>
    <path id="Trazado_170494" data-name="Trazado 170494" d="M-324.919,2019.291c-3.571,0-7.143.01-10.714,0-1.678-.007-2.7-1.3-2.145-2.68a1.86,1.86,0,0,1,1.669-1.233c.611-.048,1.228-.038,1.842-.039q9.836,0,19.672,0c1.756,0,2.66.666,2.671,1.959s-.9,2-2.632,2Z" transform="translate(-90.643 -221.968)" fill="#050404"/>
    <path id="Trazado_170495" data-name="Trazado 170495" d="M-330.064,1995.414c-1.873,0-3.745.006-5.618,0a2.006,2.006,0,0,1-2.233-1.951,1.988,1.988,0,0,1,2.229-1.942q5.662-.011,11.325,0a1.978,1.978,0,0,1,2.228,1.939,1.991,1.991,0,0,1-2.225,1.954C-326.26,1995.419-328.162,1995.414-330.064,1995.414Z" transform="translate(-90.655 -204.389)" fill="#020101"/>
    <path id="Trazado_170496" data-name="Trazado 170496" d="M-324.93,1894.3c-3.6,0-7.2.014-10.8-.007-1.687-.01-2.689-1.453-1.984-2.813a2.081,2.081,0,0,1,2.04-1.1q5.311.011,10.622,0,5.442,0,10.885,0a2.02,2.02,0,0,1,2.207,1.6,1.921,1.921,0,0,1-1.912,2.3c-1.432.049-2.867.019-4.3.021Q-321.551,1894.3-324.93,1894.3Z" transform="translate(-90.637 -129.75)" fill="#020101"/>
    <path id="Trazado_170497" data-name="Trazado 170497" d="M-330.024,1870.366c-1.932,0-3.865.026-5.8-.008a1.969,1.969,0,0,1-1.94-2.757,1.959,1.959,0,0,1,1.9-1.179c3.864-.01,7.728-.022,11.593,0a1.972,1.972,0,0,1,2.113,1.989,2,2,0,0,1-2.163,1.946C-326.218,1870.382-328.121,1870.366-330.024,1870.366Z" transform="translate(-90.634 -112.063)" fill="#050404"/>
    <path id="Trazado_170498" data-name="Trazado 170498" d="M-324.845,1765.5c3.629,0,7.258-.007,10.887.005a1.927,1.927,0,0,1,2.028,1.675,1.93,1.93,0,0,1-1.333,2.115,3.027,3.027,0,0,1-.865.093q-10.8.007-21.6,0a1.98,1.98,0,0,1-2.19-1.985,1.981,1.981,0,0,1,2.185-1.9Q-330.289,1765.488-324.845,1765.5Z" transform="translate(-90.653 -37.59)" fill="#020101"/>
    <path id="Trazado_170499" data-name="Trazado 170499" d="M-330.015,1745.369c-1.873,0-3.745.01-5.618,0-1.4-.01-2.311-.821-2.285-1.985a2.036,2.036,0,0,1,2.267-1.933q5.618-.015,11.236,0a2.03,2.03,0,0,1,2.281,2,2.01,2.01,0,0,1-2.263,1.917C-326.269,1745.38-328.142,1745.369-330.015,1745.369Z" transform="translate(-90.653 -19.837)" fill="#020101"/>
  </g>
</svg>
