<svg xmlns="http://www.w3.org/2000/svg" width="90" height="71.277" viewBox="0 0 90 71.277">
  <g id="Grupo_110802" data-name="Grupo 110802" transform="translate(704.709 -1563.039)">
    <path id="Trazado_170116" data-name="Trazado 170116" d="M-614.709,1624.668a1.86,1.86,0,0,1-1.832.9c-7.022-.026-14.044-.015-21.226-.015.454.79.866,1.5,1.274,2.22,1.035,1.818.66,3.2-1.164,4.257-1.06.616-2.122,1.227-3.192,1.824a2.623,2.623,0,0,1-3.885-1.041c-1.266-2.167-2.526-4.338-3.741-6.534a1.265,1.265,0,0,0-1.3-.741q-26.376.029-52.752.015c-1.788,0-1.95-.314-2.12-2.073a13.8,13.8,0,0,1,2.388-9.049c3-4.731,5.66-9.67,8.48-14.513a2.963,2.963,0,0,0,.41-1.568q-.02-15.493-.009-30.985c0-2.8,1.532-4.326,4.342-4.326h58.546c2.856,0,4.365,1.519,4.365,4.393q0,15.317-.01,30.634a2.97,2.97,0,0,0,.425,1.562q5.443,9.393,10.866,18.8c.025.044.088.065.133.1Zm-32.835-7.273c.452-.135.707-.3.36-.835-.53-.819-1-1.681-1.466-2.539-.233-.428-.452-.469-.745-.078-1.654.576-1.657.585-.834,1.993.22.376.431.758.65,1.134C-648.81,1618.386-648.81,1618.386-647.544,1617.4Zm-7.811-38.718c-.2,1.239-.6,1.576-1.82,1.41a17.524,17.524,0,0,0-5.243.021,17.111,17.111,0,0,0-14.3,19.152,17.1,17.1,0,0,0,20.923,14.4c6.833-1.761,11.258-6.159,12.74-13.047,1.5-6.971-.831-12.771-6.385-17.252-1.062-.857-1.162-1.34-.4-2.413a1.68,1.68,0,0,1,1.943.258,19.567,19.567,0,0,1,7.363,11.291c.173.732.444.96,1.191.935,1.811-.06,3.627-.046,5.439,0,.609.014.778-.141.776-.765q-.035-10.924,0-21.848c0-.616-.157-.771-.772-.77q-25.839.026-51.679,0c-.717,0-.785.253-.781.851.024,3.8-.037,7.6.04,11.405.026,1.3-.22,2.23-1.614,2.529-1.332-.829-1.05-2.159-1.051-3.4q0-6.057,0-12.113c0-1.512.393-1.9,1.934-1.9q6.671.006,13.342.016,20.672,0,41.344,0c1.427,0,1.846.409,1.846,1.806q0,12.509,0,25.018c0,1.356-.422,1.772-1.783,1.774-2.253,0-4.506.025-6.759-.014-.678-.011-.987.09-.969.881.017.712.174.942.922.931q4.739-.065,9.48,0c.754.01.906-.228.9-.937q-.034-14.747-.016-29.494c0-1.342-.391-1.745-1.7-1.745q-29.318.006-58.636.017c-1.224,0-1.649.417-1.65,1.62,0,9.89.007,19.78-.019,29.669,0,.74.261.85.9.846,3.189-.022,6.379-.031,9.567.025.8.014.795-.357.81-.943.016-.6-.066-.89-.789-.874-2.369.053-4.74.035-7.109.031-1.129,0-1.607-.476-1.618-1.589-.011-1.141.042-2.285-.018-3.423a1.872,1.872,0,0,1,.9-1.846c1.365.018,1.765.421,1.769,1.786,0,.585.039,1.173-.011,1.753-.048.549.149.7.68.694,1.607-.028,3.215-.009,4.822-.009,1.624,0,1.624,0,2.049-1.591a19.767,19.767,0,0,1,21.823-14.367C-656.194,1577.573-655.555,1577.821-655.355,1578.677Zm-45.585,38.893c1.265.12,47.8.1,48.539-.009-.01-.341-.277-.568-.385-.86-.306-.829-.813-.913-1.631-.667a18.8,18.8,0,0,1-7.715.587A19.638,19.638,0,0,1-679,1601.35c-.131-.582-.352-.8-.984-.79-3.48.041-6.962.041-10.443.021a1.086,1.086,0,0,0-1.083.664c-1.383,2.441-2.806,4.859-4.211,7.287C-697.444,1611.511-699.164,1614.494-700.94,1617.57Zm82.554.077c-.1-.241-.122-.325-.164-.4q-4.674-8.086-9.341-16.176a.969.969,0,0,0-1-.5c-3.482.011-6.964.032-10.445-.014-.766-.01-1.039.233-1.2.962a19.32,19.32,0,0,1-5.037,9.284c-1.19,1.246-1.229,1.249-.345,2.689.77,1.253,1.2,2.823,2.873,3.3a.524.524,0,0,1,.254.236,1.5,1.5,0,0,0,1.5.631q10.928-.024,21.855-.01Zm-32.149,5.252c-.2-.616-.631-1.056-.537-1.589.181-1.024-.393-1.024-1.147-1.023q-24,.032-48,.031c-1.742,0-1.708,0-1.74,1.749-.012.672.194.827.84.822,3.276-.025,6.552.008,9.828.008q19.832,0,39.665,0Zm9.786-2.6c.367.659.683,1.147.919,1.671a1.522,1.522,0,0,0,1.633.951c6.371-.039,12.743-.021,19.114-.021,1.736,0,1.7,0,1.74-1.748.016-.7-.2-.87-.883-.868-6.108.025-12.217.015-18.325.015Zm-4.041-1.362c-.058.028-.113.05-.163.079-1.057.621-2.112,1.245-3.171,1.863-.373.218-.134.422-.007.643.756,1.316,1.506,2.635,2.262,3.951q1.591,2.771,3.187,5.54c.185.322.344.614.8.347.958-.556,1.93-1.089,2.9-1.619.325-.177.37-.344.174-.683-1.876-3.232-3.731-6.476-5.6-9.714C-644.491,1619.18-644.528,1618.94-644.79,1618.935Z" fill="#010101"/>
    <path id="Trazado_170117" data-name="Trazado 170117" d="M-633.792,1607.679c1.394-.3,1.641-1.227,1.614-2.529-.077-3.8-.016-7.6-.04-11.405,0-.6.064-.852.781-.851q25.839.036,51.679,0c.615,0,.774.154.772.77q-.034,10.924,0,21.848c0,.624-.168.779-.776.765-1.812-.042-3.628-.055-5.439,0-.747.025-1.018-.2-1.191-.935a19.567,19.567,0,0,0-7.363-11.291,1.68,1.68,0,0,0-1.942-.258,18.982,18.982,0,0,0-5.511-2.275c-.2-.856-.839-1.1-1.617-1.218a19.767,19.767,0,0,0-21.824,14.367c-.425,1.591-.425,1.591-2.049,1.591-1.607,0-3.215-.018-4.822.009-.531.009-.728-.145-.68-.694.05-.58.013-1.168.011-1.753,0-1.365-.4-1.768-1.769-1.786.007-.373,0-.747.023-1.119A14.522,14.522,0,0,1-633.792,1607.679Z" transform="translate(-54.148 -22.848)" fill="#fffae8"/>
    <path id="Trazado_170118" data-name="Trazado 170118" d="M-688.647,1739.934c1.776-3.076,3.5-6.059,5.22-9.039,1.4-2.429,2.828-4.847,4.211-7.287a1.085,1.085,0,0,1,1.083-.664c3.481.02,6.962.02,10.443-.021.632-.008.853.208.984.79a19.637,19.637,0,0,0,16.868,15.272,18.8,18.8,0,0,0,7.715-.587c.818-.246,1.325-.162,1.631.667.108.292.375.518.385.86C-640.85,1740.035-687.382,1740.054-688.647,1739.934Z" transform="translate(-12.293 -122.364)" fill="#0f5c29"/>
    <path id="Trazado_170119" data-name="Trazado 170119" d="M-428.653,1740H-429.7q-10.928,0-21.855.01a1.5,1.5,0,0,1-1.5-.631.524.524,0,0,0-.254-.236c-1.675-.477-2.1-2.047-2.873-3.3-.885-1.439-.845-1.443.344-2.689a19.319,19.319,0,0,0,5.037-9.284c.161-.729.434-.972,1.2-.962,3.481.046,6.963.025,10.445.014a.969.969,0,0,1,1,.5q4.652,8.1,9.341,16.176C-428.775,1739.675-428.752,1739.759-428.653,1740Z" transform="translate(-189.733 -122.353)" fill="#219648"/>
    <path id="Trazado_170120" data-name="Trazado 170120" d="M-642.433,1593.384a14.522,14.522,0,0,0-.144,3.245c-.024.372-.016.746-.023,1.119a1.872,1.872,0,0,0-.9,1.846c.06,1.138.006,2.282.018,3.423.011,1.113.489,1.587,1.618,1.589,2.37,0,4.741.022,7.109-.031.723-.016.8.273.789.874-.015.586-.008.957-.81.943-3.188-.056-6.378-.047-9.567-.025-.644,0-.907-.105-.9-.846.027-9.89.017-19.78.019-29.669,0-1.2.426-1.619,1.65-1.62q29.318-.011,58.636-.017c1.313,0,1.7.4,1.7,1.745q0,14.747.016,29.494c0,.709-.15.947-.9.937q-4.739-.066-9.48,0c-.748.01-.905-.22-.922-.931-.018-.79.291-.892.969-.881,2.252.038,4.506.016,6.759.014,1.362,0,1.783-.418,1.783-1.774q0-12.509,0-25.018c0-1.4-.419-1.806-1.846-1.806q-20.672,0-41.344,0-6.671,0-13.342-.016c-1.541,0-1.934.385-1.934,1.9q0,6.057,0,12.113C-643.483,1591.226-643.765,1592.556-642.433,1593.384Z" transform="translate(-45.506 -8.553)" fill="#0f5c29"/>
    <path id="Trazado_170121" data-name="Trazado 170121" d="M-564.5,1629.679a18.982,18.982,0,0,1,5.511,2.275c-.759,1.074-.659,1.557.4,2.413,5.554,4.48,7.884,10.281,6.385,17.252-1.482,6.888-5.907,11.286-12.74,13.047a17.1,17.1,0,0,1-20.923-14.4,17.111,17.111,0,0,1,14.3-19.152,17.524,17.524,0,0,1,5.243-.021C-565.1,1631.255-564.7,1630.918-564.5,1629.679Zm-4.357,33.878a15.557,15.557,0,0,0,15.5-15.529,15.574,15.574,0,0,0-15.578-15.547,15.573,15.573,0,0,0-15.5,15.538A15.555,15.555,0,0,0-568.862,1663.557Z" transform="translate(-90.85 -51.001)" fill="#ffecb3"/>
    <path id="Trazado_170122" data-name="Trazado 170122" d="M-641.569,1809.6h-1.093q-19.832,0-39.665,0c-3.276,0-6.552-.033-9.828-.008-.646,0-.852-.15-.84-.822.032-1.749,0-1.749,1.74-1.749q24-.01,48-.031c.754,0,1.328,0,1.147,1.023C-642.2,1808.543-641.774,1808.982-641.569,1809.6Z" transform="translate(-8.966 -186.699)" fill="#219648"/>
    <path id="Trazado_170123" data-name="Trazado 170123" d="M-432.16,1806.985h4.2c6.109,0,12.217.011,18.325-.015.68,0,.9.163.883.868-.04,1.747,0,1.748-1.74,1.748-6.372,0-12.743-.017-19.114.021a1.522,1.522,0,0,1-1.633-.951C-431.477,1808.132-431.793,1807.644-432.16,1806.985Z" transform="translate(-208.589 -186.687)" fill="#219648"/>
    <path id="Trazado_170124" data-name="Trazado 170124" d="M-460.9,1801.227c.261,0,.3.245.393.408,1.866,3.238,3.722,6.482,5.6,9.714.2.338.15.506-.174.683-.973.529-1.945,1.063-2.9,1.619-.46.267-.62-.024-.8-.347q-1.59-2.772-3.187-5.54c-.756-1.316-1.505-2.635-2.262-3.951-.127-.221-.366-.426.007-.643,1.059-.618,2.114-1.242,3.171-1.863C-461.014,1801.277-460.96,1801.255-460.9,1801.227Z" transform="translate(-183.888 -182.292)" fill="#f5cd6c"/>
    <path id="Trazado_170125" data-name="Trazado 170125" d="M-471.626,1783.4c-1.266.99-1.266.991-2.034-.325-.219-.376-.43-.758-.65-1.134-.823-1.408-.82-1.417.834-1.993C-472.925,1781.138-472.1,1782.176-471.626,1783.4Z" transform="translate(-175.918 -166.009)" fill="#f5cd6c"/>
    <path id="Trazado_170126" data-name="Trazado 170126" d="M-467.149,1782.526c-.472-1.229-1.3-2.266-1.85-3.453.292-.391.512-.349.745.078.467.858.935,1.719,1.466,2.539C-466.442,1782.227-466.7,1782.392-467.149,1782.526Z" transform="translate(-180.395 -165.131)" fill="#f5cd6c"/>
    <path id="Trazado_170127" data-name="Trazado 170127" d="M-563.762,1672.7a15.555,15.555,0,0,1-15.577-15.537,15.573,15.573,0,0,1,15.5-15.538,15.574,15.574,0,0,1,15.578,15.547A15.557,15.557,0,0,1-563.762,1672.7Zm-.084-2.632a12.887,12.887,0,0,0,12.93-12.853,12.928,12.928,0,0,0-12.86-12.935,12.906,12.906,0,0,0-12.931,12.858A12.922,12.922,0,0,0-563.846,1670.065Z" transform="translate(-95.949 -60.142)" fill="#010101"/>
    <path id="Trazado_170128" data-name="Trazado 170128" d="M-555.263,1678.723a12.922,12.922,0,0,1-12.861-12.93,12.906,12.906,0,0,1,12.931-12.858,12.928,12.928,0,0,1,12.86,12.935A12.887,12.887,0,0,1-555.263,1678.723Zm.007-3.683a7.731,7.731,0,0,0,4.39-1.639,23.985,23.985,0,0,0,5.486-5.625,3.043,3.043,0,0,0,.115-3.7,21.877,21.877,0,0,0-6.509-6.414,6.247,6.247,0,0,0-7.02.085,22.6,22.6,0,0,0-6.325,6.238,3.068,3.068,0,0,0,.057,3.776,23.494,23.494,0,0,0,5.7,5.776A7.6,7.6,0,0,0-555.256,1675.04Z" transform="translate(-104.532 -68.8)" fill="#fff"/>
    <path id="Trazado_170129" data-name="Trazado 170129" d="M-547.489,1687.071a7.6,7.6,0,0,1-4.107-1.5,23.5,23.5,0,0,1-5.7-5.776,3.068,3.068,0,0,1-.057-3.776,22.6,22.6,0,0,1,6.325-6.238,6.247,6.247,0,0,1,7.02-.085,21.876,21.876,0,0,1,6.509,6.414,3.043,3.043,0,0,1-.115,3.7,23.988,23.988,0,0,1-5.486,5.625A7.731,7.731,0,0,1-547.489,1687.071Zm-.045-2.63a4.431,4.431,0,0,0,2.4-.822,21.957,21.957,0,0,0,5.3-5.2.834.834,0,0,0,.008-1.125,23.832,23.832,0,0,0-5.135-5.122,4.025,4.025,0,0,0-5.033.04,24.112,24.112,0,0,0-5.067,5.068.832.832,0,0,0-.008,1.123,22.351,22.351,0,0,0,5.215,5.159A4.668,4.668,0,0,0-547.534,1684.442Z" transform="translate(-112.3 -80.831)" fill="#010101"/>
    <path id="Trazado_170130" data-name="Trazado 170130" d="M-538.765,1693.107a4.668,4.668,0,0,1-2.323-.875,22.35,22.35,0,0,1-5.215-5.159.832.832,0,0,1,.008-1.123,24.112,24.112,0,0,1,5.067-5.068,4.025,4.025,0,0,1,5.033-.04,23.831,23.831,0,0,1,5.135,5.122.834.834,0,0,1-.008,1.125,21.957,21.957,0,0,1-5.3,5.2A4.43,4.43,0,0,1-538.765,1693.107Zm4.379-6.626a4.322,4.322,0,0,0-4.333-4.261,4.322,4.322,0,0,0-4.257,4.336,4.306,4.306,0,0,0,4.332,4.252A4.305,4.305,0,0,0-534.386,1686.481Z" transform="translate(-121.068 -89.496)" fill="#318335"/>
    <path id="Trazado_170131" data-name="Trazado 170131" d="M-522.839,1693.793a4.305,4.305,0,0,1-4.258,4.327,4.306,4.306,0,0,1-4.332-4.252,4.322,4.322,0,0,1,4.257-4.336A4.322,4.322,0,0,1-522.839,1693.793Zm-4.317,1.69a1.672,1.672,0,0,0,1.681-1.653,1.692,1.692,0,0,0-1.682-1.66,1.687,1.687,0,0,0-1.634,1.617A1.666,1.666,0,0,0-527.156,1695.484Z" transform="translate(-132.615 -96.809)" fill="#010101"/>
    <path id="Trazado_170132" data-name="Trazado 170132" d="M-518.557,1704.089a1.666,1.666,0,0,1-1.635-1.7,1.687,1.687,0,0,1,1.634-1.617,1.692,1.692,0,0,1,1.682,1.66A1.672,1.672,0,0,1-518.557,1704.089Z" transform="translate(-141.215 -105.414)" fill="#72e676"/>
  </g>
</svg>
