<svg xmlns="http://www.w3.org/2000/svg" width="90" height="89.997" viewBox="0 0 90 89.997">
  <g id="Grupo_110798" data-name="Grupo 110798" transform="translate(503.597 -1537.923)">
    <path id="Trazado_170038" data-name="Trazado 170038" d="M-437.773,1630.809v-2.943c.5-.01,1-.027,1.5-.027,2.9,0,3-.094,3.006-2.98,0-.5.033-.848.62-1.068a.948.948,0,0,1,1.278.3,7.146,7.146,0,0,0,.658.665c1.105,1.091,1.765,1.1,2.845.026q1.461-1.452,2.913-2.913c1.937-1.938,1.942-2.14-.022-4.1-.374-.374-.617-.661-.36-1.269a.951.951,0,0,1,1.134-.666,11.108,11.108,0,0,0,1.217,0,1.535,1.535,0,0,0,1.719-1.739c.015-1.435,0-2.871,0-4.307,0-2.823-.113-2.95-2.944-2.941a1,1,0,0,1-1.131-.675c-.264-.613-.024-.917.369-1.266.256-.227.49-.48.729-.727.952-.984.959-1.682.01-2.646-.986-1-1.984-1.988-2.977-2.981-1.961-1.962-2.168-1.971-4.1-.029a1.059,1.059,0,0,1-1.349.365c-.651-.261-.618-.67-.61-1.169.007-.405.012-.812,0-1.217a1.526,1.526,0,0,0-1.7-1.664c-.935-.02-1.871-.021-2.807-.031v-2.943c1.509-.073,1.509-.073,1.509-1.632q0-19.725-.019-39.45c0-.788.2-.963.974-.963q33.547.034,67.094,0c.78,0,.97.188.968.968q-.041,17.336-.021,34.672c0,.312-.025.623-.038.935a.415.415,0,0,0-.334.278,57.6,57.6,0,0,1-3.6,7.269c-.6,1.019-.936,2.24-2,2.955-.008-1-.021-2-.023-3-.005-3.263-1.784-5.06-5.019-5.062q-4.684,0-9.367,0c-2.126,0-2.083,0-2.136,2.126-.02.8.277.893.954.887,3.591-.029,7.182-.019,10.772-.01,1.233,0,1.781.545,1.793,1.76.014,1.405,0,2.81,0,4.215,0,1.485,0,1.485,1.5,1.546a1.8,1.8,0,0,1-.382.839,61.694,61.694,0,0,1-5.989,7.611,53.451,53.451,0,0,1-4.554,4.684,27.342,27.342,0,0,0-3.513,3.305c-.424-.029-.628.165-.6.594-.343-.037-.556.178-.807.369a9.024,9.024,0,0,1-2.165,1.514,11.369,11.369,0,0,0-.176-2.607,7.51,7.51,0,0,0-8.9-5.653,7.483,7.483,0,0,0-5.775,8.649,7.616,7.616,0,0,0,5.265,5.919,81.288,81.288,0,0,1-14.648,6,71.648,71.648,0,0,1-15.308,2.873c-.256.017-.511,0-.573.337-.651.01-1.3.025-1.954.029-1.415.009-1.415.006-1.415-1.4C-436.264,1630.882-436.264,1630.882-437.773,1630.809Zm30.009-67.453a7.522,7.522,0,0,0,7.538,7.482,7.525,7.525,0,0,0,7.458-7.469,7.517,7.517,0,0,0-7.492-7.527A7.519,7.519,0,0,0-407.764,1563.356Zm7.516,34.481a7.522,7.522,0,0,0,7.48-7.541,7.519,7.519,0,0,0-7.47-7.455,7.519,7.519,0,0,0-7.526,7.493A7.522,7.522,0,0,0-400.247,1597.837Zm15.759-36h-3.183c-2.11,0-2.077,0-2.113,2.143-.012.7.167.885.872.875,2.964-.043,5.929,0,8.893-.033.628-.007.805.185.764.786a19.9,19.9,0,0,0-.006,2.152,1.466,1.466,0,0,0,2.368,1.269c2.029-1.451,4.019-2.959,5.991-4.486a1.429,1.429,0,0,0,.014-2.4c-1.97-1.531-3.963-3.035-5.988-4.491a1.464,1.464,0,0,0-2.384,1.237,19.021,19.021,0,0,0,.007,2.246c.045.606-.188.727-.742.714C-381.492,1561.817-382.99,1561.84-384.488,1561.84Zm-32.589,3h4.026c2.358,0,2.34,0,2.3-2.328-.009-.524-.139-.687-.678-.683-3.808.023-7.616-.013-11.424.023a4.463,4.463,0,0,0-4.406,4.437c-.025,1.248-.005,2.5-.005,3.745,0,2.425,0,2.405,2.4,2.321.519-.018.613-.2.607-.658-.022-1.592-.01-3.183-.008-4.775,0-1.61.46-2.078,2.037-2.08Q-419.652,1564.837-417.077,1564.84Zm-.141,27h4.307c2.167,0,2.14,0,2.162-2.186.007-.65-.154-.836-.82-.83-3.62.034-7.241.021-10.862.014-1.29,0-1.821-.534-1.832-1.814-.01-1.124,0-2.247,0-3.371,0-2.424,0-2.406-2.394-2.327-.51.016-.621.181-.615.651.023,1.747,0,3.5.012,5.243a4.492,4.492,0,0,0,4.613,4.617C-420.838,1591.851-419.028,1591.839-417.218,1591.839Zm2.609,27h1.593c2.3,0,2.277,0,2.264-2.273,0-.557-.118-.759-.718-.742-1.529.045-3.061.015-4.592.015-2.272,0-2.255,0-2.216,2.32.009.514.118.716.671.692C-416.609,1618.807-415.608,1618.838-414.608,1618.838Zm-9.656-41.945c0-1.553,0-1.553-1.47-1.553-1.53,0-1.53,0-1.53,1.493s0,1.507,1.516,1.507C-424.265,1578.339-424.265,1578.339-424.265,1576.893Z" transform="translate(-49.33 -8.917)" fill="#72e676"/>
    <path id="Trazado_170039" data-name="Trazado 170039" d="M-442.313,1621.892c1.509.073,1.509.073,1.509,1.615,0,1.41,0,1.412,1.415,1.4.651,0,1.3-.019,1.954-.029.311.013.623.038.934.038q31.823,0,63.645.021c.851,0,1.07-.209,1.069-1.066q-.042-22.73-.022-45.461c0-.312-.025-.623-.038-.934.013-.312.038-.623.038-.935q0-17.336.021-34.672c0-.78-.188-.969-.968-.968q-33.547.035-67.094,0c-.772,0-.975.175-.974.963q.04,19.725.019,39.45c0,1.56,0,1.56-1.509,1.632-1.491-.071-1.491-.071-1.491-1.626q0-20.618,0-41.237c0-1.734.425-2.163,2.14-2.163H-370.9c1.654,0,2.1.448,2.1,2.114q0,42.877,0,85.755c0,1.674-.444,2.127-2.085,2.127h-70.853c-1.6,0-2.056-.461-2.058-2.058,0-1,.056-2-.019-3-.058-.774.159-1.094.95-.949A2.49,2.49,0,0,0-442.313,1621.892Z" transform="translate(-44.79)"/>
    <path id="Trazado_170040" data-name="Trazado 170040" d="M-487.1,1729.366c.936.01,1.872.011,2.807.031a1.526,1.526,0,0,1,1.7,1.664c.013.405.008.811,0,1.217-.008.5-.041.908.61,1.169a1.059,1.059,0,0,0,1.349-.365c1.929-1.942,2.136-1.933,4.1.029.992.993,1.991,1.981,2.977,2.981.95.963.942,1.662-.01,2.646-.239.247-.473.5-.729.727-.393.349-.632.652-.369,1.266a1,1,0,0,0,1.131.675c2.831-.008,2.944.118,2.944,2.941,0,1.436.011,2.871,0,4.307a1.535,1.535,0,0,1-1.719,1.739,11.108,11.108,0,0,1-1.217,0,.951.951,0,0,0-1.134.666c-.257.609-.014.9.36,1.269,1.963,1.959,1.958,2.162.022,4.1q-1.456,1.457-2.913,2.913c-1.081,1.073-1.74,1.065-2.845-.026a7.146,7.146,0,0,1-.658-.665.948.948,0,0,0-1.278-.3c-.587.221-.618.571-.62,1.068-.009,2.886-.11,2.978-3.006,2.98-.5,0-1,.018-1.5.027-.936-.01-1.872-.01-2.808-.031a1.524,1.524,0,0,1-1.681-1.681,9.853,9.853,0,0,1,.005-1.217,1.026,1.026,0,0,0-.7-1.2c-.655-.305-.9.063-1.245.408-1.929,1.94-2.14,1.94-4.1-.017-1.017-1.014-2.04-2.022-3.046-3.047a1.537,1.537,0,0,1-.005-2.508c.259-.271.525-.534.794-.8.353-.344.691-.6.4-1.249a1.074,1.074,0,0,0-1.2-.7c-2.747.019-2.894-.142-2.894-2.9,0-1.436-.008-2.873,0-4.309.009-1.226.549-1.762,1.766-1.782a10.383,10.383,0,0,1,1.123.005,1.022,1.022,0,0,0,1.2-.7c.294-.647-.047-.9-.4-1.249-1.947-1.95-1.946-2.151,0-4.1,1.016-1.016,2.025-2.038,3.048-3.045a1.539,1.539,0,0,1,2.51-.02c.273.257.532.528.8.793.343.344.589.715,1.245.409a1.082,1.082,0,0,0,.708-1.2c-.021-2.754.141-2.9,2.889-2.9C-488.163,1729.393-487.633,1729.375-487.1,1729.366Zm10.736,7.855a10.3,10.3,0,0,1-1.157-.845c-1.1-1.061-1.109-1.094-2.154-.019a1.68,1.68,0,0,1-2.335.369,10.19,10.19,0,0,0-2.423-.98,1.529,1.529,0,0,1-1.161-1.423c-.065-.631.328-1.492-.224-1.834-.479-.3-1.274-.083-1.929-.095a.774.774,0,0,1-.094,0c-.544-.074-.834.1-.757.71.035.277-.008.563.008.843a1.628,1.628,0,0,1-1.338,1.856,10.974,10.974,0,0,0-2.5,1.048,1.468,1.468,0,0,1-1.811-.232c-.467-.394-.8-1.23-1.38-1.121-.514.1-.917.788-1.368,1.218a1.366,1.366,0,0,1-.134.131c-.545.39-.526.766,0,1.164.2.149.349.358.534.525a1.6,1.6,0,0,1,.332,2.258,9.527,9.527,0,0,0-.875,2.064c-.416,1.305-.734,1.532-2.081,1.537-1.387,0-1.387,0-1.388,1.385v.188c0,1.422,0,1.448,1.437,1.419.9-.018,1.627.209,1.907,1.146a14.465,14.465,0,0,0,1.144,2.762,1.434,1.434,0,0,1-.249,1.728c-.395.473-1.246.832-1.14,1.376s.823.966,1.272,1.441a2.777,2.777,0,0,1,.2.2c.289.374.572.43.9.03.2-.241.449-.436.657-.667a1.6,1.6,0,0,1,2.252-.358,9.632,9.632,0,0,0,2.064.875c1.35.436,1.545.729,1.56,2.16.016,1.522-.218,1.292,1.359,1.317h.094c1.533,0,1.533,0,1.546-1.508.01-1.185.267-1.543,1.383-1.906a13.726,13.726,0,0,0,2.16-.89c1.1-.58,1.493-.508,2.4.379,1.038,1.019,1.038,1.019,2.087-.031l.066-.066c1-1,1.021-1.023-.008-2.014a1.675,1.675,0,0,1-.451-2.319,9.946,9.946,0,0,0,.991-2.419,1.55,1.55,0,0,1,1.561-1.229c1.817-.08,1.816-.09,1.814-1.893a1.779,1.779,0,0,1,0-.281c.1-.657-.168-.921-.826-.829-.245.034-.5-.006-.749.007a1.639,1.639,0,0,1-1.844-1.358,10.807,10.807,0,0,0-.672-1.743c-.855-1.792-.864-1.793.544-3.222C-476.946,1737.876-476.769,1737.665-476.367,1737.221Z" transform="translate(0 -143.473)"/>
    <path id="Trazado_170041" data-name="Trazado 170041" d="M-352.715,1695.786c.013.312.038.623.038.934q0,22.731.022,45.461c0,.857-.217,1.067-1.069,1.066q-31.823-.037-63.645-.021c-.311,0-.623-.025-.934-.038.062-.333.317-.319.573-.337a71.648,71.648,0,0,0,15.308-2.873,81.277,81.277,0,0,0,14.647-6,7.686,7.686,0,0,0,6.559-1.232,7.885,7.885,0,0,0,3.03-5.076,9.024,9.024,0,0,0,2.165-1.514c.251-.19.464-.406.807-.369.013.592.065,1.187.029,1.776-.033.542.164.68.688.678,3.809-.021,7.618.015,11.426-.023a4.463,4.463,0,0,0,4.387-4.364c.034-1.279.009-2.56.009-3.84,0-2.37,0-2.35-2.339-2.3-.544.012-.68.18-.672.7.028,1.717.025,3.434,0,5.151a1.481,1.481,0,0,1-1.606,1.657c-3.777.007-7.553-.016-11.33-.028a27.342,27.342,0,0,1,3.513-3.305,53.451,53.451,0,0,0,4.554-4.684,61.694,61.694,0,0,0,5.989-7.611,1.8,1.8,0,0,0,.382-.839c1.506-.06,1.5-.06,1.5-1.627,0-.279.015-.558.023-.838,1.061-.715,1.394-1.936,2-2.955a57.6,57.6,0,0,0,3.6-7.269A.415.415,0,0,1-352.715,1695.786Zm-5.96,17.411c0-1.467,0-1.467-1.088-1.468-1.911,0-1.911,0-1.912,1.111,0,1.889,0,1.889,1.228,1.889C-358.676,1714.729-358.676,1714.729-358.676,1713.2Z" transform="translate(-63.921 -118.307)" fill="#72e676"/>
    <path id="Trazado_170042" data-name="Trazado 170042" d="M-303.017,1797.825a7.885,7.885,0,0,1-3.03,5.076,7.686,7.686,0,0,1-6.559,1.232,7.616,7.616,0,0,1-5.264-5.919,7.483,7.483,0,0,1,5.775-8.649,7.51,7.51,0,0,1,8.9,5.653A11.37,11.37,0,0,1-303.017,1797.825Zm-2.99-.907a4.517,4.517,0,0,0-4.418-4.531,4.518,4.518,0,0,0-4.579,4.464,4.52,4.52,0,0,0,4.511,4.533A4.52,4.52,0,0,0-306.007,1796.918Z" transform="translate(-139.091 -188.464)"/>
    <path id="Trazado_170043" data-name="Trazado 170043" d="M-318.009,1581.361a7.519,7.519,0,0,1,7.5-7.514,7.517,7.517,0,0,1,7.492,7.527,7.525,7.525,0,0,1-7.458,7.469A7.522,7.522,0,0,1-318.009,1581.361Zm7.474-4.515a4.518,4.518,0,0,0-4.475,4.474,4.519,4.519,0,0,0,4.521,4.523,4.52,4.52,0,0,0,4.475-4.476A4.516,4.516,0,0,0-310.535,1576.846Z" transform="translate(-139.085 -26.922)"/>
    <path id="Trazado_170044" data-name="Trazado 170044" d="M-310.493,1696.593a7.522,7.522,0,0,1-7.516-7.5,7.519,7.519,0,0,1,7.526-7.493,7.519,7.519,0,0,1,7.47,7.455A7.522,7.522,0,0,1-310.493,1696.593Zm4.479-7.508a4.516,4.516,0,0,0-4.46-4.489,4.516,4.516,0,0,0-4.536,4.507,4.521,4.521,0,0,0,4.46,4.49A4.52,4.52,0,0,0-306.013,1689.085Z" transform="translate(-139.085 -107.673)"/>
    <path id="Trazado_170045" data-name="Trazado 170045" d="M-240.961,1584.289c1.5,0,3-.023,4.493.012.554.013.788-.107.742-.714a19.018,19.018,0,0,1-.007-2.246,1.464,1.464,0,0,1,2.384-1.237c2.026,1.456,4.018,2.96,5.988,4.491a1.429,1.429,0,0,1-.014,2.4c-1.973,1.527-3.962,3.035-5.991,4.486a1.466,1.466,0,0,1-2.368-1.269,19.894,19.894,0,0,1,.006-2.152c.041-.6-.137-.793-.764-.786-2.964.034-5.929-.01-8.893.033-.7.01-.884-.176-.872-.875.035-2.142,0-2.143,2.113-2.143Zm8.254,2.942c.633-.459,1.1-.8,1.579-1.143.263-.188.317-.38.02-.578a9.22,9.22,0,0,0-1.6-1.083Z" transform="translate(-192.858 -31.366)"/>
    <path id="Trazado_170046" data-name="Trazado 170046" d="M-229.728,1713.593c-.008.279-.023.558-.023.838,0,1.567,0,1.567-1.5,1.627-1.5-.06-1.5-.06-1.5-1.546,0-1.4.01-2.81,0-4.215-.012-1.215-.56-1.757-1.793-1.76-3.591-.008-7.182-.018-10.772.01-.677.005-.974-.092-.954-.887.053-2.125.01-2.126,2.136-2.126q4.684,0,9.367,0c3.235,0,5.014,1.8,5.019,5.062C-229.749,1711.6-229.736,1712.594-229.728,1713.593Z" transform="translate(-192.845 -125.612)"/>
    <path id="Trazado_170047" data-name="Trazado 170047" d="M-385.668,1600.75q-2.575,0-5.15,0c-1.578,0-2.035.47-2.037,2.08,0,1.592-.014,3.184.008,4.775.007.46-.088.64-.607.658-2.4.084-2.4.1-2.4-2.321,0-1.248-.02-2.5.005-3.745a4.463,4.463,0,0,1,4.406-4.437c3.808-.036,7.616,0,11.424-.023.538,0,.668.159.678.683.041,2.328.059,2.328-2.3,2.328Z" transform="translate(-80.739 -44.827)"/>
    <path id="Trazado_170048" data-name="Trazado 170048" d="M-385.816,1685.991c-1.81,0-3.621.012-5.431,0a4.492,4.492,0,0,1-4.613-4.617c-.014-1.748.011-3.5-.012-5.243-.006-.47.1-.634.615-.651,2.395-.079,2.394-.1,2.394,2.327,0,1.124-.008,2.247,0,3.371.011,1.279.542,1.811,1.832,1.814,3.62.007,7.241.021,10.862-.014.666-.006.827.18.82.83-.022,2.186.005,2.186-2.162,2.186Z" transform="translate(-80.732 -103.069)"/>
    <path id="Trazado_170049" data-name="Trazado 170049" d="M-245.753,1790.733c3.777.012,7.553.035,11.33.028a1.481,1.481,0,0,0,1.606-1.657c.02-1.717.023-3.434,0-5.151-.009-.518.128-.685.672-.7,2.339-.052,2.339-.072,2.339,2.3,0,1.28.025,2.561-.009,3.84a4.463,4.463,0,0,1-4.387,4.364c-3.808.038-7.618,0-11.426.023-.524,0-.722-.135-.688-.678.036-.589-.016-1.184-.029-1.776C-246.381,1790.9-246.177,1790.7-245.753,1790.733Z" transform="translate(-192.786 -183.849)"/>
    <path id="Trazado_170050" data-name="Trazado 170050" d="M-356.327,1816.237c-1,0-2-.031-3,.012-.552.024-.662-.177-.671-.692-.039-2.321-.056-2.32,2.216-2.32,1.531,0,3.063.03,4.592-.015.6-.018.715.184.718.742.013,2.273.033,2.273-2.264,2.273Z" transform="translate(-107.612 -206.316)"/>
    <path id="Trazado_170051" data-name="Trazado 170051" d="M-392.834,1653.214c0,1.446,0,1.446-1.483,1.446-1.517,0-1.517,0-1.516-1.507s0-1.493,1.53-1.493C-392.834,1651.66-392.834,1651.66-392.834,1653.214Z" transform="translate(-80.761 -85.237)"/>
    <path id="Trazado_170052" data-name="Trazado 170052" d="M-467.388,1746.088c-.4.444-.579.655-.772.851-1.408,1.429-1.4,1.43-.544,3.222a10.81,10.81,0,0,1,.672,1.743,1.639,1.639,0,0,0,1.844,1.358c.249-.013.5.027.749-.007.659-.091.93.172.826.829a1.779,1.779,0,0,0,0,.281c0,1.8,0,1.813-1.814,1.893a1.55,1.55,0,0,0-1.561,1.229,9.945,9.945,0,0,1-.991,2.419,1.675,1.675,0,0,0,.451,2.319c1.029.991,1.01,1.011.008,2.014l-.066.066c-1.049,1.05-1.049,1.05-2.087.031-.9-.886-1.292-.959-2.4-.379a13.727,13.727,0,0,1-2.16.89c-1.116.363-1.373.72-1.383,1.906-.013,1.508-.013,1.508-1.546,1.508h-.094c-1.577-.026-1.343.205-1.359-1.317-.015-1.431-.21-1.725-1.56-2.16a9.631,9.631,0,0,1-2.064-.875,1.6,1.6,0,0,0-2.252.358c-.209.232-.46.427-.657.667-.327.4-.61.344-.9-.03a2.778,2.778,0,0,0-.2-.2c-.45-.475-1.166-.9-1.272-1.441s.745-.9,1.14-1.376a1.434,1.434,0,0,0,.249-1.728,14.465,14.465,0,0,1-1.144-2.762c-.28-.937-1-1.164-1.907-1.146-1.437.029-1.437,0-1.437-1.419v-.187c0-1.38,0-1.38,1.388-1.385,1.347,0,1.664-.232,2.08-1.537a9.53,9.53,0,0,1,.875-2.064,1.6,1.6,0,0,0-.332-2.258c-.186-.167-.337-.376-.534-.525-.528-.4-.547-.774,0-1.164a1.369,1.369,0,0,0,.134-.131c.452-.429.854-1.122,1.368-1.218.579-.108.913.727,1.38,1.121a1.468,1.468,0,0,0,1.811.232,10.974,10.974,0,0,1,2.5-1.048,1.628,1.628,0,0,0,1.338-1.856c-.016-.28.027-.566-.008-.843-.077-.606.213-.784.757-.71a.774.774,0,0,0,.094,0c.655.012,1.45-.2,1.929.095.552.343.159,1.2.224,1.834a1.529,1.529,0,0,0,1.161,1.423,10.189,10.189,0,0,1,2.423.98,1.68,1.68,0,0,0,2.335-.369c1.045-1.076,1.055-1.042,2.154.019A10.3,10.3,0,0,0-467.388,1746.088Zm-18.225,8.635a7.519,7.519,0,0,0,7.483,7.535,7.528,7.528,0,0,0,7.512-7.418,7.516,7.516,0,0,0-7.439-7.578A7.518,7.518,0,0,0-485.613,1754.723Z" transform="translate(-8.98 -152.339)" fill="#55f58b"/>
    <path id="Trazado_170053" data-name="Trazado 170053" d="M-189.307,1760.878c0,1.532,0,1.532-1.772,1.532-1.23,0-1.23,0-1.228-1.889,0-1.113,0-1.113,1.912-1.111C-189.307,1759.411-189.307,1759.411-189.307,1760.878Z" transform="translate(-233.289 -165.988)"/>
    <path id="Trazado_170054" data-name="Trazado 170054" d="M-297.042,1805.847a4.52,4.52,0,0,1-4.485,4.466,4.52,4.52,0,0,1-4.511-4.533,4.518,4.518,0,0,1,4.579-4.464A4.517,4.517,0,0,1-297.042,1805.847Z" transform="translate(-148.056 -197.393)" fill="#f5cd6c"/>
    <path id="Trazado_170055" data-name="Trazado 170055" d="M-301.563,1585.817a4.516,4.516,0,0,1,4.522,4.521,4.52,4.52,0,0,1-4.475,4.476,4.519,4.519,0,0,1-4.521-4.523A4.518,4.518,0,0,1-301.563,1585.817Z" transform="translate(-148.056 -35.893)" fill="#ffecb3"/>
    <path id="Trazado_170056" data-name="Trazado 170056" d="M-297.042,1698.055a4.52,4.52,0,0,1-4.536,4.509,4.521,4.521,0,0,1-4.46-4.49,4.516,4.516,0,0,1,4.536-4.507A4.516,4.516,0,0,1-297.042,1698.055Z" transform="translate(-148.056 -116.643)" fill="#f5cd6c"/>
    <path id="Trazado_170057" data-name="Trazado 170057" d="M-192.179,1601.137v-2.8a9.22,9.22,0,0,1,1.6,1.083c.3.2.243.39-.02.578C-191.074,1600.333-191.546,1600.678-192.179,1601.137Z" transform="translate(-233.386 -45.273)" fill="#516172"/>
    <path id="Trazado_170058" data-name="Trazado 170058" d="M-467.66,1772.864a7.518,7.518,0,0,1,7.556-7.46,7.516,7.516,0,0,1,7.439,7.578,7.528,7.528,0,0,1-7.512,7.418A7.519,7.519,0,0,1-467.66,1772.864Zm7.488-4.433a4.464,4.464,0,0,0-4.488,4.422,4.465,4.465,0,0,0,4.488,4.518,4.474,4.474,0,0,0,4.508-4.471A4.469,4.469,0,0,0-460.172,1768.432Z" transform="translate(-26.932 -170.48)"/>
    <path id="Trazado_170059" data-name="Trazado 170059" d="M-451.2,1786.428a4.466,4.466,0,0,1-4.488-4.518,4.464,4.464,0,0,1,4.488-4.422Z" transform="translate(-35.905 -179.537)" fill="#fefefe"/>
    <path id="Trazado_170060" data-name="Trazado 170060" d="M-437.777,1786.428v-8.94a4.47,4.47,0,0,1,4.508,4.469A4.474,4.474,0,0,1-437.777,1786.428Z" transform="translate(-49.327 -179.537)" fill="#72e676"/>
  </g>
</svg>
