<svg xmlns="http://www.w3.org/2000/svg" width="412.539" height="278.958" viewBox="0 0 412.539 278.958">
  <g id="Grupo_111248" data-name="Grupo 111248" transform="translate(-903.461 -866)">
    <g id="Grupo_111246" data-name="Grupo 111246" transform="translate(1375.123 601.93)">
      <g id="Grupo_111245" data-name="Grupo 111245" transform="translate(-376.477 300.75)" style="isolation: isolate">
        <path id="Trazado_171554" data-name="Trazado 171554" d="M-413.053,366.74h33.791l72.312-74.8h22.978" transform="translate(413.053 -291.94)" fill="none" stroke="#7b5d14" stroke-miterlimit="10" stroke-width="2"/>
        <path id="Trazado_171555" data-name="Trazado 171555" d="M-411.371,363.622h36.977l69.126-38.285h22.978" transform="translate(414.125 -270.661)" fill="none" stroke="#7b5d14" stroke-miterlimit="10" stroke-width="2"/>
        <line id="Línea_180" data-name="Línea 180" x2="125.596" transform="translate(0.095 109.449)" fill="none" stroke="#7b5d14" stroke-miterlimit="10" stroke-width="2"/>
        <path id="Trazado_171556" data-name="Trazado 171556" d="M-413.053,379.877h33.791l72.312,74.8h22.978" transform="translate(413.053 -235.911)" fill="none" stroke="#7b5d14" stroke-miterlimit="10" stroke-width="2"/>
        <path id="Trazado_171557" data-name="Trazado 171557" d="M-411.371,368.784h36.977l69.126,38.285h22.978" transform="translate(414.125 -242.979)" fill="none" stroke="#7b5d14" stroke-miterlimit="10" stroke-width="2"/>
      </g>
      <path id="Trazado_171558" data-name="Trazado 171558" d="M-167.662,323.449H-314.588a22.735,22.735,0,0,1-22.668-22.668h0a22.734,22.734,0,0,1,22.668-22.668h146.926a22.734,22.734,0,0,1,22.668,22.668h0A22.735,22.735,0,0,1-167.662,323.449Z" transform="translate(84.871 0)" fill="#fff" stroke="#28c65d" stroke-width="2"/>
      <path id="Trazado_171559" data-name="Trazado 171559" d="M-167.662,356.827H-314.588a22.735,22.735,0,0,1-22.668-22.668h0a22.734,22.734,0,0,1,22.668-22.668h146.926a22.734,22.734,0,0,1,22.668,22.668h0A22.735,22.735,0,0,1-167.662,356.827Z" transform="translate(84.871 21.267)" fill="#fff" stroke="#28c65d" stroke-width="2"/>
      <path id="Trazado_171560" data-name="Trazado 171560" d="M-167.662,390.206H-314.588a22.735,22.735,0,0,1-22.668-22.668h0a22.736,22.736,0,0,1,22.668-22.67h146.926a22.736,22.736,0,0,1,22.668,22.67h0A22.735,22.735,0,0,1-167.662,390.206Z" transform="translate(84.871 42.533)" fill="#fff" stroke="#28c65d" stroke-width="2"/>
      <path id="Trazado_171561" data-name="Trazado 171561" d="M-167.662,423.584H-314.588a22.735,22.735,0,0,1-22.668-22.668h0a22.736,22.736,0,0,1,22.668-22.67h146.926a22.736,22.736,0,0,1,22.668,22.67h0A22.735,22.735,0,0,1-167.662,423.584Z" transform="translate(84.871 63.8)" fill="#fff" stroke="#28c65d" stroke-width="2"/>
      <path id="Trazado_171562" data-name="Trazado 171562" d="M-167.662,456.962H-314.588a22.736,22.736,0,0,1-22.668-22.67h0a22.735,22.735,0,0,1,22.668-22.668h146.926a22.735,22.735,0,0,1,22.668,22.668h0A22.736,22.736,0,0,1-167.662,456.962Z" transform="translate(84.871 85.066)" fill="#fff" stroke="#28c65d" stroke-width="2"/>
      <circle id="Elipse_5881" data-name="Elipse 5881" cx="56.343" cy="56.343" r="56.343" transform="translate(-470.459 368.334) rotate(-13.283)" fill="#fff" stroke="#28c65d" stroke-width="2"/>
    </g>
    <path id="Trazado_171568" data-name="Trazado 171568" d="M-29.2-3.789A4.025,4.025,0,0,1-30.551-.9,4.76,4.76,0,0,1-33.773.156a4.28,4.28,0,0,1-3.441-1.473,6.038,6.038,0,0,1-1.254-4.043v-.7a6.819,6.819,0,0,1,.578-2.891,4.332,4.332,0,0,1,1.652-1.918,4.629,4.629,0,0,1,2.5-.668,4.637,4.637,0,0,1,3.172,1.055A4.326,4.326,0,0,1-29.18-7.516h-2.344a2.376,2.376,0,0,0-.613-1.6,2.271,2.271,0,0,0-1.605-.5,1.991,1.991,0,0,0-1.754.84,4.707,4.707,0,0,0-.6,2.605V-5.3a5.038,5.038,0,0,0,.559,2.7,1.954,1.954,0,0,0,1.762.852,2.314,2.314,0,0,0,1.621-.5,2.241,2.241,0,0,0,.613-1.535Zm1.039-.516a5.013,5.013,0,0,1,.484-2.242A3.546,3.546,0,0,1-26.277-8.07a4.069,4.069,0,0,1,2.113-.539,3.849,3.849,0,0,1,2.793,1.047,4.2,4.2,0,0,1,1.207,2.844l.016.578A4.418,4.418,0,0,1-21.234-1.02,3.775,3.775,0,0,1-24.148.156a3.793,3.793,0,0,1-2.918-1.172A4.5,4.5,0,0,1-28.156-4.2Zm2.258.16A3.16,3.16,0,0,0-25.445-2.3a1.5,1.5,0,0,0,1.3.638,1.5,1.5,0,0,0,1.281-.63,3.457,3.457,0,0,0,.461-2.015,3.128,3.128,0,0,0-.461-1.831,1.5,1.5,0,0,0-1.3-.649,1.474,1.474,0,0,0-1.281.646A3.516,3.516,0,0,0-25.9-4.144Zm9.258-4.309.07.945a2.971,2.971,0,0,1,2.43-1.1A2.255,2.255,0,0,1-11.9-7.32,2.9,2.9,0,0,1-9.359-8.609a2.521,2.521,0,0,1,2.047.8A3.681,3.681,0,0,1-6.641-5.4V0H-8.906V-5.4a1.616,1.616,0,0,0-.281-1.053,1.245,1.245,0,0,0-.992-.333,1.409,1.409,0,0,0-1.406.971L-11.578,0h-2.258V-5.4a1.6,1.6,0,0,0-.289-1.065,1.257,1.257,0,0,0-.984-.329,1.463,1.463,0,0,0-1.391.8V0h-2.258V-8.453ZM.156-.859A2.831,2.831,0,0,1-2.156.156,2.67,2.67,0,0,1-4.23-.625a3.335,3.335,0,0,1-.73-2.289V-8.453H-2.7v5.467q0,1.322,1.2,1.322a1.63,1.63,0,0,0,1.578-.8V-8.453H2.344V0H.219ZM6.125-8.453l.07.977a2.951,2.951,0,0,1,2.43-1.133,2.453,2.453,0,0,1,2,.789A3.682,3.682,0,0,1,11.3-5.461V0H9.039V-5.419a1.47,1.47,0,0,0-.312-1.045,1.4,1.4,0,0,0-1.039-.325,1.553,1.553,0,0,0-1.43.814V0H4V-8.453ZM15.391,0H13.125V-8.453h2.266Zm-2.4-10.641a1.112,1.112,0,0,1,.34-.836,1.277,1.277,0,0,1,.926-.328,1.28,1.28,0,0,1,.922.328,1.105,1.105,0,0,1,.344.836,1.108,1.108,0,0,1-.348.844,1.283,1.283,0,0,1-.918.328A1.283,1.283,0,0,1,13.34-9.8,1.108,1.108,0,0,1,12.992-10.641Zm7.773,8.977a1.481,1.481,0,0,0,1.016-.344,1.2,1.2,0,0,0,.406-.914H24.3a2.9,2.9,0,0,1-.469,1.574A3.093,3.093,0,0,1,22.574-.238,3.949,3.949,0,0,1,20.8.156,3.67,3.67,0,0,1,17.945-1,4.56,4.56,0,0,1,16.9-4.18v-.148a4.508,4.508,0,0,1,1.039-3.117,3.627,3.627,0,0,1,2.852-1.164,3.555,3.555,0,0,1,2.543.9A3.2,3.2,0,0,1,24.3-5.3H22.188a1.551,1.551,0,0,0-.406-1.072,1.354,1.354,0,0,0-1.031-.412,1.36,1.36,0,0,0-1.191.575,3.333,3.333,0,0,0-.4,1.866v.235a3.375,3.375,0,0,0,.4,1.878A1.377,1.377,0,0,0,20.766-1.664ZM30.492,0a2.507,2.507,0,0,1-.227-.758,2.732,2.732,0,0,1-2.133.914,3,3,0,0,1-2.059-.719,2.312,2.312,0,0,1-.816-1.812,2.389,2.389,0,0,1,1-2.062,4.915,4.915,0,0,1,2.879-.727h1.039v-.484a1.393,1.393,0,0,0-.3-.937,1.183,1.183,0,0,0-.949-.352,1.345,1.345,0,0,0-.895.273.929.929,0,0,0-.324.75H25.445A2.268,2.268,0,0,1,25.9-7.273a3,3,0,0,1,1.281-.98,4.669,4.669,0,0,1,1.859-.355,3.689,3.689,0,0,1,2.48.785,2.747,2.747,0,0,1,.918,2.207v3.664a4.041,4.041,0,0,0,.336,1.82V0ZM28.625-1.57a1.945,1.945,0,0,0,.922-.223,1.462,1.462,0,0,0,.625-.6V-3.844h-.844q-1.7,0-1.8,1.172l-.008.133a.9.9,0,0,0,.3.7A1.153,1.153,0,0,0,28.625-1.57Zm10.3-4.766a6.134,6.134,0,0,0-.812-.062,1.654,1.654,0,0,0-1.68.867V0H34.172V-8.453H36.3l.063,1.008A2.092,2.092,0,0,1,38.25-8.609a2.366,2.366,0,0,1,.7.1ZM-35.781,14.8l1.563-5.258H-31.8l-3.4,9.766-.187.445a2.577,2.577,0,0,1-2.5,1.656,3.552,3.552,0,0,1-1-.148V19.555l.344.008a1.857,1.857,0,0,0,.957-.2,1.283,1.283,0,0,0,.5-.648l.266-.7-2.961-8.477h2.43Zm12.375,1.531a1.481,1.481,0,0,0,1.016-.344,1.2,1.2,0,0,0,.406-.914h2.117a2.9,2.9,0,0,1-.469,1.574A3.093,3.093,0,0,1-21.6,17.762a3.949,3.949,0,0,1-1.77.395A3.67,3.67,0,0,1-26.227,17a4.56,4.56,0,0,1-1.047-3.184v-.148a4.508,4.508,0,0,1,1.039-3.117,3.627,3.627,0,0,1,2.852-1.164,3.555,3.555,0,0,1,2.543.9,3.2,3.2,0,0,1,.973,2.4h-2.117a1.551,1.551,0,0,0-.406-1.072,1.354,1.354,0,0,0-1.031-.412,1.36,1.36,0,0,0-1.191.575,3.333,3.333,0,0,0-.4,1.866v.235a3.375,3.375,0,0,0,.4,1.878A1.377,1.377,0,0,0-23.406,16.336ZM-18.93,13.7a5.013,5.013,0,0,1,.484-2.242A3.546,3.546,0,0,1-17.051,9.93a4.069,4.069,0,0,1,2.113-.539,3.849,3.849,0,0,1,2.793,1.047,4.2,4.2,0,0,1,1.207,2.844l.016.578a4.418,4.418,0,0,1-1.086,3.121,3.775,3.775,0,0,1-2.914,1.176,3.793,3.793,0,0,1-2.918-1.172A4.5,4.5,0,0,1-18.93,13.8Zm2.258.16a3.16,3.16,0,0,0,.453,1.843,1.5,1.5,0,0,0,1.3.638,1.5,1.5,0,0,0,1.281-.63,3.457,3.457,0,0,0,.461-2.015,3.128,3.128,0,0,0-.461-1.831,1.5,1.5,0,0,0-1.3-.649,1.474,1.474,0,0,0-1.281.646A3.516,3.516,0,0,0-16.672,13.856Zm9.219-4.309.07.977a2.951,2.951,0,0,1,2.43-1.133,2.453,2.453,0,0,1,2,.789,3.682,3.682,0,0,1,.672,2.359V18H-4.539V12.581a1.47,1.47,0,0,0-.312-1.045,1.4,1.4,0,0,0-1.039-.325,1.553,1.553,0,0,0-1.43.814V18H-9.578V9.547ZM4.008,15.664a.727.727,0,0,0-.41-.652,4.659,4.659,0,0,0-1.316-.426q-3.016-.633-3.016-2.562A2.323,2.323,0,0,1,.2,10.145a3.766,3.766,0,0,1,2.441-.754,4.053,4.053,0,0,1,2.574.758,2.388,2.388,0,0,1,.965,1.969H3.922a1.092,1.092,0,0,0-.312-.8A1.322,1.322,0,0,0,2.633,11a1.351,1.351,0,0,0-.883.258.814.814,0,0,0-.312.656.7.7,0,0,0,.355.605,3.657,3.657,0,0,0,1.2.4,9.8,9.8,0,0,1,1.422.379A2.336,2.336,0,0,1,6.2,15.57a2.2,2.2,0,0,1-.992,1.871,4.28,4.28,0,0,1-2.562.715,4.47,4.47,0,0,1-1.887-.379A3.166,3.166,0,0,1-.531,16.738,2.414,2.414,0,0,1-1,15.313H1.141a1.179,1.179,0,0,0,.445.922,1.766,1.766,0,0,0,1.109.32,1.635,1.635,0,0,0,.98-.246A.766.766,0,0,0,4.008,15.664Zm8.711,1.477a2.831,2.831,0,0,1-2.312,1.016,2.67,2.67,0,0,1-2.074-.781,3.335,3.335,0,0,1-.73-2.289V9.547H9.859v5.467q0,1.322,1.2,1.322a1.63,1.63,0,0,0,1.578-.8V9.547h2.266V18H12.781ZM18.992,18H16.727V6h2.266ZM23.555,7.469V9.547H25V11.2H23.555v4.219a1.007,1.007,0,0,0,.18.672.9.9,0,0,0,.688.2,3.6,3.6,0,0,0,.664-.055v1.711a4.648,4.648,0,0,1-1.367.2,2.156,2.156,0,0,1-2.422-2.4V11.2H20.063V9.547H21.3V7.469ZM31.156,18a2.507,2.507,0,0,1-.227-.758,2.732,2.732,0,0,1-2.133.914,3,3,0,0,1-2.059-.719,2.312,2.312,0,0,1-.816-1.812,2.389,2.389,0,0,1,1-2.062,4.915,4.915,0,0,1,2.879-.727h1.039v-.484a1.393,1.393,0,0,0-.3-.937,1.183,1.183,0,0,0-.949-.352,1.345,1.345,0,0,0-.895.273.929.929,0,0,0-.324.75H26.109a2.268,2.268,0,0,1,.453-1.359,3,3,0,0,1,1.281-.98A4.669,4.669,0,0,1,29.7,9.391a3.689,3.689,0,0,1,2.48.785,2.747,2.747,0,0,1,.918,2.207v3.664a4.041,4.041,0,0,0,.336,1.82V18Zm-1.867-1.57a1.945,1.945,0,0,0,.922-.223,1.462,1.462,0,0,0,.625-.6V14.156h-.844q-1.7,0-1.8,1.172l-.008.133a.9.9,0,0,0,.3.7A1.153,1.153,0,0,0,29.289,16.43Zm10.3-4.766a6.134,6.134,0,0,0-.812-.062,1.654,1.654,0,0,0-1.68.867V18H34.836V9.547h2.133l.063,1.008a2.092,2.092,0,0,1,1.883-1.164,2.366,2.366,0,0,1,.7.1Z" transform="translate(971 1006)" fill="#12263f"/>
    <path id="Trazado_171569" data-name="Trazado 171569" d="M-73.914-4.945h-4.5v3.063h5.281V0h-7.625V-11.375h7.609v1.9h-5.266v2.711h4.5Zm6.586,2.609a.727.727,0,0,0-.41-.652,4.659,4.659,0,0,0-1.316-.426q-3.016-.633-3.016-2.562a2.323,2.323,0,0,1,.934-1.879A3.766,3.766,0,0,1-68.7-8.609a4.053,4.053,0,0,1,2.574.758,2.388,2.388,0,0,1,.965,1.969h-2.258a1.092,1.092,0,0,0-.312-.8A1.322,1.322,0,0,0-68.7-7a1.351,1.351,0,0,0-.883.258.814.814,0,0,0-.312.656.7.7,0,0,0,.355.605,3.657,3.657,0,0,0,1.2.4,9.8,9.8,0,0,1,1.422.379A2.336,2.336,0,0,1-65.133-2.43a2.2,2.2,0,0,1-.992,1.871,4.28,4.28,0,0,1-2.562.715,4.47,4.47,0,0,1-1.887-.379,3.166,3.166,0,0,1-1.293-1.039,2.414,2.414,0,0,1-.469-1.426H-70.2a1.179,1.179,0,0,0,.445.922,1.766,1.766,0,0,0,1.109.32,1.635,1.635,0,0,0,.98-.246A.766.766,0,0,0-67.328-2.336Zm6.352-8.2v2.078h1.445V-6.8h-1.445v4.219a1.007,1.007,0,0,0,.18.672.9.9,0,0,0,.688.2,3.6,3.6,0,0,0,.664-.055V-.047a4.648,4.648,0,0,1-1.367.2,2.156,2.156,0,0,1-2.422-2.4V-6.8h-1.234V-8.453h1.234v-2.078ZM-53.375,0A2.507,2.507,0,0,1-53.6-.758a2.732,2.732,0,0,1-2.133.914,3,3,0,0,1-2.059-.719,2.312,2.312,0,0,1-.816-1.812,2.389,2.389,0,0,1,1-2.062,4.915,4.915,0,0,1,2.879-.727H-53.7v-.484a1.393,1.393,0,0,0-.3-.937,1.183,1.183,0,0,0-.949-.352,1.345,1.345,0,0,0-.895.273.929.929,0,0,0-.324.75h-2.258a2.268,2.268,0,0,1,.453-1.359,3,3,0,0,1,1.281-.98,4.669,4.669,0,0,1,1.859-.355,3.689,3.689,0,0,1,2.48.785,2.747,2.747,0,0,1,.918,2.207v3.664a4.041,4.041,0,0,0,.336,1.82V0Zm-1.867-1.57a1.945,1.945,0,0,0,.922-.223,1.462,1.462,0,0,0,.625-.6V-3.844h-.844q-1.7,0-1.8,1.172l-.008.133a.9.9,0,0,0,.3.7A1.153,1.153,0,0,0-55.242-1.57Zm13.164-2.578A5.119,5.119,0,0,1-42.945-.98,2.872,2.872,0,0,1-45.367.156,2.639,2.639,0,0,1-47.562-.9l-.1.9H-49.7V-12h2.258v4.3a2.571,2.571,0,0,1,2.055-.914,2.9,2.9,0,0,1,2.426,1.137,5.126,5.126,0,0,1,.879,3.2Zm-2.258-.172A3.381,3.381,0,0,0-44.742-6.2a1.372,1.372,0,0,0-1.211-.592,1.489,1.489,0,0,0-1.484.885v3.346a1.509,1.509,0,0,0,1.5.893A1.4,1.4,0,0,0-44.5-2.745,5.6,5.6,0,0,0-44.336-4.321ZM-38.3,0H-40.57V-12H-38.3Zm5.75.156A4.15,4.15,0,0,1-35.582-.984,4.054,4.054,0,0,1-36.75-4.023v-.219a5.106,5.106,0,0,1,.492-2.277,3.612,3.612,0,0,1,1.395-1.547A3.914,3.914,0,0,1-32.8-8.609a3.508,3.508,0,0,1,2.73,1.094,4.444,4.444,0,0,1,1,3.1v.922h-5.383a2.1,2.1,0,0,0,.66,1.328,2,2,0,0,0,1.395.5,2.437,2.437,0,0,0,2.039-.945l1.109,1.242A3.389,3.389,0,0,1-30.633-.246,4.511,4.511,0,0,1-32.555.156Zm-.258-6.945a1.411,1.411,0,0,0-1.09.455,2.357,2.357,0,0,0-.535,1.3H-31.3v-.181A1.681,1.681,0,0,0-31.7-6.377,1.456,1.456,0,0,0-32.812-6.789Zm8.531,5.125a1.481,1.481,0,0,0,1.016-.344,1.2,1.2,0,0,0,.406-.914h2.117a2.9,2.9,0,0,1-.469,1.574A3.093,3.093,0,0,1-22.473-.238a3.949,3.949,0,0,1-1.77.395A3.67,3.67,0,0,1-27.1-1,4.56,4.56,0,0,1-28.148-4.18v-.148a4.508,4.508,0,0,1,1.039-3.117,3.627,3.627,0,0,1,2.852-1.164,3.555,3.555,0,0,1,2.543.9,3.2,3.2,0,0,1,.973,2.4h-2.117a1.551,1.551,0,0,0-.406-1.072A1.354,1.354,0,0,0-24.3-6.789a1.36,1.36,0,0,0-1.191.575,3.333,3.333,0,0,0-.4,1.866v.235a3.375,3.375,0,0,0,.4,1.878A1.377,1.377,0,0,0-24.281-1.664Zm8.719,1.82A4.15,4.15,0,0,1-18.59-.984a4.054,4.054,0,0,1-1.168-3.039v-.219a5.106,5.106,0,0,1,.492-2.277,3.612,3.612,0,0,1,1.395-1.547,3.914,3.914,0,0,1,2.059-.543,3.508,3.508,0,0,1,2.73,1.094,4.444,4.444,0,0,1,1,3.1v.922h-5.383a2.1,2.1,0,0,0,.66,1.328,2,2,0,0,0,1.395.5,2.437,2.437,0,0,0,2.039-.945l1.109,1.242A3.389,3.389,0,0,1-13.641-.246,4.511,4.511,0,0,1-15.562.156Zm-.258-6.945a1.411,1.411,0,0,0-1.09.455,2.357,2.357,0,0,0-.535,1.3H-14.3v-.181a1.681,1.681,0,0,0-.406-1.165A1.456,1.456,0,0,0-15.82-6.789Zm9.766.453A6.134,6.134,0,0,0-6.867-6.4a1.654,1.654,0,0,0-1.68.867V0H-10.8V-8.453h2.133l.063,1.008A2.092,2.092,0,0,1-6.727-8.609a2.366,2.366,0,0,1,.7.1ZM2.906.156A4.15,4.15,0,0,1-.121-.984,4.054,4.054,0,0,1-1.289-4.023v-.219A5.106,5.106,0,0,1-.8-6.52,3.612,3.612,0,0,1,.6-8.066a3.914,3.914,0,0,1,2.059-.543,3.508,3.508,0,0,1,2.73,1.094,4.444,4.444,0,0,1,1,3.1v.922H1a2.1,2.1,0,0,0,.66,1.328,2,2,0,0,0,1.395.5,2.437,2.437,0,0,0,2.039-.945L6.2-1.367A3.389,3.389,0,0,1,4.828-.246,4.511,4.511,0,0,1,2.906.156ZM2.648-6.789a1.411,1.411,0,0,0-1.09.455,2.357,2.357,0,0,0-.535,1.3H4.164v-.181a1.681,1.681,0,0,0-.406-1.165A1.456,1.456,0,0,0,2.648-6.789ZM10.047,0H7.781V-12h2.266Zm9.359-1.664a1.481,1.481,0,0,0,1.016-.344,1.2,1.2,0,0,0,.406-.914h2.117a2.9,2.9,0,0,1-.469,1.574A3.093,3.093,0,0,1,21.215-.238a3.949,3.949,0,0,1-1.77.395A3.67,3.67,0,0,1,16.586-1,4.56,4.56,0,0,1,15.539-4.18v-.148a4.508,4.508,0,0,1,1.039-3.117A3.627,3.627,0,0,1,19.43-8.609a3.555,3.555,0,0,1,2.543.9,3.2,3.2,0,0,1,.973,2.4H20.828a1.551,1.551,0,0,0-.406-1.072,1.354,1.354,0,0,0-1.031-.412,1.36,1.36,0,0,0-1.191.575,3.333,3.333,0,0,0-.4,1.866v.235a3.375,3.375,0,0,0,.4,1.878A1.377,1.377,0,0,0,19.406-1.664ZM23.883-4.3a5.013,5.013,0,0,1,.484-2.242A3.546,3.546,0,0,1,25.762-8.07a4.069,4.069,0,0,1,2.113-.539,3.849,3.849,0,0,1,2.793,1.047,4.2,4.2,0,0,1,1.207,2.844l.016.578A4.418,4.418,0,0,1,30.8-1.02,3.775,3.775,0,0,1,27.891.156a3.793,3.793,0,0,1-2.918-1.172A4.5,4.5,0,0,1,23.883-4.2Zm2.258.16A3.16,3.16,0,0,0,26.594-2.3a1.5,1.5,0,0,0,1.3.638,1.5,1.5,0,0,0,1.281-.63,3.457,3.457,0,0,0,.461-2.015,3.128,3.128,0,0,0-.461-1.831,1.5,1.5,0,0,0-1.3-.649,1.474,1.474,0,0,0-1.281.646A3.516,3.516,0,0,0,26.141-4.144Zm9.219-4.309.07.977a2.951,2.951,0,0,1,2.43-1.133,2.453,2.453,0,0,1,2,.789,3.682,3.682,0,0,1,.672,2.359V0H38.273V-5.419a1.47,1.47,0,0,0-.312-1.045,1.4,1.4,0,0,0-1.039-.325,1.553,1.553,0,0,0-1.43.814V0H33.234V-8.453Zm9.586-2.078v2.078h1.445V-6.8H44.945v4.219a1.007,1.007,0,0,0,.18.672.9.9,0,0,0,.688.2,3.6,3.6,0,0,0,.664-.055V-.047a4.648,4.648,0,0,1-1.367.2,2.156,2.156,0,0,1-2.422-2.4V-6.8H41.453V-8.453h1.234v-2.078ZM51.539.156A4.15,4.15,0,0,1,48.512-.984a4.054,4.054,0,0,1-1.168-3.039v-.219a5.106,5.106,0,0,1,.492-2.277A3.612,3.612,0,0,1,49.23-8.066a3.914,3.914,0,0,1,2.059-.543,3.508,3.508,0,0,1,2.73,1.094,4.444,4.444,0,0,1,1,3.1v.922H49.633a2.1,2.1,0,0,0,.66,1.328,2,2,0,0,0,1.395.5,2.437,2.437,0,0,0,2.039-.945l1.109,1.242A3.389,3.389,0,0,1,53.461-.246,4.511,4.511,0,0,1,51.539.156Zm-.258-6.945a1.411,1.411,0,0,0-1.09.455,2.357,2.357,0,0,0-.535,1.3H52.8v-.181a1.681,1.681,0,0,0-.406-1.165A1.456,1.456,0,0,0,51.281-6.789Zm8.234.859,1.422-2.523h2.414L60.945-4.312,63.453,0H61.031L59.523-2.656,58.023,0h-2.43L58.1-4.312,55.7-8.453h2.422Zm7.625-4.6v2.078h1.445V-6.8H67.141v4.219a1.007,1.007,0,0,0,.18.672.9.9,0,0,0,.688.2,3.6,3.6,0,0,0,.664-.055V-.047a4.648,4.648,0,0,1-1.367.2,2.156,2.156,0,0,1-2.422-2.4V-6.8H63.648V-8.453h1.234v-2.078ZM69.258-4.3a5.013,5.013,0,0,1,.484-2.242A3.546,3.546,0,0,1,71.137-8.07a4.069,4.069,0,0,1,2.113-.539,3.849,3.849,0,0,1,2.793,1.047A4.2,4.2,0,0,1,77.25-4.719l.016.578A4.418,4.418,0,0,1,76.18-1.02,3.775,3.775,0,0,1,73.266.156a3.793,3.793,0,0,1-2.918-1.172A4.5,4.5,0,0,1,69.258-4.2Zm2.258.16A3.16,3.16,0,0,0,71.969-2.3a1.5,1.5,0,0,0,1.3.638,1.5,1.5,0,0,0,1.281-.63,3.457,3.457,0,0,0,.461-2.015,3.128,3.128,0,0,0-.461-1.831,1.5,1.5,0,0,0-1.3-.649,1.474,1.474,0,0,0-1.281.646A3.516,3.516,0,0,0,71.516-4.144Z" transform="translate(1218 907)" fill="#12263f"/>
    <path id="Trazado_171570" data-name="Trazado 171570" d="M-66.2,0h-2.344V-11.375H-66.2Zm1.672-4.289a5.094,5.094,0,0,1,.887-3.148,2.877,2.877,0,0,1,2.426-1.172,2.589,2.589,0,0,1,2.039.922V-12h2.266V0h-2.039l-.109-.9A2.657,2.657,0,0,1-61.234.156,2.869,2.869,0,0,1-63.629-1.02,5.258,5.258,0,0,1-64.531-4.289Zm2.258.161A3.355,3.355,0,0,0-61.859-2.3a1.348,1.348,0,0,0,1.2.636,1.51,1.51,0,0,0,1.477-.887V-5.9a1.489,1.489,0,0,0-1.461-.887Q-62.273-6.789-62.273-4.128Zm11,4.285A4.15,4.15,0,0,1-54.3-.984a4.054,4.054,0,0,1-1.168-3.039v-.219a5.106,5.106,0,0,1,.492-2.277,3.612,3.612,0,0,1,1.395-1.547,3.914,3.914,0,0,1,2.059-.543,3.508,3.508,0,0,1,2.73,1.094,4.444,4.444,0,0,1,1,3.1v.922H-53.18a2.1,2.1,0,0,0,.66,1.328,2,2,0,0,0,1.395.5,2.437,2.437,0,0,0,2.039-.945l1.109,1.242A3.389,3.389,0,0,1-49.352-.246,4.511,4.511,0,0,1-51.273.156Zm-.258-6.945a1.411,1.411,0,0,0-1.09.455,2.357,2.357,0,0,0-.535,1.3h3.141v-.181a1.681,1.681,0,0,0-.406-1.165A1.456,1.456,0,0,0-51.531-6.789Zm7.094-1.664.07.977a2.951,2.951,0,0,1,2.43-1.133,2.453,2.453,0,0,1,2,.789,3.682,3.682,0,0,1,.672,2.359V0h-2.258V-5.419a1.47,1.47,0,0,0-.312-1.045,1.4,1.4,0,0,0-1.039-.325,1.553,1.553,0,0,0-1.43.814V0h-2.258V-8.453Zm9.586-2.078v2.078h1.445V-6.8h-1.445v4.219a1.007,1.007,0,0,0,.18.672.9.9,0,0,0,.688.2,3.6,3.6,0,0,0,.664-.055V-.047a4.648,4.648,0,0,1-1.367.2,2.156,2.156,0,0,1-2.422-2.4V-6.8h-1.234V-8.453h1.234v-2.078ZM-29.766,0h-2.266V-8.453h2.266Zm-2.4-10.641a1.112,1.112,0,0,1,.34-.836A1.277,1.277,0,0,1-30.9-11.8a1.28,1.28,0,0,1,.922.328,1.105,1.105,0,0,1,.344.836,1.108,1.108,0,0,1-.348.844,1.283,1.283,0,0,1-.918.328,1.283,1.283,0,0,1-.918-.328A1.108,1.108,0,0,1-32.164-10.641ZM-27.359,0V-6.8h-1.258V-8.453h1.258v-.391a3.17,3.17,0,0,1,.98-2.457,3.945,3.945,0,0,1,2.723-.863,9.031,9.031,0,0,1,2.563.461l-.328,1.867a10,10,0,0,0-1.187-.293,5.835,5.835,0,0,0-.906-.066q-1.578,0-1.578,1.4v.344h1.664V-6.8h-1.664V0Zm7.32,0H-22.3V-8.453h2.266Zm5.383-1.664a1.481,1.481,0,0,0,1.016-.344,1.2,1.2,0,0,0,.406-.914h2.117a2.9,2.9,0,0,1-.469,1.574A3.093,3.093,0,0,1-12.848-.238a3.949,3.949,0,0,1-1.77.395A3.67,3.67,0,0,1-17.477-1,4.56,4.56,0,0,1-18.523-4.18v-.148a4.508,4.508,0,0,1,1.039-3.117,3.627,3.627,0,0,1,2.852-1.164,3.555,3.555,0,0,1,2.543.9,3.2,3.2,0,0,1,.973,2.4h-2.117a1.551,1.551,0,0,0-.406-1.072,1.354,1.354,0,0,0-1.031-.412,1.36,1.36,0,0,0-1.191.575,3.333,3.333,0,0,0-.4,1.866v.235a3.375,3.375,0,0,0,.4,1.878A1.377,1.377,0,0,0-14.656-1.664ZM-4.93,0a2.507,2.507,0,0,1-.227-.758A2.732,2.732,0,0,1-7.289.156,3,3,0,0,1-9.348-.562a2.312,2.312,0,0,1-.816-1.812,2.389,2.389,0,0,1,1-2.062,4.915,4.915,0,0,1,2.879-.727H-5.25v-.484a1.393,1.393,0,0,0-.3-.937A1.183,1.183,0,0,0-6.5-6.937a1.345,1.345,0,0,0-.895.273.929.929,0,0,0-.324.75H-9.977a2.268,2.268,0,0,1,.453-1.359,3,3,0,0,1,1.281-.98,4.669,4.669,0,0,1,1.859-.355,3.689,3.689,0,0,1,2.48.785,2.747,2.747,0,0,1,.918,2.207v3.664a4.041,4.041,0,0,0,.336,1.82V0ZM-6.8-1.57a1.945,1.945,0,0,0,.922-.223,1.462,1.462,0,0,0,.625-.6V-3.844h-.844q-1.7,0-1.8,1.172l-.008.133a.9.9,0,0,0,.3.7A1.153,1.153,0,0,0-6.8-1.57ZM3.5-6.336A6.134,6.134,0,0,0,2.688-6.4a1.654,1.654,0,0,0-1.68.867V0H-1.25V-8.453H.883L.945-7.445A2.092,2.092,0,0,1,2.828-8.609a2.366,2.366,0,0,1,.7.1ZM12.461.156A4.15,4.15,0,0,1,9.434-.984,4.054,4.054,0,0,1,8.266-4.023v-.219A5.106,5.106,0,0,1,8.758-6.52a3.612,3.612,0,0,1,1.395-1.547,3.914,3.914,0,0,1,2.059-.543,3.508,3.508,0,0,1,2.73,1.094,4.444,4.444,0,0,1,1,3.1v.922H10.555a2.1,2.1,0,0,0,.66,1.328,2,2,0,0,0,1.395.5,2.437,2.437,0,0,0,2.039-.945l1.109,1.242A3.389,3.389,0,0,1,14.383-.246,4.511,4.511,0,0,1,12.461.156ZM12.2-6.789a1.411,1.411,0,0,0-1.09.455,2.357,2.357,0,0,0-.535,1.3h3.141v-.181a1.681,1.681,0,0,0-.406-1.165A1.456,1.456,0,0,0,12.2-6.789ZM19.6,0H17.336V-12H19.6ZM30.2-6.336a6.134,6.134,0,0,0-.812-.062,1.654,1.654,0,0,0-1.68.867V0H25.445V-8.453h2.133l.063,1.008a2.092,2.092,0,0,1,1.883-1.164,2.366,2.366,0,0,1,.7.1ZM33.664,0H31.4V-8.453h2.266Zm-2.4-10.641a1.112,1.112,0,0,1,.34-.836,1.277,1.277,0,0,1,.926-.328,1.28,1.28,0,0,1,.922.328,1.105,1.105,0,0,1,.344.836,1.108,1.108,0,0,1-.348.844,1.283,1.283,0,0,1-.918.328,1.283,1.283,0,0,1-.918-.328A1.108,1.108,0,0,1,31.266-10.641ZM39.414.156A4.15,4.15,0,0,1,36.387-.984a4.054,4.054,0,0,1-1.168-3.039v-.219a5.106,5.106,0,0,1,.492-2.277,3.612,3.612,0,0,1,1.395-1.547,3.914,3.914,0,0,1,2.059-.543,3.508,3.508,0,0,1,2.73,1.094,4.444,4.444,0,0,1,1,3.1v.922H37.508a2.1,2.1,0,0,0,.66,1.328,2,2,0,0,0,1.395.5A2.437,2.437,0,0,0,41.6-2.609l1.109,1.242A3.389,3.389,0,0,1,41.336-.246,4.511,4.511,0,0,1,39.414.156Zm-.258-6.945a1.411,1.411,0,0,0-1.09.455,2.357,2.357,0,0,0-.535,1.3h3.141v-.181a1.681,1.681,0,0,0-.406-1.165A1.456,1.456,0,0,0,39.156-6.789ZM48.75-2.336a.727.727,0,0,0-.41-.652,4.659,4.659,0,0,0-1.316-.426q-3.016-.633-3.016-2.562a2.323,2.323,0,0,1,.934-1.879,3.766,3.766,0,0,1,2.441-.754,4.053,4.053,0,0,1,2.574.758,2.388,2.388,0,0,1,.965,1.969H48.664a1.092,1.092,0,0,0-.312-.8A1.322,1.322,0,0,0,47.375-7a1.351,1.351,0,0,0-.883.258.814.814,0,0,0-.312.656.7.7,0,0,0,.355.605,3.657,3.657,0,0,0,1.2.4,9.8,9.8,0,0,1,1.422.379A2.336,2.336,0,0,1,50.945-2.43a2.2,2.2,0,0,1-.992,1.871,4.28,4.28,0,0,1-2.562.715A4.47,4.47,0,0,1,45.5-.223a3.166,3.166,0,0,1-1.293-1.039,2.414,2.414,0,0,1-.469-1.426h2.141a1.179,1.179,0,0,0,.445.922,1.766,1.766,0,0,0,1.109.32,1.635,1.635,0,0,0,.98-.246A.766.766,0,0,0,48.75-2.336Zm3.32-1.953A4.954,4.954,0,0,1,53-7.422a3,3,0,0,1,2.5-1.187,2.631,2.631,0,0,1,2.164.953l.094-.8H59.8V-.281a3.613,3.613,0,0,1-.5,1.93A3.236,3.236,0,0,1,57.875,2.9a4.985,4.985,0,0,1-2.141.43,4.635,4.635,0,0,1-1.812-.371A3.217,3.217,0,0,1,52.586,2l1-1.375a2.645,2.645,0,0,0,2.047.945,1.936,1.936,0,0,0,1.4-.48,1.8,1.8,0,0,0,.5-1.363V-.727a2.612,2.612,0,0,1-2.055.883,2.992,2.992,0,0,1-2.465-1.191A4.953,4.953,0,0,1,52.07-4.2Zm2.258.161a3.1,3.1,0,0,0,.461,1.809,1.465,1.465,0,0,0,1.266.655,1.567,1.567,0,0,0,1.477-.777V-6.012a1.563,1.563,0,0,0-1.461-.777,1.474,1.474,0,0,0-1.277.667A3.5,3.5,0,0,0,54.328-4.128ZM61.18-4.3a5.013,5.013,0,0,1,.484-2.242A3.546,3.546,0,0,1,63.059-8.07a4.069,4.069,0,0,1,2.113-.539,3.849,3.849,0,0,1,2.793,1.047,4.2,4.2,0,0,1,1.207,2.844l.016.578A4.418,4.418,0,0,1,68.1-1.02,3.775,3.775,0,0,1,65.188.156,3.793,3.793,0,0,1,62.27-1.016,4.5,4.5,0,0,1,61.18-4.2Zm2.258.16A3.16,3.16,0,0,0,63.891-2.3a1.5,1.5,0,0,0,1.3.638,1.5,1.5,0,0,0,1.281-.63,3.457,3.457,0,0,0,.461-2.015,3.128,3.128,0,0,0-.461-1.831,1.5,1.5,0,0,0-1.3-.649,1.474,1.474,0,0,0-1.281.646A3.516,3.516,0,0,0,63.438-4.144Z" transform="translate(1218 961)" fill="#12263f"/>
    <path id="Trazado_171571" data-name="Trazado 171571" d="M-50.719-2.344h-4.109L-55.609,0H-58.1l4.234-11.375H-51.7L-47.437,0H-49.93Zm-3.477-1.9h2.844L-52.781-8.5Zm9.375-4.211.07.977a2.951,2.951,0,0,1,2.43-1.133,2.453,2.453,0,0,1,2,.789,3.682,3.682,0,0,1,.672,2.359V0h-2.258V-5.419a1.47,1.47,0,0,0-.312-1.045,1.4,1.4,0,0,0-1.039-.325,1.553,1.553,0,0,0-1.43.814V0h-2.258V-8.453ZM-33.039,0a2.507,2.507,0,0,1-.227-.758A2.732,2.732,0,0,1-35.4.156a3,3,0,0,1-2.059-.719,2.312,2.312,0,0,1-.816-1.812,2.389,2.389,0,0,1,1-2.062A4.915,4.915,0,0,1-34.4-5.164h1.039v-.484a1.393,1.393,0,0,0-.3-.937,1.183,1.183,0,0,0-.949-.352,1.345,1.345,0,0,0-.895.273.929.929,0,0,0-.324.75h-2.258a2.268,2.268,0,0,1,.453-1.359,3,3,0,0,1,1.281-.98,4.669,4.669,0,0,1,1.859-.355,3.689,3.689,0,0,1,2.48.785,2.747,2.747,0,0,1,.918,2.207v3.664a4.041,4.041,0,0,0,.336,1.82V0Zm-1.867-1.57a1.945,1.945,0,0,0,.922-.223,1.462,1.462,0,0,0,.625-.6V-3.844H-34.2q-1.7,0-1.8,1.172l-.008.133a.9.9,0,0,0,.3.7A1.153,1.153,0,0,0-34.906-1.57ZM-26.977,0h-2.266V-12h2.266Zm4.242,0H-25V-8.453h2.266Zm-2.4-10.641a1.112,1.112,0,0,1,.34-.836,1.277,1.277,0,0,1,.926-.328,1.28,1.28,0,0,1,.922.328,1.105,1.105,0,0,1,.344.836,1.108,1.108,0,0,1-.348.844,1.283,1.283,0,0,1-.918.328,1.283,1.283,0,0,1-.918-.328A1.108,1.108,0,0,1-25.133-10.641Zm6.852,8.82h4.133V0h-7.016V-1.375l3.977-5.258h-3.859v-1.82h6.773v1.33ZM-7.836,0a2.507,2.507,0,0,1-.227-.758A2.732,2.732,0,0,1-10.2.156a3,3,0,0,1-2.059-.719,2.312,2.312,0,0,1-.816-1.812,2.389,2.389,0,0,1,1-2.062A4.915,4.915,0,0,1-9.2-5.164h1.039v-.484a1.393,1.393,0,0,0-.3-.937,1.183,1.183,0,0,0-.949-.352,1.345,1.345,0,0,0-.895.273.929.929,0,0,0-.324.75h-2.258a2.268,2.268,0,0,1,.453-1.359,3,3,0,0,1,1.281-.98,4.669,4.669,0,0,1,1.859-.355,3.689,3.689,0,0,1,2.48.785,2.747,2.747,0,0,1,.918,2.207v3.664a4.041,4.041,0,0,0,.336,1.82V0ZM-9.7-1.57a1.945,1.945,0,0,0,.922-.223,1.462,1.462,0,0,0,.625-.6V-3.844H-9q-1.7,0-1.8,1.172l-.008.133a.9.9,0,0,0,.3.7A1.153,1.153,0,0,0-9.7-1.57ZM.594-6.336A6.134,6.134,0,0,0-.219-6.4a1.654,1.654,0,0,0-1.68.867V0H-4.156V-8.453h2.133l.063,1.008A2.092,2.092,0,0,1-.078-8.609a2.366,2.366,0,0,1,.7.1Zm9.82,0A6.134,6.134,0,0,0,9.6-6.4a1.654,1.654,0,0,0-1.68.867V0H5.664V-8.453H7.8l.063,1.008A2.092,2.092,0,0,1,9.742-8.609a2.366,2.366,0,0,1,.7.1ZM13.883,0H11.617V-8.453h2.266Zm-2.4-10.641a1.112,1.112,0,0,1,.34-.836,1.277,1.277,0,0,1,.926-.328,1.28,1.28,0,0,1,.922.328,1.105,1.105,0,0,1,.344.836,1.108,1.108,0,0,1-.348.844,1.283,1.283,0,0,1-.918.328,1.283,1.283,0,0,1-.918-.328A1.108,1.108,0,0,1,11.484-10.641ZM19.633.156A4.15,4.15,0,0,1,16.605-.984a4.054,4.054,0,0,1-1.168-3.039v-.219A5.106,5.106,0,0,1,15.93-6.52a3.612,3.612,0,0,1,1.395-1.547,3.914,3.914,0,0,1,2.059-.543,3.508,3.508,0,0,1,2.73,1.094,4.444,4.444,0,0,1,1,3.1v.922H17.727a2.1,2.1,0,0,0,.66,1.328,2,2,0,0,0,1.395.5,2.437,2.437,0,0,0,2.039-.945L22.93-1.367A3.389,3.389,0,0,1,21.555-.246,4.511,4.511,0,0,1,19.633.156Zm-.258-6.945a1.411,1.411,0,0,0-1.09.455,2.357,2.357,0,0,0-.535,1.3h3.141v-.181a1.681,1.681,0,0,0-.406-1.165A1.456,1.456,0,0,0,19.375-6.789Zm9.594,4.453a.727.727,0,0,0-.41-.652,4.659,4.659,0,0,0-1.316-.426q-3.016-.633-3.016-2.562a2.323,2.323,0,0,1,.934-1.879A3.766,3.766,0,0,1,27.6-8.609a4.053,4.053,0,0,1,2.574.758,2.388,2.388,0,0,1,.965,1.969H28.883a1.092,1.092,0,0,0-.312-.8A1.322,1.322,0,0,0,27.594-7a1.351,1.351,0,0,0-.883.258.814.814,0,0,0-.312.656.7.7,0,0,0,.355.605,3.657,3.657,0,0,0,1.2.4,9.8,9.8,0,0,1,1.422.379A2.336,2.336,0,0,1,31.164-2.43a2.2,2.2,0,0,1-.992,1.871,4.28,4.28,0,0,1-2.562.715,4.47,4.47,0,0,1-1.887-.379A3.166,3.166,0,0,1,24.43-1.262a2.414,2.414,0,0,1-.469-1.426H26.1a1.179,1.179,0,0,0,.445.922,1.766,1.766,0,0,0,1.109.32,1.635,1.635,0,0,0,.98-.246A.766.766,0,0,0,28.969-2.336Zm3.32-1.953a4.954,4.954,0,0,1,.926-3.133,3,3,0,0,1,2.5-1.187,2.631,2.631,0,0,1,2.164.953l.094-.8h2.047V-.281a3.613,3.613,0,0,1-.5,1.93A3.236,3.236,0,0,1,38.094,2.9a4.985,4.985,0,0,1-2.141.43,4.635,4.635,0,0,1-1.812-.371A3.217,3.217,0,0,1,32.8,2l1-1.375a2.645,2.645,0,0,0,2.047.945,1.936,1.936,0,0,0,1.4-.48,1.8,1.8,0,0,0,.5-1.363V-.727A2.612,2.612,0,0,1,35.7.156,2.992,2.992,0,0,1,33.23-1.035a4.953,4.953,0,0,1-.941-3.16Zm2.258.161a3.1,3.1,0,0,0,.461,1.809,1.465,1.465,0,0,0,1.266.655,1.567,1.567,0,0,0,1.477-.777V-6.012a1.563,1.563,0,0,0-1.461-.777,1.474,1.474,0,0,0-1.277.667A3.5,3.5,0,0,0,34.547-4.128ZM41.4-4.3a5.013,5.013,0,0,1,.484-2.242A3.546,3.546,0,0,1,43.277-8.07a4.069,4.069,0,0,1,2.113-.539,3.849,3.849,0,0,1,2.793,1.047,4.2,4.2,0,0,1,1.207,2.844l.016.578A4.418,4.418,0,0,1,48.32-1.02,3.775,3.775,0,0,1,45.406.156a3.793,3.793,0,0,1-2.918-1.172A4.5,4.5,0,0,1,41.4-4.2Zm2.258.16A3.16,3.16,0,0,0,44.109-2.3a1.5,1.5,0,0,0,1.3.638,1.5,1.5,0,0,0,1.281-.63,3.457,3.457,0,0,0,.461-2.015,3.128,3.128,0,0,0-.461-1.831,1.5,1.5,0,0,0-1.3-.649,1.474,1.474,0,0,0-1.281.646A3.516,3.516,0,0,0,43.656-4.144ZM55.375-2.336a.727.727,0,0,0-.41-.652,4.659,4.659,0,0,0-1.316-.426q-3.016-.633-3.016-2.562a2.323,2.323,0,0,1,.934-1.879,3.766,3.766,0,0,1,2.441-.754,4.053,4.053,0,0,1,2.574.758,2.388,2.388,0,0,1,.965,1.969H55.289a1.092,1.092,0,0,0-.312-.8A1.322,1.322,0,0,0,54-7a1.351,1.351,0,0,0-.883.258.814.814,0,0,0-.312.656.7.7,0,0,0,.355.605,3.657,3.657,0,0,0,1.2.4,9.8,9.8,0,0,1,1.422.379A2.336,2.336,0,0,1,57.57-2.43a2.2,2.2,0,0,1-.992,1.871,4.28,4.28,0,0,1-2.562.715,4.47,4.47,0,0,1-1.887-.379,3.166,3.166,0,0,1-1.293-1.039,2.414,2.414,0,0,1-.469-1.426h2.141a1.179,1.179,0,0,0,.445.922,1.766,1.766,0,0,0,1.109.32,1.635,1.635,0,0,0,.98-.246A.766.766,0,0,0,55.375-2.336Z" transform="translate(1218 1015)" fill="#12263f"/>
    <path id="Trazado_171572" data-name="Trazado 171572" d="M-47.289-4.945h-4.5v3.063h5.281V0h-7.625V-11.375h7.609v1.9h-5.266v2.711h4.5Zm4.969,2.188,1.57-5.7h2.359L-41.242,0H-43.4L-46.25-8.453h2.359ZM-32.617,0a2.507,2.507,0,0,1-.227-.758,2.732,2.732,0,0,1-2.133.914,3,3,0,0,1-2.059-.719,2.312,2.312,0,0,1-.816-1.812,2.389,2.389,0,0,1,1-2.062,4.915,4.915,0,0,1,2.879-.727h1.039v-.484a1.393,1.393,0,0,0-.3-.937,1.183,1.183,0,0,0-.949-.352,1.345,1.345,0,0,0-.895.273.929.929,0,0,0-.324.75h-2.258a2.268,2.268,0,0,1,.453-1.359,3,3,0,0,1,1.281-.98,4.669,4.669,0,0,1,1.859-.355,3.689,3.689,0,0,1,2.48.785,2.747,2.747,0,0,1,.918,2.207v3.664a4.041,4.041,0,0,0,.336,1.82V0Zm-1.867-1.57a1.945,1.945,0,0,0,.922-.223,1.462,1.462,0,0,0,.625-.6V-3.844h-.844q-1.7,0-1.8,1.172l-.008.133a.9.9,0,0,0,.3.7A1.153,1.153,0,0,0-34.484-1.57ZM-26.555,0H-28.82V-12h2.266Zm6.922-.859A2.831,2.831,0,0,1-21.945.156,2.67,2.67,0,0,1-24.02-.625a3.335,3.335,0,0,1-.73-2.289V-8.453h2.258v5.467q0,1.322,1.2,1.322a1.63,1.63,0,0,0,1.578-.8V-8.453h2.266V0H-19.57ZM-10.844,0a2.507,2.507,0,0,1-.227-.758A2.732,2.732,0,0,1-13.2.156a3,3,0,0,1-2.059-.719,2.312,2.312,0,0,1-.816-1.812,2.389,2.389,0,0,1,1-2.062A4.915,4.915,0,0,1-12.2-5.164h1.039v-.484a1.393,1.393,0,0,0-.3-.937,1.183,1.183,0,0,0-.949-.352,1.345,1.345,0,0,0-.895.273.929.929,0,0,0-.324.75h-2.258a2.268,2.268,0,0,1,.453-1.359,3,3,0,0,1,1.281-.98A4.669,4.669,0,0,1-12.3-8.609a3.689,3.689,0,0,1,2.48.785A2.747,2.747,0,0,1-8.9-5.617v3.664a4.041,4.041,0,0,0,.336,1.82V0Zm-1.867-1.57a1.945,1.945,0,0,0,.922-.223,1.462,1.462,0,0,0,.625-.6V-3.844h-.844q-1.7,0-1.8,1.172l-.008.133a.9.9,0,0,0,.3.7A1.153,1.153,0,0,0-12.711-1.57Zm10.3-4.766A6.134,6.134,0,0,0-3.227-6.4a1.654,1.654,0,0,0-1.68.867V0H-7.164V-8.453h2.133l.063,1.008A2.092,2.092,0,0,1-3.086-8.609a2.366,2.366,0,0,1,.7.1Zm9.82,0A6.134,6.134,0,0,0,6.594-6.4a1.654,1.654,0,0,0-1.68.867V0H2.656V-8.453H4.789l.063,1.008A2.092,2.092,0,0,1,6.734-8.609a2.366,2.366,0,0,1,.7.1ZM10.875,0H8.609V-8.453h2.266Zm-2.4-10.641a1.112,1.112,0,0,1,.34-.836,1.277,1.277,0,0,1,.926-.328,1.28,1.28,0,0,1,.922.328,1.105,1.105,0,0,1,.344.836,1.108,1.108,0,0,1-.348.844,1.283,1.283,0,0,1-.918.328A1.283,1.283,0,0,1,8.824-9.8,1.108,1.108,0,0,1,8.477-10.641ZM16.625.156A4.15,4.15,0,0,1,13.6-.984,4.054,4.054,0,0,1,12.43-4.023v-.219a5.106,5.106,0,0,1,.492-2.277,3.612,3.612,0,0,1,1.395-1.547,3.914,3.914,0,0,1,2.059-.543,3.508,3.508,0,0,1,2.73,1.094,4.444,4.444,0,0,1,1,3.1v.922H14.719a2.1,2.1,0,0,0,.66,1.328,2,2,0,0,0,1.395.5,2.437,2.437,0,0,0,2.039-.945l1.109,1.242A3.389,3.389,0,0,1,18.547-.246,4.511,4.511,0,0,1,16.625.156Zm-.258-6.945a1.411,1.411,0,0,0-1.09.455,2.357,2.357,0,0,0-.535,1.3h3.141v-.181a1.681,1.681,0,0,0-.406-1.165A1.456,1.456,0,0,0,16.367-6.789Zm9.594,4.453a.727.727,0,0,0-.41-.652,4.659,4.659,0,0,0-1.316-.426q-3.016-.633-3.016-2.562a2.323,2.323,0,0,1,.934-1.879,3.766,3.766,0,0,1,2.441-.754,4.053,4.053,0,0,1,2.574.758,2.388,2.388,0,0,1,.965,1.969H25.875a1.092,1.092,0,0,0-.312-.8A1.322,1.322,0,0,0,24.586-7a1.351,1.351,0,0,0-.883.258.814.814,0,0,0-.312.656.7.7,0,0,0,.355.605,3.657,3.657,0,0,0,1.2.4,9.8,9.8,0,0,1,1.422.379A2.336,2.336,0,0,1,28.156-2.43a2.2,2.2,0,0,1-.992,1.871A4.28,4.28,0,0,1,24.6.156a4.47,4.47,0,0,1-1.887-.379,3.166,3.166,0,0,1-1.293-1.039,2.414,2.414,0,0,1-.469-1.426h2.141a1.179,1.179,0,0,0,.445.922,1.766,1.766,0,0,0,1.109.32,1.635,1.635,0,0,0,.98-.246A.766.766,0,0,0,25.961-2.336Zm3.32-1.953a4.954,4.954,0,0,1,.926-3.133,3,3,0,0,1,2.5-1.187,2.631,2.631,0,0,1,2.164.953l.094-.8h2.047V-.281a3.613,3.613,0,0,1-.5,1.93A3.236,3.236,0,0,1,35.086,2.9a4.985,4.985,0,0,1-2.141.43,4.635,4.635,0,0,1-1.812-.371A3.217,3.217,0,0,1,29.8,2l1-1.375a2.645,2.645,0,0,0,2.047.945,1.936,1.936,0,0,0,1.4-.48,1.8,1.8,0,0,0,.5-1.363V-.727a2.612,2.612,0,0,1-2.055.883,2.992,2.992,0,0,1-2.465-1.191,4.953,4.953,0,0,1-.941-3.16Zm2.258.161A3.1,3.1,0,0,0,32-2.319a1.465,1.465,0,0,0,1.266.655,1.567,1.567,0,0,0,1.477-.777V-6.012a1.563,1.563,0,0,0-1.461-.777A1.474,1.474,0,0,0,32-6.122,3.5,3.5,0,0,0,31.539-4.128ZM38.391-4.3a5.013,5.013,0,0,1,.484-2.242A3.546,3.546,0,0,1,40.27-8.07a4.069,4.069,0,0,1,2.113-.539,3.849,3.849,0,0,1,2.793,1.047,4.2,4.2,0,0,1,1.207,2.844l.016.578A4.418,4.418,0,0,1,45.313-1.02,3.775,3.775,0,0,1,42.4.156,3.793,3.793,0,0,1,39.48-1.016,4.5,4.5,0,0,1,38.391-4.2Zm2.258.16A3.16,3.16,0,0,0,41.1-2.3a1.5,1.5,0,0,0,1.3.638,1.5,1.5,0,0,0,1.281-.63,3.457,3.457,0,0,0,.461-2.015A3.128,3.128,0,0,0,43.68-6.14a1.5,1.5,0,0,0-1.3-.649,1.474,1.474,0,0,0-1.281.646A3.516,3.516,0,0,0,40.648-4.144ZM52.367-2.336a.727.727,0,0,0-.41-.652,4.659,4.659,0,0,0-1.316-.426q-3.016-.633-3.016-2.562a2.323,2.323,0,0,1,.934-1.879A3.766,3.766,0,0,1,51-8.609a4.053,4.053,0,0,1,2.574.758,2.388,2.388,0,0,1,.965,1.969H52.281a1.092,1.092,0,0,0-.312-.8A1.322,1.322,0,0,0,50.992-7a1.351,1.351,0,0,0-.883.258.814.814,0,0,0-.312.656.7.7,0,0,0,.355.605,3.657,3.657,0,0,0,1.2.4,9.8,9.8,0,0,1,1.422.379A2.336,2.336,0,0,1,54.563-2.43,2.2,2.2,0,0,1,53.57-.559a4.28,4.28,0,0,1-2.562.715,4.47,4.47,0,0,1-1.887-.379,3.166,3.166,0,0,1-1.293-1.039,2.414,2.414,0,0,1-.469-1.426H49.5a1.179,1.179,0,0,0,.445.922,1.766,1.766,0,0,0,1.109.32,1.635,1.635,0,0,0,.98-.246A.766.766,0,0,0,52.367-2.336Z" transform="translate(1218 1069)" fill="#12263f"/>
    <path id="Trazado_171567" data-name="Trazado 171567" d="M-45.113-9.477H-48.6V0h-2.344V-9.477h-3.437v-1.9h9.266Zm5.43,3.141A6.134,6.134,0,0,0-40.5-6.4a1.654,1.654,0,0,0-1.68.867V0h-2.258V-8.453H-42.3l.063,1.008a2.092,2.092,0,0,1,1.883-1.164,2.366,2.366,0,0,1,.7.1ZM-33.934,0a2.507,2.507,0,0,1-.227-.758,2.732,2.732,0,0,1-2.133.914,3,3,0,0,1-2.059-.719,2.312,2.312,0,0,1-.816-1.812,2.389,2.389,0,0,1,1-2.062,4.915,4.915,0,0,1,2.879-.727h1.039v-.484a1.393,1.393,0,0,0-.3-.937,1.183,1.183,0,0,0-.949-.352,1.345,1.345,0,0,0-.895.273.929.929,0,0,0-.324.75H-38.98a2.268,2.268,0,0,1,.453-1.359,3,3,0,0,1,1.281-.98,4.669,4.669,0,0,1,1.859-.355,3.689,3.689,0,0,1,2.48.785,2.747,2.747,0,0,1,.918,2.207v3.664a4.041,4.041,0,0,0,.336,1.82V0ZM-35.8-1.57a1.945,1.945,0,0,0,.922-.223,1.462,1.462,0,0,0,.625-.6V-3.844H-35.1q-1.7,0-1.8,1.172l-.008.133a.9.9,0,0,0,.3.7A1.153,1.153,0,0,0-35.8-1.57Zm8.25-8.961v2.078h1.445V-6.8h-1.445v4.219a1.007,1.007,0,0,0,.18.672.9.9,0,0,0,.688.2,3.6,3.6,0,0,0,.664-.055V-.047a4.648,4.648,0,0,1-1.367.2,2.156,2.156,0,0,1-2.422-2.4V-6.8h-1.234V-8.453h1.234v-2.078ZM-19.949,0a2.507,2.507,0,0,1-.227-.758,2.732,2.732,0,0,1-2.133.914,3,3,0,0,1-2.059-.719,2.312,2.312,0,0,1-.816-1.812,2.389,2.389,0,0,1,1-2.062,4.915,4.915,0,0,1,2.879-.727h1.039v-.484a1.393,1.393,0,0,0-.3-.937,1.183,1.183,0,0,0-.949-.352,1.345,1.345,0,0,0-.895.273.929.929,0,0,0-.324.75H-25a2.268,2.268,0,0,1,.453-1.359,3,3,0,0,1,1.281-.98A4.669,4.669,0,0,1-21.4-8.609a3.689,3.689,0,0,1,2.48.785A2.747,2.747,0,0,1-18-5.617v3.664a4.041,4.041,0,0,0,.336,1.82V0Zm-1.867-1.57a1.945,1.945,0,0,0,.922-.223,1.462,1.462,0,0,0,.625-.6V-3.844h-.844q-1.7,0-1.8,1.172l-.008.133a.9.9,0,0,0,.3.7A1.153,1.153,0,0,0-21.816-1.57Zm10.3-4.766a6.134,6.134,0,0,0-.812-.062,1.654,1.654,0,0,0-1.68.867V0H-16.27V-8.453h2.133l.063,1.008a2.092,2.092,0,0,1,1.883-1.164,2.366,2.366,0,0,1,.7.1ZM-2.559.156A4.15,4.15,0,0,1-5.586-.984,4.054,4.054,0,0,1-6.754-4.023v-.219A5.106,5.106,0,0,1-6.262-6.52,3.612,3.612,0,0,1-4.867-8.066a3.914,3.914,0,0,1,2.059-.543A3.508,3.508,0,0,1-.078-7.516a4.444,4.444,0,0,1,1,3.1v.922H-4.465A2.1,2.1,0,0,0-3.8-2.164a2,2,0,0,0,1.395.5A2.437,2.437,0,0,0-.371-2.609L.738-1.367A3.389,3.389,0,0,1-.637-.246,4.511,4.511,0,0,1-2.559.156Zm-.258-6.945a1.411,1.411,0,0,0-1.09.455,2.357,2.357,0,0,0-.535,1.3H-1.3v-.181a1.681,1.681,0,0,0-.406-1.165A1.456,1.456,0,0,0-2.816-6.789ZM4.582,0H2.316V-12H4.582ZM15.176-6.336a6.134,6.134,0,0,0-.812-.062,1.654,1.654,0,0,0-1.68.867V0H10.426V-8.453h2.133l.063,1.008A2.092,2.092,0,0,1,14.5-8.609a2.366,2.366,0,0,1,.7.1ZM18.645,0H16.379V-8.453h2.266Zm-2.4-10.641a1.112,1.112,0,0,1,.34-.836,1.277,1.277,0,0,1,.926-.328,1.28,1.28,0,0,1,.922.328,1.105,1.105,0,0,1,.344.836,1.108,1.108,0,0,1-.348.844,1.283,1.283,0,0,1-.918.328,1.283,1.283,0,0,1-.918-.328A1.108,1.108,0,0,1,16.246-10.641ZM24.395.156A4.15,4.15,0,0,1,21.367-.984,4.054,4.054,0,0,1,20.2-4.023v-.219a5.106,5.106,0,0,1,.492-2.277,3.612,3.612,0,0,1,1.395-1.547,3.914,3.914,0,0,1,2.059-.543,3.508,3.508,0,0,1,2.73,1.094,4.444,4.444,0,0,1,1,3.1v.922H22.488a2.1,2.1,0,0,0,.66,1.328,2,2,0,0,0,1.395.5,2.437,2.437,0,0,0,2.039-.945l1.109,1.242A3.389,3.389,0,0,1,26.316-.246,4.511,4.511,0,0,1,24.395.156Zm-.258-6.945a1.411,1.411,0,0,0-1.09.455,2.357,2.357,0,0,0-.535,1.3h3.141v-.181a1.681,1.681,0,0,0-.406-1.165A1.456,1.456,0,0,0,24.137-6.789ZM33.73-2.336a.727.727,0,0,0-.41-.652A4.659,4.659,0,0,0,32-3.414q-3.016-.633-3.016-2.562a2.323,2.323,0,0,1,.934-1.879,3.766,3.766,0,0,1,2.441-.754,4.053,4.053,0,0,1,2.574.758A2.388,2.388,0,0,1,35.9-5.883H33.645a1.092,1.092,0,0,0-.312-.8A1.322,1.322,0,0,0,32.355-7a1.351,1.351,0,0,0-.883.258.814.814,0,0,0-.312.656.7.7,0,0,0,.355.605,3.657,3.657,0,0,0,1.2.4,9.8,9.8,0,0,1,1.422.379A2.336,2.336,0,0,1,35.926-2.43a2.2,2.2,0,0,1-.992,1.871,4.28,4.28,0,0,1-2.562.715,4.47,4.47,0,0,1-1.887-.379,3.166,3.166,0,0,1-1.293-1.039,2.414,2.414,0,0,1-.469-1.426h2.141a1.179,1.179,0,0,0,.445.922,1.766,1.766,0,0,0,1.109.32,1.635,1.635,0,0,0,.98-.246A.766.766,0,0,0,33.73-2.336Zm3.32-1.953a4.954,4.954,0,0,1,.926-3.133,3,3,0,0,1,2.5-1.187,2.631,2.631,0,0,1,2.164.953l.094-.8h2.047V-.281a3.613,3.613,0,0,1-.5,1.93A3.236,3.236,0,0,1,42.855,2.9a4.985,4.985,0,0,1-2.141.43A4.635,4.635,0,0,1,38.9,2.957,3.217,3.217,0,0,1,37.566,2l1-1.375a2.645,2.645,0,0,0,2.047.945,1.936,1.936,0,0,0,1.4-.48,1.8,1.8,0,0,0,.5-1.363V-.727a2.612,2.612,0,0,1-2.055.883,2.992,2.992,0,0,1-2.465-1.191,4.953,4.953,0,0,1-.941-3.16Zm2.258.161a3.1,3.1,0,0,0,.461,1.809,1.465,1.465,0,0,0,1.266.655,1.567,1.567,0,0,0,1.477-.777V-6.012a1.563,1.563,0,0,0-1.461-.777,1.474,1.474,0,0,0-1.277.667A3.5,3.5,0,0,0,39.309-4.128ZM46.16-4.3a5.013,5.013,0,0,1,.484-2.242A3.546,3.546,0,0,1,48.039-8.07a4.069,4.069,0,0,1,2.113-.539,3.849,3.849,0,0,1,2.793,1.047,4.2,4.2,0,0,1,1.207,2.844l.016.578A4.418,4.418,0,0,1,53.082-1.02,3.775,3.775,0,0,1,50.168.156,3.793,3.793,0,0,1,47.25-1.016,4.5,4.5,0,0,1,46.16-4.2Zm2.258.16A3.16,3.16,0,0,0,48.871-2.3a1.5,1.5,0,0,0,1.3.638,1.5,1.5,0,0,0,1.281-.63,3.457,3.457,0,0,0,.461-2.015,3.128,3.128,0,0,0-.461-1.831,1.5,1.5,0,0,0-1.3-.649,1.474,1.474,0,0,0-1.281.646A3.516,3.516,0,0,0,48.418-4.144Z" transform="translate(1218 1123)" fill="#12263f"/>
    <path id="Trazado_171573" data-name="Trazado 171573" d="M10,0H156a10,10,0,0,1,10,10V26a10,10,0,0,1-10,10H10A10,10,0,0,1,0,26V10A10,10,0,0,1,10,0Z" transform="translate(915 866)" fill="#43a047"/>
    <path id="Trazado_171574" data-name="Trazado 171574" d="M-68.141-11.375l2.922,8.25,2.906-8.25h3.078V0h-2.352V-3.109l.234-5.367L-64.422,0h-1.609l-3.062-8.469.234,5.359V0H-71.2V-11.375ZM-57.687-4.3A5.013,5.013,0,0,1-57.2-6.547,3.546,3.546,0,0,1-55.809-8.07,4.069,4.069,0,0,1-53.7-8.609,3.849,3.849,0,0,1-50.9-7.562,4.2,4.2,0,0,1-49.7-4.719l.016.578A4.418,4.418,0,0,1-50.766-1.02,3.775,3.775,0,0,1-53.68.156,3.793,3.793,0,0,1-56.6-1.016,4.5,4.5,0,0,1-57.687-4.2Zm2.258.16A3.16,3.16,0,0,0-54.977-2.3a1.5,1.5,0,0,0,1.3.638,1.5,1.5,0,0,0,1.281-.63,3.457,3.457,0,0,0,.461-2.015A3.128,3.128,0,0,0-52.4-6.14a1.5,1.5,0,0,0-1.3-.649,1.474,1.474,0,0,0-1.281.646A3.516,3.516,0,0,0-55.43-4.144Zm9.219-4.309.07.977a2.951,2.951,0,0,1,2.43-1.133,2.453,2.453,0,0,1,2,.789,3.682,3.682,0,0,1,.672,2.359V0H-43.3V-5.419a1.47,1.47,0,0,0-.312-1.045,1.4,1.4,0,0,0-1.039-.325,1.553,1.553,0,0,0-1.43.814V0h-2.258V-8.453ZM-36.945,0h-2.266V-8.453h2.266Zm-2.4-10.641a1.112,1.112,0,0,1,.34-.836,1.277,1.277,0,0,1,.926-.328,1.28,1.28,0,0,1,.922.328,1.105,1.105,0,0,1,.344.836,1.108,1.108,0,0,1-.348.844,1.283,1.283,0,0,1-.918.328A1.283,1.283,0,0,1-39-9.8,1.108,1.108,0,0,1-39.344-10.641Zm6.961.109v2.078h1.445V-6.8h-1.445v4.219a1.007,1.007,0,0,0,.18.672.9.9,0,0,0,.688.2,3.6,3.6,0,0,0,.664-.055V-.047a4.648,4.648,0,0,1-1.367.2,2.156,2.156,0,0,1-2.422-2.4V-6.8h-1.234V-8.453h1.234v-2.078ZM-30.266-4.3a5.013,5.013,0,0,1,.484-2.242A3.546,3.546,0,0,1-28.387-8.07a4.069,4.069,0,0,1,2.113-.539A3.849,3.849,0,0,1-23.48-7.562a4.2,4.2,0,0,1,1.207,2.844l.016.578A4.418,4.418,0,0,1-23.344-1.02,3.775,3.775,0,0,1-26.258.156a3.793,3.793,0,0,1-2.918-1.172A4.5,4.5,0,0,1-30.266-4.2Zm2.258.16A3.16,3.16,0,0,0-27.555-2.3a1.5,1.5,0,0,0,1.3.638,1.5,1.5,0,0,0,1.281-.63,3.457,3.457,0,0,0,.461-2.015,3.128,3.128,0,0,0-.461-1.831,1.5,1.5,0,0,0-1.3-.649,1.474,1.474,0,0,0-1.281.646A3.516,3.516,0,0,0-28.008-4.144Zm11.891-2.192A6.134,6.134,0,0,0-16.93-6.4a1.654,1.654,0,0,0-1.68.867V0h-2.258V-8.453h2.133l.063,1.008a2.092,2.092,0,0,1,1.883-1.164,2.366,2.366,0,0,1,.7.1ZM-11.289.156A4.15,4.15,0,0,1-14.316-.984a4.054,4.054,0,0,1-1.168-3.039v-.219a5.106,5.106,0,0,1,.492-2.277A3.612,3.612,0,0,1-13.6-8.066a3.914,3.914,0,0,1,2.059-.543,3.508,3.508,0,0,1,2.73,1.094,4.444,4.444,0,0,1,1,3.1v.922H-13.2a2.1,2.1,0,0,0,.66,1.328,2,2,0,0,0,1.395.5A2.437,2.437,0,0,0-9.1-2.609l1.109,1.242A3.389,3.389,0,0,1-9.367-.246,4.511,4.511,0,0,1-11.289.156Zm-.258-6.945a1.411,1.411,0,0,0-1.09.455,2.357,2.357,0,0,0-.535,1.3h3.141v-.181a1.681,1.681,0,0,0-.406-1.165A1.456,1.456,0,0,0-11.547-6.789ZM-1.633,0a2.507,2.507,0,0,1-.227-.758A2.732,2.732,0,0,1-3.992.156,3,3,0,0,1-6.051-.562a2.312,2.312,0,0,1-.816-1.812,2.389,2.389,0,0,1,1-2.062,4.915,4.915,0,0,1,2.879-.727h1.039v-.484a1.393,1.393,0,0,0-.3-.937A1.183,1.183,0,0,0-3.2-6.937a1.345,1.345,0,0,0-.895.273.929.929,0,0,0-.324.75H-6.68a2.268,2.268,0,0,1,.453-1.359,3,3,0,0,1,1.281-.98,4.669,4.669,0,0,1,1.859-.355,3.689,3.689,0,0,1,2.48.785A2.747,2.747,0,0,1,.313-5.617v3.664A4.041,4.041,0,0,0,.648-.133V0ZM-3.5-1.57a1.945,1.945,0,0,0,.922-.223,1.462,1.462,0,0,0,.625-.6V-3.844H-2.8q-1.7,0-1.8,1.172l-.008.133a.9.9,0,0,0,.3.7A1.153,1.153,0,0,0-3.5-1.57ZM6.8-6.336A6.134,6.134,0,0,0,5.984-6.4a1.654,1.654,0,0,0-1.68.867V0H2.047V-8.453H4.18l.063,1.008A2.092,2.092,0,0,1,6.125-8.609a2.366,2.366,0,0,1,.7.1ZM15.023-3.2l1.563-5.258h2.422l-3.4,9.766-.187.445a2.577,2.577,0,0,1-2.5,1.656,3.552,3.552,0,0,1-1-.148V1.555l.344.008a1.857,1.857,0,0,0,.957-.2,1.283,1.283,0,0,0,.5-.648l.266-.7L11.023-8.453h2.43ZM28.633-6.336A6.134,6.134,0,0,0,27.82-6.4a1.654,1.654,0,0,0-1.68.867V0H23.883V-8.453h2.133l.063,1.008a2.092,2.092,0,0,1,1.883-1.164,2.366,2.366,0,0,1,.7.1ZM33.461.156A4.15,4.15,0,0,1,30.434-.984a4.054,4.054,0,0,1-1.168-3.039v-.219a5.106,5.106,0,0,1,.492-2.277,3.612,3.612,0,0,1,1.395-1.547,3.914,3.914,0,0,1,2.059-.543,3.508,3.508,0,0,1,2.73,1.094,4.444,4.444,0,0,1,1,3.1v.922H31.555a2.1,2.1,0,0,0,.66,1.328,2,2,0,0,0,1.395.5,2.437,2.437,0,0,0,2.039-.945l1.109,1.242A3.389,3.389,0,0,1,35.383-.246,4.511,4.511,0,0,1,33.461.156ZM33.2-6.789a1.411,1.411,0,0,0-1.09.455,2.357,2.357,0,0,0-.535,1.3h3.141v-.181a1.681,1.681,0,0,0-.406-1.165A1.456,1.456,0,0,0,33.2-6.789Zm8.078,4.031,1.57-5.7h2.359L42.359,0H40.2L37.352-8.453h2.359ZM48.586,0H46.32V-8.453h2.266Zm-2.4-10.641a1.112,1.112,0,0,1,.34-.836,1.277,1.277,0,0,1,.926-.328,1.28,1.28,0,0,1,.922.328,1.105,1.105,0,0,1,.344.836,1.108,1.108,0,0,1-.348.844,1.283,1.283,0,0,1-.918.328,1.283,1.283,0,0,1-.918-.328A1.108,1.108,0,0,1,46.188-10.641Zm8.836,8.3a.727.727,0,0,0-.41-.652A4.659,4.659,0,0,0,53.3-3.414q-3.016-.633-3.016-2.562a2.323,2.323,0,0,1,.934-1.879,3.766,3.766,0,0,1,2.441-.754,4.053,4.053,0,0,1,2.574.758A2.388,2.388,0,0,1,57.2-5.883H54.938a1.092,1.092,0,0,0-.312-.8A1.322,1.322,0,0,0,53.648-7a1.351,1.351,0,0,0-.883.258.814.814,0,0,0-.312.656.7.7,0,0,0,.355.605,3.657,3.657,0,0,0,1.2.4A9.8,9.8,0,0,1,55.43-4.7,2.336,2.336,0,0,1,57.219-2.43a2.2,2.2,0,0,1-.992,1.871,4.28,4.28,0,0,1-2.562.715,4.47,4.47,0,0,1-1.887-.379,3.166,3.166,0,0,1-1.293-1.039,2.414,2.414,0,0,1-.469-1.426h2.141a1.179,1.179,0,0,0,.445.922,1.766,1.766,0,0,0,1.109.32,1.635,1.635,0,0,0,.98-.246A.766.766,0,0,0,55.023-2.336ZM63.57,0a2.507,2.507,0,0,1-.227-.758,2.732,2.732,0,0,1-2.133.914,3,3,0,0,1-2.059-.719,2.312,2.312,0,0,1-.816-1.812,2.389,2.389,0,0,1,1-2.062,4.915,4.915,0,0,1,2.879-.727H63.25v-.484a1.393,1.393,0,0,0-.3-.937A1.183,1.183,0,0,0,62-6.937a1.345,1.345,0,0,0-.895.273.929.929,0,0,0-.324.75H58.523a2.268,2.268,0,0,1,.453-1.359,3,3,0,0,1,1.281-.98,4.669,4.669,0,0,1,1.859-.355,3.689,3.689,0,0,1,2.48.785,2.747,2.747,0,0,1,.918,2.207v3.664a4.041,4.041,0,0,0,.336,1.82V0ZM61.7-1.57a1.945,1.945,0,0,0,.922-.223,1.462,1.462,0,0,0,.625-.6V-3.844h-.844q-1.7,0-1.8,1.172l-.008.133a.9.9,0,0,0,.3.7A1.153,1.153,0,0,0,61.7-1.57ZM72-6.336a6.134,6.134,0,0,0-.812-.062,1.654,1.654,0,0,0-1.68.867V0H67.25V-8.453h2.133l.063,1.008a2.092,2.092,0,0,1,1.883-1.164,2.366,2.366,0,0,1,.7.1Z" transform="translate(998 888)" fill="#fff"/>
  </g>
</svg>
