<svg xmlns="http://www.w3.org/2000/svg" width="90.031" height="90" viewBox="0 0 90.031 90">
  <g id="Grupo_110804" data-name="Grupo 110804" transform="translate(830.5 -1754.942)">
    <path id="Trazado_170151" data-name="Trazado 170151" d="M-741.4,1754.942a2.185,2.185,0,0,1,.895,2.018q-.034,20.463-.016,40.927c0,1.663-.389,2.047-2.077,2.047h-54.891c-1.694,0-2.082-.38-2.082-2.04,0-1.9-.015-3.806.01-5.709.006-.492-.052-.705-.643-.706-2.179,0-2.179-.029-2.179,2.145,0,1.522,0,3.045,0,4.567,0,1.031-.44,1.63-1.239,1.73s-1.327-.374-1.6-1.391q.013-4.127.028-8.254c.005-1.11.485-1.587,1.6-1.59,2.4-.008,4.8.046,7.2-.024a8.424,8.424,0,0,0,8.059-8.166,1.443,1.443,0,0,0-1.322-1.647,1.426,1.426,0,0,0-1.481,1.494,5.631,5.631,0,0,1-5.922,5.53c-3.659,0-7.319.008-10.978-.018a1.663,1.663,0,0,0-1.368.578c-.967,1.055-1.37,1.175-2.557.408a2.59,2.59,0,0,0-3.325.019.5.5,0,0,1-.076.044c-1.142.606-1.57.563-2.432-.407a1.76,1.76,0,0,0-1.519-.638c-1.433.048-2.869-.013-4.3.025a4.16,4.16,0,0,0-4.061,4.042c-.041,2.868,0,5.736.011,8.6a1.479,1.479,0,0,1-1.128,1.365c-.792.2-1.256-.324-1.711-.841v-10.369c.3-.131.243-.443.318-.672a7.037,7.037,0,0,1,6.811-4.952c1.171,0,2.342.008,3.512-.009.2,0,.582.147.576-.176-.011-.582.281-1.2-.482-1.687a11,11,0,0,1-4.7-6.339,16.755,16.755,0,0,1-.41-5.051c0-.446.046-.805-.57-.94a1.167,1.167,0,0,1-.844-1.2,12.036,12.036,0,0,1,9.175-12.4c.286-.068.649,0,.846-.327h3.515c.026.142.131.157.253.175a11.854,11.854,0,0,1,9.961,9.938,56.593,56.593,0,0,1,.148,6.843,10.389,10.389,0,0,1-.948,4.425,10.488,10.488,0,0,1-4.086,4.811c-.753.465-.648,1.074-.548,1.649.093.536.674.258,1.023.262,2.167.029,4.336-.022,6.5.035.74.019.9-.18.9-.9-.028-8.406-.008-16.812-.035-25.218a2.172,2.172,0,0,1,.9-2.018Zm-28.676,42.179c8.582,0,17.164-.016,25.745.024.881,0,1.018-.247,1.017-1.058q-.042-18.716,0-37.432c0-.7-.122-.921-.883-.92q-25.833.038-51.666,0c-.713,0-.916.143-.913.891.032,7.351.02,14.7.02,22.055,0,.615.035,1.233-.011,1.844-.04.537.183.574.615.473a2.885,2.885,0,0,0,2.206-2.814,4.234,4.234,0,0,1,4.328-4.153,4.241,4.241,0,0,1,4.109,4.372,11.269,11.269,0,0,1-10.589,11.065c-.528.036-.69.149-.673.693.043,1.375.06,2.755,0,4.129-.033.716.207.846.87.844Q-782.988,1797.1-770.072,1797.121Zm-49.835-27.769c-.556,0-1.113.026-1.667-.009-.392-.025-.509.105-.5.488.027.789-.035,1.583.027,2.369a8.145,8.145,0,0,0,5.3,7.4,7.992,7.992,0,0,0,8.6-1.441c2.746-2.279,3.128-5.4,2.924-8.688a.747.747,0,0,0-.18-.381c-2-2.5-2.748-2.783-5.412-1.689A22.489,22.489,0,0,1-819.907,1769.352Zm-.377-2.807c3.408.2,6.5-.991,9.593-2.166a.967.967,0,0,0,.52-.556c.539-1.1,1.063-2.213,1.632-3.3a.562.562,0,0,0-.213-.86,8.833,8.833,0,0,0-9.12-1.168,8.933,8.933,0,0,0-5.548,7.348c-.057.372.039.493.424.556A17.926,17.926,0,0,0-820.284,1766.545Zm13.951-4.019c-.881,1.455-.883,1.458.43,2.225.133.078.235.263.461.18A7.731,7.731,0,0,0-806.333,1762.526Zm-7.762,20.572-2.31-.369c-.014.18-.038.348-.039.515-.009.972.06,1.02.9.608C-815.108,1783.636-814.679,1783.4-814.094,1783.1Zm.934,0c.569.294.976.51,1.388.718.907.459.964.424.959-.593,0-.169.049-.353-.094-.492Z" fill="#010101"/>
    <path id="Trazado_170152" data-name="Trazado 170152" d="M-830.5,1998.27c.3-.166.255-.5.353-.753a5.651,5.651,0,0,1,5.213-3.64c.761-.007,1.524-.023,2.284.008.437.018.674-.083.587-.568a.572.572,0,0,1,0-.175,3.187,3.187,0,0,0-1.49-3.324,10.235,10.235,0,0,1-4.118-8.533,50.473,50.473,0,0,1,.161-7.632,11.262,11.262,0,0,1,11.062-9.3,11.172,11.172,0,0,1,11.055,9.288,35.337,35.337,0,0,1-.009,9.545,10.4,10.4,0,0,1-4.721,7.3,1.439,1.439,0,0,0-.7,1.415c.028,1.98.01,1.98,1.987,1.98,3.242,0,5.328,1.31,6.172,3.882a5.16,5.16,0,0,1,.289,1.634c0,1.406.006,2.812,0,4.218a1.346,1.346,0,0,1-1.506,1.512c-1.464.011-2.929,0-4.393,0-6.8,0-13.59-.013-20.385.017a1.924,1.924,0,0,1-1.833-.9Zm19.959-11.3a13.772,13.772,0,0,1-11.795-.06c-.072-.008-.191-.045-.208-.019-.058.094.024.133.107.155a6.778,6.778,0,0,0,2.825,1.962,8.157,8.157,0,0,0,9.147-1.982c.081-.009.179-.038.1-.13C-810.423,1986.816-810.5,1986.885-810.541,1986.965Zm3.243,9.882a.782.782,0,0,0-.578-.155c-5.709,0-11.417-.016-17.126.008a2.734,2.734,0,0,0-2.674,2.63c-.041.818.013,1.64-.021,2.458-.018.433.134.533.546.532q10.274-.032,20.549-.037c1.409.074,1.41.074,1.409-1.349,0-.522.018-1.044-.008-1.564A2.648,2.648,0,0,0-807.3,1996.847Zm-.72-19.249a26.482,26.482,0,0,0-.151-3.491,8.47,8.47,0,0,0-8.209-6.943,8.418,8.418,0,0,0-8.329,6.893,49.3,49.3,0,0,0-.167,6.567c-.011.326.211.535.377.77a10.1,10.1,0,0,0,14.462,1.781c1.375-1.173,2.387-2.472,2.025-4.43A7.287,7.287,0,0,1-808.018,1977.6Zm-5.684,14.5a11.205,11.205,0,0,1-5.555.016,7.053,7.053,0,0,1-.007.959c-.1.646.121.858.795.819,1.107-.064,2.221-.017,3.332-.017C-813.47,1993.875-813.47,1993.875-813.7,1992.1Z" transform="translate(0 -160.2)" fill="#010101"/>
    <path id="Trazado_170153" data-name="Trazado 170153" d="M-553.351,2005.119q-6.148,0-12.3,0c-1.282,0-1.75-.446-1.716-1.736a28.193,28.193,0,0,1,.143-5.079,5.545,5.545,0,0,1,5.47-4.433c.176,0,.352.009.527,0,.749-.046,1.746.323,2.174-.162.367-.416.076-1.393.123-2.118a.974.974,0,0,0-.518-.98,11.148,11.148,0,0,1-5.116-9.731c.007-2.167,0-4.333,0-6.5a9.861,9.861,0,0,1,10.068-10.033q3.206,0,6.412,0c1.39,0,1.8.417,1.8,1.838,0,.029,0,.059,0,.088-.13,1.451-.091,2.618,1.685,3.314a4.248,4.248,0,0,1,2.467,3.9,60.33,60.33,0,0,1-.069,9.21,10.743,10.743,0,0,1-4.966,7.907.934.934,0,0,0-.53.971c.082.746-.32,1.745.166,2.175.415.368,1.39.115,2.117.116,3.294.005,5.642,1.74,6.057,4.77a30.09,30.09,0,0,1,.066,5.346c-.034.789-.681,1.143-1.5,1.14-3.543-.014-7.085-.006-10.628-.006Zm-5.857-18.219c-.072-.008-.191-.045-.208-.019-.058.094.024.133.107.155a6.778,6.778,0,0,0,2.825,1.962,8.157,8.157,0,0,0,9.147-1.982c.081-.009.179-.039.1-.13-.062-.076-.141-.007-.18.073A13.773,13.773,0,0,1-559.207,1986.9Zm15.713,15.374c.173.018.349.022.519.055.791.15,1.022-.191.945-.951-.067-.664.005-1.342-.021-2.012a2.583,2.583,0,0,0-2.1-2.515,4.392,4.392,0,0,0-.768-.136c-5.615-.008-11.23-.019-16.845,0a2.749,2.749,0,0,0-2.758,2.727c-.029.73.037,1.465-.02,2.192-.046.582.194.657.7.656Q-553.671,2002.266-543.494,2002.274Zm-1.4-25.036c0-.937,0-1.874,0-2.811a2.822,2.822,0,0,0-2.826-3.035,1.357,1.357,0,0,1-1.388-1.475c-.016-.7-.031-1.407.006-2.108.026-.5-.156-.652-.65-.645-1.639.023-3.279-.011-4.919,0a7.031,7.031,0,0,0-7.069,7.1c-.013,1.991.007,3.982-.01,5.974a1.821,1.821,0,0,0,.364,1.131,10.05,10.05,0,0,0,15.933.275,2.4,2.4,0,0,0,.573-1.682C-544.932,1979.057-544.892,1978.147-544.892,1977.239Zm-11.221,14.871a6.546,6.546,0,0,1-.008.962c-.112.682.181.828.815.8,1.105-.053,2.215-.015,3.322-.015,1.6,0,1.6,0,1.409-1.718A11.37,11.37,0,0,1-556.114,1992.11Z" transform="translate(-201.266 -160.195)" fill="#010101"/>
    <path id="Trazado_170154" data-name="Trazado 170154" d="M-684.906,2000.66h-12.211c-1.51,0-1.911-.385-1.877-1.927a26.837,26.837,0,0,1,.128-4.818,5.543,5.543,0,0,1,5.5-4.5c.761,0,1.525-.039,2.283.01s.461-.475.513-.817c.061-.4.014-.623-.515-.614-2.108.035-4.216.018-6.325.013-1.109,0-1.592-.487-1.593-1.6,0-4.656-.019-9.312,0-13.968a14.093,14.093,0,0,1,13.447-13.893A14.092,14.092,0,0,1-671.02,1970.7a33.243,33.243,0,0,1,.131,4.3c.017,3.777.007,7.555,0,11.333,0,1.221-.462,1.676-1.695,1.678-2.05,0-4.1.018-6.149-.011-.5-.007-.66.127-.6.625.05.417-.13.845.625.818a13.062,13.062,0,0,1,3.326.1,5.6,5.6,0,0,1,4.494,5.523c.008,1.318,0,2.635,0,3.953,0,1.172-.472,1.648-1.635,1.649Q-678.713,2000.663-684.906,2000.66Zm-.044-15.466v-.006c3.513,0,7.027-.014,10.54.014.576,0,.725-.153.722-.725-.025-3.953,0-7.905-.017-11.858a11.306,11.306,0,0,0-11.2-11.28,11.3,11.3,0,0,0-11.284,11.278c-.016,3.923.012,7.847-.019,11.77,0,.638.125.833.8.826C-691.919,1985.172-688.434,1985.194-684.95,1985.194Zm-.043,12.676v-.008c3.513,0,7.026-.014,10.539.014.608,0,.834-.149.786-.777-.054-.7,0-1.4-.017-2.107a2.866,2.866,0,0,0-2.809-2.8,15.613,15.613,0,0,0-7.614,1.216,1.929,1.929,0,0,1-1.69-.007,15.661,15.661,0,0,0-7.7-1.2,2.842,2.842,0,0,0-2.706,2.711c-.028.731.034,1.467-.019,2.195-.045.621.166.786.78.781C-691.961,1997.855-688.477,1997.87-684.993,1997.87Zm.084-9.862c-.731,0-1.463-.021-2.193.012-.227.01-.71-.229-.636.286.076.533-.4,1.294.308,1.574,1.337.526,2.65,1.065,4.2.338.857-.4,1.207-.736,1.131-1.668-.041-.5-.206-.56-.612-.549C-683.446,1988.023-684.178,1988.008-684.909,1988.008Z" transform="translate(-100.566 -155.735)" fill="#010101"/>
    <path id="Trazado_170155" data-name="Trazado 170155" d="M-818.511,1876.352c-.008-2.868-.052-5.737-.011-8.6a4.16,4.16,0,0,1,4.061-4.042c1.433-.038,2.87.023,4.3-.025a1.761,1.761,0,0,1,1.519.638c.862.97,1.29,1.013,2.432.407a.524.524,0,0,0,.076-.044,2.59,2.59,0,0,1,3.325-.019c1.187.767,1.59.646,2.557-.408a1.663,1.663,0,0,1,1.368-.578c3.659.026,7.318.018,10.978.018a5.631,5.631,0,0,0,5.923-5.53,1.426,1.426,0,0,1,1.481-1.494,1.443,1.443,0,0,1,1.322,1.648,8.424,8.424,0,0,1-8.059,8.166c-2.4.07-4.8.016-7.2.024-1.118,0-1.6.48-1.6,1.59q-.019,4.127-.028,8.254h-16.817q-.014-3.326-.028-6.653c-.006-1.124-.49-1.753-1.363-1.781-.905-.029-1.443.628-1.448,1.781q-.017,3.326-.028,6.653Z" transform="translate(-9.15 -77.821)" fill="#43a047"/>
    <path id="Trazado_170156" data-name="Trazado 170156" d="M-806.685,1912.97q.014-3.326.028-6.653c.006-1.153.543-1.81,1.448-1.781.872.028,1.357.657,1.363,1.781q.017,3.326.028,6.653c-.141.837-.578,1.408-1.477,1.386C-806.148,1914.335-806.557,1913.77-806.685,1912.97Z" transform="translate(-18.219 -114.44)" fill="#010101"/>
    <path id="Trazado_170157" data-name="Trazado 170157" d="M-660.291,1806.213q-12.917,0-25.833.015c-.662,0-.9-.128-.87-.844.064-1.374.047-2.753,0-4.129-.017-.543.145-.657.673-.693a11.269,11.269,0,0,0,10.589-11.065,4.241,4.241,0,0,0-4.109-4.372,4.234,4.234,0,0,0-4.328,4.153,2.885,2.885,0,0,1-2.206,2.814c-.433.1-.656.064-.615-.473.046-.612.011-1.229.011-1.844,0-7.352.013-14.7-.02-22.055,0-.748.2-.892.913-.891q25.833.033,51.666,0c.761,0,.884.219.883.92q-.034,18.716,0,37.432c0,.811-.136,1.062-1.017,1.058C-643.127,1806.2-651.709,1806.213-660.291,1806.213Zm9.966-5.623q2.592,0,5.184,0c1.3,0,1.749-.441,1.75-1.714,0-2.49.019-4.98-.014-7.469-.007-.555.151-.684.685-.672,1.581.036,3.163.023,4.745.009a1.413,1.413,0,0,0,1.609-1.541q.029-2.68,0-5.36a1.388,1.388,0,0,0-1.533-1.526c-4.6-.012-9.2,0-13.8-.006a1.416,1.416,0,0,0-1.409.85,2.809,2.809,0,0,0-.117,1.385c.022.462-.13.557-.585.594a7.5,7.5,0,0,1-5.75-1.5,4.385,4.385,0,0,0-1.275-.765,3.167,3.167,0,0,1-2.248-4.037.778.778,0,0,0,0-.263c-.057-.393.12-.5.5-.49.761.025,1.523.013,2.284.006a4.24,4.24,0,0,0,4.247-4.238,4.232,4.232,0,0,0-4.286-4.2q-4.13-.014-8.26,0a4.223,4.223,0,0,0-4.32,4.245,4.254,4.254,0,0,0,4.292,4.2c.9.014,2.126-.4,2.594.172.45.545.094,1.731.154,2.632a.916.916,0,0,1-.567.953c-1.84,1.08-3.666,2.186-5.492,3.29-1.335.807-1.329,1.958.017,2.779a29.83,29.83,0,0,0,3.775,2.222,3.381,3.381,0,0,1,2.28,4.141c-.081.488-.1.736-.676.688-.669-.056-1.346-.015-2.02-.012a4.229,4.229,0,0,0-4.357,4.209,4.23,4.23,0,0,0,4.343,4.225q4.086.01,8.172,0a4.076,4.076,0,0,0,3.852-2.293.882.882,0,0,1,.951-.525C-653.84,1800.6-652.082,1800.59-650.325,1800.59Z" transform="translate(-109.781 -9.092)" fill="#ffecb3"/>
    <path id="Trazado_170158" data-name="Trazado 170158" d="M-792.465,1807.943a22.487,22.487,0,0,0,9.1-1.948c2.664-1.095,3.412-.809,5.412,1.689a.748.748,0,0,1,.18.381c.2,3.292-.178,6.409-2.924,8.688a7.992,7.992,0,0,1-8.6,1.441,8.145,8.145,0,0,1-5.3-7.4c-.062-.785,0-1.579-.027-2.368-.013-.383.1-.513.5-.488C-793.578,1807.969-793.021,1807.943-792.465,1807.943Z" transform="translate(-27.441 -38.591)" fill="#fce3cd"/>
    <path id="Trazado_170159" data-name="Trazado 170159" d="M-797.285,1775.6a17.942,17.942,0,0,1-2.712-.146c-.386-.063-.481-.184-.424-.556a8.933,8.933,0,0,1,5.548-7.348,8.833,8.833,0,0,1,9.12,1.168.562.562,0,0,1,.213.86c-.569,1.087-1.093,2.2-1.632,3.3a.966.966,0,0,1-.52.556C-790.787,1774.609-793.877,1775.8-797.285,1775.6Z" transform="translate(-22.999 -9.055)" fill="#fecd54"/>
    <path id="Trazado_170160" data-name="Trazado 170160" d="M-729.662,1787.214a7.729,7.729,0,0,1,.891,2.405c-.225.083-.328-.1-.461-.18C-730.545,1788.672-730.543,1788.669-729.662,1787.214Z" transform="translate(-76.671 -24.688)" fill="#fecd54"/>
    <path id="Trazado_170161" data-name="Trazado 170161" d="M-768.335,1873.555c-.585.3-1.014.538-1.451.754-.839.413-.908.364-.9-.608,0-.168.025-.335.039-.515Z" transform="translate(-45.759 -90.458)" fill="#e4e7eb"/>
    <path id="Trazado_170162" data-name="Trazado 170162" d="M-756.712,1873.569l2.253-.367c.142.139.093.323.094.492,0,1.017-.052,1.051-.959.593C-755.736,1874.079-756.143,1873.863-756.712,1873.569Z" transform="translate(-56.448 -90.47)" fill="#e4e7eb"/>
    <path id="Trazado_170163" data-name="Trazado 170163" d="M-789.8,1986.757a7.287,7.287,0,0,0,.008,1.146c.363,1.958-.649,3.258-2.025,4.43a10.1,10.1,0,0,1-14.462-1.781c-.166-.234-.388-.444-.377-.77a49.3,49.3,0,0,1,.167-6.567,8.418,8.418,0,0,1,8.329-6.893,8.47,8.47,0,0,1,8.209,6.943A26.473,26.473,0,0,1-789.8,1986.757Z" transform="translate(-18.22 -169.359)" fill="#646c77"/>
    <path id="Trazado_170164" data-name="Trazado 170164" d="M-797.482,2107.548q-10.275.015-20.549.037c-.412,0-.564-.1-.546-.531.034-.818-.02-1.64.021-2.458a2.734,2.734,0,0,1,2.674-2.63c5.709-.024,11.417-.01,17.126-.008a.783.783,0,0,1,.578.155c-.1.454.262.754.4,1.121C-797.23,2104.65-797.582,2106.112-797.482,2107.548Z" transform="translate(-9.12 -265.465)" fill="#f5cd6c"/>
    <path id="Trazado_170165" data-name="Trazado 170165" d="M-796.087,2060.33a13.772,13.772,0,0,0,11.8.06c.026.018.052.037.076.057a8.157,8.157,0,0,1-9.147,1.982,6.777,6.777,0,0,1-2.825-1.962A.6.6,0,0,0-796.087,2060.33Z" transform="translate(-26.25 -233.624)" fill="#fce3cd"/>
    <path id="Trazado_170166" data-name="Trazado 170166" d="M-777.195,2082.431c.232,1.776.232,1.776-1.436,1.776-1.111,0-2.225-.047-3.332.017-.674.039-.892-.173-.795-.819a7.051,7.051,0,0,0,.007-.959A11.208,11.208,0,0,0-777.195,2082.431Z" transform="translate(-36.507 -250.532)" fill="#fce3cd"/>
    <path id="Trazado_170167" data-name="Trazado 170167" d="M-731.125,2108.072c-.1-1.437.253-2.9-.293-4.315-.141-.367-.5-.667-.4-1.121a2.648,2.648,0,0,1,2.1,2.523c.026.52.007,1.043.008,1.564C-729.715,2108.146-729.716,2108.146-731.125,2108.072Z" transform="translate(-75.477 -265.989)" fill="#f5cd6c"/>
    <path id="Trazado_170168" data-name="Trazado 170168" d="M-796.6,2060.376c-.083-.021-.165-.061-.107-.155.016-.027.136.01.208.019A.606.606,0,0,1-796.6,2060.376Z" transform="translate(-25.838 -233.534)" fill="#cbd0d8"/>
    <path id="Trazado_170169" data-name="Trazado 170169" d="M-745.566,2060.241c.04-.08.118-.149.18-.073.074.091-.024.121-.1.13C-745.514,2060.277-745.54,2060.259-745.566,2060.241Z" transform="translate(-64.975 -233.475)" fill="#cbd0d8"/>
    <path id="Trazado_170170" data-name="Trazado 170170" d="M-526.463,1986.416c0,.908-.04,1.818.013,2.723a2.4,2.4,0,0,1-.573,1.682,10.05,10.05,0,0,1-15.933-.275,1.82,1.82,0,0,1-.364-1.131c.017-1.991,0-3.982.01-5.974a7.031,7.031,0,0,1,7.069-7.1c1.64-.013,3.28.021,4.919,0,.494-.007.676.141.65.645-.036.7-.021,1.405-.006,2.108a1.357,1.357,0,0,0,1.388,1.475,2.822,2.822,0,0,1,2.826,3.035C-526.459,1984.542-526.463,1985.479-526.463,1986.416Z" transform="translate(-219.696 -169.372)" fill="#646c77"/>
    <path id="Trazado_170171" data-name="Trazado 170171" d="M-534.191,2107.624q-10.177,0-20.355.018c-.5,0-.744-.073-.7-.656.057-.727-.009-1.462.02-2.192a2.749,2.749,0,0,1,2.758-2.727c5.615-.021,11.23-.01,16.845,0a4.4,4.4,0,0,1,.768.136c-.163.463.235.755.372,1.116C-533.943,2104.732-534.287,2106.19-534.191,2107.624Z" transform="translate(-210.569 -265.544)" fill="#c99a28"/>
    <path id="Trazado_170172" data-name="Trazado 170172" d="M-520.96,2060.447a8.157,8.157,0,0,1-9.147,1.982,6.776,6.776,0,0,1-2.825-1.962.6.6,0,0,0,.1-.137,13.772,13.772,0,0,0,11.8.06C-521.009,2060.408-520.984,2060.427-520.96,2060.447Z" transform="translate(-227.643 -233.624)" fill="#fce3cd"/>
    <path id="Trazado_170173" data-name="Trazado 170173" d="M-519.439,2082.5a11.368,11.368,0,0,0,5.539.028c.189,1.718.189,1.718-1.409,1.718-1.108,0-2.217-.038-3.322.015-.634.03-.927-.116-.815-.8A6.545,6.545,0,0,0-519.439,2082.5Z" transform="translate(-237.941 -250.582)" fill="#fce3cd"/>
    <path id="Trazado_170174" data-name="Trazado 170174" d="M-467.914,2108.1c-.1-1.434.248-2.892-.29-4.307-.137-.361-.535-.652-.372-1.116a2.583,2.583,0,0,1,2.1,2.515c.027.67-.046,1.347.021,2.012.077.76-.154,1.1-.945.951C-467.565,2108.121-467.741,2108.116-467.914,2108.1Z" transform="translate(-276.846 -266.019)" fill="#c99a28"/>
    <path id="Trazado_170175" data-name="Trazado 170175" d="M-533.344,2060.376c-.083-.021-.165-.061-.107-.155.016-.027.136.01.208.019A.609.609,0,0,1-533.344,2060.376Z" transform="translate(-227.23 -233.534)" fill="#cbd0d8"/>
    <path id="Trazado_170176" data-name="Trazado 170176" d="M-482.31,2060.241c.04-.08.118-.149.18-.073.074.091-.024.121-.1.13C-482.259,2060.277-482.284,2060.259-482.31,2060.241Z" transform="translate(-266.368 -233.475)" fill="#cbd0d8"/>
    <path id="Trazado_170177" data-name="Trazado 170177" d="M-675.715,1994.382c-3.484,0-6.969-.021-10.452.018-.677.008-.808-.188-.8-.826.031-3.923,0-7.847.019-11.77a11.3,11.3,0,0,1,11.284-11.278,11.306,11.306,0,0,1,11.2,11.28c.02,3.952-.008,7.905.017,11.858,0,.572-.145.729-.722.725-3.513-.027-7.027-.014-10.54-.014Z" transform="translate(-109.801 -164.924)" fill="#fecd54"/>
    <path id="Trazado_170178" data-name="Trazado 170178" d="M-675.841,2107.36c-3.484,0-6.968-.015-10.451.014-.615.005-.826-.16-.78-.781.053-.728-.008-1.464.02-2.195a2.841,2.841,0,0,1,2.706-2.711,15.658,15.658,0,0,1,7.7,1.2,1.929,1.929,0,0,0,1.69.007,15.618,15.618,0,0,1,7.614-1.216,2.866,2.866,0,0,1,2.809,2.8c.021.7-.037,1.408.017,2.107.048.628-.178.782-.786.777-3.513-.028-7.026-.014-10.539-.014Z" transform="translate(-109.719 -265.226)" fill="#28c65d"/>
    <path id="Trazado_170179" data-name="Trazado 170179" d="M-648.4,2083.909c.731,0,1.463.015,2.194-.006.406-.011.571.044.612.549.076.931-.275,1.265-1.131,1.668-1.545.727-2.858.188-4.2-.338-.711-.28-.232-1.041-.308-1.574-.074-.515.409-.276.636-.286C-649.86,2083.888-649.127,2083.909-648.4,2083.909Z" transform="translate(-137.079 -251.636)" fill="#fce3cd"/>
    <path id="Trazado_170180" data-name="Trazado 170180" d="M-604.534,1809.792c-1.757,0-3.515.011-5.272-.008a.882.882,0,0,0-.952.525,4.076,4.076,0,0,1-3.852,2.293q-4.086.009-8.172,0a4.23,4.23,0,0,1-4.343-4.225,4.229,4.229,0,0,1,4.357-4.209c.674,0,1.351-.043,2.02.012.574.047.6-.2.676-.688a3.381,3.381,0,0,0-2.28-4.141,29.835,29.835,0,0,1-3.775-2.222c-1.345-.821-1.351-1.972-.017-2.779,1.826-1.1,3.652-2.21,5.492-3.29a.916.916,0,0,0,.567-.953c-.06-.9.3-2.087-.154-2.632-.469-.568-1.7-.157-2.595-.172a4.254,4.254,0,0,1-4.292-4.2,4.223,4.223,0,0,1,4.32-4.245q4.13-.011,8.26,0a4.232,4.232,0,0,1,4.286,4.2,4.24,4.24,0,0,1-4.247,4.238c-.761.007-1.523.019-2.284-.006-.376-.012-.553.1-.5.49a.778.778,0,0,1,0,.263,3.167,3.167,0,0,0,2.248,4.037,4.385,4.385,0,0,1,1.275.765,7.5,7.5,0,0,0,5.75,1.5c.455-.037.607-.132.585-.594a2.809,2.809,0,0,1,.117-1.385,1.416,1.416,0,0,1,1.409-.85c4.6,0,9.2-.006,13.8.006a1.388,1.388,0,0,1,1.533,1.526q.03,2.68,0,5.36a1.413,1.413,0,0,1-1.609,1.541c-1.581.013-3.164.027-4.744-.009-.533-.012-.692.117-.685.672.033,2.489.016,4.979.014,7.469,0,1.273-.451,1.713-1.75,1.714Q-601.942,1809.794-604.534,1809.792Zm-.97-2.813c1.491,0,2.983-.02,4.473.011.5.011.638-.135.63-.631q-.042-2.894,0-5.789c.007-.494-.129-.644-.629-.633-1.4.033-2.807.011-4.21.011-1.861,0-2.175-.293-2.19-2.179,0-.475-.109-.609-.614-.653a7.491,7.491,0,0,0-5.735,1.513,3.926,3.926,0,0,1-1.2.719c-2.052.7-2.679,2.145-2.31,4.166a.253.253,0,0,1,0,.087c-.083.479.142.595.588.573.7-.034,1.4-.012,2.1-.008a4.094,4.094,0,0,1,3.843,2.3.818.818,0,0,0,.86.526C-608.428,1806.961-606.966,1806.979-605.5,1806.979Zm6.418-9.842h3.6c2.133,0,2.108,0,2.121-2.115,0-.59-.174-.714-.731-.709-2.809.028-5.619.013-8.428.013-2.167,0-2.148,0-2.119,2.2.007.508.158.627.641.619C-602.364,1797.12-600.725,1797.137-599.086,1797.137Zm-19.605,9.842c-1.343,0-2.687-.01-4.03,0a1.412,1.412,0,0,0-1.588,1.375,1.4,1.4,0,0,0,1.538,1.427q4.074.023,8.148,0a1.41,1.41,0,0,0,1.548-1.422,1.421,1.421,0,0,0-1.586-1.381C-616,1806.969-617.348,1806.98-618.691,1806.98Zm0-25.308c-1.314,0-2.628-.007-3.942,0-1.04.007-1.661.525-1.677,1.377s.608,1.426,1.624,1.429q3.986.014,7.972,0c1.014,0,1.65-.572,1.638-1.421s-.639-1.379-1.673-1.386C-616.061,1781.665-617.375,1781.672-618.69,1781.672Zm4.159,13.981c-.074-.054-.16-.128-.256-.186-1.177-.709-2.36-1.411-3.534-2.126a.7.7,0,0,0-.81.045c-1.123.686-2.251,1.364-3.39,2.025-.412.24-.421.4,0,.641q1.707.991,3.389,2.026a.742.742,0,0,0,.885,0c1.12-.69,2.258-1.353,3.383-2.035C-614.729,1795.961-614.517,1795.925-614.531,1795.653Z" transform="translate(-155.572 -18.294)" fill="#010101"/>
    <path id="Trazado_170181" data-name="Trazado 170181" d="M-573.747,1866.278c-1.462,0-2.924-.018-4.385.011a.818.818,0,0,1-.86-.526,4.094,4.094,0,0,0-3.843-2.3c-.7,0-1.4-.026-2.1.008-.446.022-.671-.094-.588-.573a.253.253,0,0,0,0-.087c-.37-2.02.258-3.47,2.31-4.166a3.927,3.927,0,0,0,1.2-.719,7.491,7.491,0,0,1,5.734-1.513c.506.043.61.178.614.653.016,1.886.329,2.179,2.19,2.179,1.4,0,2.807.022,4.21-.011.5-.012.636.139.629.633q-.041,2.894,0,5.789c.007.5-.134.641-.63.631C-570.764,1866.258-572.256,1866.278-573.747,1866.278Z" transform="translate(-187.329 -77.593)" fill="#ffecb3"/>
    <path id="Trazado_170182" data-name="Trazado 170182" d="M-525.868,1847.459c-1.639,0-3.278-.018-4.917.011-.483.008-.634-.111-.641-.619-.029-2.2-.048-2.2,2.119-2.2,2.81,0,5.619.015,8.428-.013.556-.005.734.119.731.709-.013,2.115.012,2.115-2.121,2.115Z" transform="translate(-228.79 -68.615)" fill="#28c65d"/>
    <path id="Trazado_170183" data-name="Trazado 170183" d="M-609.474,1898.526c1.344,0,2.687-.01,4.03,0a1.421,1.421,0,0,1,1.586,1.381,1.41,1.41,0,0,1-1.548,1.422q-4.074.022-8.148,0a1.4,1.4,0,0,1-1.538-1.427,1.412,1.412,0,0,1,1.588-1.375C-612.16,1898.516-610.817,1898.526-609.474,1898.526Z" transform="translate(-164.789 -109.84)" fill="#43a047"/>
    <path id="Trazado_170184" data-name="Trazado 170184" d="M-609.473,1790.834c1.314,0,2.628-.007,3.942,0,1.034.007,1.661.536,1.673,1.386s-.624,1.417-1.638,1.421q-3.986.014-7.972,0c-1.016,0-1.641-.572-1.624-1.429s.638-1.37,1.677-1.377C-612.1,1790.827-610.787,1790.834-609.473,1790.834Z" transform="translate(-164.789 -27.456)" fill="#43a047"/>
    <path id="Trazado_170185" data-name="Trazado 170185" d="M-600.508,1842.452c.013.271-.2.307-.335.39-1.126.682-2.263,1.345-3.383,2.035a.742.742,0,0,1-.885,0q-1.681-1.035-3.389-2.026c-.418-.243-.409-.4,0-.641,1.138-.661,2.266-1.339,3.39-2.025a.7.7,0,0,1,.81-.045c1.174.715,2.356,1.417,3.534,2.126C-600.668,1842.324-600.582,1842.4-600.508,1842.452Z" transform="translate(-169.594 -65.092)" fill="#c99a28"/>
  </g>
</svg>
