<svg xmlns="http://www.w3.org/2000/svg" width="91.301" height="90" viewBox="0 0 91.301 90">
  <g id="Grupo_110803" data-name="Grupo 110803" transform="translate(806.121 -1748.187)">
    <path id="Trazado_170133" data-name="Trazado 170133" d="M-356.3,1917.792a2.131,2.131,0,0,1-2.094.74c-3.246-.345-6.5-.624-9.747-.947-.954-.095-1.5-.691-1.433-1.484a1.294,1.294,0,0,1,1.578-1.18c3.429.3,6.855.641,10.282.962a1.71,1.71,0,0,1,1.415,1.016Z" transform="translate(-358.517 -136.927)" fill="#030303"/>
    <path id="Trazado_170134" data-name="Trazado 170134" d="M-780.782,1806.516a1.494,1.494,0,0,1,.828-2.07,21.659,21.659,0,0,0,7.364-6.538c5.687-7.214,11.5-14.329,17.282-21.465.4-.488.442-.833.047-1.3a5.219,5.219,0,0,1-.556-.911,3.294,3.294,0,0,1-.39-1.626c.023-1.861,1.61-2.924,3.855-3.843,1.366-.559,2.747.151,3.66,1.634q11.89,19.3,23.769,38.6a3.123,3.123,0,0,1-1.1,4.728c-.325.207-.651.413-.982.612-1.953,1.178-3.688.8-4.822-1.186a1.525,1.525,0,0,0-2.009-.864c-8.068,1.816-16.153,3.559-24.232,5.325-.282.062-.561.138-.911.224a4.6,4.6,0,0,1,1.064,3.859c-.076.341.2.379.4.474a4.3,4.3,0,0,1,2.709,4.474.61.61,0,0,0,.425.724,4.283,4.283,0,0,1,2.526,5.613.662.662,0,0,0,.288.879,4.3,4.3,0,0,1-.157,7.263c-1.406.937-2.867,1.794-4.322,2.654a4.08,4.08,0,0,1-2.095.668,2.205,2.205,0,0,0-1.159.4c-1.521.923-3.056,1.824-4.579,2.743a7.572,7.572,0,0,1-5.643.956c-1.364-.283-2.731-.553-4.094-.842-.394-.083-.766-.181-.948.325a.142.142,0,0,1-.053.07c-2.089,1.248-2.939,3.536-4.408,5.3a3.861,3.861,0,0,1-3.153,1.526c-6.8-.011-13.607,0-20.411-.009a3.216,3.216,0,0,1-3.538-3.542c-.005-1.191.012-2.382,0-3.572a3.322,3.322,0,0,1,1.319-2.792q6.324-5.008,12.652-10.011c.359-.284.8-.6,1.209-.437.894.353,1.361-.227,1.913-.689.433-.362.864-.727,1.31-1.072a1.278,1.278,0,0,1,1.162-.325c.769.262,1.215-.2,1.557-.693,1.138-1.632,2.212-3.308,3.313-4.965.132-.2.329-.407.009-.585-.278-.155-.466-.575-.917-.274a10.229,10.229,0,0,1-1.473.821,3.443,3.443,0,0,1-4.352-1.149c-1.254-1.873-2.451-3.791-3.559-5.754a3.547,3.547,0,0,1,1.358-4.882c.795-.492,1.234-.9,1.109-1.979a4.013,4.013,0,0,1,1.827-3.75c.548-.4,1.152-.73,1.717-1.112a1.5,1.5,0,0,1,2.145.2c.328,1.1.19,1.491-.746,2.091-.45.288-.923.542-1.358.851a1.907,1.907,0,0,0-.655,2.726c1.9,3.154,3.852,6.281,5.817,9.4.522.828.84.823,1.3-.021a13.6,13.6,0,0,1,5.93-5.721,6.846,6.846,0,0,0,.758-.467,6.883,6.883,0,0,1,4.107-1.42c-2.192-3.586-4.33-7.077-6.456-10.575-.238-.391-.455-.343-.786-.128-.872.563-1.762,1.1-2.65,1.64A1.5,1.5,0,0,1-780.782,1806.516Zm20.157,22.556c.815-.478,1.658-.916,2.437-1.447a1.653,1.653,0,0,0,.473-2.285,1.747,1.747,0,0,0-2.188-.65c-.337.143-.456.3-.337.67a4.078,4.078,0,0,1-.521,3.575c-.048.083-.251.113-.135.24C-760.822,1829.257-760.674,1829.223-760.625,1829.072Zm-23.228,12.876c1.616,1.934,3.238,3.864,4.844,5.807.37.447.636.162.859-.1.258-.305,1.091-.42.594-1.027-1.559-1.9-3.061-3.851-4.783-5.612q-1.9-2.29-3.808-4.579c-.74-.888-.72-.856-1.647-.1-.441.36-.389.566-.047.955C-786.492,1838.824-785.18,1840.392-783.853,1841.948Zm34.045-60.643c-1.176.342-1.522.205-2.193-.87q-.654-1.046-1.307-2.1a1.165,1.165,0,0,0-.21.139q-9.745,12.075-19.5,24.144a.664.664,0,0,0-.01.923q3.8,6.136,7.573,12.288a.769.769,0,0,0,.99.426q14.719-3.244,29.454-6.42c.816-.176.924-.324.464-1.066-4.556-7.344-9.069-14.715-13.61-22.068-.5-.811-.739-1.557.028-2.323,1.158-.409,1.538-.25,2.293.972q7.914,12.817,15.825,25.635c.982,1.592.723,1.539,2.376.57.642-.376.705-.714.313-1.338-1.408-2.238-2.76-4.511-4.146-6.763q-9.508-15.447-19.022-30.89c-.893-1.45-.866-1.408-2.315-.582-.782.446-.78.852-.333,1.546,1.175,1.823,2.266,3.7,3.437,5.525A1.628,1.628,0,0,1-749.808,1781.3Zm-18.065,64.712a4.646,4.646,0,0,0,2.7-.781c.959-.593,1.939-1.151,2.9-1.745.2-.126.617-.186.511-.5a1.063,1.063,0,0,0-.688-.758,3.263,3.263,0,0,0-.528-.081,5.653,5.653,0,0,1-4.52-2.912c-1.482-2.4-3.007-4.775-4.515-7.161-.723-1.144-.723-1.144-1.809-.373-1.113.79-1.9.838-2.435.148-.566-.731-.322-1.5.848-2.331a5.574,5.574,0,0,0,2.388-3.723,2.029,2.029,0,0,1,1.852-1.755,3.475,3.475,0,0,1,3.793,1.536c.451.662.838,1.367,1.27,2.043.569.892,1.21,1.01,2.2.424,1.193-.71,1.474-1.347.915-2.286-1.169-1.965-2.352-3.922-3.576-5.854a2.683,2.683,0,0,0-3.934-.913c-1.022.6-2.007,1.27-3.035,1.861a8.084,8.084,0,0,0-2.782,2.695c-2.121,3.263-4.293,6.494-6.442,9.739a2.289,2.289,0,0,1-.828.914c-.609.292-.45.565-.1.98,2.027,2.374,4.115,4.705,6.007,7.185a6.078,6.078,0,0,0,4.481,2.709C-771.408,1845.249-769.678,1845.877-767.874,1846.016Zm-24.421,6.237v-.016c3.088,0,6.177-.05,9.262.027a2.507,2.507,0,0,0,2.393-1.148c.321-.469.382-.789,0-1.239q-5.068-5.917-10.1-11.867c-.338-.4-.511-.308-.843-.043-3.322,2.64-6.6,5.337-10.01,7.861-1.438,1.065-2.167,2.215-1.858,3.992a7.618,7.618,0,0,1,.011,1.248c.006,1.07.111,1.183,1.17,1.184Q-797.282,1852.258-792.294,1852.254Zm27.651-18.575c.131-.463-.194-.554-.5-.686a4.938,4.938,0,0,1-2.613-2.753,24.878,24.878,0,0,0-1.917-3.187c-.15-.235-.405-.489-.737-.211a2.883,2.883,0,0,0-.362,2.153c1.9,3.014,3.8,6.031,5.713,9.033a2.775,2.775,0,0,0,1.456,1.254c.339.11.74.32.914-.146s.568-.964-.109-1.411A4.165,4.165,0,0,1-764.643,1833.679Zm4.343,2.169a1.467,1.467,0,0,0,.516-.086c1.671-1.006,3.363-1.983,4.981-3.068a1.581,1.581,0,0,0,.3-2.165,1.649,1.649,0,0,0-2.189-.591c-1.565.9-3.11,1.834-4.615,2.828a1.537,1.537,0,0,0-.61,1.888A1.723,1.723,0,0,0-760.3,1835.847Zm1.933,5.922a1.219,1.219,0,0,0,.417-.059,31.128,31.128,0,0,0,5.192-3.241,1.452,1.452,0,0,0,.129-1.969,1.528,1.528,0,0,0-1.943-.64c-1.676.948-3.328,1.944-4.933,3.007a1.418,1.418,0,0,0-.467,1.835A1.609,1.609,0,0,0-758.367,1841.77ZM-785.5,1824.4a2.033,2.033,0,0,0,1.375-.734c.354-.412-.179-.743-.372-1.065-1.049-1.754-2.129-3.488-3.2-5.226-.15-.243-.228-.587-.581-.611a1.463,1.463,0,0,0-1.262,1.969c1.012,1.707,2.067,3.388,3.116,5.072A1.032,1.032,0,0,0-785.5,1824.4Zm25-3.553a1.728,1.728,0,0,0-2.34-1.559c-.519.182-.836.384-.378.979a18.045,18.045,0,0,1,.992,1.584c.509.827.776.845,1.358.072A1.714,1.714,0,0,0-760.505,1820.85Z" transform="translate(0 -16.739)" fill="#030303"/>
    <path id="Trazado_170135" data-name="Trazado 170135" d="M-692.495,1973.567a1.5,1.5,0,0,0,2.22.21c.888-.539,1.778-1.076,2.65-1.64.331-.214.549-.262.786.128,2.126,3.5,4.264,6.988,6.456,10.575a6.883,6.883,0,0,0-4.107,1.42,6.846,6.846,0,0,1-.758.467,13.6,13.6,0,0,0-5.93,5.721c-.46.844-.777.848-1.3.021-1.965-3.115-3.914-6.242-5.817-9.4a1.907,1.907,0,0,1,.655-2.726c.435-.309.908-.563,1.358-.851.936-.6,1.074-.994.746-2.091Z" transform="translate(-88.287 -183.79)" fill="#ffecb3"/>
    <path id="Trazado_170136" data-name="Trazado 170136" d="M-431.172,1749.532c-.07.247-.122.512-.218.76q-1.833,4.724-3.673,9.446a1.531,1.531,0,0,1-.929,1,1.206,1.206,0,0,1-1.309-.312,1.217,1.217,0,0,1-.335-1.384c.464-1.218.925-2.438,1.394-3.654.8-2.074,1.6-4.148,2.413-6.216a1.333,1.333,0,0,1,1.427-.979,1.27,1.27,0,0,1,1.148.973C-431.22,1749.282-431.2,1749.4-431.172,1749.532Z" transform="translate(-302.552)" fill="#030303"/>
    <path id="Trazado_170137" data-name="Trazado 170137" d="M-393.793,1835.839a1.366,1.366,0,0,1-.7,1.071c-2.366,1.468-4.731,2.938-7.111,4.383a1.346,1.346,0,0,1-1.88-.389,1.3,1.3,0,0,1,.472-1.857c2.38-1.5,4.768-2.991,7.188-4.428A1.325,1.325,0,0,1-393.793,1835.839Z" transform="translate(-330.498 -70.812)" fill="#030303"/>
    <path id="Trazado_170138" data-name="Trazado 170138" d="M-596.886,1829.282c-.767.766-.529,1.512-.028,2.323,4.541,7.353,9.054,14.724,13.61,22.068.46.742.352.891-.464,1.066q-14.736,3.17-29.454,6.42a.769.769,0,0,1-.99-.426q-3.768-6.156-7.573-12.288a.664.664,0,0,1,.01-.923q9.762-12.061,19.5-24.144a1.166,1.166,0,0,1,.21-.139q.655,1.05,1.307,2.1c.672,1.075,1.017,1.212,2.194.869C-598.161,1827.315-597.243,1828.145-596.886,1829.282Z" transform="translate(-151.241 -61.639)" fill="#c99a28"/>
    <path id="Trazado_170139" data-name="Trazado 170139" d="M-666.234,2075.48c-1.8-.139-3.535-.767-5.327-.935a6.077,6.077,0,0,1-4.481-2.709c-1.892-2.48-3.98-4.811-6.007-7.185-.355-.415-.513-.689.1-.98a2.289,2.289,0,0,0,.828-.914c2.149-3.245,4.321-6.475,6.442-9.739a8.085,8.085,0,0,1,2.782-2.695c1.028-.591,2.013-1.259,3.035-1.861a2.683,2.683,0,0,1,3.934.913c1.223,1.931,2.406,3.889,3.576,5.854.559.939.278,1.576-.915,2.286-.985.586-1.626.469-2.2-.424-.431-.676-.819-1.381-1.27-2.043a3.475,3.475,0,0,0-3.793-1.536,2.029,2.029,0,0,0-1.852,1.755,5.574,5.574,0,0,1-2.388,3.723c-1.17.832-1.414,1.6-.848,2.331.534.69,1.322.643,2.435-.148,1.086-.771,1.086-.771,1.809.373,1.507,2.385,3.032,4.76,4.515,7.161a5.653,5.653,0,0,0,4.52,2.912,3.275,3.275,0,0,1,.528.081,1.063,1.063,0,0,1,.688.758c.106.309-.307.369-.511.5-.958.594-1.938,1.152-2.9,1.745A4.646,4.646,0,0,1-666.234,2075.48Z" transform="translate(-101.639 -246.202)" fill="#fce3cd"/>
    <path id="Trazado_170140" data-name="Trazado 170140" d="M-780.344,2170.1q-4.988,0-9.976,0c-1.058,0-1.164-.114-1.17-1.184a7.621,7.621,0,0,0-.011-1.248c-.309-1.778.42-2.928,1.858-3.992,3.408-2.524,6.689-5.221,10.01-7.861.333-.264.505-.357.843.043q5.022,5.956,10.1,11.867c.386.45.325.771,0,1.24a2.507,2.507,0,0,1-2.393,1.148c-3.086-.078-6.175-.027-9.262-.027Z" transform="translate(-11.95 -334.584)" fill="#7b5d14"/>
    <path id="Trazado_170141" data-name="Trazado 170141" d="M-506.039,1797.445c-.357-1.137-1.275-1.967-1.681-3.078a1.628,1.628,0,0,0,.11-2.248c-1.171-1.825-2.263-3.7-3.437-5.525-.447-.694-.449-1.1.333-1.546,1.449-.826,1.422-.868,2.315.582q9.51,15.445,19.022,30.89c1.386,2.252,2.738,4.525,4.146,6.763.393.624.329.962-.313,1.338-1.653.969-1.394,1.022-2.376-.57q-7.911-12.819-15.825-25.635C-504.5,1797.195-504.881,1797.036-506.039,1797.445Z" transform="translate(-242.088 -29.802)" fill="#ffecb3"/>
    <path id="Trazado_170142" data-name="Trazado 170142" d="M-602.641,2100.894a4.165,4.165,0,0,0,1.84,4.046c.677.448.278.959.109,1.411s-.575.256-.914.146a2.776,2.776,0,0,1-1.456-1.254c-1.918-3-3.814-6.019-5.713-9.033a2.883,2.883,0,0,1,.362-2.153c.332-.279.587-.025.737.21a24.878,24.878,0,0,1,1.917,3.187,4.938,4.938,0,0,0,2.613,2.752C-602.834,2100.34-602.51,2100.431-602.641,2100.894Z" transform="translate(-162.002 -283.954)" fill="#28c65d"/>
    <path id="Trazado_170143" data-name="Trazado 170143" d="M-557.642,2116.9a1.723,1.723,0,0,1-1.61-1.194,1.537,1.537,0,0,1,.61-1.888c1.505-.994,3.05-1.93,4.615-2.828a1.649,1.649,0,0,1,2.188.591,1.581,1.581,0,0,1-.3,2.165c-1.619,1.085-3.311,2.062-4.981,3.068A1.462,1.462,0,0,1-557.642,2116.9Z" transform="translate(-202.659 -297.796)" fill="#fce3cd"/>
    <path id="Trazado_170144" data-name="Trazado 170144" d="M-546.988,2150.3a1.609,1.609,0,0,1-1.6-1.069,1.418,1.418,0,0,1,.467-1.835c1.605-1.062,3.258-2.058,4.933-3.006a1.528,1.528,0,0,1,1.943.64,1.452,1.452,0,0,1-.129,1.969,31.136,31.136,0,0,1-5.192,3.241A1.225,1.225,0,0,1-546.988,2150.3Z" transform="translate(-211.38 -325.268)" fill="#fce3cd"/>
    <path id="Trazado_170145" data-name="Trazado 170145" d="M-709.915,2045.864a1.032,1.032,0,0,1-.927-.6c-1.049-1.684-2.1-3.365-3.116-5.072a1.463,1.463,0,0,1,1.262-1.969c.352.024.431.369.581.611,1.074,1.738,2.155,3.473,3.2,5.226.193.323.726.654.372,1.065A2.033,2.033,0,0,1-709.915,2045.864Z" transform="translate(-75.589 -238.2)" fill="#28c65d"/>
    <path id="Trazado_170146" data-name="Trazado 170146" d="M-680.014,2173.907c1.722,1.761,3.224,3.712,4.783,5.612.5.606-.336.721-.594,1.027-.223.263-.489.549-.859.1-1.606-1.943-3.228-3.872-4.844-5.807C-680.9,2174.726-680.625,2174.046-680.014,2173.907Z" transform="translate(-102.325 -349.632)" fill="#fffae8"/>
    <path id="Trazado_170147" data-name="Trazado 170147" d="M-699.581,2149.8c-.611.139-.889.819-1.514.935-1.326-1.556-2.639-3.124-3.988-4.659-.342-.388-.394-.595.047-.955.927-.755.906-.787,1.647.1Q-701.481,2147.511-699.581,2149.8Z" transform="translate(-82.759 -325.529)" fill="#fffae8"/>
    <path id="Trazado_170148" data-name="Trazado 170148" d="M-552.325,2086.136a4.078,4.078,0,0,0,.521-3.575c-.119-.371,0-.527.337-.67a1.748,1.748,0,0,1,2.188.65,1.653,1.653,0,0,1-.473,2.285c-.779.531-1.622.968-2.437,1.447Z" transform="translate(-208.436 -273.939)" fill="#fce3cd"/>
    <path id="Trazado_170149" data-name="Trazado 170149" d="M-564.394,2053.442a1.715,1.715,0,0,1-.367,1.077c-.582.773-.849.755-1.358-.072a18.016,18.016,0,0,0-.992-1.584c-.458-.6-.141-.8.378-.979A1.729,1.729,0,0,1-564.394,2053.442Z" transform="translate(-196.111 -249.331)" fill="#fce3cd"/>
    <path id="Trazado_170150" data-name="Trazado 170150" d="M-552.972,2106.464c-.048.151-.2.185-.271.1-.116-.127.087-.158.135-.24Z" transform="translate(-207.653 -294.131)" fill="#fce3cd"/>
  </g>
</svg>
