<svg xmlns="http://www.w3.org/2000/svg" width="319.693" height="324.455" viewBox="0 0 319.693 324.455">
  <g id="Grupo_111261" data-name="Grupo 111261" transform="translate(-869.414 -2853.952)">
    <path id="Trazado_171281" data-name="Trazado 171281" d="M-1044.833,1291.1q-3.332,13.477-7.561,26.7a414.571,414.571,0,0,1-21.885,54.755,414.273,414.273,0,0,1-49.185,77.875l-5.9,7.373a421.478,421.478,0,0,1-59.752,58.357,414.661,414.661,0,0,1-50.894,34.8q-10.771,6.248-21.88,11.82l-31.137-64.833-71.5-148.888a178.874,178.874,0,0,0,88.455-110.735l186.848,42.647Z" transform="translate(2233.939 1615.634)" fill="#28c65d"/>
    <path id="Trazado_171282" data-name="Trazado 171282" d="M-1025.474,1342.232a414.558,414.558,0,0,1-21.885,54.755,414.276,414.276,0,0,1-49.184,77.875l-5.9,7.373a421.465,421.465,0,0,1-59.752,58.357,414.632,414.632,0,0,1-50.894,34.8L-1225.477,1563l-4.546-4.541-85.619-178.287a196.471,196.471,0,0,0,77.879-97.477l197.927,45.174.836.836Z" transform="translate(2207.021 1591.195)" fill="#0f5c29" opacity="0.3"/>
    <path id="Trazado_171287" data-name="Trazado 171287" d="M-1038.821,1328.1c-.061.2-.117.4-.178.606a398.069,398.069,0,0,1-23.571,60.9,397.306,397.306,0,0,1-47.175,74.69l-5.776,7.219a404.55,404.55,0,0,1-57.225,55.863,397.907,397.907,0,0,1-52.73,35.622q-.929.529-1.86,1.047l-2.686-5.589-85.619-178.287a196.471,196.471,0,0,0,77.879-97.477l197.927,45.174Z" transform="translate(2207.021 1591.195)" fill="#f6f6f6"/>
    <path id="Trazado_171288" data-name="Trazado 171288" d="M-1291.634,1395.205a205.9,205.9,0,0,0,72.344-90.542l182.941,41.753a390.358,390.358,0,0,1-20.607,51.6,388.812,388.812,0,0,1-46.169,73.1l-5.712,7.141a396.407,396.407,0,0,1-55.963,54.617,391.035,391.035,0,0,1-45.631,31.419Z" transform="translate(2193.8 1579.1)" fill="#fff"/>
    <path id="Trazado_171604" data-name="Trazado 171604" d="M6.512,12.18,9.09,3.625H11.7L7.738,15H5.293L1.348,3.625h2.6ZM17.16,15a2.507,2.507,0,0,1-.227-.758,2.732,2.732,0,0,1-2.133.914,3,3,0,0,1-2.059-.719,2.312,2.312,0,0,1-.816-1.812,2.389,2.389,0,0,1,1-2.062A4.915,4.915,0,0,1,15.8,9.836H16.84V9.352a1.393,1.393,0,0,0-.3-.937,1.183,1.183,0,0,0-.949-.352,1.345,1.345,0,0,0-.895.273.929.929,0,0,0-.324.75H12.113a2.268,2.268,0,0,1,.453-1.359,3,3,0,0,1,1.281-.98,4.669,4.669,0,0,1,1.859-.355,3.689,3.689,0,0,1,2.48.785,2.747,2.747,0,0,1,.918,2.207v3.664a4.041,4.041,0,0,0,.336,1.82V15Zm-1.867-1.57a1.945,1.945,0,0,0,.922-.223,1.462,1.462,0,0,0,.625-.6V11.156H16q-1.7,0-1.8,1.172l-.008.133a.9.9,0,0,0,.3.7A1.153,1.153,0,0,0,15.293,13.43ZM23.223,15H20.957V3h2.266Zm4.242,0H25.2V6.547h2.266Zm-2.4-10.641a1.112,1.112,0,0,1,.34-.836,1.465,1.465,0,0,1,1.848,0,1.105,1.105,0,0,1,.344.836,1.108,1.108,0,0,1-.348.844,1.448,1.448,0,0,1-1.836,0A1.108,1.108,0,0,1,25.066,4.359Zm3.906,6.352a5.094,5.094,0,0,1,.887-3.148,2.877,2.877,0,0,1,2.426-1.172,2.589,2.589,0,0,1,2.039.922V3H36.59V15H34.551l-.109-.9a2.657,2.657,0,0,1-2.172,1.055,2.869,2.869,0,0,1-2.395-1.176A5.258,5.258,0,0,1,28.973,10.711Zm2.258.161a3.355,3.355,0,0,0,.414,1.829,1.348,1.348,0,0,0,1.2.636,1.51,1.51,0,0,0,1.477-.887V9.1a1.489,1.489,0,0,0-1.461-.887Q31.23,8.211,31.23,10.872ZM43.238,15a2.507,2.507,0,0,1-.227-.758,2.732,2.732,0,0,1-2.133.914,3,3,0,0,1-2.059-.719A2.312,2.312,0,0,1,38,12.625a2.389,2.389,0,0,1,1-2.062,4.915,4.915,0,0,1,2.879-.727h1.039V9.352a1.393,1.393,0,0,0-.3-.937,1.183,1.183,0,0,0-.949-.352,1.345,1.345,0,0,0-.895.273.929.929,0,0,0-.324.75H38.191a2.268,2.268,0,0,1,.453-1.359,3,3,0,0,1,1.281-.98,4.669,4.669,0,0,1,1.859-.355,3.689,3.689,0,0,1,2.48.785,2.747,2.747,0,0,1,.918,2.207v3.664a4.041,4.041,0,0,0,.336,1.82V15Zm-1.867-1.57a1.945,1.945,0,0,0,.922-.223,1.462,1.462,0,0,0,.625-.6V11.156h-.844q-1.7,0-1.8,1.172l-.008.133a.9.9,0,0,0,.3.7A1.153,1.153,0,0,0,41.371,13.43Zm9.063-.094a1.481,1.481,0,0,0,1.016-.344,1.2,1.2,0,0,0,.406-.914h2.117a2.9,2.9,0,0,1-.469,1.574,3.093,3.093,0,0,1-1.262,1.109,3.949,3.949,0,0,1-1.77.395A3.67,3.67,0,0,1,47.613,14a4.56,4.56,0,0,1-1.047-3.184v-.148a4.508,4.508,0,0,1,1.039-3.117,3.627,3.627,0,0,1,2.852-1.164,3.555,3.555,0,0,1,2.543.9,3.2,3.2,0,0,1,.973,2.4H51.855a1.551,1.551,0,0,0-.406-1.072,1.51,1.51,0,0,0-2.223.163,3.333,3.333,0,0,0-.4,1.866v.235a3.375,3.375,0,0,0,.4,1.878A1.377,1.377,0,0,0,50.434,13.336ZM57.645,15H55.379V6.547h2.266Zm-2.4-10.641a1.112,1.112,0,0,1,.34-.836,1.465,1.465,0,0,1,1.848,0,1.105,1.105,0,0,1,.344.836,1.108,1.108,0,0,1-.348.844,1.448,1.448,0,0,1-1.836,0A1.108,1.108,0,0,1,55.246,4.359ZM59.152,10.7a5.013,5.013,0,0,1,.484-2.242A3.546,3.546,0,0,1,61.031,6.93a4.069,4.069,0,0,1,2.113-.539,3.849,3.849,0,0,1,2.793,1.047,4.2,4.2,0,0,1,1.207,2.844l.016.578a4.418,4.418,0,0,1-1.086,3.121,4.209,4.209,0,0,1-5.832,0,4.5,4.5,0,0,1-1.09-3.187Zm2.258.16a3.16,3.16,0,0,0,.453,1.843,1.628,1.628,0,0,0,2.578.008,3.457,3.457,0,0,0,.461-2.015,3.128,3.128,0,0,0-.461-1.831,1.5,1.5,0,0,0-1.3-.649,1.474,1.474,0,0,0-1.281.646A3.516,3.516,0,0,0,61.41,10.856ZM63.59,3h2.461L63.887,5.422H62.051Zm7.039,3.547.07.977a2.951,2.951,0,0,1,2.43-1.133,2.453,2.453,0,0,1,2,.789A3.682,3.682,0,0,1,75.8,9.539V15H73.543V9.581a1.47,1.47,0,0,0-.312-1.045,1.4,1.4,0,0,0-1.039-.325,1.553,1.553,0,0,0-1.43.814V15H68.5V6.547ZM81.145,10.7a5.013,5.013,0,0,1,.484-2.242A3.546,3.546,0,0,1,83.023,6.93a4.069,4.069,0,0,1,2.113-.539A3.849,3.849,0,0,1,87.93,7.438a4.2,4.2,0,0,1,1.207,2.844l.016.578a4.418,4.418,0,0,1-1.086,3.121,4.209,4.209,0,0,1-5.832,0,4.5,4.5,0,0,1-1.09-3.187Zm2.258.16a3.16,3.16,0,0,0,.453,1.843,1.628,1.628,0,0,0,2.578.008,3.457,3.457,0,0,0,.461-2.015,3.128,3.128,0,0,0-.461-1.831,1.5,1.5,0,0,0-1.3-.649,1.474,1.474,0,0,0-1.281.646A3.516,3.516,0,0,0,83.4,10.856Zm14.75,0a5.07,5.07,0,0,1-.887,3.129,2.843,2.843,0,0,1-2.395,1.176,2.633,2.633,0,0,1-2.07-.891V18.25H90.543V6.547h2.094l.078.828a2.654,2.654,0,0,1,2.141-.984,2.862,2.862,0,0,1,2.43,1.156,5.207,5.207,0,0,1,.867,3.188Zm-2.258-.172a3.345,3.345,0,0,0-.418-1.826,1.36,1.36,0,0,0-1.215-.643,1.478,1.478,0,0,0-1.461.815V12.5a1.5,1.5,0,0,0,1.477.839Q95.895,13.336,95.895,10.679Zm7.547,4.477a4.15,4.15,0,0,1-3.027-1.141,4.054,4.054,0,0,1-1.168-3.039v-.219a5.106,5.106,0,0,1,.492-2.277,3.612,3.612,0,0,1,1.395-1.547,3.914,3.914,0,0,1,2.059-.543,3.508,3.508,0,0,1,2.73,1.094,4.444,4.444,0,0,1,1,3.1v.922h-5.383a2.1,2.1,0,0,0,.66,1.328,2,2,0,0,0,1.395.5,2.437,2.437,0,0,0,2.039-.945l1.109,1.242a3.389,3.389,0,0,1-1.375,1.121A4.511,4.511,0,0,1,103.441,15.156Zm-.258-6.945a1.411,1.411,0,0,0-1.09.455,2.357,2.357,0,0,0-.535,1.3H104.7V9.788a1.681,1.681,0,0,0-.406-1.165A1.456,1.456,0,0,0,103.184,8.211Zm9.766.453a6.134,6.134,0,0,0-.812-.062,1.654,1.654,0,0,0-1.68.867V15H108.2V6.547h2.133l.063,1.008a2.092,2.092,0,0,1,1.883-1.164,2.366,2.366,0,0,1,.7.1ZM118.7,15a2.507,2.507,0,0,1-.227-.758,2.732,2.732,0,0,1-2.133.914,3,3,0,0,1-2.059-.719,2.312,2.312,0,0,1-.816-1.812,2.389,2.389,0,0,1,1-2.062,4.915,4.915,0,0,1,2.879-.727h1.039V9.352a1.393,1.393,0,0,0-.3-.937,1.183,1.183,0,0,0-.949-.352,1.345,1.345,0,0,0-.895.273.929.929,0,0,0-.324.75h-2.258a2.268,2.268,0,0,1,.453-1.359,3,3,0,0,1,1.281-.98,4.669,4.669,0,0,1,1.859-.355,3.689,3.689,0,0,1,2.48.785,2.747,2.747,0,0,1,.918,2.207v3.664a4.041,4.041,0,0,0,.336,1.82V15Zm-1.867-1.57a1.945,1.945,0,0,0,.922-.223,1.462,1.462,0,0,0,.625-.6V11.156h-.844q-1.7,0-1.8,1.172l-.008.133a.9.9,0,0,0,.3.7A1.153,1.153,0,0,0,116.832,13.43Zm8.25-8.961V6.547h1.445V8.2h-1.445v4.219a1.007,1.007,0,0,0,.18.672.9.9,0,0,0,.688.2,3.6,3.6,0,0,0,.664-.055v1.711a4.648,4.648,0,0,1-1.367.2,2.156,2.156,0,0,1-2.422-2.4V8.2H121.59V6.547h1.234V4.469ZM130.168,15H127.9V6.547h2.266Zm-2.4-10.641a1.112,1.112,0,0,1,.34-.836,1.465,1.465,0,0,1,1.848,0,1.105,1.105,0,0,1,.344.836,1.109,1.109,0,0,1-.348.844,1.448,1.448,0,0,1-1.836,0A1.108,1.108,0,0,1,127.77,4.359Zm7.422,7.883,1.57-5.7h2.359L136.27,15h-2.156l-2.852-8.453h2.359Zm9.7,2.758a2.507,2.507,0,0,1-.227-.758,2.732,2.732,0,0,1-2.133.914,3,3,0,0,1-2.059-.719,2.312,2.312,0,0,1-.816-1.812,2.389,2.389,0,0,1,1-2.062,4.915,4.915,0,0,1,2.879-.727h1.039V9.352a1.393,1.393,0,0,0-.3-.937,1.183,1.183,0,0,0-.949-.352,1.345,1.345,0,0,0-.895.273.929.929,0,0,0-.324.75h-2.258a2.268,2.268,0,0,1,.453-1.359,3,3,0,0,1,1.281-.98,4.669,4.669,0,0,1,1.859-.355,3.689,3.689,0,0,1,2.48.785,2.747,2.747,0,0,1,.918,2.207v3.664a4.041,4.041,0,0,0,.336,1.82V15Zm-1.867-1.57a1.945,1.945,0,0,0,.922-.223,1.462,1.462,0,0,0,.625-.6V11.156h-.844q-1.7,0-1.8,1.172l-.008.133a.9.9,0,0,0,.3.7A1.153,1.153,0,0,0,143.027,13.43Z" transform="translate(943 3015)" fill="#12263f"/>
    <path id="Trazado_171384" data-name="Trazado 171384" d="M-1307.565,682.45a4.267,4.267,0,0,0-1.61-.409,16.4,16.4,0,0,1-12.744-16.749,15.763,15.763,0,0,1,3.336-9.154.855.855,0,0,0,.062-1.139,15.211,15.211,0,0,1-1.875-6.213c-.118-1.21-.762-2.326-.837-3.55-.269-4.383-.758-8.793.834-13.049a15.5,15.5,0,0,1,7.878-8.673c.906-.452.981-1.028.2-1.668a10.888,10.888,0,0,1-3.46-12.229,10.845,10.845,0,0,1,10.65-7.158,10.539,10.539,0,0,1,8.562,4.7c.65.916.56,1.395-.332,2.1a1.479,1.479,0,0,1-1.577-.73,8.29,8.29,0,0,0-8.476-3.6,8.545,8.545,0,0,0-6.99,9.977,8.6,8.6,0,0,0,9.9,6.847A8.525,8.525,0,0,0-1297,613.64c.061-.81.331-1.341,1.151-1.517,1.022.285,1.277.625,1.211,1.668a10.875,10.875,0,0,1-4.131,8.075c-.749.61-.67,1.182.19,1.631a15.612,15.612,0,0,1,8.942,14.2c.084,2.644.371,5.347-.3,7.932s-.746,5.3-1.831,7.775c-.331.755-1.018,1.511-.973,2.23.043.688.865,1.307,1.278,2a16.437,16.437,0,0,1-11.568,24.647c-.259.039-.577-.13-.78.172Zm12.046-27.184.018-.02s-.006.032-.007.031c-.1.005-.177.029-.167.152-.243-.045-.377.146-.541.259a15.835,15.835,0,0,1-18.64,0c-.164-.113-.3-.306-.541-.253l-.031-.09c0,.011-.005.026,0,.034a.371.371,0,0,0,.042.047,11.8,11.8,0,0,0,8.377,4.708,12.091,12.091,0,0,0,11.323-4.711Zm-17.2,22.81a13.388,13.388,0,0,0,11.53,1.322,13.981,13.981,0,0,0,9.535-15.562,13.346,13.346,0,0,0-2.712-6.291c-.132.164-.229.286-.328.407-.377.462-1.2.789-1.156,1.276.04.459.758.856,1.172,1.285a1.407,1.407,0,0,1,.009,2.243c-.65.671-1.312,1.329-1.969,1.993a1.391,1.391,0,0,1-1.713-.109,1.277,1.277,0,0,1,.3-1.858,8.124,8.124,0,0,0,.775-.771c.123-.144.511-.269.21-.531-.329-.286-.6-.986-1.025-.763a10.272,10.272,0,0,0-2.915,1.588c-1.9,1.93-3.849,3.811-5.787,5.7a1.452,1.452,0,0,1-2.317.011c-.972-.942-1.928-1.9-2.9-2.85-1.3-1.275-1.289-1.258-2.574,0-.345.339-.355.5,0,.844q3.118,3.013,6.181,6.083c.38.382.57.315.906-.022,1.619-1.622,3.26-3.221,4.9-4.827.778-.764,1.126-.806,2.05-.256a1.412,1.412,0,0,1-.281,1.83c-2,1.937-3.97,3.9-5.963,5.849a1.436,1.436,0,0,1-2.313.014q-4.048-3.956-8.072-7.935a1.412,1.412,0,0,1,0-2.3c.844-.849,1.7-1.683,2.556-2.522,1.029-1.012,1.634-1.02,2.648-.026,1.208,1.184,2.408,2.376,3.619,3.557.161.157.309.492.617.179.971-.984,1.94-1.971,2.964-3.013a14.792,14.792,0,0,1-11.674-4.775c-.37-.393-.46-.05-.6.158a13.621,13.621,0,0,0-2.375,10.067A13.55,13.55,0,0,0-1312.72,678.076Zm1.051-46.6a1.344,1.344,0,0,1,.752,1.743c-.283,1.187-.57,2.378-.751,3.583a5.977,5.977,0,0,0,2.661,6.149,6.055,6.055,0,0,0,6.9.033,5.843,5.843,0,0,0,2.691-6.2,100.962,100.962,0,0,1-2.063-12.838c-.021-.352-.119-.442-.479-.319a10.859,10.859,0,0,1-7.116.011c-.41-.137-.486-.024-.515.354-.073.959-.192,1.914-.271,2.872a1.221,1.221,0,0,1-1.3,1.259c-1.178-.269-1.123-1.16-.957-2.107a13.464,13.464,0,0,0-6.6,14.926,13.579,13.579,0,0,0,13.946,10.4,13.65,13.65,0,0,0,12.654-11.508c1-6.714-3.192-12.126-6.838-13.776.153,1.084.273,2.142.458,3.188.262,1.484.573,2.96.859,4.44a15.45,15.45,0,0,1,.579,5.467,8.65,8.65,0,0,1-9.55,7.161,8.567,8.567,0,0,1-7.394-9.768c.207-1.281.521-2.545.794-3.815C-1312.99,631.707-1312.728,631.5-1311.669,631.474Zm-6.415,16.284a13.566,13.566,0,0,0,15.859,8.13c4.057-1.005,9.015-5.368,9.1-8.115a15.743,15.743,0,0,1-12.493,5.908A16.19,16.19,0,0,1-1318.084,647.758Z" transform="translate(2321.934 2324.55)" fill="#030303"/>
    <path id="Trazado_171386" data-name="Trazado 171386" d="M-1300.931,720.735c-1.059.026-1.321.233-1.541,1.254-.273,1.27-.587,2.534-.794,3.815a8.567,8.567,0,0,0,7.394,9.768,8.65,8.65,0,0,0,9.55-7.161,15.45,15.45,0,0,0-.579-5.467c-.286-1.48-.6-2.956-.859-4.44-.184-1.046-.3-2.1-.458-3.188,3.646,1.651,7.839,7.062,6.838,13.776a13.65,13.65,0,0,1-12.654,11.508,13.579,13.579,0,0,1-13.946-10.4,13.464,13.464,0,0,1,6.6-14.926c-.166.947-.221,1.838.957,2.107Q-1300.677,719.059-1300.931,720.735Z" transform="translate(2311.196 2235.288)" fill="#ecc69b"/>
    <path id="Trazado_171387" data-name="Trazado 171387" d="M-1273.106,711.486q.255-1.677.51-3.354a1.221,1.221,0,0,0,1.3-1.259c.079-.958.2-1.914.271-2.872.029-.378.1-.491.515-.354a10.859,10.859,0,0,0,7.116-.011c.359-.123.458-.033.478.319a100.959,100.959,0,0,0,2.063,12.838,5.843,5.843,0,0,1-2.691,6.2,6.055,6.055,0,0,1-6.9-.033,5.977,5.977,0,0,1-2.661-6.149c.181-1.2.468-2.4.751-3.583A1.344,1.344,0,0,0-1273.106,711.486Z" transform="translate(2283.371 2244.538)" fill="#e5a42e"/>
    <path id="Trazado_171388" data-name="Trazado 171388" d="M-1289.507,873.824a1.391,1.391,0,0,0,1.713.109c-.046.227-.1.453-.137.682a14.851,14.851,0,0,1-6.942,10.394,14.022,14.022,0,0,1-9,2.251,13.55,13.55,0,0,1-6.708-10,13.622,13.622,0,0,1,2.375-10.067c.142-.208.232-.551.6-.158a14.792,14.792,0,0,0,11.674,4.775c-1.025,1.042-1.993,2.029-2.964,3.013-.308.312-.455-.022-.617-.179-1.211-1.181-2.411-2.373-3.619-3.557-1.014-.994-1.62-.986-2.648.026-.854.839-1.713,1.673-2.556,2.522a1.412,1.412,0,0,0,0,2.3q4.024,3.98,8.072,7.935a1.435,1.435,0,0,0,2.313-.014c1.993-1.944,3.963-3.912,5.963-5.849a1.412,1.412,0,0,0,.281-1.83C-1291.088,875.287-1290.165,874.679-1289.507,873.824Z" transform="translate(2313.089 2115.366)" fill="#28c65d"/>
    <path id="Trazado_171389" data-name="Trazado 171389" d="M-1277.818,886.781a14.022,14.022,0,0,0,9-2.251,14.85,14.85,0,0,0,6.942-10.394c.038-.229.091-.455.137-.682.657-.664,1.32-1.322,1.969-1.993a1.407,1.407,0,0,0-.009-2.243c-.414-.43-1.132-.827-1.172-1.285-.042-.487.779-.814,1.156-1.276.1-.121.2-.243.328-.407a13.347,13.347,0,0,1,2.712,6.291,13.981,13.981,0,0,1-9.535,15.562A13.388,13.388,0,0,1-1277.818,886.781Z" transform="translate(2287.031 2115.844)" fill="#28c65d"/>
    <path id="Trazado_171390" data-name="Trazado 171390" d="M-1271.507,885.2c-.658.855-1.58,1.463-2.2,2.353-.924-.55-1.272-.507-2.05.256-1.635,1.606-3.277,3.2-4.9,4.827-.336.337-.526.4-.906.022q-3.057-3.074-6.181-6.083c-.353-.341-.343-.505,0-.844,1.285-1.261,1.273-1.278,2.574,0,.968.948,1.923,1.907,2.9,2.85a1.452,1.452,0,0,0,2.317-.011c1.938-1.892,3.887-3.773,5.787-5.7a10.27,10.27,0,0,1,2.915-1.588c.427-.223.7.477,1.025.763.3.262-.087.387-.21.531a8.136,8.136,0,0,1-.775.771A1.277,1.277,0,0,0-1271.507,885.2Z" transform="translate(2295.088 2103.988)" fill="#fefefe"/>
    <path id="Trazado_171391" data-name="Trazado 171391" d="M-1303.5,819.392a16.19,16.19,0,0,0,12.461,5.923,15.743,15.743,0,0,0,12.493-5.908c-.08,2.747-5.039,7.11-9.1,8.115A13.566,13.566,0,0,1-1303.5,819.392Z" transform="translate(2307.352 2152.916)" fill="#e5a42e"/>
    <path id="Trazado_171392" data-name="Trazado 171392" d="M-1270.928,856.075a12.092,12.092,0,0,1-11.324,4.711,11.8,11.8,0,0,1-8.377-4.708l-.012.009c.244-.054.378.14.542.253a15.835,15.835,0,0,0,18.64,0c.164-.113.3-.3.541-.259Z" transform="translate(2297.176 2123.895)" fill="#93d4a2"/>
    <path id="Trazado_171393" data-name="Trazado 171393" d="M-1195.448,855.276l.006-.032-.018.02Z" transform="translate(2221.875 2124.552)" fill="#93d4a2"/>
    <path id="Trazado_171394" data-name="Trazado 171394" d="M-1290.751,855.783a.375.375,0,0,1-.042-.047c-.005-.008,0-.023,0-.034.01.03.021.06.03.09Z" transform="translate(2297.299 2124.189)" fill="#93d4a2"/>
    <path id="Trazado_171395" data-name="Trazado 171395" d="M-1196.091,855.341l-.166.153.01.01c-.009-.122.071-.146.168-.151Z" transform="translate(2222.505 2124.475)" fill="#93d4a2"/>
  </g>
</svg>
