<svg xmlns="http://www.w3.org/2000/svg" width="319.313" height="324.527" viewBox="0 0 319.313 324.527">
  <g id="Grupo_111248" data-name="Grupo 111248" transform="translate(-410.733 -2113.284)">
    <path id="Trazado_171275" data-name="Trazado 171275" d="M-2130.014,1347.944l-9.533,19.8-93.241,193.616q-4.515-2.282-8.975-4.673a416.95,416.95,0,0,1-63.292-41.774,418.707,418.707,0,0,1-65.4-65.4,416.728,416.728,0,0,1-41.788-63.3q-3.938-7.34-7.575-14.835a413.744,413.744,0,0,1-26.413-69.91q-1.634-5.9-3.1-11.854l19.377-4.424,169.223-38.623,42.624-9.731A178.836,178.836,0,0,0-2130.014,1347.944Z" transform="translate(2860.061 876.451)" fill="#c99a28"/>
    <path id="Trazado_171276" data-name="Trazado 171276" d="M-2113.951,1396.971l-93.241,193.616q-4.516-2.283-8.975-4.673l-66.575-66.575L-2320.079,1482q-5.946-6.784-11.572-13.821a399.277,399.277,0,0,1-47.357-74.963,396.569,396.569,0,0,1-23.839-61.808l181.833-41.5,38.543,38.543a196.725,196.725,0,0,0,53.881,53.881Z" transform="translate(2834.465 847.225)" fill="#7b5d14" opacity="0.3"/>
    <path id="Trazado_171285" data-name="Trazado 171285" d="M-2126.374,1379.026l-.244.507-88.169,183.087a400.256,400.256,0,0,1-54.116-36.458q-7.051-5.636-13.84-11.6a401.459,401.459,0,0,1-37.336-37.336q-5.946-6.784-11.572-13.821a399.274,399.274,0,0,1-47.357-74.963,396.561,396.561,0,0,1-23.839-61.808l181.833-41.5,17.057-3.893a195.024,195.024,0,0,0,21.486,42.436,196.723,196.723,0,0,0,53.881,53.881C-2127.858,1378.054-2127.115,1378.543-2126.374,1379.026Z" transform="translate(2834.465 851.996)" fill="#ffecb3"/>
    <path id="Trazado_171286" data-name="Trazado 171286" d="M-2205.295,1562.852a392.937,392.937,0,0,1-45.169-31.188,393.3,393.3,0,0,1-61.427-61.432,391.093,391.093,0,0,1-46.354-73.373,389.227,389.227,0,0,1-20.705-51.9l182.878-41.743A205.863,205.863,0,0,0-2124,1394.038Z" transform="translate(2821.307 839.893)" fill="#fffae8"/>
    <circle id="Elipse_5837" data-name="Elipse 5837" cx="32.5" cy="32.5" r="32.5" transform="translate(546 2213)" fill="#28c65d"/>
    <path id="Trazado_171589" data-name="Trazado 171589" d="M13.228-21.636v3.882h-.22a7.411,7.411,0,0,0-4.548,1.326,5.6,5.6,0,0,0-2.19,3.684,5.773,5.773,0,0,1,4.219-1.641A5.385,5.385,0,0,1,14.9-12.363a8.153,8.153,0,0,1,1.641,5.3,7.466,7.466,0,0,1-.959,3.735A6.846,6.846,0,0,1,12.9-.667,7.7,7.7,0,0,1,9.082.293,7.961,7.961,0,0,1,5.024-.74,7.1,7.1,0,0,1,2.241-3.691,9.719,9.719,0,0,1,1.216-8.115v-1.978a12.312,12.312,0,0,1,1.414-5.925,10.248,10.248,0,0,1,4.036-4.124,11.538,11.538,0,0,1,5.815-1.494ZM8.774-10.576a2.833,2.833,0,0,0-1.641.452,2.875,2.875,0,0,0-.981,1.109v1.473q0,4.026,2.8,4.026a2.272,2.272,0,0,0,1.882-1.007,4.09,4.09,0,0,0,.754-2.524,4.015,4.015,0,0,0-.769-2.546A2.463,2.463,0,0,0,8.774-10.576Z" transform="translate(570 2256)" fill="#12263f"/>
    <g id="Grupo_111105" data-name="Grupo 111105" transform="translate(348.729 1882.965)">
      <g id="Circular_path" data-name="Circular path" transform="translate(231.997 310.082)">
        <g id="Grupo_111098" data-name="Grupo 111098" transform="translate(0 0)">
          <path id="Trazado_171299" data-name="Trazado 171299" d="M438.788,311.224a.735.735,0,0,1-.782.687.754.754,0,0,1-.7-.779.734.734,0,0,1,.783-.708A.751.751,0,0,1,438.788,311.224Z" transform="translate(-437.308 -310.421)" fill="#28c65d"/>
          <path id="Trazado_171300" data-name="Trazado 171300" d="M456.437,312.955a.742.742,0,1,1-1.471-.187.742.742,0,1,1,1.471.187Z" transform="translate(-451.271 -311.762)" fill="#28c65d"/>
          <path id="Trazado_171301" data-name="Trazado 171301" d="M473.917,315.879a.742.742,0,0,1-1.453-.3.742.742,0,1,1,1.453.3Z" transform="translate(-465.104 -314.02)" fill="#28c65d"/>
          <path id="Trazado_171302" data-name="Trazado 171302" d="M491.14,320.145a.742.742,0,1,1-1.427-.405.742.742,0,1,1,1.427.405Z" transform="translate(-478.738 -317.361)" fill="#28c65d"/>
          <path id="Trazado_171303" data-name="Trazado 171303" d="M508,325.592a.745.745,0,0,1-.947.438.734.734,0,0,1-.449-.938.753.753,0,0,1,.956-.463A.741.741,0,0,1,508,325.592Z" transform="translate(-492.084 -321.626)" fill="#28c65d"/>
          <path id="Trazado_171304" data-name="Trazado 171304" d="M524.43,332.287a.749.749,0,0,1-.979.375.758.758,0,0,1-.372-.986.73.73,0,0,1,.979-.375A.739.739,0,0,1,524.43,332.287Z" transform="translate(-505.099 -326.883)" fill="#28c65d"/>
          <path id="Trazado_171305" data-name="Trazado 171305" d="M540.313,340.137a.75.75,0,0,1-1,.3.735.735,0,0,1-.308-.994.752.752,0,0,1,1.012-.319A.737.737,0,0,1,540.313,340.137Z" transform="translate(-517.678 -333.056)" fill="#28c65d"/>
          <path id="Trazado_171306" data-name="Trazado 171306" d="M555.608,349.124a.747.747,0,0,1-1.023.229.757.757,0,0,1-.226-1.029.73.73,0,0,1,1.023-.229A.739.739,0,0,1,555.608,349.124Z" transform="translate(-529.8 -340.124)" fill="#28c65d"/>
          <path id="Trazado_171307" data-name="Trazado 171307" d="M570.191,359.193a.75.75,0,0,1-1.034.151.735.735,0,0,1-.161-1.029.751.751,0,0,1,1.047-.169A.737.737,0,0,1,570.191,359.193Z" transform="translate(-541.354 -348.057)" fill="#28c65d"/>
          <path id="Trazado_171308" data-name="Trazado 171308" d="M584.032,370.277a.748.748,0,0,1-1.045.08.757.757,0,0,1-.076-1.051.73.73,0,0,1,1.045-.08A.739.739,0,0,1,584.032,370.277Z" transform="translate(-552.333 -356.788)" fill="#28c65d"/>
          <path id="Trazado_171309" data-name="Trazado 171309" d="M597.022,382.34a.749.749,0,0,1-1.044,0,.735.735,0,0,1-.013-1.041.751.751,0,0,1,1.061-.018A.738.738,0,0,1,597.022,382.34Z" transform="translate(-562.632 -366.302)" fill="#28c65d"/>
          <path id="Trazado_171310" data-name="Trazado 171310" d="M609.128,395.289a.748.748,0,0,1-1.047-.07.757.757,0,0,1,.076-1.051.731.731,0,0,1,1.046.07A.739.739,0,0,1,609.128,395.289Z" transform="translate(-572.241 -376.512)" fill="#28c65d"/>
          <path id="Trazado_171311" data-name="Trazado 171311" d="M620.262,409.091a.747.747,0,0,1-1.033-.149.735.735,0,0,1,.137-1.032.752.752,0,0,1,1.053.134A.74.74,0,0,1,620.262,409.091Z" transform="translate(-581.077 -387.406)" fill="#28c65d"/>
          <path id="Trazado_171312" data-name="Trazado 171312" d="M630.378,423.641a.749.749,0,0,1-1.026-.219.757.757,0,0,1,.225-1.029.742.742,0,1,1,.8,1.248Z" transform="translate(-589.115 -398.887)" fill="#28c65d"/>
          <path id="Trazado_171313" data-name="Trazado 171313" d="M639.421,438.9a.747.747,0,0,1-1-.3.735.735,0,0,1,.283-1,.752.752,0,0,1,1.023.285A.74.74,0,0,1,639.421,438.9Z" transform="translate(-596.302 -410.94)" fill="#28c65d"/>
          <path id="Trazado_171314" data-name="Trazado 171314" d="M647.325,454.758a.748.748,0,0,1-.983-.366.757.757,0,0,1,.372-.986.73.73,0,0,1,.983.366A.739.739,0,0,1,647.325,454.758Z" transform="translate(-602.592 -423.458)" fill="#28c65d"/>
          <path id="Trazado_171315" data-name="Trazado 171315" d="M654.074,471.167a.752.752,0,0,1-.949-.437.736.736,0,0,1,.426-.95.751.751,0,0,1,.97.43A.736.736,0,0,1,654.074,471.167Z" transform="translate(-607.968 -436.425)" fill="#28c65d"/>
          <path id="Trazado_171316" data-name="Trazado 171316" d="M659.591,488a.746.746,0,0,1-.918-.5.76.76,0,0,1,.513-.922.728.728,0,0,1,.918.5A.741.741,0,0,1,659.591,488Z" transform="translate(-612.374 -449.724)" fill="#28c65d"/>
          <path id="Trazado_171317" data-name="Trazado 171317" d="M663.891,505.216a.761.761,0,0,1-.882-.569.738.738,0,0,1,.562-.879.749.749,0,0,1,.9.567A.727.727,0,0,1,663.891,505.216Z" transform="translate(-615.811 -463.333)" fill="#28c65d"/>
          <path id="Trazado_171318" data-name="Trazado 171318" d="M666.911,522.678a.741.741,0,0,1-.831-.633.764.764,0,0,1,.641-.838.724.724,0,0,1,.835.632A.746.746,0,0,1,666.911,522.678Z" transform="translate(-618.249 -477.134)" fill="#28c65d"/>
          <path id="Trazado_171319" data-name="Trazado 171319" d="M668.672,540.329a.762.762,0,0,1-.8-.69.745.745,0,0,1,1.487-.1A.726.726,0,0,1,668.672,540.329Z" transform="translate(-619.67 -491.094)" fill="#28c65d"/>
          <path id="Trazado_171320" data-name="Trazado 171320" d="M669.184,558.054a.734.734,0,0,1-.726-.745.749.749,0,0,1,.739-.738.738.738,0,0,1,.751.744A.753.753,0,0,1,669.184,558.054Z" transform="translate(-620.135 -505.113)" fill="#28c65d"/>
          <path id="Trazado_171321" data-name="Trazado 171321" d="M668.383,575.768a.741.741,0,1,1,.112-1.479.741.741,0,1,1-.112,1.479Z" transform="translate(-619.531 -519.126)" fill="#28c65d"/>
          <path id="Trazado_171322" data-name="Trazado 171322" d="M666.4,593.379a.742.742,0,0,1-.615-.841.733.733,0,0,1,.83-.626.754.754,0,0,1,.643.846A.743.743,0,0,1,666.4,593.379Z" transform="translate(-618.014 -533.06)" fill="#28c65d"/>
          <path id="Trazado_171323" data-name="Trazado 171323" d="M663.045,610.805a.747.747,0,0,1-.56-.886.758.758,0,0,1,.893-.559.729.729,0,0,1,.56.886A.74.74,0,0,1,663.045,610.805Z" transform="translate(-615.396 -546.854)" fill="#28c65d"/>
          <path id="Trazado_171324" data-name="Trazado 171324" d="M658.536,627.931a.757.757,0,0,1-.495-.924.737.737,0,0,1,.916-.5.749.749,0,0,1,.51.929A.73.73,0,0,1,658.536,627.931Z" transform="translate(-611.875 -560.407)" fill="#28c65d"/>
          <path id="Trazado_171325" data-name="Trazado 171325" d="M652.693,644.7a.744.744,0,0,1-.424-.957.762.762,0,0,1,.968-.423.727.727,0,0,1,.424.957A.742.742,0,0,1,652.693,644.7Z" transform="translate(-607.292 -573.69)" fill="#28c65d"/>
          <path id="Trazado_171326" data-name="Trazado 171326" d="M645.744,660.976a.762.762,0,0,1-.358-.987.739.739,0,0,1,.98-.359.747.747,0,0,1,.369.992A.726.726,0,0,1,645.744,660.976Z" transform="translate(-601.836 -586.573)" fill="#28c65d"/>
          <path id="Trazado_171327" data-name="Trazado 171327" d="M637.537,676.734a.743.743,0,0,1-.28-1.007.762.762,0,0,1,1.018-.279.725.725,0,0,1,.281,1.008A.743.743,0,0,1,637.537,676.734Z" transform="translate(-595.382 -599.065)" fill="#28c65d"/>
          <path id="Trazado_171328" data-name="Trazado 171328" d="M628.307,691.82a.763.763,0,0,1-.213-1.029.745.745,0,0,1,1.243.822A.725.725,0,0,1,628.307,691.82Z" transform="translate(-588.119 -611.01)" fill="#28c65d"/>
          <path id="Trazado_171329" data-name="Trazado 171329" d="M617.919,706.24a.744.744,0,0,1-.132-1.037.762.762,0,0,1,1.048-.129.725.725,0,0,1,.133,1.038A.744.744,0,0,1,617.919,706.24Z" transform="translate(-579.935 -622.45)" fill="#28c65d"/>
          <path id="Trazado_171330" data-name="Trazado 171330" d="M606.61,719.835a.761.761,0,0,1-.062-1.048.745.745,0,0,1,1.112.991A.726.726,0,0,1,606.61,719.835Z" transform="translate(-571.026 -633.22)" fill="#28c65d"/>
        </g>
      </g>
      <g id="Arrow" transform="translate(177.732 309.993)">
        <path id="Trazado_171331" data-name="Trazado 171331" d="M259.685,402.794a50.554,50.554,0,1,1-29.911-91.311h0a.745.745,0,1,0,0-1.49h0a52.042,52.042,0,1,0,30.793,94h0a.745.745,0,0,0-.883-1.2Z" transform="translate(-177.732 -309.993)" fill="#28c65d"/>
        <path id="Trazado_171332" data-name="Trazado 171332" d="M553.081,734.009l4.679,5.72,5.814-9.53Z" transform="translate(-474.613 -642.353)" fill="#28c65d"/>
      </g>
    </g>
  </g>
</svg>
