<svg xmlns="http://www.w3.org/2000/svg" width="125.868" height="125.868" viewBox="0 0 125.868 125.868">
  <g id="Grupo_111262" data-name="Grupo 111262" transform="translate(-601.001 -6760.007)">
    <path id="Trazado_170231" data-name="Trazado 170231" d="M39.6,105.186a62.943,62.943,0,0,1-62.938,62.938,62.936,62.936,0,0,1-62.93-62.938,62.935,62.935,0,0,1,62.93-62.93A62.941,62.941,0,0,1,39.6,105.186Z" transform="translate(687.268 6717.751)" fill="#7b5d14"/>
    <g id="Grupo_110839" data-name="Grupo 110839" transform="translate(642 6804.007)">
      <g id="Grupo_110837" data-name="Grupo 110837">
        <path id="Trazado_170243" data-name="Trazado 170243" d="M-73.068,86.556a9.076,9.076,0,0,1-5.127-1.372,8.436,8.436,0,0,1-3.1-3.861,14.079,14.079,0,0,1-1.017-5.653V59.833q0-5.12,2.311-8.014c1.536-1.941,3.847-2.9,6.933-2.9,3.051,0,5.355.96,6.891,2.93a12.5,12.5,0,0,1,2.34,7.986V75.669A12.416,12.416,0,0,1-66.2,83.612,8.238,8.238,0,0,1-73.068,86.556Zm0-4.309c2.624,0,3.954-2.2,3.954-6.578V59.833a17.88,17.88,0,0,0-.092-1.97,7.8,7.8,0,0,0-.348-1.778,4.67,4.67,0,0,0-.661-1.5,3.131,3.131,0,0,0-1.131-.96,3.742,3.742,0,0,0-1.721-.363,3.7,3.7,0,0,0-1.721.363,2.884,2.884,0,0,0-1.138.96,4.829,4.829,0,0,0-.7,1.5,7.754,7.754,0,0,0-.306,1.778,16.036,16.036,0,0,0-.107,1.97V75.669a13.725,13.725,0,0,0,.192,2.389,8.026,8.026,0,0,0,.569,2.069,3.7,3.7,0,0,0,1.23,1.536A3.33,3.33,0,0,0-73.068,82.247Z" transform="translate(82.312 -48.918)" fill="#fff"/>
      </g>
      <g id="Grupo_110838" data-name="Grupo 110838" transform="translate(22.172 0.334)">
        <path id="Trazado_170244" data-name="Trazado 170244" d="M-68.649,85.935v-9.5H-79.194V70.575l9.216-21.61h6.585V71.45h4.1v4.985h-4.1v9.5ZM-73.939,71.45h5.291V55.564Z" transform="translate(79.194 -48.965)" fill="#fff"/>
      </g>
    </g>
  </g>
</svg>
