<svg xmlns="http://www.w3.org/2000/svg" width="125.86" height="125.867" viewBox="0 0 125.86 125.867">
  <g id="Grupo_111263" data-name="Grupo 111263" transform="translate(-872 -310)">
    <path id="Trazado_170315" data-name="Trazado 170315" d="M74.712,105.186a62.93,62.93,0,1,1-62.93-62.93A62.936,62.936,0,0,1,74.712,105.186Z" transform="translate(923.148 267.744)" fill="#43a047"/>
    <g id="Grupo_110850" data-name="Grupo 110850" transform="translate(916 354)">
      <g id="Grupo_110831" data-name="Grupo 110831">
        <path id="Trazado_170239" data-name="Trazado 170239" d="M-36.276,85.629a8.941,8.941,0,0,1-5.006-1.387,8.3,8.3,0,0,1-3.036-3.755,14.316,14.316,0,0,1-.981-5.5V59.56a12.334,12.334,0,0,1,2.268-7.808c1.486-1.87,3.747-2.83,6.755-2.83,2.972,0,5.227.96,6.727,2.83a12.259,12.259,0,0,1,2.261,7.808V74.991a12.009,12.009,0,0,1-2.3,7.722A8,8,0,0,1-36.276,85.629Zm0-4.238q3.808,0,3.811-6.4V59.56c0-.7,0-1.372-.036-1.934a7.609,7.609,0,0,0-.341-1.721,4.53,4.53,0,0,0-.661-1.458,2.769,2.769,0,0,0-1.131-.932,3.242,3.242,0,0,0-1.643-.37,3.328,3.328,0,0,0-1.678.37,2.659,2.659,0,0,0-1.109.932,4.534,4.534,0,0,0-.668,1.458,7.582,7.582,0,0,0-.327,1.721c-.057.562-.071,1.237-.071,1.934V74.991a19.074,19.074,0,0,0,.156,2.318,8.669,8.669,0,0,0,.583,2.041,3.819,3.819,0,0,0,1.209,1.515A3.106,3.106,0,0,0-36.276,81.39Z" transform="translate(45.3 -48.922)" fill="#fff"/>
      </g>
      <g id="Grupo_110832" data-name="Grupo 110832" transform="translate(21.375)">
        <path id="Trazado_170240" data-name="Trazado 170240" d="M-42.294,85.266V80.118l9-12.849c.078-.142.334-.455.7-.974.348-.5.6-.832.718-1.038.107-.171.327-.491.633-.946a11.652,11.652,0,0,0,.612-1.052c.114-.27.277-.59.455-1.074a8.96,8.96,0,0,0,.42-1.223c.064-.334.149-.747.213-1.237a10.861,10.861,0,0,0,.092-1.444,6.547,6.547,0,0,0-.981-3.648,3.254,3.254,0,0,0-2.866-1.486,3.5,3.5,0,0,0-1.891.54,3.7,3.7,0,0,0-1.195,1.486,8.864,8.864,0,0,0-.6,2.069,14.589,14.589,0,0,0-.185,2.318v1.308h-5.127V59.56c0-3.363.7-5.973,2.162-7.843s3.7-2.795,6.834-2.795c2.944,0,5.134.818,6.691,2.475,1.529,1.621,2.29,3.925,2.29,6.883a15.643,15.643,0,0,1-.284,3.1,11.184,11.184,0,0,1-.91,2.78,20.132,20.132,0,0,1-1.18,2.19c-.341.569-.846,1.308-1.472,2.183l-9,11.584h12.849v5.148Z" transform="translate(42.294 -48.922)" fill="#fff"/>
      </g>
    </g>
  </g>
</svg>
