<svg xmlns="http://www.w3.org/2000/svg" width="125.87" height="125.869" viewBox="0 0 125.87 125.869">
  <g id="Grupo_111257" data-name="Grupo 111257" transform="translate(-735 -6614.007)">
    <path id="Trazado_171612" data-name="Trazado 171612" d="M62.935,0A62.935,62.935,0,1,1,0,62.935,62.935,62.935,0,0,1,62.935,0Z" transform="translate(735 6614.007)" fill="#43a047"/>
    <g id="Grupo_110830" data-name="Grupo 110830" transform="translate(781 6657.006)">
      <g id="Grupo_110828" data-name="Grupo 110828">
        <path id="Trazado_170237" data-name="Trazado 170237" d="M-53.339,70.068a9.462,9.462,0,0,1-5.5-1.557,8.5,8.5,0,0,1-3.321-4.124,15.447,15.447,0,0,1-1.1-6.08V41.333c0-3.627.811-6.514,2.489-8.569,1.643-2.126,4.131-3.164,7.431-3.164,3.278,0,5.753,1.067,7.417,3.164s2.482,4.942,2.482,8.569V58.307c0,3.57-.846,6.428-2.531,8.54A8.855,8.855,0,0,1-53.339,70.068Zm0-4.665q4.235,0,4.238-7.1V41.333c0-.775-.028-1.515-.078-2.126a9.9,9.9,0,0,0-.377-1.892,5.346,5.346,0,0,0-.732-1.621,3.354,3.354,0,0,0-1.223-1.052,4.072,4.072,0,0,0-1.827-.377,4.22,4.22,0,0,0-1.856.377,3.148,3.148,0,0,0-1.195,1.052,5.729,5.729,0,0,0-.768,1.621,13.586,13.586,0,0,0-.348,1.892c-.057.612-.1,1.351-.1,2.126V58.307a14.993,14.993,0,0,0,.2,2.581,10.006,10.006,0,0,0,.647,2.24,3.872,3.872,0,0,0,1.3,1.664A3.7,3.7,0,0,0-53.339,65.4Z" transform="translate(63.259 -29.6)" fill="#fff"/>
      </g>
      <g id="Grupo_110829" data-name="Grupo 110829" transform="translate(23.359 0.398)">
        <path id="Trazado_170238" data-name="Trazado 170238" d="M-55.736,69.292V38.175h-4.238V33.923c2.88-1.031,4.736-2.446,5.653-4.267h4.252V69.292Z" transform="translate(59.974 -29.656)" fill="#fff"/>
      </g>
    </g>
  </g>
</svg>
