<svg xmlns="http://www.w3.org/2000/svg" width="76.322" height="88" viewBox="0 0 76.322 88">
  <g id="Grupo_110783" data-name="Grupo 110783" transform="translate(442.203 -1808.072)">
    <path id="Trazado_170004" data-name="Trazado 170004" d="M-396.6,1811.045c.835-.957,1.347-1.066,2.453-.415,7.136,4.195,10.691,10.431,10.59,18.715-.008.622.133.754.73.75,3.582-.028,7.164-.019,10.747-.012a5.881,5.881,0,0,1,6.2,6.208q.008,20.935,0,41.869a5.911,5.911,0,0,1-6.281,6.225q-15,.01-30-.01a5.139,5.139,0,0,0-2.759.749q-8.579,5.134-17.192,10.212c-2.9,1.71-6.244.312-6.785-2.848a16.432,16.432,0,0,1-.072-2.659c-.008-1.547-.032-3.1.012-4.642.018-.618-.112-.834-.785-.818-2.062.049-4.126.024-6.19.017a5.913,5.913,0,0,1-6.259-6.247q-.007-20.891,0-41.783a5.893,5.893,0,0,1,6.3-6.274c3.525,0,7.05-.012,10.575.01.58,0,.83-.04.8-.762a20.484,20.484,0,0,1,16.884-20.939c.4-.068.857.016,1.192-.319h4.643c.075.223.273.153.428.173,1.3.173,1.649.536,1.756,1.845a1.644,1.644,0,0,1-1.474,1.118c-1.455.025-1.455.042-1.455,1.527,0,.229.019.461,0,.688-.047.473.154.627.625.69a14.759,14.759,0,0,1,5.466,1.935c.606.351,1.141,1.205,1.771,1.018s1.087-.967,1.619-1.487a.574.574,0,0,1,.06-.061c.32-.232.27-.427-.026-.654a21.111,21.111,0,0,0-2.5-1.667C-396.638,1812.578-396.765,1812.31-396.6,1811.045Zm-18.137,35.19a1.9,1.9,0,0,0-.218-.259,20.371,20.371,0,0,1-8.957-12.241c-.169-.618-.432-.74-1-.737-3.639.02-7.278.009-10.917.011-2.264,0-3.448,1.18-3.448,3.435q0,20.8,0,41.6a3.068,3.068,0,0,0,3.386,3.419c2.235.007,4.47,0,6.7,0a2.892,2.892,0,0,1,3.134,3.164c.006,2.206.017,4.413-.007,6.619a1.751,1.751,0,0,0,.831,1.751c.661.375,1.207.053,1.76-.275,5.659-3.364,11.33-6.709,16.972-10.1a8.035,8.035,0,0,1,4.311-1.175c10,.03,20,.018,30,.013a3.037,3.037,0,0,0,3.375-3.258q.011-21.017,0-42.035a3,3,0,0,0-3.2-3.164c-3.725-.009-7.45.009-11.175-.015a.836.836,0,0,0-.989.751,20.154,20.154,0,0,1-6.553,10.45c-.814.683-1.68,1.3-2.635,2.039h13.553c1.447,0,2.2.5,2.2,1.461s-.767,1.469-2.2,1.469h-48.482c-.2,0-.4.006-.6,0a1.544,1.544,0,0,1-1.582-1.48,1.514,1.514,0,0,1,1.61-1.441c2.636-.013,5.272-.005,7.908-.005Zm-1.019-17.632a11.743,11.743,0,0,0,11.727,11.758,11.745,11.745,0,0,0,11.705-11.781,11.75,11.75,0,0,0-11.685-11.716A11.737,11.737,0,0,0-415.759,1828.6Zm10.27-16.028c0-1.577,0-1.558-1.6-1.282a17.4,17.4,0,0,0-6.992,2.87c-1.384.954-1.38.961-.222,2.12a5.039,5.039,0,0,1,.48.489c.325.429.613.433,1.05.092a13.4,13.4,0,0,1,6.307-2.7c.814-.124,1.11-.384.98-1.164A2.661,2.661,0,0,1-405.488,1812.574Zm17.479,14.578c.344,0,.689-.017,1.031,0,.4.024.49-.155.444-.516a17.964,17.964,0,0,0-3.68-8.937c-.27-.347-.475-.429-.8-.061a10.292,10.292,0,0,1-1.155,1.152c-.448.371-.449.67-.095,1.129a14.179,14.179,0,0,1,2.625,5.909C-389.366,1827.151-389.376,1827.153-388.01,1827.153Zm1.449,3.485c.129-.471-.09-.577-.487-.562a9.807,9.807,0,0,1-1.629-.009c-.664-.086-.825.244-.9.8a14.835,14.835,0,0,1-1.925,5.37c-.338.6-1.212,1.08-.965,1.773.218.611.957,1.029,1.436,1.559.308.341.5.337.793-.036A17.742,17.742,0,0,0-386.561,1830.638Zm-33.531-.557a4.835,4.835,0,0,1-.686-.005c-.741-.106-.815.2-.717.874a18.025,18.025,0,0,0,2.7,7.254c1.215,1.886,1.223,1.881,2.766.327a1.6,1.6,0,0,1,.183-.181c.431-.311.357-.611.058-1a14.3,14.3,0,0,1-2.65-5.891C-418.733,1830.082-418.726,1830.081-420.092,1830.081Zm-1.436-3.47c-.1.439.082.557.447.547a10.339,10.339,0,0,1,1.629.01c.695.09.871-.251.947-.844a14.292,14.292,0,0,1,1.943-5.362c.335-.578,1.14-1.077.959-1.7-.168-.582-.888-1-1.365-1.5a1.653,1.653,0,0,1-.121-.122c-.257-.329-.467-.316-.733.024A17.682,17.682,0,0,0-421.528,1826.611Zm16,18.052a2.62,2.62,0,0,1,0-.429c.13-.769-.139-1.066-.963-1.179a13.925,13.925,0,0,1-5.194-1.921c-.578-.342-1.1-1.151-1.7-.973s-1.021.955-1.564,1.418c-.423.361-.377.561.052.887a17.544,17.544,0,0,0,7.842,3.467C-405.531,1846.188-405.532,1846.2-405.532,1844.662Zm2.98-.029c0,1.549,0,1.559.991,1.408a17.626,17.626,0,0,0,7.936-3.254c.97-.716.968-.719.142-1.545a9.3,9.3,0,0,1-.783-.795c-.344-.439-.631-.4-1.057-.074a13.91,13.91,0,0,1-5.9,2.623C-402.555,1843.255-402.553,1843.265-402.553,1844.633Z" transform="translate(0 0)"/>
    <path id="Trazado_170005" data-name="Trazado 170005" d="M-263.74,1817.809c-.163,1.265-.036,1.533,1.063,2.151a21.081,21.081,0,0,1,2.5,1.667c.3.228.346.422.026.654a.573.573,0,0,0-.06.061c-.533.52-.988,1.3-1.619,1.487s-1.165-.667-1.771-1.018a14.755,14.755,0,0,0-5.466-1.935c-.471-.063-.672-.216-.625-.69.022-.227,0-.458,0-.687,0-1.485,0-1.5,1.455-1.528a1.643,1.643,0,0,0,1.474-1.118A15.83,15.83,0,0,1-263.74,1817.809Z" transform="translate(-132.863 -6.765)" fill="#f1b732"/>
    <path id="Trazado_170006" data-name="Trazado 170006" d="M-404.935,1929.771h-6.217c-2.636,0-5.272-.008-7.908.005a1.514,1.514,0,0,0-1.61,1.441,1.544,1.544,0,0,0,1.582,1.48c.2.009.4,0,.6,0H-370c1.433,0,2.2-.514,2.2-1.469s-.754-1.46-2.2-1.461h-13.553c.955-.736,1.821-1.356,2.635-2.039a20.155,20.155,0,0,0,6.553-10.45.836.836,0,0,1,.989-.751c3.725.024,7.45.006,11.175.015a3,3,0,0,1,3.2,3.164q.009,21.017,0,42.035a3.037,3.037,0,0,1-3.375,3.258c-10,0-20,.017-30-.013a8.034,8.034,0,0,0-4.311,1.175c-5.643,3.391-11.313,6.736-16.972,10.1-.553.328-1.1.65-1.76.275a1.751,1.751,0,0,1-.831-1.751c.024-2.206.013-4.413.007-6.619a2.892,2.892,0,0,0-3.134-3.164c-2.235-.008-4.47,0-6.7,0a3.068,3.068,0,0,1-3.386-3.419q0-20.8,0-41.6c0-2.255,1.184-3.434,3.448-3.435,3.639,0,7.278.01,10.917-.011.566,0,.83.119,1,.737a20.371,20.371,0,0,0,8.957,12.242A1.874,1.874,0,0,1-404.935,1929.771Zm5.593,22.01h22a4.687,4.687,0,0,0,.858-.021,1.437,1.437,0,0,0,1.3-1.382,1.392,1.392,0,0,0-1.069-1.479,3.238,3.238,0,0,0-.94-.045q-22.176,0-44.351,0a6.475,6.475,0,0,0-.687.01,1.448,1.448,0,0,0-1.358,1.328,1.4,1.4,0,0,0,1.13,1.506,4.379,4.379,0,0,0,1.02.081Q-410.387,1951.784-399.342,1951.781Zm3.59-11.713q9.367,0,18.735,0c1.134,0,1.834-.578,1.856-1.475s-.658-1.479-1.8-1.544c-.114-.006-.229,0-.344,0q-18.391,0-36.782,0c-1.429,0-2.173.538-2.157,1.534s.753,1.489,2.188,1.49Zm-11.715,17.568h14.082a5.343,5.343,0,0,0,.772-.018,1.52,1.52,0,0,0,1.3-1.48,1.474,1.474,0,0,0-1.354-1.417,6.154,6.154,0,0,0-.686-.01h-28.164c-.229,0-.46-.014-.687.009a1.408,1.408,0,0,0-1.278.983c-.376,1.05.38,1.932,1.68,1.933Q-414.637,1957.641-407.467,1957.635Zm15.478-14.64c-3.12,0-6.241,0-9.361,0-1.073,0-1.653.51-1.666,1.416a1.487,1.487,0,0,0,1.622,1.505q9.317.017,18.635,0a1.557,1.557,0,0,0,1.737-1.508c0-.881-.66-1.412-1.779-1.414Q-387.395,1942.99-391.989,1943Zm-22.8,0c-2.375,0-4.75,0-7.124,0a1.55,1.55,0,0,0-1.689,1.433,1.543,1.543,0,0,0,1.671,1.486q7.167.023,14.335,0a1.529,1.529,0,0,0,1.642-1.512c-.009-.837-.683-1.4-1.71-1.405C-410.044,1942.991-412.419,1943-414.793,1943Zm43.35,0c-1.688,0-3.376-.011-5.064,0a1.391,1.391,0,0,0-1.57,1.424,1.5,1.5,0,0,0,1.556,1.493q5.021.029,10.043,0a1.5,1.5,0,0,0,1.594-1.467,1.552,1.552,0,0,0-1.667-1.47C-368.18,1943.045-369.813,1943-371.444,1943Zm2.88-2.93c.686,0,1.374.024,2.059-.005a1.594,1.594,0,0,0,1.637-1.453,1.488,1.488,0,0,0-1.455-1.511,42.345,42.345,0,0,0-4.454.007,1.417,1.417,0,0,0-1.449,1.5,1.546,1.546,0,0,0,1.6,1.46C-369.938,1940.094-369.25,1940.066-368.564,1940.066Zm-.019,8.789v0h-1.969c-.057,0-.114,0-.171,0a1.431,1.431,0,0,0-1.5,1.418,1.491,1.491,0,0,0,1.46,1.495q2.225.054,4.452,0a1.5,1.5,0,0,0,1.439-1.433,1.5,1.5,0,0,0-1.482-1.472C-367.1,1948.832-367.841,1948.855-368.583,1948.855Zm-52.845-8.805a5.987,5.987,0,0,0,.854-.006,1.52,1.52,0,0,0,1.393-1.479,1.426,1.426,0,0,0-1.312-1.441,4.724,4.724,0,0,0-.933-.076c-1.408-.006-2.186.538-2.183,1.51S-422.829,1940.067-421.428,1940.05Z" transform="translate(-9.804 -83.535)" fill="#72e676"/>
    <path id="Trazado_170007" data-name="Trazado 170007" d="M-327.124,1858.067a11.737,11.737,0,0,1,11.747-11.74,11.75,11.75,0,0,1,11.685,11.717,11.746,11.746,0,0,1-11.705,11.782A11.743,11.743,0,0,1-327.124,1858.067Zm15.689-4.59a3.177,3.177,0,0,0-1.8-2.1,1.29,1.29,0,0,1-.788-.99,1.29,1.29,0,0,0-1.349-1.1,1.3,1.3,0,0,0-1.422,1.112,1.211,1.211,0,0,1-.743.927,4.367,4.367,0,0,0-.835,7.067,4.486,4.486,0,0,0,2.967,1.164,1.342,1.342,0,0,1,1.394,1.156,1.356,1.356,0,0,1-.813,1.62,1.407,1.407,0,0,1-1.762-.453c-.076-.085-.131-.189-.208-.273a1.481,1.481,0,0,0-2-.26,1.46,1.46,0,0,0-.334,1.992,3.713,3.713,0,0,0,1.55,1.446,1.214,1.214,0,0,1,.792.987,1.288,1.288,0,0,0,1.347,1.1,1.305,1.305,0,0,0,1.424-1.111,1.209,1.209,0,0,1,.741-.928,4.333,4.333,0,0,0,2.252-4.213,4.4,4.4,0,0,0-3.2-3.846c-.477-.14-.969-.093-1.44-.2a1.341,1.341,0,0,1-1.16-1.209,1.362,1.362,0,0,1,.749-1.5,1.384,1.384,0,0,1,1.724.292c.182.18.319.409.512.576a1.366,1.366,0,0,0,1.6.2A1.452,1.452,0,0,0-311.435,1853.477Z" transform="translate(-88.635 -29.464)" fill="#f9cb3a"/>
    <path id="Trazado_170008" data-name="Trazado 170008" d="M-314.8,1822.888a2.659,2.659,0,0,0,0,.428c.13.781-.166,1.041-.98,1.164a13.4,13.4,0,0,0-6.307,2.7c-.437.341-.725.337-1.05-.093a5.016,5.016,0,0,0-.48-.489c-1.158-1.159-1.163-1.166.222-2.12a17.4,17.4,0,0,1,6.992-2.87C-314.8,1821.33-314.8,1821.311-314.8,1822.888Z" transform="translate(-90.685 -10.314)" fill="#f1b732"/>
    <path id="Trazado_170009" data-name="Trazado 170009" d="M-221.469,1858.427c-1.367,0-1.357,0-1.626-1.319a14.179,14.179,0,0,0-2.625-5.909c-.354-.46-.353-.758.095-1.129a10.3,10.3,0,0,0,1.155-1.152c.322-.368.527-.286.8.06a17.965,17.965,0,0,1,3.68,8.937c.046.361-.048.54-.444.516C-220.78,1858.41-221.125,1858.427-221.469,1858.427Z" transform="translate(-166.54 -31.274)" fill="#f1b732"/>
    <path id="Trazado_170010" data-name="Trazado 170010" d="M-220,1904.311a17.742,17.742,0,0,1-3.676,8.894c-.289.373-.485.377-.793.036-.479-.53-1.217-.947-1.436-1.559-.248-.693.626-1.174.965-1.773a14.835,14.835,0,0,0,1.925-5.37c.073-.555.234-.886.9-.8a9.821,9.821,0,0,0,1.629.009C-220.089,1903.734-219.87,1903.84-220,1904.311Z" transform="translate(-166.562 -73.674)" fill="#f1b732"/>
    <path id="Trazado_170011" data-name="Trazado 170011" d="M-350.8,1903.761c1.366,0,1.359,0,1.654,1.382a14.3,14.3,0,0,0,2.65,5.891c.3.384.373.685-.058,1a1.59,1.59,0,0,0-.183.181c-1.543,1.553-1.551,1.558-2.766-.328a18.023,18.023,0,0,1-2.7-7.254c-.1-.674-.024-.98.717-.873A4.853,4.853,0,0,0-350.8,1903.761Z" transform="translate(-69.293 -73.68)" fill="#f1b732"/>
    <path id="Trazado_170012" data-name="Trazado 170012" d="M-352.324,1857.878a17.68,17.68,0,0,1,3.707-8.947c.266-.34.477-.353.733-.024a1.7,1.7,0,0,0,.121.122c.477.493,1.2.915,1.365,1.5.181.625-.624,1.124-.959,1.7a14.292,14.292,0,0,0-1.943,5.362c-.076.593-.253.934-.947.844a10.339,10.339,0,0,0-1.63-.01C-352.242,1858.435-352.426,1858.317-352.324,1857.878Z" transform="translate(-69.204 -31.267)" fill="#f1b732"/>
    <path id="Trazado_170013" data-name="Trazado 170013" d="M-315.176,1952.13c0,1.533,0,1.525-1.525,1.271a17.541,17.541,0,0,1-7.842-3.467c-.429-.327-.475-.526-.052-.887.542-.463.957-1.238,1.564-1.418s1.123.631,1.7.972a13.92,13.92,0,0,0,5.194,1.921c.825.113,1.093.41.963,1.179A2.616,2.616,0,0,0-315.176,1952.13Z" transform="translate(-90.357 -107.468)" fill="#f1b732"/>
    <path id="Trazado_170014" data-name="Trazado 170014" d="M-269.655,1952.059c0-1.368,0-1.378,1.326-1.636a13.909,13.909,0,0,0,5.9-2.623c.426-.327.713-.365,1.057.074a9.262,9.262,0,0,0,.783.795c.826.826.828.829-.142,1.545a17.628,17.628,0,0,1-7.936,3.254C-269.654,1953.619-269.655,1953.609-269.655,1952.059Z" transform="translate(-132.898 -107.426)" fill="#f1b732"/>
    <path id="Trazado_170015" data-name="Trazado 170015" d="M-379.646,2060.079q-11.045,0-22.09,0a4.372,4.372,0,0,1-1.02-.081,1.4,1.4,0,0,1-1.13-1.506,1.449,1.449,0,0,1,1.358-1.328,6.443,6.443,0,0,1,.687-.01q22.176,0,44.351,0a3.243,3.243,0,0,1,.94.045,1.392,1.392,0,0,1,1.069,1.479,1.438,1.438,0,0,1-1.3,1.382,4.709,4.709,0,0,1-.858.021Z" transform="translate(-29.5 -191.833)"/>
    <path id="Trazado_170016" data-name="Trazado 170016" d="M-351.412,2008.814h-18.3c-1.435,0-2.172-.5-2.188-1.49s.728-1.534,2.157-1.534q18.391,0,36.782,0c.114,0,.229,0,.344,0,1.143.065,1.824.649,1.8,1.545s-.722,1.473-1.856,1.475Q-342.045,2008.821-351.412,2008.814Z" transform="translate(-54.144 -152.282)"/>
    <path id="Trazado_170017" data-name="Trazado 170017" d="M-387.721,2085.58q-7.17,0-14.34,0c-1.3,0-2.055-.884-1.68-1.934a1.408,1.408,0,0,1,1.278-.983c.227-.023.458-.008.687-.009h28.164a6.183,6.183,0,0,1,.686.01,1.474,1.474,0,0,1,1.354,1.417,1.52,1.52,0,0,1-1.3,1.481,5.379,5.379,0,0,1-.772.018Z" transform="translate(-29.55 -211.48)"/>
    <path id="Trazado_170018" data-name="Trazado 170018" d="M-303.308,2031.692q4.594,0,9.189,0c1.119,0,1.776.533,1.779,1.414a1.557,1.557,0,0,1-1.737,1.508q-9.318.016-18.635,0a1.487,1.487,0,0,1-1.622-1.505c.013-.905.593-1.413,1.666-1.416C-309.549,2031.687-306.428,2031.692-303.308,2031.692Z" transform="translate(-98.485 -172.232)"/>
    <path id="Trazado_170019" data-name="Trazado 170019" d="M-395.128,2031.694c2.375,0,4.75,0,7.125,0,1.027,0,1.7.568,1.71,1.4a1.528,1.528,0,0,1-1.642,1.513q-7.167.027-14.335,0a1.543,1.543,0,0,1-1.671-1.486,1.55,1.55,0,0,1,1.689-1.433C-399.878,2031.689-397.5,2031.694-395.128,2031.694Z" transform="translate(-29.469 -172.233)"/>
    <path id="Trazado_170020" data-name="Trazado 170020" d="M-199.18,2031.633c1.631,0,3.264.049,4.892-.018a1.552,1.552,0,0,1,1.667,1.47,1.505,1.505,0,0,1-1.594,1.467q-5.021.035-10.043,0a1.5,1.5,0,0,1-1.556-1.493,1.391,1.391,0,0,1,1.57-1.424C-202.556,2031.622-200.868,2031.633-199.18,2031.633Z" transform="translate(-182.068 -172.172)"/>
    <path id="Trazado_170021" data-name="Trazado 170021" d="M-176.69,2008.811c-.686,0-1.374.028-2.059-.007a1.546,1.546,0,0,1-1.6-1.46,1.417,1.417,0,0,1,1.449-1.5,42.344,42.344,0,0,1,4.454-.007,1.489,1.489,0,0,1,1.455,1.512,1.594,1.594,0,0,1-1.637,1.452C-175.316,2008.835-176,2008.812-176.69,2008.811Z" transform="translate(-201.679 -152.281)"/>
    <path id="Trazado_170022" data-name="Trazado 170022" d="M-176.7,2057.167c.742,0,1.485-.023,2.226.006a1.5,1.5,0,0,1,1.482,1.472,1.5,1.5,0,0,1-1.439,1.433q-2.225.055-4.452,0a1.491,1.491,0,0,1-1.46-1.495,1.431,1.431,0,0,1,1.5-1.418c.057,0,.114,0,.171,0h1.969Z" transform="translate(-201.683 -191.847)"/>
    <path id="Trazado_170023" data-name="Trazado 170023" d="M-401.765,2008.812c-1.4.017-2.176-.52-2.179-1.493s.774-1.516,2.183-1.51a4.733,4.733,0,0,1,.933.077,1.426,1.426,0,0,1,1.312,1.441,1.52,1.52,0,0,1-1.393,1.479A5.969,5.969,0,0,1-401.765,2008.812Z" transform="translate(-29.468 -152.298)"/>
    <path id="Trazado_170024" data-name="Trazado 170024" d="M-286.909,1863.391a1.451,1.451,0,0,1-.807,1.457,1.365,1.365,0,0,1-1.6-.2c-.192-.167-.329-.4-.512-.576a1.384,1.384,0,0,0-1.724-.293,1.363,1.363,0,0,0-.749,1.5,1.341,1.341,0,0,0,1.16,1.209c.471.106.963.059,1.44.2a4.4,4.4,0,0,1,3.2,3.846,4.333,4.333,0,0,1-2.252,4.214,1.208,1.208,0,0,0-.741.928,1.305,1.305,0,0,1-1.424,1.111,1.288,1.288,0,0,1-1.347-1.1,1.213,1.213,0,0,0-.792-.986,3.714,3.714,0,0,1-1.55-1.446,1.46,1.46,0,0,1,.334-1.992,1.481,1.481,0,0,1,2,.259c.076.085.132.188.208.273a1.407,1.407,0,0,0,1.762.453,1.356,1.356,0,0,0,.813-1.62,1.341,1.341,0,0,0-1.394-1.156,4.489,4.489,0,0,1-2.967-1.165,4.367,4.367,0,0,1,.835-7.067,1.211,1.211,0,0,0,.743-.927,1.3,1.3,0,0,1,1.422-1.112,1.29,1.29,0,0,1,1.349,1.1,1.29,1.29,0,0,0,.788.99A3.177,3.177,0,0,1-286.909,1863.391Z" transform="translate(-113.16 -39.379)"/>
  </g>
</svg>
