<svg xmlns="http://www.w3.org/2000/svg" width="72.589" height="90" viewBox="0 0 72.589 90">
  <g id="Grupo_110886" data-name="Grupo 110886" transform="translate(574.959 -1421.893)">
    <path id="Trazado_170349" data-name="Trazado 170349" d="M-574.036,1511.893a2.257,2.257,0,0,1-.923-2.114q.023-36.547,0-73.1a2.171,2.171,0,0,1,.678-1.64q6.272-6.215,12.534-12.44a2.3,2.3,0,0,1,1.723-.709q22.1.016,44.194.01c1.289,0,1.816.516,1.847,1.8.021.878,0,1.757,0,2.635q0,26.357-.024,52.713c0,.834.262,1.053,1.022,1.191a13.041,13.041,0,0,1,10.609,12.835,13.088,13.088,0,0,1-10.879,12.8c-.615.1-.761.313-.739.881.039,1.023-.011,2.05.018,3.074a2.072,2.072,0,0,1-1,2.063Zm1.969-38.505v34.446c0,1.142,0,1.142,1.109,1.142h51.76c2.388,0,2.371,0,2.307-2.394-.013-.495-.177-.633-.646-.691a10.859,10.859,0,0,1-3.106-.9,13.063,13.063,0,0,1-7.69-13.776A13.021,13.021,0,0,1-517.76,1480.2c.558-.107.879-.208.878-.941q-.042-26.8-.005-53.6c0-.708-.208-.855-.876-.854q-20.168.028-40.336,0c-.771,0-.9.252-.891.946.035,3.28.016,6.561.015,9.841,0,1.885-.4,2.294-2.251,2.294-3.281,0-6.562.024-9.842-.018-.776-.01-1.021.158-1.019.99Q-572.042,1456.121-572.067,1473.387Zm46.5,19.615a10.055,10.055,0,0,0,10.043,10.144,10.108,10.108,0,0,0,10.228-10.066,10.118,10.118,0,0,0-10.1-10.2A10.085,10.085,0,0,0-525.57,1493Zm-36.34-65.64-7.536,7.548c2.165,0,4.529-.005,6.892,0,.416,0,.653-.092.65-.578C-561.918,1431.948-561.91,1429.559-561.91,1427.363Z" transform="translate(0 0)" fill="#272222"/>
    <path id="Trazado_170350" data-name="Trazado 170350" d="M-559.151,1486.47q0-17.267-.021-34.533c0-.832.243-1,1.019-.99,3.28.042,6.561.018,9.842.018,1.848,0,2.251-.409,2.251-2.294,0-3.28.02-6.561-.015-9.841-.007-.694.12-.947.891-.946q20.168.038,40.336,0c.668,0,.877.146.876.854q-.032,26.8.005,53.6c0,.733-.319.834-.878.941a13.021,13.021,0,0,0-10.573,11.012,13.063,13.063,0,0,0,7.69,13.776,10.852,10.852,0,0,0,3.106.9c.469.058.632.2.646.691.064,2.394.08,2.394-2.307,2.394h-51.76c-1.108,0-1.109,0-1.109-1.142Zm27.584-10.86h19.583c1.5,0,2.174-.445,2.181-1.429s-.671-1.441-2.165-1.441h-39.166a8.01,8.01,0,0,0-.877.024,1.419,1.419,0,0,0-1.306,1.4,1.423,1.423,0,0,0,1.29,1.418,8.245,8.245,0,0,0,.965.026Zm-.015,5.8h19.494c.263,0,.528.009.79-.007a1.439,1.439,0,0,0,1.494-1.4,1.443,1.443,0,0,0-1.537-1.453c-.175-.01-.351,0-.527,0h-39.428c-.2,0-.41,0-.614.013a1.436,1.436,0,0,0-1.409,1.4,1.438,1.438,0,0,0,1.452,1.446c.291.02.585.01.878.01Zm.01,5.805h19.583c1.5,0,2.177-.438,2.186-1.419s-.673-1.449-2.16-1.45h-39.166c-.263,0-.528-.009-.79.014a1.436,1.436,0,0,0-1.4,1.409,1.427,1.427,0,0,0,1.373,1.428c.291.026.585.018.877.018Zm-.008-17.415H-512c1.5,0,2.179-.437,2.195-1.416s-.668-1.454-2.152-1.454h-39.254a6.35,6.35,0,0,0-.876.035,1.315,1.315,0,0,0-1.215,1.376,1.328,1.328,0,0,0,1.174,1.418,5.158,5.158,0,0,0,.963.039Q-541.372,1469.807-531.581,1469.806Zm-.025,23.22h19.671c1.468,0,2.163-.483,2.132-1.474-.03-.956-.7-1.4-2.127-1.4h-39.254c-1.423,0-2.1.445-2.134,1.391-.033.988.67,1.479,2.129,1.479Z" transform="translate(-12.916 -13.083)" fill="#fffae8"/>
    <path id="Trazado_170351" data-name="Trazado 170351" d="M-303.381,1767.383a10.085,10.085,0,0,1,10.167-10.12,10.118,10.118,0,0,1,10.1,10.2,10.108,10.108,0,0,1-10.228,10.066A10.055,10.055,0,0,1-303.381,1767.383Zm15.884-5.777a1.244,1.244,0,0,0-.472-1.071c-.74-.663-1.691-.446-2.339.581-1.686,2.672-3.35,5.359-5.028,8.036-.341.544-.626,1.413-1.08,1.519-.524.123-.912-.767-1.4-1.168-.023-.019-.041-.042-.062-.062a1.44,1.44,0,0,0-2.175-.117,1.439,1.439,0,0,0,.147,2.176c.772.8,1.567,1.579,2.358,2.362,1.161,1.151,2.013,1.064,2.887-.323q3.391-5.385,6.759-10.784A1.927,1.927,0,0,0-287.5,1761.605Z" transform="translate(-222.189 -274.38)" fill="#28c65d"/>
    <path id="Trazado_170352" data-name="Trazado 170352" d="M-537.107,1451.97c0,2.2-.008,4.586.006,6.975,0,.486-.234.58-.65.578-2.363-.01-4.727,0-6.892,0Z" transform="translate(-24.803 -24.607)" fill="#403f41"/>
    <path id="Trazado_170353" data-name="Trazado 170353" d="M-505.23,1632.422h-19.5a8.243,8.243,0,0,1-.965-.026,1.423,1.423,0,0,1-1.29-1.418,1.419,1.419,0,0,1,1.306-1.4,8.072,8.072,0,0,1,.877-.024h39.166c1.494,0,2.172.453,2.165,1.441s-.684,1.428-2.181,1.429Z" transform="translate(-39.253 -169.895)" fill="#231f20"/>
    <path id="Trazado_170354" data-name="Trazado 170354" d="M-505.247,1664.336h-19.407c-.293,0-.586.01-.878-.01a1.439,1.439,0,0,1-1.452-1.447,1.436,1.436,0,0,1,1.409-1.4c.2-.018.409-.013.614-.013h39.428c.175,0,.352-.006.527,0a1.443,1.443,0,0,1,1.537,1.453,1.439,1.439,0,0,1-1.495,1.4c-.263.016-.527.007-.79.007Z" transform="translate(-39.251 -196.004)" fill="#231f20"/>
    <path id="Trazado_170355" data-name="Trazado 170355" d="M-505.235,1696.257h-19.5c-.292,0-.587.009-.877-.018a1.427,1.427,0,0,1-1.373-1.428,1.437,1.437,0,0,1,1.4-1.409c.262-.022.526-.014.79-.014h39.166c1.487,0,2.169.459,2.16,1.45s-.681,1.42-2.186,1.42Z" transform="translate(-39.253 -222.119)" fill="#231f20"/>
    <path id="Trazado_170356" data-name="Trazado 170356" d="M-505.168,1600.5q-9.791,0-19.583,0a5.137,5.137,0,0,1-.963-.039,1.328,1.328,0,0,1-1.174-1.418,1.315,1.315,0,0,1,1.215-1.376,6.35,6.35,0,0,1,.876-.035h39.254c1.485,0,2.168.465,2.152,1.455s-.691,1.415-2.195,1.416Z" transform="translate(-39.329 -143.777)" fill="#231f20"/>
    <path id="Trazado_170357" data-name="Trazado 170357" d="M-505.275,1728.18q-9.791,0-19.583,0c-1.459,0-2.163-.491-2.129-1.479.032-.947.711-1.391,2.134-1.391H-485.6c1.43,0,2.1.439,2.127,1.4.031.991-.664,1.474-2.132,1.474Q-495.439,1728.182-505.275,1728.18Z" transform="translate(-39.247 -248.238)" fill="#231f20"/>
    <path id="Trazado_170358" data-name="Trazado 170358" d="M-274.475,1774.622a1.929,1.929,0,0,1-.408,1.15q-3.375,5.395-6.759,10.784c-.874,1.387-1.726,1.474-2.887.323-.79-.783-1.586-1.562-2.358-2.362a1.439,1.439,0,0,1-.147-2.176,1.441,1.441,0,0,1,2.175.117c.022.02.04.043.062.062.49.4.878,1.291,1.4,1.168.454-.107.739-.975,1.08-1.519,1.678-2.677,3.342-5.364,5.028-8.036.648-1.027,1.6-1.245,2.339-.581A1.244,1.244,0,0,1-274.475,1774.622Z" transform="translate(-235.211 -287.396)" fill="#231f20"/>
  </g>
</svg>
