<svg xmlns="http://www.w3.org/2000/svg" width="90" height="89.965" viewBox="0 0 90 89.965">
  <g id="Grupo_110801" data-name="Grupo 110801" transform="translate(557.15 -1691.273)">
    <path id="Trazado_170107" data-name="Trazado 170107" d="M-500.655,1691.273a33.46,33.46,0,0,1,33.091,28.316,33.46,33.46,0,0,1-27.887,38.24,32.871,32.871,0,0,1-24.816-5.958c-.5-.355-.745-.331-1.166.105-1.677,1.735-3.392,3.433-5.119,5.119-.369.36-.438.563-.079,1.01a2.216,2.216,0,0,1-.078,2.907,5.222,5.222,0,0,1-.372.4q-8.8,8.8-17.605,17.594a7.179,7.179,0,0,1-11.882-2.244,6.966,6.966,0,0,1,1.645-7.908c2-2.053,4.048-4.059,6.074-6.086q5.759-5.76,11.521-11.519a2.38,2.38,0,0,1,3.528-.35c.309.212.442.155.664-.068,1.828-1.841,3.653-3.685,5.507-5.5.427-.417.073-.633-.115-.891a33.723,33.723,0,0,1-4.931-9.893,33.519,33.519,0,0,1,21.623-41.612A34.154,34.154,0,0,1-500.655,1691.273Zm-52.793,80.1a4.413,4.413,0,0,0,.7,6.129,4.647,4.647,0,0,0,6.3-.585c2.916-2.884,5.8-5.8,8.7-8.695q4.094-4.094,8.194-8.181c.393-.39.509-.646.033-1.073-.872-.784-1.685-1.633-2.523-2.454-.885-.9-1.817-1.761-2.639-2.716-.546-.634-.85-.529-1.389.014q-8.242,8.3-16.525,16.567C-552.9,1770.687-553.35,1770.885-553.448,1771.376Zm22.05-46.592a30.723,30.723,0,0,0,30.73,30.73,30.719,30.719,0,0,0,30.773-30.774,30.7,30.7,0,0,0-30.727-30.724A30.719,30.719,0,0,0-531.4,1724.784Zm8.315,24.929c-.122-.143-.211-.263-.315-.368-.594-.6-1.213-1.173-1.781-1.795-.336-.368-.549-.293-.86.023-1.692,1.715-3.391,3.425-5.113,5.109-.367.359-.286.556.036.857.594.554,1.178,1.124,1.722,1.727.335.37.538.3.857-.02,1.689-1.718,3.4-3.413,5.1-5.119C-523.312,1750-523.21,1749.863-523.083,1749.712Z" fill="#262222"/>
    <path id="Trazado_170108" data-name="Trazado 170108" d="M-450.728,1733.375a30.719,30.719,0,0,1,30.777-30.768,30.7,30.7,0,0,1,30.727,30.724A30.719,30.719,0,0,1-420,1764.1,30.723,30.723,0,0,1-450.728,1733.375Zm30.759-25.26A25.278,25.278,0,0,0-445.2,1733.33a25.267,25.267,0,0,0,25.18,25.257,25.29,25.29,0,0,0,25.28-25.256A25.3,25.3,0,0,0-419.97,1708.115Z" transform="translate(-80.67 -8.592)" fill="#43a047"/>
    <path id="Trazado_170109" data-name="Trazado 170109" d="M-523.352,1960.9c.838.822,1.651,1.67,2.523,2.454.475.427.36.683-.033,1.073q-4.113,4.074-8.194,8.181c-2.9,2.9-5.788,5.811-8.7,8.695a4.647,4.647,0,0,1-6.3.585,4.413,4.413,0,0,1-.7-6.129,27.908,27.908,0,0,0,7.539-2.607,40.494,40.494,0,0,0,12.486-10.293A5.568,5.568,0,0,0-523.352,1960.9Z" transform="translate(-8.688 -204.382)" fill="#7b5d14"/>
    <path id="Trazado_170110" data-name="Trazado 170110" d="M-520.443,1951.023a5.566,5.566,0,0,1-1.383,1.961,40.5,40.5,0,0,1-12.486,10.293,27.912,27.912,0,0,1-7.539,2.607c.1-.491.55-.689.856-1q8.258-8.288,16.525-16.567c.539-.543.843-.648,1.389-.014C-522.26,1949.262-521.329,1950.122-520.443,1951.023Z" transform="translate(-11.596 -194.507)" fill="#7b5d14"/>
    <path id="Trazado_170111" data-name="Trazado 170111" d="M-442.4,1925.236c-.127.151-.229.292-.351.414-1.7,1.706-3.414,3.4-5.1,5.119-.319.324-.522.391-.857.02-.544-.6-1.128-1.173-1.722-1.727-.322-.3-.4-.5-.036-.857,1.723-1.684,3.421-3.394,5.113-5.109.311-.316.524-.391.86-.023.568.622,1.187,1.2,1.781,1.795C-442.611,1924.973-442.522,1925.093-442.4,1925.236Z" transform="translate(-80.683 -175.524)" fill="#f7c21d"/>
    <path id="Trazado_170112" data-name="Trazado 170112" d="M-402.638,1725.371a25.3,25.3,0,0,1,25.234,25.215,25.29,25.29,0,0,1-25.28,25.256,25.267,25.267,0,0,1-25.18-25.257A25.278,25.278,0,0,1-402.638,1725.371Zm-21.308,32.223a3.893,3.893,0,0,0,.1.528,22.57,22.57,0,0,0,25.408,14.588,22.454,22.454,0,0,0,17.786-26.749,20.913,20.913,0,0,0-5.952-11.036,8.272,8.272,0,0,0-.6-.66c-6.771-6.023-14.5-7.737-23.066-4.775a22.22,22.22,0,0,0-14.854,21.03A18.691,18.691,0,0,0-423.947,1757.594Z" transform="translate(-98.002 -25.847)" fill="#262222"/>
    <path id="Trazado_170113" data-name="Trazado 170113" d="M-415.362,1766.053a18.691,18.691,0,0,1-1.177-7.075,22.22,22.22,0,0,1,14.854-21.03c8.564-2.962,16.3-1.247,23.066,4.775a8.272,8.272,0,0,1,.6.66,32.558,32.558,0,0,1,0,5.093,14.958,14.958,0,0,1-.891,4.156c-.081-.161-.16-.322-.243-.482-3.066-5.978-7.906-9.222-14.663-9.489-.986-.039-1.584.493-1.6,1.312s.561,1.372,1.543,1.4a17.492,17.492,0,0,1,2.157.2c5.84.894,10.859,6.24,11.209,11.948-.35.078-.417.4-.57.654a24.08,24.08,0,0,1-9.644,9.224,23.573,23.573,0,0,1-12.222,2.66,23.2,23.2,0,0,1-8.926-2.2C-413.044,1767.283-414.2,1766.654-415.362,1766.053Z" transform="translate(-106.586 -34.306)" fill="#fefefe"/>
    <path id="Trazado_170114" data-name="Trazado 170114" d="M-411.674,1787.525c1.166.6,2.318,1.231,3.5,1.8a23.2,23.2,0,0,0,8.926,2.2,23.572,23.572,0,0,0,12.222-2.66,24.08,24.08,0,0,0,9.644-9.224c.153-.25.219-.576.57-.654a3.347,3.347,0,0,1,.13,1.33c.058.989.555,1.569,1.372,1.578.846.008,1.349-.61,1.356-1.652a17,17,0,0,0-1.263-6.139,14.959,14.959,0,0,0,.891-4.156,32.558,32.558,0,0,0,0-5.093,20.913,20.913,0,0,1,5.952,11.036,22.454,22.454,0,0,1-17.786,26.749,22.57,22.57,0,0,1-25.408-14.588A3.893,3.893,0,0,1-411.674,1787.525Z" transform="translate(-110.274 -55.778)" fill="#dee0e4"/>
    <path id="Trazado_170115" data-name="Trazado 170115" d="M-312.717,1771.834a17,17,0,0,1,1.263,6.139c-.007,1.042-.51,1.66-1.356,1.652-.818-.008-1.315-.589-1.372-1.578a3.347,3.347,0,0,0-.13-1.33c-.349-5.708-5.368-11.053-11.209-11.948a17.516,17.516,0,0,0-2.157-.2c-.982-.028-1.557-.573-1.543-1.4s.612-1.351,1.6-1.312c6.757.267,11.6,3.511,14.663,9.489C-312.877,1771.512-312.8,1771.673-312.717,1771.834Z" transform="translate(-172.776 -53.507)" fill="#262222"/>
  </g>
</svg>
