<svg xmlns="http://www.w3.org/2000/svg" width="67.239" height="67.237" viewBox="0 0 67.239 67.237">
  <g id="Grupo_111247" data-name="Grupo 111247" transform="translate(480.475 -1717.465)">
    <path id="Trazado_171241" data-name="Trazado 171241" d="M-270.548,1830.773a5.433,5.433,0,0,1,5.2,1.784c.237.261.37.407.667.035a4.78,4.78,0,0,1,2.6-1.671c.362-.093.462-.268.453-.636-.027-1.224.037-2.452-.019-3.675a6.955,6.955,0,0,1,6.917-7.184c.634-.007,1.27-.024,1.9,0a1.2,1.2,0,0,1,1.283,1.129c.009.658-.518,1.131-1.323,1.161a16.339,16.339,0,0,0-2.815.09,4.581,4.581,0,0,0-3.7,4.54c-.055,1.354,0,2.712-.018,4.069a.388.388,0,0,0,.334.454,5.572,5.572,0,0,1,3.023,2.056,6.08,6.08,0,0,1,3.1-2.082,5.572,5.572,0,0,1,6.677,3.645c.109.358.194.65.665.742a1.008,1.008,0,0,1,.77,1.089c.013,1.444.011,2.888,0,4.332a1.085,1.085,0,0,1-.809,1.139c-.294.08-.314.223-.314.458q0,7.449,0,14.9c0,.225,0,.392.306.47a1.066,1.066,0,0,1,.813,1.13c.011,1.444.014,2.888,0,4.332a1.071,1.071,0,0,1-.888,1.14.554.554,0,0,0-.463.451,5.367,5.367,0,0,1-4.611,3.989c-.028,0-.048.063-.072.1h-1.576c-.115-.209-.348-.169-.521-.21a5.574,5.574,0,0,1-2.285-1.22c-.282-.236-.516-.714-.787-.725-.249-.01-.515.461-.779.715a6.551,6.551,0,0,1-2.983,1.441h-1.707a6.5,6.5,0,0,1-3.486-2.316c-.354.373-.654.716-.983,1.029a7.35,7.35,0,0,1-2.623,1.287h-1.97c-.054-.192-.246-.171-.375-.209a5.471,5.471,0,0,1-3.9-3.867c-.078-.257-.177-.4-.458-.458a1.035,1.035,0,0,1-.89-1.066c-.029-1.486-.024-2.973-.005-4.458a1.046,1.046,0,0,1,.8-1.076c.289-.074.329-.209.328-.452q-.018-5.409-.028-10.818c.014-1.355.023-2.711.044-4.066,0-.289-.116-.407-.388-.5a1.116,1.116,0,0,1-.759-1.12q-.018-2.167,0-4.333a1.082,1.082,0,0,1,.832-1.125.679.679,0,0,0,.543-.539A5.467,5.467,0,0,1-270.548,1830.773Zm17.859,18.931a7.859,7.859,0,0,0-7.836-7.848,7.853,7.853,0,0,0-7.822,7.858,7.849,7.849,0,0,0,7.834,7.845A7.847,7.847,0,0,0-252.689,1849.7Zm-7.854-10.089H-248.6c1.533,0,1.5,0,1.547-1.5.016-.587-.129-.753-.738-.751q-12.307.034-24.613.015c-1.574,0-1.552,0-1.581,1.6-.009.51.12.651.641.649C-269.076,1839.6-264.81,1839.614-260.543,1839.614Zm.089,20.19h-12.008c-1.511,0-1.484,0-1.523,1.531-.015.569.119.724.711.723q12.336-.034,24.672-.015c1.541,0,1.516,0,1.552-1.568.012-.541-.12-.687-.674-.684C-251.968,1859.815-256.211,1859.8-260.454,1859.8Zm-6.393-17.953c-1.9,0-3.624.023-5.346-.013-.539-.011-.645.174-.643.669.017,4.788.01,9.576.01,14.364,0,.109,0,.219,0,.328-.009.234.072.368.335.368,1.825,0,3.651,0,5.656,0a10.021,10.021,0,0,1-3.743-7.843A10.058,10.058,0,0,1-266.848,1841.851Zm12.67,0a10.088,10.088,0,0,1,3.727,7.841,10.132,10.132,0,0,1-3.719,7.874c1.952,0,3.74-.007,5.528.006.358,0,.44-.15.439-.473q-.01-7.38,0-14.758c0-.431-.175-.5-.547-.5C-250.494,1841.86-252.243,1841.852-254.178,1841.852Zm-.476-6.711c1.972,0,3.892-.005,5.811,0,.488,0,.361-.237.218-.485a3.263,3.263,0,0,0-3.138-1.743A3.231,3.231,0,0,0-254.654,1835.14Zm-11.678,0a3.332,3.332,0,0,0-2.862-2.217,3.322,3.322,0,0,0-3.214,1.725c-.17.328-.2.5.272.5C-270.238,1835.131-268.339,1835.141-266.332,1835.141Zm-.068,29.144h-5.878c-.332,0-.267.178-.184.387a3.429,3.429,0,0,0,3.089,1.842A3.224,3.224,0,0,0-266.4,1864.285Zm11.772,0a3.208,3.208,0,0,0,2.9,2.226,3.419,3.419,0,0,0,3.155-1.833c.08-.2.161-.391-.178-.391Zm-8.969-29.145c1.974,0,3.893-.006,5.812,0,.409,0,.354-.161.23-.43a3.378,3.378,0,0,0-3.173-1.8A3.228,3.228,0,0,0-263.6,1835.14Zm3.076,29.143c-.893,0-1.787.014-2.68-.006-.41-.009-.446.134-.265.448a3.253,3.253,0,0,0,2.986,1.779,3.254,3.254,0,0,0,2.918-1.783c.2-.341.1-.45-.279-.443C-258.734,1864.294-259.628,1864.283-260.521,1864.283Z" transform="translate(-168.412 -84.057)" fill="#030201"/>
    <path id="Trazado_171242" data-name="Trazado 171242" d="M-478.216,1762.273c-.33,1.292-1.1,1.461-2.259.5V1743.2a18.694,18.694,0,0,0,.771-1.829,6.747,6.747,0,0,1,5.983-3.717c1.29-.042,2.583-.033,3.873,0,.466.01.581-.133.579-.587q-.029-4.629-.007-9.258a10,10,0,0,1,4.231-8.453,10.085,10.085,0,0,1,15.838,6.811,14.522,14.522,0,0,1,.112,1.832c0,2.976.014,5.953-.013,8.929,0,.547.083.754.7.731,1.355-.05,2.713-.026,4.069.011a6.264,6.264,0,0,1,4.052,1.628c.673.592,1.287,1.25,1.928,1.877a1.165,1.165,0,0,1,.38,1.3,1.105,1.105,0,0,1-1.128.738,1.53,1.53,0,0,1-.9-.5c-.313-.306-.64-.6-.926-.93a5.354,5.354,0,0,0-4.6-1.906c-1.462.077-2.931.025-4.4.012-.977-.009-1.4-.439-1.4-1.409-.006-1.751,0-3.5,0-5.252a1.126,1.126,0,0,0-.071-.634c-2.128.9-4.039.715-5.618-1.062a4.313,4.313,0,0,1-.628-4.776c1.186-2.245,3.086-2.937,5.515-2.358-.5-1.895-3.13-4.569-6.759-4.7a7.6,7.6,0,0,0-7.371,4.735,4.914,4.914,0,0,1,2.659-.09,4.493,4.493,0,0,1,3.063,5.842,4.479,4.479,0,0,1-5.961,2.588c-.523-.226-.559-.084-.554.382.018,1.729.009,3.457.006,5.186,0,1.178-.381,1.55-1.579,1.554-1.729.006-3.458-.025-5.185.021a4.455,4.455,0,0,0-4.317,3.852,35.313,35.313,0,0,0-.1,5.046C-478.246,1753.3-478.224,1757.788-478.216,1762.273Zm24.627-31.424a2.2,2.2,0,0,0,2.229-2.186,2.305,2.305,0,0,0-2.173-2.217,2.248,2.248,0,0,0-2.235,2.2A2.121,2.121,0,0,0-453.589,1730.849Zm-9.033-2.113a2.154,2.154,0,0,0-2.178-2.284,2.144,2.144,0,0,0-2.148,2.18,2.1,2.1,0,0,0,2.078,2.217A2.093,2.093,0,0,0-462.622,1728.736Z" transform="translate(0 0)" fill="#030201"/>
    <path id="Trazado_171243" data-name="Trazado 171243" d="M-467.873,1772.756c-.007-4.486-.03-8.971-.014-13.456a35.32,35.32,0,0,1,.1-5.046,4.455,4.455,0,0,1,4.317-3.852c1.727-.046,3.457-.015,5.185-.021,1.2,0,1.577-.376,1.579-1.554,0-1.729.012-3.457-.006-5.186,0-.466.032-.608.554-.382a4.479,4.479,0,0,0,5.961-2.588,4.493,4.493,0,0,0-3.063-5.842,4.912,4.912,0,0,0-2.659.09,7.6,7.6,0,0,1,7.371-4.735c3.629.135,6.262,2.81,6.759,4.7-2.429-.58-4.329.112-5.515,2.357a4.313,4.313,0,0,0,.628,4.776c1.579,1.776,3.491,1.961,5.618,1.061a1.128,1.128,0,0,1,.071.634c0,1.751,0,3.5,0,5.252,0,.97.423,1.4,1.4,1.408,1.466.014,2.935.066,4.4-.012a5.354,5.354,0,0,1,4.6,1.907c.286.33.613.624.926.93a1.531,1.531,0,0,0,.9.5q.074,1.749.148,3.5a5.467,5.467,0,0,0-4.282,3.9.679.679,0,0,1-.543.539,1.082,1.082,0,0,0-.832,1.125q-.02,2.166,0,4.333a1.116,1.116,0,0,0,.759,1.12c.272.1.392.214.387.5-.022,1.355-.031,2.711-.044,4.066a20.365,20.365,0,0,0-3.062.046c-.324-.017-.649-.044-.974-.05a10.784,10.784,0,0,1-5.261-1.38c-.73-.419-.733-.414-.161-1.012a1.206,1.206,0,0,0,.023-1.94,9.243,9.243,0,0,0-.884-.877c-.358-.293-.335-.484,0-.808,1.78-1.745,3.535-3.514,5.294-5.279a1.236,1.236,0,0,0-.008-2.074q-2.036-2.045-4.08-4.082a1.215,1.215,0,0,0-1.742-.2c-.485.446-.483,1.05.059,1.679.2.234.222.363,0,.585q-2.286,2.259-4.551,4.539a.365.365,0,0,1-.555.066c-.9-.594-1.221-.56-1.987.2q-5.334,5.323-10.656,10.658c-.186-.17-.414-.087-.621-.088C-464.186,1772.753-466.029,1772.756-467.873,1772.756Zm19.066-21.289c1.377,0,2.754-.013,4.131.007a1.253,1.253,0,0,0,1.315-.653,1.213,1.213,0,0,0-.3-1.377c-1.37-1.7-2.723-3.417-4.1-5.114q-1.083-1.338-2.164-.012c-1.39,1.714-2.754,3.447-4.137,5.166a1.24,1.24,0,0,0-.232,1.4,1.191,1.191,0,0,0,1.221.59C-451.648,1751.458-450.227,1751.467-448.807,1751.467Z" transform="translate(-10.344 -10.483)" fill="#12263f"/>
    <path id="Trazado_171244" data-name="Trazado 171244" d="M-120.55,1821.71a7.581,7.581,0,0,1-1.4-.077,1.033,1.033,0,0,1-.85-1.087.98.98,0,0,1,.882-1.051,9.6,9.6,0,0,1,2.676,0,.986.986,0,0,1,.886,1.051,1.037,1.037,0,0,1-.854,1.087A8.392,8.392,0,0,1-120.55,1821.71Z" transform="translate(-294.902 -84.046)" fill="#030201"/>
    <path id="Trazado_171245" data-name="Trazado 171245" d="M-127.221,1787.86a1.152,1.152,0,0,1,1,.579,1.009,1.009,0,0,1-.053,1.169,6.84,6.84,0,0,1-1.385,1.385,1,1,0,0,1-1.275-.023.945.945,0,0,1-.381-1.208,4.345,4.345,0,0,1,1.8-1.829A1,1,0,0,1-127.221,1787.86Z" transform="translate(-289.449 -58.04)" fill="#030201"/>
    <path id="Trazado_171246" data-name="Trazado 171246" d="M-128,1845.36a.845.845,0,0,1,.626.232c.427.406.87.8,1.253,1.244a1.067,1.067,0,0,1-.033,1.489,1.094,1.094,0,0,1-1.537.06,12.47,12.47,0,0,1-1.2-1.2,1.044,1.044,0,0,1-.148-1.22A1.038,1.038,0,0,1-128,1845.36Z" transform="translate(-289.646 -105.448)" fill="#030201"/>
    <path id="Trazado_171247" data-name="Trazado 171247" d="M-215.726,1955.129a7.847,7.847,0,0,1-7.823,7.855,7.85,7.85,0,0,1-7.834-7.845,7.853,7.853,0,0,1,7.822-7.858A7.858,7.858,0,0,1-215.726,1955.129Zm-3.34-3.342a1.183,1.183,0,0,0-.641-1,1.041,1.041,0,0,0-1.219.157c-.438.394-.845.821-1.267,1.232-.437.426-.837,1.129-1.326,1.2-.516.073-.87-.734-1.319-1.129a1.194,1.194,0,0,0-1.7-.109,1.12,1.12,0,0,0,.08,1.687q.978,1.014,1.994,1.991a1.153,1.153,0,0,0,1.829-.01c1.045-1.024,2.069-2.07,3.108-3.1A1.532,1.532,0,0,0-219.066,1951.787Zm-4.451,8.971a1.145,1.145,0,0,0,1.088-1.157,1.118,1.118,0,0,0-1.131-1.107,1.155,1.155,0,0,0-1.1,1.148A1.181,1.181,0,0,0-223.517,1960.757Zm-4.521-2.254a1.138,1.138,0,0,0,1.133-1.109,1.133,1.133,0,0,0-1.093-1.148,1.138,1.138,0,0,0-1.136,1.107A1.142,1.142,0,0,0-228.039,1958.5Zm10.084-1.158a1.123,1.123,0,0,0-1.132-1.1,1.185,1.185,0,0,0-1.1,1.156,1.176,1.176,0,0,0,1.156,1.1A1.117,1.117,0,0,0-217.954,1957.346Z" transform="translate(-205.375 -189.482)" fill="#cee0eb"/>
    <path id="Trazado_171248" data-name="Trazado 171248" d="M-250.066,1923.934c-4.266,0-8.533-.01-12.8.013-.521,0-.651-.139-.641-.649.029-1.6.007-1.6,1.581-1.6q12.307,0,24.613-.015c.609,0,.755.164.738.751-.042,1.5-.013,1.5-1.547,1.5Z" transform="translate(-178.89 -168.377)" fill="#fddc54"/>
    <path id="Trazado_171249" data-name="Trazado 171249" d="M-249.988,2049.485c4.243,0,8.486.012,12.729-.014.554,0,.686.143.674.684-.036,1.568-.01,1.568-1.552,1.568q-12.336,0-24.672.015c-.592,0-.725-.154-.711-.723.039-1.53.012-1.531,1.523-1.531Z" transform="translate(-178.879 -273.737)" fill="#fddc54"/>
    <path id="Trazado_171250" data-name="Trazado 171250" d="M-250.982,1947.195a10.058,10.058,0,0,0-3.73,7.871,10.021,10.021,0,0,0,3.743,7.843c-2,0-3.831,0-5.656,0-.263,0-.344-.134-.335-.368,0-.109,0-.219,0-.328,0-4.788.007-9.576-.01-14.364,0-.5.1-.681.643-.669C-254.606,1947.217-252.882,1947.195-250.982,1947.195Z" transform="translate(-184.278 -189.4)" fill="#7b5d14"/>
    <path id="Trazado_171251" data-name="Trazado 171251" d="M-150.652,1947.229c1.935,0,3.683.008,5.432-.006.372,0,.548.066.547.5q-.02,7.379,0,14.758c0,.323-.081.475-.439.473-1.788-.013-3.576-.006-5.528-.006a10.131,10.131,0,0,0,3.719-7.874A10.088,10.088,0,0,0-150.652,1947.229Z" transform="translate(-271.938 -189.434)" fill="#7b5d14"/>
    <path id="Trazado_171252" data-name="Trazado 171252" d="M-153.365,1898.557a3.232,3.232,0,0,1,2.891-2.224,3.263,3.263,0,0,1,3.138,1.743c.143.248.27.488-.218.485C-149.473,1898.551-151.393,1898.557-153.365,1898.557Z" transform="translate(-269.701 -147.473)" fill="#7b5d14"/>
    <path id="Trazado_171253" data-name="Trazado 171253" d="M-248.99,1898.528c-2.007,0-3.905-.009-5.8.007-.474,0-.443-.17-.272-.5a3.322,3.322,0,0,1,3.214-1.725A3.332,3.332,0,0,1-248.99,1898.528Z" transform="translate(-185.754 -147.444)" fill="#7b5d14"/>
    <path id="Trazado_171254" data-name="Trazado 171254" d="M-249.089,2075.082a3.225,3.225,0,0,1-2.973,2.229,3.431,3.431,0,0,1-3.089-1.842c-.084-.208-.148-.386.184-.386Z" transform="translate(-185.724 -294.854)" fill="#7b5d14"/>
    <path id="Trazado_171255" data-name="Trazado 171255" d="M-153.222,2075.084h5.877c.339,0,.258.192.178.392a3.419,3.419,0,0,1-3.155,1.833A3.208,3.208,0,0,1-153.222,2075.084Z" transform="translate(-269.819 -294.856)" fill="#7b5d14"/>
    <path id="Trazado_171256" data-name="Trazado 171256" d="M-204.325,1898.532a3.228,3.228,0,0,1,2.869-2.228,3.378,3.378,0,0,1,3.173,1.8c.125.27.179.433-.23.43C-200.432,1898.525-202.351,1898.532-204.325,1898.532Z" transform="translate(-227.685 -147.448)" fill="#7b5d14"/>
    <path id="Trazado_171257" data-name="Trazado 171257" d="M-201.121,2075.041c.893,0,1.787.011,2.68-.005.382-.007.474.1.279.443a3.253,3.253,0,0,1-2.918,1.783,3.253,3.253,0,0,1-2.986-1.779c-.181-.314-.146-.457.265-.448C-202.908,2075.055-202.015,2075.041-201.121,2075.041Z" transform="translate(-227.812 -294.815)" fill="#7b5d14"/>
    <path id="Trazado_171258" data-name="Trazado 171258" d="M-466.8,1888.68q5.327-5.33,10.655-10.658c.766-.764,1.092-.8,1.987-.2a.365.365,0,0,0,.555-.066q2.271-2.273,4.551-4.539c.224-.222.2-.35,0-.585-.542-.629-.544-1.233-.059-1.679a1.215,1.215,0,0,1,1.742.2q2.046,2.035,4.08,4.082a1.236,1.236,0,0,1,.008,2.074c-1.76,1.765-3.515,3.535-5.294,5.28-.33.324-.353.515,0,.808a9.244,9.244,0,0,1,.884.877,1.206,1.206,0,0,1-.024,1.94c-.572.6-.569.593.161,1.011a10.785,10.785,0,0,0,5.261,1.381c.325.006.649.033.974.05a1.113,1.113,0,0,1,.836,1.179c.013,2.165.025,4.331,0,6.5-.011.871-.519,1.247-1.424,1.222a17.059,17.059,0,0,1-11.551-4.709c-.366-.342-.572-.362-.919.019-.662.727-1.37,1.414-2.083,2.092-.268.255-.268.393,0,.663,1.922,1.938,1.935,4.184.03,6.1-.284.286-.313.429-.009.712.688.641,1.342,1.317,2,1.99a1.185,1.185,0,0,1,0,1.976q-1.473,1.5-2.968,2.972a1.2,1.2,0,0,1-1.978-.009q-2.655-2.635-5.29-5.29c-.287-.289-.458-.471-.862-.081-.509.492-1.074.383-1.67-.2-1.029-1.012-2.045-2.039-3.066-3.059-1.083-1.083-2.17-2.161-3.248-3.248-.76-.766-.76-1.3,0-2.064Q-470.168,1892.044-466.8,1888.68Zm24.034,4.4c0-.591-.011-1.182,0-1.772.008-.317-.073-.477-.431-.49a11.873,11.873,0,0,1-6.36-2.17c-.241-.165-.39-.191-.606.035-.6.633-1.228,1.248-1.853,1.861-.211.207-.244.34,0,.577a15.084,15.084,0,0,0,8.809,4.109c.3.038.448-.043.439-.377C-442.783,1894.259-442.771,1893.668-442.77,1893.077Zm-7.771-11.741c.137-.121.271-.229.392-.349,1.132-1.127,2.272-2.247,3.385-3.392.42-.432,1.183-.784,1.15-1.338-.031-.536-.788-.875-1.182-1.34-.278-.328-.486-.319-.79-.006-1.113,1.145-2.275,2.245-3.371,3.406-.426.452-1.3.785-1.135,1.427.144.549.857.951,1.321,1.415A2.468,2.468,0,0,0-450.541,1881.336Zm-11.212,19.02a3.316,3.316,0,0,0-.317.244c-.344.336-.665.7-1.027,1.015-.342.3-.345.515-.009.84,1.132,1.1,2.224,2.232,3.353,3.33.448.435.838,1.252,1.377,1.185.5-.063.914-.806,1.385-1.227.268-.24.3-.4.02-.679-1.5-1.472-2.976-2.964-4.463-4.447C-461.527,1900.526-461.635,1900.452-461.753,1900.356Zm4.41-1.555a1.971,1.971,0,0,0-.8-1.66c-.217-.2-.339-.177-.525.02-.4.427-.823.841-1.247,1.249-.18.174-.276.3-.037.521.448.413.867.858,1.3,1.289.123.122.227.27.427.078C-457.78,1899.871-457.307,1899.471-457.344,1898.8Z" transform="translate(-5.261 -126.314)" fill="#030201"/>
    <path id="Trazado_171259" data-name="Trazado 171259" d="M-337.522,1773.04a2.121,2.121,0,0,1-2.18-2.2,2.248,2.248,0,0,1,2.235-2.2,2.3,2.3,0,0,1,2.173,2.217A2.205,2.205,0,0,1-337.522,1773.04Z" transform="translate(-116.067 -42.191)" fill="#886942"/>
    <path id="Trazado_171260" data-name="Trazado 171260" d="M-399.07,1770.953a2.093,2.093,0,0,1-2.248,2.113,2.1,2.1,0,0,1-2.078-2.217,2.144,2.144,0,0,1,2.148-2.18A2.154,2.154,0,0,1-399.07,1770.953Z" transform="translate(-63.552 -42.217)" fill="#886942"/>
    <path id="Trazado_171261" data-name="Trazado 171261" d="M-385.317,1814.783c-1.421,0-2.841-.01-4.262.005a1.191,1.191,0,0,1-1.221-.59,1.24,1.24,0,0,1,.232-1.4c1.382-1.719,2.747-3.453,4.137-5.166q1.078-1.329,2.164.012c1.375,1.7,2.727,3.413,4.1,5.114a1.213,1.213,0,0,1,.3,1.377,1.253,1.253,0,0,1-1.315.653C-382.563,1814.77-383.94,1814.783-385.317,1814.783Zm2.035-2.273c-.675-.85-1.283-1.613-1.885-2.38-.125-.159-.215-.178-.351-.005-.614.778-1.237,1.549-1.907,2.385Z" transform="translate(-73.834 -73.799)" fill="#030201"/>
    <path id="Trazado_171262" data-name="Trazado 171262" d="M-197.9,1967.667a1.533,1.533,0,0,1-.456.917c-1.039,1.03-2.063,2.076-3.108,3.1a1.153,1.153,0,0,1-1.829.01q-1.015-.977-1.994-1.991a1.12,1.12,0,0,1-.08-1.687,1.194,1.194,0,0,1,1.7.109c.449.4.8,1.2,1.319,1.13.489-.069.889-.772,1.326-1.2.422-.411.829-.839,1.267-1.232a1.042,1.042,0,0,1,1.219-.157A1.183,1.183,0,0,1-197.9,1967.667Z" transform="translate(-226.537 -205.362)" fill="#030201"/>
    <path id="Trazado_171263" data-name="Trazado 171263" d="M-191.952,2013.429a1.181,1.181,0,0,1-1.147-1.116,1.155,1.155,0,0,1,1.1-1.148,1.118,1.118,0,0,1,1.131,1.107A1.145,1.145,0,0,1-191.952,2013.429Z" transform="translate(-236.94 -242.154)" fill="#030201"/>
    <path id="Trazado_171264" data-name="Trazado 171264" d="M-217.471,2000.624a1.142,1.142,0,0,1-1.1-1.15,1.138,1.138,0,0,1,1.136-1.107,1.133,1.133,0,0,1,1.093,1.148A1.138,1.138,0,0,1-217.471,2000.624Z" transform="translate(-215.942 -231.602)" fill="#030201"/>
    <path id="Trazado_171265" data-name="Trazado 171265" d="M-165.356,1999.46a1.116,1.116,0,0,1-1.077,1.151,1.175,1.175,0,0,1-1.156-1.095,1.185,1.185,0,0,1,1.1-1.156A1.123,1.123,0,0,1-165.356,1999.46Z" transform="translate(-257.973 -231.596)" fill="#030201"/>
    <path id="Trazado_171266" data-name="Trazado 171266" d="M-339.85,1976.93c0,.591-.012,1.182,0,1.772.009.334-.138.416-.439.377a15.084,15.084,0,0,1-8.809-4.109c-.247-.237-.213-.37,0-.577.625-.613,1.249-1.228,1.853-1.861.216-.226.365-.2.606-.035a11.871,11.871,0,0,0,6.36,2.17c.358.013.439.173.431.49C-339.861,1975.748-339.85,1976.339-339.85,1976.93Z" transform="translate(-108.181 -210.167)" fill="#886942"/>
    <path id="Trazado_171267" data-name="Trazado 171267" d="M-347.268,1900.16a2.511,2.511,0,0,1-.227-.177c-.464-.464-1.178-.866-1.321-1.415-.168-.642.709-.975,1.135-1.427,1.1-1.162,2.257-2.261,3.371-3.406.3-.313.512-.321.79.006.394.465,1.151.8,1.182,1.339.032.554-.73.906-1.15,1.338-1.114,1.145-2.254,2.265-3.385,3.392C-347,1899.932-347.131,1900.039-347.268,1900.16Z" transform="translate(-108.534 -145.138)" fill="#886942"/>
    <path id="Trazado_171268" data-name="Trazado 171268" d="M-411.307,2039.836c.118.1.226.169.317.26,1.487,1.483,2.965,2.975,4.463,4.447.279.274.247.439-.02.679-.471.421-.881,1.165-1.385,1.227-.539.067-.929-.749-1.377-1.185-1.129-1.1-2.221-2.234-3.352-3.33-.336-.325-.333-.541.009-.84.362-.315.682-.678,1.027-1.015A3.422,3.422,0,0,1-411.307,2039.836Z" transform="translate(-55.707 -265.793)" fill="#886942"/>
    <path id="Trazado_171269" data-name="Trazado 171269" d="M-391.554,2022.511c.036.67-.437,1.07-.879,1.5-.2.192-.3.044-.427-.079-.432-.43-.851-.875-1.3-1.288-.238-.22-.143-.347.037-.521.423-.408.842-.822,1.247-1.249.186-.2.308-.224.525-.019A1.971,1.971,0,0,1-391.554,2022.511Z" transform="translate(-71.05 -250.024)" fill="#fdfdfd"/>
    <path id="Trazado_171270" data-name="Trazado 171270" d="M-366.838,1826.748h-4.143c.669-.836,1.293-1.607,1.907-2.385.136-.173.226-.154.351.005C-368.121,1825.136-367.512,1825.9-366.838,1826.748Z" transform="translate(-90.277 -88.037)" fill="#886942"/>
  </g>
</svg>
