<svg xmlns="http://www.w3.org/2000/svg" width="60" height="60" viewBox="0 0 60 60">
  <g id="Grupo_110887" data-name="Grupo 110887" transform="translate(1116.554 -1453.111)">
    <path id="Trazado_170359" data-name="Trazado 170359" d="M-1056.554,1481.129c0,9.2-5.93,16.08-14.165,17.308a15.662,15.662,0,0,1-7.445-.705,1.163,1.163,0,0,0-.968.042,16.09,16.09,0,0,1-15.707-.495.509.509,0,0,0-.753.114c-.594.63-1.206,1.245-1.838,1.837-.27.253-.284.4-.007.661.6.572.585.591.051,1.232-2.682,3.219-5.346,6.455-8.055,9.652a6.219,6.219,0,0,1-10.242-.762,6.124,6.124,0,0,1,1.21-7.756c3.4-2.91,6.863-5.736,10.286-8.614.351-.295.5-.06.653.148.379.517.684.477,1.091,0a17.953,17.953,0,0,1,1.578-1.583.563.563,0,0,0,.125-.85,16.05,16.05,0,0,1,1.372-18.476c4.32-5.254,9.936-7.156,16.623-5.73a.758.758,0,0,0,.915-.285c.483-.644,1.005-1.261,1.546-1.857a.588.588,0,0,0,.054-.83c-.977-1.664-1.944-3.335-2.875-5.026a3.985,3.985,0,0,1,2.082-5.813,2.974,2.974,0,0,1,3.454.848l.041.044c1.072,1.149,1.191,1.149,2.269,0a2.818,2.818,0,0,1,4.5,0c.124.133.242.27.369.4.577.591.954.591,1.534,0,.071-.072.14-.146.2-.224a3.077,3.077,0,0,1,3.717-1.057,3.879,3.879,0,0,1,2.568,3.415,4.46,4.46,0,0,1-.614,2.54c-.925,1.6-1.823,3.22-2.771,4.808a.707.707,0,0,0,.1.98c1.834,2.169,3.669,4.338,5.453,6.548A15.778,15.778,0,0,1-1056.554,1481.129Zm-23.632-13.224c5.624,2.669,9.124,6.946,9.923,13.1s-1.5,11.176-6.247,15.153a1.736,1.736,0,0,0,.256.112,14.086,14.086,0,0,0,6.11.1,14.64,14.64,0,0,0,8.511-23.42c-1.869-2.372-3.858-4.65-5.782-6.978a.71.71,0,0,0-.615-.282q-4.986.012-9.972.006c-.156,0-.322-.035-.446.115C-1079.023,1466.513-1079.6,1467.2-1080.187,1467.9Zm-20.873,15.2a14.538,14.538,0,0,0,14.517,14.523,14.54,14.54,0,0,0,14.507-14.474,14.536,14.536,0,0,0-14.489-14.551A14.534,14.534,0,0,0-1101.06,1483.106Zm-9.049,28.066a3.994,3.994,0,0,0,2.965-1.4c2.5-2.949,4.96-5.93,7.442-8.893.17-.2.212-.323,0-.537q-2.046-2.012-4.06-4.057c-.2-.2-.326-.208-.536-.021-.466.415-.955.8-1.434,1.2-2.444,2.036-4.9,4.063-7.328,6.112a4.266,4.266,0,0,0-1.26,4.817A4.408,4.408,0,0,0-1110.109,1511.171Zm37.053-47.406c1.612,0,3.224,0,4.836,0,.271,0,.483-.011.646-.3.991-1.773,2.006-3.534,3.011-5.3a2.223,2.223,0,0,0,.265-1.282,2.009,2.009,0,0,0-1.312-1.724,1.327,1.327,0,0,0-1.656.611,3.353,3.353,0,0,1-.247.265,2.746,2.746,0,0,1-4.206-.013c-1.118-1.218-1.367-1.336-2.582,0a2.732,2.732,0,0,1-4.2,0c-.155-.159-.3-.326-.452-.487a1.18,1.18,0,0,0-1.565-.33,2.08,2.08,0,0,0-.88,3.019c.974,1.737,1.978,3.457,2.954,5.194a.6.6,0,0,0,.618.347C-1076.239,1463.758-1074.647,1463.765-1073.055,1463.765Zm-23.84,32.163a2.195,2.195,0,0,0-.162-.172,16.5,16.5,0,0,1-2.124-2.131c-.2-.241-.305-.055-.426.065-.585.58-1.157,1.173-1.753,1.742-.215.205-.2.33.007.527q1,.963,1.961,1.96c.195.2.319.23.528.012.569-.6,1.161-1.169,1.742-1.752C-1097.054,1496.111-1096.991,1496.035-1096.9,1495.929Z" fill="#030303"/>
    <path id="Trazado_170360" data-name="Trazado 170360" d="M-891.548,1533.188c.585-.7,1.163-1.392,1.739-2.087.125-.151.29-.115.446-.115q4.986,0,9.972-.006a.71.71,0,0,1,.615.282c1.925,2.329,3.914,4.606,5.782,6.978a14.64,14.64,0,0,1-8.511,23.42,14.085,14.085,0,0,1-6.11-.1,1.736,1.736,0,0,1-.256-.112c4.744-3.977,7.046-9,6.247-15.153S-885.924,1535.857-891.548,1533.188Zm19.761,14.4c.011-1.171.011-1.138-1.172-1.133-.616,0-.788.182-.781.82a10.565,10.565,0,0,1-7.671,10.381c-1.2.346-1.174.341-.97,1.6.08.5.264.565.7.469A12.571,12.571,0,0,0-871.787,1547.59Zm-2-2.89c1.6-.077,1.771-.332,1.226-1.818-.055-.15-.119-.3-.175-.447-.037-.1-.094-.214-.2-.169a5.973,5.973,0,0,0-1.512.7c-.287.234.164.623.215.961.029.2.112.383.157.578C-874.046,1544.675-873.971,1544.761-873.792,1544.7Z" transform="translate(-188.639 -65.283)" fill="#d19e6b"/>
    <path id="Trazado_170361" data-name="Trazado 170361" d="M-1020.691,1563.467a14.534,14.534,0,0,1,14.536-14.5,14.536,14.536,0,0,1,14.489,14.551,14.54,14.54,0,0,1-14.507,14.474A14.538,14.538,0,0,1-1020.691,1563.467Zm14.484,12.587a12.6,12.6,0,0,0,12.6-12.536,12.6,12.6,0,0,0-12.52-12.619,12.6,12.6,0,0,0-12.634,12.564A12.6,12.6,0,0,0-1006.206,1576.054Z" transform="translate(-80.369 -80.361)" fill="#e2e5e8"/>
    <path id="Trazado_170362" data-name="Trazado 170362" d="M-1100.011,1734.3a4.408,4.408,0,0,1-4.215-2.775,4.266,4.266,0,0,1,1.26-4.817c2.432-2.05,4.884-4.076,7.328-6.112.479-.4.968-.789,1.434-1.2.21-.187.335-.182.536.021q2.016,2.042,4.06,4.057c.217.214.175.334,0,.537-2.482,2.963-4.943,5.944-7.442,8.893A3.994,3.994,0,0,1-1100.011,1734.3Zm-.63-2.881a.973.973,0,0,0-.929-.984.972.972,0,0,0-1,.914.973.973,0,0,0,.958,1.015A.973.973,0,0,0-1100.641,1731.421Z" transform="translate(-10.097 -223.13)" fill="#d19e6b"/>
    <path id="Trazado_170363" data-name="Trazado 170363" d="M-892.364,1473.825c-1.592,0-3.184-.007-4.775.006a.6.6,0,0,1-.618-.347c-.975-1.736-1.98-3.456-2.954-5.194a2.08,2.08,0,0,1,.881-3.019,1.18,1.18,0,0,1,1.565.33c.152.161.3.329.452.487a2.732,2.732,0,0,0,4.2,0c1.215-1.341,1.464-1.223,2.582,0a2.746,2.746,0,0,0,4.206.013,3.364,3.364,0,0,0,.247-.265,1.327,1.327,0,0,1,1.656-.611,2.009,2.009,0,0,1,1.312,1.724,2.223,2.223,0,0,1-.265,1.282c-1,1.766-2.02,3.526-3.011,5.3-.162.291-.375.3-.646.3C-889.14,1473.822-890.752,1473.825-892.364,1473.825Z" transform="translate(-180.691 -10.06)" fill="#ddb18a"/>
    <path id="Trazado_170364" data-name="Trazado 170364" d="M-1018.889,1705.473c-.1.106-.159.182-.228.251-.582.583-1.174,1.156-1.742,1.752-.208.218-.333.189-.528-.012q-.964-1-1.961-1.96c-.2-.2-.223-.322-.007-.527.6-.569,1.168-1.162,1.753-1.742.121-.12.228-.306.426-.065a16.494,16.494,0,0,0,2.124,2.131A2.195,2.195,0,0,1-1018.889,1705.473Z" transform="translate(-78.007 -209.544)" fill="#e2e5e8"/>
    <path id="Trazado_170365" data-name="Trazado 170365" d="M-824.8,1627.862a12.571,12.571,0,0,1-9.89,12.141c-.439.1-.623.028-.7-.469-.2-1.264-.235-1.259.97-1.6a10.565,10.565,0,0,0,7.671-10.381c-.007-.638.164-.817.781-.82C-824.784,1626.724-824.784,1626.691-824.8,1627.862Z" transform="translate(-235.63 -145.555)" fill="#030303"/>
    <path id="Trazado_170366" data-name="Trazado 170366" d="M-785.629,1603.192c-.179.062-.254-.025-.292-.19-.045-.194-.128-.382-.157-.578-.05-.338-.5-.727-.215-.961a5.969,5.969,0,0,1,1.512-.7c.109-.045.166.07.2.169.055.15.12.3.175.447C-783.858,1602.86-784.03,1603.115-785.629,1603.192Z" transform="translate(-276.801 -123.776)" fill="#030303"/>
    <path id="Trazado_170367" data-name="Trazado 170367" d="M-996.168,1586.093a12.6,12.6,0,0,1-12.549-12.59,12.6,12.6,0,0,1,12.634-12.564,12.6,12.6,0,0,1,12.52,12.619A12.6,12.6,0,0,1-996.168,1586.093Zm-10.614-12.609a10.662,10.662,0,0,0,10.61,10.673,10.664,10.664,0,0,0,10.673-10.612,10.66,10.66,0,0,0-10.611-10.671A10.658,10.658,0,0,0-1006.781,1573.484Z" transform="translate(-90.407 -90.399)" fill="#030303"/>
    <path id="Trazado_170368" data-name="Trazado 170368" d="M-1090.579,1789.4a.973.973,0,0,1-.97.944.972.972,0,0,1-.958-1.015.971.971,0,0,1,1-.914A.973.973,0,0,1-1090.579,1789.4Z" transform="translate(-20.159 -281.11)" fill="#030303"/>
    <path id="Trazado_170369" data-name="Trazado 170369" d="M-996.742,1583.523a10.658,10.658,0,0,1,10.672-10.61,10.66,10.66,0,0,1,10.611,10.671,10.664,10.664,0,0,1-10.673,10.612A10.662,10.662,0,0,1-996.742,1583.523Zm13.016,6.8a9.233,9.233,0,0,1,.966.007c.41.043.557-.072.541-.514-.036-.986-.053-1.976,0-2.96a3.966,3.966,0,0,0-3.98-4.291,1.862,1.862,0,0,1-1.826-1.821c-.026-.563.005-1.128-.012-1.692-.008-.262.072-.353.34-.344.584.019,1.17-.023,1.752.018a1.636,1.636,0,0,1,1.6,1.181c.177.752.566.821,1.166.745a2.166,2.166,0,0,1,.543,0c.362.046.451-.1.4-.443a3.248,3.248,0,0,0-1.6-2.636,1.944,1.944,0,0,1-1.284-2.394c.048-.261-.073-.329-.334-.345-1.585-.094-1.584-.1-1.6,1.438a.691.691,0,0,0,0,.121c.057.337-.111.4-.411.39-.644-.019-1.29.021-1.933-.016-.433-.025-.593.071-.573.547.043,1.005.012,2.014.013,3.021a3.877,3.877,0,0,0,3.941,4.184,1.914,1.914,0,0,1,1.852,1.867c.011.655.3,1.58-.114,1.9-.437.331-1.312.129-1.99.085a1.581,1.581,0,0,1-1.552-1.149c-.171-.8-.6-.835-1.212-.77a1.759,1.759,0,0,1-.422,0c-.431-.059-.562.1-.479.532a3.75,3.75,0,0,0,2.29,2.97.807.807,0,0,1,.6.913c-.031,1.4-.01,1.38,1.382,1.407.464.009.562-.125.554-.567C-985.145,1590.328-985.125,1590.328-983.726,1590.328Zm-9.147-6.768c0-.973,0-.973-.963-.973s-.973,0-.973.963,0,.973.963.973S-992.873,1584.522-992.873,1583.559Zm14.57-.973c-1.026,0-1.026,0-1.026,1.03,0,.906,0,.906.91.906,1.026,0,1.026,0,1.026-1.03C-977.393,1582.586-977.393,1582.586-978.3,1582.586Z" transform="translate(-100.447 -100.438)" fill="#fad56f"/>
    <path id="Trazado_170370" data-name="Trazado 170370" d="M-948.68,1600.138c-1.4,0-1.419,0-1.4,1.381.008.442-.09.576-.554.567-1.392-.027-1.413,0-1.382-1.407a.807.807,0,0,0-.6-.913,3.75,3.75,0,0,1-2.29-2.97c-.083-.436.048-.592.479-.532a1.759,1.759,0,0,0,.422,0c.609-.064,1.041-.032,1.212.77a1.581,1.581,0,0,0,1.552,1.149c.679.044,1.553.246,1.99-.085.417-.316.125-1.242.114-1.9a1.914,1.914,0,0,0-1.852-1.867,3.877,3.877,0,0,1-3.941-4.184c0-1.007.03-2.016-.013-3.021-.02-.476.139-.572.573-.547.642.037,1.289,0,1.933.016.3.009.468-.054.411-.39a.7.7,0,0,1,0-.121c.016-1.54.016-1.532,1.6-1.438.262.016.382.084.334.345a1.944,1.944,0,0,0,1.284,2.394,3.248,3.248,0,0,1,1.6,2.636c.053.339-.036.489-.4.443a2.166,2.166,0,0,0-.543,0c-.6.076-.99.008-1.166-.745a1.636,1.636,0,0,0-1.6-1.181c-.581-.041-1.168,0-1.752-.018-.268-.009-.348.082-.34.344.018.563-.014,1.129.012,1.692a1.862,1.862,0,0,0,1.826,1.821,3.966,3.966,0,0,1,3.98,4.291c-.05.984-.033,1.975,0,2.96.016.442-.131.558-.541.514A9.234,9.234,0,0,0-948.68,1600.138Z" transform="translate(-135.492 -110.249)" fill="#030303"/>
    <path id="Trazado_170371" data-name="Trazado 170371" d="M-982.844,1633.737c0,.963,0,.963-.973.963s-.963,0-.963-.973,0-.963.973-.963S-982.844,1632.764-982.844,1633.737Z" transform="translate(-110.475 -150.616)" fill="#030303"/>
    <path id="Trazado_170372" data-name="Trazado 170372" d="M-887.979,1632.764c.91,0,.91,0,.91.906,0,1.03,0,1.03-1.026,1.03-.91,0-.91,0-.91-.906C-889.005,1632.764-889.005,1632.764-887.979,1632.764Z" transform="translate(-190.771 -150.616)" fill="#030303"/>
  </g>
</svg>
