<svg xmlns="http://www.w3.org/2000/svg" width="90" height="77.025" viewBox="0 0 90 77.025">
  <g id="Grupo_110800" data-name="Grupo 110800" transform="translate(670.134 -1835.59)">
    <path id="Trazado_170084" data-name="Trazado 170084" d="M-383.336,2076.629c-.209.743-.6,1.33-1.466,1.182-.912-.155-1.04-.865-1.029-1.667.025-1.872.067-3.746-.006-5.615a5.225,5.225,0,0,1,3.276-5.206,14.9,14.9,0,0,1,4.191-1.2l1.051-.184a8.031,8.031,0,0,1-2.768-5.729c-.351-5.927,4.594-7.625,8.389-6.172a5.124,5.124,0,0,1,3.281,4.51,8.317,8.317,0,0,1-2.666,7.382c.949.19,1.84.364,2.728.549a9.286,9.286,0,0,1,3.821,1.654,6.013,6.013,0,0,1,1.921,2.916v8.083c-1.095,1.067-1.873.95-2.455-.369,0-1.987-.067-3.977.027-5.959.1-2.073-.72-2.917-2.546-3.556a18.637,18.637,0,0,0-6.63-.992,12.5,12.5,0,0,0-3.05.171,12.279,12.279,0,0,0-4.749,1.367,2.367,2.367,0,0,0-1.345,2.013C-383.374,2072.081-383.347,2074.355-383.336,2076.629Zm5.643-18.855a6.1,6.1,0,0,0,1.151,3.469,2.674,2.674,0,0,0,4.568.071,5.82,5.82,0,0,0,1-5.144,2.642,2.642,0,0,0-1.586-1.865C-375.257,2053.131-377.687,2054.707-377.692,2057.774Z" transform="translate(-217.52 -165.237)" fill="#040404"/>
    <path id="Trazado_170085" data-name="Trazado 170085" d="M-522.228,1866.149a1.42,1.42,0,0,1-1.872-.129c-1.035-1.112-2.022-2.273-3.12-3.319a2.338,2.338,0,0,1-.718-2.721c.683-2.14,1.206-4.331,1.781-6.505.058-.222.344-.672-.239-.587-2.2.318-4.419.591-6.348,1.83a3,3,0,0,0-1.588,2.49c-.031,2.955.007,5.911.018,8.866-.176.929-.633,1.391-1.322,1.337s-1.14-.607-1.143-1.506c-.008-2.811-.022-5.623,0-8.433.023-2.541,1.432-4.188,3.583-5.293a18.877,18.877,0,0,1,5.977-1.617c.316-.047.632-.087,1.117-.153a8.677,8.677,0,0,1-3.4-4.791,9.858,9.858,0,0,1-.216-4.945c.792-3.57,3.964-5.558,7.795-4.984,4.373.656,5.921,4.184,5.6,7.862a9.007,9.007,0,0,1-3.784,6.868,38.4,38.4,0,0,1,4.634.832,11.11,11.11,0,0,1,3.213,1.358,5.78,5.78,0,0,1,2.845,5.209c-.027,2.694-.009,5.388,0,8.082a1.361,1.361,0,0,1-.726,1.384,1.119,1.119,0,0,1-1.236-.134,1.315,1.315,0,0,1-.509-.982q.013-3.943.024-7.886c0-2.291-.687-3.326-2.828-4.205a20.9,20.9,0,0,0-4.844-1.127c-.593-.091-.636.054-.491.574.642,2.3,1.222,4.622,1.885,6.919a1.748,1.748,0,0,1-.48,1.9C-519.838,1863.591-521.026,1864.877-522.228,1866.149Zm-.832-2.814a.074.074,0,0,0,.075-.045c.694-.709,1.377-1.429,2.087-2.121a.774.774,0,0,0,.191-.868c-.64-2.335-1.259-4.676-1.907-7.008-.062-.224.006-.663-.485-.547-.53-.1-.432.369-.5.616-.43,1.505-.862,3.012-1.226,4.534-.241,1-.986,2.069-.613,2.992.364.9,1.364,1.546,2.087,2.3a.262.262,0,0,0,.078.038C-523.26,1863.378-523.2,1863.435-523.06,1863.335Zm-4.427-20.68a7.527,7.527,0,0,0,1.362,4.45c1.712,2.27,4.362,2.3,6.029,0a7.163,7.163,0,0,0,1.1-6.341,3.419,3.419,0,0,0-2.252-2.393C-524.667,1837.114-527.476,1839.045-527.487,1842.655Z" transform="translate(-102.025)" fill="#040404"/>
    <path id="Trazado_170086" data-name="Trazado 170086" d="M-608.728,1982.046c5.066,0,10.132-.03,15.2.027.932.011,1.113-.272,1.055-1.108-.073-1.049-.027-2.107-.014-3.161.011-.9.451-1.417,1.191-1.434.78-.018,1.242.509,1.251,1.463.012,1.171.038,2.344-.012,3.513-.025.59.168.716.729.713,4.334-.023,8.668-.013,13-.013h17.746c1.588,0,1.923.329,1.924,1.882,0,1.816.006,3.631,0,5.446,0,.952-.453,1.524-1.187,1.549-.763.027-1.251-.573-1.256-1.563-.006-1.406-.016-2.811.007-4.216.008-.451-.046-.671-.6-.67q-14.891.026-29.782,0c-.48,0-.585.159-.577.6.024,1.434.015,2.869.007,4.3-.005.947-.46,1.521-1.193,1.542-.764.021-1.245-.575-1.25-1.571-.006-1.347-.05-2.7.018-4.04.037-.732-.23-.841-.881-.839q-14.583.029-29.166-.009c-.817,0-.959.242-.928.974.058,1.344.026,2.693.013,4.04-.008.872-.487,1.431-1.2,1.446a1.259,1.259,0,0,1-1.241-1.4q-.023-3.031,0-6.061c.01-1.014.5-1.411,1.683-1.412Q-616.459,1982.041-608.728,1982.046Z" transform="translate(-33.855 -107.715)" fill="#040404"/>
    <path id="Trazado_170087" data-name="Trazado 170087" d="M-667.631,2076.653c-.194.761-.6,1.325-1.465,1.177s-1.038-.8-1.028-1.587c.024-1.9.063-3.807-.006-5.707a5.222,5.222,0,0,1,3.217-5.163,14.657,14.657,0,0,1,4.275-1.231c.307-.052.613-.113,1.016-.188a8.264,8.264,0,0,1-2.712-7.245,5.512,5.512,0,0,1,5.821-5.133,5.493,5.493,0,0,1,5.814,5.04,8.26,8.26,0,0,1-2.7,7.341c.987.193,1.893.362,2.794.55a9.36,9.36,0,0,1,3.169,1.223,4.964,4.964,0,0,1,2.532,4.509c-.034,1.99-.024,3.98,0,5.97.01.775-.136,1.439-.988,1.619-.817.173-1.229-.357-1.488-1.045a.124.124,0,0,0,0-.155c.008-1.932.019-3.865.023-5.8,0-2.1-.51-2.879-2.524-3.564a18.643,18.643,0,0,0-6.646-.979,11.469,11.469,0,0,0-2.974.156,12.2,12.2,0,0,0-4.849,1.4,2.381,2.381,0,0,0-1.311,2.047C-667.663,2072.145-667.642,2074.4-667.631,2076.653Zm5.654-18.982a6.135,6.135,0,0,0,1.209,3.678,2.671,2.671,0,0,0,4.518-.027,5.808,5.808,0,0,0,.991-5.146,2.651,2.651,0,0,0-1.6-1.856C-659.565,2053.16-661.981,2054.741-661.976,2057.672Z" transform="translate(0 -165.258)" fill="#040404"/>
    <path id="Trazado_170088" data-name="Trazado 170088" d="M-525.452,2076.65c-.2.75-.6,1.327-1.467,1.18s-1.037-.8-1.027-1.585c.024-1.99.039-3.981,0-5.971a4.947,4.947,0,0,1,2.447-4.468,12.786,12.786,0,0,1,4.948-1.655c.337-.06.675-.115,1.114-.189a8.271,8.271,0,0,1-2.71-7.333,5.5,5.5,0,0,1,5.8-5.054,5.5,5.5,0,0,1,5.824,5.031,8.276,8.276,0,0,1-2.7,7.349c.988.194,1.891.364,2.791.551a9.544,9.544,0,0,1,3.019,1.129,5.034,5.034,0,0,1,2.693,4.684c-.042,1.99-.024,3.981,0,5.971.008.756-.19,1.369-.986,1.535s-1.243-.331-1.479-1.045q0-2.981.007-5.962c0-2.087-.511-2.865-2.528-3.554a18.919,18.919,0,0,0-6.634-.985,12.249,12.249,0,0,0-3.048.171,12.247,12.247,0,0,0-4.748,1.368,2.37,2.37,0,0,0-1.343,2.014C-525.49,2072.1-525.463,2074.377-525.452,2076.65Zm5.649-18.883a6.047,6.047,0,0,0,1.221,3.595,2.66,2.66,0,0,0,4.464.014,5.8,5.8,0,0,0,1.025-5.217,2.637,2.637,0,0,0-1.608-1.845C-517.417,2053.167-519.82,2054.756-519.8,2057.767Z" transform="translate(-108.791 -165.256)" fill="#040404"/>
    <path id="Trazado_170089" data-name="Trazado 170089" d="M-474.786,1922.616c1.2-1.272,2.39-2.557,3.611-3.81a1.747,1.747,0,0,0,.48-1.9c-.663-2.3-1.243-4.616-1.885-6.919-.145-.52-.1-.665.491-.574a20.9,20.9,0,0,1,4.844,1.127c2.141.879,2.832,1.914,2.828,4.205q-.007,3.943-.024,7.886Z" transform="translate(-149.467 -56.467)" fill="#28c65d"/>
    <path id="Trazado_170090" data-name="Trazado 170090" d="M-478.538,2114.157a18.924,18.924,0,0,1,6.634.985c2.017.69,2.529,1.468,2.528,3.555q0,2.981-.007,5.962-4.11-.015-8.22-.034a1.645,1.645,0,0,1-.939-.1Z" transform="translate(-146.592 -213.136)" fill="#43a047"/>
    <path id="Trazado_170091" data-name="Trazado 170091" d="M-336.36,2114.151a18.637,18.637,0,0,1,6.63.992c1.826.638,2.644,1.482,2.546,3.555-.094,1.982-.025,3.973-.027,5.959q-4.107-.016-8.214-.037a1.638,1.638,0,0,1-.938-.1Q-336.361,2119.335-336.36,2114.151Z" transform="translate(-255.379 -213.132)" fill="#43a047"/>
    <path id="Trazado_170092" data-name="Trazado 170092" d="M-620.759,2114.175a18.643,18.643,0,0,1,6.646.979c2.014.685,2.528,1.469,2.524,3.564,0,1.933-.015,3.865-.023,5.8l-.175.088c-3,.065-5.993.115-8.988-.048Q-620.767,2119.365-620.759,2114.175Z" transform="translate(-37.766 -213.146)" fill="#43a047"/>
    <path id="Trazado_170093" data-name="Trazado 170093" d="M-366.148,2114.057q0,5.184,0,10.367c-3.038,0-6.076.154-9.114.005-.012-2.274-.038-4.548-.027-6.822a2.367,2.367,0,0,1,1.345-2.013,12.279,12.279,0,0,1,4.749-1.367A12.5,12.5,0,0,1-366.148,2114.057Z" transform="translate(-225.59 -213.037)" fill="#43a047"/>
    <path id="Trazado_170094" data-name="Trazado 170094" d="M-508.3,2114.058l0,10.369-9.108,0c-.011-2.273-.038-4.546-.025-6.819a2.37,2.37,0,0,1,1.342-2.014,12.247,12.247,0,0,1,4.748-1.368A12.25,12.25,0,0,1-508.3,2114.058Z" transform="translate(-116.829 -213.037)" fill="#43a047"/>
    <path id="Trazado_170095" data-name="Trazado 170095" d="M-650.464,2114.066q-.008,5.19-.016,10.38l-4.891-.008c0-1.815-.009-3.631-.008-5.446,0-.51-.192-.861-.74-.894a.748.748,0,0,0-.841.706,5.9,5.9,0,0,0-.164,1.209c.015,1.464,0,2.928,0,4.392l-2.449.027c-.011-2.254-.032-4.508-.028-6.762a2.381,2.381,0,0,1,1.311-2.047,12.2,12.2,0,0,1,4.849-1.4A11.47,11.47,0,0,1-650.464,2114.066Z" transform="translate(-8.061 -213.038)" fill="#43a047"/>
    <path id="Trazado_170096" data-name="Trazado 170096" d="M-526.346,1922.388c-.011-2.956-.049-5.911-.018-8.866a3,3,0,0,1,1.588-2.49c1.93-1.239,4.151-1.512,6.348-1.83.583-.084.3.366.239.587-.575,2.174-1.1,4.365-1.781,6.505a2.338,2.338,0,0,0,.718,2.721c1.1,1.046,2.085,2.207,3.12,3.319l-5.292-.013c-.01-.816-.024-1.631-.027-2.447,0-1.545.018-3.09-.011-4.634a1.287,1.287,0,0,0-1.219-1.337,1.324,1.324,0,0,0-1.234,1.328c-.019.232,0,.466,0,.7q-.013,3.191-.026,6.382Z" transform="translate(-109.994 -56.315)" fill="#28c65d"/>
    <path id="Trazado_170097" data-name="Trazado 170097" d="M-516.03,1937.662q.013-3.191.026-6.382c0-.233-.014-.467,0-.7a1.324,1.324,0,0,1,1.234-1.328,1.287,1.287,0,0,1,1.219,1.337c.03,1.544.007,3.089.011,4.634,0,.815.017,1.631.027,2.447A4.4,4.4,0,0,1-516.03,1937.662Z" transform="translate(-117.91 -71.665)" fill="#28c65d"/>
    <path id="Trazado_170098" data-name="Trazado 170098" d="M-649.062,2137.675c0-1.464.011-2.928,0-4.392a5.894,5.894,0,0,1,.164-1.209.748.748,0,0,1,.841-.706c.547.033.74.384.74.894,0,1.815.005,3.631.008,5.446A6.2,6.2,0,0,1-649.062,2137.675Z" transform="translate(-16.12 -226.307)" fill="#43a047"/>
    <path id="Trazado_170099" data-name="Trazado 170099" d="M-582.506,2158.325l.175-.088a.124.124,0,0,1,0,.155Z" transform="translate(-67.047 -246.868)" fill="#72cab0"/>
    <path id="Trazado_170100" data-name="Trazado 170100" d="M-351.141,2065.488c.005-3.067,2.435-4.643,5.135-3.468a2.642,2.642,0,0,1,1.586,1.865,5.82,5.82,0,0,1-1,5.144,2.674,2.674,0,0,1-4.568-.071A6.1,6.1,0,0,1-351.141,2065.488Z" transform="translate(-244.071 -172.95)" fill="#f2d8ca"/>
    <path id="Trazado_170101" data-name="Trazado 170101" d="M-497.179,1850.456c.012-3.61,2.82-5.541,6.235-4.288a3.419,3.419,0,0,1,2.252,2.393,7.163,7.163,0,0,1-1.1,6.341c-1.667,2.3-4.316,2.274-6.029,0A7.528,7.528,0,0,1-497.179,1850.456Z" transform="translate(-132.333 -7.801)" fill="#f2d8ca"/>
    <path id="Trazado_170102" data-name="Trazado 170102" d="M-486.635,1919.078a.261.261,0,0,1-.078-.038c-.722-.756-1.723-1.4-2.087-2.3-.373-.923.372-1.988.613-2.992.364-1.522.8-3.029,1.226-4.534.071-.248-.027-.712.5-.616q0,4.846-.007,9.692a1.586,1.586,0,0,0,.122.852.074.074,0,0,1-.075.045Z" transform="translate(-138.666 -55.849)" fill="#c99a28"/>
    <path id="Trazado_170103" data-name="Trazado 170103" d="M-478.42,1919.118a1.586,1.586,0,0,1-.122-.852q0-4.846.007-9.692c.491-.116.423.323.485.547.648,2.333,1.268,4.673,1.907,7.009a.774.774,0,0,1-.191.868C-477.043,1917.689-477.726,1918.409-478.42,1919.118Z" transform="translate(-146.591 -55.828)" fill="#c99a28"/>
    <path id="Trazado_170104" data-name="Trazado 170104" d="M-479.249,1953.27l.216.106C-479.171,1953.476-479.233,1953.419-479.249,1953.27Z" transform="translate(-146.052 -90.041)" fill="#f2d8ca"/>
    <path id="Trazado_170105" data-name="Trazado 170105" d="M-635.4,2065.366c0-2.93,2.411-4.511,5.119-3.351a2.652,2.652,0,0,1,1.6,1.856,5.808,5.808,0,0,1-.991,5.146,2.671,2.671,0,0,1-4.518.027A6.135,6.135,0,0,1-635.4,2065.366Z" transform="translate(-26.575 -172.952)" fill="#f2d8ca"/>
    <path id="Trazado_170106" data-name="Trazado 170106" d="M-493.271,2065.476c-.016-3.011,2.387-4.6,5.1-3.454a2.637,2.637,0,0,1,1.608,1.845,5.8,5.8,0,0,1-1.025,5.217,2.66,2.66,0,0,1-4.464-.014A6.046,6.046,0,0,1-493.271,2065.476Z" transform="translate(-135.323 -172.965)" fill="#f2d8ca"/>
  </g>
</svg>
