<svg xmlns="http://www.w3.org/2000/svg" width="90" height="81.365" viewBox="0 0 90 81.365">
  <g id="Grupo_110799" data-name="Grupo 110799" transform="translate(469.597 -1567.59)">
    <path id="Trazado_170061" data-name="Trazado 170061" d="M-416.652,1591.962q0,26.624,0,53.248a3.423,3.423,0,0,1-3.685,3.669c-6.8.01-13.59,0-20.385.01-.881,0-1.662-.613-2.4-.605s-1.522.606-2.4.6c-6.8-.01-13.59,0-20.385-.01a3.452,3.452,0,0,1-3.687-3.679q-.005-35.807,0-71.613a3.423,3.423,0,0,1,3.624-3.637c1.054-.01,2.11.022,3.163-.009a1.445,1.445,0,0,1,1.671,1.3c-.285,1.08-.613,1.342-1.711,1.349-.82.005-1.64,0-2.459,0-1.575,0-1.645.069-1.645,1.619q0,30.567,0,61.134,0,4.831.01,9.662c0,.966.234,1.21,1.176,1.21q10.057.007,20.114.009c.776,0,1.22-.23,1.2-1.1-.032-1.463-.011-2.928-.008-4.392,0-1.173.223-1.474,1.332-1.842,1.149.383,1.317.613,1.321,1.836,0,1.377,0,2.754.007,4.13,0,1.172.2,1.364,1.386,1.365q9.843,0,19.685,0c1.3,0,1.425-.123,1.425-1.388q0-35.416,0-70.832c0-1.3-.1-1.4-1.4-1.405l-18.894-.005c-.44,0-.879,0-1.318.005a.826.826,0,0,0-.886.879c-.016.263,0,.527,0,.791q0,29.7,0,59.407c0,1.333-.2,1.619-1.318,1.9-1.091-.266-1.336-.609-1.336-1.894q0-29.861,0-59.722c0-1.233-.124-1.356-1.357-1.358q-5.094-.006-10.187-.01c-1.1,0-1.458-.3-1.7-1.35.275-1.03.6-1.29,1.659-1.292,3.544,0,7.087.01,10.631-.01.854,0,1.6.61,2.307.594s1.464-.6,2.318-.594q10.28.019,20.559,0a3.463,3.463,0,0,1,2.667,1.11.611.611,0,0,0,.658.242q7.769-1.394,15.548-2.731c1.844-.32,3.688-.64,5.537-.925a3.333,3.333,0,0,1,3.984,2.8c.613,3.246,1.134,6.509,1.693,9.766q2.159,12.579,4.316,25.159,2.149,12.536,4.3,25.073.881,5.144,1.757,10.289c.02.12.035.227.177.254v1.933c-.8,2.017-2.518,2.492-4.447,2.805-6.145,1-12.275,2.083-18.41,3.136-2.739.47-4.273-.671-4.739-3.422q-2.313-13.659-4.674-27.311-2.141-12.488-4.281-24.977c-.069-.4-.127-.808-.19-1.212.1-.425-.126-.767-.274-1.4A2.967,2.967,0,0,0-416.652,1591.962Zm13.121,54.343c.2-.024.467-.043.726-.087q6.182-1.055,12.363-2.117,3.544-.608,7.088-1.219c1.007-.175,1.185-.442,1.013-1.421-.106-.6-.192-1.213-.3-1.818q-3.04-17.679-6.082-35.357-2.807-16.339-5.605-32.68c-.236-1.371-.4-1.487-1.708-1.263q-9.771,1.667-19.54,3.344c-.938.161-1.126.414-.964,1.374q.968,5.753,1.958,11.5,2.243,13.1,4.489,26.2,2.149,12.536,4.3,25.073c.429,2.507.851,5.016,1.282,7.523C-404.421,1645.874-404.26,1646.341-403.532,1646.3Z" fill="#020201"/>
    <path id="Trazado_170062" data-name="Trazado 170062" d="M-434.513,1650.782c-1.109.368-1.329.668-1.332,1.842,0,1.464-.024,2.928.008,4.392.019.871-.425,1.1-1.2,1.1q-10.057-.016-20.114-.009c-.943,0-1.174-.245-1.176-1.211q-.011-4.831-.01-9.662,0-30.567,0-61.134c0-1.55.07-1.618,1.645-1.619.82,0,1.64,0,2.459,0,1.1-.007,1.426-.269,1.711-1.349l3.433,0c.241,1.053.6,1.348,1.7,1.35q5.094.01,10.187.01c1.234,0,1.357.125,1.357,1.358q0,29.861,0,59.722c0,1.285.245,1.628,1.336,1.894Q-434.511,1649.124-434.513,1650.782Zm-3.577-39q0-8.7,0-17.393c0-1.979-.943-2.912-2.893-2.911q-5.973,0-11.946,0c-2.265,0-3.135.868-3.135,3.12q0,17.13,0,34.259c0,2.3.885,3.2,3.173,3.2,3.894,0,7.789,0,11.683,0,2.185,0,3.118-.9,3.12-3.065Q-438.086,1620.387-438.09,1611.779Zm-9,39.642v.048c.936,0,1.872,0,2.808,0a5.646,5.646,0,0,0,5.638-5.175,5.551,5.551,0,0,0-4.912-6.094,36.253,36.253,0,0,0-6.921-.015,5.561,5.561,0,0,0-5.059,5.462,5.613,5.613,0,0,0,4.854,5.749A28.084,28.084,0,0,0-447.087,1651.421Z" transform="translate(-8.614 -11.89)" fill="#c99a28"/>
    <path id="Trazado_170063" data-name="Trazado 170063" d="M-244.451,1666.674a2.967,2.967,0,0,1,.04-1.43c.148.633.376.976.274,1.4C-244.255,1666.516-244.35,1666.627-244.451,1666.674Z" transform="translate(-172.201 -74.713)" fill="#576a74"/>
    <path id="Trazado_170064" data-name="Trazado 170064" d="M-356.916,1655.182q0-1.659,0-3.317c1.117-.282,1.318-.568,1.318-1.9q0-29.7,0-59.408c0-.264-.012-.528,0-.791a.826.826,0,0,1,.886-.879c.439-.009.879-.005,1.318-.005l18.894.005c1.3,0,1.4.1,1.4,1.405q0,35.416,0,70.832c0,1.265-.127,1.388-1.425,1.388q-9.842,0-19.685,0c-1.187,0-1.382-.193-1.386-1.364,0-1.377,0-2.754-.007-4.13C-355.6,1655.8-355.767,1655.565-356.916,1655.182Zm21.577-39.048q0-8.652,0-17.3c0-2.031-.932-2.955-2.94-2.955q-5.929,0-11.858,0c-2.313,0-3.185.87-3.185,3.167q0,17.084,0,34.168c0,2.355.877,3.24,3.223,3.241q5.753,0,11.506,0c2.408,0,3.255-.845,3.256-3.28Q-335.338,1624.654-335.339,1616.134Zm-9.26,39.735c1.182,0,2.147.008,3.112,0a5.642,5.642,0,0,0,5.592-5.219,5.543,5.543,0,0,0-4.953-6.054,38.81,38.81,0,0,0-6.921,0,5.578,5.578,0,0,0-5.015,5.237,5.689,5.689,0,0,0,4.38,5.885A22.193,22.193,0,0,0-344.6,1655.869Z" transform="translate(-86.21 -16.289)" fill="#43a047"/>
    <path id="Trazado_170065" data-name="Trazado 170065" d="M-230.9,1654.972c-.728.037-.889-.43-.979-.949-.43-2.507-.852-5.016-1.282-7.523q-2.147-12.537-4.3-25.073-2.245-13.1-4.489-26.2-.984-5.75-1.958-11.5c-.162-.961.026-1.214.964-1.374q9.769-1.676,19.54-3.344c1.312-.224,1.473-.109,1.708,1.263q2.807,16.339,5.605,32.68,3.037,17.679,6.082,35.357c.1.605.19,1.214.3,1.819.172.979-.006,1.246-1.013,1.421q-3.543.616-7.088,1.219-6.181,1.06-12.363,2.117C-230.429,1654.93-230.693,1654.948-230.9,1654.972Zm5.47-28.678a1.544,1.544,0,0,0,1.812,1.022c1.7-.3,3.405-.559,5.1-.891a2.483,2.483,0,0,0,1.957-2.887c-.1-.666-.211-1.329-.324-1.991q-2.156-12.579-4.315-25.158c-.455-2.651-.889-5.306-1.394-7.948a2.4,2.4,0,0,0-2.766-1.995q-6.446,1.075-12.881,2.211a2.483,2.483,0,0,0-2.037,2.911c.057.375.129.749.194,1.124q2.147,12.536,4.294,25.073c.488,2.853.953,5.711,1.46,8.561a2.535,2.535,0,0,0,3.222,2.252c.289-.043.578-.089.865-.146,1.124-.226,1.352-.478,1.476-1.61Zm.307,20.933c1.907-.206,4.121-.606,6.321-1.062a5.6,5.6,0,0,0,4.455-6.6,5.632,5.632,0,0,0-6.4-4.533q-2.862.408-5.7.951a5.663,5.663,0,0,0-4.595,6.3A5.753,5.753,0,0,0-225.119,1647.227Z" transform="translate(-172.636 -8.668)" fill="#28c65d"/>
    <path id="Trazado_170066" data-name="Trazado 170066" d="M-430.69,1638.954q0,8.609,0,17.217c0,2.166-.934,3.068-3.12,3.065-3.894-.006-7.789,0-11.683,0-2.288,0-3.173-.9-3.173-3.2q0-17.129,0-34.259c0-2.252.87-3.119,3.135-3.12q5.973,0,11.946,0c1.95,0,2.891.932,2.893,2.911Q-430.683,1630.257-430.69,1638.954Zm-2.667-.046c0-5.593-.009-11.186.013-16.778,0-.614-.087-.845-.788-.838q-5.577.061-11.155,0c-.649-.006-.745.2-.744.787q.028,16.822,0,33.644c0,.717.219.845.873.84,3.66-.03,7.32-.038,10.98.005.729.009.84-.233.837-.881C-433.367,1650.093-433.357,1644.5-433.357,1638.908Z" transform="translate(-16.013 -39.065)" fill="#020201"/>
    <path id="Trazado_170067" data-name="Trazado 170067" d="M-437.953,1836.715a28.085,28.085,0,0,1-3.592-.025,5.613,5.613,0,0,1-4.854-5.749,5.561,5.561,0,0,1,5.059-5.462,36.253,36.253,0,0,1,6.921.015,5.551,5.551,0,0,1,4.912,6.094,5.645,5.645,0,0,1-5.638,5.175c-.936.005-1.872,0-2.808,0Zm-.039-2.611v0c.993,0,1.988.035,2.98-.008a2.994,2.994,0,0,0,2.844-3.076,2.888,2.888,0,0,0-2.9-2.887q-2.8-.045-5.609-.026a2.951,2.951,0,0,0-3.077,3.006,3.083,3.083,0,0,0,3.135,2.992C-439.745,1834.112-438.869,1834.1-437.992,1834.1Z" transform="translate(-17.748 -197.184)" fill="#020201"/>
    <path id="Trazado_170068" data-name="Trazado 170068" d="M-323.642,1638.91q0,8.52,0,17.04c0,2.435-.848,3.283-3.256,3.28q-5.753-.006-11.506,0c-2.345,0-3.222-.885-3.223-3.241q0-17.084,0-34.168c0-2.3.872-3.165,3.185-3.167q5.929,0,11.858,0c2.009,0,2.938.924,2.94,2.955Q-323.635,1630.258-323.642,1638.91Zm-15.333-.091h0c0,5.591.013,11.183-.016,16.773,0,.729.11.992.931.98,3.629-.054,7.259-.04,10.889-.008.663.006.876-.135.874-.846q-.037-16.773,0-33.547c0-.652-.116-.885-.838-.877q-5.488.061-10.977-.006c-.776-.01-.881.245-.878.934C-338.962,1627.753-338.975,1633.286-338.975,1638.818Z" transform="translate(-97.908 -39.065)" fill="#020201"/>
    <path id="Trazado_170069" data-name="Trazado 170069" d="M-331.176,1836.8a22.194,22.194,0,0,1-3.8-.158,5.689,5.689,0,0,1-4.38-5.885,5.578,5.578,0,0,1,5.015-5.237,38.81,38.81,0,0,1,6.921,0,5.543,5.543,0,0,1,4.953,6.054,5.642,5.642,0,0,1-5.592,5.219C-329.028,1836.807-329.993,1836.8-331.176,1836.8Zm.307-8.64v-.024c-.935,0-1.87-.013-2.8,0a2.967,2.967,0,0,0-3.052,2.953,3.051,3.051,0,0,0,2.923,3.033c1.956.055,3.916.058,5.871,0a2.935,2.935,0,0,0,2.793-3.1,2.875,2.875,0,0,0-2.926-2.854C-329,1828.146-329.934,1828.159-330.869,1828.159Z" transform="translate(-99.634 -197.22)" fill="#020201"/>
    <path id="Trazado_170070" data-name="Trazado 170070" d="M-204.67,1659.672l-3.34.526c-.533-1.039-.865-1.238-2.029-.959-.725.174-1.027-.027-1.038-.749a2.89,2.89,0,0,0-.075-.432q-1.8-10.5-3.595-21.007c-.667-3.89-1.347-7.778-2.013-11.668-.066-.384-.224-.779.446-.889,3.75-.614,7.494-1.266,11.238-1.915.473-.082.7-.045.8.55.748,4.558,1.549,9.107,2.333,13.659q1.7,9.9,3.413,19.792c.094.54-.075.707-.6.782-1.33.189-2.651.446-3.976.675C-204.263,1658.237-204.52,1658.505-204.67,1659.672ZM-207.455,1649c-.161-.934-.35-2.027-.537-3.12q-1.081-6.346-2.163-12.693c-.174-1.01-.774-1.553-1.539-1.445-.845.118-1.264.807-1.09,1.848q.822,4.924,1.662,9.846c.333,1.957.667,3.914,1.016,5.868a1.318,1.318,0,0,0,1.448,1.219A1.356,1.356,0,0,0-207.455,1649Zm4.919-.856c-.221-1.292-.467-2.73-.713-4.169-.662-3.886-1.318-7.773-1.991-11.657-.186-1.074-.788-1.552-1.645-1.377-.816.167-1.153.78-.978,1.831q.734,4.407,1.483,8.812.588,3.454,1.2,6.9a1.308,1.308,0,0,0,1.471,1.187C-203,1649.608-202.535,1649.065-202.536,1648.146Z" transform="translate(-193.391 -42.046)" fill="#fdfdfd"/>
    <path id="Trazado_170071" data-name="Trazado 170071" d="M-213.56,1650.69c.151-1.167.407-1.435,1.562-1.635,1.325-.229,2.645-.486,3.976-.675.526-.075.695-.242.6-.782q-1.721-9.893-3.413-19.792c-.783-4.552-1.585-9.1-2.333-13.659-.1-.595-.325-.631-.8-.549-3.744.649-7.488,1.3-11.238,1.915-.67.11-.512.505-.446.889.666,3.89,1.345,7.778,2.013,11.668q1.8,10.5,3.595,21.007a2.889,2.889,0,0,1,.075.431c.012.722.313.923,1.038.749,1.164-.279,1.5-.08,2.029.959-.124,1.133-.352,1.384-1.476,1.61-.286.058-.576.1-.865.146a2.535,2.535,0,0,1-3.222-2.252c-.507-2.85-.972-5.707-1.46-8.56q-2.145-12.537-4.294-25.074c-.064-.375-.136-.748-.194-1.124a2.483,2.483,0,0,1,2.037-2.91q6.435-1.14,12.881-2.211a2.4,2.4,0,0,1,2.766,1.995c.505,2.642.939,5.3,1.394,7.948q2.161,12.579,4.315,25.158c.113.663.228,1.326.324,1.992a2.483,2.483,0,0,1-1.957,2.887c-1.693.332-3.4.587-5.1.891A1.543,1.543,0,0,1-213.56,1650.69Z" transform="translate(-184.502 -33.065)" fill="#020201"/>
    <path id="Trazado_170072" data-name="Trazado 170072" d="M-183.175,1829.772a5.753,5.753,0,0,1-5.921-4.946,5.663,5.663,0,0,1,4.595-6.3q2.839-.545,5.7-.951a5.632,5.632,0,0,1,6.4,4.533,5.6,5.6,0,0,1-4.455,6.6C-179.053,1829.167-181.268,1829.566-183.175,1829.772Zm.16-2.675c1.7-.305,3.858-.631,5.988-1.1a2.653,2.653,0,0,0,2-2.5c.149-2.223-1.374-3.553-3.795-3.23-1.761.235-3.515.544-5.26.88a2.99,2.99,0,0,0-2.379,3.384C-186.3,1825.963-185,1827.084-183.014,1827.1Z" transform="translate(-214.58 -191.214)" fill="#020201"/>
    <path id="Trazado_170073" data-name="Trazado 170073" d="M-424.78,1647.507c0,5.593-.01,11.186.014,16.778,0,.648-.108.89-.837.881-3.66-.043-7.32-.035-10.98-.005-.654.005-.875-.123-.873-.84q.038-16.822,0-33.644c0-.585.094-.794.744-.787q5.578.055,11.155,0c.7-.007.791.224.788.838C-424.789,1636.321-424.78,1641.914-424.78,1647.507Zm-7.485-.122q0-3.556,0-7.113a10.555,10.555,0,0,0-.037-1.314,1.2,1.2,0,0,0-1.231-1.132,1.213,1.213,0,0,0-1.337,1.014,3.28,3.28,0,0,0-.067.782q-.005,7.683,0,15.367a3.178,3.178,0,0,0,.109.95,1.2,1.2,0,0,0,1.345.886,1.2,1.2,0,0,0,1.158-1.015,4.307,4.307,0,0,0,.058-.873Q-432.261,1651.161-432.265,1647.385Zm2.342,2.149c0,1.9-.006,3.8,0,5.7,0,1.027.5,1.6,1.329,1.6s1.328-.589,1.33-1.613q.011-5.749,0-11.5c0-.993-.542-1.614-1.349-1.609s-1.306.6-1.31,1.626C-429.929,1645.672-429.923,1647.6-429.923,1649.534Z" transform="translate(-24.591 -47.664)" fill="#fdfdfd"/>
    <path id="Trazado_170074" data-name="Trazado 170074" d="M-429.386,1843.147c-.876,0-1.753.009-2.63,0a3.083,3.083,0,0,1-3.135-2.992,2.951,2.951,0,0,1,3.077-3.006q2.8-.02,5.609.026a2.888,2.888,0,0,1,2.9,2.887,2.994,2.994,0,0,1-2.844,3.077c-.992.042-1.986.008-2.98.008Z" transform="translate(-26.354 -206.228)" fill="#fffae8"/>
    <path id="Trazado_170075" data-name="Trazado 170075" d="M-330.391,1647.4c0-5.533.012-11.065-.016-16.6,0-.688.1-.944.878-.934q5.488.073,10.977.006c.722-.008.839.225.838.877q-.029,16.774,0,33.547c0,.711-.211.852-.874.846-3.63-.031-7.26-.046-10.889.008-.82.013-.935-.251-.931-.98.03-5.591.016-11.182.016-16.773Zm2.512-.128q0,3.776,0,7.552a6.234,6.234,0,0,0,.014.7,1.28,1.28,0,0,0,1.29,1.287,1.306,1.306,0,0,0,1.365-1.305,5.616,5.616,0,0,0,.012-.614q0-7.6,0-15.191a3.669,3.669,0,0,0-.089-.955,1.2,1.2,0,0,0-1.3-.94,1.184,1.184,0,0,0-1.2.957,4.038,4.038,0,0,0-.079.957Q-327.884,1643.5-327.878,1647.274Zm5.007-.044c0,2.664,0,5.329,0,7.993,0,1.022.5,1.6,1.331,1.6s1.324-.592,1.325-1.614q.007-7.905,0-15.811c0-1.017-.506-1.6-1.341-1.592s-1.313.574-1.316,1.609C-322.875,1642.018-322.871,1644.624-322.871,1647.23Z" transform="translate(-106.492 -47.649)" fill="#fdfdfd"/>
    <path id="Trazado_170076" data-name="Trazado 170076" d="M-322.256,1837.155c.935,0,1.87-.013,2.8,0a2.875,2.875,0,0,1,2.926,2.854,2.935,2.935,0,0,1-2.793,3.1c-1.955.061-3.915.057-5.871,0a3.051,3.051,0,0,1-2.923-3.033,2.967,2.967,0,0,1,3.052-2.953c.935-.016,1.87,0,2.8,0Z" transform="translate(-108.247 -206.216)" fill="#fffae8"/>
    <path id="Trazado_170077" data-name="Trazado 170077" d="M-194.426,1678.91a1.356,1.356,0,0,1-1.2,1.523,1.318,1.318,0,0,1-1.448-1.219c-.349-1.954-.683-3.911-1.016-5.868q-.837-4.922-1.662-9.846c-.174-1.041.245-1.73,1.09-1.848.766-.107,1.366.435,1.539,1.445q1.091,6.345,2.163,12.693C-194.776,1676.883-194.586,1677.976-194.426,1678.91Z" transform="translate(-206.421 -71.954)" fill="#020201"/>
    <path id="Trazado_170078" data-name="Trazado 170078" d="M-173.5,1675.374c0,.919-.462,1.462-1.176,1.531a1.308,1.308,0,0,1-1.471-1.187q-.616-3.449-1.2-6.9-.75-4.4-1.483-8.812c-.175-1.052.162-1.665.978-1.831.857-.175,1.459.3,1.645,1.377.673,3.884,1.328,7.771,1.991,11.657C-173.965,1672.644-173.719,1674.083-173.5,1675.374Z" transform="translate(-222.43 -69.274)" fill="#020201"/>
    <path id="Trazado_170079" data-name="Trazado 170079" d="M-174.39,1835.9c-1.983-.013-3.285-1.134-3.446-2.565a2.99,2.99,0,0,1,2.379-3.384c1.745-.336,3.5-.645,5.26-.88,2.421-.323,3.944,1.008,3.795,3.23a2.653,2.653,0,0,1-2,2.5C-170.532,1835.27-172.695,1835.6-174.39,1835.9Z" transform="translate(-223.204 -200.017)" fill="#fffae8"/>
    <path id="Trazado_170080" data-name="Trazado 170080" d="M-424.078,1673.224q0,3.776,0,7.552a4.3,4.3,0,0,1-.058.873,1.2,1.2,0,0,1-1.158,1.015,1.2,1.2,0,0,1-1.345-.886,3.177,3.177,0,0,1-.109-.95q-.01-7.683,0-15.367a3.28,3.28,0,0,1,.067-.782,1.213,1.213,0,0,1,1.337-1.014,1.2,1.2,0,0,1,1.231,1.132,10.549,10.549,0,0,1,.037,1.314Q-424.075,1669.668-424.078,1673.224Z" transform="translate(-32.778 -73.503)" fill="#020201"/>
    <path id="Trazado_170081" data-name="Trazado 170081" d="M-405.4,1689.351c0-1.931-.006-3.862,0-5.793,0-1.022.5-1.62,1.31-1.626s1.348.615,1.349,1.609q.012,5.749,0,11.5c0,1.024-.5,1.607-1.33,1.613s-1.324-.569-1.329-1.6C-405.4,1693.155-405.4,1691.253-405.4,1689.351Z" transform="translate(-49.117 -87.481)" fill="#020201"/>
    <path id="Trazado_170082" data-name="Trazado 170082" d="M-319.652,1673.123q0-3.776,0-7.551a4.034,4.034,0,0,1,.079-.957,1.184,1.184,0,0,1,1.2-.957,1.2,1.2,0,0,1,1.3.94,3.669,3.669,0,0,1,.089.955q.008,7.6,0,15.191a5.621,5.621,0,0,1-.012.614,1.306,1.306,0,0,1-1.365,1.306,1.28,1.28,0,0,1-1.29-1.287,6.234,6.234,0,0,1-.014-.7Q-319.653,1676.9-319.652,1673.123Z" transform="translate(-114.718 -73.498)" fill="#020201"/>
    <path id="Trazado_170083" data-name="Trazado 170083" d="M-298.334,1673.066c0-2.606,0-5.212,0-7.817,0-1.035.478-1.6,1.316-1.609s1.34.575,1.341,1.592q.008,7.905,0,15.811c0,1.023-.5,1.609-1.325,1.614s-1.328-.577-1.331-1.6C-298.339,1678.395-298.334,1675.73-298.334,1673.066Z" transform="translate(-131.029 -73.486)" fill="#020201"/>
  </g>
</svg>
