<svg xmlns="http://www.w3.org/2000/svg" width="503.91" height="499" viewBox="0 0 503.91 499">
  <g id="Grupo_111255" data-name="Grupo 111255" transform="translate(-285 -1007.5)">
    <g id="Grupo_110781" data-name="Grupo 110781" transform="translate(-1874.434 1527.436)">
      <path id="Trazado_169973" data-name="Trazado 169973" d="M2254.992,661.792c-27.954-7.072-35.573-47.675-18.217-37.488-8.673-21.6-11.1-60.145,7.982-38.547-22.284-46.515,21.865-64.29,18.9-3.635,16.339-26.629,25.333,9.342,17.213,33.7,20.767-15.738,25.4,28.253-1.988,45.969Z" transform="translate(-43.947 -686.264)" fill="#57c45b"/>
      <path id="Trazado_169974" data-name="Trazado 169974" d="M2197.723,710.475c-28.773-1.884-39.066-35.787-20.151-28.917-19.6-14.173-26.709-46.753-4.024-28.976-10.388-16.021-10.709-30.749-2.437-33.386,7.327-2.336,21.1,5.13,20.36,26.384,11.238-29.151,24.038,1.207,15.976,20.941,17.568-19.244,20.056,27.259,5.4,43.954Z" transform="translate(0 -734.947)" fill="#72e676"/>
      <path id="Trazado_169975" data-name="Trazado 169975" d="M3356.824,654.763c27.954-7.072,35.573-47.675,18.217-37.487,8.674-21.6,11.1-60.145-7.981-38.547,22.283-46.515-21.865-64.29-18.9-3.635-16.339-26.629-25.333,9.342-17.213,33.7-20.767-15.738-25.4,28.253,1.988,45.969Z" transform="translate(-745.093 -681.728)" fill="#57c45b"/>
      <path id="Trazado_169976" data-name="Trazado 169976" d="M3427.638,703.446c28.772-1.884,39.067-35.787,20.151-28.917,19.6-14.174,26.709-46.753,4.024-28.975,10.388-16.021,10.709-30.749,2.437-33.386-7.326-2.335-21.1,5.13-20.36,26.384-11.238-29.151-24.038,1.207-15.976,20.941-17.568-19.244-20.056,27.259-5.4,43.954Z" transform="translate(-802.583 -730.411)" fill="#72e676"/>
      <path id="Trazado_170003" data-name="Trazado 170003" d="M0,0H445.195V7.075H0Z" transform="translate(2170.868 -28.01)" fill="#7b5d14"/>
      <g id="Grupo_110766" data-name="Grupo 110766" transform="translate(2488.94 -358.255)">
        <g id="Grupo_110763" data-name="Grupo 110763" transform="translate(0 0)">
          <path id="Trazado_169977" data-name="Trazado 169977" d="M3092.089-63.8a2.487,2.487,0,0,0-3.216,1.423,2.487,2.487,0,0,0,1.423,3.215c70.934,27.407,108.676,105.645,85.926,178.118a2.486,2.486,0,0,0,4.745,1.489A149.632,149.632,0,0,0,3092.089-63.8Z" transform="translate(-3088.705 63.966)" fill="#55f58b"/>
        </g>
        <g id="Grupo_110765" data-name="Grupo 110765" transform="translate(84.096 179.634)">
          <g id="Grupo_110764" data-name="Grupo 110764">
            <path id="Trazado_169978" data-name="Trazado 169978" d="M3325.874,442.636l2.611,13.132,10.068-8.826Z" transform="translate(-3325.874 -442.636)" fill="#55f58b"/>
          </g>
        </g>
      </g>
      <g id="Grupo_110770" data-name="Grupo 110770" transform="translate(2213.793 -381.473)">
        <g id="Grupo_110767" data-name="Grupo 110767" transform="translate(0 0)">
          <path id="Trazado_169979" data-name="Trazado 169979" d="M2342.13-128.956a1.668,1.668,0,0,1,2.358,0,1.667,1.667,0,0,1,0,2.358,97.172,97.172,0,0,0-4.347,132.559,1.668,1.668,0,0,1-2.506,2.2,99.922,99.922,0,0,1-24.85-69.23A99.961,99.961,0,0,1,2342.13-128.956Z" transform="translate(-2312.738 129.444)" fill="#57c45b"/>
        </g>
        <g id="Grupo_110769" data-name="Grupo 110769" transform="translate(22 132.459)">
          <g id="Grupo_110768" data-name="Grupo 110768">
            <path id="Trazado_169980" data-name="Trazado 169980" d="M2381.391,244.118l1.963,8.762-8.57-2.68Z" transform="translate(-2374.784 -244.118)" fill="#57c45b"/>
          </g>
        </g>
      </g>
      <g id="Grupo_110774" data-name="Grupo 110774" transform="translate(2297.007 -519.935)">
        <g id="Grupo_110771" data-name="Grupo 110771" transform="translate(0 2.711)">
          <path id="Trazado_169981" data-name="Trazado 169981" d="M2547.429-423.659a1.67,1.67,0,0,0,1.461,1.856,1.67,1.67,0,0,0,1.856-1.461,97.315,97.315,0,0,1,101.611-85.542,1.674,1.674,0,0,0,1.757-1.578,1.67,1.67,0,0,0-1.578-1.757,100.064,100.064,0,0,0-69.868,23.335A100.1,100.1,0,0,0,2547.429-423.659Z" transform="translate(-2547.417 512.289)" fill="#a27b1c"/>
        </g>
        <g id="Grupo_110773" data-name="Grupo 110773" transform="translate(103.367)">
          <g id="Grupo_110772" data-name="Grupo 110772">
            <path id="Trazado_169982" data-name="Trazado 169982" d="M2838.932-510.968l8.111-3.884-7.418-5.083Z" transform="translate(-2838.932 519.935)" fill="#a27b1c"/>
          </g>
        </g>
      </g>
      <path id="Trazado_169983" data-name="Trazado 169983" d="M2871.7,128.225h-10.379a9.173,9.173,0,0,0-8.464,5.7c-.016.038-.031.076-.047.113a9.178,9.178,0,0,0,1.948,10.027l7.339,7.339a9.132,9.132,0,0,1,0,12.914L2843.628,182.8a9.131,9.131,0,0,1-12.914,0l-7.34-7.339a9.176,9.176,0,0,0-10.027-1.947l-.113.047a9.173,9.173,0,0,0-5.7,8.464V192.4a9.132,9.132,0,0,1-9.132,9.132h-26.124a9.132,9.132,0,0,1-9.131-9.132V182.02a9.173,9.173,0,0,0-5.705-8.464l-.113-.047a9.176,9.176,0,0,0-10.027,1.947l-7.339,7.339a9.131,9.131,0,0,1-12.914,0l-18.473-18.472a9.132,9.132,0,0,1,0-12.914l7.339-7.339a9.176,9.176,0,0,0,1.948-10.027l-.047-.113a9.172,9.172,0,0,0-8.463-5.7h-10.379a9.132,9.132,0,0,1-9.132-9.132V92.97a9.132,9.132,0,0,1,9.132-9.132h10.379a9.172,9.172,0,0,0,8.463-5.7l.047-.113a9.176,9.176,0,0,0-1.948-10.027l-7.339-7.339a9.132,9.132,0,0,1,0-12.914l18.473-18.472a9.132,9.132,0,0,1,12.914,0l7.339,7.339a9.176,9.176,0,0,0,10.027,1.948l.113-.047a9.173,9.173,0,0,0,5.705-8.464V19.664a9.132,9.132,0,0,1,9.131-9.132H2798.4a9.132,9.132,0,0,1,9.132,9.132V30.043a9.173,9.173,0,0,0,5.7,8.464l.113.047a9.176,9.176,0,0,0,10.027-1.948l7.34-7.339a9.132,9.132,0,0,1,12.914,0L2862.1,47.739a9.132,9.132,0,0,1,0,12.914l-7.339,7.339a9.178,9.178,0,0,0-1.948,10.027c.017.038.032.076.047.113a9.173,9.173,0,0,0,8.464,5.7H2871.7a9.132,9.132,0,0,1,9.132,9.132v26.124A9.132,9.132,0,0,1,2871.7,128.225Zm-86.368-59.8a37.6,37.6,0,1,0,37.6,37.6A37.6,37.6,0,0,0,2785.336,68.428Z" transform="translate(-342.329 -342.371)" fill="#28c65d"/>
      <path id="Trazado_169984" data-name="Trazado 169984" d="M2503.083-37.794l-7.109.418a6.293,6.293,0,0,0-5.567,4.248l-.028.079a6.3,6.3,0,0,0,1.738,6.789l5.323,4.731a6.265,6.265,0,0,1,.52,8.845L2486.053.712a6.265,6.265,0,0,1-8.845.52L2471.886-3.5a6.3,6.3,0,0,0-6.946-.93l-.076.037a6.292,6.292,0,0,0-3.566,6.026l.418,7.109a6.265,6.265,0,0,1-5.887,6.622l-17.891,1.052a6.265,6.265,0,0,1-6.622-5.886l-.418-7.109a6.292,6.292,0,0,0-4.248-5.567l-.08-.028a6.3,6.3,0,0,0-6.789,1.738l-4.731,5.322a6.265,6.265,0,0,1-8.845.52L2392.811-6.5a6.265,6.265,0,0,1-.52-8.845l4.731-5.322a6.3,6.3,0,0,0,.93-6.946l-.037-.076a6.292,6.292,0,0,0-6.026-3.566l-7.109.418a6.265,6.265,0,0,1-6.622-5.886l-1.052-17.892a6.265,6.265,0,0,1,5.886-6.622l7.109-.418a6.293,6.293,0,0,0,5.566-4.248l.027-.08a6.3,6.3,0,0,0-1.738-6.789l-5.322-4.731a6.265,6.265,0,0,1-.52-8.845l11.907-13.4a6.265,6.265,0,0,1,8.845-.52l5.322,4.731a6.3,6.3,0,0,0,6.946.93l.075-.037a6.293,6.293,0,0,0,3.566-6.027l-.418-7.109a6.265,6.265,0,0,1,5.886-6.622l17.892-1.052a6.265,6.265,0,0,1,6.622,5.886l.418,7.109a6.294,6.294,0,0,0,4.248,5.567l.08.027a6.3,6.3,0,0,0,6.789-1.737l4.731-5.322a6.265,6.265,0,0,1,8.844-.52l13.4,11.907a6.265,6.265,0,0,1,.521,8.845l-4.731,5.322a6.3,6.3,0,0,0-.93,6.946l.036.076a6.294,6.294,0,0,0,6.027,3.566l7.109-.418a6.265,6.265,0,0,1,6.622,5.886l1.052,17.891A6.265,6.265,0,0,1,2503.083-37.794Zm-61.56-37.475A25.8,25.8,0,0,0,2417.283-48a25.8,25.8,0,0,0,27.269,24.24,25.8,25.8,0,0,0,24.24-27.269A25.8,25.8,0,0,0,2441.523-75.269Z" transform="translate(-140.482 -261.056)" fill="#43a047"/>
      <path id="Trazado_169985" data-name="Trazado 169985" d="M2766.514-380.944l-7.417,3.306a7.176,7.176,0,0,0-4.23,6.772c0,.032,0,.064,0,.1a7.179,7.179,0,0,0,4.586,6.545l7.582,2.906a7.144,7.144,0,0,1,4.114,9.228l-7.314,19.083a7.143,7.143,0,0,1-9.227,4.114l-7.583-2.906a7.179,7.179,0,0,0-7.785,1.8l-.066.07a7.174,7.174,0,0,0-1.38,7.864l3.306,7.416a7.143,7.143,0,0,1-3.616,9.434l-18.665,8.321a7.144,7.144,0,0,1-9.434-3.616l-3.306-7.416a7.176,7.176,0,0,0-6.772-4.23l-.1,0a7.179,7.179,0,0,0-6.544,4.586l-2.906,7.582a7.144,7.144,0,0,1-9.228,4.114l-19.083-7.314a7.144,7.144,0,0,1-4.114-9.227l2.906-7.582a7.18,7.18,0,0,0-1.8-7.785l-.07-.066a7.175,7.175,0,0,0-7.864-1.38l-7.417,3.307a7.144,7.144,0,0,1-9.434-3.616l-8.321-18.666a7.144,7.144,0,0,1,3.616-9.434l7.417-3.306a7.177,7.177,0,0,0,4.23-6.772c0-.032,0-.064,0-.1a7.18,7.18,0,0,0-4.586-6.544l-7.582-2.906a7.144,7.144,0,0,1-4.114-9.228l7.314-19.083a7.144,7.144,0,0,1,9.228-4.114l7.582,2.906a7.179,7.179,0,0,0,7.785-1.8l.066-.07a7.177,7.177,0,0,0,1.38-7.864l-3.307-7.417a7.144,7.144,0,0,1,3.616-9.434l18.665-8.321a7.144,7.144,0,0,1,9.434,3.616l3.306,7.417a7.176,7.176,0,0,0,6.772,4.23l.1,0a7.179,7.179,0,0,0,6.544-4.586l2.906-7.582a7.144,7.144,0,0,1,9.228-4.114l19.083,7.314a7.144,7.144,0,0,1,4.114,9.227l-2.906,7.582a7.18,7.18,0,0,0,1.8,7.785l.07.066a7.176,7.176,0,0,0,7.865,1.38l7.416-3.307a7.144,7.144,0,0,1,9.434,3.616l8.322,18.666A7.144,7.144,0,0,1,2766.514-380.944Zm-80.76-15.214a29.418,29.418,0,0,0-14.89,38.847,29.417,29.417,0,0,0,38.847,14.89,29.417,29.417,0,0,0,14.89-38.847A29.418,29.418,0,0,0,2685.754-396.158Z" transform="translate(-299.734 -49.537)" fill="#c99a28"/>
      <g id="Grupo_110780" data-name="Grupo 110780" transform="translate(2227.788 -271.079)">
        <path id="Trazado_169986" data-name="Trazado 169986" d="M2675.687,375.313,2677,394.307l17.755,2.809s7.744-2.724,9.015-2.774,7.072,2.218,7.414,2.85,0,6.841,0,6.841-2.1,3.583-2.806,3.986-1.5-1.584-1.5-1.584l1.412-3.955-2.48-2.37s-2.284,4.537-3.318,5.43-1.12,1.053-3.25,1.493c-1.042.215-4.489-.6-4.489-.6s-24.08-3.609-27.287-5.231-5.984-25.89-5.984-25.89Z" transform="translate(-2551.821 -306.727)" fill="#e58070"/>
        <path id="Trazado_169987" data-name="Trazado 169987" d="M2673.084,331.335l1.754,23.531-16.439,3.35Z" transform="translate(-2549.828 -278.343)" fill="#fff4d1"/>
        <path id="Trazado_169988" data-name="Trazado 169988" d="M2366.152,778.417l-13.491,8.594a.982.982,0,0,0-.3,1.361l14.607,22.59a1.748,1.748,0,0,0,1.468.8h9.237s1.325-1.509.431-5.191c-.361-1.486-4.362-2.183-5-3.765a19.09,19.09,0,0,1-.958-8.6c.571-3.834,1.612-3.782,4.4-5.918s-1.888-14.13-5.612-12.4S2368.584,777.2,2366.152,778.417Z" transform="translate(-2352.206 -565.154)" fill="#0f5c29"/>
        <path id="Trazado_169989" data-name="Trazado 169989" d="M2468.893,531.684s-1.656,15.726-5.8,23.989-16.464,44.875-23.008,51.474c-6.077,6.13-48.834,29.41-48.834,29.41l-12.433-13.385,42.594-30.639,13.249-60.85Z" transform="translate(-2369.385 -407.651)" fill="#7b5d14"/>
        <path id="Trazado_169990" data-name="Trazado 169990" d="M2664.947,815.883l-1.782,16.2a.693.693,0,0,0,.7.783h35.707s2.538-5.122-2.733-6.74-12.695-2.923-15.6-5.484-2.071-4.625-2.349-8.13-12.891-6.086-13.464-2.022S2665.244,813.179,2664.947,815.883Z" transform="translate(-2552.9 -586.26)" fill="#0f5c29"/>
        <path id="Trazado_169991" data-name="Trazado 169991" d="M2497.563,503.584s-8.738,24.956-4.243,33.2c6.482,11.883,18.566,15.255,26.875,17.59,9.932,2.792,36.286,16.071,36.286,16.071l-3.262,48.652,15.327.3s9.134-38.576,9.768-52.311c.169-3.664.664-10.155-3.724-13.525-13.479-10.351-42.2-31.509-43.884-32.556-1.929-1.2.6-7.11-3.39-9.2C2516.384,506.066,2497.563,503.584,2497.563,503.584Z" transform="translate(-2442.454 -389.515)" fill="#a27b1c"/>
        <g id="Grupo_110777" data-name="Grupo 110777" transform="translate(97.686 0)">
          <path id="Trazado_169992" data-name="Trazado 169992" d="M2648.418,273.592l-3.262,5.876,3.262,11.347-20.717-10.9,9.676-19.837,10.511,1.354Z" transform="translate(-2627.701 -232.355)" fill="#e58070"/>
          <path id="Trazado_169993" data-name="Trazado 169993" d="M2677.4,214.635c.205.472-1.81,4.927-2.087,7.877-.326,3.478-.068,7.758-.243,8.9-.217,1.406-2.336-.806-2.867.41-1.6,3.651-3.205,6.5-4.271,6.752-3,.719-10.28-3.237-10.7-4.994s2.716-7.1,2.716-7.1-10.755-9.349-8.347-12.391c2.319-2.928,4.009.974,4.009.974s3.071-11.275,4.213-11.7S2676.545,212.685,2677.4,214.635Z" transform="translate(-2642.893 -195.739)" fill="#f7a890"/>
          <path id="Trazado_169994" data-name="Trazado 169994" d="M2664.388,194.838s-.884,6.52-5.655,10.432c0,0-2.219-3.123-4.009-.973s.82,8.332.82,8.332-4.463,3.246-5.909,3.226a15.123,15.123,0,0,1-3.774-.878s-2.307-15.039-1.059-20.4,5.177-12.52,9.293-12.673c6.6-.245,8.447,3.848,8.447,3.848s12.785,4.414,17.74,3.951,1.419,15.455-7.281,11.086S2664.388,194.838,2664.388,194.838Z" transform="translate(-2638.5 -181.887)" fill="#12263f"/>
          <g id="Grupo_110775" data-name="Grupo 110775" transform="translate(28.78 20.798)">
            <path id="Trazado_169995" data-name="Trazado 169995" d="M2708.933,241.122a.219.219,0,0,0,.226.05c.021-.007,2.054-.7,3.082.644a.219.219,0,1,0,.347-.266c-1.223-1.6-3.48-.824-3.575-.79a.219.219,0,0,0-.133.279A.225.225,0,0,0,2708.933,241.122Z" transform="translate(-2708.868 -240.543)" fill="#0c1e3e"/>
          </g>
          <path id="Trazado_169996" data-name="Trazado 169996" d="M2712.344,249.132c-.186.8-.692,1.364-1.131,1.262s-.643-.833-.457-1.632.692-1.364,1.131-1.262S2712.531,248.333,2712.344,249.132Z" transform="translate(-2681.261 -224.227)" fill="#0c1e3e"/>
          <g id="Grupo_110776" data-name="Grupo 110776" transform="translate(23.868 36.384)">
            <path id="Trazado_169997" data-name="Trazado 169997" d="M2698.149,286.954l-.026-.008c-.3-.109-2.9-1.1-3.105-2.191a.219.219,0,1,1,.43-.079c.118.64,1.8,1.48,2.826,1.859a.219.219,0,0,1-.125.418Z" transform="translate(-2695.015 -284.498)" fill="#0c1e3e"/>
          </g>
        </g>
        <path id="Trazado_169998" data-name="Trazado 169998" d="M2554.7,286.731s6.9,12.109,10.981,16.966,1.3-6.533,1.3-6.533l1.292-2.4s6.82,6.543,7.057,7.785c.292,1.535-4.853,22.653-8.816,31.572-3.95,8.887-8.314,16.931-12.007,27.768-2.811,8.249-2.925,11.7-2.925,11.7s-5.437,3.156-23.884.431c-10.788-1.594-20.762-9.622-20.762-9.622,8.85-27.207,10.434-69.535,25.2-73.022C2543.426,288.708,2554.7,286.731,2554.7,286.731Z" transform="translate(-2452.067 -249.555)" fill="#fff4d1"/>
        <path id="Trazado_169999" data-name="Trazado 169999" d="M2597.542,372.565l11.543,17.6,35.058,5.772s9.085-2.724,10.355-2.774,7.072,2.218,7.414,2.85,0,6.84,0,6.84-2.1,3.584-2.806,3.986-1.5-1.584-1.5-1.584l1.412-3.955-2.48-2.371s-2.285,4.537-3.318,5.431a5.954,5.954,0,0,1-4.157,1.934c-1.054.138-4.923-1.039-4.923-1.039s-40.226-.48-43.432-2.1-14.828-20.015-14.828-20.015Z" transform="translate(-2503.024 -304.954)" fill="#f7a890"/>
        <circle id="Elipse_5808" data-name="Elipse 5808" cx="4.261" cy="4.261" r="4.261" transform="translate(146.147 97.084) rotate(-45)" fill="#282829"/>
        <path id="Trazado_170000" data-name="Trazado 170000" d="M2571.791,331.335l14.648,27.832-14.826,10.293-2.36-3.479-15.634-23.052Z" transform="translate(-2482.201 -278.343)" fill="#fff4d1"/>
        <g id="Grupo_110778" data-name="Grupo 110778" transform="translate(80.349 46.357)">
          <path id="Trazado_170001" data-name="Trazado 170001" d="M2602.7,346.315a.177.177,0,0,1-.155-.091c-.09-.16-8.984-16.161-11.735-25.155-2.7-8.839-11.714-8.082-11.8-8.073a.177.177,0,0,1-.034-.353c.094-.009,9.39-.79,12.177,8.323,2.74,8.958,11.616,24.926,11.706,25.087a.177.177,0,0,1-.154.263Z" transform="translate(-2578.807 -312.622)" fill="#7b5d14"/>
        </g>
        <g id="Grupo_110779" data-name="Grupo 110779" transform="translate(77.192 70.049)">
          <path id="Trazado_170002" data-name="Trazado 170002" d="M2582.123,400.683a.177.177,0,0,1-.154-.089L2569.928,379.7a.177.177,0,1,1,.307-.177l12.042,20.891a.177.177,0,0,1-.154.266Z" transform="translate(-2569.904 -379.438)" fill="#7b5d14"/>
        </g>
      </g>
    </g>
    <g id="Trazado_171599" data-name="Trazado 171599" transform="translate(483 1067.502)" fill="#fffae8">
      <path d="M 41 80 C 35.73414993286133 80 30.62687492370605 78.96912384033203 25.82004928588867 76.93601226806641 C 21.17620086669922 74.97182464599609 17.00517463684082 72.15950012207031 13.42283725738525 68.57716369628906 C 9.840499877929688 64.99482727050781 7.028174877166748 60.82379913330078 5.063987731933594 56.17995071411133 C 3.030874967575073 51.37312316894531 2 46.26585006713867 2 41 C 2 35.73414993286133 3.030874967575073 30.62687492370605 5.063987731933594 25.82004928588867 C 7.028174877166748 21.17620086669922 9.840499877929688 17.00517463684082 13.42283725738525 13.42283725738525 C 17.00517463684082 9.840499877929688 21.17620086669922 7.028174877166748 25.82004928588867 5.063987731933594 C 30.62687492370605 3.030874967575073 35.73414993286133 2 41 2 C 46.26585006713867 2 51.37312316894531 3.030874967575073 56.17995071411133 5.063987731933594 C 60.82379913330078 7.028174877166748 64.99482727050781 9.840499877929688 68.57716369628906 13.42283725738525 C 72.15950012207031 17.00517463684082 74.97182464599609 21.17620086669922 76.93601226806641 25.82004928588867 C 78.96912384033203 30.62687492370605 80 35.73414993286133 80 41 C 80 46.26585006713867 78.96912384033203 51.37312316894531 76.93601226806641 56.17995071411133 C 74.97182464599609 60.82379913330078 72.15950012207031 64.99482727050781 68.57716369628906 68.57716369628906 C 64.99482727050781 72.15950012207031 60.82379913330078 74.97182464599609 56.17995071411133 76.93601226806641 C 51.37312316894531 78.96912384033203 46.26585006713867 80 41 80 Z" stroke="none"/>
      <path d="M 41 4 C 36.00327301025391 4 31.15812683105469 4.977714538574219 26.59915542602539 6.905998229980469 C 22.19369888305664 8.769355773925781 18.23635864257812 11.437744140625 14.83705902099609 14.83705902099609 C 11.437744140625 18.23635864257812 8.769355773925781 22.19369888305664 6.905998229980469 26.59915542602539 C 4.977714538574219 31.15812683105469 4 36.00327301025391 4 41 C 4 45.99672698974609 4.977714538574219 50.84187316894531 6.905998229980469 55.40084075927734 C 8.769355773925781 59.80629730224609 11.437744140625 63.76364135742188 14.83705902099609 67.16294097900391 C 18.23635864257812 70.562255859375 22.19369888305664 73.23064422607422 26.59915542602539 75.09400177001953 C 31.15812683105469 77.02228546142578 36.00327301025391 78 41 78 C 45.99672698974609 78 50.84187316894531 77.02228546142578 55.40084075927734 75.09400177001953 C 59.80629730224609 73.23064422607422 63.76364135742188 70.562255859375 67.16294097900391 67.16294097900391 C 70.562255859375 63.76364135742188 73.23064422607422 59.80629730224609 75.09400177001953 55.40084075927734 C 77.02228546142578 50.84187316894531 78 45.99672698974609 78 41 C 78 36.00327301025391 77.02228546142578 31.15812683105469 75.09400177001953 26.59915542602539 C 73.23064422607422 22.19369888305664 70.562255859375 18.23635864257812 67.16294097900391 14.83705902099609 C 63.76364135742188 11.437744140625 59.80629730224609 8.769355773925781 55.40084075927734 6.905998229980469 C 50.84187316894531 4.977714538574219 45.99672698974609 4 41 4 M 41 0 C 63.64366912841797 0 82 18.35632705688477 82 41 C 82 63.64366912841797 63.64366912841797 82 41 82 C 18.35632705688477 82 0 63.64366912841797 0 41 C 0 18.35632705688477 18.35632705688477 0 41 0 Z" stroke="none" fill="#7b5d14"/>
    </g>
    <g id="Trazado_171600" data-name="Trazado 171600" transform="translate(389 1177.502)" fill="#fffae8">
      <path d="M 41 80 C 35.73414993286133 80 30.62687492370605 78.96912384033203 25.82004928588867 76.93601226806641 C 21.17620086669922 74.97182464599609 17.00517463684082 72.15950012207031 13.42283725738525 68.57716369628906 C 9.840499877929688 64.99482727050781 7.028174877166748 60.82379913330078 5.063987731933594 56.17995071411133 C 3.030874967575073 51.37312316894531 2 46.26585006713867 2 41 C 2 35.73414993286133 3.030874967575073 30.62687492370605 5.063987731933594 25.82004928588867 C 7.028174877166748 21.17620086669922 9.840499877929688 17.00517463684082 13.42283725738525 13.42283725738525 C 17.00517463684082 9.840499877929688 21.17620086669922 7.028174877166748 25.82004928588867 5.063987731933594 C 30.62687492370605 3.030874967575073 35.73414993286133 2 41 2 C 46.26585006713867 2 51.37312316894531 3.030874967575073 56.17995071411133 5.063987731933594 C 60.82379913330078 7.028174877166748 64.99482727050781 9.840499877929688 68.57716369628906 13.42283725738525 C 72.15950012207031 17.00517463684082 74.97182464599609 21.17620086669922 76.93601226806641 25.82004928588867 C 78.96912384033203 30.62687492370605 80 35.73414993286133 80 41 C 80 46.26585006713867 78.96912384033203 51.37312316894531 76.93601226806641 56.17995071411133 C 74.97182464599609 60.82379913330078 72.15950012207031 64.99482727050781 68.57716369628906 68.57716369628906 C 64.99482727050781 72.15950012207031 60.82379913330078 74.97182464599609 56.17995071411133 76.93601226806641 C 51.37312316894531 78.96912384033203 46.26585006713867 80 41 80 Z" stroke="none"/>
      <path d="M 41 4 C 36.00327301025391 4 31.15812683105469 4.977714538574219 26.59915542602539 6.905998229980469 C 22.19369888305664 8.769355773925781 18.23635864257812 11.437744140625 14.83705902099609 14.83705902099609 C 11.437744140625 18.23635864257812 8.769355773925781 22.19369888305664 6.905998229980469 26.59915542602539 C 4.977714538574219 31.15812683105469 4 36.00327301025391 4 41 C 4 45.99672698974609 4.977714538574219 50.84187316894531 6.905998229980469 55.40084075927734 C 8.769355773925781 59.80629730224609 11.437744140625 63.76364135742188 14.83705902099609 67.16294097900391 C 18.23635864257812 70.562255859375 22.19369888305664 73.23064422607422 26.59915542602539 75.09400177001953 C 31.15812683105469 77.02228546142578 36.00327301025391 78 41 78 C 45.99672698974609 78 50.84187316894531 77.02228546142578 55.40084075927734 75.09400177001953 C 59.80629730224609 73.23064422607422 63.76364135742188 70.562255859375 67.16294097900391 67.16294097900391 C 70.562255859375 63.76364135742188 73.23064422607422 59.80629730224609 75.09400177001953 55.40084075927734 C 77.02228546142578 50.84187316894531 78 45.99672698974609 78 41 C 78 36.00327301025391 77.02228546142578 31.15812683105469 75.09400177001953 26.59915542602539 C 73.23064422607422 22.19369888305664 70.562255859375 18.23635864257812 67.16294097900391 14.83705902099609 C 63.76364135742188 11.437744140625 59.80629730224609 8.769355773925781 55.40084075927734 6.905998229980469 C 50.84187316894531 4.977714538574219 45.99672698974609 4 41 4 M 41 0 C 63.64366912841797 0 82 18.35632705688477 82 41 C 82 63.64366912841797 63.64366912841797 82 41 82 C 18.35632705688477 82 0 63.64366912841797 0 41 C 0 18.35632705688477 18.35632705688477 0 41 0 Z" stroke="none" fill="#1c551f"/>
    </g>
    <g id="Trazado_171601" data-name="Trazado 171601" transform="translate(517 1239.502)" fill="#fffae8">
      <path d="M 51 100 C 44.3841552734375 100 37.96728515625 98.70472717285156 31.9276008605957 96.15015411376953 C 26.09295654296875 93.68231201171875 20.85248565673828 90.14895629882812 16.35177230834961 85.64823150634766 C 11.85104274749756 81.14751434326172 8.317686080932617 75.90704345703125 5.84984302520752 70.07240295410156 C 3.295271396636963 64.03271484375 2 57.6158447265625 2 51 C 2 44.3841552734375 3.295271396636963 37.96728515625 5.84984302520752 31.9276008605957 C 8.317686080932617 26.09295654296875 11.85104274749756 20.85248565673828 16.35177230834961 16.35177230834961 C 20.85248565673828 11.85104274749756 26.09295654296875 8.317686080932617 31.9276008605957 5.84984302520752 C 37.96728515625 3.295271396636963 44.3841552734375 2 51 2 C 57.6158447265625 2 64.03271484375 3.295271396636963 70.07240295410156 5.84984302520752 C 75.90704345703125 8.317686080932617 81.14751434326172 11.85104274749756 85.64823150634766 16.35177230834961 C 90.14895629882812 20.85248565673828 93.68231201171875 26.09295654296875 96.15015411376953 31.9276008605957 C 98.70472717285156 37.96728515625 100 44.3841552734375 100 51 C 100 57.6158447265625 98.70472717285156 64.03271484375 96.15015411376953 70.07240295410156 C 93.68231201171875 75.90704345703125 90.14895629882812 81.14751434326172 85.64823150634766 85.64823150634766 C 81.14751434326172 90.14895629882812 75.90704345703125 93.68231201171875 70.07240295410156 96.15015411376953 C 64.03271484375 98.70472717285156 57.6158447265625 100 51 100 Z" stroke="none"/>
      <path d="M 51 4 C 44.65328216552734 4 38.49853515625 5.242118835449219 32.70671844482422 7.691848754882812 C 27.11046600341797 10.05886840820312 22.08366394042969 13.44830322265625 17.76598358154297 17.76598358154297 C 13.44830322265625 22.08366394042969 10.05886840820312 27.11046600341797 7.691848754882812 32.70671844482422 C 5.242118835449219 38.49853515625 4 44.65328216552734 4 51 C 4 57.34671783447266 5.242118835449219 63.50146484375 7.691848754882812 69.29328155517578 C 10.05886840820312 74.88953399658203 13.44830322265625 79.91633605957031 17.76598358154297 84.23401641845703 C 22.08366394042969 88.55169677734375 27.11046600341797 91.94113159179688 32.70671844482422 94.30815124511719 C 38.49853515625 96.75788116455078 44.65328216552734 98 51 98 C 57.34671783447266 98 63.50146484375 96.75788116455078 69.29328155517578 94.30815124511719 C 74.88953399658203 91.94113159179688 79.91633605957031 88.55169677734375 84.23401641845703 84.23401641845703 C 88.55169677734375 79.91633605957031 91.94113159179688 74.88953399658203 94.30815124511719 69.29328155517578 C 96.75788116455078 63.50146484375 98 57.34671783447266 98 51 C 98 44.65328216552734 96.75788116455078 38.49853515625 94.30815124511719 32.70671844482422 C 91.94113159179688 27.11046600341797 88.55169677734375 22.08366394042969 84.23401641845703 17.76598358154297 C 79.91633605957031 13.44830322265625 74.88953399658203 10.05886840820312 69.29328155517578 7.691848754882812 C 63.50146484375 5.242118835449219 57.34671783447266 4 51 4 M 51 0 C 79.16651916503906 0 102 22.83348083496094 102 51 C 102 79.16651916503906 79.16651916503906 102 51 102 C 22.83348083496094 102 0 79.16651916503906 0 51 C 0 22.83348083496094 22.83348083496094 0 51 0 Z" stroke="none" fill="#0f5c29"/>
    </g>
    <path id="Trazado_171602" data-name="Trazado 171602" d="M12.612-5.669a2.113,2.113,0,0,0-.8-1.758,9.923,9.923,0,0,0-2.805-1.3,26.912,26.912,0,0,1-3.281-1.3q-4.146-2.036-4.146-5.6a5.018,5.018,0,0,1,1.033-3.127,6.68,6.68,0,0,1,2.922-2.109,11.372,11.372,0,0,1,4.248-.754,9.948,9.948,0,0,1,4.124.82,6.529,6.529,0,0,1,2.834,2.336A6.1,6.1,0,0,1,17.754-15H12.627a2.578,2.578,0,0,0-.8-2.021,3.112,3.112,0,0,0-2.161-.718,3.509,3.509,0,0,0-2.175.608,1.865,1.865,0,0,0-.8,1.545A1.878,1.878,0,0,0,7.573-14.1a11.084,11.084,0,0,0,3.091,1.377A18.934,18.934,0,0,1,14.3-11.191,6.1,6.1,0,0,1,17.754-5.7,5.208,5.208,0,0,1,15.645-1.3,9.382,9.382,0,0,1,9.858.293a11.48,11.48,0,0,1-4.695-.93A7.078,7.078,0,0,1,2-3.186,6.641,6.641,0,0,1,.938-6.914H6.094A3.271,3.271,0,0,0,6.98-4.387a4.189,4.189,0,0,0,2.878.813,3.309,3.309,0,0,0,2.014-.549A1.813,1.813,0,0,0,12.612-5.669ZM32.5-3.984H25.459L24.229,0H18.735l7.822-21.328h4.834L39.272,0H33.75Zm-5.815-3.97h4.585l-2.3-7.4Zm22.061.41H45.967V0H40.825V-21.328h8.394a9.368,9.368,0,0,1,5.933,1.683A5.7,5.7,0,0,1,57.29-14.89a6.925,6.925,0,0,1-.9,3.688,6.394,6.394,0,0,1-2.82,2.371L58.022-.22V0H52.515ZM45.967-11.5h3.252a2.919,2.919,0,0,0,2.2-.771,2.98,2.98,0,0,0,.74-2.151,3.015,3.015,0,0,0-.747-2.166,2.892,2.892,0,0,0-2.2-.786H45.967Z" transform="translate(495 1119.002)" fill="#12263f"/>
    <path id="Trazado_171603" data-name="Trazado 171603" d="M6.753-3.955H15.7V0H1.611V-21.328H6.753Zm23.511-.029H23.218L21.987,0H16.494l7.822-21.328H29.15L37.031,0H31.509Zm-5.815-3.97h4.585l-2.3-7.4Z" transform="translate(411.5 1227.002)" fill="#12263f"/>
    <path id="Trazado_171604" data-name="Trazado 171604" d="M15.044-8.5H6.753V0H1.611V-21.328H15.879v3.97H6.753v4.907h8.291Zm20.01-8.862h-6.4V0H23.511V-17.358H17.227v-3.97H35.054Z" transform="translate(550 1301.002)" fill="#12263f"/>
  </g>
</svg>
