<svg xmlns="http://www.w3.org/2000/svg" width="74.455" height="74.405" viewBox="0 0 74.455 74.405">
  <g id="Grupo_110888" data-name="Grupo 110888" transform="translate(651.45 -1503.586)">
    <path id="Trazado_170373" data-name="Trazado 170373" d="M-624.928,1503.586c.968.235,1.943.446,2.9.708A23.246,23.246,0,0,1-605,1524.6a22.9,22.9,0,0,1-2.7,13.224.668.668,0,0,0,.149.969c1.151,1.107,2.285,2.234,3.387,3.391.369.387.573.331.9-.024.658-.709,1.355-1.383,2.047-2.06a1.189,1.189,0,0,1,1.948-.006q2.194,2.17,4.364,4.365a1.19,1.19,0,0,1,.022,1.9c-.43.478-1.282.875-1.212,1.42.067.518.821.951,1.282,1.412,4.552,4.554,9.088,9.124,13.668,13.651,1.792,1.771,3.588,3.508,4.146,6.1v2.76c-.241.114-.2.369-.257.561a7.681,7.681,0,0,1-12.7,3.616c-3.276-3.085-6.392-6.339-9.578-9.521-2.415-2.411-4.834-4.818-7.23-7.248-.36-.365-.577-.383-.9.008a10.51,10.51,0,0,1-.971.979,1.145,1.145,0,0,1-1.79.009q-2.278-2.24-4.518-4.518a1.135,1.135,0,0,1,.027-1.787c.722-.749,1.455-1.49,2.209-2.205.3-.283.3-.451,0-.742q-1.771-1.72-3.49-3.492a.629.629,0,0,0-.913-.126,23.269,23.269,0,0,1-11.7,2.824,23.286,23.286,0,0,1-22.277-19.012,23.158,23.158,0,0,1,16.006-26.552c1.182-.368,2.4-.611,3.607-.913Zm17.719,23.236a20.923,20.923,0,0,0-20.915-20.912,20.932,20.932,0,0,0-20.916,20.839,20.947,20.947,0,0,0,20.992,20.991A20.931,20.931,0,0,0-607.209,1526.822Zm27.9,43.566a5.722,5.722,0,0,0-1.747-4.155q-8.2-8.179-16.371-16.382c-.38-.382-.571-.4-.957-.005-2.152,2.194-4.319,4.374-6.522,6.517-.521.507-.583.772-.026,1.323q8.019,7.947,15.981,15.951a8.912,8.912,0,0,0,.736.7,5.208,5.208,0,0,0,5.709.789A5.247,5.247,0,0,0-579.312,1570.388Zm-18.009-25.024a2.513,2.513,0,0,0-.163-.194c-.837-.84-1.684-1.671-2.511-2.52-.279-.287-.414-.059-.579.107q-5.8,5.8-11.608,11.6c-.251.25-.332.406-.032.691.807.766,1.59,1.558,2.363,2.359.243.251.393.247.639,0q5.817-5.837,11.646-11.661C-597.467,1545.645-597.322,1545.572-597.321,1545.364Zm-8.105-1.112a2.069,2.069,0,0,0-.154-.2c-1.143-1.146-2.292-2.286-3.429-3.437-.25-.253-.366-.081-.5.1a23.28,23.28,0,0,1-4.7,4.7c-.28.209-.321.347-.054.608q1.658,1.622,3.281,3.278c.225.229.368.214.586-.006,1.581-1.6,3.173-3.181,4.76-4.771A2.806,2.806,0,0,0-605.427,1544.252Z" transform="translate(0 0)" fill="#332e3b"/>
    <path id="Trazado_170374" data-name="Trazado 170374" d="M-597.2,1536.469a20.931,20.931,0,0,1-20.838,20.918,20.947,20.947,0,0,1-20.992-20.991,20.932,20.932,0,0,1,20.916-20.839A20.923,20.923,0,0,1-597.2,1536.469Zm-39.507-.049a18.6,18.6,0,0,0,18.483,18.643,18.626,18.626,0,0,0,18.7-18.581,18.608,18.608,0,0,0-18.525-18.6A18.6,18.6,0,0,0-636.711,1536.42Z" transform="translate(-10.005 -9.647)" fill="#e6eaf5"/>
    <path id="Trazado_170375" data-name="Trazado 170375" d="M-387.84,1761.228a5.248,5.248,0,0,1-3.2,4.739,5.209,5.209,0,0,1-5.709-.79,8.882,8.882,0,0,1-.736-.7q-7.984-7.981-15.981-15.951c-.556-.551-.5-.816.026-1.323,2.2-2.143,4.37-4.323,6.522-6.517.386-.394.577-.377.957,0q8.169,8.208,16.371,16.382A5.722,5.722,0,0,1-387.84,1761.228Zm-5.325,4.081a4.192,4.192,0,0,0,2.768-1.125,1.152,1.152,0,0,0,.2-1.671,1.17,1.17,0,0,0-1.679-.116,1.962,1.962,0,0,1-2.754.01,1.184,1.184,0,0,0-1.734.107,1.217,1.217,0,0,0,.292,1.723A4.3,4.3,0,0,0-393.165,1765.309Z" transform="translate(-191.472 -190.84)" fill="#d9e2f5"/>
    <path id="Trazado_170376" data-name="Trazado 170376" d="M-435.238,1706.961c0,.208-.145.282-.243.379q-5.823,5.83-11.646,11.661c-.246.247-.4.25-.639,0-.773-.8-1.556-1.593-2.363-2.359-.3-.285-.22-.44.032-.691q5.811-5.791,11.607-11.6c.166-.166.3-.393.579-.106.827.85,1.673,1.68,2.511,2.52A2.474,2.474,0,0,1-435.238,1706.961Z" transform="translate(-162.083 -161.597)" fill="#e6eaf5"/>
    <path id="Trazado_170377" data-name="Trazado 170377" d="M-451.8,1697.427a2.81,2.81,0,0,1-.211.267q-2.38,2.386-4.76,4.771c-.218.22-.361.234-.586.006q-1.626-1.653-3.28-3.278c-.267-.261-.225-.4.054-.608a23.275,23.275,0,0,0,4.7-4.7c.137-.182.253-.355.5-.1,1.137,1.152,2.286,2.292,3.429,3.438A2.094,2.094,0,0,1-451.8,1697.427Z" transform="translate(-153.628 -153.175)" fill="#d9e2f5"/>
    <path id="Trazado_170378" data-name="Trazado 170378" d="M-627.064,1546.068a18.6,18.6,0,0,1,18.66-18.539,18.607,18.607,0,0,1,18.525,18.6,18.625,18.625,0,0,1-18.7,18.581A18.6,18.6,0,0,1-627.064,1546.068Zm2.325.031a16.3,16.3,0,0,0,16.378,16.287,16.308,16.308,0,0,0,16.153-16.068,16.264,16.264,0,0,0-16.338-16.464A16.293,16.293,0,0,0-624.739,1546.1Z" transform="translate(-19.652 -19.295)" fill="#332e3b"/>
    <path id="Trazado_170379" data-name="Trazado 170379" d="M-321.545,1855.347a4.3,4.3,0,0,1-2.9-1.071,1.217,1.217,0,0,1-.292-1.724,1.184,1.184,0,0,1,1.734-.106,1.962,1.962,0,0,0,2.754-.01,1.17,1.17,0,0,1,1.679.115,1.152,1.152,0,0,1-.2,1.671A4.2,4.2,0,0,1-321.545,1855.347Z" transform="translate(-263.092 -280.878)" fill="#332e3b"/>
    <path id="Trazado_170380" data-name="Trazado 170380" d="M-615.086,1555.75a16.292,16.292,0,0,1,16.193-16.245,16.264,16.264,0,0,1,16.338,16.464,16.308,16.308,0,0,1-16.153,16.068A16.3,16.3,0,0,1-615.086,1555.75Zm8.132.033c0,.726-.011,1.452,0,2.178a1.169,1.169,0,0,0,1.31,1.294c.871.014,1.744.033,2.613-.008.546-.026.775.1.736.7-.056.867-.023,1.742-.012,2.612a1.179,1.179,0,0,0,1.337,1.34q2.142.017,4.283,0a1.18,1.18,0,0,0,1.348-1.33c.013-.944.019-1.888,0-2.831-.01-.387.126-.5.5-.491.919.022,1.839.013,2.759.005.962-.008,1.387-.417,1.394-1.358q.016-2.141,0-4.283c-.008-.9-.438-1.318-1.349-1.329-.9-.01-1.792-.024-2.686.007-.457.016-.643-.1-.621-.594.039-.894.018-1.79.009-2.685-.01-.951-.426-1.37-1.376-1.375q-2.105-.013-4.211,0c-.957.005-1.373.419-1.383,1.367-.01.919-.022,1.839.006,2.758.013.419-.131.541-.538.528-.846-.027-1.694-.009-2.541-.008-1.2,0-1.574.363-1.578,1.538C-606.956,1554.477-606.954,1555.13-606.954,1555.783Zm-5.8-.562c-.023,1.123.335,1.676,1.108,1.708s1.169-.51,1.22-1.612a11.171,11.171,0,0,1,1.877-5.863,11.494,11.494,0,0,1,9.564-5.3c.838-.031,1.353-.5,1.327-1.208a1.168,1.168,0,0,0-1.339-1.111c-.554.01-1.109.068-1.66.129A13.978,13.978,0,0,0-612.758,1555.221Z" transform="translate(-29.304 -28.946)" fill="#ffecb3"/>
    <path id="Trazado_170381" data-name="Trazado 170381" d="M-573.212,1589.524c0-.653,0-1.307,0-1.96,0-1.176.374-1.536,1.578-1.538.847,0,1.695-.019,2.541.007.407.013.55-.11.538-.528-.028-.919-.016-1.839-.006-2.758.01-.948.426-1.361,1.383-1.367q2.105-.012,4.211,0c.95.006,1.366.424,1.376,1.375.009.9.031,1.792-.009,2.686-.022.5.163.61.621.594.894-.031,1.791-.017,2.686-.007.911.01,1.341.427,1.349,1.328q.018,2.141,0,4.283c-.007.941-.432,1.35-1.394,1.358-.92.008-1.84.017-2.759-.005-.375-.009-.51.1-.5.491.024.943.017,1.887,0,2.831a1.18,1.18,0,0,1-1.348,1.33q-2.142.016-4.283,0a1.179,1.179,0,0,1-1.337-1.34c-.011-.871-.044-1.745.012-2.613.039-.6-.19-.729-.736-.7-.869.041-1.742.021-2.613.008a1.168,1.168,0,0,1-1.31-1.294C-573.224,1590.976-573.212,1590.25-573.212,1589.524Zm11.96,1.149h.29c1.791,0,1.779,0,1.7-1.832-.016-.378-.125-.507-.5-.5-.8.022-1.6.007-2.4.007-1.475,0-1.758-.29-1.759-1.793V1585.4c0-1.791,0-1.779-1.832-1.7-.378.016-.52.125-.495.5s0,.774.006,1.161c.049,3.052.084,3.036-2.957,3-1.791-.023-1.779,0-1.7,1.829.016.38.128.5.5.5.871-.021,1.742-.008,2.613-.006,1.154,0,1.534.374,1.539,1.5,0,.484,0,.968,0,1.452,0,1.745,0,1.728,1.76,1.7.449-.006.6-.135.569-.579s-.007-.919-.007-1.379C-563.917,1590.673-563.917,1590.673-561.252,1590.673Z" transform="translate(-63.046 -62.687)" fill="#332e3b"/>
    <path id="Trazado_170382" data-name="Trazado 170382" d="M-603.1,1564.895a13.978,13.978,0,0,1,12.1-13.257c.552-.061,1.106-.119,1.66-.128a1.168,1.168,0,0,1,1.339,1.111c.026.708-.489,1.176-1.327,1.207a11.494,11.494,0,0,0-9.564,5.3,11.172,11.172,0,0,0-1.877,5.863c-.051,1.1-.442,1.645-1.22,1.612S-603.123,1566.018-603.1,1564.895Z" transform="translate(-38.963 -38.62)" fill="#332e3b"/>
    <path id="Trazado_170383" data-name="Trazado 170383" d="M-551.723,1600.2c-2.665,0-2.665,0-2.665,2.7,0,.46-.026.922.008,1.379s-.119.573-.569.579c-1.761.024-1.76.041-1.76-1.7,0-.484,0-.968,0-1.452-.006-1.13-.385-1.5-1.539-1.5-.871,0-1.743-.015-2.613.006-.376.009-.488-.115-.5-.5-.077-1.833-.089-1.852,1.7-1.829,3.04.039,3.005.055,2.957-3-.006-.387.019-.775-.006-1.161s.116-.488.495-.5c1.833-.077,1.832-.089,1.832,1.7v1.162c0,1.5.284,1.793,1.759,1.793.8,0,1.6.016,2.4-.006.378-.011.487.118.5.5.077,1.832.089,1.832-1.7,1.832Z" transform="translate(-72.575 -72.216)" fill="#43a047"/>
  </g>
</svg>
