<svg xmlns="http://www.w3.org/2000/svg" width="334.824" height="334.825" viewBox="0 0 334.824 334.825">
  <g id="Grupo_111247" data-name="Grupo 111247" transform="translate(-948.387 -192.588)">
    <g id="Arrows" transform="translate(1044.002 248.51)">
      <g id="_4" data-name="4" transform="translate(-95.615 87.279)">
        <path id="Trazado_171494" data-name="Trazado 171494" d="M63.541,220.043,36.348,173.707,63.96,126.651A74.473,74.473,0,0,1-2.389,56L-49.11,28.588-95.615,55.883C-94.017,144.013-23.893,215.769,63.541,220.043Z" transform="translate(95.615 -28.588)" fill="#72e676"/>
      </g>
      <g id="_3" data-name="3" transform="translate(47.586 119.327)">
        <path id="Trazado_171495" data-name="Trazado 171495" d="M-11.1,160.572l27.293,46.505c88.13-1.6,159.888-71.722,164.16-159.158l-46.336,27.2L86.957,47.5A74.48,74.48,0,0,1,16.31,113.85Z" transform="translate(11.105 -47.501)" fill="#f5cd6c"/>
      </g>
      <g id="_2" data-name="2" transform="translate(79.634 -55.753)">
        <path id="Trazado_171496" data-name="Trazado 171496" d="M167.383,108.338C165.785,20.21,95.66-51.549,8.225-55.822l27.2,46.336L7.808,37.57a74.468,74.468,0,0,1,66.349,70.648l46.72,27.415Z" transform="translate(-7.808 55.822)" fill="#72e676"/>
      </g>
      <g id="_1" data-name="1" transform="translate(-95.446 -55.922)">
        <path id="Trazado_171497" data-name="Trazado 171497" d="M95.938-9.417,68.645-55.922c-88.13,1.6-159.888,71.724-164.16,159.158l46.336-27.195,47.056,27.613A74.475,74.475,0,0,1,68.523,37.3Z" transform="translate(95.515 55.922)" fill="#f5cd6c"/>
      </g>
    </g>
    <path id="Trazado_171565" data-name="Trazado 171565" d="M-19.527-4.164h-1.867V0h-2.344V-11.375h4.227a4.778,4.778,0,0,1,3.109.9,3.1,3.1,0,0,1,1.094,2.539A3.5,3.5,0,0,1-15.812-6,3.437,3.437,0,0,1-17.34-4.758l2.461,4.648V0h-2.516Zm-1.867-1.9H-19.5a1.936,1.936,0,0,0,1.367-.449,1.606,1.606,0,0,0,.484-1.238,1.719,1.719,0,0,0-.457-1.266,1.9,1.9,0,0,0-1.4-.461h-1.883ZM-11.293,0h-2.266V-8.453h2.266Zm-2.4-10.641a1.112,1.112,0,0,1,.34-.836,1.277,1.277,0,0,1,.926-.328,1.28,1.28,0,0,1,.922.328,1.105,1.105,0,0,1,.344.836,1.108,1.108,0,0,1-.348.844,1.283,1.283,0,0,1-.918.328,1.283,1.283,0,0,1-.918-.328A1.108,1.108,0,0,1-13.691-10.641ZM-5.543.156A4.15,4.15,0,0,1-8.57-.984,4.054,4.054,0,0,1-9.738-4.023v-.219A5.106,5.106,0,0,1-9.246-6.52,3.612,3.612,0,0,1-7.852-8.066a3.914,3.914,0,0,1,2.059-.543,3.508,3.508,0,0,1,2.73,1.094,4.444,4.444,0,0,1,1,3.1v.922H-7.449a2.1,2.1,0,0,0,.66,1.328,2,2,0,0,0,1.395.5,2.437,2.437,0,0,0,2.039-.945l1.109,1.242A3.389,3.389,0,0,1-3.621-.246,4.511,4.511,0,0,1-5.543.156ZM-5.8-6.789a1.411,1.411,0,0,0-1.09.455,2.357,2.357,0,0,0-.535,1.3h3.141v-.181a1.681,1.681,0,0,0-.406-1.165A1.456,1.456,0,0,0-5.8-6.789ZM3.793-2.336a.727.727,0,0,0-.41-.652,4.659,4.659,0,0,0-1.316-.426Q-.949-4.047-.949-5.977A2.323,2.323,0,0,1-.016-7.855a3.766,3.766,0,0,1,2.441-.754A4.053,4.053,0,0,1,5-7.852a2.388,2.388,0,0,1,.965,1.969H3.707a1.092,1.092,0,0,0-.312-.8A1.322,1.322,0,0,0,2.418-7a1.351,1.351,0,0,0-.883.258.814.814,0,0,0-.312.656.7.7,0,0,0,.355.605,3.657,3.657,0,0,0,1.2.4A9.8,9.8,0,0,1,4.2-4.7,2.336,2.336,0,0,1,5.988-2.43,2.2,2.2,0,0,1,5-.559,4.28,4.28,0,0,1,2.434.156,4.47,4.47,0,0,1,.547-.223,3.166,3.166,0,0,1-.746-1.262a2.414,2.414,0,0,1-.469-1.426H.926a1.179,1.179,0,0,0,.445.922,1.766,1.766,0,0,0,1.109.32,1.635,1.635,0,0,0,.98-.246A.766.766,0,0,0,3.793-2.336Zm3.32-1.953a4.954,4.954,0,0,1,.926-3.133,3,3,0,0,1,2.5-1.187,2.631,2.631,0,0,1,2.164.953l.094-.8H14.84V-.281a3.613,3.613,0,0,1-.5,1.93A3.236,3.236,0,0,1,12.918,2.9a4.985,4.985,0,0,1-2.141.43,4.635,4.635,0,0,1-1.812-.371A3.217,3.217,0,0,1,7.629,2l1-1.375a2.645,2.645,0,0,0,2.047.945,1.936,1.936,0,0,0,1.4-.48,1.8,1.8,0,0,0,.5-1.363V-.727A2.612,2.612,0,0,1,10.52.156,2.992,2.992,0,0,1,8.055-1.035,4.953,4.953,0,0,1,7.113-4.2Zm2.258.161a3.1,3.1,0,0,0,.461,1.809,1.465,1.465,0,0,0,1.266.655,1.567,1.567,0,0,0,1.477-.777V-6.012a1.563,1.563,0,0,0-1.461-.777,1.474,1.474,0,0,0-1.277.667A3.5,3.5,0,0,0,9.371-4.128ZM16.223-4.3a5.013,5.013,0,0,1,.484-2.242A3.546,3.546,0,0,1,18.1-8.07a4.069,4.069,0,0,1,2.113-.539,3.849,3.849,0,0,1,2.793,1.047,4.2,4.2,0,0,1,1.207,2.844l.016.578A4.418,4.418,0,0,1,23.145-1.02,3.775,3.775,0,0,1,20.23.156a3.793,3.793,0,0,1-2.918-1.172A4.5,4.5,0,0,1,16.223-4.2Zm2.258.16A3.16,3.16,0,0,0,18.934-2.3a1.5,1.5,0,0,0,1.3.638,1.5,1.5,0,0,0,1.281-.63,3.457,3.457,0,0,0,.461-2.015,3.128,3.128,0,0,0-.461-1.831,1.5,1.5,0,0,0-1.3-.649,1.474,1.474,0,0,0-1.281.646A3.516,3.516,0,0,0,18.48-4.144ZM-39.23,11.664a6.134,6.134,0,0,0-.812-.062,1.654,1.654,0,0,0-1.68.867V18H-43.98V9.547h2.133l.063,1.008A2.092,2.092,0,0,1-39.9,9.391a2.366,2.366,0,0,1,.7.1Zm4.828,6.492a4.15,4.15,0,0,1-3.027-1.141A4.054,4.054,0,0,1-38.6,13.977v-.219a5.106,5.106,0,0,1,.492-2.277,3.612,3.612,0,0,1,1.395-1.547,3.914,3.914,0,0,1,2.059-.543,3.508,3.508,0,0,1,2.73,1.094,4.444,4.444,0,0,1,1,3.1v.922h-5.383a2.1,2.1,0,0,0,.66,1.328,2,2,0,0,0,1.395.5,2.437,2.437,0,0,0,2.039-.945l1.109,1.242a3.389,3.389,0,0,1-1.375,1.121A4.511,4.511,0,0,1-34.4,18.156Zm-.258-6.945a1.411,1.411,0,0,0-1.09.455,2.357,2.357,0,0,0-.535,1.3h3.141v-.181a1.681,1.681,0,0,0-.406-1.165A1.456,1.456,0,0,0-34.66,11.211Zm12.625,2.641a5.07,5.07,0,0,1-.887,3.129,2.843,2.843,0,0,1-2.395,1.176,2.633,2.633,0,0,1-2.07-.891V21.25h-2.258V9.547h2.094l.078.828a2.654,2.654,0,0,1,2.141-.984,2.862,2.862,0,0,1,2.43,1.156,5.207,5.207,0,0,1,.867,3.188Zm-2.258-.172a3.345,3.345,0,0,0-.418-1.826,1.36,1.36,0,0,0-1.215-.643,1.478,1.478,0,0,0-1.461.815V15.5a1.5,1.5,0,0,0,1.477.839Q-24.293,16.336-24.293,13.679Zm8.719,3.461a2.831,2.831,0,0,1-2.312,1.016,2.67,2.67,0,0,1-2.074-.781,3.335,3.335,0,0,1-.73-2.289V9.547h2.258v5.467q0,1.322,1.2,1.322a1.63,1.63,0,0,0,1.578-.8V9.547h2.266V18h-2.125ZM-8.98,7.469V9.547h1.445V11.2H-8.98v4.219a1.007,1.007,0,0,0,.18.672.9.9,0,0,0,.688.2,3.6,3.6,0,0,0,.664-.055v1.711a4.648,4.648,0,0,1-1.367.2,2.156,2.156,0,0,1-2.422-2.4V11.2h-1.234V9.547h1.234V7.469ZM-1.379,18a2.507,2.507,0,0,1-.227-.758,2.732,2.732,0,0,1-2.133.914A3,3,0,0,1-5.8,17.438a2.312,2.312,0,0,1-.816-1.812,2.389,2.389,0,0,1,1-2.062,4.915,4.915,0,0,1,2.879-.727H-1.7v-.484a1.393,1.393,0,0,0-.3-.937,1.183,1.183,0,0,0-.949-.352,1.345,1.345,0,0,0-.895.273.929.929,0,0,0-.324.75H-6.426a2.268,2.268,0,0,1,.453-1.359,3,3,0,0,1,1.281-.98,4.669,4.669,0,0,1,1.859-.355,3.689,3.689,0,0,1,2.48.785,2.747,2.747,0,0,1,.918,2.207v3.664A4.041,4.041,0,0,0,.9,17.867V18Zm-1.867-1.57a1.945,1.945,0,0,0,.922-.223,1.462,1.462,0,0,0,.625-.6V14.156h-.844q-1.7,0-1.8,1.172l-.008.133a.9.9,0,0,0,.3.7A1.153,1.153,0,0,0-3.246,16.43Zm9.063-.094a1.481,1.481,0,0,0,1.016-.344,1.2,1.2,0,0,0,.406-.914H9.355a2.9,2.9,0,0,1-.469,1.574,3.093,3.093,0,0,1-1.262,1.109,3.949,3.949,0,0,1-1.77.395A3.67,3.67,0,0,1,3,17,4.56,4.56,0,0,1,1.949,13.82v-.148a4.508,4.508,0,0,1,1.039-3.117A3.627,3.627,0,0,1,5.84,9.391a3.555,3.555,0,0,1,2.543.9,3.2,3.2,0,0,1,.973,2.4H7.238a1.551,1.551,0,0,0-.406-1.072A1.354,1.354,0,0,0,5.8,11.211a1.36,1.36,0,0,0-1.191.575,3.333,3.333,0,0,0-.4,1.866v.235a3.375,3.375,0,0,0,.4,1.878A1.377,1.377,0,0,0,5.816,16.336ZM13.027,18H10.762V9.547h2.266Zm-2.4-10.641a1.112,1.112,0,0,1,.34-.836,1.277,1.277,0,0,1,.926-.328,1.28,1.28,0,0,1,.922.328,1.193,1.193,0,0,1,0,1.68,1.283,1.283,0,0,1-.918.328,1.283,1.283,0,0,1-.918-.328A1.108,1.108,0,0,1,10.629,7.359ZM14.535,13.7a5.013,5.013,0,0,1,.484-2.242A3.546,3.546,0,0,1,16.414,9.93a4.069,4.069,0,0,1,2.113-.539,3.849,3.849,0,0,1,2.793,1.047,4.2,4.2,0,0,1,1.207,2.844l.016.578a4.418,4.418,0,0,1-1.086,3.121,3.775,3.775,0,0,1-2.914,1.176,3.793,3.793,0,0,1-2.918-1.172,4.5,4.5,0,0,1-1.09-3.187Zm2.258.16a3.16,3.16,0,0,0,.453,1.843,1.628,1.628,0,0,0,2.578.008,3.457,3.457,0,0,0,.461-2.015,3.128,3.128,0,0,0-.461-1.831,1.5,1.5,0,0,0-1.3-.649,1.474,1.474,0,0,0-1.281.646A3.516,3.516,0,0,0,16.793,13.856Zm9.219-4.309.07.977a2.951,2.951,0,0,1,2.43-1.133,2.453,2.453,0,0,1,2,.789,3.682,3.682,0,0,1,.672,2.359V18H28.926V12.581a1.47,1.47,0,0,0-.312-1.045,1.4,1.4,0,0,0-1.039-.325,1.553,1.553,0,0,0-1.43.814V18H23.887V9.547ZM37.793,18a2.507,2.507,0,0,1-.227-.758,2.732,2.732,0,0,1-2.133.914,3,3,0,0,1-2.059-.719,2.312,2.312,0,0,1-.816-1.812,2.389,2.389,0,0,1,1-2.062,4.915,4.915,0,0,1,2.879-.727h1.039v-.484a1.393,1.393,0,0,0-.3-.937,1.183,1.183,0,0,0-.949-.352,1.345,1.345,0,0,0-.895.273.929.929,0,0,0-.324.75H32.746a2.268,2.268,0,0,1,.453-1.359,3,3,0,0,1,1.281-.98,4.669,4.669,0,0,1,1.859-.355,3.689,3.689,0,0,1,2.48.785,2.747,2.747,0,0,1,.918,2.207v3.664a4.041,4.041,0,0,0,.336,1.82V18Zm-1.867-1.57a1.945,1.945,0,0,0,.922-.223,1.462,1.462,0,0,0,.625-.6V14.156h-.844q-1.7,0-1.8,1.172l-.008.133a.9.9,0,0,0,.3.7A1.153,1.153,0,0,0,35.926,16.43ZM43.855,18H41.59V6h2.266Z" transform="translate(1024 278)" fill="#12263f"/>
    <path id="Trazado_171564" data-name="Trazado 171564" d="M-19.527-4.164h-1.867V0h-2.344V-11.375h4.227a4.778,4.778,0,0,1,3.109.9,3.1,3.1,0,0,1,1.094,2.539A3.5,3.5,0,0,1-15.812-6,3.437,3.437,0,0,1-17.34-4.758l2.461,4.648V0h-2.516Zm-1.867-1.9H-19.5a1.936,1.936,0,0,0,1.367-.449,1.606,1.606,0,0,0,.484-1.238,1.719,1.719,0,0,0-.457-1.266,1.9,1.9,0,0,0-1.4-.461h-1.883ZM-11.293,0h-2.266V-8.453h2.266Zm-2.4-10.641a1.112,1.112,0,0,1,.34-.836,1.277,1.277,0,0,1,.926-.328,1.28,1.28,0,0,1,.922.328,1.105,1.105,0,0,1,.344.836,1.108,1.108,0,0,1-.348.844,1.283,1.283,0,0,1-.918.328,1.283,1.283,0,0,1-.918-.328A1.108,1.108,0,0,1-13.691-10.641ZM-5.543.156A4.15,4.15,0,0,1-8.57-.984,4.054,4.054,0,0,1-9.738-4.023v-.219A5.106,5.106,0,0,1-9.246-6.52,3.612,3.612,0,0,1-7.852-8.066a3.914,3.914,0,0,1,2.059-.543,3.508,3.508,0,0,1,2.73,1.094,4.444,4.444,0,0,1,1,3.1v.922H-7.449a2.1,2.1,0,0,0,.66,1.328,2,2,0,0,0,1.395.5,2.437,2.437,0,0,0,2.039-.945l1.109,1.242A3.389,3.389,0,0,1-3.621-.246,4.511,4.511,0,0,1-5.543.156ZM-5.8-6.789a1.411,1.411,0,0,0-1.09.455,2.357,2.357,0,0,0-.535,1.3h3.141v-.181a1.681,1.681,0,0,0-.406-1.165A1.456,1.456,0,0,0-5.8-6.789ZM3.793-2.336a.727.727,0,0,0-.41-.652,4.659,4.659,0,0,0-1.316-.426Q-.949-4.047-.949-5.977A2.323,2.323,0,0,1-.016-7.855a3.766,3.766,0,0,1,2.441-.754A4.053,4.053,0,0,1,5-7.852a2.388,2.388,0,0,1,.965,1.969H3.707a1.092,1.092,0,0,0-.312-.8A1.322,1.322,0,0,0,2.418-7a1.351,1.351,0,0,0-.883.258.814.814,0,0,0-.312.656.7.7,0,0,0,.355.605,3.657,3.657,0,0,0,1.2.4A9.8,9.8,0,0,1,4.2-4.7,2.336,2.336,0,0,1,5.988-2.43,2.2,2.2,0,0,1,5-.559,4.28,4.28,0,0,1,2.434.156,4.47,4.47,0,0,1,.547-.223,3.166,3.166,0,0,1-.746-1.262a2.414,2.414,0,0,1-.469-1.426H.926a1.179,1.179,0,0,0,.445.922,1.766,1.766,0,0,0,1.109.32,1.635,1.635,0,0,0,.98-.246A.766.766,0,0,0,3.793-2.336Zm3.32-1.953a4.954,4.954,0,0,1,.926-3.133,3,3,0,0,1,2.5-1.187,2.631,2.631,0,0,1,2.164.953l.094-.8H14.84V-.281a3.613,3.613,0,0,1-.5,1.93A3.236,3.236,0,0,1,12.918,2.9a4.985,4.985,0,0,1-2.141.43,4.635,4.635,0,0,1-1.812-.371A3.217,3.217,0,0,1,7.629,2l1-1.375a2.645,2.645,0,0,0,2.047.945,1.936,1.936,0,0,0,1.4-.48,1.8,1.8,0,0,0,.5-1.363V-.727A2.612,2.612,0,0,1,10.52.156,2.992,2.992,0,0,1,8.055-1.035,4.953,4.953,0,0,1,7.113-4.2Zm2.258.161a3.1,3.1,0,0,0,.461,1.809,1.465,1.465,0,0,0,1.266.655,1.567,1.567,0,0,0,1.477-.777V-6.012a1.563,1.563,0,0,0-1.461-.777,1.474,1.474,0,0,0-1.277.667A3.5,3.5,0,0,0,9.371-4.128ZM16.223-4.3a5.013,5.013,0,0,1,.484-2.242A3.546,3.546,0,0,1,18.1-8.07a4.069,4.069,0,0,1,2.113-.539,3.849,3.849,0,0,1,2.793,1.047,4.2,4.2,0,0,1,1.207,2.844l.016.578A4.418,4.418,0,0,1,23.145-1.02,3.775,3.775,0,0,1,20.23.156a3.793,3.793,0,0,1-2.918-1.172A4.5,4.5,0,0,1,16.223-4.2Zm2.258.16A3.16,3.16,0,0,0,18.934-2.3a1.5,1.5,0,0,0,1.3.638,1.5,1.5,0,0,0,1.281-.63,3.457,3.457,0,0,0,.461-2.015,3.128,3.128,0,0,0-.461-1.831,1.5,1.5,0,0,0-1.3-.649,1.474,1.474,0,0,0-1.281.646A3.516,3.516,0,0,0,18.48-4.144ZM-33.258,13.7a5.013,5.013,0,0,1,.484-2.242A3.546,3.546,0,0,1-31.379,9.93a4.069,4.069,0,0,1,2.113-.539,3.849,3.849,0,0,1,2.793,1.047,4.2,4.2,0,0,1,1.207,2.844l.016.578a4.418,4.418,0,0,1-1.086,3.121,3.775,3.775,0,0,1-2.914,1.176,3.793,3.793,0,0,1-2.918-1.172,4.5,4.5,0,0,1-1.09-3.187Zm2.258.16a3.16,3.16,0,0,0,.453,1.843,1.5,1.5,0,0,0,1.3.638,1.5,1.5,0,0,0,1.281-.63,3.457,3.457,0,0,0,.461-2.015,3.128,3.128,0,0,0-.461-1.831,1.5,1.5,0,0,0-1.3-.649,1.474,1.474,0,0,0-1.281.646A3.516,3.516,0,0,0-31,13.856Zm14.75,0a5.07,5.07,0,0,1-.887,3.129,2.843,2.843,0,0,1-2.395,1.176,2.633,2.633,0,0,1-2.07-.891V21.25h-2.258V9.547h2.094l.078.828a2.654,2.654,0,0,1,2.141-.984,2.862,2.862,0,0,1,2.43,1.156,5.207,5.207,0,0,1,.867,3.188Zm-2.258-.172a3.345,3.345,0,0,0-.418-1.826,1.36,1.36,0,0,0-1.215-.643,1.478,1.478,0,0,0-1.461.815V15.5a1.5,1.5,0,0,0,1.477.839Q-18.508,16.336-18.508,13.679Zm7.547,4.477a4.15,4.15,0,0,1-3.027-1.141,4.054,4.054,0,0,1-1.168-3.039v-.219a5.106,5.106,0,0,1,.492-2.277A3.612,3.612,0,0,1-13.27,9.934a3.914,3.914,0,0,1,2.059-.543,3.508,3.508,0,0,1,2.73,1.094,4.444,4.444,0,0,1,1,3.1v.922h-5.383a2.1,2.1,0,0,0,.66,1.328,2,2,0,0,0,1.395.5,2.437,2.437,0,0,0,2.039-.945l1.109,1.242a3.389,3.389,0,0,1-1.375,1.121A4.511,4.511,0,0,1-10.961,18.156Zm-.258-6.945a1.411,1.411,0,0,0-1.09.455,2.357,2.357,0,0,0-.535,1.3H-9.7v-.181a1.681,1.681,0,0,0-.406-1.165A1.456,1.456,0,0,0-11.219,11.211Zm9.766.453a6.134,6.134,0,0,0-.812-.062,1.654,1.654,0,0,0-1.68.867V18H-6.2V9.547H-4.07l.063,1.008A2.092,2.092,0,0,1-2.125,9.391a2.366,2.366,0,0,1,.7.1ZM4.3,18a2.507,2.507,0,0,1-.227-.758,2.732,2.732,0,0,1-2.133.914,3,3,0,0,1-2.059-.719,2.312,2.312,0,0,1-.816-1.812,2.389,2.389,0,0,1,1-2.062,4.915,4.915,0,0,1,2.879-.727H3.977v-.484a1.393,1.393,0,0,0-.3-.937,1.183,1.183,0,0,0-.949-.352,1.345,1.345,0,0,0-.895.273.929.929,0,0,0-.324.75H-.75A2.268,2.268,0,0,1-.3,10.727a3,3,0,0,1,1.281-.98,4.669,4.669,0,0,1,1.859-.355,3.689,3.689,0,0,1,2.48.785,2.747,2.747,0,0,1,.918,2.207v3.664a4.041,4.041,0,0,0,.336,1.82V18ZM2.43,16.43a1.945,1.945,0,0,0,.922-.223,1.462,1.462,0,0,0,.625-.6V14.156H3.133q-1.7,0-1.8,1.172l-.008.133a.9.9,0,0,0,.3.7A1.153,1.153,0,0,0,2.43,16.43Zm8.25-8.961V9.547h1.445V11.2H10.68v4.219a1.007,1.007,0,0,0,.18.672.9.9,0,0,0,.688.2,3.6,3.6,0,0,0,.664-.055v1.711a4.648,4.648,0,0,1-1.367.2,2.156,2.156,0,0,1-2.422-2.4V11.2H7.188V9.547H8.422V7.469ZM15.766,18H13.5V9.547h2.266Zm-2.4-10.641a1.112,1.112,0,0,1,.34-.836,1.465,1.465,0,0,1,1.848,0,1.193,1.193,0,0,1,0,1.68,1.448,1.448,0,0,1-1.836,0A1.108,1.108,0,0,1,13.367,7.359Zm7.422,7.883,1.57-5.7h2.359L21.867,18H19.711L16.859,9.547h2.359ZM25.242,13.7a5.013,5.013,0,0,1,.484-2.242A3.546,3.546,0,0,1,27.121,9.93a4.069,4.069,0,0,1,2.113-.539,3.849,3.849,0,0,1,2.793,1.047,4.2,4.2,0,0,1,1.207,2.844l.016.578a4.418,4.418,0,0,1-1.086,3.121,3.775,3.775,0,0,1-2.914,1.176,3.793,3.793,0,0,1-2.918-1.172,4.5,4.5,0,0,1-1.09-3.187Zm2.258.16a3.16,3.16,0,0,0,.453,1.843,1.628,1.628,0,0,0,2.578.008,3.457,3.457,0,0,0,.461-2.015,3.128,3.128,0,0,0-.461-1.831,1.5,1.5,0,0,0-1.3-.649,1.474,1.474,0,0,0-1.281.646A3.516,3.516,0,0,0,27.5,13.856Z" transform="translate(1214 425)" fill="#12263f"/>
    <path id="Trazado_171566" data-name="Trazado 171566" d="M-19.527-4.164h-1.867V0h-2.344V-11.375h4.227a4.778,4.778,0,0,1,3.109.9,3.1,3.1,0,0,1,1.094,2.539A3.5,3.5,0,0,1-15.812-6,3.437,3.437,0,0,1-17.34-4.758l2.461,4.648V0h-2.516Zm-1.867-1.9H-19.5a1.936,1.936,0,0,0,1.367-.449,1.606,1.606,0,0,0,.484-1.238,1.719,1.719,0,0,0-.457-1.266,1.9,1.9,0,0,0-1.4-.461h-1.883ZM-11.293,0h-2.266V-8.453h2.266Zm-2.4-10.641a1.112,1.112,0,0,1,.34-.836,1.277,1.277,0,0,1,.926-.328,1.28,1.28,0,0,1,.922.328,1.105,1.105,0,0,1,.344.836,1.108,1.108,0,0,1-.348.844,1.283,1.283,0,0,1-.918.328,1.283,1.283,0,0,1-.918-.328A1.108,1.108,0,0,1-13.691-10.641ZM-5.543.156A4.15,4.15,0,0,1-8.57-.984,4.054,4.054,0,0,1-9.738-4.023v-.219A5.106,5.106,0,0,1-9.246-6.52,3.612,3.612,0,0,1-7.852-8.066a3.914,3.914,0,0,1,2.059-.543,3.508,3.508,0,0,1,2.73,1.094,4.444,4.444,0,0,1,1,3.1v.922H-7.449a2.1,2.1,0,0,0,.66,1.328,2,2,0,0,0,1.395.5,2.437,2.437,0,0,0,2.039-.945l1.109,1.242A3.389,3.389,0,0,1-3.621-.246,4.511,4.511,0,0,1-5.543.156ZM-5.8-6.789a1.411,1.411,0,0,0-1.09.455,2.357,2.357,0,0,0-.535,1.3h3.141v-.181a1.681,1.681,0,0,0-.406-1.165A1.456,1.456,0,0,0-5.8-6.789ZM3.793-2.336a.727.727,0,0,0-.41-.652,4.659,4.659,0,0,0-1.316-.426Q-.949-4.047-.949-5.977A2.323,2.323,0,0,1-.016-7.855a3.766,3.766,0,0,1,2.441-.754A4.053,4.053,0,0,1,5-7.852a2.388,2.388,0,0,1,.965,1.969H3.707a1.092,1.092,0,0,0-.312-.8A1.322,1.322,0,0,0,2.418-7a1.351,1.351,0,0,0-.883.258.814.814,0,0,0-.312.656.7.7,0,0,0,.355.605,3.657,3.657,0,0,0,1.2.4A9.8,9.8,0,0,1,4.2-4.7,2.336,2.336,0,0,1,5.988-2.43,2.2,2.2,0,0,1,5-.559,4.28,4.28,0,0,1,2.434.156,4.47,4.47,0,0,1,.547-.223,3.166,3.166,0,0,1-.746-1.262a2.414,2.414,0,0,1-.469-1.426H.926a1.179,1.179,0,0,0,.445.922,1.766,1.766,0,0,0,1.109.32,1.635,1.635,0,0,0,.98-.246A.766.766,0,0,0,3.793-2.336Zm3.32-1.953a4.954,4.954,0,0,1,.926-3.133,3,3,0,0,1,2.5-1.187,2.631,2.631,0,0,1,2.164.953l.094-.8H14.84V-.281a3.613,3.613,0,0,1-.5,1.93A3.236,3.236,0,0,1,12.918,2.9a4.985,4.985,0,0,1-2.141.43,4.635,4.635,0,0,1-1.812-.371A3.217,3.217,0,0,1,7.629,2l1-1.375a2.645,2.645,0,0,0,2.047.945,1.936,1.936,0,0,0,1.4-.48,1.8,1.8,0,0,0,.5-1.363V-.727A2.612,2.612,0,0,1,10.52.156,2.992,2.992,0,0,1,8.055-1.035,4.953,4.953,0,0,1,7.113-4.2Zm2.258.161a3.1,3.1,0,0,0,.461,1.809,1.465,1.465,0,0,0,1.266.655,1.567,1.567,0,0,0,1.477-.777V-6.012a1.563,1.563,0,0,0-1.461-.777,1.474,1.474,0,0,0-1.277.667A3.5,3.5,0,0,0,9.371-4.128ZM16.223-4.3a5.013,5.013,0,0,1,.484-2.242A3.546,3.546,0,0,1,18.1-8.07a4.069,4.069,0,0,1,2.113-.539,3.849,3.849,0,0,1,2.793,1.047,4.2,4.2,0,0,1,1.207,2.844l.016.578A4.418,4.418,0,0,1,23.145-1.02,3.775,3.775,0,0,1,20.23.156a3.793,3.793,0,0,1-2.918-1.172A4.5,4.5,0,0,1,16.223-4.2Zm2.258.16A3.16,3.16,0,0,0,18.934-2.3a1.5,1.5,0,0,0,1.3.638,1.5,1.5,0,0,0,1.281-.63,3.457,3.457,0,0,0,.461-2.015,3.128,3.128,0,0,0-.461-1.831,1.5,1.5,0,0,0-1.3-.649,1.474,1.474,0,0,0-1.281.646A3.516,3.516,0,0,0,18.48-4.144ZM-41.687,13.711a5.094,5.094,0,0,1,.887-3.148,2.877,2.877,0,0,1,2.426-1.172,2.589,2.589,0,0,1,2.039.922V6h2.266V18h-2.039l-.109-.9a2.657,2.657,0,0,1-2.172,1.055,2.869,2.869,0,0,1-2.395-1.176A5.258,5.258,0,0,1-41.687,13.711Zm2.258.161a3.355,3.355,0,0,0,.414,1.829,1.348,1.348,0,0,0,1.2.636,1.51,1.51,0,0,0,1.477-.887V12.1a1.489,1.489,0,0,0-1.461-.887Q-39.43,11.211-39.43,13.872Zm11,4.285a4.15,4.15,0,0,1-3.027-1.141,4.054,4.054,0,0,1-1.168-3.039v-.219a5.106,5.106,0,0,1,.492-2.277,3.612,3.612,0,0,1,1.395-1.547,3.914,3.914,0,0,1,2.059-.543,3.508,3.508,0,0,1,2.73,1.094,4.444,4.444,0,0,1,1,3.1v.922h-5.383a2.1,2.1,0,0,0,.66,1.328,2,2,0,0,0,1.395.5,2.437,2.437,0,0,0,2.039-.945l1.109,1.242a3.389,3.389,0,0,1-1.375,1.121A4.511,4.511,0,0,1-28.43,18.156Zm-.258-6.945a1.411,1.411,0,0,0-1.09.455,2.357,2.357,0,0,0-.535,1.3h3.141v-.181a1.681,1.681,0,0,0-.406-1.165A1.456,1.456,0,0,0-28.687,11.211Zm12.516,5.125a1.481,1.481,0,0,0,1.016-.344,1.2,1.2,0,0,0,.406-.914h2.117a2.9,2.9,0,0,1-.469,1.574,3.093,3.093,0,0,1-1.262,1.109,3.949,3.949,0,0,1-1.77.395A3.67,3.67,0,0,1-18.992,17a4.56,4.56,0,0,1-1.047-3.184v-.148A4.508,4.508,0,0,1-19,10.555a3.627,3.627,0,0,1,2.852-1.164,3.555,3.555,0,0,1,2.543.9,3.2,3.2,0,0,1,.973,2.4H-14.75a1.551,1.551,0,0,0-.406-1.072,1.354,1.354,0,0,0-1.031-.412,1.36,1.36,0,0,0-1.191.575,3.333,3.333,0,0,0-.4,1.866v.235a3.375,3.375,0,0,0,.4,1.878A1.377,1.377,0,0,0-16.172,16.336ZM-11.7,13.7a5.013,5.013,0,0,1,.484-2.242A3.546,3.546,0,0,1-9.816,9.93,4.069,4.069,0,0,1-7.7,9.391,3.849,3.849,0,0,1-4.91,10.438,4.2,4.2,0,0,1-3.7,13.281l.016.578A4.418,4.418,0,0,1-4.773,16.98a3.775,3.775,0,0,1-2.914,1.176,3.793,3.793,0,0,1-2.918-1.172A4.5,4.5,0,0,1-11.7,13.8Zm2.258.16A3.16,3.16,0,0,0-8.984,15.7a1.5,1.5,0,0,0,1.3.638,1.5,1.5,0,0,0,1.281-.63,3.457,3.457,0,0,0,.461-2.015,3.128,3.128,0,0,0-.461-1.831,1.5,1.5,0,0,0-1.3-.649,1.474,1.474,0,0,0-1.281.646A3.516,3.516,0,0,0-9.437,13.856ZM-.219,9.547l.07.977a2.951,2.951,0,0,1,2.43-1.133,2.453,2.453,0,0,1,2,.789,3.682,3.682,0,0,1,.672,2.359V18H2.7V12.581a1.47,1.47,0,0,0-.312-1.045,1.4,1.4,0,0,0-1.039-.325,1.553,1.553,0,0,0-1.43.814V18H-2.344V9.547ZM9.367,7.469V9.547h1.445V11.2H9.367v4.219a1.007,1.007,0,0,0,.18.672.9.9,0,0,0,.688.2,3.6,3.6,0,0,0,.664-.055v1.711a4.648,4.648,0,0,1-1.367.2,2.156,2.156,0,0,1-2.422-2.4V11.2H5.875V9.547H7.109V7.469ZM16.969,18a2.507,2.507,0,0,1-.227-.758,2.732,2.732,0,0,1-2.133.914,3,3,0,0,1-2.059-.719,2.312,2.312,0,0,1-.816-1.812,2.389,2.389,0,0,1,1-2.062,4.915,4.915,0,0,1,2.879-.727h1.039v-.484a1.393,1.393,0,0,0-.3-.937,1.183,1.183,0,0,0-.949-.352,1.345,1.345,0,0,0-.895.273.929.929,0,0,0-.324.75H11.922a2.268,2.268,0,0,1,.453-1.359,3,3,0,0,1,1.281-.98,4.669,4.669,0,0,1,1.859-.355,3.689,3.689,0,0,1,2.48.785,2.747,2.747,0,0,1,.918,2.207v3.664a4.041,4.041,0,0,0,.336,1.82V18ZM15.1,16.43a1.945,1.945,0,0,0,.922-.223,1.462,1.462,0,0,0,.625-.6V14.156H15.8q-1.7,0-1.8,1.172l-.008.133a.9.9,0,0,0,.3.7A1.153,1.153,0,0,0,15.1,16.43Zm5.219-2.719a4.954,4.954,0,0,1,.926-3.133,3,3,0,0,1,2.5-1.187,2.631,2.631,0,0,1,2.164.953l.094-.8h2.047v8.172a3.613,3.613,0,0,1-.5,1.93,3.236,3.236,0,0,1-1.418,1.25,4.985,4.985,0,0,1-2.141.43,4.635,4.635,0,0,1-1.812-.371A3.217,3.217,0,0,1,20.836,20l1-1.375a2.645,2.645,0,0,0,2.047.945,1.936,1.936,0,0,0,1.4-.48,1.8,1.8,0,0,0,.5-1.363v-.453a2.612,2.612,0,0,1-2.055.883,2.992,2.992,0,0,1-2.465-1.191,4.953,4.953,0,0,1-.941-3.16Zm2.258.161a3.1,3.1,0,0,0,.461,1.809,1.465,1.465,0,0,0,1.266.655,1.567,1.567,0,0,0,1.477-.777V11.988a1.563,1.563,0,0,0-1.461-.777,1.474,1.474,0,0,0-1.277.667A3.5,3.5,0,0,0,22.578,13.872ZM32.164,18H29.9V9.547h2.266Zm-2.4-10.641a1.112,1.112,0,0,1,.34-.836,1.465,1.465,0,0,1,1.848,0,1.193,1.193,0,0,1,0,1.68,1.448,1.448,0,0,1-1.836,0A1.108,1.108,0,0,1,29.766,7.359ZM33.672,13.7a5.013,5.013,0,0,1,.484-2.242A3.546,3.546,0,0,1,35.551,9.93a4.069,4.069,0,0,1,2.113-.539,3.849,3.849,0,0,1,2.793,1.047,4.2,4.2,0,0,1,1.207,2.844l.016.578a4.418,4.418,0,0,1-1.086,3.121,4.209,4.209,0,0,1-5.832,0,4.5,4.5,0,0,1-1.09-3.187Zm2.258.16a3.16,3.16,0,0,0,.453,1.843,1.628,1.628,0,0,0,2.578.008,3.457,3.457,0,0,0,.461-2.015,3.128,3.128,0,0,0-.461-1.831,1.5,1.5,0,0,0-1.3-.649,1.474,1.474,0,0,0-1.281.646A3.516,3.516,0,0,0,35.93,13.856Z" transform="translate(1034 444)" fill="#12263f"/>
    <path id="Trazado_171563" data-name="Trazado 171563" d="M-19.527-4.164h-1.867V0h-2.344V-11.375h4.227a4.778,4.778,0,0,1,3.109.9,3.1,3.1,0,0,1,1.094,2.539A3.5,3.5,0,0,1-15.812-6,3.437,3.437,0,0,1-17.34-4.758l2.461,4.648V0h-2.516Zm-1.867-1.9H-19.5a1.936,1.936,0,0,0,1.367-.449,1.606,1.606,0,0,0,.484-1.238,1.719,1.719,0,0,0-.457-1.266,1.9,1.9,0,0,0-1.4-.461h-1.883ZM-11.293,0h-2.266V-8.453h2.266Zm-2.4-10.641a1.112,1.112,0,0,1,.34-.836,1.277,1.277,0,0,1,.926-.328,1.28,1.28,0,0,1,.922.328,1.105,1.105,0,0,1,.344.836,1.108,1.108,0,0,1-.348.844,1.283,1.283,0,0,1-.918.328,1.283,1.283,0,0,1-.918-.328A1.108,1.108,0,0,1-13.691-10.641ZM-5.543.156A4.15,4.15,0,0,1-8.57-.984,4.054,4.054,0,0,1-9.738-4.023v-.219A5.106,5.106,0,0,1-9.246-6.52,3.612,3.612,0,0,1-7.852-8.066a3.914,3.914,0,0,1,2.059-.543,3.508,3.508,0,0,1,2.73,1.094,4.444,4.444,0,0,1,1,3.1v.922H-7.449a2.1,2.1,0,0,0,.66,1.328,2,2,0,0,0,1.395.5,2.437,2.437,0,0,0,2.039-.945l1.109,1.242A3.389,3.389,0,0,1-3.621-.246,4.511,4.511,0,0,1-5.543.156ZM-5.8-6.789a1.411,1.411,0,0,0-1.09.455,2.357,2.357,0,0,0-.535,1.3h3.141v-.181a1.681,1.681,0,0,0-.406-1.165A1.456,1.456,0,0,0-5.8-6.789ZM3.793-2.336a.727.727,0,0,0-.41-.652,4.659,4.659,0,0,0-1.316-.426Q-.949-4.047-.949-5.977A2.323,2.323,0,0,1-.016-7.855a3.766,3.766,0,0,1,2.441-.754A4.053,4.053,0,0,1,5-7.852a2.388,2.388,0,0,1,.965,1.969H3.707a1.092,1.092,0,0,0-.312-.8A1.322,1.322,0,0,0,2.418-7a1.351,1.351,0,0,0-.883.258.814.814,0,0,0-.312.656.7.7,0,0,0,.355.605,3.657,3.657,0,0,0,1.2.4A9.8,9.8,0,0,1,4.2-4.7,2.336,2.336,0,0,1,5.988-2.43,2.2,2.2,0,0,1,5-.559,4.28,4.28,0,0,1,2.434.156,4.47,4.47,0,0,1,.547-.223,3.166,3.166,0,0,1-.746-1.262a2.414,2.414,0,0,1-.469-1.426H.926a1.179,1.179,0,0,0,.445.922,1.766,1.766,0,0,0,1.109.32,1.635,1.635,0,0,0,.98-.246A.766.766,0,0,0,3.793-2.336Zm3.32-1.953a4.954,4.954,0,0,1,.926-3.133,3,3,0,0,1,2.5-1.187,2.631,2.631,0,0,1,2.164.953l.094-.8H14.84V-.281a3.613,3.613,0,0,1-.5,1.93A3.236,3.236,0,0,1,12.918,2.9a4.985,4.985,0,0,1-2.141.43,4.635,4.635,0,0,1-1.812-.371A3.217,3.217,0,0,1,7.629,2l1-1.375a2.645,2.645,0,0,0,2.047.945,1.936,1.936,0,0,0,1.4-.48,1.8,1.8,0,0,0,.5-1.363V-.727A2.612,2.612,0,0,1,10.52.156,2.992,2.992,0,0,1,8.055-1.035,4.953,4.953,0,0,1,7.113-4.2Zm2.258.161a3.1,3.1,0,0,0,.461,1.809,1.465,1.465,0,0,0,1.266.655,1.567,1.567,0,0,0,1.477-.777V-6.012a1.563,1.563,0,0,0-1.461-.777,1.474,1.474,0,0,0-1.277.667A3.5,3.5,0,0,0,9.371-4.128ZM16.223-4.3a5.013,5.013,0,0,1,.484-2.242A3.546,3.546,0,0,1,18.1-8.07a4.069,4.069,0,0,1,2.113-.539,3.849,3.849,0,0,1,2.793,1.047,4.2,4.2,0,0,1,1.207,2.844l.016.578A4.418,4.418,0,0,1,23.145-1.02,3.775,3.775,0,0,1,20.23.156a3.793,3.793,0,0,1-2.918-1.172A4.5,4.5,0,0,1,16.223-4.2Zm2.258.16A3.16,3.16,0,0,0,18.934-2.3a1.5,1.5,0,0,0,1.3.638,1.5,1.5,0,0,0,1.281-.63,3.457,3.457,0,0,0,.461-2.015,3.128,3.128,0,0,0-.461-1.831,1.5,1.5,0,0,0-1.3-.649,1.474,1.474,0,0,0-1.281.646A3.516,3.516,0,0,0,18.48-4.144ZM-14.172,18h-2.266V6h2.266Zm5.75.156a4.15,4.15,0,0,1-3.027-1.141,4.054,4.054,0,0,1-1.168-3.039v-.219a5.106,5.106,0,0,1,.492-2.277A3.612,3.612,0,0,1-10.73,9.934a3.914,3.914,0,0,1,2.059-.543,3.508,3.508,0,0,1,2.73,1.094,4.444,4.444,0,0,1,1,3.1v.922h-5.383a2.1,2.1,0,0,0,.66,1.328,2,2,0,0,0,1.395.5,2.437,2.437,0,0,0,2.039-.945l1.109,1.242A3.389,3.389,0,0,1-6.5,17.754,4.511,4.511,0,0,1-8.422,18.156Zm-.258-6.945a1.411,1.411,0,0,0-1.09.455,2.357,2.357,0,0,0-.535,1.3h3.141v-.181a1.681,1.681,0,0,0-.406-1.165A1.456,1.456,0,0,0-8.68,11.211Zm4.688,2.5a4.954,4.954,0,0,1,.926-3.133A3,3,0,0,1-.57,9.391a2.631,2.631,0,0,1,2.164.953l.094-.8H3.734v8.172a3.613,3.613,0,0,1-.5,1.93A3.236,3.236,0,0,1,1.813,20.9a4.985,4.985,0,0,1-2.141.43,4.635,4.635,0,0,1-1.812-.371A3.217,3.217,0,0,1-3.477,20l1-1.375A2.645,2.645,0,0,0-.43,19.57a1.936,1.936,0,0,0,1.4-.48,1.8,1.8,0,0,0,.5-1.363v-.453a2.612,2.612,0,0,1-2.055.883,2.992,2.992,0,0,1-2.465-1.191,4.953,4.953,0,0,1-.941-3.16Zm2.258.161a3.1,3.1,0,0,0,.461,1.809,1.465,1.465,0,0,0,1.266.655,1.567,1.567,0,0,0,1.477-.777V11.988a1.563,1.563,0,0,0-1.461-.777,1.474,1.474,0,0,0-1.277.667A3.5,3.5,0,0,0-1.734,13.872ZM10.367,18a2.507,2.507,0,0,1-.227-.758,2.732,2.732,0,0,1-2.133.914,3,3,0,0,1-2.059-.719,2.312,2.312,0,0,1-.816-1.812,2.389,2.389,0,0,1,1-2.062,4.915,4.915,0,0,1,2.879-.727h1.039v-.484a1.393,1.393,0,0,0-.3-.937,1.183,1.183,0,0,0-.949-.352,1.345,1.345,0,0,0-.895.273.929.929,0,0,0-.324.75H5.32a2.268,2.268,0,0,1,.453-1.359,3,3,0,0,1,1.281-.98,4.669,4.669,0,0,1,1.859-.355,3.689,3.689,0,0,1,2.48.785,2.747,2.747,0,0,1,.918,2.207v3.664a4.041,4.041,0,0,0,.336,1.82V18ZM8.5,16.43a1.945,1.945,0,0,0,.922-.223,1.462,1.462,0,0,0,.625-.6V14.156H9.2q-1.7,0-1.8,1.172l-.008.133a.9.9,0,0,0,.3.7A1.153,1.153,0,0,0,8.5,16.43ZM16.43,18H14.164V6H16.43Z" transform="translate(1185 256)" fill="#12263f"/>
    <g id="Grupo_111241" data-name="Grupo 111241" transform="translate(730.08 395.634)">
      <path id="Trazado_171498" data-name="Trazado 171498" d="M387.509-173.016a2.534,2.534,0,0,1-.88,1.857c-1.487,1.445-2.956,2.908-4.463,4.331a1.362,1.362,0,0,0-.471,1.378c.372,2.015.691,4.04,1.059,6.055a2.59,2.59,0,0,1-.991,2.782,2.545,2.545,0,0,1-2.894.115q-2.824-1.5-5.659-2.98a2.243,2.243,0,0,0-2.021.533.647.647,0,0,0,.01.362c.119.722.231,1.446.37,2.164a2.529,2.529,0,0,1-.952,2.68,2.5,2.5,0,0,1-2.885.177c-1.848-.977-3.707-1.931-5.545-2.927a1.3,1.3,0,0,0-1.4-.016c-1.872,1.019-3.769,1.994-5.659,2.98a2.45,2.45,0,0,1-2.775-.19,2.465,2.465,0,0,1-.993-2.6c.125-.657.178-1.33.339-1.978.121-.488.007-.711-.439-.979a1.716,1.716,0,0,0-1.956,0c-1.784,1-3.612,1.932-5.434,2.869a2.425,2.425,0,0,1-2.769-.263,2.464,2.464,0,0,1-.938-2.566c.087-.452.15-.908.228-1.361.3-1.731.588-3.463.9-5.19a.9.9,0,0,0-.363-.871c-1.5-1.461-2.987-2.935-4.5-4.382a2.622,2.622,0,0,1-.878-2.877,2.6,2.6,0,0,1,2.4-1.81c2.011-.261,4.014-.585,6.024-.859a1.306,1.306,0,0,0,1.144-.8c.853-1.815,1.778-3.6,2.64-5.408a2.687,2.687,0,0,1,2.533-1.818,2.672,2.672,0,0,1,2.486,1.792c.873,1.829,1.784,3.64,2.68,5.459a1.728,1.728,0,0,0,1.715.834c.226-.054.26-.259.339-.418.516-1.027,1.044-2.049,1.525-3.092a2.571,2.571,0,0,1,2.439-1.664,2.574,2.574,0,0,1,2.434,1.674q.683,1.445,1.42,2.864c.128.245.114.692.572.615.548-.092,1.171.052,1.505-.651.933-1.963,1.9-3.906,2.877-5.85a2.576,2.576,0,0,1,3.235-1.428,2.7,2.7,0,0,1,1.547,1.472c.915,1.878,1.863,3.741,2.761,5.628a1.265,1.265,0,0,0,1.086.79c2.093.282,4.183.593,6.273.894A2.577,2.577,0,0,1,387.509-173.016Zm-29.953.451-.155.121a3.8,3.8,0,0,1-2,.768c-1.252.166-2.5.368-3.749.555-.723.1-1.445.215-2.169.3-.339.042-.69.047-.821.441s.181.614.414.842q2.265,2.216,4.54,4.422a2.726,2.726,0,0,1,.843,2.614c-.4,2.157-.739,4.323-1.113,6.483a.638.638,0,0,0,.2.675.58.58,0,0,0,.7.01q.963-.523,1.929-1.04c1.275-.662,2.559-1.307,3.822-1.991a2.845,2.845,0,0,1,2.912-.013c1.262.687,2.548,1.33,3.823,1.992.626.337,1.251.675,1.878,1.01.245.13.49.245.762.049.292-.21.264-.5.211-.793q-.407-2.316-.813-4.632c-.1-.577-.168-1.16-.288-1.732a2.791,2.791,0,0,1,.914-2.719q2.3-2.232,4.6-4.464a.683.683,0,0,0,.278-.715c-.092-.31-.342-.389-.63-.423-.747-.088-1.492-.185-2.238-.279l0,.019c-.013-.089-.075-.084-.141-.075-1-.145-2.011-.279-3.013-.44a5.034,5.034,0,0,1-2.684-.849,15.446,15.446,0,0,1-1.578-2.9c-.653-1.282-1.278-2.578-1.914-3.869-.124-.252-.275-.484-.588-.5a.593.593,0,0,0-.57.412q-.372.791-.746,1.581l-2.631,5.139Zm12.9,9.613c.078.475.174.947.229,1.424.05.431.215.458.557.249a2.725,2.725,0,0,1,2.913.016c1.858,1.006,3.738,1.971,5.608,2.955.264.139.52.287.816.073s.255-.507.2-.8c-.348-2.019-.676-4.043-1.064-6.054a3.106,3.106,0,0,1,.972-3.118c1.488-1.383,2.918-2.827,4.373-4.245.239-.233.522-.45.4-.85-.118-.382-.455-.38-.764-.426-2.09-.309-4.176-.642-6.269-.918a2.858,2.858,0,0,1-2.346-1.743c-.9-1.866-1.825-3.718-2.742-5.575-.147-.3-.262-.646-.685-.639s-.521.363-.668.66c-.948,1.911-1.9,3.818-2.837,5.738a2.629,2.629,0,0,1-1.952,1.513c-.188.038-.5-.027-.507.22a.717.717,0,0,0,.432.646,1.93,1.93,0,0,0,.486.121c2.049.3,4.1.615,6.148.883a2.616,2.616,0,0,1,2.418,1.786,2.62,2.62,0,0,1-.84,2.89c-1.516,1.445-3,2.921-4.507,4.378A.877.877,0,0,0,370.454-162.952Zm-28.334,4.218c-.014.516.437.748,1.01.45q2.892-1.506,5.774-3.033a2.715,2.715,0,0,1,2.235-.239c.341.114.715.567.977.335.238-.211.16-.749.289-1.12a1.464,1.464,0,0,0-.554-1.7c-1.45-1.36-2.86-2.763-4.286-4.15a2.559,2.559,0,0,1-.809-2.838,2.626,2.626,0,0,1,2.353-1.788c2.092-.283,4.18-.6,6.269-.9a.919.919,0,0,0,.8-.511c.136-.288.1-.418-.227-.451a2.773,2.773,0,0,1-2.3-1.8c-.884-1.848-1.807-3.677-2.713-5.514-.149-.3-.275-.639-.7-.621-.386.016-.49.342-.628.622q-1.42,2.866-2.838,5.733a2.69,2.69,0,0,1-2.177,1.583c-2.112.291-4.219.616-6.327.929-.327.049-.695.04-.81.457s.192.611.428.841q2.29,2.239,4.584,4.474a2.592,2.592,0,0,1,.794,2.51c-.141.7-.241,1.4-.361,2.1C342.649-161.826,342.389-160.3,342.12-158.734Z" transform="translate(-9.623)"/>
      <path id="Trazado_171499" data-name="Trazado 171499" d="M374.57,8.264c0-.381-.012-.731,0-1.079a2.231,2.231,0,0,1,2.157-2.193q2.449-.055,4.9,0a2.285,2.285,0,0,1,2.216,2.472c.013,1.843,0,3.687,0,5.53q0,6.472,0,12.945c0,1.856-.877,2.736-2.723,2.738-1.341,0-2.681.007-4.022,0a2.277,2.277,0,0,1-2.524-2.526.69.69,0,0,0-.581-.786,9.793,9.793,0,0,0-6.639.18c-4.9,1.865-9.8,3.742-14.722,5.553a7.6,7.6,0,0,1-8.314-1.643q-9.2-8.466-18.44-16.892a5.655,5.655,0,0,1-1.953-3.208,4.242,4.242,0,0,1,1.8-4.393,4.392,4.392,0,0,1,4.913-.385c3.016,1.587,6,3.235,9,4.859,3.162,1.714,6.327,3.421,9.478,5.155a.871.871,0,0,0,.919-.024c3.432-1.687,6.856-3.394,10.306-5.044a19.09,19.09,0,0,1,13.918-1.311C374.342,8.23,374.424,8.238,374.57,8.264Zm4.545,18.374c.669,0,1.341-.03,2.007.016.6.041.746-.209.74-.768-.025-2.279-.01-4.559-.01-6.839,0-3.765-.01-7.529.01-11.293,0-.563-.147-.8-.744-.764-.666.046-1.338.015-2.007.018-.648,0-1.3.005-1.945-.019-.426-.016-.593.136-.592.579q.015,9.256,0,18.512c0,.446.174.591.6.576C377.818,26.634,378.467,26.643,379.115,26.638Zm-4.573-12.082c.008-1.129-.027-2.262.043-3.387.04-.638-.215-.855-.779-1.015a16.6,16.6,0,0,0-11.758.836c-3.838,1.752-7.6,3.669-11.4,5.514-.846.411-1.708.792-2.53,1.247a2.374,2.374,0,0,0-.175,4.137,2.543,2.543,0,0,0,2.679-.011q6.863-3.377,13.741-6.725c.858-.419,1.257-.314,1.733.443a1.106,1.106,0,0,1-.721,1.3c-1.6.775-3.2,1.559-4.792,2.339-3.213,1.569-6.408,3.178-9.648,4.69a4.02,4.02,0,0,1-4.611-.762,4.17,4.17,0,0,1-1.3-4.607,4.521,4.521,0,0,1,2.251-2.673c-.129-.082-.2-.132-.27-.171l-12.8-6.941C332.771,8,331.34,7.212,329.9,6.44a2.717,2.717,0,0,0-3.466.581,2.541,2.541,0,0,0,.215,3.429,10.336,10.336,0,0,0,.889.886c6,5.5,12.028,10.984,18.005,16.516a5.889,5.889,0,0,0,6.59,1.292c4.281-1.623,8.588-3.177,12.838-4.878,3.009-1.2,6.01-1.93,9.215-.938.341.105.383-.078.381-.355Q374.55,18.764,374.541,14.556Z" transform="translate(0 -156.948)"/>
      <path id="Trazado_171500" data-name="Trazado 171500" d="M525.365-152.886a.877.877,0,0,1,.376-.815c1.5-1.457,2.991-2.933,4.507-4.378a2.62,2.62,0,0,0,.84-2.89,2.616,2.616,0,0,0-2.418-1.786c-2.053-.268-4.1-.584-6.148-.883a1.93,1.93,0,0,1-.486-.121.717.717,0,0,1-.432-.646c0-.247.318-.182.507-.22a2.629,2.629,0,0,0,1.952-1.513c.932-1.919,1.889-3.826,2.836-5.738.147-.3.246-.653.668-.66s.537.341.685.639c.917,1.857,1.843,3.709,2.742,5.575a2.858,2.858,0,0,0,2.346,1.743c2.094.277,4.18.61,6.269.918.31.046.646.045.764.426.123.4-.159.617-.4.85-1.455,1.418-2.885,2.863-4.373,4.245a3.106,3.106,0,0,0-.972,3.118c.388,2.012.716,4.035,1.064,6.054.05.291.088.587-.2.8s-.552.066-.816-.073c-1.87-.984-3.75-1.949-5.607-2.955a2.725,2.725,0,0,0-2.913-.016c-.342.208-.507.182-.557-.249C525.539-151.939,525.443-152.412,525.365-152.886Z" transform="translate(-164.534 -10.066)" fill="#f0c101"/>
      <path id="Trazado_171501" data-name="Trazado 171501" d="M352.137-148.668c.268-1.568.529-3.092.789-4.616.12-.7.22-1.4.361-2.1a2.592,2.592,0,0,0-.794-2.51q-2.29-2.24-4.584-4.474c-.235-.23-.54-.437-.428-.841s.484-.408.81-.457c2.109-.313,4.216-.638,6.327-.929a2.69,2.69,0,0,0,2.177-1.583q1.414-2.869,2.838-5.733c.139-.28.243-.606.628-.622.421-.018.547.319.7.621.906,1.837,1.829,3.667,2.713,5.514a2.773,2.773,0,0,0,2.3,1.8c.328.033.363.162.227.451a.919.919,0,0,1-.8.511c-2.089.3-4.177.613-6.269.9a2.626,2.626,0,0,0-2.353,1.788,2.559,2.559,0,0,0,.809,2.838c1.426,1.386,2.835,2.79,4.286,4.15a1.464,1.464,0,0,1,.554,1.7c-.129.37-.05.909-.289,1.12-.262.232-.636-.221-.977-.335a2.715,2.715,0,0,0-2.235.239q-2.881,1.529-5.774,3.033C352.574-147.92,352.123-148.152,352.137-148.668Z" transform="translate(-19.64 -10.066)" fill="#f0c101"/>
      <path id="Trazado_171502" data-name="Trazado 171502" d="M444.7-124.426a5.033,5.033,0,0,0,2.684.849c1,.161,2.009.294,3.013.44l.141.075,0-.019a2.275,2.275,0,0,1-.881,2.6c-1.558,1.274-2.872,2.806-4.325,4.19a1.524,1.524,0,0,0-.555,1.333c.106.761.286,1.511.411,2.269.236,1.435.456,2.873.682,4.31-1.276-.662-2.561-1.305-3.823-1.992a2.845,2.845,0,0,0-2.912.013c-1.263.684-2.547,1.329-3.822,1.991.334-1.984.614-3.98,1.026-5.949a2.3,2.3,0,0,0-.843-2.433c-1.5-1.276-2.81-2.737-4.218-4.1a1.619,1.619,0,0,1-.491-2.266c1.25-.187,2.5-.389,3.749-.555a3.8,3.8,0,0,0,2-.768l.155-.121h-.014c2.565-.124,2.963-.151,3.836-2.294.014-.035.058-.057.088-.086a11.874,11.874,0,0,1,.587,1.086,1.911,1.911,0,0,0,1.684,1.175C443.481-124.6,444.091-124.512,444.7-124.426Zm-.847,6.382q.013-1.366-1-1.367c-.656,0-.98.418-1.008,1.3a2.282,2.282,0,0,1-.016.313,1.224,1.224,0,0,1-1.346,1.044q-1.072-.1-1.129-1.542c-.028-.715-.387-1.118-.994-1.116s-.981.409-1.017,1.114a3.3,3.3,0,0,0,3.106,3.56A3.228,3.228,0,0,0,443.854-118.044Zm-8.506-1.468a1.427,1.427,0,0,0,1.416-1.442,1.475,1.475,0,0,0-1.46-1.417,1.422,1.422,0,0,0-1.4,1.46A1.388,1.388,0,0,0,435.348-119.513Zm10.521,0a1.407,1.407,0,0,0,1.436-1.427,1.451,1.451,0,0,0-1.454-1.429,1.42,1.42,0,0,0-1.391,1.414A1.383,1.383,0,0,0,445.869-119.51Z" transform="translate(-88.755 -47.999)" fill="#f7d135"/>
      <path id="Trazado_171503" data-name="Trazado 171503" d="M417.1-104.185a1.619,1.619,0,0,0,.491,2.266c1.408,1.365,2.723,2.826,4.218,4.1a2.3,2.3,0,0,1,.843,2.433c-.412,1.968-.691,3.964-1.026,5.949q-.965.52-1.929,1.04a.58.58,0,0,1-.7-.01.638.638,0,0,1-.2-.675c.375-2.16.718-4.326,1.113-6.483a2.726,2.726,0,0,0-.843-2.614q-2.272-2.208-4.54-4.422c-.233-.228-.548-.438-.414-.842s.482-.4.821-.441C415.653-103.97,416.374-104.082,417.1-104.185Z" transform="translate(-75.068 -66.936)" fill="#f7df7c"/>
      <path id="Trazado_171504" data-name="Trazado 171504" d="M516.387-89.248c-.226-1.437-.446-2.875-.682-4.31-.125-.759-.305-1.508-.411-2.269a1.524,1.524,0,0,1,.555-1.333c1.454-1.385,2.767-2.916,4.325-4.19a2.275,2.275,0,0,0,.881-2.6c.746.093,1.491.191,2.238.279.288.034.538.113.63.423a.683.683,0,0,1-.278.715q-2.3,2.229-4.6,4.464a2.791,2.791,0,0,0-.914,2.719c.12.572.188,1.155.288,1.732q.4,2.317.813,4.632c.052.3.08.583-.211.793-.272.2-.517.082-.762-.049C517.638-88.573,517.013-88.911,516.387-89.248Z" transform="translate(-159.274 -67.135)" fill="#f0c101"/>
      <path id="Trazado_171505" data-name="Trazado 171505" d="M488.186-147.971c-.61-.086-1.22-.178-1.831-.257a1.911,1.911,0,0,1-1.684-1.175,11.883,11.883,0,0,0-.587-1.086l-1.294-2.759q.373-.791.746-1.581a.593.593,0,0,1,.57-.412c.313.014.463.245.588.5.636,1.291,1.261,2.587,1.914,3.869A15.439,15.439,0,0,0,488.186-147.971Z" transform="translate(-132.24 -24.454)" fill="#efc102"/>
      <path id="Trazado_171506" data-name="Trazado 171506" d="M469.757-143.37l1.294,2.759c-.03.028-.074.051-.088.086-.873,2.143-1.272,2.17-3.836,2.294Z" transform="translate(-119.208 -34.333)" fill="#f6df7c"/>
      <path id="Trazado_171507" data-name="Trazado 171507" d="M466.443-112.784l-.155.121Z" transform="translate(-118.51 -59.781)" fill="#f6df7c"/>
      <path id="Trazado_171508" data-name="Trazado 171508" d="M548.975-104.229l-.141-.075C548.9-104.313,548.961-104.317,548.975-104.229Z" transform="translate(-187.191 -66.833)" fill="#f0c101"/>
      <path id="Trazado_171509" data-name="Trazado 171509" d="M384.525,24.8q.013,4.208.029,8.416c0,.277-.041.461-.381.355-3.205-.992-6.206-.266-9.215.938-4.249,1.7-8.557,3.255-12.838,4.878a5.889,5.889,0,0,1-6.59-1.292c-5.977-5.532-12-11.013-18.005-16.516a10.341,10.341,0,0,1-.889-.886,2.541,2.541,0,0,1-.215-3.429,2.717,2.717,0,0,1,3.466-.581c1.437.772,2.869,1.556,4.3,2.334l12.8,6.941c.073.039.14.089.27.171a4.521,4.521,0,0,0-2.251,2.673,4.17,4.17,0,0,0,1.3,4.607,4.02,4.02,0,0,0,4.611.762c3.24-1.512,6.435-3.121,9.648-4.69,1.6-.78,3.193-1.564,4.792-2.339a1.106,1.106,0,0,0,.722-1.3c.437-.136.872-.277,1.311-.406A23.738,23.738,0,0,1,384.525,24.8ZM373.632,33a1,1,0,0,0-1.325-1.082c-.8.289-1.593.617-2.374.96a1,1,0,0,0,.745,1.848c.8-.3,1.586-.63,2.371-.964A.9.9,0,0,0,373.632,33Zm2.752-2.668a1.189,1.189,0,0,0-1.246,1.135,1.006,1.006,0,0,0,1.008.982,1.22,1.22,0,0,0,1.252-1.143A1,1,0,0,0,376.383,30.332Z" transform="translate(-9.984 -167.192)" fill="#fdb997"/>
      <path id="Trazado_171510" data-name="Trazado 171510" d="M488.3,41.583a23.738,23.738,0,0,0-7.134.632c-.439.129-.874.27-1.311.406-.476-.757-.875-.862-1.733-.443q-6.872,3.358-13.741,6.725a2.543,2.543,0,0,1-2.679.011,2.374,2.374,0,0,1,.175-4.137c.822-.454,1.685-.835,2.53-1.247,3.8-1.845,7.559-3.762,11.4-5.514a16.6,16.6,0,0,1,11.758-.836c.564.161.819.377.779,1.015C488.269,39.321,488.3,40.453,488.3,41.583Z" transform="translate(-113.754 -183.975)" fill="#fdc8a5"/>
      <path id="Trazado_171511" data-name="Trazado 171511" d="M652.83,21.806c.669,0,1.34.028,2.007-.018.6-.041.747.2.744.764-.02,3.764-.01,7.529-.01,11.293,0,2.28-.014,4.56.01,6.839.006.559-.139.809-.74.768-.666-.046-1.338-.014-2.007-.016Q652.832,31.621,652.83,21.806Z" transform="translate(-273.719 -171.745)" fill="#43a047"/>
      <path id="Trazado_171512" data-name="Trazado 171512" d="M640.263,21.817q0,9.815,0,19.629c-.648,0-1.3,0-1.945.019-.422.015-.6-.131-.6-.576q.015-9.256,0-18.512c0-.443.166-.6.592-.579C638.966,21.823,639.615,21.813,640.263,21.817Z" transform="translate(-261.152 -171.757)" fill="#43a047"/>
      <path id="Trazado_171513" data-name="Trazado 171513" d="M477.588-80.736a3.228,3.228,0,0,1-3.408,3.306,3.3,3.3,0,0,1-3.106-3.56c.035-.7.407-1.112,1.017-1.114s.966.4.994,1.116q.057,1.446,1.129,1.542a1.224,1.224,0,0,0,1.346-1.044,2.292,2.292,0,0,0,.016-.313c.028-.883.352-1.3,1.008-1.3Q477.6-82.1,477.588-80.736Z" transform="translate(-122.488 -85.308)"/>
      <path id="Trazado_171514" data-name="Trazado 171514" d="M452.106-96.868a1.388,1.388,0,0,1-1.439-1.4,1.422,1.422,0,0,1,1.4-1.46,1.475,1.475,0,0,1,1.46,1.417A1.427,1.427,0,0,1,452.106-96.868Z" transform="translate(-105.513 -70.644)"/>
      <path id="Trazado_171515" data-name="Trazado 171515" d="M514.892-96.836a1.383,1.383,0,0,1-1.409-1.442,1.42,1.42,0,0,1,1.391-1.414,1.451,1.451,0,0,1,1.454,1.429A1.407,1.407,0,0,1,514.892-96.836Z" transform="translate(-157.778 -70.673)"/>
      <path id="Trazado_171516" data-name="Trazado 171516" d="M539.373,110a.9.9,0,0,1-.582.763c-.785.334-1.572.668-2.371.964a1,1,0,0,1-.745-1.848c.781-.343,1.571-.672,2.374-.96A1,1,0,0,1,539.373,110Z" transform="translate(-175.725 -244.194)"/>
      <path id="Trazado_171517" data-name="Trazado 171517" d="M570.981,99.788a1,1,0,0,1,1.014.974,1.22,1.22,0,0,1-1.252,1.143,1.006,1.006,0,0,1-1.008-.982A1.189,1.189,0,0,1,570.981,99.788Z" transform="translate(-204.581 -236.647)"/>
    </g>
    <g id="Grupo_111242" data-name="Grupo 111242" transform="translate(1699.968 760.788)">
      <path id="Trazado_171518" data-name="Trazado 171518" d="M-488.86-466.788q5.311,0,10.623,0c1.024,0,1.342.318,1.343,1.339,0,1.166,0,2.333,0,3.5a2.958,2.958,0,0,1-1.682,2.837.53.53,0,0,0-.321.58c.009.833.007,1.666,0,2.5-.005.892-.358,1.286-1.25,1.228-.636-.041-.792.148-.765.77.055,1.245.016,1.246,1.27,1.246,6.04,0,12.081-.008,18.121.013.522,0,.659-.121.638-.641-.043-1.065.293-1.372,1.357-1.372,4.561,0,9.123-.014,13.684.007a4.96,4.96,0,0,1,4.825,3.943,4.987,4.987,0,0,1-2.839,5.606,5.239,5.239,0,0,1-2.183.445q-6.78-.007-13.56,0c-.973,0-1.337-.334-1.285-1.319.031-.588-.164-.695-.712-.693q-9.342.03-18.683,0c-.53,0-.714.137-.622.646a1.412,1.412,0,0,1,0,.25c0,1.037,0,1.037,1.007,1.12a.994.994,0,0,1,.988,1.064c.016.875.019,1.75,0,2.624a.622.622,0,0,0,.388.667,2.869,2.869,0,0,1,1.611,2.625c.027,1.291.015,2.583.005,3.874a1.017,1.017,0,0,1-1.163,1.141q-10.841.006-21.683,0a1.014,1.014,0,0,1-1.148-1.155c-.009-1.27-.014-2.541,0-3.811a2.864,2.864,0,0,1,1.574-2.646.708.708,0,0,0,.43-.77c-.026-.791-.012-1.583-.007-2.374.005-.893.355-1.283,1.253-1.223.643.043.77-.159.762-.773-.036-2.895-.029-5.79,0-8.685,0-.476-.12-.583-.58-.571-1.151.031-1.432-.274-1.433-1.426,0-.771-.007-1.541,0-2.312a.532.532,0,0,0-.327-.577,2.965,2.965,0,0,1-1.678-2.84c0-1.208,0-2.416,0-3.624,0-.853.361-1.207,1.221-1.208Q-494.265-466.792-488.86-466.788Zm-.054,12.009v-.016c-1.831,0-3.662.009-5.492-.007-.365,0-.505.074-.5.477q.026,4.525,0,9.05c0,.366.075.5.477.5q5.523-.031,11.047-.017c.388,0,.49-.113.488-.493q-.022-4.494,0-8.988c0-.416-.127-.522-.528-.517C-485.252-454.768-487.083-454.779-488.913-454.779Zm.026-9.982v-.018c-3.142,0-6.283.011-9.425-.012-.476,0-.6.131-.582.593.038.768,0,1.539.014,2.309a.982.982,0,0,0,1.085,1.087q8.895,0,17.789-.018a.973.973,0,0,0,1.082-1.084c.013-.749-.027-1.5.014-2.247.027-.488-.117-.627-.615-.623C-482.645-464.749-485.766-464.761-488.887-464.761Zm0,29.962v-.018c3.121,0,6.242-.013,9.362.013.506,0,.635-.148.61-.628-.038-.747,0-1.5-.013-2.247a.973.973,0,0,0-1.086-1.08q-8.894-.018-17.789-.017a.981.981,0,0,0-1.081,1.09c-.014.77.026,1.541-.014,2.309-.024.468.116.593.586.589C-495.166-434.809-492.024-434.8-488.883-434.8Zm36.827-11.991c2.061,0,4.122.014,6.183,0a2.959,2.959,0,0,0,2.956-3,2.978,2.978,0,0,0-2.926-2.971c-4.184-.018-8.369,0-12.553-.015-.391,0-.49.118-.487.5.013,1.644.016,3.289-.025,4.932-.012.5.166.574.606.569C-456.219-446.8-454.137-446.789-452.055-446.789Zm-18.9-1.982h8.685c1.4,0,1.37,0,1.4-1.38.01-.514-.12-.659-.646-.657-5.978.019-11.956.012-17.934.012-1.468,0-1.445,0-1.469,1.455-.008.479.135.583.593.58C-477.205-448.781-474.081-448.771-470.957-448.771Zm-17.971-8v-.01h6.686c1.36,0,1.325,0,1.372-1.358.021-.584-.179-.67-.7-.668-4.624.016-9.248,0-13.871,0-1.487,0-1.469,0-1.48,1.493,0,.443.123.554.558.551C-493.885-456.782-491.406-456.771-488.927-456.771Zm.1,13.975v-.01h-6.623c-1.467,0-1.441,0-1.471,1.442-.011.518.168.6.634.6,4.665-.019,9.331-.017,14-.02,1.42,0,1.4,0,1.419-1.432.006-.459-.1-.6-.582-.594C-483.914-442.782-486.372-442.8-488.829-442.8Z" transform="translate(-0.058)"/>
      <path id="Trazado_171519" data-name="Trazado 171519" d="M-466.41-217.323q-11.683,0-23.366,0a10.975,10.975,0,0,1-10.981-8.96,11.013,11.013,0,0,1,9.318-12.932,14.325,14.325,0,0,1,1.743-.106H-442.4c1.159,0,1.449.284,1.449,1.421,0,1.1,0,2.207,0,3.311,0,.929-.349,1.31-1.289,1.251-.625-.04-.732.164-.725.746.033,2.915.026,5.831,0,8.746,0,.449.123.544.551.535,1.2-.024,1.46.262,1.461,1.461q0,1.593,0,3.186c0,1.022-.32,1.341-1.342,1.341Zm21.437-11c.007-1.436-.014-2.873.035-4.308.019-.566-.134-.708-.7-.707q-21.986.026-43.973.014c-.208,0-.417,0-.624.009a4.966,4.966,0,0,0-4.24,7.012,1.736,1.736,0,0,0,.1.291,4.993,4.993,0,0,0,4.657,2.688q22.071,0,44.142,0a1.752,1.752,0,0,1,.25,0c.3.044.385-.085.382-.381C-444.967-225.242-444.967-226.782-444.974-228.321Zm-22.034,9v-.006H-444.2c1.24,0,1.194,0,1.258-1.211.036-.685-.205-.788-.823-.787q-22.869.022-45.739.006c-.271,0-.542,0-.812-.012a7.01,7.01,0,0,1-6.447-8.578,6.994,6.994,0,0,1,7.036-5.408q22.682-.009,45.364-.009c1.414,0,1.389,0,1.416-1.425.009-.487-.144-.573-.594-.571-3.811.016-7.623,0-11.434,0q-17.5,0-34.991.006a8.975,8.975,0,0,0-8.748,11.016,8.952,8.952,0,0,0,8.651,6.969C-482.378-219.309-474.693-219.325-467.007-219.325Z" transform="translate(0 -189.467)"/>
      <path id="Trazado_171520" data-name="Trazado 171520" d="M-459.05-395.016c1.831,0,3.661.011,5.492-.009.4,0,.531.1.528.517q-.026,4.494,0,8.988c0,.381-.1.494-.488.493q-5.524-.013-11.047.017c-.4,0-.479-.137-.477-.5q.019-4.525,0-9.05c0-.4.138-.48.5-.477,1.831.016,3.662.007,5.492.007Z" transform="translate(-29.922 -59.763)" fill="#a27b1c"/>
      <path id="Trazado_171521" data-name="Trazado 171521" d="M-478.906-454.8c3.121,0,6.242.012,9.362-.012.5,0,.642.134.615.623-.041.747,0,1.5-.014,2.246a.973.973,0,0,1-1.082,1.084q-8.894.018-17.789.018a.982.982,0,0,1-1.085-1.087c-.014-.769.024-1.541-.014-2.309-.023-.462.106-.6.582-.593,3.142.022,6.283.012,9.425.012Z" transform="translate(-10.039 -9.963)" fill="#c99a28"/>
      <path id="Trazado_171522" data-name="Trazado 171522" d="M-478.9-295.121c-3.142,0-6.284-.01-9.425.011-.47,0-.61-.121-.586-.589.04-.768,0-1.539.014-2.309a.981.981,0,0,1,1.081-1.09q8.894,0,17.789.017a.973.973,0,0,1,1.086,1.08c.014.749-.025,1.5.013,2.247.025.479-.1.632-.61.628-3.121-.025-6.242-.013-9.362-.013Z" transform="translate(-10.038 -139.677)" fill="#c99a28"/>
      <path id="Trazado_171523" data-name="Trazado 171523" d="M-242.681-376.923c-2.082,0-4.164-.012-6.245.01-.44,0-.618-.071-.606-.569.04-1.643.037-3.288.025-4.932,0-.378.1-.5.487-.5,4.184.014,8.368,0,12.553.015a2.978,2.978,0,0,1,2.926,2.971,2.959,2.959,0,0,1-2.956,3C-238.559-376.909-240.62-376.923-242.681-376.923Zm-.906-2h2.618c1.506,0,1.49,0,1.479-1.508,0-.416-.138-.523-.536-.52-1.994.017-3.989.008-5.983.008-1.569,0-1.551,0-1.523,1.563.008.417.17.469.518.464C-245.872-378.932-244.729-378.922-243.586-378.922Zm8.086-1.047c-.195-.274.41-1.078-.5-.942-.511.077-1.415-.574-1.518.458-.151,1.508-.073,1.516.474,1.531C-235.535-378.881-235.535-378.881-235.5-379.969Z" transform="translate(-209.433 -69.866)" fill="#ffecb3"/>
      <path id="Trazado_171524" data-name="Trazado 171524" d="M-371.358-369.089c-3.124,0-6.249-.01-9.373.011-.458,0-.6-.1-.593-.58.024-1.454,0-1.455,1.469-1.455,5.978,0,11.956.007,17.934-.012.526,0,.656.143.646.657-.027,1.379,0,1.38-1.4,1.38Z" transform="translate(-99.657 -79.683)" fill="#7b5d14"/>
      <path id="Trazado_171525" data-name="Trazado 171525" d="M-469.1-416.973c-2.479,0-4.957-.011-7.436.01-.435,0-.561-.108-.558-.551.011-1.493-.008-1.494,1.48-1.493,4.624,0,9.248.015,13.871,0,.521,0,.721.084.7.668-.048,1.356-.012,1.358-1.372,1.358H-469.1Z" transform="translate(-19.888 -39.798)" fill="#ffecb3"/>
      <path id="Trazado_171526" data-name="Trazado 171526" d="M-469.014-323.224c2.458,0,4.915.014,7.373-.012.478-.005.588.135.582.594-.019,1.431,0,1.431-1.419,1.432-4.665,0-9.331,0-14,.02-.466,0-.645-.084-.634-.6.03-1.441,0-1.442,1.471-1.442h6.623Z" transform="translate(-19.873 -119.572)" fill="#ffecb3"/>
      <path id="Trazado_171527" data-name="Trazado 171527" d="M-456.924-209.375c-7.686,0-15.371.016-23.057-.006a8.952,8.952,0,0,1-8.651-6.969,8.975,8.975,0,0,1,8.748-11.016q17.5-.031,34.991-.006c3.812,0,7.623.012,11.435,0,.45,0,.6.084.594.571-.027,1.424,0,1.424-1.416,1.425q-22.682,0-45.364.009a6.994,6.994,0,0,0-7.036,5.408,7.01,7.01,0,0,0,6.447,8.578c.27.011.541.012.812.012q22.869,0,45.739-.006c.618,0,.859.1.823.787-.064,1.209-.018,1.211-1.258,1.211h-22.807Z" transform="translate(-10.083 -199.417)" fill="#c99a28"/>
      <path id="Trazado_171528" data-name="Trazado 171528" d="M-464.518-196.45a4.966,4.966,0,0,1,4.24-7.012c.208-.01.416-.009.624-.009q21.986,0,43.973-.014c.57,0,.723.141.7.707-.049,1.435-.028,2.872-.035,4.308h-3.958c-.052-1-.052-1-1.086-1h-39.736c-1.161,0-1.161,0-1.217,1.12-.2.038-.4.065-.6.115A6.494,6.494,0,0,0-464.518-196.45Z" transform="translate(-29.962 -219.318)" fill="#ffecb3"/>
      <path id="Trazado_171529" data-name="Trazado 171529" d="M-462.132-171.446a6.494,6.494,0,0,1,2.908-1.787c.2-.05.4-.077.6-.115.045.88.045.88.95.88h40.006c1.031,0,1.031,0,1.083-1h3.958c.007,1.54.007,3.079.027,4.619,0,.3-.078.426-.382.381a1.752,1.752,0,0,0-.25,0q-22.071,0-44.142,0a4.993,4.993,0,0,1-4.657-2.688A1.731,1.731,0,0,1-462.132-171.446Z" transform="translate(-32.348 -244.322)" fill="#ffecb3"/>
      <path id="Trazado_171530" data-name="Trazado 171530" d="M-233.644-369.15c-1.142,0-2.285-.01-3.428.006-.348.005-.51-.047-.518-.464-.028-1.563-.045-1.563,1.523-1.563,1.994,0,3.989.009,5.983-.008.4,0,.533.1.536.52.011,1.508.027,1.508-1.479,1.508Z" transform="translate(-219.375 -79.638)"/>
      <path id="Trazado_171531" data-name="Trazado 171531" d="M-175.908-370.661c-.035,1.088-.035,1.088-1.54,1.047-.547-.015-.624-.023-.474-1.531.1-1.031,1.007-.381,1.518-.458C-175.5-371.739-176.1-370.935-175.908-370.661Z" transform="translate(-269.024 -79.174)"/>
      <path id="Trazado_171532" data-name="Trazado 171532" d="M-399.086-178.46c-.052,1-.052,1-1.083,1h-40.006c-.906,0-.906,0-.95-.88.056-1.12.056-1.12,1.217-1.12h39.736C-399.138-179.461-399.138-179.461-399.086-178.46Z" transform="translate(-49.846 -239.329)"/>
    </g>
    <g id="Grupo_111243" data-name="Grupo 111243" transform="translate(1926.397 284.972)">
      <path id="Trazado_171533" data-name="Trazado 171533" d="M-798.087,222.028c-.073-.188-.265-.141-.4-.183a3.968,3.968,0,0,1-2.284-5.977q5.284-8.835,10.581-17.664c.127-.212.44-.391.151-.756-.275-.348-.545-.2-.827-.121-.976.27-1.945.564-2.923.83a1.686,1.686,0,0,1-2.02-.774c-.336-.525-.65-1.065-.946-1.614a1.675,1.675,0,0,1,.332-2.184c.735-.728,1.477-1.45,2.242-2.147a.648.648,0,0,0,.2-.808,9.2,9.2,0,0,1-.426-1.578c-.059-.37-.244-.473-.558-.545-.968-.222-1.932-.462-2.9-.7a1.789,1.789,0,0,1-1.515-1.927c0-.625-.01-1.25,0-1.875a1.692,1.692,0,0,1,1.325-1.709q1.551-.421,3.118-.78c.309-.07.476-.175.514-.511a2.913,2.913,0,0,1,.24-.961,1.355,1.355,0,0,0-.5-1.92,17.842,17.842,0,0,1-1.658-1.569,1.743,1.743,0,0,1-.346-2.42c.284-.511.575-1.02.892-1.51a1.636,1.636,0,0,1,1.918-.758q1.555.4,3.091.878a.62.62,0,0,0,.762-.194,12.474,12.474,0,0,1,1.2-1.2.587.587,0,0,0,.2-.709q-.438-1.455-.844-2.919a1.749,1.749,0,0,1,.894-2.227c.485-.289.971-.58,1.469-.846a1.693,1.693,0,0,1,2.189.325q1.119,1.117,2.2,2.274a.564.564,0,0,0,.706.181,5.764,5.764,0,0,1,1.351-.363c.617-.064.839-.385.947-.953.159-.841.4-1.668.6-2.5a1.822,1.822,0,0,1,2-1.582c.508,0,1.015-.005,1.523,0a1.778,1.778,0,0,1,1.858,1.456c.253.981.493,1.966.729,2.951.074.308.181.522.558.543a2.17,2.17,0,0,1,.9.223c.9.5,1.488.139,2.057-.573a20.839,20.839,0,0,1,1.5-1.566,1.742,1.742,0,0,1,2.373-.365c.462.251.92.511,1.371.783a1.782,1.782,0,0,1,.894,2.284c-.262.938-.512,1.881-.814,2.806a.668.668,0,0,0,.253.849,4.264,4.264,0,0,1,.833.819,1.065,1.065,0,0,0,1.439.4c.8-.3,1.64-.5,2.465-.727a1.782,1.782,0,0,1,2.285.892c.255.415.5.838.737,1.263a1.8,1.8,0,0,1-.393,2.558c-.689.663-1.376,1.331-2.079,1.979a.6.6,0,0,0-.213.749,14.223,14.223,0,0,1,.457,1.69.5.5,0,0,0,.445.448c.969.218,1.932.464,2.9.7a1.823,1.823,0,0,1,1.609,2.033q.009.82,0,1.64a1.767,1.767,0,0,1-1.505,1.928c-.964.241-1.928.482-2.9.706-.313.072-.5.178-.564.546a13.409,13.409,0,0,1-.452,1.692.5.5,0,0,0,.155.608c.759.7,1.5,1.425,2.239,2.15a1.735,1.735,0,0,1,.346,2.373c-.293.528-.591,1.056-.921,1.561a1.658,1.658,0,0,1-1.933.733c-1.034-.279-2.067-.565-3.088-.889a.607.607,0,0,0-.753.214c-.235.277.019.437.122.608q5.3,8.893,10.614,17.778a3.993,3.993,0,0,1-2.26,5.995c-.139.041-.325-.035-.414.147Zm11.818-30.358q3.148-5.238,6.294-10.477a4.515,4.515,0,0,1,1.319-1.467,4.039,4.039,0,0,1,5.815,1.383c1.825,3.02,3.623,6.056,5.434,9.084.1.172.216.338.368.575.156-.281.273-.479.377-.684a11.074,11.074,0,0,0,1.039-7.213,11.062,11.062,0,0,0-12.5-8.737,10.99,10.99,0,0,0-8.731,14.315c.249.8.172,1.057-.472,1.562-.895.07-1.157-.1-1.425-.929a12.724,12.724,0,0,1-.576-5.366,12.939,12.939,0,0,1,13.609-11.632,12.965,12.965,0,0,1,12.289,13.147,12.828,12.828,0,0,1-2.177,7c-.141.212-.372.391-.163.723.54.858,1.048,1.737,1.562,2.612.123.209.22.282.435.079a1.866,1.866,0,0,1,1.965-.354c.9.267,1.805.491,2.7.775.383.122.628.094.781-.308a1.741,1.741,0,0,1,.268-.452c.219-.276.139-.462-.1-.686-.733-.674-1.439-1.376-2.161-2.061a1.849,1.849,0,0,1-.515-2.08,18.023,18.023,0,0,0,.6-2.258,1.8,1.8,0,0,1,1.436-1.516q1.106-.272,2.214-.542c1.206-.292,1.186-.291,1.188-1.538,0-.387-.16-.5-.488-.572-.949-.217-1.89-.471-2.839-.692a1.846,1.846,0,0,1-1.519-1.575,18.266,18.266,0,0,0-.606-2.257,1.783,1.783,0,0,1,.479-1.981c.719-.689,1.417-1.4,2.153-2.07.3-.274.39-.5.113-.825a1.606,1.606,0,0,1-.238-.4c-.137-.318-.311-.413-.679-.295-.983.315-1.985.567-2.977.855a1.747,1.747,0,0,1-1.906-.553c-.565-.623-1.163-1.21-1.783-1.777a1.738,1.738,0,0,1-.536-1.91c.241-.8.465-1.61.7-2.415.282-.973.274-.957-.626-1.488a.455.455,0,0,0-.686.095c-.664.715-1.372,1.39-2.035,2.106a1.969,1.969,0,0,1-2.231.557c-.723-.229-1.461-.419-2.2-.588a1.808,1.808,0,0,1-1.481-1.4c-.229-.907-.5-1.806-.671-2.724-.109-.581-.371-.791-.93-.695a.9.9,0,0,1-.292,0c-.371-.06-.5.112-.577.466-.2.933-.46,1.853-.68,2.782a1.92,1.92,0,0,1-1.594,1.58c-.742.155-1.475.363-2.2.585a1.915,1.915,0,0,1-2.133-.524c-.641-.683-1.327-1.327-1.942-2.032a.626.626,0,0,0-.971-.131c-.741.469-.755.445-.507,1.3.244.842.491,1.684.729,2.528a1.748,1.748,0,0,1-.539,1.912,23.5,23.5,0,0,0-1.786,1.772,1.724,1.724,0,0,1-1.853.556q-1.264-.362-2.53-.718c-.946-.266-.929-.255-1.447.607a.48.48,0,0,0,.1.728c.721.657,1.409,1.351,2.119,2.021a1.9,1.9,0,0,1,.548,2.125c-.234.742-.441,1.5-.608,2.256A1.838,1.838,0,0,1-794,183.345c-.737.186-1.477.36-2.213.545-1.236.31-1.227.312-1.178,1.594.01.281.087.405.378.471,1.007.227,2.006.49,3.008.739a1.807,1.807,0,0,1,1.45,1.5,18.063,18.063,0,0,0,.627,2.312,1.8,1.8,0,0,1-.509,2.025c-.72.688-1.43,1.386-2.161,2.061-.25.231-.364.426-.112.723a1.837,1.837,0,0,1,.262.455c.153.35.372.424.744.305.928-.3,1.87-.548,2.806-.817a1.778,1.778,0,0,1,1.812.324c.275.255.381.186.547-.1C-787.8,194.208-787.029,192.941-786.269,191.67Zm9.916,28.342v.016H-760.6c1.7,0,3.4.015,5.1,0a2,2,0,0,0,2.04-2.359,4.04,4.04,0,0,0-.647-1.3q-10.193-17.06-20.392-34.117a2.054,2.054,0,0,0-3.774,0q-7.665,12.774-15.328,25.55-2.725,4.543-5.441,9.091a1.955,1.955,0,0,0,1.487,3.087,5.4,5.4,0,0,0,.759.039Q-786.575,220.013-776.353,220.012Z" transform="translate(0 0)" fill="#393939"/>
      <path id="Trazado_171534" data-name="Trazado 171534" d="M-765.547,322.221q-10.221,0-20.443,0a5.4,5.4,0,0,1-.759-.039,1.955,1.955,0,0,1-1.487-3.087q2.709-4.552,5.441-9.091,7.663-12.776,15.328-25.55a2.054,2.054,0,0,1,3.774,0q10.2,17.054,20.392,34.117a4.04,4.04,0,0,1,.647,1.3,2,2,0,0,1-2.04,2.359c-1.7.015-3.4,0-5.1,0h-15.757Zm2.957-21.012c0-1.972.02-3.944-.006-5.916a3,3,0,0,0-3.038-3.051,2.993,2.993,0,0,0-2.982,3.048c-.021,3.963-.013,7.926,0,11.89a2.9,2.9,0,0,0,1.1,2.361,2.846,2.846,0,0,0,3.126.427,2.933,2.933,0,0,0,1.8-2.844C-762.573,305.153-762.59,303.181-762.59,301.209Zm-3.041,17.036a3.052,3.052,0,0,0,3.032-2.954,2.989,2.989,0,0,0-2.984-3.032,3,3,0,0,0-3.034,2.988A3.049,3.049,0,0,0-765.631,318.245Z" transform="translate(-10.806 -102.209)" fill="#28c65d"/>
      <path id="Trazado_171535" data-name="Trazado 171535" d="M-764.779,202.285c-.76,1.271-1.526,2.538-2.274,3.816-.166.284-.272.354-.547.1a1.778,1.778,0,0,0-1.812-.324c-.937.269-1.878.521-2.806.817-.372.119-.591.045-.744-.305a1.838,1.838,0,0,0-.262-.455c-.252-.3-.137-.493.112-.723.731-.675,1.441-1.373,2.161-2.061a1.8,1.8,0,0,0,.509-2.025,18.064,18.064,0,0,1-.627-2.312,1.807,1.807,0,0,0-1.45-1.5c-1-.249-2-.512-3.008-.739-.291-.066-.367-.19-.378-.471-.048-1.281-.057-1.283,1.178-1.594.737-.185,1.477-.359,2.213-.545a1.838,1.838,0,0,0,1.449-1.506c.167-.76.374-1.513.608-2.256a1.9,1.9,0,0,0-.548-2.125c-.71-.67-1.4-1.364-2.119-2.021a.48.48,0,0,1-.1-.728c.518-.862.5-.873,1.447-.607q1.266.356,2.53.718a1.724,1.724,0,0,0,1.853-.556,23.5,23.5,0,0,1,1.786-1.772,1.748,1.748,0,0,0,.539-1.912c-.238-.844-.485-1.685-.729-2.528-.249-.858-.234-.834.507-1.3a.626.626,0,0,1,.971.131c.615.705,1.3,1.349,1.942,2.032a1.915,1.915,0,0,0,2.133.524c.726-.222,1.459-.43,2.2-.585a1.92,1.92,0,0,0,1.594-1.58c.22-.929.478-1.849.68-2.782.076-.354.206-.525.577-.466a.9.9,0,0,0,.292,0c.559-.1.821.114.93.695.172.918.442,1.817.671,2.724a1.808,1.808,0,0,0,1.481,1.4c.74.169,1.477.359,2.2.588a1.969,1.969,0,0,0,2.231-.557c.663-.716,1.37-1.391,2.035-2.106a.455.455,0,0,1,.686-.095c.9.532.908.516.626,1.488-.233.8-.458,1.612-.7,2.415a1.738,1.738,0,0,0,.536,1.91c.62.567,1.218,1.154,1.783,1.777a1.747,1.747,0,0,0,1.906.553c.992-.287,1.994-.54,2.977-.855.368-.118.541-.023.679.295a1.606,1.606,0,0,0,.238.4c.277.326.19.551-.113.825-.737.669-1.435,1.381-2.153,2.07a1.783,1.783,0,0,0-.479,1.981,18.267,18.267,0,0,1,.606,2.257,1.846,1.846,0,0,0,1.519,1.575c.948.222,1.889.475,2.839.692.329.075.489.184.488.572,0,1.247.018,1.246-1.188,1.538q-1.108.268-2.214.542a1.8,1.8,0,0,0-1.436,1.516,18.022,18.022,0,0,1-.6,2.258,1.849,1.849,0,0,0,.515,2.08c.722.685,1.428,1.388,2.161,2.061.243.224.324.41.1.686a1.743,1.743,0,0,0-.268.452c-.153.4-.4.429-.781.308-.891-.283-1.8-.508-2.7-.775a1.866,1.866,0,0,0-1.965.354c-.214.2-.312.13-.435-.079-.514-.874-1.021-1.754-1.562-2.612-.209-.332.022-.512.163-.723a12.828,12.828,0,0,0,2.177-7A12.965,12.965,0,0,0-754.232,182.7a12.939,12.939,0,0,0-13.609,11.632,12.724,12.724,0,0,0,.576,5.366c.268.832.53,1,1.425.929C-765.474,201.172-765.388,201.9-764.779,202.285Z" transform="translate(-21.49 -10.615)" fill="#ffecb3"/>
      <path id="Trazado_171536" data-name="Trazado 171536" d="M-655.091,349.855c0,1.972.017,3.944-.006,5.915a2.933,2.933,0,0,1-1.8,2.844,2.846,2.846,0,0,1-3.126-.427,2.905,2.905,0,0,1-1.1-2.361c-.011-3.963-.019-7.926,0-11.89a2.993,2.993,0,0,1,2.982-3.048,3,3,0,0,1,3.038,3.051C-655.071,345.911-655.091,347.883-655.091,349.855Zm-4.026,0q0,2.781,0,5.562a3.887,3.887,0,0,0,.025.584.959.959,0,0,0,1,.873.934.934,0,0,0,.962-.846,3.472,3.472,0,0,0,.032-.583q0-5.562,0-11.123a3.158,3.158,0,0,0-.046-.639.931.931,0,0,0-.949-.792.952.952,0,0,0-.983.821,3.594,3.594,0,0,0-.038.64Q-659.119,347.1-659.117,349.852Z" transform="translate(-118.305 -150.855)" fill="#393939"/>
      <path id="Trazado_171537" data-name="Trazado 171537" d="M-658.071,474.715a3.049,3.049,0,0,1-2.987-3,3,3,0,0,1,3.034-2.988,2.989,2.989,0,0,1,2.984,3.032A3.052,3.052,0,0,1-658.071,474.715Zm.041-2a1.011,1.011,0,0,0,.976-1.033.979.979,0,0,0-1.037-.954.982.982,0,0,0-.948.987A1.014,1.014,0,0,0-658.03,472.71Z" transform="translate(-118.366 -258.678)" fill="#393939"/>
      <path id="Trazado_171538" data-name="Trazado 171538" d="M-648.274,360.613q0-2.752,0-5.5a3.589,3.589,0,0,1,.038-.64.952.952,0,0,1,.983-.821.931.931,0,0,1,.949.792,3.15,3.15,0,0,1,.046.639q0,5.562,0,11.123a3.472,3.472,0,0,1-.032.583.934.934,0,0,1-.962.846.959.959,0,0,1-1-.873,3.9,3.9,0,0,1-.025-.584Q-648.276,363.393-648.274,360.613Z" transform="translate(-129.148 -161.615)" fill="#f4f4f4"/>
      <path id="Trazado_171539" data-name="Trazado 171539" d="M-647.162,483.449a1.014,1.014,0,0,1-1.01-1,.982.982,0,0,1,.948-.987.978.978,0,0,1,1.037.954A1.011,1.011,0,0,1-647.162,483.449Z" transform="translate(-129.234 -269.417)" fill="#fdfdfd"/>
    </g>
    <g id="Grupo_111244" data-name="Grupo 111244" transform="translate(1388.09 -1338.908)">
      <path id="Trazado_171540" data-name="Trazado 171540" d="M-364.442,1724.79a3.23,3.23,0,0,1,3.071-.756,3.076,3.076,0,0,1,2.25,2.834c.034,1.352.05,2.708,0,4.059a3.1,3.1,0,0,1-4.8,2.467c-.155-.1-.3-.212-.511-.36a26,26,0,0,1-1.56,5.434,25.023,25.023,0,0,1-2.7,4.879c.094.163.232.134.35.152a3.08,3.08,0,0,1,2,5,23.278,23.278,0,0,1-3.177,3.175,3.082,3.082,0,0,1-4.979-1.965c-.018-.119-.034-.237-.065-.457a25.166,25.166,0,0,1-10.407,4.31,3.287,3.287,0,0,1,.778,2.924,3.079,3.079,0,0,1-2.964,2.4c-1.29.025-2.582.033-3.872,0a2.964,2.964,0,0,1-2.708-1.7,3,3,0,0,1,.208-3.192c.088-.135.19-.26.318-.434a25.122,25.122,0,0,1-10.4-4.3c-.067.332-.1.6-.175.85a3.074,3.074,0,0,1-4.924,1.525,28.056,28.056,0,0,1-3.131-3.134,3.081,3.081,0,0,1,1.912-5c.137-.022.3.019.434-.15a25.1,25.1,0,0,1-3.307-6.5,24.549,24.549,0,0,1-.935-3.749c-.2-.058-.285.126-.41.209a3.016,3.016,0,0,1-3.246.223,2.969,2.969,0,0,1-1.683-2.718c-.032-1.228-.016-2.457-.007-3.685a3.02,3.02,0,0,1,1.728-2.881,3,3,0,0,1,3.339.345c.065.048.133.093.26.182a24.949,24.949,0,0,1,4.258-10.317c-.113-.178-.275-.134-.411-.158a2.99,2.99,0,0,1-2.409-1.938,2.847,2.847,0,0,1,.5-3.1,41.44,41.44,0,0,1,3.09-3.088,2.843,2.843,0,0,1,3.1-.492,2.97,2.97,0,0,1,1.936,2.478c.014.1.03.2.061.393a25.043,25.043,0,0,1,10.351-4.3c-.011-.243-.208-.363-.315-.532a3.111,3.111,0,0,1,2.482-4.8c1.268-.048,2.54-.023,3.81-.01a3,3,0,0,1,2.838,1.693,3.01,3.01,0,0,1-.305,3.344c-.049.068-.1.134-.144.2-.009.014,0,.04,0,.1a25.4,25.4,0,0,1,5.4,1.554,25.465,25.465,0,0,1,4.925,2.736c.066-.333.1-.6.172-.85a3.078,3.078,0,0,1,4.924-1.531,28.293,28.293,0,0,1,3.131,3.133,3.075,3.075,0,0,1-1.967,5.006c-.118.019-.234.046-.416.083a25.377,25.377,0,0,1,3.367,6.623A25,25,0,0,1-364.442,1724.79Zm-1.941.566a22.724,22.724,0,0,0-4.124-9.967c-.425.326-.36,1.1-.828,1.118-.44.018-.893-.389-1.349-.587-.276-.12-.314-.257-.174-.523.4-.755.783-1.516,1.142-2.288a1.2,1.2,0,0,1,1.175-.764c.541,0,1.083-.016,1.624,0a1.117,1.117,0,0,0,1.167-.661,1.128,1.128,0,0,0-.345-1.349q-1.2-1.183-2.385-2.385a1.163,1.163,0,0,0-1.337-.4,1.172,1.172,0,0,0-.74,1.19c-.015.583-.009,1.166-.007,1.749a.984.984,0,0,1-.576.956c-.818.409-1.635.822-2.455,1.229-.137.068-.3.22-.419-.019a4.714,4.714,0,0,1-.679-1.518c-.03-.363.645-.409.975-.644a1.062,1.062,0,0,0,.143-.172,22.623,22.623,0,0,0-10-4.119c.361,1.469.356,1.453-1.007,1.893-.371.12-.52.049-.63-.311q-.373-1.222-.8-2.428a1.087,1.087,0,0,1,.3-1.245q.625-.611,1.234-1.239a1.061,1.061,0,0,0,.273-1.253,1.1,1.1,0,0,0-1.086-.693H-390.9a1.1,1.1,0,0,0-1.09.687,1.053,1.053,0,0,0,.266,1.253c.423.431.853.855,1.277,1.284a1.016,1.016,0,0,1,.305,1.08c-.289.89-.588,1.776-.886,2.662-.053.157-.107.346-.335.268-.528-.179-1.179-.207-1.539-.6-.247-.27.181-.755.258-1.156a.976.976,0,0,0-.012-.2,22.616,22.616,0,0,0-9.958,4.129c.352.435,1.118.337,1.119.866,0,.43-.391.853-.577,1.292-.135.319-.3.314-.574.17q-1.132-.595-2.287-1.146a1.113,1.113,0,0,1-.7-1.139c.019-.6.01-1.208-.021-1.81a1.075,1.075,0,0,0-.77-1.03,1.078,1.078,0,0,0-1.188.325c-.84.838-1.676,1.681-2.518,2.516a1.1,1.1,0,0,0-.312,1.3,1.078,1.078,0,0,0,1.1.669c.541-.008,1.083,0,1.624,0a1.246,1.246,0,0,1,1.27.815c.23.534.513,1.045.773,1.566.514,1.027.518,1.035-.488,1.526-.909.444-.722.486-1.17-.362a.963.963,0,0,0-.354-.495,22.625,22.625,0,0,0-4.111,9.959c.534.043,1.019-.538,1.382-.225.314.271.331.87.517,1.308.148.349.015.484-.3.583-.813.255-1.626.512-2.428.8a1.094,1.094,0,0,1-1.25-.286q-.616-.621-1.239-1.234a1.067,1.067,0,0,0-1.249-.294,1.121,1.121,0,0,0-.713,1.136q.007,1.78,0,3.56a1.115,1.115,0,0,0,.727,1.127,1.078,1.078,0,0,0,1.247-.311q.621-.615,1.238-1.235a1.009,1.009,0,0,1,1.074-.325c.891.283,1.776.588,2.665.878.23.075.365.183.264.451-.182.485-.235,1.094-.568,1.422-.284.28-.785-.188-1.206-.255a.621.621,0,0,0-.164.037,22.7,22.7,0,0,0,4.141,9.967c.37-.384.365-1.1.778-1.137s.852.363,1.293.539c.353.14.414.307.227.65-.388.712-.756,1.436-1.09,2.175a1.269,1.269,0,0,1-1.283.8c-.52,0-1.041.01-1.561,0a1.1,1.1,0,0,0-1.149.685,1.1,1.1,0,0,0,.33,1.3c.8.791,1.6,1.583,2.383,2.387a1.184,1.184,0,0,0,1.388.416,1.226,1.226,0,0,0,.718-1.271c.006-.541.011-1.083,0-1.624a1.007,1.007,0,0,1,.6-1c.8-.4,1.6-.8,2.4-1.2.119-.058.3-.229.386-.073a5.684,5.684,0,0,1,.752,1.56c.077.369-.523.36-.784.573-.1.083-.288.075-.3.31a22.683,22.683,0,0,0,9.92,4.083c.02-.524-.53-1.021-.239-1.371.263-.316.865-.336,1.3-.523.335-.144.489-.048.592.282.254.813.512,1.626.8,2.428a1.123,1.123,0,0,1-.313,1.3c-.4.392-.8.795-1.193,1.192a1.072,1.072,0,0,0-.311,1.245,1.115,1.115,0,0,0,1.127.727q1.78,0,3.56,0a1.123,1.123,0,0,0,1.135-.715,1.07,1.07,0,0,0-.3-1.249c-.41-.415-.82-.829-1.235-1.238a1.072,1.072,0,0,1-.282-1.249c.184-.485.331-.985.5-1.478.493-1.478.491-1.472,1.952-.9.287.112.4.233.28.549a2.727,2.727,0,0,0-.27,1,22.738,22.738,0,0,0,9.966-4.127c-.336-.42-1.1-.362-1.116-.84-.014-.442.393-.892.59-1.35.126-.291.28-.286.53-.156.775.4,1.558.79,2.343,1.173a1.088,1.088,0,0,1,.669,1.093c-.012.624,0,1.249.027,1.872a1.054,1.054,0,0,0,.735.99,1.065,1.065,0,0,0,1.2-.294q1.286-1.276,2.562-2.561a1.077,1.077,0,0,0,.3-1.249,1.1,1.1,0,0,0-1.141-.7c-.562.01-1.125.01-1.686-.006a1.113,1.113,0,0,1-1.072-.619c-.4-.822-.819-1.636-1.225-2.457-.059-.119-.208-.275-.014-.376a5.559,5.559,0,0,1,1.574-.715c.3-.047.371.58.573.885.054.082.077.193.259.193a22.611,22.611,0,0,0,4.082-9.956c-1.465.4-1.445.392-1.9-1.016-.127-.4,0-.511.334-.615q1.219-.382,2.427-.8a1.062,1.062,0,0,1,1.2.277q.619.618,1.238,1.235a1.082,1.082,0,0,0,1.244.323,1.109,1.109,0,0,0,.736-1.12c0-1.208,0-2.415,0-3.623a1.1,1.1,0,0,0-.7-1.079,1.06,1.06,0,0,0-1.25.284c-.415.41-.829.82-1.238,1.235a1.019,1.019,0,0,1-1.069.349c-.912-.287-1.813-.606-2.722-.9-.212-.07-.331-.174-.237-.406.2-.5.188-1.16.594-1.469.3-.232.8.209,1.221.278A.81.81,0,0,0-366.383,1725.356Z" transform="translate(0 0)" fill="#020302"/>
      <path id="Trazado_171541" data-name="Trazado 171541" d="M-356.361,1735.407a.81.81,0,0,1-.128.013c-.426-.069-.917-.51-1.221-.278-.406.309-.392.972-.594,1.469-.094.232.025.336.237.406.908.3,1.81.618,2.722.9a1.02,1.02,0,0,0,1.069-.348c.409-.415.823-.825,1.238-1.235a1.06,1.06,0,0,1,1.25-.284,1.1,1.1,0,0,1,.7,1.079c0,1.208,0,2.415,0,3.623a1.109,1.109,0,0,1-.736,1.12,1.081,1.081,0,0,1-1.244-.323q-.618-.619-1.238-1.235a1.062,1.062,0,0,0-1.2-.277q-1.206.424-2.427.8c-.333.1-.461.219-.334.615.451,1.408.431,1.414,1.9,1.016a22.61,22.61,0,0,1-4.082,9.956c-.182,0-.205-.111-.259-.193-.2-.306-.274-.932-.573-.885a5.556,5.556,0,0,0-1.574.714c-.195.1-.045.257.014.376.406.82.824,1.634,1.225,2.457a1.113,1.113,0,0,0,1.072.619c.562.016,1.124.016,1.686.006a1.094,1.094,0,0,1,1.141.7,1.077,1.077,0,0,1-.3,1.249q-1.28,1.282-2.562,2.561a1.065,1.065,0,0,1-1.2.294,1.054,1.054,0,0,1-.735-.99c-.031-.623-.04-1.248-.027-1.872a1.088,1.088,0,0,0-.669-1.093c-.785-.383-1.568-.771-2.343-1.173-.251-.13-.4-.136-.53.156-.2.457-.6.907-.59,1.349.016.478.78.42,1.116.84a22.734,22.734,0,0,1-9.966,4.127,2.727,2.727,0,0,1,.27-1c.118-.316.007-.437-.28-.549-1.462-.572-1.459-.579-1.952.9-.164.493-.312.992-.5,1.478a1.072,1.072,0,0,0,.282,1.249c.415.409.825.824,1.235,1.238a1.071,1.071,0,0,1,.3,1.249,1.123,1.123,0,0,1-1.135.715q-1.78-.006-3.56,0a1.115,1.115,0,0,1-1.127-.727,1.072,1.072,0,0,1,.311-1.245c.4-.4.79-.8,1.193-1.192a1.123,1.123,0,0,0,.313-1.3c-.289-.8-.546-1.614-.8-2.428-.1-.329-.257-.425-.592-.282-.437.187-1.039.208-1.3.523-.291.35.259.847.239,1.371a22.684,22.684,0,0,1-9.92-4.083c.008-.235.194-.227.3-.31.26-.213.861-.2.784-.573a5.684,5.684,0,0,0-.752-1.56c-.09-.156-.267.014-.386.073-.8.394-1.6.8-2.4,1.2a1.007,1.007,0,0,0-.6,1c.01.541.005,1.083,0,1.624a1.226,1.226,0,0,1-.718,1.271,1.184,1.184,0,0,1-1.388-.416c-.786-.8-1.584-1.6-2.383-2.387a1.1,1.1,0,0,1-.33-1.3,1.1,1.1,0,0,1,1.149-.685c.52.011,1.041,0,1.561,0a1.269,1.269,0,0,0,1.283-.8c.333-.739.7-1.463,1.09-2.175.187-.343.126-.509-.227-.65-.441-.176-.886-.581-1.293-.539s-.408.753-.778,1.137a22.7,22.7,0,0,1-4.141-9.967.619.619,0,0,1,.164-.037c.421.067.922.535,1.206.255.333-.328.386-.937.568-1.422.1-.268-.035-.376-.264-.451-.889-.29-1.774-.595-2.665-.878a1.009,1.009,0,0,0-1.074.325q-.615.622-1.238,1.235a1.078,1.078,0,0,1-1.247.311,1.115,1.115,0,0,1-.727-1.126q0-1.78,0-3.56a1.121,1.121,0,0,1,.713-1.136,1.068,1.068,0,0,1,1.249.294q.622.615,1.239,1.234a1.094,1.094,0,0,0,1.25.286c.8-.286,1.615-.543,2.428-.8.316-.1.449-.235.3-.583-.186-.438-.2-1.037-.517-1.308-.362-.313-.848.267-1.382.225a22.624,22.624,0,0,1,4.111-9.959.962.962,0,0,1,.354.494c.448.848.261.806,1.17.362,1.006-.491,1-.5.488-1.526-.26-.521-.543-1.032-.773-1.566a1.246,1.246,0,0,0-1.27-.815c-.541,0-1.083-.007-1.624,0a1.078,1.078,0,0,1-1.1-.669,1.1,1.1,0,0,1,.312-1.3c.842-.836,1.679-1.678,2.518-2.516a1.078,1.078,0,0,1,1.188-.325,1.075,1.075,0,0,1,.77,1.03c.031.6.04,1.207.021,1.81a1.113,1.113,0,0,0,.7,1.139q1.152.554,2.287,1.146c.274.144.438.149.574-.17.186-.439.578-.862.577-1.292,0-.53-.767-.431-1.119-.866a22.613,22.613,0,0,1,9.958-4.129.975.975,0,0,1,.012.2c-.076.4-.5.885-.258,1.155.36.394,1.011.421,1.539.6.228.078.282-.111.335-.268.3-.887.6-1.773.886-2.662a1.016,1.016,0,0,0-.305-1.08c-.424-.43-.855-.853-1.277-1.284a1.053,1.053,0,0,1-.266-1.253,1.1,1.1,0,0,1,1.09-.687h3.623a1.1,1.1,0,0,1,1.086.693,1.061,1.061,0,0,1-.273,1.253q-.61.626-1.234,1.239a1.087,1.087,0,0,0-.3,1.245q.427,1.2.8,2.428c.11.359.259.43.63.311,1.363-.44,1.368-.424,1.007-1.893a22.621,22.621,0,0,1,10,4.119,1.062,1.062,0,0,1-.143.172c-.33.235-1,.281-.975.644a4.714,4.714,0,0,0,.679,1.518c.119.239.282.087.419.019.82-.406,1.636-.82,2.455-1.229a.984.984,0,0,0,.576-.956c0-.583-.007-1.166.007-1.749a1.172,1.172,0,0,1,.74-1.19,1.163,1.163,0,0,1,1.337.4q1.182,1.2,2.385,2.385a1.128,1.128,0,0,1,.345,1.349,1.117,1.117,0,0,1-1.167.661c-.541-.014-1.082,0-1.624,0a1.2,1.2,0,0,0-1.175.764c-.359.773-.746,1.534-1.142,2.288-.14.266-.1.4.174.523.457.2.909.605,1.349.587.468-.019.4-.792.828-1.118A22.725,22.725,0,0,1-356.361,1735.407Zm-22.715,10.549q3.183,0,6.367,0a3.4,3.4,0,0,0,3.112-5.217q-2.777-5.161-5.557-10.321a4.226,4.226,0,0,0-3.912-2.438,4.217,4.217,0,0,0-3.917,2.429q-2.773,5.164-5.558,10.322a3.4,3.4,0,0,0,3.1,5.225C-383.321,1745.96-381.2,1745.955-379.076,1745.955Zm10.6-.608c-.174.086-.545-.229-.6.242-.052.454-.074.911-.118,1.366-.025.255.048.374.333.383.539.017,1.077.1,1.616.109a.763.763,0,0,1,.782.458,2.232,2.232,0,0,0,2.192,1.268,2.268,2.268,0,0,0,2.1-1.426c.442-1.008.883-2.018,1.263-3.049a2.349,2.349,0,0,0-2.613-3.2,1.64,1.64,0,0,1-1.571-.511c-1.18-1.029-1.182-1.015-2.165.252-.181.233-.181.361.045.551.7.587,1.382,1.2,2.078,1.792a1,1,0,0,0,1.107.169c.211-.088.421-.178.636-.256a.451.451,0,0,1,.521.075.427.427,0,0,1,.062.516c-.385.919-.763,1.841-1.146,2.761a.444.444,0,0,1-.415.324.469.469,0,0,1-.411-.335c-.067-.152-.132-.305-.187-.462a1.138,1.138,0,0,0-1.112-.833C-366.867,1745.5-367.652,1745.415-368.477,1745.347Zm5.306-8.874a2.364,2.364,0,0,0,2.3-3.124,26.023,26.023,0,0,0-1.389-3.333,2.343,2.343,0,0,0-4.062-.22,1.339,1.339,0,0,1-1.289.693c-1.659.046-1.658.069-1.48,1.7a.338.338,0,0,1,0,.062c-.024.289.135.347.385.327.642-.052,1.285-.122,1.928-.128.952-.009,1.734-.217,1.967-1.3a.458.458,0,0,1,.417-.407c.237-.007.365.162.45.369q.558,1.353,1.122,2.7a.437.437,0,0,1-.044.52.473.473,0,0,1-.574.073c-.136-.052-.27-.109-.4-.172a1.194,1.194,0,0,0-1.48.247c-.372.361-.778.69-1.173,1.026-1,.855-.978.833-.17,1.865.36.459.6.469,1,.078C-364.972,1736.784-364.306,1736.015-363.17,1736.474Zm-18.386-13.437a2.353,2.353,0,0,0-3.083-2.29,24.933,24.933,0,0,0-3.392,1.407,2.334,2.334,0,0,0-.233,4.024,1.394,1.394,0,0,1,.724,1.338c.047,1.668.07,1.658,1.725,1.471.3-.034.4-.131.366-.42-.05-.475-.1-.952-.113-1.429-.036-1.1,0-2.194-1.441-2.526-.407-.094-.4-.555-.005-.735.946-.427,1.908-.821,2.877-1.192.394-.151.646.119.543.536a2.878,2.878,0,0,1-.211.518,1.171,1.171,0,0,0,.227,1.429c.386.407.745.84,1.107,1.269.806.953.8.955,1.723.164.614-.529.623-.537.059-1.158-.607-.668-1.336-1.281-.873-2.344A.182.182,0,0,0-381.557,1723.037Zm8.872,5.379c-.141.466.118.6.588.573a2.433,2.433,0,0,1,.618.067c.542.11.863.008.812-.656-.031-.409.088-.827.082-1.241a.8.8,0,0,1,.492-.823,2.237,2.237,0,0,0,1.237-2.151,2.257,2.257,0,0,0-1.4-2.113c-1.025-.453-2.052-.908-3.106-1.288a2.348,2.348,0,0,0-3.174,2.6,1.667,1.667,0,0,1-.487,1.579c-1.039,1.178-1.024,1.191.219,2.158a.35.35,0,0,1,.048.04c.186.205.333.161.5-.043.343-.417.689-.835,1.065-1.222.741-.763,1.37-1.509.661-2.661-.229-.372.128-.7.556-.539.93.356,1.845.753,2.766,1.133a.469.469,0,0,1,.348.4c.013.244-.165.366-.363.453-.152.067-.307.128-.463.186a1.107,1.107,0,0,0-.8,1.069C-372.532,1726.744-372.614,1727.55-372.685,1728.416Zm-16.257,18.486c-.045-.455-.1-.807-.106-1.158,0-.326-.112-.441-.442-.4-.495.057-.993.1-1.491.111-1.065.028-2.092.046-2.419,1.406-.107.443-.578.439-.77.012-.417-.927-.8-1.87-1.166-2.82-.164-.427.111-.692.554-.565.238.068.462.186.694.277a.98.98,0,0,0,1.052-.161,15.09,15.09,0,0,0,2.092-1.86c.523-.651-.485-.842-.676-1.317-.093-.231-.288-.475-.614-.161-.389.374-.83.693-1.221,1.066a.812.812,0,0,1-.891.2,2.27,2.27,0,0,0-2.393.658,2.192,2.192,0,0,0-.544,2.362,31.892,31.892,0,0,0,1.419,3.387,2.284,2.284,0,0,0,3.777.47,2.242,2.242,0,0,1,2.094-1.012c.185.007.374-.061.557-.048C-389.013,1747.381-388.863,1747.2-388.942,1746.9Zm12.354,8a2.382,2.382,0,0,0,3.285,2.206c.972-.361,1.925-.777,2.882-1.178a2.349,2.349,0,0,0,1.562-2.142,2.291,2.291,0,0,0-1.343-2.275.6.6,0,0,1-.373-.636,7.034,7.034,0,0,0-.031-.748c-.108-1.3-.11-1.3-1.431-1.2a1.537,1.537,0,0,1-.249.01c-.326-.03-.439.105-.408.435.065.7.132,1.408.141,2.114a1.534,1.534,0,0,0,1.213,1.707c.245.06.489.188.475.5-.012.271-.25.362-.462.45-.767.319-1.533.639-2.3.946-.256.1-.521.34-.8.086-.318-.283-.1-.59.036-.851a1.307,1.307,0,0,0-.267-1.693c-.384-.378-.714-.811-1.062-1.224-.755-.9-.754-.9-1.641-.115-.637.561-.642.566-.071,1.2.585.652,1.3,1.25.857,2.285A.356.356,0,0,0-376.587,1754.905Zm-10.329-6.062c-.435-.123-.556.1-.553.557,0,.518-.086,1.035-.1,1.554a.588.588,0,0,1-.384.568,2.283,2.283,0,0,0-1.335,2.219,2.351,2.351,0,0,0,1.576,2.2c.919.385,1.842.762,2.764,1.14a2.317,2.317,0,0,0,2.563-.381,2.287,2.287,0,0,0,.715-2.541.715.715,0,0,1,.2-.779c.383-.41.727-.856,1.1-1.271.185-.2.153-.324-.034-.509-1.163-1.155-1.159-1.159-2.227.067-.082.094-.162.19-.249.279-.757.78-1.5,1.536-.733,2.756.216.343-.129.685-.518.537q-1.455-.554-2.878-1.19c-.4-.181-.391-.527-.014-.752a2.739,2.739,0,0,1,.513-.223,1.123,1.123,0,0,0,.846-1.1c.02-.54.068-1.078.111-1.617C-385.43,1748.9-385.429,1748.905-386.916,1748.843Zm-2.04-17.746c.111-.39-.07-.537-.511-.534-.5,0-.994-.093-1.491-.094a.718.718,0,0,1-.717-.457,2.249,2.249,0,0,0-2.194-1.268,2.27,2.27,0,0,0-2.1,1.426c-.442,1.008-.882,2.019-1.265,3.05a2.317,2.317,0,0,0,2.428,3.205,2.174,2.174,0,0,1,2.037.759c.165.158.361.285.516.451.238.254.388.173.6-.058,1.042-1.16,1.048-1.154-.127-2.178-.078-.068-.156-.137-.232-.208-.8-.748-1.557-1.55-2.807-.761-.339.214-.669-.139-.517-.535.372-.969.764-1.932,1.193-2.877.18-.4.53-.373.753.012a4.022,4.022,0,0,1,.243.572,1.079,1.079,0,0,0,1.026.768c.56.027,1.119.078,1.679.114C-389.031,1732.573-389.03,1732.572-388.957,1731.1Z" transform="translate(-10.022 -10.051)" fill="#02c069"/>
      <path id="Trazado_171542" data-name="Trazado 171542" d="M-289.215,1830.788c-2.122,0-4.245,0-6.367,0a3.4,3.4,0,0,1-3.1-5.225q2.778-5.161,5.558-10.322a4.217,4.217,0,0,1,3.917-2.429,4.226,4.226,0,0,1,3.912,2.438q2.77,5.165,5.557,10.321a3.4,3.4,0,0,1-3.112,5.217Q-286.031,1830.793-289.215,1830.788Zm0-2c2.121,0,4.243,0,6.365,0a1.418,1.418,0,0,0,1.352-2.277c-1.836-3.421-3.685-6.834-5.519-10.256a2.391,2.391,0,0,0-2.217-1.449,2.384,2.384,0,0,0-2.16,1.439c-1.833,3.422-3.682,6.835-5.519,10.255-.684,1.274-.065,2.286,1.4,2.289Q-292.366,1828.794-289.215,1828.789Z" transform="translate(-99.884 -94.884)" fill="#010201"/>
      <path id="Trazado_171543" data-name="Trazado 171543" d="M-179.6,1891.389c.824.068,1.61.151,2.4.191a1.138,1.138,0,0,1,1.112.833c.055.156.12.31.187.462a.469.469,0,0,0,.411.335.444.444,0,0,0,.415-.324c.383-.92.761-1.842,1.146-2.761a.427.427,0,0,0-.062-.516.451.451,0,0,0-.521-.075c-.215.078-.425.168-.635.256a1,1,0,0,1-1.107-.169c-.7-.594-1.377-1.2-2.078-1.792-.227-.19-.226-.318-.045-.551.984-1.267.985-1.281,2.165-.252a1.639,1.639,0,0,0,1.571.511,2.349,2.349,0,0,1,2.613,3.2c-.381,1.031-.822,2.042-1.264,3.049a2.268,2.268,0,0,1-2.1,1.426,2.232,2.232,0,0,1-2.192-1.268.764.764,0,0,0-.782-.458c-.539-.011-1.077-.091-1.616-.109-.285-.009-.358-.129-.333-.383.044-.455.066-.912.118-1.366C-180.144,1891.16-179.773,1891.475-179.6,1891.389Z" transform="translate(-198.901 -156.093)" fill="#000302"/>
      <path id="Trazado_171544" data-name="Trazado 171544" d="M-174.121,1825.031c-1.136-.458-1.8.311-2.483.979-.4.391-.642.382-1-.078-.808-1.032-.834-1.01.17-1.865.4-.337.8-.665,1.173-1.027a1.194,1.194,0,0,1,1.48-.247c.131.063.265.12.4.172a.473.473,0,0,0,.574-.073.437.437,0,0,0,.044-.52q-.563-1.351-1.122-2.7c-.085-.207-.213-.376-.45-.369a.458.458,0,0,0-.417.407c-.233,1.085-1.016,1.293-1.967,1.3-.643.006-1.286.076-1.928.128-.25.02-.409-.038-.385-.327a.34.34,0,0,0,0-.062c-.178-1.633-.178-1.656,1.48-1.7a1.339,1.339,0,0,0,1.289-.693,2.343,2.343,0,0,1,4.062.22,26.035,26.035,0,0,1,1.389,3.333A2.364,2.364,0,0,1-174.121,1825.031Z" transform="translate(-199.072 -98.609)" fill="#000302"/>
      <path id="Trazado_171545" data-name="Trazado 171545" d="M-293,1771.181a.175.175,0,0,1,0,.062c-.463,1.063.266,1.675.873,2.344.565.621.556.629-.059,1.158-.919.792-.917.79-1.723-.164-.363-.429-.722-.862-1.107-1.269a1.171,1.171,0,0,1-.227-1.429,2.878,2.878,0,0,0,.211-.518c.1-.417-.149-.687-.543-.536-.969.371-1.931.765-2.877,1.192-.4.179-.4.641.005.735,1.437.332,1.405,1.429,1.441,2.526.016.477.063.954.113,1.429.03.289-.065.386-.366.42-1.655.187-1.678.2-1.725-1.471a1.394,1.394,0,0,0-.724-1.338,2.334,2.334,0,0,1,.233-4.024,24.933,24.933,0,0,1,3.392-1.407A2.353,2.353,0,0,1-293,1771.181Z" transform="translate(-98.58 -58.196)" fill="#000302"/>
      <path id="Trazado_171546" data-name="Trazado 171546" d="M-226.592,1776.6c.071-.865.153-1.672.2-2.48a1.107,1.107,0,0,1,.8-1.069c.156-.057.311-.119.463-.186.2-.088.376-.209.363-.453a.47.47,0,0,0-.348-.4c-.921-.38-1.836-.776-2.766-1.133-.429-.164-.785.167-.556.539.709,1.152.081,1.9-.661,2.661-.376.387-.722.8-1.065,1.222-.167.2-.314.248-.5.043a.361.361,0,0,0-.048-.04c-1.243-.967-1.258-.98-.219-2.158a1.667,1.667,0,0,0,.487-1.579,2.348,2.348,0,0,1,3.174-2.6c1.053.379,2.081.835,3.106,1.288a2.257,2.257,0,0,1,1.4,2.113,2.237,2.237,0,0,1-1.237,2.151.8.8,0,0,0-.492.823c.006.414-.113.832-.082,1.241.051.665-.27.766-.812.656a2.433,2.433,0,0,0-.618-.067C-226.474,1777.2-226.732,1777.063-226.592,1776.6Z" transform="translate(-156.115 -58.232)" fill="#000302"/>
      <path id="Trazado_171547" data-name="Trazado 171547" d="M-340.892,1892.275c.078.3-.072.479-.495.447-.184-.014-.372.054-.557.048a2.242,2.242,0,0,0-2.094,1.012,2.284,2.284,0,0,1-3.777-.47,31.892,31.892,0,0,1-1.419-3.387,2.192,2.192,0,0,1,.544-2.362,2.27,2.27,0,0,1,2.393-.658.812.812,0,0,0,.891-.2c.391-.373.832-.692,1.221-1.066.327-.314.521-.07.614.161.191.474,1.2.666.676,1.317a15.092,15.092,0,0,1-2.092,1.86.98.98,0,0,1-1.052.161c-.232-.09-.456-.209-.694-.277-.443-.126-.717.138-.553.565.364.949.749,1.892,1.166,2.82.192.427.663.432.77-.012.327-1.36,1.354-1.378,2.419-1.406.5-.013,1-.054,1.491-.111.329-.038.44.077.442.4C-341,1891.468-340.937,1891.819-340.892,1892.275Z" transform="translate(-58.072 -155.424)" fill="#000302"/>
      <path id="Trazado_171548" data-name="Trazado 171548" d="M-230.92,1944.088a.348.348,0,0,1,0-.124c.441-1.035-.272-1.633-.857-2.285-.57-.635-.566-.64.071-1.2.888-.782.886-.781,1.641.115.348.413.679.845,1.062,1.224a1.307,1.307,0,0,1,.267,1.693c-.132.261-.353.568-.036.851.284.254.549.016.8-.086.771-.307,1.538-.627,2.3-.946.212-.088.449-.179.462-.45.014-.308-.229-.436-.475-.5a1.534,1.534,0,0,1-1.213-1.707c-.01-.705-.076-1.411-.141-2.114-.031-.33.082-.464.408-.435a1.537,1.537,0,0,0,.249-.01c1.322-.1,1.323-.1,1.431,1.2a7.038,7.038,0,0,1,.031.748.6.6,0,0,0,.373.636,2.29,2.29,0,0,1,1.343,2.275,2.349,2.349,0,0,1-1.562,2.142c-.957.4-1.909.817-2.882,1.178A2.381,2.381,0,0,1-230.92,1944.088Z" transform="translate(-155.69 -199.233)" fill="#000302"/>
      <path id="Trazado_171549" data-name="Trazado 171549" d="M-298.263,1937.6c1.487.062,1.486.062,1.371,1.509-.043.539-.09,1.077-.111,1.617a1.123,1.123,0,0,1-.846,1.1,2.754,2.754,0,0,0-.513.223c-.377.226-.389.571.014.752q1.42.638,2.878,1.19c.389.148.734-.194.518-.537-.767-1.219-.024-1.976.733-2.756.087-.089.167-.185.249-.279,1.068-1.226,1.064-1.221,2.227-.067.187.185.219.306.034.509-.378.414-.722.861-1.1,1.271a.715.715,0,0,0-.2.779,2.287,2.287,0,0,1-.715,2.541,2.316,2.316,0,0,1-2.563.381c-.922-.379-1.845-.756-2.764-1.14a2.351,2.351,0,0,1-1.576-2.2,2.283,2.283,0,0,1,1.335-2.219.588.588,0,0,0,.384-.568c.013-.519.1-1.036.1-1.554C-298.819,1937.707-298.7,1937.48-298.263,1937.6Z" transform="translate(-98.675 -198.812)" fill="#000302"/>
      <path id="Trazado_171550" data-name="Trazado 171550" d="M-340.776,1819.738c-.074,1.476-.074,1.477-1.494,1.385-.56-.036-1.119-.087-1.679-.114a1.079,1.079,0,0,1-1.026-.768,4.024,4.024,0,0,0-.243-.572c-.222-.385-.573-.408-.753-.012-.429.945-.821,1.908-1.193,2.877-.152.4.178.748.517.535,1.25-.789,2.008.014,2.807.761.076.071.154.14.232.208,1.175,1.025,1.169,1.019.127,2.178-.207.231-.357.312-.6.058-.155-.166-.352-.292-.516-.451a2.174,2.174,0,0,0-2.037-.759,2.317,2.317,0,0,1-2.428-3.205c.383-1.031.823-2.042,1.265-3.049a2.27,2.27,0,0,1,2.1-1.425,2.249,2.249,0,0,1,2.194,1.267.718.718,0,0,0,.717.457c.5,0,.994.1,1.491.094C-340.846,1819.2-340.665,1819.348-340.776,1819.738Z" transform="translate(-58.203 -98.693)" fill="#000302"/>
      <path id="Trazado_171551" data-name="Trazado 171551" d="M-279.279,1838.74q-3.151,0-6.3,0c-1.462,0-2.081-1.015-1.4-2.289,1.837-3.42,3.686-6.833,5.519-10.255a2.384,2.384,0,0,1,2.16-1.439,2.391,2.391,0,0,1,2.217,1.449c1.833,3.422,3.683,6.835,5.519,10.256a1.418,1.418,0,0,1-1.352,2.277C-275.036,1838.744-277.157,1838.74-279.279,1838.74Zm-.995-7.993v1.5c0,1.55,0,1.537,1.563,1.511.358-.006.449-.112.444-.456-.018-1.35-.007-2.7-.007-4.05,0-1.6,0-1.585-1.626-1.51-.3.014-.385.1-.38.393C-280.263,1829-280.273,1829.874-280.273,1830.746Zm.995,5.991a1.007,1.007,0,0,0,1-.977,1,1,0,0,0-.961-1.015,1,1,0,0,0-1.03,1.007A1,1,0,0,0-279.278,1836.737Z" transform="translate(-109.82 -104.835)" fill="#fdc231"/>
      <path id="Trazado_171552" data-name="Trazado 171552" d="M-245.466,1845.487c0-.872.011-1.745-.006-2.617-.006-.292.077-.379.38-.393,1.626-.076,1.626-.086,1.626,1.51,0,1.35-.011,2.7.007,4.05,0,.345-.086.45-.444.456-1.563.026-1.563.039-1.563-1.511Z" transform="translate(-144.627 -119.576)" fill="#010201"/>
      <path id="Trazado_171553" data-name="Trazado 171553" d="M-244.421,1886.569a1,1,0,0,1-.991-.985,1,1,0,0,1,1.03-1.007,1,1,0,0,1,.961,1.015A1.007,1.007,0,0,1-244.421,1886.569Z" transform="translate(-144.677 -154.666)" fill="#020302"/>
    </g>
  </g>
</svg>
